<svg width="301" height="60" viewBox="0 0 301 60" fill="none" xmlns="http://www.w3.org/2000/svg">
<mask id="mask0_177_1266" style="mask-type:alpha" maskUnits="userSpaceOnUse" x="-19" y="-141" width="335" height="248">
<rect width="210.925" height="205.883" transform="matrix(0.803727 0.594998 -0.803727 0.594998 146.474 -141)" fill="#9CA8C0"/>
</mask>
<g mask="url(#mask0_177_1266)">
<rect width="301" height="60" fill="#9CA8C0"/>
<path d="M86 43L100.064 14.776H109.52L123.536 43H116.144L113.312 36.904H96.128L93.008 43H86ZM97.856 32.2H111.536L104.96 19.096H104.48L97.856 32.2ZM158.059 43.48C156.779 43.48 155.515 43.288 154.267 42.904C153.051 42.488 151.659 41.496 150.091 39.928L146.635 36.472C145.227 35.032 143.675 33.976 141.979 33.304C140.315 32.632 138.219 32.296 135.691 32.296H134.203V43H127.867V18.616L127.387 14.728H148.651C150.699 14.728 152.299 15 153.451 15.544C154.635 16.088 155.499 16.808 156.043 17.704C156.619 18.568 156.987 19.496 157.147 20.488C157.307 21.48 157.387 22.424 157.387 23.32V24.232C157.387 24.936 157.291 25.72 157.099 26.584C156.907 27.448 156.539 28.296 155.995 29.128C155.451 29.96 154.667 30.664 153.643 31.24C152.651 31.816 151.339 32.152 149.707 32.248C150.123 32.472 150.651 32.824 151.291 33.304C151.931 33.752 152.587 34.248 153.259 34.792C153.963 35.336 154.603 35.832 155.179 36.28C155.755 36.728 156.203 37.048 156.523 37.24C157.675 37.912 158.699 38.376 159.595 38.632C160.491 38.888 161.227 39.032 161.803 39.064C162.379 39.096 162.715 39.112 162.811 39.112L161.851 43C161.563 43.096 161.083 43.192 160.411 43.288C159.739 43.416 158.955 43.48 158.059 43.48ZM141.403 27.928C142.619 27.928 143.707 27.912 144.667 27.88C145.627 27.816 146.491 27.752 147.259 27.688C148.667 27.528 149.643 27.144 150.187 26.536C150.763 25.896 151.051 25.08 151.051 24.088V22.984C151.051 21.96 150.779 21.096 150.235 20.392C149.691 19.688 148.715 19.336 147.307 19.336H134.203V27.688C135.611 27.784 136.907 27.848 138.091 27.88C139.275 27.912 140.379 27.928 141.403 27.928ZM167.137 43V14.776H173.473V43H167.137ZM177.312 43L191.377 14.776H200.833L214.849 43H207.457L204.625 36.904H187.441L184.321 43H177.312ZM189.169 32.2H202.849L196.273 19.096H195.793L189.169 32.2Z" fill="#19205C"/>
</g>
</svg>
