<svg width="148" height="148" viewBox="0 0 148 148" fill="none" xmlns="http://www.w3.org/2000/svg">
<g style="mix-blend-mode:plus-darker">
<path fill-rule="evenodd" clip-rule="evenodd" d="M-1.37091e-06 74C-1.37091e-06 114.869 33.1309 148 74 148C114.869 148 148 114.869 148 74C148 33.1309 114.869 0 74 0C33.1309 0 -1.37091e-06 33.1309 -1.37091e-06 74ZM70.6193 74C70.6193 75.8671 72.1329 77.3807 74 77.3807C75.8671 77.3807 77.3807 75.8671 77.3807 74C77.3807 72.1329 75.8671 70.6193 74 70.6193C72.1329 70.6193 70.6193 72.1329 70.6193 74Z" fill="black"/>
<path fill-rule="evenodd" clip-rule="evenodd" d="M-1.37091e-06 74C-1.37091e-06 114.869 33.1309 148 74 148C114.869 148 148 114.869 148 74C148 33.1309 114.869 0 74 0C33.1309 0 -1.37091e-06 33.1309 -1.37091e-06 74ZM70.6193 74C70.6193 75.8671 72.1329 77.3807 74 77.3807C75.8671 77.3807 77.3807 75.8671 77.3807 74C77.3807 72.1329 75.8671 70.6193 74 70.6193C72.1329 70.6193 70.6193 72.1329 70.6193 74Z" fill="url(#paint0_diamond_272_1132)" fill-opacity="0.5"/>
<path fill-rule="evenodd" clip-rule="evenodd" d="M-1.37091e-06 74C-1.37091e-06 114.869 33.1309 148 74 148C114.869 148 148 114.869 148 74C148 33.1309 114.869 0 74 0C33.1309 0 -1.37091e-06 33.1309 -1.37091e-06 74ZM70.6193 74C70.6193 75.8671 72.1329 77.3807 74 77.3807C75.8671 77.3807 77.3807 75.8671 77.3807 74C77.3807 72.1329 75.8671 70.6193 74 70.6193C72.1329 70.6193 70.6193 72.1329 70.6193 74Z" fill="url(#paint1_diamond_272_1132)" fill-opacity="0.5"/>
<path fill-rule="evenodd" clip-rule="evenodd" d="M-1.37091e-06 74C-1.37091e-06 114.869 33.1309 148 74 148C114.869 148 148 114.869 148 74C148 33.1309 114.869 0 74 0C33.1309 0 -1.37091e-06 33.1309 -1.37091e-06 74ZM70.6193 74C70.6193 75.8671 72.1329 77.3807 74 77.3807C75.8671 77.3807 77.3807 75.8671 77.3807 74C77.3807 72.1329 75.8671 70.6193 74 70.6193C72.1329 70.6193 70.6193 72.1329 70.6193 74Z" fill="url(#paint2_linear_272_1132)" fill-opacity="0.37"/>
</g>
<defs>
<radialGradient id="paint0_diamond_272_1132" cx="0" cy="0" r="1" gradientUnits="userSpaceOnUse" gradientTransform="translate(73.6244 1.35056e-06) rotate(90) scale(73.6244 97.1842)">
<stop stop-color="#BFBEBE"/>
<stop offset="1"/>
</radialGradient>
<radialGradient id="paint1_diamond_272_1132" cx="0" cy="0" r="1" gradientUnits="userSpaceOnUse" gradientTransform="translate(73.6244 148) rotate(-90) scale(74.3756 98.1759)">
<stop stop-color="#BFBEBE"/>
<stop offset="1"/>
</radialGradient>
<linearGradient id="paint2_linear_272_1132" x1="148" y1="74" x2="0" y2="74" gradientUnits="userSpaceOnUse">
<stop offset="0.199226"/>
<stop offset="0.499748" stop-color="white"/>
<stop offset="0.8019"/>
</linearGradient>
</defs>
</svg>
