<svg width="151" height="151" viewBox="0 0 151 151" fill="none" xmlns="http://www.w3.org/2000/svg">
<path d="M0.114258 0.00146484H151V150.887H0.114258C0.114258 150.887 2.28175 148.996 2.28175 75.4442C2.28175 1.89281 0.114258 0.00146484 0.114258 0.00146484Z" fill="#D9D9D9"/>
<path fill-rule="evenodd" clip-rule="evenodd" d="M8.39624 8.4585H142.559V142.622H8.39624V8.4585ZM10.5125 10.5749H140.443V68.8721H31.6756V87.1501H140.443V87.9197H31.6756V121.974H140.443V122.744H31.6756V140.505H10.5125V10.5749Z" fill="#5CB28A"/>
<path d="M37.8223 66L33.5223 54.26H36.3223L39.1423 61.94L39.6023 63.88H39.8023L40.0623 62.52L42.7223 54.26H46.1223L48.9023 62.52L49.2623 63.88H49.4623L49.9223 61.94L52.5423 54.26H55.3423L55.1423 55.46L51.0223 66H47.6223L44.9023 58.14L44.5023 56.86H44.3023L43.9223 58.14L41.2223 66H37.8223ZM58.388 66C57.4947 66 56.828 65.82 56.388 65.46C55.9614 65.1 55.748 64.5133 55.748 63.7V59.6C55.748 59.4 55.7614 59.16 55.788 58.88C55.828 58.5867 55.9214 58.3 56.068 58.02C56.228 57.74 56.488 57.5067 56.848 57.32C57.2214 57.1333 57.7347 57.04 58.388 57.04H63.908C64.5747 57.04 65.088 57.1333 65.448 57.32C65.808 57.5067 66.0614 57.74 66.208 58.02C66.368 58.3 66.4614 58.5867 66.488 58.88C66.528 59.16 66.548 59.4 66.548 59.6V63.44C66.548 63.68 66.528 63.9467 66.488 64.24C66.4614 64.5333 66.368 64.8133 66.208 65.08C66.048 65.3467 65.788 65.5667 65.428 65.74C65.068 65.9133 64.5614 66 63.908 66H58.388ZM59.148 64.28H63.148C63.8014 64.28 64.128 64.0133 64.128 63.48V59.56C64.128 59.0267 63.8014 58.76 63.148 58.76H59.148C58.508 58.76 58.188 59.0267 58.188 59.56V63.48C58.188 64.0133 58.508 64.28 59.148 64.28ZM68.741 66V57.04H70.381L71.141 57.44C71.4877 57.2533 71.861 57.1067 72.261 57C72.661 56.8933 73.1677 56.84 73.781 56.84C74.7543 56.84 75.541 56.9467 76.141 57.16C76.7543 57.3733 77.161 57.5333 77.361 57.64L76.661 59.38C76.501 59.3 76.2343 59.2 75.861 59.08C75.501 58.9467 75.0743 58.8267 74.581 58.72C74.0877 58.6133 73.5477 58.56 72.961 58.56H72.741C72.101 58.56 71.681 58.6867 71.481 58.94C71.2943 59.1933 71.1943 59.6133 71.181 60.2V66H68.741ZM88.3405 66.2C87.7805 66.2 87.3005 66.1333 86.9005 66C86.5139 65.8667 86.1005 65.58 85.6605 65.14C85.6205 65.1 85.5139 64.9933 85.3405 64.82C85.1672 64.6467 84.9739 64.4533 84.7605 64.24C84.5605 64.0267 84.3739 63.8333 84.2005 63.66C84.0272 63.4867 83.9139 63.3733 83.8605 63.32C83.5272 62.9867 83.2072 62.7267 82.9005 62.54C82.6072 62.3533 82.2405 62.26 81.8005 62.26C81.5072 62.26 81.3339 62.2867 81.2805 62.34C81.2272 62.3933 81.2005 62.5733 81.2005 62.88V66H78.7605V53.34H81.2005V60.54H81.8405C82.0805 60.54 82.2939 60.4467 82.4805 60.26C82.6005 60.14 82.8272 59.9 83.1605 59.54C83.4939 59.18 83.8672 58.7733 84.2805 58.32C84.7072 57.8667 85.0939 57.4467 85.4405 57.06H88.3805L88.0605 57.68C87.7539 58 87.4205 58.34 87.0605 58.7C86.7005 59.0467 86.3472 59.3867 86.0005 59.72C85.6672 60.04 85.3605 60.3267 85.0805 60.58C84.8005 60.82 84.5872 60.98 84.4405 61.06C84.8405 61.2733 85.2005 61.52 85.5205 61.8C85.8405 62.0667 86.1872 62.3733 86.5605 62.72C86.9339 63.0533 87.3805 63.4333 87.9005 63.86C88.3672 64.2333 88.8005 64.4533 89.2005 64.52C89.6005 64.5733 89.8405 64.6 89.9205 64.6L89.5605 66C89.4272 66.04 89.2472 66.08 89.0205 66.12C88.7939 66.1733 88.5672 66.2 88.3405 66.2ZM93.3838 66C92.4905 66 91.8572 65.9533 91.4838 65.86C91.1105 65.7667 90.9238 65.6733 90.9238 65.58L91.5238 64.08C91.9105 64.12 92.6172 64.1667 93.6438 64.22C94.6838 64.26 95.9638 64.28 97.4838 64.28H98.4838C98.8172 64.28 99.0238 64.1933 99.1038 64.02C99.1972 63.8333 99.2438 63.5867 99.2438 63.28C99.2438 62.9733 99.1905 62.7267 99.0838 62.54C98.9905 62.3533 98.7905 62.26 98.4838 62.26H93.5638C92.6305 62.26 91.9572 62.0867 91.5438 61.74C91.1305 61.38 90.9238 60.8467 90.9238 60.14V59.34C90.9238 59.1533 90.9438 58.9333 90.9838 58.68C91.0238 58.4267 91.1238 58.1733 91.2838 57.92C91.4438 57.6667 91.7038 57.46 92.0638 57.3C92.4238 57.1267 92.9238 57.04 93.5638 57.04H99.0838C99.8838 57.04 100.45 57.0867 100.784 57.18C101.117 57.2733 101.284 57.3667 101.284 57.46L101.084 58.96C100.697 58.92 99.9838 58.88 98.9438 58.84C97.9038 58.7867 96.6305 58.76 95.1238 58.76H94.1238C93.7905 58.76 93.5772 58.8533 93.4838 59.04C93.4038 59.2133 93.3638 59.42 93.3638 59.66C93.3638 59.9133 93.4038 60.1267 93.4838 60.3C93.5772 60.46 93.7905 60.54 94.1238 60.54H99.0438C99.9505 60.54 100.617 60.7267 101.044 61.1C101.47 61.4733 101.684 61.9467 101.684 62.52V63.7C101.684 63.94 101.664 64.1933 101.624 64.46C101.597 64.7267 101.504 64.98 101.344 65.22C101.184 65.4467 100.924 65.6333 100.564 65.78C100.204 65.9267 99.6972 66 99.0438 66H93.3838Z" fill="#2A1919"/>
<path d="M28 124.142L18.608 127.582V125.342L24.752 123.086L26.304 122.718V122.558L25.216 122.35L18.608 120.222V117.502L25.216 115.278L26.304 114.99V114.83L24.752 114.462L18.608 112.366V110.126L19.568 110.286L28 113.582V116.302L21.712 118.478L20.688 118.798V118.958L21.712 119.262L28 121.422V124.142ZM28 107.69C28 108.404 27.856 108.938 27.568 109.29C27.28 109.631 26.8107 109.802 26.16 109.802H22.88C22.72 109.802 22.528 109.791 22.304 109.77C22.0693 109.738 21.84 109.663 21.616 109.546C21.392 109.418 21.2053 109.21 21.056 108.922C20.9067 108.623 20.832 108.212 20.832 107.69V103.274C20.832 102.74 20.9067 102.33 21.056 102.042C21.2053 101.754 21.392 101.551 21.616 101.434C21.84 101.306 22.0693 101.231 22.304 101.21C22.528 101.178 22.72 101.162 22.88 101.162H25.952C26.144 101.162 26.3573 101.178 26.592 101.21C26.8267 101.231 27.0507 101.306 27.264 101.434C27.4773 101.562 27.6533 101.77 27.792 102.058C27.9307 102.346 28 102.751 28 103.274V107.69ZM26.624 107.082V103.882C26.624 103.359 26.4107 103.098 25.984 103.098H22.848C22.4213 103.098 22.208 103.359 22.208 103.882V107.082C22.208 107.594 22.4213 107.85 22.848 107.85H25.984C26.4107 107.85 26.624 107.594 26.624 107.082ZM28 99.4072H20.832V98.0952L21.152 97.4872C21.0027 97.2099 20.8853 96.9112 20.8 96.5912C20.7147 96.2712 20.672 95.8659 20.672 95.3752C20.672 94.5965 20.7573 93.9672 20.928 93.4872C21.0987 92.9965 21.2267 92.6712 21.312 92.5112L22.704 93.0712C22.64 93.1992 22.56 93.4125 22.464 93.7112C22.3573 93.9992 22.2613 94.3405 22.176 94.7352C22.0907 95.1299 22.048 95.5619 22.048 96.0312V96.2072C22.048 96.7192 22.1493 97.0552 22.352 97.2152C22.5547 97.3645 22.8907 97.4445 23.36 97.4552H28V99.4072ZM28.16 83.7276C28.16 84.1756 28.1067 84.5596 28 84.8796C27.8933 85.1889 27.664 85.5196 27.312 85.8716C27.28 85.9036 27.1947 85.9889 27.056 86.1276C26.9173 86.2662 26.7627 86.4209 26.592 86.5916C26.4213 86.7516 26.2667 86.9009 26.128 87.0396C25.9893 87.1782 25.8987 87.2689 25.856 87.3116C25.5893 87.5782 25.3813 87.8342 25.232 88.0796C25.0827 88.3142 25.008 88.6076 25.008 88.9596C25.008 89.1942 25.0293 89.3329 25.072 89.3756C25.1147 89.4182 25.2587 89.4396 25.504 89.4396H28V91.3916H17.872V89.4396H23.632V88.9276C23.632 88.7356 23.5573 88.5649 23.408 88.4156C23.312 88.3196 23.12 88.1382 22.832 87.8716C22.544 87.6049 22.2187 87.3062 21.856 86.9756C21.4933 86.6342 21.1573 86.3249 20.848 86.0476V83.6956L21.344 83.9516C21.6 84.1969 21.872 84.4636 22.16 84.7516C22.4373 85.0396 22.7093 85.3222 22.976 85.5996C23.232 85.8662 23.4613 86.1116 23.664 86.3356C23.856 86.5596 23.984 86.7302 24.048 86.8476C24.2187 86.5276 24.416 86.2396 24.64 85.9836C24.8533 85.7276 25.0987 85.4502 25.376 85.1516C25.6427 84.8529 25.9467 84.4956 26.288 84.0796C26.5867 83.7062 26.7627 83.3596 26.816 83.0396C26.8587 82.7196 26.88 82.5276 26.88 82.4636L28 82.7516C28.032 82.8582 28.064 83.0022 28.096 83.1836C28.1387 83.3649 28.16 83.5462 28.16 83.7276ZM28 79.6929C28 80.4076 27.9627 80.9143 27.888 81.2129C27.8133 81.5116 27.7387 81.6609 27.664 81.6609L26.464 81.1809C26.496 80.8716 26.5333 80.3063 26.576 79.4849C26.608 78.6529 26.624 77.6289 26.624 76.4129V75.6129C26.624 75.3463 26.5547 75.1809 26.416 75.1169C26.2667 75.0423 26.0693 75.0049 25.824 75.0049C25.5787 75.0049 25.3813 75.0476 25.232 75.1329C25.0827 75.2076 25.008 75.3676 25.008 75.6129V79.5489C25.008 80.2956 24.8693 80.8343 24.592 81.1649C24.304 81.4956 23.8773 81.6609 23.312 81.6609H22.672C22.5227 81.6609 22.3467 81.6449 22.144 81.6129C21.9413 81.5809 21.7387 81.5009 21.536 81.3729C21.3333 81.2449 21.168 81.0369 21.04 80.7489C20.9013 80.4609 20.832 80.0609 20.832 79.5489V75.1329C20.832 74.4929 20.8693 74.0396 20.944 73.7729C21.0187 73.5063 21.0933 73.3729 21.168 73.3729L22.368 73.5329C22.336 73.8423 22.304 74.4129 22.272 75.2449C22.2293 76.0769 22.208 77.0956 22.208 78.3009V79.1009C22.208 79.3676 22.2827 79.5383 22.432 79.6129C22.5707 79.6769 22.736 79.7089 22.928 79.7089C23.1307 79.7089 23.3013 79.6769 23.44 79.6129C23.568 79.5383 23.632 79.3676 23.632 79.1009V75.1649C23.632 74.4396 23.7813 73.9063 24.08 73.5649C24.3787 73.2236 24.7573 73.0529 25.216 73.0529H26.16C26.352 73.0529 26.5547 73.0689 26.768 73.1009C26.9813 73.1223 27.184 73.1969 27.376 73.3249C27.5573 73.4529 27.7067 73.6609 27.824 73.9489C27.9413 74.2369 28 74.6423 28 75.1649V79.6929Z" fill="#2A1919"/>
</svg>
