<svg width="151" height="151" viewBox="0 0 151 151" fill="none" xmlns="http://www.w3.org/2000/svg">
<path d="M0.114258 0.00195312H151V150.887H0.114258C0.114258 150.887 2.28175 148.996 2.28175 75.4447C2.28175 1.8933 0.114258 0.00195312 0.114258 0.00195312Z" fill="#D9D9D9"/>
<path fill-rule="evenodd" clip-rule="evenodd" d="M8.39648 8.45898H142.56V142.622H8.39648V8.45898ZM10.5128 10.5754H140.443V68.8726H31.6759V87.1506H140.443V87.9202H31.6759V121.975H140.443V122.745H31.6759V140.506H10.5128V10.5754Z" fill="#2C5ECA"/>
<path d="M32.3594 63L38.2194 51.24H42.1594L47.9994 63H44.9194L43.7394 60.46H36.5794L35.2794 63H32.3594ZM37.2994 58.5H42.9994L40.2594 53.04H40.0594L37.2994 58.5ZM49.2039 63V50.32H51.6439V54.28C52.2172 54.2133 52.8906 54.16 53.6639 54.12C54.4506 54.0667 55.3439 54.04 56.3439 54.04H57.3639C58.0306 54.04 58.5439 54.1267 58.9039 54.3C59.2639 54.4733 59.5172 54.6933 59.6639 54.96C59.8239 55.2267 59.9172 55.5067 59.9439 55.8C59.9839 56.0933 60.0039 56.36 60.0039 56.6V60.44C60.0039 60.64 59.9839 60.8867 59.9439 61.18C59.9172 61.46 59.8239 61.74 59.6639 62.02C59.5172 62.3 59.2639 62.5333 58.9039 62.72C58.5439 62.9067 58.0306 63 57.3639 63H56.3439C55.2372 63 54.2706 62.9733 53.4439 62.92C52.6172 62.8533 51.9306 62.7867 51.3839 62.72L50.8439 63H49.2039ZM52.2639 61.28H56.6039C57.2439 61.28 57.5639 61.0133 57.5639 60.48V56.56C57.5772 56.2667 57.5172 56.06 57.3839 55.94C57.2506 55.82 56.9906 55.76 56.6039 55.76H55.6039C54.7506 55.76 53.9906 55.78 53.3239 55.82C52.6706 55.8467 52.1106 55.88 51.6439 55.92V60.66C51.6439 60.94 51.6706 61.1133 51.7239 61.18C51.7906 61.2467 51.9706 61.28 52.2639 61.28ZM64.6517 63C63.7584 63 63.0917 62.82 62.6517 62.46C62.2251 62.1 62.0117 61.5133 62.0117 60.7V56.6C62.0117 56.4 62.0251 56.16 62.0517 55.88C62.0917 55.5867 62.1851 55.3 62.3317 55.02C62.4917 54.74 62.7517 54.5067 63.1117 54.32C63.4851 54.1333 63.9984 54.04 64.6517 54.04H70.1717C70.8384 54.04 71.3517 54.1333 71.7117 54.32C72.0717 54.5067 72.3251 54.74 72.4717 55.02C72.6317 55.3 72.7251 55.5867 72.7517 55.88C72.7917 56.16 72.8117 56.4 72.8117 56.6V60.44C72.8117 60.68 72.7917 60.9467 72.7517 61.24C72.7251 61.5333 72.6317 61.8133 72.4717 62.08C72.3117 62.3467 72.0517 62.5667 71.6917 62.74C71.3317 62.9133 70.8251 63 70.1717 63H64.6517ZM65.4117 61.28H69.4117C70.0651 61.28 70.3917 61.0133 70.3917 60.48V56.56C70.3917 56.0267 70.0651 55.76 69.4117 55.76H65.4117C64.7717 55.76 64.4517 56.0267 64.4517 56.56V60.48C64.4517 61.0133 64.7717 61.28 65.4117 61.28ZM77.6447 63C76.9914 63 76.478 62.9133 76.1047 62.74C75.7447 62.5667 75.4847 62.3467 75.3247 62.08C75.178 61.8133 75.0847 61.5333 75.0447 61.24C75.018 60.9467 75.0047 60.68 75.0047 60.44V54.04H77.4447V60.48C77.4314 60.7733 77.5247 60.98 77.7247 61.1C77.938 61.22 78.1647 61.28 78.4047 61.28H82.3647C82.658 61.28 82.8314 61.2533 82.8847 61.2C82.938 61.1467 82.9647 60.9733 82.9647 60.68V54.04H85.4047V63H83.7647L83.0047 62.6C82.4714 62.7067 81.838 62.8 81.1047 62.88C80.3847 62.96 79.5714 63 78.6647 63H77.6447ZM91.2777 63C90.2643 63 89.571 62.7867 89.1977 62.36C88.8243 61.9333 88.6377 61.2933 88.6377 60.44V55.76H86.9977V54.04H87.8377C88.091 54.04 88.271 54 88.3777 53.92C88.4977 53.84 88.5843 53.68 88.6377 53.44L89.0377 51.3H91.0777V54.04H95.2377V55.76H91.0777V60.46C91.0777 60.7933 91.1577 61.0133 91.3177 61.12C91.4777 61.2267 91.7177 61.28 92.0377 61.28H94.8577L95.0577 62.8C94.7777 62.84 94.351 62.8867 93.7777 62.94C93.2043 62.98 92.5777 63 91.8977 63H91.2777Z" fill="#2A1919"/>
<path d="M27 119.812L17.592 115.124V111.972L27 107.3V109.764L24.968 110.708V116.436L27 117.476V119.812ZM23.4 115.86V111.3L19.032 113.492V113.652L23.4 115.86ZM27 106.337H16.856V104.385H20.024C19.9707 103.926 19.928 103.388 19.896 102.769C19.8533 102.14 19.832 101.425 19.832 100.625V99.8089C19.832 99.2755 19.9013 98.8649 20.04 98.5769C20.1787 98.2889 20.3547 98.0862 20.568 97.9689C20.7813 97.8409 21.0053 97.7662 21.24 97.7449C21.4747 97.7129 21.688 97.6969 21.88 97.6969H24.952C25.112 97.6969 25.3093 97.7129 25.544 97.7449C25.768 97.7662 25.992 97.8409 26.216 97.9689C26.44 98.0862 26.6267 98.2889 26.776 98.5769C26.9253 98.8649 27 99.2755 27 99.8089V100.625C27 101.51 26.9787 102.284 26.936 102.945C26.8827 103.606 26.8293 104.156 26.776 104.593L27 105.025V106.337ZM25.624 103.889V100.417C25.624 99.9049 25.4107 99.6489 24.984 99.6489H21.848C21.6133 99.6382 21.448 99.6862 21.352 99.7929C21.256 99.8995 21.208 100.108 21.208 100.417V101.217C21.208 101.9 21.224 102.508 21.256 103.041C21.2773 103.564 21.304 104.012 21.336 104.385H25.128C25.352 104.385 25.4907 104.364 25.544 104.321C25.5973 104.268 25.624 104.124 25.624 103.889ZM27 93.9786C27 94.6933 26.856 95.2266 26.568 95.5786C26.28 95.92 25.8107 96.0906 25.16 96.0906H21.88C21.72 96.0906 21.528 96.08 21.304 96.0586C21.0693 96.0266 20.84 95.952 20.616 95.8346C20.392 95.7066 20.2053 95.4986 20.056 95.2106C19.9067 94.912 19.832 94.5013 19.832 93.9786V89.5626C19.832 89.0293 19.9067 88.6186 20.056 88.3306C20.2053 88.0426 20.392 87.84 20.616 87.7226C20.84 87.5946 21.0693 87.52 21.304 87.4986C21.528 87.4666 21.72 87.4506 21.88 87.4506H24.952C25.144 87.4506 25.3573 87.4666 25.592 87.4986C25.8267 87.52 26.0507 87.5946 26.264 87.7226C26.4773 87.8506 26.6533 88.0586 26.792 88.3466C26.9307 88.6346 27 89.04 27 89.5626V93.9786ZM25.624 93.3706V90.1706C25.624 89.648 25.4107 89.3866 24.984 89.3866H21.848C21.4213 89.3866 21.208 89.648 21.208 90.1706V93.3706C21.208 93.8826 21.4213 94.1386 21.848 94.1386H24.984C25.4107 94.1386 25.624 93.8826 25.624 93.3706ZM27 83.5842C27 84.1069 26.9307 84.5176 26.792 84.8162C26.6533 85.1042 26.4773 85.3122 26.264 85.4402C26.0507 85.5576 25.8267 85.6322 25.592 85.6642C25.3573 85.6856 25.144 85.6962 24.952 85.6962H19.832V83.7442H24.984C25.2187 83.7549 25.384 83.6802 25.48 83.5202C25.576 83.3496 25.624 83.1682 25.624 82.9762V79.8082C25.624 79.5736 25.6027 79.4349 25.56 79.3922C25.5173 79.3496 25.3787 79.3282 25.144 79.3282H19.832V77.3762H27V78.6882L26.68 79.2962C26.7653 79.7229 26.84 80.2296 26.904 80.8162C26.968 81.3922 27 82.0429 27 82.7682V83.5842ZM27 72.6779C27 73.4885 26.8293 74.0432 26.488 74.3419C26.1467 74.6405 25.6347 74.7899 24.952 74.7899H21.208V76.1019H19.832V75.4299C19.832 75.2272 19.8 75.0832 19.736 74.9979C19.672 74.9019 19.544 74.8325 19.352 74.7899L17.64 74.4699V72.8379H19.832V69.5099H21.208V72.8379H24.968C25.2347 72.8379 25.4107 72.7739 25.496 72.6459C25.5813 72.5179 25.624 72.3259 25.624 72.0699V69.8139L26.84 69.6539C26.872 69.8779 26.9093 70.2192 26.952 70.6779C26.984 71.1365 27 71.6379 27 72.1819V72.6779Z" fill="#2A1919"/>
</svg>
