<svg width="149" height="151" viewBox="0 0 149 151" fill="none" xmlns="http://www.w3.org/2000/svg">
<path d="M0.114258 0.00146484H151V150.887H0.114258C0.114258 150.887 2.28175 148.996 2.28175 75.4442C2.28175 1.89281 0.114258 0.00146484 0.114258 0.00146484Z" fill="#D9D9D9"/>
<path fill-rule="evenodd" clip-rule="evenodd" d="M8.39624 8.4585H142.559V142.622H8.39624V8.4585ZM10.5125 10.5749H140.443V68.8721H31.6756V87.1501H140.443V87.9197H31.6756V121.974H140.443V122.744H31.6756V140.505H10.5125V10.5749Z" fill="#FBB24A"/>
<path d="M36.1069 62C35.1602 62 34.4202 61.8667 33.8869 61.6C33.3535 61.3333 32.9802 60.9333 32.7669 60.4C32.5535 59.8667 32.4469 59.2067 32.4469 58.42V53.96C32.4469 52.68 32.7335 51.74 33.3069 51.14C33.8802 50.5267 34.8135 50.22 36.1069 50.22H42.1269C43.0469 50.22 43.7469 50.2733 44.2269 50.38C44.7202 50.4733 44.9669 50.5733 44.9669 50.68L44.5669 52.34C44.3402 52.3 43.6669 52.26 42.5469 52.22C41.4402 52.1667 39.8269 52.14 37.7069 52.14H36.6869C35.6202 52.14 35.0869 52.6133 35.0869 53.56V58.66C35.0869 59.1133 35.2002 59.4667 35.4269 59.72C35.6669 59.96 36.0869 60.08 36.6869 60.08H37.5069C39.7202 60.08 41.4335 60.06 42.6469 60.02C43.8735 59.9667 44.6335 59.9133 44.9269 59.86L45.7469 61.18C45.7469 61.2467 45.6335 61.3467 45.4069 61.48C45.1935 61.6133 44.7935 61.7333 44.2069 61.84C43.6202 61.9467 42.7735 62 41.6669 62H36.1069ZM49.7845 62C48.8912 62 48.2245 61.82 47.7845 61.46C47.3579 61.1 47.1445 60.5133 47.1445 59.7V55.6C47.1445 55.4 47.1579 55.16 47.1845 54.88C47.2245 54.5867 47.3179 54.3 47.4645 54.02C47.6245 53.74 47.8845 53.5067 48.2445 53.32C48.6179 53.1333 49.1312 53.04 49.7845 53.04H55.3045C55.9712 53.04 56.4845 53.1333 56.8445 53.32C57.2045 53.5067 57.4579 53.74 57.6045 54.02C57.7645 54.3 57.8579 54.5867 57.8845 54.88C57.9245 55.16 57.9445 55.4 57.9445 55.6V59.44C57.9445 59.68 57.9245 59.9467 57.8845 60.24C57.8579 60.5333 57.7645 60.8133 57.6045 61.08C57.4445 61.3467 57.1845 61.5667 56.8245 61.74C56.4645 61.9133 55.9579 62 55.3045 62H49.7845ZM50.5445 60.28H54.5445C55.1979 60.28 55.5245 60.0133 55.5245 59.48V55.56C55.5245 55.0267 55.1979 54.76 54.5445 54.76H50.5445C49.9045 54.76 49.5845 55.0267 49.5845 55.56V59.48C49.5845 60.0133 49.9045 60.28 50.5445 60.28ZM60.1375 62V53.04H61.7775L62.5775 53.44C63.1375 53.3333 63.8108 53.24 64.5975 53.16C65.3842 53.08 66.2842 53.04 67.2975 53.04H68.2975C68.9642 53.04 69.4775 53.1333 69.8375 53.32C70.1975 53.5067 70.4508 53.74 70.5975 54.02C70.7575 54.3 70.8508 54.5867 70.8775 54.88C70.9175 55.16 70.9375 55.4 70.9375 55.6V62H68.4975V55.56C68.4975 55.0267 68.1775 54.76 67.5375 54.76H63.1775C62.9242 54.76 62.7575 54.7867 62.6775 54.84C62.6108 54.88 62.5775 55 62.5775 55.2V62H60.1375ZM76.723 62C75.7096 62 75.0163 61.7867 74.643 61.36C74.2696 60.9333 74.083 60.2933 74.083 59.44V54.76H72.443V53.04H73.283C73.5363 53.04 73.7163 53 73.823 52.92C73.943 52.84 74.0296 52.68 74.083 52.44L74.483 50.3H76.523V53.04H80.683V54.76H76.523V59.46C76.523 59.7933 76.603 60.0133 76.763 60.12C76.923 60.2267 77.163 60.28 77.483 60.28H80.303L80.503 61.8C80.223 61.84 79.7963 61.8867 79.223 61.94C78.6496 61.98 78.023 62 77.343 62H76.723ZM84.8659 62C83.8526 62 83.1193 61.7667 82.6659 61.3C82.2126 60.82 81.9859 60.1667 81.9859 59.34C81.9859 58.4733 82.2193 57.8067 82.6859 57.34C83.1659 56.8733 83.8926 56.64 84.8659 56.64H85.8859C86.8859 56.64 87.7859 56.6667 88.5859 56.72C89.3859 56.7733 90.0459 56.8267 90.5659 56.88V55.56C90.5659 55.44 90.5526 55.32 90.5259 55.2C90.4993 55.0667 90.4193 54.96 90.2859 54.88C90.1526 54.8 89.9259 54.76 89.6059 54.76H88.6059C87.1526 54.76 85.9393 54.7867 84.9659 54.84C83.9926 54.88 83.3326 54.92 82.9859 54.96L82.7659 53.44C82.7659 53.2533 83.2726 53.14 84.2859 53.1C85.2993 53.06 86.9926 53.04 89.3659 53.04H90.3659C91.0326 53.04 91.5459 53.1333 91.9059 53.32C92.2659 53.5067 92.5193 53.74 92.6659 54.02C92.8259 54.3 92.9193 54.5867 92.9459 54.88C92.9859 55.16 93.0059 55.4 93.0059 55.6V62H91.3659L90.5859 61.6C90.0259 61.6933 89.3526 61.7867 88.5659 61.88C87.7793 61.96 86.8793 62 85.8659 62H84.8659ZM85.3859 60.28H89.9659C90.2593 60.28 90.4326 60.2533 90.4859 60.2C90.5393 60.1467 90.5659 59.98 90.5659 59.7V58.16H85.3859C85.0259 58.16 84.7726 58.2467 84.6259 58.42C84.4926 58.5933 84.4259 58.8667 84.4259 59.24C84.4259 59.6133 84.5059 59.88 84.6659 60.04C84.8259 60.2 85.0659 60.28 85.3859 60.28ZM97.7533 62C97.0866 62 96.5733 61.9133 96.2133 61.74C95.8533 61.5667 95.5933 61.3467 95.4333 61.08C95.2866 60.8133 95.1933 60.5333 95.1533 60.24C95.1266 59.9467 95.1133 59.68 95.1133 59.44V55.6C95.1133 55.4 95.1266 55.16 95.1533 54.88C95.1933 54.5867 95.2866 54.3 95.4333 54.02C95.5933 53.74 95.8533 53.5067 96.2133 53.32C96.5866 53.1333 97.0999 53.04 97.7533 53.04H100.533C102.2 53.04 103.38 53.0867 104.073 53.18C104.78 53.26 105.133 53.3467 105.133 53.44L104.733 54.96C104.36 54.9333 103.887 54.9067 103.313 54.88C102.74 54.84 102.12 54.8133 101.453 54.8C100.8 54.7733 100.16 54.76 99.5333 54.76H98.5133C97.8733 54.76 97.5533 55.0267 97.5533 55.56V59.48C97.5399 60.0133 97.8599 60.28 98.5133 60.28H99.5333C100.253 60.28 100.953 60.2733 101.633 60.26C102.327 60.2333 102.96 60.2067 103.533 60.18C104.107 60.14 104.567 60.1067 104.913 60.08L105.713 61.38C105.713 61.7933 104.4 62 101.773 62H97.7533ZM110.59 62C109.577 62 108.883 61.7867 108.51 61.36C108.137 60.9333 107.95 60.2933 107.95 59.44V54.76H106.31V53.04H107.15C107.403 53.04 107.583 53 107.69 52.92C107.81 52.84 107.897 52.68 107.95 52.44L108.35 50.3H110.39V53.04H114.55V54.76H110.39V59.46C110.39 59.7933 110.47 60.0133 110.63 60.12C110.79 60.2267 111.03 60.28 111.35 60.28H114.17L114.37 61.8C114.09 61.84 113.663 61.8867 113.09 61.94C112.517 61.98 111.89 62 111.21 62H110.59Z" fill="#2A1919"/>
<path d="M26 131.514C26 132.272 25.8933 132.864 25.68 133.29C25.4667 133.717 25.1467 134.016 24.72 134.186C24.2933 134.357 23.7653 134.442 23.136 134.442H19.568C18.544 134.442 17.792 134.213 17.312 133.754C16.8213 133.296 16.576 132.549 16.576 131.514V126.698C16.576 125.962 16.6187 125.402 16.704 125.018C16.7787 124.624 16.8587 124.426 16.944 124.426L18.272 124.746C18.24 124.928 18.208 125.466 18.176 126.362C18.1333 127.248 18.112 128.538 18.112 130.234V131.05C18.112 131.904 18.4907 132.33 19.248 132.33H23.328C23.6907 132.33 23.9733 132.24 24.176 132.058C24.368 131.866 24.464 131.53 24.464 131.05V130.394C24.464 128.624 24.448 127.253 24.416 126.282C24.3733 125.301 24.3307 124.693 24.288 124.458L25.344 123.802C25.3973 123.802 25.4773 123.893 25.584 124.074C25.6907 124.245 25.7867 124.565 25.872 125.034C25.9573 125.504 26 126.181 26 127.066V131.514ZM26 120.572C26 121.287 25.856 121.82 25.568 122.172C25.28 122.514 24.8107 122.684 24.16 122.684H20.88C20.72 122.684 20.528 122.674 20.304 122.652C20.0693 122.62 19.84 122.546 19.616 122.428C19.392 122.3 19.2053 122.092 19.056 121.804C18.9067 121.506 18.832 121.095 18.832 120.572V116.156C18.832 115.623 18.9067 115.212 19.056 114.924C19.2053 114.636 19.392 114.434 19.616 114.316C19.84 114.188 20.0693 114.114 20.304 114.092C20.528 114.06 20.72 114.044 20.88 114.044H23.952C24.144 114.044 24.3573 114.06 24.592 114.092C24.8267 114.114 25.0507 114.188 25.264 114.316C25.4773 114.444 25.6533 114.652 25.792 114.94C25.9307 115.228 26 115.634 26 116.156V120.572ZM24.624 119.964V116.764C24.624 116.242 24.4107 115.98 23.984 115.98H20.848C20.4213 115.98 20.208 116.242 20.208 116.764V119.964C20.208 120.476 20.4213 120.732 20.848 120.732H23.984C24.4107 120.732 24.624 120.476 24.624 119.964ZM26 112.29H18.832V110.978L19.152 110.338C19.0667 109.89 18.992 109.351 18.928 108.722C18.864 108.093 18.832 107.373 18.832 106.562V105.762C18.832 105.229 18.9067 104.818 19.056 104.53C19.2053 104.242 19.392 104.039 19.616 103.922C19.84 103.794 20.0693 103.719 20.304 103.698C20.528 103.666 20.72 103.65 20.88 103.65H26V105.602H20.848C20.4213 105.602 20.208 105.858 20.208 106.37V109.858C20.208 110.061 20.2293 110.194 20.272 110.258C20.304 110.311 20.4 110.338 20.56 110.338H26V112.29ZM26 99.0216C26 99.8323 25.8293 100.387 25.488 100.686C25.1467 100.984 24.6347 101.134 23.952 101.134H20.208V102.446H18.832V101.774C18.832 101.571 18.8 101.427 18.736 101.342C18.672 101.246 18.544 101.176 18.352 101.134L16.64 100.814L16.64 99.1816H18.832V95.8536H20.208V99.1816H23.968C24.2347 99.1816 24.4107 99.1176 24.496 98.9896C24.5813 98.8616 24.624 98.6696 24.624 98.4136V96.1576L25.84 95.9976C25.872 96.2216 25.9093 96.563 25.952 97.0216C25.984 97.4803 26 97.9816 26 98.5256V99.0216ZM26 92.5072C26 93.3179 25.8133 93.9046 25.44 94.2672C25.056 94.6299 24.5333 94.8112 23.872 94.8112C23.1787 94.8112 22.6453 94.6246 22.272 94.2512C21.8987 93.8672 21.712 93.2859 21.712 92.5072L21.712 91.6912C21.712 90.8912 21.7333 90.1712 21.776 89.5312C21.8187 88.8912 21.8613 88.3632 21.904 87.9472H20.848C20.752 87.9472 20.656 87.9579 20.56 87.9792C20.4533 88.0006 20.368 88.0646 20.304 88.1712C20.24 88.2779 20.208 88.4592 20.208 88.7152V89.5152C20.208 90.6779 20.2293 91.6486 20.272 92.4272C20.304 93.2059 20.336 93.7339 20.368 94.0112L19.152 94.1872C19.0027 94.1872 18.912 93.7819 18.88 92.9712C18.848 92.1606 18.832 90.8059 18.832 88.9072V88.1072C18.832 87.5739 18.9067 87.1632 19.056 86.8752C19.2053 86.5872 19.392 86.3846 19.616 86.2672C19.84 86.1392 20.0693 86.0646 20.304 86.0432C20.528 86.0112 20.72 85.9952 20.88 85.9952H26V87.3073L25.68 87.9312C25.7547 88.3792 25.8293 88.9179 25.904 89.5472C25.968 90.1766 26 90.8966 26 91.7072L26 92.5072ZM24.624 92.0912V88.4272C24.624 88.1926 24.6027 88.0539 24.56 88.0112C24.5173 87.9686 24.384 87.9472 24.16 87.9472H22.928V92.0912C22.928 92.3792 22.9973 92.5819 23.136 92.6992C23.2747 92.8059 23.4933 92.8592 23.792 92.8592C24.0907 92.8592 24.304 92.7952 24.432 92.6672C24.56 92.5392 24.624 92.3472 24.624 92.0912ZM26 82.1974C26 82.7307 25.9307 83.1414 25.792 83.4294C25.6533 83.7174 25.4773 83.9254 25.264 84.0534C25.0507 84.1707 24.8267 84.2454 24.592 84.2774C24.3573 84.2987 24.144 84.3094 23.952 84.3094H20.88C20.72 84.3094 20.528 84.2987 20.304 84.2774C20.0693 84.2454 19.84 84.1707 19.616 84.0534C19.392 83.9254 19.2053 83.7174 19.056 83.4294C18.9067 83.1307 18.832 82.72 18.832 82.1974V79.9734C18.832 78.64 18.8693 77.696 18.944 77.1414C19.008 76.576 19.0773 76.2934 19.152 76.2934L20.368 76.6134C20.3467 76.912 20.3253 77.2907 20.304 77.7494C20.272 78.208 20.2507 78.704 20.24 79.2374C20.2187 79.76 20.208 80.272 20.208 80.7734V81.5894C20.208 82.1014 20.4213 82.3574 20.848 82.3574H23.984C24.4107 82.368 24.624 82.112 24.624 81.5894V80.7734C24.624 80.1974 24.6187 79.6374 24.608 79.0934C24.5867 78.5387 24.5653 78.032 24.544 77.5734C24.512 77.1147 24.4853 76.7467 24.464 76.4694L25.504 75.8294C25.8347 75.8294 26 76.88 26 78.9814V82.1974ZM26 71.9279C26 72.7385 25.8293 73.2932 25.488 73.5919C25.1467 73.8905 24.6347 74.0399 23.952 74.0399H20.208V75.3519H18.832V74.6799C18.832 74.4772 18.8 74.3332 18.736 74.2479C18.672 74.1519 18.544 74.0825 18.352 74.0399L16.64 73.7199V72.0879H18.832V68.7599H20.208V72.0879H23.968C24.2347 72.0879 24.4107 72.0239 24.496 71.8959C24.5813 71.7679 24.624 71.5759 24.624 71.3199V69.0639L25.84 68.9039C25.872 69.1279 25.9093 69.4692 25.952 69.9279C25.984 70.3865 26 70.8879 26 71.4319V71.9279Z" fill="#2A1919"/>
</svg>
