<svg width="26" height="26" viewBox="0 0 26 26" fill="none" xmlns="http://www.w3.org/2000/svg">
<g clip-path="url(#clip0_165_780)">
<path fill-rule="evenodd" clip-rule="evenodd" d="M13 0C5.82098 0 0 5.96607 0 13.3308C0 19.2214 3.72589 24.2125 8.89107 25.9768C9.54107 26.0987 9.77902 25.6866 9.77902 25.3326C9.77902 25.0134 9.76741 24.1777 9.76161 23.0634C6.14598 23.8701 5.37991 21.2759 5.37991 21.2759C4.78795 19.7379 3.93482 19.3259 3.93482 19.3259C2.7567 18.496 4.02188 18.5134 4.02188 18.5134C5.32768 18.6062 6.0125 19.8888 6.0125 19.8888C7.17321 21.9259 9.05357 21.3397 9.79643 20.9973C9.9125 20.1384 10.2491 19.5464 10.6205 19.2156C7.73616 18.879 4.70089 17.7357 4.70089 12.6286C4.70089 11.1719 5.2058 9.98214 6.03571 9.05357C5.90223 8.71696 5.45536 7.35893 6.16339 5.525C6.16339 5.525 7.25446 5.16518 9.73839 6.88884C10.7772 6.59286 11.8857 6.44777 12.9942 6.44196C14.0969 6.44777 15.2112 6.59286 16.25 6.88884C18.7339 5.16518 19.8192 5.525 19.8192 5.525C20.5272 7.35893 20.0804 8.71696 19.9469 9.05357C20.7768 9.98795 21.2817 11.1777 21.2817 12.6286C21.2817 17.7473 18.2406 18.8732 15.3446 19.204C15.8089 19.6161 16.2268 20.4286 16.2268 21.6705C16.2268 23.4522 16.2094 24.8915 16.2094 25.3268C16.2094 25.6808 16.4415 26.0987 17.1031 25.9652C22.2799 24.2067 26 19.2156 26 13.3308C26 5.96607 20.179 0 13 0Z" fill="white"/>
</g>
<defs>
<clipPath id="clip0_165_780">
<rect width="26" height="26" fill="white"/>
</clipPath>
</defs>
</svg>
