<svg width="26" height="26" viewBox="0 0 26 26" fill="none" xmlns="http://www.w3.org/2000/svg">
<path d="M13 17.875C12.1606 17.875 11.3212 17.5997 10.6052 17.0417L0 8.79531V20.3125C0 21.6582 1.09129 22.75 2.4375 22.75H23.5625C24.9087 22.75 26 21.6587 26 20.3125V8.79531L15.3969 17.0473C14.6809 17.6008 13.8379 17.875 13 17.875ZM0.827227 7.37852L11.603 15.7625C12.4252 16.4023 13.5769 16.4023 14.399 15.7625L25.1748 7.37852C25.6496 6.97227 26 6.34766 26 5.6875C26 4.34129 24.9082 3.25 23.5625 3.25H2.4375C1.09129 3.25 0 4.34129 0 5.6875C0 6.34766 0.305195 6.97227 0.827227 7.37852Z" fill="white"/>
</svg>
