<svg width="148" height="148" viewBox="0 0 148 148" fill="none" xmlns="http://www.w3.org/2000/svg">
<circle cx="74.1218" cy="74.1218" r="71.9575" stroke="url(#paint0_diamond_272_1197)" stroke-opacity="0.5" stroke-width="0.328645"/>
<circle cx="74.1218" cy="74.1218" r="71.9575" stroke="url(#paint1_diamond_272_1197)" stroke-opacity="0.5" stroke-width="0.328645"/>
<circle cx="74.1218" cy="74.1218" r="71.9575" stroke="url(#paint2_linear_272_1197)" stroke-opacity="0.37" stroke-width="0.328645"/>
<circle cx="74.1218" cy="74.122" r="67.4499" stroke="url(#paint3_diamond_272_1197)" stroke-opacity="0.5" stroke-width="0.328645"/>
<circle cx="74.1218" cy="74.122" r="67.4499" stroke="url(#paint4_diamond_272_1197)" stroke-opacity="0.5" stroke-width="0.328645"/>
<circle cx="74.1218" cy="74.122" r="67.4499" stroke="url(#paint5_linear_272_1197)" stroke-opacity="0.37" stroke-width="0.328645"/>
<path d="M136.313 74.1219C136.313 108.469 108.469 136.313 74.1219 136.313C39.7748 136.313 11.9309 108.469 11.9309 74.1219C11.9309 39.7748 39.7748 11.9309 74.1219 11.9309C108.469 11.9309 136.313 39.7748 136.313 74.1219Z" stroke="url(#paint6_diamond_272_1197)" stroke-opacity="0.5" stroke-width="0.328645"/>
<path d="M136.313 74.1219C136.313 108.469 108.469 136.313 74.1219 136.313C39.7748 136.313 11.9309 108.469 11.9309 74.1219C11.9309 39.7748 39.7748 11.9309 74.1219 11.9309C108.469 11.9309 136.313 39.7748 136.313 74.1219Z" stroke="url(#paint7_diamond_272_1197)" stroke-opacity="0.5" stroke-width="0.328645"/>
<path d="M136.313 74.1219C136.313 108.469 108.469 136.313 74.1219 136.313C39.7748 136.313 11.9309 108.469 11.9309 74.1219C11.9309 39.7748 39.7748 11.9309 74.1219 11.9309C108.469 11.9309 136.313 39.7748 136.313 74.1219Z" stroke="url(#paint8_linear_272_1197)" stroke-opacity="0.37" stroke-width="0.328645"/>
<circle cx="74.1218" cy="74.1218" r="56.9321" stroke="url(#paint9_diamond_272_1197)" stroke-opacity="0.5" stroke-width="0.328645"/>
<circle cx="74.1218" cy="74.1218" r="56.9321" stroke="url(#paint10_diamond_272_1197)" stroke-opacity="0.5" stroke-width="0.328645"/>
<circle cx="74.1218" cy="74.1218" r="56.9321" stroke="url(#paint11_linear_272_1197)" stroke-opacity="0.37" stroke-width="0.328645"/>
<circle cx="74.1218" cy="74.1215" r="52.4245" stroke="url(#paint12_diamond_272_1197)" stroke-opacity="0.5" stroke-width="0.328645"/>
<circle cx="74.1218" cy="74.1215" r="52.4245" stroke="url(#paint13_diamond_272_1197)" stroke-opacity="0.5" stroke-width="0.328645"/>
<circle cx="74.1218" cy="74.1215" r="52.4245" stroke="url(#paint14_linear_272_1197)" stroke-opacity="0.37" stroke-width="0.328645"/>
<circle cx="74.1218" cy="74.122" r="48.6682" stroke="url(#paint15_diamond_272_1197)" stroke-opacity="0.5" stroke-width="0.328645"/>
<circle cx="74.1218" cy="74.122" r="48.6682" stroke="url(#paint16_diamond_272_1197)" stroke-opacity="0.5" stroke-width="0.328645"/>
<circle cx="74.1218" cy="74.122" r="48.6682" stroke="url(#paint17_linear_272_1197)" stroke-opacity="0.37" stroke-width="0.328645"/>
<path d="M118.283 74.1217C118.283 98.5109 98.5112 118.282 74.122 118.282C49.7328 118.282 29.9614 98.5109 29.9614 74.1217C29.9614 49.7325 49.7328 29.9612 74.122 29.9612C98.5112 29.9612 118.283 49.7325 118.283 74.1217Z" stroke="url(#paint18_diamond_272_1197)" stroke-opacity="0.5" stroke-width="0.328645"/>
<path d="M118.283 74.1217C118.283 98.5109 98.5112 118.282 74.122 118.282C49.7328 118.282 29.9614 98.5109 29.9614 74.1217C29.9614 49.7325 49.7328 29.9612 74.122 29.9612C98.5112 29.9612 118.283 49.7325 118.283 74.1217Z" stroke="url(#paint19_diamond_272_1197)" stroke-opacity="0.5" stroke-width="0.328645"/>
<path d="M118.283 74.1217C118.283 98.5109 98.5112 118.282 74.122 118.282C49.7328 118.282 29.9614 98.5109 29.9614 74.1217C29.9614 49.7325 49.7328 29.9612 74.122 29.9612C98.5112 29.9612 118.283 49.7325 118.283 74.1217Z" stroke="url(#paint20_linear_272_1197)" stroke-opacity="0.37" stroke-width="0.328645"/>
<path d="M114.526 74.1217C114.526 96.4364 96.4364 114.526 74.1218 114.526C51.8071 114.526 33.7175 96.4364 33.7175 74.1217C33.7175 51.8071 51.8071 33.7175 74.1218 33.7175C96.4364 33.7175 114.526 51.8071 114.526 74.1217Z" stroke="url(#paint21_diamond_272_1197)" stroke-opacity="0.5" stroke-width="0.328645"/>
<path d="M114.526 74.1217C114.526 96.4364 96.4364 114.526 74.1218 114.526C51.8071 114.526 33.7175 96.4364 33.7175 74.1217C33.7175 51.8071 51.8071 33.7175 74.1218 33.7175C96.4364 33.7175 114.526 51.8071 114.526 74.1217Z" stroke="url(#paint22_diamond_272_1197)" stroke-opacity="0.5" stroke-width="0.328645"/>
<path d="M114.526 74.1217C114.526 96.4364 96.4364 114.526 74.1218 114.526C51.8071 114.526 33.7175 96.4364 33.7175 74.1217C33.7175 51.8071 51.8071 33.7175 74.1218 33.7175C96.4364 33.7175 114.526 51.8071 114.526 74.1217Z" stroke="url(#paint23_linear_272_1197)" stroke-opacity="0.37" stroke-width="0.328645"/>
<circle cx="74.1219" cy="74.1219" r="35.8966" stroke="url(#paint24_diamond_272_1197)" stroke-opacity="0.5" stroke-width="0.328645"/>
<circle cx="74.1219" cy="74.1219" r="35.8966" stroke="url(#paint25_diamond_272_1197)" stroke-opacity="0.5" stroke-width="0.328645"/>
<circle cx="74.1219" cy="74.1219" r="35.8966" stroke="url(#paint26_linear_272_1197)" stroke-opacity="0.37" stroke-width="0.328645"/>
<circle cx="74.1219" cy="74.1219" r="32.1402" stroke="url(#paint27_diamond_272_1197)" stroke-opacity="0.5" stroke-width="0.328645"/>
<circle cx="74.1219" cy="74.1219" r="32.1402" stroke="url(#paint28_diamond_272_1197)" stroke-opacity="0.5" stroke-width="0.328645"/>
<circle cx="74.1219" cy="74.1219" r="32.1402" stroke="url(#paint29_linear_272_1197)" stroke-opacity="0.37" stroke-width="0.328645"/>
<path d="M102.506 74.122C102.506 89.7979 89.7977 102.506 74.1217 102.506C58.4457 102.506 45.7378 89.7979 45.7378 74.122C45.7378 58.446 58.4457 45.7381 74.1217 45.7381C89.7977 45.7381 102.506 58.446 102.506 74.122Z" stroke="url(#paint30_diamond_272_1197)" stroke-opacity="0.5" stroke-width="0.328645"/>
<path d="M102.506 74.122C102.506 89.7979 89.7977 102.506 74.1217 102.506C58.4457 102.506 45.7378 89.7979 45.7378 74.122C45.7378 58.446 58.4457 45.7381 74.1217 45.7381C89.7977 45.7381 102.506 58.446 102.506 74.122Z" stroke="url(#paint31_diamond_272_1197)" stroke-opacity="0.5" stroke-width="0.328645"/>
<path d="M102.506 74.122C102.506 89.7979 89.7977 102.506 74.1217 102.506C58.4457 102.506 45.7378 89.7979 45.7378 74.122C45.7378 58.446 58.4457 45.7381 74.1217 45.7381C89.7977 45.7381 102.506 58.446 102.506 74.122Z" stroke="url(#paint32_linear_272_1197)" stroke-opacity="0.37" stroke-width="0.328645"/>
<path fill-rule="evenodd" clip-rule="evenodd" d="M74.516 97.4022C87.5859 97.4022 98.181 86.807 98.181 73.7372C98.181 60.6674 87.5859 50.0723 74.516 50.0723C61.4462 50.0723 50.8511 60.6674 50.8511 73.7372C50.8511 86.807 61.4462 97.4022 74.516 97.4022ZM74.516 75.933C75.7287 75.933 76.7118 74.9499 76.7118 73.7372C76.7118 72.5246 75.7287 71.5415 74.516 71.5415C73.3034 71.5415 72.3203 72.5246 72.3203 73.7372C72.3203 74.9499 73.3034 75.933 74.516 75.933Z" fill="#A5A5A5"/>
<circle cx="74.5161" cy="73.7372" r="25.5316" stroke="black" stroke-width="3.77942"/>
<path fill-rule="evenodd" clip-rule="evenodd" d="M74.5185 97.4047C87.5883 97.4047 98.1835 86.8095 98.1835 73.7397C98.1835 60.6699 87.5883 50.0747 74.5185 50.0747C61.4487 50.0747 50.8535 60.6699 50.8535 73.7397C50.8535 86.8095 61.4487 97.4047 74.5185 97.4047ZM74.5185 75.9354C75.7312 75.9354 76.7142 74.9523 76.7142 73.7397C76.7142 72.527 75.7312 71.544 74.5185 71.544C73.3058 71.544 72.3228 72.527 72.3228 73.7397C72.3228 74.9523 73.3058 75.9354 74.5185 75.9354Z" fill="#2C5ECA"/>
<circle cx="74.5306" cy="73.7518" r="9.07161" stroke="white" stroke-width="0.0770833"/>
<path d="M60.2744 61.5537C60.1449 61.5537 60.0432 61.5352 59.9692 61.4982C59.8952 61.4612 59.8425 61.4057 59.811 61.3317C59.7814 61.2577 59.7666 61.1661 59.7666 61.057V60.416C59.7666 60.3087 59.7814 60.2189 59.811 60.1468C59.8406 60.0728 59.8924 60.0173 59.9664 59.9803C60.0404 59.9414 60.1431 59.922 60.2744 59.922H61.0847C61.2142 59.922 61.3151 59.9414 61.3872 59.9803C61.4612 60.0173 61.513 60.0728 61.5426 60.1468C61.5741 60.2189 61.5898 60.3087 61.5898 60.416V61.057C61.5898 61.2198 61.5537 61.3437 61.4816 61.4288C61.4094 61.5121 61.2771 61.5537 61.0847 61.5537H60.2744ZM60.3549 61.2873H61.007C61.0755 61.2873 61.1282 61.2697 61.1652 61.2346C61.2041 61.1994 61.2235 61.1513 61.2235 61.0903V60.3827C61.2235 60.329 61.2041 60.2837 61.1652 60.2467C61.1264 60.2078 61.0736 60.1884 61.007 60.1884H60.3549C60.2883 60.1884 60.2347 60.206 60.194 60.2411C60.1533 60.2763 60.1329 60.3235 60.1329 60.3827V61.0903C60.1329 61.1532 60.1523 61.2022 60.1912 61.2374C60.2319 61.2707 60.2865 61.2873 60.3549 61.2873ZM61.9502 61.5537V60.3105H62.1777L62.2887 60.366C62.3664 60.3512 62.4599 60.3383 62.569 60.3272C62.6782 60.3161 62.803 60.3105 62.9436 60.3105H63.0824C63.1749 60.3105 63.2461 60.3235 63.2961 60.3494C63.346 60.3753 63.3812 60.4076 63.4015 60.4465C63.4237 60.4853 63.4367 60.5251 63.4404 60.5658C63.4459 60.6047 63.4487 60.638 63.4487 60.6657V61.5537H63.1101V60.6602C63.1101 60.5862 63.0657 60.5492 62.9769 60.5492H62.372C62.3368 60.5492 62.3137 60.5529 62.3026 60.5603C62.2934 60.5658 62.2887 60.5825 62.2887 60.6102V61.5537H61.9502ZM64.1071 61.5537C64.0146 61.5537 63.9434 61.5417 63.8934 61.5176C63.8435 61.4936 63.8074 61.4631 63.7852 61.4261C63.7649 61.3891 63.7519 61.3502 63.7464 61.3095C63.7427 61.2688 63.7408 61.2318 63.7408 61.1985V60.6657C63.7408 60.638 63.7427 60.6047 63.7464 60.5658C63.7519 60.5251 63.7649 60.4853 63.7852 60.4465C63.8074 60.4076 63.8435 60.3753 63.8934 60.3494C63.9452 60.3235 64.0165 60.3105 64.1071 60.3105H64.7037C64.8258 60.3105 64.9211 60.3225 64.9896 60.3466C65.0599 60.3688 65.1089 60.4058 65.1366 60.4576C65.1662 60.5094 65.181 60.5788 65.181 60.6657V61.0764H64.6954C64.5289 61.0764 64.3929 61.0727 64.2875 61.0653C64.1839 61.0579 64.1145 61.0533 64.0794 61.0514V61.2041C64.0775 61.2781 64.1219 61.3151 64.2126 61.3151H64.3541C64.454 61.3151 64.5511 61.3141 64.6455 61.3123C64.7417 61.3086 64.8295 61.3049 64.9091 61.3012C64.9886 61.2956 65.0525 61.291 65.1006 61.2873L65.2116 61.4677C65.2116 61.525 65.0293 61.5537 64.6649 61.5537H64.1071ZM64.0794 60.8378H64.8425V60.6602C64.8425 60.6232 64.8379 60.5973 64.8286 60.5825C64.8212 60.5677 64.7972 60.5584 64.7565 60.5547C64.7158 60.551 64.6464 60.5492 64.5483 60.5492H64.2126C64.1238 60.5492 64.0794 60.5862 64.0794 60.6602V60.8378ZM66.0991 62.0699V60.3105H66.3267L66.3961 60.3466C66.4793 60.3373 66.5783 60.329 66.693 60.3216C66.8095 60.3142 66.9418 60.3105 67.0898 60.3105H67.2313C67.3238 60.3105 67.3951 60.3225 67.445 60.3466C67.495 60.3706 67.5301 60.4012 67.5505 60.4382C67.5727 60.4752 67.5856 60.514 67.5893 60.5547C67.5949 60.5954 67.5976 60.6324 67.5976 60.6657V61.1985C67.5976 61.2263 67.5949 61.2605 67.5893 61.3012C67.5856 61.34 67.5727 61.3789 67.5505 61.4177C67.5301 61.4566 67.495 61.489 67.445 61.5149C67.3951 61.5408 67.3238 61.5537 67.2313 61.5537H67.0898C66.9492 61.5537 66.8243 61.55 66.7152 61.5426C66.606 61.5352 66.5135 61.5278 66.4377 61.5204V62.0699H66.0991ZM66.5237 61.3151H67.1259C67.161 61.3151 67.1916 61.3058 67.2175 61.2873C67.2452 61.2688 67.2591 61.2411 67.2591 61.2041V60.6602C67.2609 60.6195 67.2508 60.5908 67.2286 60.5741C67.2082 60.5575 67.174 60.5492 67.1259 60.5492H66.9871C66.8687 60.5492 66.7633 60.5519 66.6708 60.5575C66.5801 60.5612 66.5024 60.5658 66.4377 60.5714V61.229C66.4377 61.2697 66.4414 61.2947 66.4488 61.304C66.458 61.3114 66.483 61.3151 66.5237 61.3151ZM68.2619 61.5537C68.1213 61.5537 68.0196 61.5213 67.9567 61.4566C67.8938 61.39 67.8623 61.2993 67.8623 61.1846C67.8623 61.0644 67.8947 60.9719 67.9595 60.9071C68.0261 60.8424 68.1269 60.81 68.2619 60.81H68.4035C68.5422 60.81 68.6671 60.8137 68.7781 60.8211C68.8891 60.8285 68.9807 60.8359 69.0528 60.8433V60.6602C69.0528 60.6435 69.051 60.6269 69.0473 60.6102C69.0436 60.5917 69.0325 60.5769 69.014 60.5658C68.9955 60.5547 68.964 60.5492 68.9196 60.5492H68.7809C68.5792 60.5492 68.4109 60.5529 68.2758 60.5603C68.1408 60.5658 68.0492 60.5714 68.0011 60.5769L67.9706 60.366C67.9706 60.3401 68.0409 60.3244 68.1815 60.3188C68.3221 60.3133 68.557 60.3105 68.8863 60.3105H69.0251C69.1176 60.3105 69.1888 60.3235 69.2387 60.3494C69.2887 60.3753 69.3238 60.4076 69.3442 60.4465C69.3664 60.4853 69.3793 60.5251 69.383 60.5658C69.3886 60.6047 69.3914 60.638 69.3914 60.6657V61.5537H69.1638L69.0556 61.4982C68.9779 61.5112 68.8845 61.5241 68.7753 61.5371C68.6662 61.5482 68.5413 61.5537 68.4007 61.5537H68.2619ZM68.3341 61.3151H68.9696C69.0103 61.3151 69.0343 61.3114 69.0417 61.304C69.0491 61.2966 69.0528 61.2734 69.0528 61.2346V61.0209H68.3341C68.2841 61.0209 68.249 61.0329 68.2286 61.057C68.2101 61.081 68.2009 61.119 68.2009 61.1708C68.2009 61.2226 68.212 61.2596 68.2342 61.2818C68.2564 61.304 68.2897 61.3151 68.3341 61.3151ZM70.6245 62.0421C70.421 62.0421 70.2554 62.0403 70.1278 62.0366C70.0001 62.0329 69.9021 62.0273 69.8336 62.0199C69.7652 62.0125 69.718 62.0033 69.6921 61.9922C69.668 61.9811 69.656 61.969 69.656 61.9561L69.7393 61.748C69.7689 61.7572 69.8207 61.7683 69.8947 61.7813C69.9705 61.7961 70.0667 61.8035 70.1833 61.8035H70.6578C70.7262 61.8035 70.7743 61.7933 70.8021 61.7729C70.8317 61.7526 70.8465 61.7165 70.8465 61.6647V61.4982C70.7669 61.513 70.6726 61.526 70.5634 61.5371C70.4561 61.5482 70.3322 61.5537 70.1916 61.5537H70.0528C69.9603 61.5537 69.8891 61.5417 69.8392 61.5176C69.7892 61.4936 69.7531 61.4631 69.7309 61.4261C69.7106 61.3891 69.6976 61.3502 69.6921 61.3095C69.6884 61.2688 69.6865 61.2318 69.6865 61.1985V60.6657C69.6865 60.638 69.6884 60.6047 69.6921 60.5658C69.6976 60.5251 69.7106 60.4853 69.7309 60.4465C69.7531 60.4076 69.7892 60.3753 69.8392 60.3494C69.891 60.3235 69.9622 60.3105 70.0528 60.3105H70.1944C70.3886 60.3105 70.5394 60.3142 70.6467 60.3216C70.7558 60.329 70.8354 60.3373 70.8853 60.3466L70.9575 60.3105H71.185V61.6869C71.185 61.7202 71.1795 61.7572 71.1684 61.7979C71.1591 61.8386 71.1397 61.8775 71.1101 61.9145C71.0805 61.9515 71.038 61.982 70.9825 62.006C70.927 62.0301 70.8539 62.0421 70.7632 62.0421H70.6245ZM70.1583 61.3151H70.7605C70.803 61.3151 70.828 61.3114 70.8354 61.304C70.8428 61.2966 70.8465 61.2725 70.8465 61.2318V60.5686C70.7836 60.5649 70.704 60.5612 70.6078 60.5575C70.5116 60.5519 70.409 60.5492 70.2998 60.5492H70.1583C70.0695 60.5492 70.0251 60.5862 70.0251 60.6602V61.2041C70.0232 61.2781 70.0676 61.3151 70.1583 61.3151ZM71.8576 61.5537C71.7651 61.5537 71.6939 61.5417 71.6439 61.5176C71.594 61.4936 71.5579 61.4631 71.5357 61.4261C71.5154 61.3891 71.5024 61.3502 71.4969 61.3095C71.4932 61.2688 71.4913 61.2318 71.4913 61.1985V60.6657C71.4913 60.638 71.4932 60.6047 71.4969 60.5658C71.5024 60.5251 71.5154 60.4853 71.5357 60.4465C71.5579 60.4076 71.594 60.3753 71.6439 60.3494C71.6957 60.3235 71.767 60.3105 71.8576 60.3105H72.4542C72.5763 60.3105 72.6716 60.3225 72.7401 60.3466C72.8104 60.3688 72.8594 60.4058 72.8871 60.4576C72.9167 60.5094 72.9315 60.5788 72.9315 60.6657V61.0764H72.4459C72.2794 61.0764 72.1434 61.0727 72.038 61.0653C71.9344 61.0579 71.865 61.0533 71.8299 61.0514V61.2041C71.828 61.2781 71.8724 61.3151 71.9631 61.3151H72.1046C72.2045 61.3151 72.3016 61.3141 72.396 61.3123C72.4922 61.3086 72.58 61.3049 72.6596 61.3012C72.7391 61.2956 72.803 61.291 72.8511 61.2873L72.9621 61.4677C72.9621 61.525 72.7798 61.5537 72.4154 61.5537H71.8576ZM71.8299 60.8378H72.593V60.6602C72.593 60.6232 72.5884 60.5973 72.5791 60.5825C72.5717 60.5677 72.5477 60.5584 72.507 60.5547C72.4663 60.551 72.3969 60.5492 72.2988 60.5492H71.9631C71.8743 60.5492 71.8299 60.5862 71.8299 60.6602V60.8378ZM74.1882 61.5537C74.0642 61.5537 73.9717 61.5287 73.9107 61.4788C73.8515 61.4288 73.8219 61.3474 73.8219 61.2346V60.6657C73.8219 60.638 73.8237 60.6047 73.8274 60.5658C73.833 60.5251 73.8459 60.4853 73.8663 60.4465C73.8885 60.4076 73.9245 60.3753 73.9745 60.3494C74.0263 60.3235 74.0975 60.3105 74.1882 60.3105H74.9541C75.0466 60.3105 75.1178 60.3235 75.1677 60.3494C75.2177 60.3753 75.2528 60.4076 75.2732 60.4465C75.2954 60.4853 75.3083 60.5251 75.312 60.5658C75.3176 60.6047 75.3204 60.638 75.3204 60.6657V61.1985C75.3204 61.2318 75.3176 61.2688 75.312 61.3095C75.3083 61.3502 75.2954 61.3891 75.2732 61.4261C75.251 61.4631 75.2149 61.4936 75.165 61.5176C75.115 61.5417 75.0447 61.5537 74.9541 61.5537H74.1882ZM74.2936 61.3151H74.8486C74.9393 61.3151 74.9846 61.2781 74.9846 61.2041V60.6602C74.9846 60.5862 74.9393 60.5492 74.8486 60.5492H74.2936C74.2048 60.5492 74.1604 60.5862 74.1604 60.6602V61.2041C74.1604 61.2781 74.2048 61.3151 74.2936 61.3151ZM75.6857 61.5537V60.5492H75.5136V60.3133H75.6857V60.0663C75.6857 60.0034 75.6977 59.9451 75.7218 59.8915C75.7477 59.8378 75.7893 59.7944 75.8466 59.7611C75.9058 59.7278 75.9835 59.7111 76.0797 59.7111H76.2185C76.4405 59.7111 76.5996 59.7213 76.6958 59.7416C76.7938 59.762 76.8429 59.7796 76.8429 59.7944L76.7596 60.0053C76.7282 59.9923 76.6717 59.9803 76.5903 59.9692C76.5089 59.9562 76.4109 59.9498 76.2962 59.9498H76.1574C76.1112 59.9498 76.077 59.9581 76.0548 59.9747C76.0344 59.9914 76.0242 60.0201 76.0242 60.0608V60.3133H76.6014V60.5492H76.0242V61.5537H75.6857ZM77.5623 61.5537V60.3105H77.7898L77.8592 60.3438C77.9128 60.3346 77.9785 60.3272 78.0562 60.3216C78.1339 60.3142 78.2264 60.3105 78.3337 60.3105H78.4725C78.5261 60.3105 78.5779 60.3179 78.6279 60.3327C78.6778 60.3457 78.7148 60.3651 78.7389 60.391C78.787 60.3669 78.8536 60.3475 78.9387 60.3327C79.0238 60.3179 79.1348 60.3105 79.2717 60.3105H79.4104C79.5029 60.3105 79.5741 60.3235 79.6241 60.3494C79.674 60.3753 79.7092 60.4076 79.7295 60.4465C79.7517 60.4853 79.7647 60.5251 79.7684 60.5658C79.7739 60.6047 79.7767 60.638 79.7767 60.6657V61.5537H79.4382V60.6602C79.4382 60.5862 79.3938 60.5492 79.305 60.5492H78.9165C78.8869 60.5492 78.8665 60.5529 78.8554 60.5603C78.8443 60.5677 78.8388 60.5843 78.8388 60.6102V61.5537H78.5002V60.6602C78.5002 60.5862 78.4558 60.5492 78.367 60.5492H77.9841C77.9489 60.5492 77.9258 60.5529 77.9147 60.5603C77.9054 60.5658 77.9008 60.5825 77.9008 60.6102V61.5537H77.5623ZM80.2126 62.0976C80.1238 62.0976 80.0424 62.0874 79.9684 62.0671C79.8944 62.0467 79.8445 62.0282 79.8186 62.0116L79.9018 61.7618C79.9333 61.7748 79.9777 61.7896 80.035 61.8062C80.0942 61.8247 80.1608 61.834 80.2348 61.834H80.2654C80.3505 61.834 80.4254 61.8081 80.4901 61.7563C80.5567 61.7063 80.6076 61.6388 80.6428 61.5537H80.504L79.9601 60.3105H80.3486L80.6677 61.0764L80.7399 61.2762H80.7676L80.8398 61.0764L81.1645 60.3105H81.5419L81.4975 60.4798C81.4623 60.5519 81.4216 60.6352 81.3754 60.7295C81.331 60.822 81.2847 60.9182 81.2366 61.0181C81.1885 61.118 81.1413 61.2142 81.0951 61.3067C81.0507 61.3992 81.0109 61.4816 80.9758 61.5537C80.9221 61.6647 80.8629 61.7609 80.7982 61.8423C80.7353 61.9237 80.6622 61.9866 80.5789 62.031C80.4975 62.0754 80.4004 62.0976 80.2876 62.0976H80.2126ZM82.3731 61.5537V60.0164L82.3453 59.7944H82.7116V61.5537H82.3731ZM83.2415 60.1357C83.1731 60.1357 83.1231 60.1218 83.0917 60.0941C83.0602 60.0663 83.0445 60.0201 83.0445 59.9553C83.0445 59.8887 83.0593 59.8425 83.0889 59.8166C83.1204 59.7888 83.1712 59.7749 83.2415 59.7749C83.3118 59.7749 83.3627 59.7888 83.3942 59.8166C83.4256 59.8425 83.4413 59.8887 83.4413 59.9553C83.4413 60.0182 83.4256 60.0645 83.3942 60.0941C83.3627 60.1218 83.3118 60.1357 83.2415 60.1357ZM83.0723 61.5537V60.3105H83.4108V61.5537H83.0723ZM83.8345 61.5537V60.5492H83.6625V60.3133H83.8345V60.0663C83.8345 60.0034 83.8466 59.9451 83.8706 59.8915C83.8965 59.8378 83.9381 59.7944 83.9955 59.7611C84.0547 59.7278 84.1324 59.7111 84.2286 59.7111H84.3673C84.5893 59.7111 84.7484 59.7213 84.8446 59.7416C84.9427 59.762 84.9917 59.7796 84.9917 59.7944L84.9085 60.0053C84.877 59.9923 84.8206 59.9803 84.7392 59.9692C84.6578 59.9562 84.5597 59.9498 84.445 59.9498H84.3063C84.26 59.9498 84.2258 59.9581 84.2036 59.9747C84.1833 59.9914 84.1731 60.0201 84.1731 60.0608V60.3133H84.7503V60.5492H84.1731V61.5537H83.8345ZM85.3288 61.5537C85.2363 61.5537 85.1651 61.5417 85.1151 61.5176C85.0652 61.4936 85.0291 61.4631 85.0069 61.4261C84.9866 61.3891 84.9736 61.3502 84.9681 61.3095C84.9644 61.2688 84.9625 61.2318 84.9625 61.1985V60.6657C84.9625 60.638 84.9644 60.6047 84.9681 60.5658C84.9736 60.5251 84.9866 60.4853 85.0069 60.4465C85.0291 60.4076 85.0652 60.3753 85.1151 60.3494C85.1669 60.3235 85.2382 60.3105 85.3288 60.3105H85.9254C86.0475 60.3105 86.1428 60.3225 86.2113 60.3466C86.2816 60.3688 86.3306 60.4058 86.3583 60.4576C86.3879 60.5094 86.4027 60.5788 86.4027 60.6657V61.0764H85.9171C85.7506 61.0764 85.6146 61.0727 85.5092 61.0653C85.4056 61.0579 85.3362 61.0533 85.3011 61.0514V61.2041C85.2992 61.2781 85.3436 61.3151 85.4343 61.3151H85.5758C85.6757 61.3151 85.7728 61.3141 85.8672 61.3123C85.9634 61.3086 86.0512 61.3049 86.1308 61.3012C86.2103 61.2956 86.2742 61.291 86.3223 61.2873L86.4333 61.4677C86.4333 61.525 86.251 61.5537 85.8866 61.5537H85.3288ZM85.3011 60.8378H86.0642V60.6602C86.0642 60.6232 86.0596 60.5973 86.0503 60.5825C86.0429 60.5677 86.0189 60.5584 85.9782 60.5547C85.9375 60.551 85.8681 60.5492 85.77 60.5492H85.4343C85.3455 60.5492 85.3011 60.5862 85.3011 60.6602V60.8378ZM86.9636 61.5537C86.8952 61.5537 86.8452 61.5398 86.8138 61.5121C86.7823 61.4843 86.7666 61.4381 86.7666 61.3733C86.7666 61.3067 86.7814 61.2605 86.811 61.2346C86.8424 61.2068 86.8933 61.193 86.9636 61.193C87.0339 61.193 87.0848 61.2068 87.1162 61.2346C87.1477 61.2605 87.1634 61.3067 87.1634 61.3733C87.1634 61.4362 87.1477 61.4825 87.1162 61.5121C87.0848 61.5398 87.0339 61.5537 86.9636 61.5537Z" fill="#2A1919"/>
<path d="M65.9258 57.6187L67.3712 54.7179H68.3431L69.7836 57.6187H69.0239L68.7328 56.9921H66.9667L66.646 57.6187H65.9258ZM67.1443 56.5087H68.5503L67.8744 55.1619H67.8251L67.1443 56.5087ZM70.0808 57.6187V54.4909H70.6826V55.4677C70.8241 55.4513 70.9901 55.4381 71.1809 55.4283C71.3749 55.4151 71.5953 55.4085 71.842 55.4085H72.0936C72.258 55.4085 72.3846 55.4299 72.4734 55.4727C72.5622 55.5154 72.6247 55.5697 72.6609 55.6355C72.7004 55.7012 72.7234 55.7703 72.73 55.8427C72.7398 55.915 72.7448 55.9808 72.7448 56.04V56.9872C72.7448 57.0365 72.7398 57.0974 72.73 57.1697C72.7234 57.2388 72.7004 57.3079 72.6609 57.3769C72.6247 57.446 72.5622 57.5035 72.4734 57.5496C72.3846 57.5956 72.258 57.6187 72.0936 57.6187H71.842C71.569 57.6187 71.3305 57.6121 71.1266 57.5989C70.9227 57.5825 70.7533 57.566 70.6185 57.5496L70.4853 57.6187H70.0808ZM70.8356 57.1944H71.9061C72.064 57.1944 72.1429 57.1286 72.1429 56.9971V56.0301C72.1462 55.9578 72.1314 55.9068 72.0985 55.8772C72.0656 55.8476 72.0015 55.8328 71.9061 55.8328H71.6594C71.4489 55.8328 71.2615 55.8377 71.097 55.8476C70.9359 55.8542 70.7977 55.8624 70.6826 55.8723V57.0415C70.6826 57.1105 70.6892 57.1533 70.7024 57.1697C70.7188 57.1862 70.7632 57.1944 70.8356 57.1944ZM73.8912 57.6187C73.6709 57.6187 73.5064 57.5743 73.3979 57.4855C73.2926 57.3967 73.24 57.2519 73.24 57.0513V56.04C73.24 55.9907 73.2433 55.9315 73.2499 55.8624C73.2598 55.79 73.2828 55.7193 73.319 55.6503C73.3584 55.5812 73.4226 55.5236 73.5114 55.4776C73.6034 55.4315 73.7301 55.4085 73.8912 55.4085H75.2528C75.4173 55.4085 75.5439 55.4315 75.6327 55.4776C75.7215 55.5236 75.784 55.5812 75.8202 55.6503C75.8596 55.7193 75.8826 55.79 75.8892 55.8624C75.8991 55.9315 75.904 55.9907 75.904 56.04V56.9872C75.904 57.0464 75.8991 57.1122 75.8892 57.1845C75.8826 57.2569 75.8596 57.3259 75.8202 57.3917C75.7807 57.4575 75.7166 57.5118 75.6278 57.5545C75.539 57.5973 75.414 57.6187 75.2528 57.6187H73.8912ZM74.0787 57.1944H75.0654C75.2265 57.1944 75.3071 57.1286 75.3071 56.9971V56.0301C75.3071 55.8986 75.2265 55.8328 75.0654 55.8328H74.0787C73.9208 55.8328 73.8419 55.8986 73.8419 56.0301V56.9971C73.8419 57.1286 73.9208 57.1944 74.0787 57.1944ZM77.0962 57.6187C76.935 57.6187 76.8084 57.5973 76.7163 57.5545C76.6275 57.5118 76.5634 57.4575 76.5239 57.3917C76.4877 57.3259 76.4647 57.2569 76.4548 57.1845C76.4482 57.1122 76.445 57.0464 76.445 56.9872V55.4085H77.0468V56.9971C77.0435 57.0694 77.0666 57.1204 77.1159 57.15C77.1685 57.1796 77.2244 57.1944 77.2836 57.1944H78.2604C78.3328 57.1944 78.3755 57.1878 78.3887 57.1747C78.4018 57.1615 78.4084 57.1187 78.4084 57.0464V55.4085H79.0103V57.6187H78.6058L78.4183 57.52C78.2867 57.5463 78.1305 57.5693 77.9496 57.5891C77.772 57.6088 77.5714 57.6187 77.3478 57.6187H77.0962ZM80.459 57.6187C80.209 57.6187 80.038 57.566 79.9459 57.4608C79.8538 57.3555 79.8078 57.1977 79.8078 56.9872V55.8328H79.4032V55.4085H79.6104C79.6729 55.4085 79.7173 55.3987 79.7436 55.3789C79.7732 55.3592 79.7946 55.3197 79.8078 55.2605L79.9064 54.7327H80.4096V55.4085H81.4358V55.8328H80.4096V56.9921C80.4096 57.0743 80.4294 57.1286 80.4688 57.1549C80.5083 57.1812 80.5675 57.1944 80.6464 57.1944H81.342L81.3914 57.5693C81.3223 57.5792 81.217 57.5907 81.0756 57.6039C80.9342 57.6137 80.7796 57.6187 80.6119 57.6187H80.459Z" fill="#2A1919"/>
<path d="M60.6345 88.3037V87.3972H60.838V88.3037H60.6345ZM61.0538 88.3037V87.613H61.1802L61.2419 87.6439C61.2851 87.6357 61.337 87.6285 61.3976 87.6223C61.4583 87.6161 61.5276 87.613 61.6057 87.613H61.6828C61.7342 87.613 61.7738 87.6202 61.8015 87.6346C61.8293 87.649 61.8488 87.667 61.8601 87.6886C61.8724 87.7102 61.8796 87.7323 61.8817 87.7549C61.8848 87.7765 61.8863 87.795 61.8863 87.8104V88.3037H61.6982V87.8073C61.6982 87.7662 61.6736 87.7456 61.6242 87.7456H61.2882C61.2686 87.7456 61.2558 87.7477 61.2496 87.7518C61.2445 87.7549 61.2419 87.7641 61.2419 87.7795V88.3037H61.0538ZM62.671 88.3037C62.5929 88.3037 62.5395 88.2873 62.5107 88.2544C62.4819 88.2215 62.4675 88.1722 62.4675 88.1064V87.7456H62.3411V87.613H62.4059C62.4254 87.613 62.4393 87.61 62.4475 87.6038C62.4567 87.5976 62.4634 87.5853 62.4675 87.5668L62.4984 87.4018H62.6556V87.613H62.9763V87.7456H62.6556V88.1079C62.6556 88.1336 62.6618 88.1506 62.6741 88.1588C62.6864 88.167 62.7049 88.1711 62.7296 88.1711H62.947L62.9624 88.2883C62.9408 88.2914 62.9079 88.295 62.8637 88.2991C62.8195 88.3022 62.7712 88.3037 62.7188 88.3037H62.671ZM63.0998 88.3037V87.3047H63.2879V87.6439C63.3311 87.6357 63.383 87.6285 63.4436 87.6223C63.5043 87.6161 63.5736 87.613 63.6518 87.613H63.7288C63.7802 87.613 63.8198 87.6202 63.8475 87.6346C63.8753 87.649 63.8948 87.667 63.9061 87.6886C63.9185 87.7102 63.9257 87.7323 63.9277 87.7549C63.9308 87.7765 63.9323 87.795 63.9323 87.8104V88.3037H63.7443V87.8073C63.7443 87.7662 63.7196 87.7456 63.6703 87.7456H63.3342C63.3146 87.7456 63.3018 87.7477 63.2956 87.7518C63.2905 87.7549 63.2879 87.7641 63.2879 87.7795V88.3037H63.0998ZM64.1101 88.3037V87.613H64.2365L64.2951 87.6439C64.3218 87.6295 64.3506 87.6182 64.3814 87.61C64.4122 87.6017 64.4513 87.5976 64.4986 87.5976C64.5736 87.5976 64.6342 87.6058 64.6805 87.6223C64.7277 87.6387 64.7591 87.6511 64.7745 87.6593L64.7206 87.7934C64.7082 87.7873 64.6877 87.7795 64.6589 87.7703C64.6311 87.76 64.5982 87.7508 64.5602 87.7425C64.5222 87.7343 64.4806 87.7302 64.4353 87.7302H64.4184C64.3691 87.7302 64.3367 87.74 64.3213 87.7595C64.3069 87.779 64.2992 87.8114 64.2981 87.8566V88.3037H64.1101ZM65.0705 88.3037C65.0191 88.3037 64.9795 88.297 64.9518 88.2837C64.924 88.2703 64.904 88.2533 64.8916 88.2328C64.8803 88.2122 64.8731 88.1907 64.8701 88.168C64.868 88.1454 64.867 88.1249 64.867 88.1064V87.8104C64.867 87.795 64.868 87.7765 64.8701 87.7549C64.8731 87.7323 64.8803 87.7102 64.8916 87.6886C64.904 87.667 64.924 87.649 64.9518 87.6346C64.9805 87.6202 65.0201 87.613 65.0705 87.613H65.4019C65.4698 87.613 65.5227 87.6197 65.5607 87.6331C65.5998 87.6454 65.627 87.666 65.6424 87.6948C65.6589 87.7235 65.6671 87.7621 65.6671 87.8104V88.0385H65.3973C65.3048 88.0385 65.2293 88.0365 65.1707 88.0324C65.1131 88.0283 65.0746 88.0257 65.0551 88.0247V88.1095C65.054 88.1506 65.0787 88.1711 65.1291 88.1711H65.2077C65.2632 88.1711 65.3171 88.1706 65.3696 88.1696C65.423 88.1675 65.4718 88.1655 65.516 88.1634C65.5602 88.1603 65.5957 88.1578 65.6224 88.1557L65.6841 88.2559C65.6841 88.2878 65.5828 88.3037 65.3804 88.3037H65.0705ZM65.0551 87.906H65.479V87.8073C65.479 87.7867 65.4764 87.7723 65.4713 87.7641C65.4672 87.7559 65.4538 87.7508 65.4312 87.7487C65.4086 87.7467 65.3701 87.7456 65.3156 87.7456H65.1291C65.0797 87.7456 65.0551 87.7662 65.0551 87.8073V87.906ZM66.0265 88.3037C65.9751 88.3037 65.9355 88.297 65.9078 88.2837C65.88 88.2703 65.86 88.2533 65.8477 88.2328C65.8364 88.2122 65.8292 88.1907 65.8261 88.168C65.824 88.1454 65.823 88.1249 65.823 88.1064V87.8104C65.823 87.795 65.824 87.7765 65.8261 87.7549C65.8292 87.7323 65.8364 87.7102 65.8477 87.6886C65.86 87.667 65.88 87.649 65.9078 87.6346C65.9366 87.6202 65.9761 87.613 66.0265 87.613H66.3579C66.4258 87.613 66.4787 87.6197 66.5167 87.6331C66.5558 87.6454 66.583 87.666 66.5984 87.6948C66.6149 87.7235 66.6231 87.7621 66.6231 87.8104V88.0385H66.3533C66.2608 88.0385 66.1853 88.0365 66.1267 88.0324C66.0691 88.0283 66.0306 88.0257 66.0111 88.0247V88.1095C66.01 88.1506 66.0347 88.1711 66.0851 88.1711H66.1637C66.2192 88.1711 66.2732 88.1706 66.3256 88.1696C66.379 88.1675 66.4278 88.1655 66.472 88.1634C66.5162 88.1603 66.5517 88.1578 66.5784 88.1557L66.6401 88.2559C66.6401 88.2878 66.5388 88.3037 66.3364 88.3037H66.0265ZM66.0111 87.906H66.435V87.8073C66.435 87.7867 66.4325 87.7723 66.4273 87.7641C66.4232 87.7559 66.4099 87.7508 66.3872 87.7487C66.3646 87.7467 66.3261 87.7456 66.2716 87.7456H66.0851C66.0357 87.7456 66.0111 87.7662 66.0111 87.8073V87.906ZM67.1332 88.3037V87.613H67.2596L67.2981 87.6315C67.3279 87.6264 67.3644 87.6223 67.4076 87.6192C67.4507 87.6151 67.5021 87.613 67.5617 87.613H67.6388C67.6686 87.613 67.6974 87.6172 67.7252 87.6254C67.7529 87.6326 67.7735 87.6434 67.7868 87.6578C67.8136 87.6444 67.8506 87.6336 67.8978 87.6254C67.9451 87.6172 68.0068 87.613 68.0828 87.613H68.1599C68.2113 87.613 68.2509 87.6202 68.2786 87.6346C68.3064 87.649 68.3259 87.667 68.3372 87.6886C68.3495 87.7102 68.3567 87.7323 68.3588 87.7549C68.3619 87.7765 68.3634 87.795 68.3634 87.8104V88.3037H68.1753V87.8073C68.1753 87.7662 68.1507 87.7456 68.1013 87.7456H67.8855C67.8691 87.7456 67.8577 87.7477 67.8516 87.7518C67.8454 87.7559 67.8423 87.7652 67.8423 87.7795V88.3037H67.6542V87.8073C67.6542 87.7662 67.6296 87.7456 67.5802 87.7456H67.3675C67.348 87.7456 67.3351 87.7477 67.329 87.7518C67.3238 87.7549 67.3212 87.7641 67.3212 87.7795V88.3037H67.1332ZM68.7289 88.3037C68.6601 88.3037 68.6087 88.2898 68.5748 88.2621C68.5419 88.2343 68.5254 88.1891 68.5254 88.1264V87.8104C68.5254 87.795 68.5265 87.7765 68.5285 87.7549C68.5316 87.7323 68.5388 87.7102 68.5501 87.6886C68.5624 87.667 68.5825 87.649 68.6102 87.6346C68.639 87.6202 68.6786 87.613 68.7289 87.613H69.1544C69.2058 87.613 69.2454 87.6202 69.2731 87.6346C69.3009 87.649 69.3204 87.667 69.3317 87.6886C69.344 87.7102 69.3512 87.7323 69.3533 87.7549C69.3564 87.7765 69.3579 87.795 69.3579 87.8104V88.1064C69.3579 88.1249 69.3564 88.1454 69.3533 88.168C69.3512 88.1907 69.344 88.2122 69.3317 88.2328C69.3194 88.2533 69.2993 88.2703 69.2716 88.2837C69.2438 88.297 69.2048 88.3037 69.1544 88.3037H68.7289ZM68.7875 88.1711H69.0958C69.1462 88.1711 69.1714 88.1506 69.1714 88.1095V87.8073C69.1714 87.7662 69.1462 87.7456 69.0958 87.7456H68.7875C68.7382 87.7456 68.7135 87.7662 68.7135 87.8073V88.1095C68.7135 88.1506 68.7382 88.1711 68.7875 88.1711ZM69.527 88.3037V87.613H69.6534L69.715 87.6439C69.7582 87.6357 69.8101 87.6285 69.8708 87.6223C69.9314 87.6161 70.0008 87.613 70.0789 87.613H70.156C70.2074 87.613 70.2469 87.6202 70.2747 87.6346C70.3024 87.649 70.322 87.667 70.3333 87.6886C70.3456 87.7102 70.3528 87.7323 70.3548 87.7549C70.3579 87.7765 70.3595 87.795 70.3595 87.8104V88.3037H70.1714V87.8073C70.1714 87.7662 70.1467 87.7456 70.0974 87.7456H69.7613C69.7418 87.7456 69.7289 87.7477 69.7228 87.7518C69.7176 87.7549 69.715 87.7641 69.715 87.7795V88.3037H69.527ZM70.8054 88.3037C70.7273 88.3037 70.6739 88.2873 70.6451 88.2544C70.6163 88.2215 70.6019 88.1722 70.6019 88.1064V87.7456H70.4755V87.613H70.5403C70.5598 87.613 70.5737 87.61 70.5819 87.6038C70.5911 87.5976 70.5978 87.5853 70.6019 87.5668L70.6328 87.4018H70.79V87.613H71.1107V87.7456H70.79V88.1079C70.79 88.1336 70.7962 88.1506 70.8085 88.1588C70.8208 88.167 70.8393 88.1711 70.864 88.1711H71.0814L71.0968 88.2883C71.0752 88.2914 71.0423 88.295 70.9981 88.2991C70.9539 88.3022 70.9056 88.3037 70.8532 88.3037H70.8054ZM71.2342 88.3037V87.3047H71.4223V87.6439C71.4655 87.6357 71.5174 87.6285 71.578 87.6223C71.6387 87.6161 71.708 87.613 71.7862 87.613H71.8632C71.9146 87.613 71.9542 87.6202 71.9819 87.6346C72.0097 87.649 72.0292 87.667 72.0405 87.6886C72.0529 87.7102 72.0601 87.7323 72.0621 87.7549C72.0652 87.7765 72.0667 87.795 72.0667 87.8104V88.3037H71.8787V87.8073C71.8787 87.7662 71.854 87.7456 71.8047 87.7456H71.4686C71.449 87.7456 71.4362 87.7477 71.43 87.7518C71.4249 87.7549 71.4223 87.7641 71.4223 87.7795V88.3037H71.2342ZM72.4187 88.3037C72.3498 88.3037 72.301 88.3001 72.2722 88.2929C72.2434 88.2857 72.229 88.2785 72.229 88.2713L72.2753 88.1557C72.3051 88.1588 72.3596 88.1624 72.4387 88.1665C72.5189 88.1696 72.6175 88.1711 72.7347 88.1711H72.8118C72.8375 88.1711 72.8534 88.1644 72.8596 88.1511C72.8668 88.1367 72.8704 88.1177 72.8704 88.094C72.8704 88.0704 72.8663 88.0514 72.858 88.037C72.8508 88.0226 72.8354 88.0154 72.8118 88.0154H72.4325C72.3606 88.0154 72.3087 88.0021 72.2768 87.9753C72.245 87.9476 72.229 87.9065 72.229 87.852V87.7903C72.229 87.7759 72.2306 87.759 72.2337 87.7395C72.2367 87.7199 72.2445 87.7004 72.2568 87.6809C72.2691 87.6613 72.2892 87.6454 72.3169 87.6331C72.3447 87.6197 72.3832 87.613 72.4325 87.613H72.858C72.9197 87.613 72.9634 87.6166 72.9891 87.6238C73.0148 87.631 73.0276 87.6382 73.0276 87.6454L73.0122 87.761C72.9824 87.758 72.9274 87.7549 72.8472 87.7518C72.7671 87.7477 72.6689 87.7456 72.5528 87.7456H72.4757C72.45 87.7456 72.4336 87.7528 72.4264 87.7672C72.4202 87.7806 72.4171 87.7965 72.4171 87.815C72.4171 87.8345 72.4202 87.851 72.4264 87.8643C72.4336 87.8767 72.45 87.8828 72.4757 87.8828H72.855C72.9248 87.8828 72.9762 87.8972 73.0091 87.926C73.042 87.9548 73.0585 87.9913 73.0585 88.0355V88.1264C73.0585 88.1449 73.0569 88.1644 73.0538 88.185C73.0518 88.2056 73.0446 88.2251 73.0322 88.2436C73.0199 88.2611 72.9999 88.2754 72.9721 88.2868C72.9444 88.2981 72.9053 88.3037 72.855 88.3037H72.4187ZM73.2676 88.5165C73.2461 88.5226 73.2332 88.5195 73.2291 88.5072C73.226 88.4959 73.2281 88.4841 73.2353 88.4718C73.2414 88.4635 73.2497 88.4502 73.2599 88.4317C73.2712 88.4132 73.282 88.3921 73.2923 88.3685C73.3026 88.3458 73.3093 88.3227 73.3124 88.2991C73.2856 88.295 73.2661 88.2852 73.2538 88.2698C73.2414 88.2544 73.2353 88.2307 73.2353 88.1989C73.2353 88.1629 73.2435 88.1377 73.2599 88.1233C73.2774 88.1079 73.3057 88.1002 73.3447 88.1002C73.3869 88.1002 73.4182 88.1095 73.4388 88.128C73.4604 88.1454 73.4711 88.1747 73.4711 88.2158C73.4711 88.2456 73.4645 88.277 73.4511 88.3099C73.4388 88.3428 73.4223 88.3736 73.4018 88.4024C73.3812 88.4322 73.3591 88.4568 73.3355 88.4764C73.3118 88.4969 73.2892 88.5103 73.2676 88.5165ZM74.0563 88.3037V87.3972H74.2598V88.3037H74.0563ZM74.8144 88.3037V87.3047H75.0025V87.6439C75.0456 87.6357 75.0976 87.6285 75.1582 87.6223C75.2188 87.6161 75.2882 87.613 75.3663 87.613H75.4434C75.4948 87.613 75.5344 87.6202 75.5621 87.6346C75.5899 87.649 75.6094 87.667 75.6207 87.6886C75.633 87.7102 75.6402 87.7323 75.6423 87.7549C75.6454 87.7765 75.6469 87.795 75.6469 87.8104V88.3037H75.4588V87.8073C75.4588 87.7662 75.4341 87.7456 75.3848 87.7456H75.0487C75.0292 87.7456 75.0164 87.7477 75.0102 87.7518C75.0051 87.7549 75.0025 87.7641 75.0025 87.7795V88.3037H74.8144ZM76.0127 88.3037C75.9438 88.3037 75.8924 88.2898 75.8585 88.2621C75.8256 88.2343 75.8092 88.1891 75.8092 88.1264V87.8104C75.8092 87.795 75.8102 87.7765 75.8123 87.7549C75.8154 87.7323 75.8226 87.7102 75.8339 87.6886C75.8462 87.667 75.8662 87.649 75.894 87.6346C75.9228 87.6202 75.9623 87.613 76.0127 87.613H76.4382C76.4896 87.613 76.5292 87.6202 76.5569 87.6346C76.5847 87.649 76.6042 87.667 76.6155 87.6886C76.6278 87.7102 76.635 87.7323 76.6371 87.7549C76.6402 87.7765 76.6417 87.795 76.6417 87.8104V88.1064C76.6417 88.1249 76.6402 88.1454 76.6371 88.168C76.635 88.1907 76.6278 88.2122 76.6155 88.2328C76.6032 88.2533 76.5831 88.2703 76.5554 88.2837C76.5276 88.297 76.4886 88.3037 76.4382 88.3037H76.0127ZM76.0713 88.1711H76.3796C76.43 88.1711 76.4552 88.1506 76.4552 88.1095V87.8073C76.4552 87.7662 76.43 87.7456 76.3796 87.7456H76.0713C76.0219 87.7456 75.9973 87.7662 75.9973 87.8073V88.1095C75.9973 88.1506 76.0219 88.1711 76.0713 88.1711ZM76.8107 88.5905V87.613H76.9372L76.9757 87.6331C77.0219 87.6279 77.0769 87.6233 77.1407 87.6192C77.2054 87.6151 77.2789 87.613 77.3611 87.613H77.4397C77.4911 87.613 77.5307 87.6197 77.5584 87.6331C77.5862 87.6464 77.6057 87.6634 77.617 87.684C77.6294 87.7045 77.6366 87.7261 77.6386 87.7487C77.6417 87.7713 77.6432 87.7919 77.6432 87.8104V88.1064C77.6432 88.1218 77.6417 88.1408 77.6386 88.1634C77.6366 88.185 77.6294 88.2066 77.617 88.2282C77.6057 88.2498 77.5862 88.2677 77.5584 88.2821C77.5307 88.2965 77.4911 88.3037 77.4397 88.3037H77.3611C77.283 88.3037 77.2136 88.3017 77.153 88.2975C77.0923 88.2934 77.041 88.2893 76.9988 88.2852V88.5905H76.8107ZM77.0466 88.1711H77.3812C77.4007 88.1711 77.4176 88.166 77.432 88.1557C77.4474 88.1454 77.4552 88.13 77.4552 88.1095V87.8073C77.4562 87.7847 77.4505 87.7688 77.4382 87.7595C77.4269 87.7503 77.4079 87.7456 77.3812 87.7456H77.3041C77.2383 87.7456 77.1797 87.7472 77.1283 87.7503C77.078 87.7523 77.0348 87.7549 76.9988 87.758V88.1233C76.9988 88.1459 77.0009 88.1598 77.005 88.165C77.0101 88.1691 77.024 88.1711 77.0466 88.1711ZM78.0015 88.3037C77.9501 88.3037 77.9105 88.297 77.8828 88.2837C77.855 88.2703 77.835 88.2533 77.8227 88.2328C77.8114 88.2122 77.8042 88.1907 77.8011 88.168C77.799 88.1454 77.798 88.1249 77.798 88.1064V87.8104C77.798 87.795 77.799 87.7765 77.8011 87.7549C77.8042 87.7323 77.8114 87.7102 77.8227 87.6886C77.835 87.667 77.855 87.649 77.8828 87.6346C77.9116 87.6202 77.9511 87.613 78.0015 87.613H78.333C78.4008 87.613 78.4537 87.6197 78.4918 87.6331C78.5308 87.6454 78.558 87.666 78.5735 87.6948C78.5899 87.7235 78.5981 87.7621 78.5981 87.8104V88.0385H78.3283C78.2358 88.0385 78.1603 88.0365 78.1017 88.0324C78.0442 88.0283 78.0056 88.0257 77.9861 88.0247V88.1095C77.9851 88.1506 78.0097 88.1711 78.0601 88.1711H78.1387C78.1942 88.1711 78.2482 88.1706 78.3006 88.1696C78.354 88.1675 78.4029 88.1655 78.447 88.1634C78.4912 88.1603 78.5267 88.1578 78.5534 88.1557L78.6151 88.2559C78.6151 88.2878 78.5139 88.3037 78.3114 88.3037H78.0015ZM77.9861 87.906H78.41V87.8073C78.41 87.7867 78.4075 87.7723 78.4023 87.7641C78.3982 87.7559 78.3849 87.7508 78.3623 87.7487C78.3396 87.7467 78.3011 87.7456 78.2466 87.7456H78.0601C78.0108 87.7456 77.9861 87.7662 77.9861 87.8073V87.906ZM79.3764 88.3037C79.2983 88.3037 79.2449 88.2873 79.2161 88.2544C79.1873 88.2215 79.1729 88.1722 79.1729 88.1064V87.7456H79.0465V87.613H79.1113C79.1308 87.613 79.1447 87.61 79.1529 87.6038C79.1621 87.5976 79.1688 87.5853 79.1729 87.5668L79.2038 87.4018H79.361V87.613H79.6817V87.7456H79.361V88.1079C79.361 88.1336 79.3672 88.1506 79.3795 88.1588C79.3918 88.167 79.4103 88.1711 79.435 88.1711H79.6524L79.6678 88.2883C79.6462 88.2914 79.6133 88.295 79.5691 88.2991C79.5249 88.3022 79.4766 88.3037 79.4242 88.3037H79.3764ZM79.9933 88.3037C79.9245 88.3037 79.8731 88.2898 79.8392 88.2621C79.8063 88.2343 79.7898 88.1891 79.7898 88.1264V87.8104C79.7898 87.795 79.7909 87.7765 79.7929 87.7549C79.796 87.7323 79.8032 87.7102 79.8145 87.6886C79.8268 87.667 79.8469 87.649 79.8746 87.6346C79.9034 87.6202 79.943 87.613 79.9933 87.613H80.4188C80.4702 87.613 80.5098 87.6202 80.5375 87.6346C80.5653 87.649 80.5848 87.667 80.5961 87.6886C80.6085 87.7102 80.6156 87.7323 80.6177 87.7549C80.6208 87.7765 80.6223 87.795 80.6223 87.8104V88.1064C80.6223 88.1249 80.6208 88.1454 80.6177 88.168C80.6156 88.1907 80.6085 88.2122 80.5961 88.2328C80.5838 88.2533 80.5637 88.2703 80.536 88.2837C80.5082 88.297 80.4692 88.3037 80.4188 88.3037H79.9933ZM80.0519 88.1711H80.3602C80.4106 88.1711 80.4358 88.1506 80.4358 88.1095V87.8073C80.4358 87.7662 80.4106 87.7456 80.3602 87.7456H80.0519C80.0026 87.7456 79.9779 87.7662 79.9779 87.8073V88.1095C79.9779 88.1506 80.0026 88.1711 80.0519 88.1711ZM81.1301 88.3037V87.3263H81.3182V87.6315C81.3624 87.6264 81.4143 87.6223 81.4739 87.6192C81.5345 87.6151 81.6034 87.613 81.6805 87.613H81.7591C81.8105 87.613 81.8501 87.6197 81.8778 87.6331C81.9056 87.6464 81.9251 87.6634 81.9364 87.684C81.9487 87.7045 81.9559 87.7261 81.958 87.7487C81.9611 87.7713 81.9626 87.7919 81.9626 87.8104V88.1064C81.9626 88.1218 81.9611 88.1408 81.958 88.1634C81.9559 88.185 81.9487 88.2066 81.9364 88.2282C81.9251 88.2498 81.9056 88.2677 81.8778 88.2821C81.8501 88.2965 81.8105 88.3037 81.7591 88.3037H81.6805C81.5952 88.3037 81.5207 88.3017 81.4569 88.2975C81.3932 88.2924 81.3403 88.2873 81.2982 88.2821L81.2565 88.3037H81.1301ZM81.366 88.1711H81.7005C81.7499 88.1711 81.7745 88.1506 81.7745 88.1095V87.8073C81.7756 87.7847 81.7709 87.7688 81.7607 87.7595C81.7504 87.7503 81.7303 87.7456 81.7005 87.7456H81.6234C81.5577 87.7456 81.4991 87.7472 81.4477 87.7503C81.3973 87.7523 81.3542 87.7549 81.3182 87.758V88.1233C81.3182 88.1449 81.3203 88.1583 81.3244 88.1634C81.3295 88.1686 81.3434 88.1711 81.366 88.1711ZM82.3209 88.3037C82.2695 88.3037 82.2299 88.297 82.2022 88.2837C82.1744 88.2703 82.1544 88.2533 82.142 88.2328C82.1307 88.2122 82.1235 88.1907 82.1205 88.168C82.1184 88.1454 82.1174 88.1249 82.1174 88.1064V87.8104C82.1174 87.795 82.1184 87.7765 82.1205 87.7549C82.1235 87.7323 82.1307 87.7102 82.142 87.6886C82.1544 87.667 82.1744 87.649 82.2022 87.6346C82.231 87.6202 82.2705 87.613 82.3209 87.613H82.6523C82.7202 87.613 82.7731 87.6197 82.8111 87.6331C82.8502 87.6454 82.8774 87.666 82.8928 87.6948C82.9093 87.7235 82.9175 87.7621 82.9175 87.8104V88.0385H82.6477C82.5552 88.0385 82.4797 88.0365 82.4211 88.0324C82.3635 88.0283 82.325 88.0257 82.3055 88.0247V88.1095C82.3044 88.1506 82.3291 88.1711 82.3795 88.1711H82.4581C82.5136 88.1711 82.5675 88.1706 82.62 88.1696C82.6734 88.1675 82.7222 88.1655 82.7664 88.1634C82.8106 88.1603 82.8461 88.1578 82.8728 88.1557L82.9345 88.2559C82.9345 88.2878 82.8332 88.3037 82.6308 88.3037H82.3209ZM82.3055 87.906H82.7294V87.8073C82.7294 87.7867 82.7269 87.7723 82.7217 87.7641C82.7176 87.7559 82.7042 87.7508 82.6816 87.7487C82.659 87.7467 82.6205 87.7456 82.566 87.7456H82.3795C82.3301 87.7456 82.3055 87.7662 82.3055 87.8073V87.906ZM83.2769 88.3037C83.2255 88.3037 83.1859 88.297 83.1582 88.2837C83.1304 88.2703 83.1104 88.2533 83.0981 88.2328C83.0868 88.2122 83.0796 88.1907 83.0765 88.168C83.0744 88.1454 83.0734 88.1249 83.0734 88.1064V87.8104C83.0734 87.795 83.0744 87.7765 83.0765 87.7549C83.0796 87.7323 83.0868 87.7102 83.0981 87.6886C83.1104 87.667 83.1304 87.649 83.1582 87.6346C83.187 87.6202 83.2265 87.613 83.2769 87.613H83.4912C83.6197 87.613 83.7106 87.6166 83.7641 87.6238C83.8185 87.63 83.8458 87.6367 83.8458 87.6439L83.8149 87.761C83.7862 87.759 83.7497 87.7569 83.7055 87.7549C83.6613 87.7518 83.6135 87.7497 83.5621 87.7487C83.5117 87.7467 83.4624 87.7456 83.4141 87.7456H83.3355C83.2861 87.7456 83.2615 87.7662 83.2615 87.8073V88.1095C83.2605 88.1506 83.2851 88.1711 83.3355 88.1711H83.4141C83.4696 88.1711 83.5236 88.1706 83.576 88.1696C83.6294 88.1675 83.6782 88.1655 83.7224 88.1634C83.7666 88.1603 83.8021 88.1578 83.8288 88.1557L83.8905 88.2559C83.8905 88.2878 83.7892 88.3037 83.5868 88.3037H83.2769ZM84.1862 88.3037C84.1174 88.3037 84.066 88.2898 84.0321 88.2621C83.9992 88.2343 83.9827 88.1891 83.9827 88.1264V87.8104C83.9827 87.795 83.9838 87.7765 83.9858 87.7549C83.9889 87.7323 83.9961 87.7102 84.0074 87.6886C84.0197 87.667 84.0398 87.649 84.0675 87.6346C84.0963 87.6202 84.1359 87.613 84.1862 87.613H84.6117C84.6631 87.613 84.7027 87.6202 84.7304 87.6346C84.7582 87.649 84.7777 87.667 84.789 87.6886C84.8014 87.7102 84.8086 87.7323 84.8106 87.7549C84.8137 87.7765 84.8152 87.795 84.8152 87.8104V88.1064C84.8152 88.1249 84.8137 88.1454 84.8106 88.168C84.8086 88.1907 84.8014 88.2122 84.789 88.2328C84.7767 88.2533 84.7567 88.2703 84.7289 88.2837C84.7012 88.297 84.6621 88.3037 84.6117 88.3037H84.1862ZM84.2448 88.1711H84.5532C84.6035 88.1711 84.6287 88.1506 84.6287 88.1095V87.8073C84.6287 87.7662 84.6035 87.7456 84.5532 87.7456H84.2448C84.1955 87.7456 84.1708 87.7662 84.1708 87.8073V88.1095C84.1708 88.1506 84.1955 88.1711 84.2448 88.1711ZM84.9843 88.3037V87.613H85.1107L85.1492 87.6315C85.179 87.6264 85.2155 87.6223 85.2587 87.6192C85.3019 87.6151 85.3533 87.613 85.4129 87.613H85.4899C85.5198 87.613 85.5485 87.6172 85.5763 87.6254C85.604 87.6326 85.6246 87.6434 85.6379 87.6578C85.6647 87.6444 85.7017 87.6336 85.7489 87.6254C85.7962 87.6172 85.8579 87.613 85.9339 87.613H86.011C86.0624 87.613 86.102 87.6202 86.1297 87.6346C86.1575 87.649 86.177 87.667 86.1883 87.6886C86.2007 87.7102 86.2079 87.7323 86.2099 87.7549C86.213 87.7765 86.2145 87.795 86.2145 87.8104V88.3037H86.0264V87.8073C86.0264 87.7662 86.0018 87.7456 85.9524 87.7456H85.7366C85.7202 87.7456 85.7089 87.7477 85.7027 87.7518C85.6965 87.7559 85.6934 87.7652 85.6934 87.7795V88.3037H85.5054V87.8073C85.5054 87.7662 85.4807 87.7456 85.4314 87.7456H85.2186C85.1991 87.7456 85.1862 87.7477 85.1801 87.7518C85.1749 87.7549 85.1724 87.7641 85.1724 87.7795V88.3037H84.9843ZM86.58 88.3037C86.5286 88.3037 86.4891 88.297 86.4613 88.2837C86.4336 88.2703 86.4135 88.2533 86.4012 88.2328C86.3899 88.2122 86.3827 88.1907 86.3796 88.168C86.3776 88.1454 86.3765 88.1249 86.3765 88.1064V87.8104C86.3765 87.795 86.3776 87.7765 86.3796 87.7549C86.3827 87.7323 86.3899 87.7102 86.4012 87.6886C86.4135 87.667 86.4336 87.649 86.4613 87.6346C86.4901 87.6202 86.5297 87.613 86.58 87.613H86.9115C86.9793 87.613 87.0323 87.6197 87.0703 87.6331C87.1093 87.6454 87.1366 87.666 87.152 87.6948C87.1684 87.7235 87.1767 87.7621 87.1767 87.8104V88.0385H86.9069C86.8144 88.0385 86.7388 88.0365 86.6802 88.0324C86.6227 88.0283 86.5841 88.0257 86.5646 88.0247V88.1095C86.5636 88.1506 86.5883 88.1711 86.6386 88.1711H86.7172C86.7727 88.1711 86.8267 88.1706 86.8791 88.1696C86.9326 88.1675 86.9814 88.1655 87.0256 88.1634C87.0698 88.1603 87.1052 88.1578 87.132 88.1557L87.1936 88.2559C87.1936 88.2878 87.0924 88.3037 86.8899 88.3037H86.58ZM86.5646 87.906H86.9886V87.8073C86.9886 87.7867 86.986 87.7723 86.9809 87.7641C86.9768 87.7559 86.9634 87.7508 86.9408 87.7487C86.9182 87.7467 86.8796 87.7456 86.8252 87.7456H86.6386C86.5893 87.7456 86.5646 87.7662 86.5646 87.8073V87.906ZM87.8856 88.3037C87.8075 88.3037 87.7509 88.2857 87.716 88.2498C87.6811 88.2128 87.6636 88.1624 87.6636 88.0987C87.6636 88.0319 87.6816 87.9805 87.7175 87.9445C87.7545 87.9085 87.8106 87.8905 87.8856 87.8905H87.9642C88.0413 87.8905 88.1107 87.8926 88.1723 87.8967C88.234 87.9008 88.2849 87.9049 88.325 87.909V87.8073C88.325 87.798 88.3239 87.7888 88.3219 87.7795C88.3198 87.7693 88.3137 87.761 88.3034 87.7549C88.2931 87.7487 88.2756 87.7456 88.251 87.7456H88.1739C88.0619 87.7456 87.9683 87.7477 87.8933 87.7518C87.8183 87.7549 87.7674 87.758 87.7407 87.761L87.7237 87.6439C87.7237 87.6295 87.7628 87.6208 87.8409 87.6177C87.919 87.6146 88.0495 87.613 88.2325 87.613H88.3095C88.3609 87.613 88.4005 87.6202 88.4283 87.6346C88.456 87.649 88.4755 87.667 88.4868 87.6886C88.4992 87.7102 88.5064 87.7323 88.5084 87.7549C88.5115 87.7765 88.513 87.795 88.513 87.8104V88.3037H88.3866L88.3265 88.2729C88.2833 88.2801 88.2314 88.2873 88.1708 88.2945C88.1102 88.3006 88.0408 88.3037 87.9627 88.3037H87.8856ZM87.9257 88.1711H88.2787C88.3013 88.1711 88.3147 88.1691 88.3188 88.165C88.3229 88.1608 88.325 88.148 88.325 88.1264V88.0077H87.9257C87.8979 88.0077 87.8784 88.0144 87.8671 88.0278C87.8568 88.0411 87.8517 88.0622 87.8517 88.091C87.8517 88.1197 87.8578 88.1403 87.8702 88.1526C87.8825 88.165 87.901 88.1711 87.9257 88.1711ZM67.2107 90.3037V89.7456H67.1152V89.6146H67.2107V89.4774C67.2107 89.4424 67.2174 89.4101 67.2308 89.3803C67.2452 89.3504 67.2683 89.3263 67.3002 89.3078C67.333 89.2893 67.3762 89.28 67.4297 89.28H67.5067C67.6301 89.28 67.7185 89.2857 67.7719 89.297C67.8264 89.3083 67.8536 89.3181 67.8536 89.3263L67.8074 89.4435C67.7899 89.4363 67.7585 89.4296 67.7133 89.4234C67.6681 89.4162 67.6136 89.4126 67.5499 89.4126H67.4728C67.4471 89.4126 67.4281 89.4173 67.4158 89.4265C67.4045 89.4358 67.3988 89.4517 67.3988 89.4743V89.6146H67.7195V89.7456H67.3988V90.3037H67.2107ZM67.8844 90.3037V89.613H68.0108L68.0694 89.6439C68.0961 89.6295 68.1249 89.6182 68.1558 89.61C68.1866 89.6017 68.2256 89.5976 68.2729 89.5976C68.348 89.5976 68.4086 89.6058 68.4548 89.6223C68.5021 89.6387 68.5335 89.6511 68.5489 89.6593L68.4949 89.7934C68.4826 89.7873 68.462 89.7795 68.4333 89.7703C68.4055 89.76 68.3726 89.7508 68.3346 89.7425C68.2966 89.7343 68.2549 89.7302 68.2097 89.7302H68.1928C68.1434 89.7302 68.1111 89.74 68.0956 89.7595C68.0812 89.779 68.0735 89.8114 68.0725 89.8566V90.3037H67.8844ZM68.8448 90.3037C68.776 90.3037 68.7246 90.2898 68.6907 90.2621C68.6578 90.2343 68.6413 90.1891 68.6413 90.1264V89.8104C68.6413 89.795 68.6424 89.7765 68.6444 89.7549C68.6475 89.7323 68.6547 89.7102 68.666 89.6886C68.6783 89.667 68.6984 89.649 68.7261 89.6346C68.7549 89.6202 68.7945 89.613 68.8448 89.613H69.2703C69.3217 89.613 69.3613 89.6202 69.3891 89.6346C69.4168 89.649 69.4363 89.667 69.4476 89.6886C69.46 89.7102 69.4672 89.7323 69.4692 89.7549C69.4723 89.7765 69.4738 89.795 69.4738 89.8104V90.1064C69.4738 90.1249 69.4723 90.1454 69.4692 90.168C69.4672 90.1907 69.46 90.2122 69.4476 90.2328C69.4353 90.2533 69.4153 90.2703 69.3875 90.2837C69.3598 90.297 69.3207 90.3037 69.2703 90.3037H68.8448ZM68.9034 90.1711H69.2118C69.2621 90.1711 69.2873 90.1506 69.2873 90.1095V89.8073C69.2873 89.7662 69.2621 89.7456 69.2118 89.7456H68.9034C68.8541 89.7456 68.8294 89.7662 68.8294 89.8073V90.1095C68.8294 90.1506 68.8541 90.1711 68.9034 90.1711ZM69.6429 90.3037V89.613H69.7693L69.831 89.6439C69.8741 89.6357 69.926 89.6285 69.9867 89.6223C70.0473 89.6161 70.1167 89.613 70.1948 89.613H70.2719C70.3233 89.613 70.3628 89.6202 70.3906 89.6346C70.4183 89.649 70.4379 89.667 70.4492 89.6886C70.4615 89.7102 70.4687 89.7323 70.4708 89.7549C70.4738 89.7765 70.4754 89.795 70.4754 89.8104V90.3037H70.2873V89.8073C70.2873 89.7662 70.2626 89.7456 70.2133 89.7456H69.8772C69.8577 89.7456 69.8448 89.7477 69.8387 89.7518C69.8335 89.7549 69.831 89.7641 69.831 89.7795V90.3037H69.6429ZM70.9214 90.3037C70.8432 90.3037 70.7898 90.2873 70.761 90.2544C70.7322 90.2215 70.7179 90.1722 70.7179 90.1064V89.7456H70.5914V89.613H70.6562C70.6757 89.613 70.6896 89.61 70.6978 89.6038C70.7071 89.5976 70.7137 89.5853 70.7179 89.5668L70.7487 89.4018H70.9059V89.613H71.2266V89.7456H70.9059V90.1079C70.9059 90.1336 70.9121 90.1506 70.9244 90.1588C70.9368 90.167 70.9553 90.1711 70.9799 90.1711H71.1973L71.2127 90.2883C71.1911 90.2914 71.1583 90.295 71.1141 90.2991C71.0699 90.3022 71.0216 90.3037 70.9691 90.3037H70.9214ZM71.5382 90.3037C71.4869 90.3037 71.4473 90.297 71.4195 90.2837C71.3918 90.2703 71.3717 90.2533 71.3594 90.2328C71.3481 90.2122 71.3409 90.1907 71.3378 90.168C71.3358 90.1454 71.3347 90.1249 71.3347 90.1064V89.8104C71.3347 89.795 71.3358 89.7765 71.3378 89.7549C71.3409 89.7323 71.3481 89.7102 71.3594 89.6886C71.3717 89.667 71.3918 89.649 71.4195 89.6346C71.4483 89.6202 71.4879 89.613 71.5382 89.613H71.8697C71.9375 89.613 71.9905 89.6197 72.0285 89.6331C72.0676 89.6454 72.0948 89.666 72.1102 89.6948C72.1267 89.7235 72.1349 89.7621 72.1349 89.8104V90.0385H71.8651C71.7726 90.0385 71.697 90.0365 71.6385 90.0324C71.5809 90.0283 71.5424 90.0257 71.5228 90.0247V90.1095C71.5218 90.1506 71.5465 90.1711 71.5968 90.1711H71.6755C71.731 90.1711 71.7849 90.1706 71.8373 90.1696C71.8908 90.1675 71.9396 90.1655 71.9838 90.1634C72.028 90.1603 72.0634 90.1578 72.0902 90.1557L72.1518 90.2559C72.1518 90.2878 72.0506 90.3037 71.8481 90.3037H71.5382ZM71.5228 89.906H71.9468V89.8073C71.9468 89.7867 71.9442 89.7723 71.9391 89.7641C71.935 89.7559 71.9216 89.7508 71.899 89.7487C71.8764 89.7467 71.8378 89.7456 71.7834 89.7456H71.5968C71.5475 89.7456 71.5228 89.7662 71.5228 89.8073V89.906ZM72.3062 90.3037V89.613H72.4326L72.4943 89.6439C72.5374 89.6357 72.5893 89.6285 72.65 89.6223C72.7106 89.6161 72.78 89.613 72.8581 89.613H72.9352C72.9866 89.613 73.0261 89.6202 73.0539 89.6346C73.0816 89.649 73.1012 89.667 73.1125 89.6886C73.1248 89.7102 73.132 89.7323 73.1341 89.7549C73.1371 89.7765 73.1387 89.795 73.1387 89.8104V90.3037H72.9506V89.8073C72.9506 89.7662 72.9259 89.7456 72.8766 89.7456H72.5405C72.521 89.7456 72.5081 89.7477 72.502 89.7518C72.4968 89.7549 72.4943 89.7641 72.4943 89.7795V90.3037H72.3062ZM73.5045 90.3037C73.4531 90.3037 73.4135 90.297 73.3858 90.2837C73.358 90.2703 73.338 90.2533 73.3256 90.2328C73.3143 90.2122 73.3071 90.1907 73.3041 90.168C73.302 90.1454 73.301 90.1249 73.301 90.1064V89.8104C73.301 89.795 73.302 89.7765 73.3041 89.7549C73.3071 89.7323 73.3143 89.7102 73.3256 89.6886C73.338 89.667 73.358 89.649 73.3858 89.6346C73.4145 89.6202 73.4541 89.613 73.5045 89.613H73.5831C73.6777 89.613 73.7537 89.6151 73.8113 89.6192C73.8699 89.6223 73.9146 89.6259 73.9454 89.63V89.3263H74.1335V90.3037H74.0071L73.9469 90.2729C73.9038 90.2801 73.8519 90.2873 73.7912 90.2945C73.7306 90.3006 73.6607 90.3037 73.5816 90.3037H73.5045ZM73.5631 90.1711H73.8976C73.9192 90.1711 73.9325 90.1686 73.9377 90.1634C73.9428 90.1583 73.9454 90.1454 73.9454 90.1249V89.7564C73.9104 89.7544 73.8663 89.7523 73.8128 89.7503C73.7594 89.7472 73.7023 89.7456 73.6417 89.7456H73.5631C73.5137 89.7456 73.4891 89.7662 73.4891 89.8073V90.1095C73.4891 90.1506 73.5137 90.1711 73.5631 90.1711ZM74.861 90.3037C74.8096 90.3037 74.77 90.297 74.7423 90.2837C74.7145 90.2703 74.6945 90.2533 74.6821 90.2328C74.6708 90.2122 74.6636 90.1907 74.6605 90.168C74.6585 90.1454 74.6575 90.1249 74.6575 90.1064V89.8104C74.6575 89.795 74.6585 89.7765 74.6605 89.7549C74.6636 89.7323 74.6708 89.7102 74.6821 89.6886C74.6945 89.667 74.7145 89.649 74.7423 89.6346C74.771 89.6202 74.8106 89.613 74.861 89.613H75.1924C75.2603 89.613 75.3132 89.6197 75.3512 89.6331C75.3903 89.6454 75.4175 89.666 75.4329 89.6948C75.4494 89.7235 75.4576 89.7621 75.4576 89.8104V90.0385H75.1878C75.0953 90.0385 75.0198 90.0365 74.9612 90.0324C74.9036 90.0283 74.8651 90.0257 74.8455 90.0247V90.1095C74.8445 90.1506 74.8692 90.1711 74.9195 90.1711H74.9982C75.0537 90.1711 75.1076 90.1706 75.16 90.1696C75.2135 90.1675 75.2623 90.1655 75.3065 90.1634C75.3507 90.1603 75.3862 90.1578 75.4129 90.1557L75.4745 90.2559C75.4745 90.2878 75.3733 90.3037 75.1708 90.3037H74.861ZM74.8455 89.906H75.2695V89.8073C75.2695 89.7867 75.2669 89.7723 75.2618 89.7641C75.2577 89.7559 75.2443 89.7508 75.2217 89.7487C75.1991 89.7467 75.1606 89.7456 75.1061 89.7456H74.9195C74.8702 89.7456 74.8455 89.7662 74.8455 89.8073V89.906ZM75.6289 90.3037V89.613H75.7553L75.817 89.6439C75.8601 89.6357 75.912 89.6285 75.9727 89.6223C76.0333 89.6161 76.1027 89.613 76.1808 89.613H76.2579C76.3093 89.613 76.3489 89.6202 76.3766 89.6346C76.4044 89.649 76.4239 89.667 76.4352 89.6886C76.4475 89.7102 76.4547 89.7323 76.4568 89.7549C76.4599 89.7765 76.4614 89.795 76.4614 89.8104V90.3037H76.2733V89.8073C76.2733 89.7662 76.2486 89.7456 76.1993 89.7456H75.8632C75.8437 89.7456 75.8309 89.7477 75.8247 89.7518C75.8195 89.7549 75.817 89.7641 75.817 89.7795V90.3037H75.6289ZM77.1463 90.575C77.0333 90.575 76.9413 90.574 76.8704 90.572C76.7994 90.5699 76.745 90.5668 76.7069 90.5627C76.6689 90.5586 76.6427 90.5535 76.6283 90.5473C76.615 90.5411 76.6083 90.5344 76.6083 90.5273L76.6545 90.4116C76.671 90.4168 76.6997 90.4229 76.7409 90.4301C76.783 90.4383 76.8364 90.4425 76.9012 90.4425H77.1648C77.2028 90.4425 77.2296 90.4368 77.245 90.4255C77.2614 90.4142 77.2696 90.3942 77.2696 90.3654V90.2729C77.2255 90.2811 77.173 90.2883 77.1124 90.2945C77.0528 90.3006 76.9839 90.3037 76.9058 90.3037H76.8287C76.7773 90.3037 76.7378 90.297 76.71 90.2837C76.6823 90.2703 76.6622 90.2533 76.6499 90.2328C76.6386 90.2122 76.6314 90.1907 76.6283 90.168C76.6263 90.1454 76.6252 90.1249 76.6252 90.1064V89.8104C76.6252 89.795 76.6263 89.7765 76.6283 89.7549C76.6314 89.7323 76.6386 89.7102 76.6499 89.6886C76.6622 89.667 76.6823 89.649 76.71 89.6346C76.7388 89.6202 76.7784 89.613 76.8287 89.613H76.9074C77.0153 89.613 77.099 89.6151 77.1586 89.6192C77.2193 89.6233 77.2635 89.6279 77.2912 89.6331L77.3313 89.613H77.4577V90.3777C77.4577 90.3962 77.4546 90.4168 77.4485 90.4394C77.4433 90.462 77.4326 90.4836 77.4161 90.5041C77.3997 90.5247 77.376 90.5416 77.3452 90.555C77.3144 90.5684 77.2738 90.575 77.2234 90.575H77.1463ZM76.8873 90.1711H77.2219C77.2455 90.1711 77.2594 90.1691 77.2635 90.165C77.2676 90.1608 77.2696 90.1475 77.2696 90.1249V89.7564C77.2347 89.7544 77.1905 89.7523 77.1371 89.7503C77.0836 89.7472 77.0266 89.7456 76.9659 89.7456H76.8873C76.838 89.7456 76.8133 89.7662 76.8133 89.8073V90.1095C76.8123 90.1506 76.837 90.1711 76.8873 90.1711ZM77.7528 89.5159C77.7147 89.5159 77.687 89.5082 77.6695 89.4928C77.652 89.4774 77.6433 89.4517 77.6433 89.4157C77.6433 89.3787 77.6515 89.353 77.668 89.3386C77.6854 89.3232 77.7137 89.3155 77.7528 89.3155C77.7918 89.3155 77.8201 89.3232 77.8375 89.3386C77.855 89.353 77.8638 89.3787 77.8638 89.4157C77.8638 89.4507 77.855 89.4763 77.8375 89.4928C77.8201 89.5082 77.7918 89.5159 77.7528 89.5159ZM77.6587 90.3037V89.613H77.8468V90.3037H77.6587ZM78.0483 90.3037V89.613H78.1747L78.2364 89.6439C78.2795 89.6357 78.3314 89.6285 78.3921 89.6223C78.4527 89.6161 78.5221 89.613 78.6002 89.613H78.6773C78.7287 89.613 78.7682 89.6202 78.796 89.6346C78.8237 89.649 78.8433 89.667 78.8546 89.6886C78.8669 89.7102 78.8741 89.7323 78.8762 89.7549C78.8792 89.7765 78.8808 89.795 78.8808 89.8104V90.3037H78.6927V89.8073C78.6927 89.7662 78.668 89.7456 78.6187 89.7456H78.2826C78.2631 89.7456 78.2502 89.7477 78.2441 89.7518C78.2389 89.7549 78.2364 89.7641 78.2364 89.7795V90.3037H78.0483ZM79.2466 90.3037C79.1952 90.3037 79.1556 90.297 79.1279 90.2837C79.1001 90.2703 79.0801 90.2533 79.0677 90.2328C79.0564 90.2122 79.0492 90.1907 79.0462 90.168C79.0441 90.1454 79.0431 90.1249 79.0431 90.1064V89.8104C79.0431 89.795 79.0441 89.7765 79.0462 89.7549C79.0492 89.7323 79.0564 89.7102 79.0677 89.6886C79.0801 89.667 79.1001 89.649 79.1279 89.6346C79.1567 89.6202 79.1962 89.613 79.2466 89.613H79.578C79.6459 89.613 79.6988 89.6197 79.7368 89.6331C79.7759 89.6454 79.8031 89.666 79.8185 89.6948C79.835 89.7235 79.8432 89.7621 79.8432 89.8104V90.0385H79.5734C79.4809 90.0385 79.4054 90.0365 79.3468 90.0324C79.2892 90.0283 79.2507 90.0257 79.2312 90.0247V90.1095C79.2301 90.1506 79.2548 90.1711 79.3052 90.1711H79.3838C79.4393 90.1711 79.4932 90.1706 79.5457 90.1696C79.5991 90.1675 79.6479 90.1655 79.6921 90.1634C79.7363 90.1603 79.7718 90.1578 79.7985 90.1557L79.8602 90.2559C79.8602 90.2878 79.7589 90.3037 79.5565 90.3037H79.2466ZM79.2312 89.906H79.6551V89.8073C79.6551 89.7867 79.6526 89.7723 79.6474 89.7641C79.6433 89.7559 79.6299 89.7508 79.6073 89.7487C79.5847 89.7467 79.5462 89.7456 79.4917 89.7456H79.3052C79.2558 89.7456 79.2312 89.7662 79.2312 89.8073V89.906ZM80.2026 90.3037C80.1512 90.3037 80.1116 90.297 80.0839 90.2837C80.0561 90.2703 80.0361 90.2533 80.0238 90.2328C80.0125 90.2122 80.0053 90.1907 80.0022 90.168C80.0001 90.1454 79.9991 90.1249 79.9991 90.1064V89.8104C79.9991 89.795 80.0001 89.7765 80.0022 89.7549C80.0053 89.7323 80.0125 89.7102 80.0238 89.6886C80.0361 89.667 80.0561 89.649 80.0839 89.6346C80.1127 89.6202 80.1522 89.613 80.2026 89.613H80.5341C80.6019 89.613 80.6548 89.6197 80.6928 89.6331C80.7319 89.6454 80.7591 89.666 80.7746 89.6948C80.791 89.7235 80.7992 89.7621 80.7992 89.8104V90.0385H80.5294C80.4369 90.0385 80.3614 90.0365 80.3028 90.0324C80.2452 90.0283 80.2067 90.0257 80.1872 90.0247V90.1095C80.1862 90.1506 80.2108 90.1711 80.2612 90.1711H80.3398C80.3953 90.1711 80.4493 90.1706 80.5017 90.1696C80.5551 90.1675 80.6039 90.1655 80.6481 90.1634C80.6923 90.1603 80.7278 90.1578 80.7545 90.1557L80.8162 90.2559C80.8162 90.2878 80.7149 90.3037 80.5125 90.3037H80.2026ZM80.1872 89.906H80.6111V89.8073C80.6111 89.7867 80.6086 89.7723 80.6034 89.7641C80.5993 89.7559 80.586 89.7508 80.5633 89.7487C80.5407 89.7467 80.5022 89.7456 80.4477 89.7456H80.2612C80.2118 89.7456 80.1872 89.7662 80.1872 89.8073V89.906ZM80.9705 90.3037V89.613H81.0969L81.1555 89.6439C81.1822 89.6295 81.211 89.6182 81.2419 89.61C81.2727 89.6017 81.3117 89.5976 81.359 89.5976C81.4341 89.5976 81.4947 89.6058 81.5409 89.6223C81.5882 89.6387 81.6196 89.6511 81.635 89.6593L81.581 89.7934C81.5687 89.7873 81.5481 89.7795 81.5194 89.7703C81.4916 89.76 81.4587 89.7508 81.4207 89.7425C81.3827 89.7343 81.341 89.7302 81.2958 89.7302H81.2789C81.2295 89.7302 81.1972 89.74 81.1817 89.7595C81.1673 89.779 81.1596 89.8114 81.1586 89.8566V90.3037H80.9705ZM81.7913 90.3037C81.7533 90.3037 81.7255 90.296 81.7081 90.2806C81.6906 90.2652 81.6819 90.2395 81.6819 90.2035C81.6819 90.1665 81.6901 90.1408 81.7065 90.1264C81.724 90.111 81.7523 90.1033 81.7913 90.1033C81.8304 90.1033 81.8586 90.111 81.8761 90.1264C81.8936 90.1408 81.9023 90.1665 81.9023 90.2035C81.9023 90.2384 81.8936 90.2641 81.8761 90.2806C81.8586 90.296 81.8304 90.3037 81.7913 90.3037Z" fill="white"/>
<defs>
<radialGradient id="paint0_diamond_272_1197" cx="0" cy="0" r="1" gradientUnits="userSpaceOnUse" gradientTransform="translate(88.5771 31.8847) rotate(132.974) scale(69.741 92.0581)">
<stop stop-color="#BFBEBE"/>
<stop offset="1" stop-color="#2D2D2D"/>
</radialGradient>
<radialGradient id="paint1_diamond_272_1197" cx="0" cy="0" r="1" gradientUnits="userSpaceOnUse" gradientTransform="translate(146.244 74.4879) rotate(180) scale(72.4879 95.6841)">
<stop stop-color="#BFBEBE"/>
<stop offset="0.51" stop-color="#363636"/>
</radialGradient>
<linearGradient id="paint2_linear_272_1197" x1="74.1218" y1="2" x2="74.1218" y2="146.244" gradientUnits="userSpaceOnUse">
<stop offset="0.235"/>
<stop offset="0.499748" stop-color="white"/>
<stop offset="0.87"/>
</linearGradient>
<radialGradient id="paint3_diamond_272_1197" cx="0" cy="0" r="1" gradientUnits="userSpaceOnUse" gradientTransform="translate(87.6736 34.5248) rotate(132.974) scale(65.3821 86.3045)">
<stop stop-color="#BFBEBE"/>
<stop offset="1" stop-color="#2D2D2D"/>
</radialGradient>
<radialGradient id="paint4_diamond_272_1197" cx="0" cy="0" r="1" gradientUnits="userSpaceOnUse" gradientTransform="translate(141.736 74.4652) rotate(180) scale(67.9574 89.7038)">
<stop stop-color="#BFBEBE"/>
<stop offset="0.51" stop-color="#363636"/>
</radialGradient>
<linearGradient id="paint5_linear_272_1197" x1="74.1218" y1="6.50781" x2="74.1218" y2="141.736" gradientUnits="userSpaceOnUse">
<stop offset="0.235"/>
<stop offset="0.499748" stop-color="white"/>
<stop offset="0.87"/>
</linearGradient>
<radialGradient id="paint6_diamond_272_1197" cx="0" cy="0" r="1" gradientUnits="userSpaceOnUse" gradientTransform="translate(86.6197 37.6044) rotate(132.974) scale(60.2969 79.5919)">
<stop stop-color="#BFBEBE"/>
<stop offset="1" stop-color="#2D2D2D"/>
</radialGradient>
<radialGradient id="paint7_diamond_272_1197" cx="0" cy="0" r="1" gradientUnits="userSpaceOnUse" gradientTransform="translate(136.477 74.4384) rotate(180) scale(62.6719 82.7269)">
<stop stop-color="#BFBEBE"/>
<stop offset="0.51" stop-color="#363636"/>
</radialGradient>
<linearGradient id="paint8_linear_272_1197" x1="74.1219" y1="11.7666" x2="74.1219" y2="136.477" gradientUnits="userSpaceOnUse">
<stop offset="0.235"/>
<stop offset="0.499748" stop-color="white"/>
<stop offset="0.87"/>
</linearGradient>
<radialGradient id="paint9_diamond_272_1197" cx="0" cy="0" r="1" gradientUnits="userSpaceOnUse" gradientTransform="translate(17.0254 74.4117) scale(56.8066 74.9848)">
<stop stop-color="#BFBEBE"/>
<stop offset="1"/>
</radialGradient>
<radialGradient id="paint10_diamond_272_1197" cx="0" cy="0" r="1" gradientUnits="userSpaceOnUse" gradientTransform="translate(131.218 74.4117) rotate(180) scale(57.3863 75.7499)">
<stop stop-color="#BFBEBE"/>
<stop offset="1"/>
</radialGradient>
<linearGradient id="paint11_linear_272_1197" x1="91.1508" y1="17.0254" x2="57.0929" y2="131.218" gradientUnits="userSpaceOnUse">
<stop offset="0.199226" stop-color="#7A7A7A"/>
<stop offset="0.499748" stop-color="white" stop-opacity="0.66"/>
<stop offset="0.8019" stop-color="#7A7A7A"/>
</linearGradient>
<radialGradient id="paint12_diamond_272_1197" cx="0" cy="0" r="1" gradientUnits="userSpaceOnUse" gradientTransform="translate(21.533 74.3885) scale(52.3219 69.0649)">
<stop stop-color="#BFBEBE"/>
<stop offset="1"/>
</radialGradient>
<radialGradient id="paint13_diamond_272_1197" cx="0" cy="0" r="1" gradientUnits="userSpaceOnUse" gradientTransform="translate(126.711 74.3885) rotate(180) scale(52.8558 69.7696)">
<stop stop-color="#BFBEBE"/>
<stop offset="1"/>
</radialGradient>
<linearGradient id="paint14_linear_272_1197" x1="84.4418" y1="21.5327" x2="63.8018" y2="126.71" gradientUnits="userSpaceOnUse">
<stop offset="0.199226" stop-color="#7A7A7A"/>
<stop offset="0.499748" stop-color="white" stop-opacity="0.66"/>
<stop offset="0.8019" stop-color="#7A7A7A"/>
</linearGradient>
<radialGradient id="paint15_diamond_272_1197" cx="0" cy="0" r="1" gradientUnits="userSpaceOnUse" gradientTransform="translate(25.2893 74.3699) scale(48.5846 64.1317)">
<stop stop-color="#BFBEBE"/>
<stop offset="1"/>
</radialGradient>
<radialGradient id="paint16_diamond_272_1197" cx="0" cy="0" r="1" gradientUnits="userSpaceOnUse" gradientTransform="translate(122.954 74.3699) rotate(180) scale(49.0804 64.7861)">
<stop stop-color="#BFBEBE"/>
<stop offset="1"/>
</radialGradient>
<linearGradient id="paint17_linear_272_1197" x1="62.5777" y1="25.2896" x2="85.6659" y2="122.955" gradientUnits="userSpaceOnUse">
<stop offset="0.199226" stop-color="#7A7A7A"/>
<stop offset="0.499748" stop-color="white" stop-opacity="0.66"/>
<stop offset="0.8019" stop-color="#7A7A7A"/>
</linearGradient>
<radialGradient id="paint18_diamond_272_1197" cx="0" cy="0" r="1" gradientUnits="userSpaceOnUse" gradientTransform="translate(29.7971 74.3467) scale(44.0999 58.2118)">
<stop stop-color="#BFBEBE"/>
<stop offset="1"/>
</radialGradient>
<radialGradient id="paint19_diamond_272_1197" cx="0" cy="0" r="1" gradientUnits="userSpaceOnUse" gradientTransform="translate(118.447 74.3467) rotate(180) scale(44.5499 58.8058)">
<stop stop-color="#BFBEBE"/>
<stop offset="1"/>
</radialGradient>
<linearGradient id="paint20_linear_272_1197" x1="82.1018" y1="29.7969" x2="66.1422" y2="118.447" gradientUnits="userSpaceOnUse">
<stop offset="0.199226" stop-color="#7A7A7A"/>
<stop offset="0.499748" stop-color="white" stop-opacity="0.66"/>
<stop offset="0.8019" stop-color="#7A7A7A"/>
</linearGradient>
<radialGradient id="paint21_diamond_272_1197" cx="0" cy="0" r="1" gradientUnits="userSpaceOnUse" gradientTransform="translate(33.5532 74.3277) scale(40.3626 53.2786)">
<stop stop-color="#BFBEBE"/>
<stop offset="1"/>
</radialGradient>
<radialGradient id="paint22_diamond_272_1197" cx="0" cy="0" r="1" gradientUnits="userSpaceOnUse" gradientTransform="translate(114.69 74.3277) rotate(180) scale(40.7745 53.8223)">
<stop stop-color="#BFBEBE"/>
<stop offset="1"/>
</radialGradient>
<linearGradient id="paint23_linear_272_1197" x1="68.0721" y1="33.5532" x2="80.1715" y2="114.69" gradientUnits="userSpaceOnUse">
<stop offset="0.199226" stop-color="#7A7A7A"/>
<stop offset="0.499748" stop-color="white" stop-opacity="0.66"/>
<stop offset="0.8019" stop-color="#7A7A7A"/>
</linearGradient>
<radialGradient id="paint24_diamond_272_1197" cx="0" cy="0" r="1" gradientUnits="userSpaceOnUse" gradientTransform="translate(38.061 74.305) scale(35.8779 47.3588)">
<stop stop-color="#BFBEBE"/>
<stop offset="1"/>
</radialGradient>
<radialGradient id="paint25_diamond_272_1197" cx="0" cy="0" r="1" gradientUnits="userSpaceOnUse" gradientTransform="translate(110.183 74.305) rotate(180) scale(36.244 47.842)">
<stop stop-color="#BFBEBE"/>
<stop offset="1" stop-color="#1B1B1B"/>
</radialGradient>
<linearGradient id="paint26_linear_272_1197" x1="78.8023" y1="38.061" x2="69.4416" y2="110.183" gradientUnits="userSpaceOnUse">
<stop offset="0.199226" stop-color="#7A7A7A"/>
<stop offset="0.499748" stop-color="white" stop-opacity="0.66"/>
<stop offset="0.8019" stop-color="#7A7A7A"/>
</linearGradient>
<radialGradient id="paint27_diamond_272_1197" cx="0" cy="0" r="1" gradientUnits="userSpaceOnUse" gradientTransform="translate(80.5967 55.2033) rotate(132.974) scale(31.2381 41.2343)">
<stop stop-color="#BFBEBE"/>
<stop offset="1" stop-color="#2D2D2D"/>
</radialGradient>
<radialGradient id="paint28_diamond_272_1197" cx="0" cy="0" r="1" gradientUnits="userSpaceOnUse" gradientTransform="translate(106.427 74.2859) rotate(180) scale(32.4685 42.8585)">
<stop stop-color="#BFBEBE"/>
<stop offset="0.51" stop-color="#363636"/>
</radialGradient>
<linearGradient id="paint29_linear_272_1197" x1="74.1219" y1="41.8174" x2="74.1219" y2="106.427" gradientUnits="userSpaceOnUse">
<stop offset="0.235"/>
<stop offset="0.499748" stop-color="white"/>
<stop offset="0.87"/>
</linearGradient>
<radialGradient id="paint30_diamond_272_1197" cx="0" cy="0" r="1" gradientUnits="userSpaceOnUse" gradientTransform="translate(79.8436 57.4031) rotate(132.974) scale(27.6058 36.4397)">
<stop stop-color="#BFBEBE"/>
<stop offset="1" stop-color="#2D2D2D"/>
</radialGradient>
<radialGradient id="paint31_diamond_272_1197" cx="0" cy="0" r="1" gradientUnits="userSpaceOnUse" gradientTransform="translate(102.67 74.2669) rotate(180) scale(28.6931 37.8749)">
<stop stop-color="#BFBEBE"/>
<stop offset="0.51" stop-color="#363636"/>
</radialGradient>
<linearGradient id="paint32_linear_272_1197" x1="74.1217" y1="45.5737" x2="74.1217" y2="102.67" gradientUnits="userSpaceOnUse">
<stop offset="0.235"/>
<stop offset="0.499748" stop-color="white"/>
<stop offset="0.87"/>
</linearGradient>
</defs>
</svg>
