<svg width="145" height="145" viewBox="0 0 145 145" fill="none" xmlns="http://www.w3.org/2000/svg">
<circle cx="72.6155" cy="72.6057" r="71.9575" transform="rotate(90 72.6155 72.6057)" stroke="url(#paint0_diamond_272_1198)" stroke-opacity="0.5" stroke-width="0.328645"/>
<circle cx="72.6155" cy="72.6057" r="71.9575" transform="rotate(90 72.6155 72.6057)" stroke="url(#paint1_diamond_272_1198)" stroke-opacity="0.5" stroke-width="0.328645"/>
<circle cx="72.6155" cy="72.6057" r="71.9575" transform="rotate(90 72.6155 72.6057)" stroke="url(#paint2_linear_272_1198)" stroke-opacity="0.37" stroke-width="0.328645"/>
<circle cx="72.6155" cy="72.6059" r="67.4499" transform="rotate(90 72.6155 72.6059)" stroke="url(#paint3_diamond_272_1198)" stroke-opacity="0.5" stroke-width="0.328645"/>
<circle cx="72.6155" cy="72.6059" r="67.4499" transform="rotate(90 72.6155 72.6059)" stroke="url(#paint4_diamond_272_1198)" stroke-opacity="0.5" stroke-width="0.328645"/>
<circle cx="72.6155" cy="72.6059" r="67.4499" transform="rotate(90 72.6155 72.6059)" stroke="url(#paint5_linear_272_1198)" stroke-opacity="0.37" stroke-width="0.328645"/>
<path d="M72.6154 134.797C38.2682 134.797 10.4244 106.953 10.4244 72.6058C10.4244 38.2587 38.2682 10.4148 72.6154 10.4148C106.963 10.4148 134.806 38.2587 134.806 72.6058C134.806 106.953 106.963 134.797 72.6154 134.797Z" stroke="url(#paint6_diamond_272_1198)" stroke-opacity="0.5" stroke-width="0.328645"/>
<path d="M72.6154 134.797C38.2682 134.797 10.4244 106.953 10.4244 72.6058C10.4244 38.2587 38.2682 10.4148 72.6154 10.4148C106.963 10.4148 134.806 38.2587 134.806 72.6058C134.806 106.953 106.963 134.797 72.6154 134.797Z" stroke="url(#paint7_diamond_272_1198)" stroke-opacity="0.5" stroke-width="0.328645"/>
<path d="M72.6154 134.797C38.2682 134.797 10.4244 106.953 10.4244 72.6058C10.4244 38.2587 38.2682 10.4148 72.6154 10.4148C106.963 10.4148 134.806 38.2587 134.806 72.6058C134.806 106.953 106.963 134.797 72.6154 134.797Z" stroke="url(#paint8_linear_272_1198)" stroke-opacity="0.37" stroke-width="0.328645"/>
<circle cx="72.6155" cy="72.6057" r="56.9321" transform="rotate(90 72.6155 72.6057)" stroke="url(#paint9_diamond_272_1198)" stroke-opacity="0.5" stroke-width="0.328645"/>
<circle cx="72.6155" cy="72.6057" r="56.9321" transform="rotate(90 72.6155 72.6057)" stroke="url(#paint10_diamond_272_1198)" stroke-opacity="0.5" stroke-width="0.328645"/>
<circle cx="72.6155" cy="72.6057" r="56.9321" transform="rotate(90 72.6155 72.6057)" stroke="url(#paint11_linear_272_1198)" stroke-opacity="0.37" stroke-width="0.328645"/>
<circle cx="72.6155" cy="72.6059" r="52.4245" transform="rotate(90 72.6155 72.6059)" stroke="url(#paint12_diamond_272_1198)" stroke-opacity="0.5" stroke-width="0.328645"/>
<circle cx="72.6155" cy="72.6059" r="52.4245" transform="rotate(90 72.6155 72.6059)" stroke="url(#paint13_diamond_272_1198)" stroke-opacity="0.5" stroke-width="0.328645"/>
<circle cx="72.6155" cy="72.6059" r="52.4245" transform="rotate(90 72.6155 72.6059)" stroke="url(#paint14_linear_272_1198)" stroke-opacity="0.37" stroke-width="0.328645"/>
<circle cx="72.6155" cy="72.6059" r="48.6682" transform="rotate(90 72.6155 72.6059)" stroke="url(#paint15_diamond_272_1198)" stroke-opacity="0.5" stroke-width="0.328645"/>
<circle cx="72.6155" cy="72.6059" r="48.6682" transform="rotate(90 72.6155 72.6059)" stroke="url(#paint16_diamond_272_1198)" stroke-opacity="0.5" stroke-width="0.328645"/>
<circle cx="72.6155" cy="72.6059" r="48.6682" transform="rotate(90 72.6155 72.6059)" stroke="url(#paint17_linear_272_1198)" stroke-opacity="0.37" stroke-width="0.328645"/>
<circle cx="72.6156" cy="72.6056" r="44.1605" transform="rotate(90 72.6156 72.6056)" stroke="url(#paint18_diamond_272_1198)" stroke-opacity="0.5" stroke-width="0.328645"/>
<circle cx="72.6156" cy="72.6056" r="44.1605" transform="rotate(90 72.6156 72.6056)" stroke="url(#paint19_diamond_272_1198)" stroke-opacity="0.5" stroke-width="0.328645"/>
<circle cx="72.6156" cy="72.6056" r="44.1605" transform="rotate(90 72.6156 72.6056)" stroke="url(#paint20_linear_272_1198)" stroke-opacity="0.37" stroke-width="0.328645"/>
<path d="M72.6156 113.01C50.3009 113.01 32.2114 94.9203 32.2114 72.6056C32.2114 50.291 50.3009 32.2014 72.6156 32.2014C94.9302 32.2014 113.02 50.291 113.02 72.6056C113.02 94.9203 94.9302 113.01 72.6156 113.01Z" stroke="url(#paint21_diamond_272_1198)" stroke-opacity="0.5" stroke-width="0.328645"/>
<path d="M72.6156 113.01C50.3009 113.01 32.2114 94.9203 32.2114 72.6056C32.2114 50.291 50.3009 32.2014 72.6156 32.2014C94.9302 32.2014 113.02 50.291 113.02 72.6056C113.02 94.9203 94.9302 113.01 72.6156 113.01Z" stroke="url(#paint22_diamond_272_1198)" stroke-opacity="0.5" stroke-width="0.328645"/>
<path d="M72.6156 113.01C50.3009 113.01 32.2114 94.9203 32.2114 72.6056C32.2114 50.291 50.3009 32.2014 72.6156 32.2014C94.9302 32.2014 113.02 50.291 113.02 72.6056C113.02 94.9203 94.9302 113.01 72.6156 113.01Z" stroke="url(#paint23_linear_272_1198)" stroke-opacity="0.37" stroke-width="0.328645"/>
<circle cx="72.6154" cy="72.6058" r="35.8966" transform="rotate(90 72.6154 72.6058)" stroke="url(#paint24_diamond_272_1198)" stroke-opacity="0.5" stroke-width="0.328645"/>
<circle cx="72.6154" cy="72.6058" r="35.8966" transform="rotate(90 72.6154 72.6058)" stroke="url(#paint25_diamond_272_1198)" stroke-opacity="0.5" stroke-width="0.328645"/>
<circle cx="72.6154" cy="72.6058" r="35.8966" transform="rotate(90 72.6154 72.6058)" stroke="url(#paint26_linear_272_1198)" stroke-opacity="0.37" stroke-width="0.328645"/>
<path d="M72.6154 104.746C54.8648 104.746 40.4751 90.3564 40.4751 72.6058C40.4751 54.8553 54.8648 40.4656 72.6154 40.4656C90.3659 40.4656 104.756 54.8553 104.756 72.6058C104.756 90.3564 90.3659 104.746 72.6154 104.746Z" stroke="url(#paint27_diamond_272_1198)" stroke-opacity="0.5" stroke-width="0.328645"/>
<path d="M72.6154 104.746C54.8648 104.746 40.4751 90.3564 40.4751 72.6058C40.4751 54.8553 54.8648 40.4656 72.6154 40.4656C90.3659 40.4656 104.756 54.8553 104.756 72.6058C104.756 90.3564 90.3659 104.746 72.6154 104.746Z" stroke="url(#paint28_diamond_272_1198)" stroke-opacity="0.5" stroke-width="0.328645"/>
<path d="M72.6154 104.746C54.8648 104.746 40.4751 90.3564 40.4751 72.6058C40.4751 54.8553 54.8648 40.4656 72.6154 40.4656C90.3659 40.4656 104.756 54.8553 104.756 72.6058C104.756 90.3564 90.3659 104.746 72.6154 104.746Z" stroke="url(#paint29_linear_272_1198)" stroke-opacity="0.37" stroke-width="0.328645"/>
<path d="M72.6156 100.99C56.9396 100.99 44.2317 88.2818 44.2317 72.6058C44.2317 56.9298 56.9396 44.2219 72.6156 44.2219C88.2916 44.2219 100.999 56.9298 100.999 72.6058C100.999 88.2818 88.2916 100.99 72.6156 100.99Z" stroke="url(#paint30_diamond_272_1198)" stroke-opacity="0.5" stroke-width="0.328645"/>
<path d="M72.6156 100.99C56.9396 100.99 44.2317 88.2818 44.2317 72.6058C44.2317 56.9298 56.9396 44.2219 72.6156 44.2219C88.2916 44.2219 100.999 56.9298 100.999 72.6058C100.999 88.2818 88.2916 100.99 72.6156 100.99Z" stroke="url(#paint31_diamond_272_1198)" stroke-opacity="0.5" stroke-width="0.328645"/>
<path d="M72.6156 100.99C56.9396 100.99 44.2317 88.2818 44.2317 72.6058C44.2317 56.9298 56.9396 44.2219 72.6156 44.2219C88.2916 44.2219 100.999 56.9298 100.999 72.6058C100.999 88.2818 88.2916 100.99 72.6156 100.99Z" stroke="url(#paint32_linear_272_1198)" stroke-opacity="0.37" stroke-width="0.328645"/>
<path fill-rule="evenodd" clip-rule="evenodd" d="M49.3348 72.9999C49.3348 86.0697 59.93 96.6649 72.9998 96.6649C86.0696 96.6649 96.6648 86.0697 96.6648 72.9999C96.6648 59.9301 86.0696 49.335 72.9998 49.335C59.93 49.335 49.3348 59.9301 49.3348 72.9999ZM70.8041 72.9999C70.8041 74.2126 71.7872 75.1957 72.9998 75.1957C74.2125 75.1957 75.1955 74.2126 75.1955 72.9999C75.1955 71.7873 74.2125 70.8042 72.9998 70.8042C71.7872 70.8042 70.8041 71.7873 70.8041 72.9999Z" fill="#A5A5A5"/>
<circle cx="73.0001" cy="72.9999" r="25.5316" transform="rotate(90 73.0001 72.9999)" stroke="black" stroke-width="3.77942"/>
<path fill-rule="evenodd" clip-rule="evenodd" d="M49.3326 73.0024C49.3326 86.0722 59.9278 96.6674 72.9976 96.6674C86.0674 96.6674 96.6626 86.0722 96.6626 73.0024C96.6626 59.9326 86.0674 49.3374 72.9976 49.3374C59.9278 49.3374 49.3326 59.9326 49.3326 73.0024ZM70.8019 73.0024C70.8019 74.215 71.785 75.1981 72.9976 75.1981C74.2103 75.1981 75.1933 74.215 75.1933 73.0024C75.1933 71.7897 74.2103 70.8067 72.9976 70.8067C71.785 70.8067 70.8019 71.7897 70.8019 73.0024Z" fill="#5CB28A"/>
<circle cx="72.9855" cy="73.0145" r="9.07161" transform="rotate(90 72.9855 73.0145)" stroke="white" stroke-width="0.0770833"/>
<path d="M85.1833 58.7157H86.815V59.082H86.1379V60.1698H86.815V60.5361H85.1833V60.1698H85.8715V59.082H85.1833V58.7157ZM85.1833 61.2642C85.1833 61.1717 85.1954 61.1005 85.2194 61.0506C85.2435 61.0006 85.274 60.9645 85.311 60.9423C85.348 60.922 85.3868 60.909 85.4275 60.9035C85.4682 60.8998 85.5052 60.8979 85.5385 60.8979H86.0713C86.0991 60.8979 86.1324 60.8998 86.1712 60.9035C86.2119 60.909 86.2517 60.922 86.2906 60.9423C86.3294 60.9645 86.3618 61.0006 86.3877 61.0506C86.4136 61.1024 86.4265 61.1736 86.4265 61.2642V61.8609C86.4265 61.983 86.4145 62.0782 86.3905 62.1467C86.3683 62.217 86.3313 62.266 86.2795 62.2938C86.2277 62.3234 86.1583 62.3382 86.0713 62.3382H85.6606V61.8525C85.6606 61.686 85.6643 61.5501 85.6717 61.4446C85.6791 61.341 85.6838 61.2716 85.6856 61.2365H85.533C85.459 61.2346 85.422 61.279 85.422 61.3697V61.5112C85.422 61.6111 85.4229 61.7082 85.4248 61.8026C85.4285 61.8988 85.4322 61.9867 85.4359 62.0662C85.4414 62.1458 85.446 62.2096 85.4497 62.2577L85.2694 62.3687C85.212 62.3687 85.1833 62.1865 85.1833 61.822V61.2642ZM85.8993 61.2365V61.9996H86.0769C86.1139 61.9996 86.1398 61.995 86.1546 61.9857C86.1694 61.9783 86.1786 61.9543 86.1823 61.9136C86.186 61.8729 86.1879 61.8035 86.1879 61.7055V61.3697C86.1879 61.2809 86.1509 61.2365 86.0769 61.2365H85.8993ZM85.1833 62.6465H86.4265V62.8741L86.371 62.9795C86.3969 63.0276 86.4173 63.0794 86.4321 63.1349C86.4469 63.1904 86.4543 63.2607 86.4543 63.3458C86.4543 63.4809 86.4395 63.59 86.4099 63.6733C86.3803 63.7584 86.3581 63.8148 86.3433 63.8425L86.1019 63.7454C86.113 63.7232 86.1268 63.6862 86.1435 63.6344C86.162 63.5845 86.1786 63.5253 86.1934 63.4568C86.2082 63.3884 86.2156 63.3134 86.2156 63.232V63.2015C86.2156 63.1127 86.1981 63.0544 86.1629 63.0267C86.1278 63.0008 86.0695 62.9869 85.9881 62.9851H85.1833V62.6465ZM85.1833 64.3753C85.1833 64.2828 85.1954 64.2116 85.2194 64.1616C85.2435 64.1117 85.274 64.0756 85.311 64.0534C85.348 64.033 85.3868 64.0201 85.4275 64.0145C85.4682 64.0108 85.5052 64.009 85.5385 64.009H86.0713C86.0991 64.009 86.1324 64.0108 86.1712 64.0145C86.2119 64.0201 86.2517 64.033 86.2906 64.0534C86.3294 64.0756 86.3618 64.1117 86.3877 64.1616C86.4136 64.2134 86.4265 64.2846 86.4265 64.3753V64.9719C86.4265 65.094 86.4145 65.1893 86.3905 65.2577C86.3683 65.328 86.3313 65.3771 86.2795 65.4048C86.2277 65.4344 86.1583 65.4492 86.0713 65.4492H85.6606V64.9636C85.6606 64.7971 85.6643 64.6611 85.6717 64.5557C85.6791 64.4521 85.6838 64.3827 85.6856 64.3475H85.533C85.459 64.3457 85.422 64.3901 85.422 64.4807V64.6223C85.422 64.7222 85.4229 64.8193 85.4248 64.9136C85.4285 65.0098 85.4322 65.0977 85.4359 65.1773C85.4414 65.2568 85.446 65.3206 85.4497 65.3687L85.2694 65.4797C85.212 65.4797 85.1833 65.2975 85.1833 64.9331V64.3753ZM85.8993 64.3475V65.1107H86.0769C86.1139 65.1107 86.1398 65.106 86.1546 65.0968C86.1694 65.0894 86.1786 65.0653 86.1823 65.0246C86.186 64.9839 86.1879 64.9146 86.1879 64.8165V64.4807C86.1879 64.3919 86.1509 64.3475 86.0769 64.3475H85.8993ZM86.6014 66.5643C86.6014 66.4959 86.6152 66.4459 86.643 66.4145C86.6707 66.383 86.717 66.3673 86.7817 66.3673C86.8483 66.3673 86.8946 66.3821 86.9205 66.4117C86.9482 66.4431 86.9621 66.494 86.9621 66.5643C86.9621 66.6346 86.9482 66.6855 86.9205 66.7169C86.8946 66.7484 86.8483 66.7641 86.7817 66.7641C86.7188 66.7641 86.6726 66.7484 86.643 66.7169C86.6152 66.6855 86.6014 66.6346 86.6014 66.5643ZM85.1833 66.395H86.4265V66.7336H85.1833V66.395ZM85.1833 67.4098C85.1833 67.2859 85.1898 67.198 85.2028 67.1462C85.2157 67.0944 85.2287 67.0685 85.2416 67.0685L85.4497 67.1518C85.4442 67.2054 85.4377 67.3035 85.4303 67.4459C85.4248 67.5902 85.422 67.7678 85.422 67.9787V68.1175C85.422 68.1637 85.434 68.1924 85.4581 68.2035C85.484 68.2164 85.5182 68.2229 85.5607 68.2229C85.6033 68.2229 85.6375 68.2155 85.6634 68.2007C85.6893 68.1878 85.7023 68.16 85.7023 68.1175V67.4348C85.7023 67.3053 85.7263 67.2119 85.7744 67.1545C85.8244 67.0972 85.8984 67.0685 85.9964 67.0685H86.1074C86.1333 67.0685 86.1638 67.0713 86.199 67.0768C86.2341 67.0824 86.2693 67.0963 86.3044 67.1185C86.3396 67.1407 86.3683 67.1767 86.3905 67.2267C86.4145 67.2766 86.4265 67.346 86.4265 67.4348V68.2007C86.4265 68.3117 86.4201 68.3903 86.4071 68.4366C86.3942 68.4828 86.3812 68.506 86.3683 68.506L86.1601 68.4782C86.1657 68.4246 86.1712 68.3256 86.1768 68.1813C86.1842 68.037 86.1879 67.8603 86.1879 67.6513V67.5125C86.1879 67.4663 86.1749 67.4367 86.149 67.4237C86.125 67.4126 86.0963 67.4071 86.063 67.4071C86.0279 67.4071 85.9983 67.4126 85.9742 67.4237C85.952 67.4367 85.9409 67.4663 85.9409 67.5125V68.1952C85.9409 68.321 85.915 68.4135 85.8632 68.4727C85.8114 68.5319 85.7457 68.5615 85.6662 68.5615H85.5025C85.4692 68.5615 85.434 68.5587 85.397 68.5531C85.36 68.5494 85.3249 68.5365 85.2916 68.5143C85.2601 68.4921 85.2342 68.456 85.2139 68.4061C85.1935 68.3561 85.1833 68.2858 85.1833 68.1952V67.4098ZM85.1833 69.4756H86.4265V69.7032L86.3932 69.7725C86.4025 69.8262 86.4099 69.8919 86.4154 69.9696C86.4228 70.0473 86.4265 70.1398 86.4265 70.2471V70.3858C86.4265 70.4395 86.4191 70.4913 86.4043 70.5412C86.3914 70.5912 86.372 70.6282 86.3461 70.6522C86.3701 70.7003 86.3895 70.7669 86.4043 70.852C86.4191 70.9371 86.4265 71.0481 86.4265 71.185V71.3238C86.4265 71.4163 86.4136 71.4875 86.3877 71.5374C86.3618 71.5874 86.3294 71.6225 86.2906 71.6429C86.2517 71.6651 86.2119 71.678 86.1712 71.6817C86.1324 71.6873 86.0991 71.6901 86.0713 71.6901H85.1833V71.3515H86.0769C86.1509 71.3515 86.1879 71.3071 86.1879 71.2183V70.8298C86.1879 70.8002 86.1842 70.7799 86.1768 70.7688C86.1694 70.7577 86.1527 70.7521 86.1268 70.7521H85.1833V70.4136H86.0769C86.1509 70.4136 86.1879 70.3692 86.1879 70.2804V69.8974C86.1879 69.8623 86.1842 69.8391 86.1768 69.828C86.1712 69.8188 86.1546 69.8142 86.1268 69.8142H85.1833V69.4756ZM84.6394 72.126C84.6394 72.0372 84.6496 71.9558 84.67 71.8818C84.6903 71.8078 84.7088 71.7578 84.7255 71.7319L84.9752 71.8152C84.9623 71.8466 84.9475 71.891 84.9308 71.9484C84.9123 72.0076 84.9031 72.0742 84.9031 72.1482V72.1787C84.9031 72.2638 84.929 72.3387 84.9808 72.4035C85.0307 72.4701 85.0982 72.521 85.1833 72.5561V72.4174L86.4265 71.8735V72.262L85.6606 72.5811L85.4608 72.6532V72.681L85.6606 72.7531L86.4265 73.0778V73.4552L86.2573 73.4108C86.1851 73.3757 86.1019 73.335 86.0075 73.2887C85.915 73.2443 85.8188 73.1981 85.7189 73.15C85.619 73.1019 85.5228 73.0547 85.4303 73.0084C85.3378 72.964 85.2555 72.9243 85.1833 72.8891C85.0723 72.8355 84.9761 72.7763 84.8947 72.7115C84.8133 72.6486 84.7504 72.5755 84.706 72.4923C84.6616 72.4109 84.6394 72.3138 84.6394 72.2009V72.126ZM84.6672 74.2587H86.4265V74.4863L86.3905 74.5556C86.3997 74.6389 86.408 74.7379 86.4154 74.8526C86.4228 74.9691 86.4265 75.1014 86.4265 75.2494V75.3909C86.4265 75.4834 86.4145 75.5546 86.3905 75.6046C86.3664 75.6545 86.3359 75.6897 86.2989 75.71C86.2619 75.7322 86.223 75.7452 86.1823 75.7489C86.1416 75.7544 86.1046 75.7572 86.0713 75.7572H85.5385C85.5108 75.7572 85.4766 75.7544 85.4359 75.7489C85.397 75.7452 85.3582 75.7322 85.3193 75.71C85.2805 75.6897 85.2481 75.6545 85.2222 75.6046C85.1963 75.5546 85.1833 75.4834 85.1833 75.3909V75.2494C85.1833 75.1088 85.187 74.9839 85.1944 74.8748C85.2018 74.7656 85.2092 74.6731 85.2166 74.5973H84.6672V74.2587ZM85.422 74.6833V75.2855C85.422 75.3206 85.4312 75.3511 85.4497 75.377C85.4682 75.4048 85.496 75.4187 85.533 75.4187H86.0769C86.1176 75.4205 86.1463 75.4103 86.1629 75.3881C86.1796 75.3678 86.1879 75.3336 86.1879 75.2855V75.1467C86.1879 75.0283 86.1851 74.9229 86.1796 74.8304C86.1759 74.7397 86.1712 74.662 86.1657 74.5973H85.508C85.4673 74.5973 85.4423 74.601 85.4331 74.6084C85.4257 74.6176 85.422 74.6426 85.422 74.6833ZM85.1833 76.4021C85.1833 76.2781 85.2083 76.1856 85.2583 76.1246C85.3082 76.0654 85.3896 76.0358 85.5025 76.0358H86.0713C86.0991 76.0358 86.1324 76.0376 86.1712 76.0413C86.2119 76.0469 86.2517 76.0598 86.2906 76.0802C86.3294 76.1024 86.3618 76.1385 86.3877 76.1884C86.4136 76.2402 86.4265 76.3114 86.4265 76.4021V77.168C86.4265 77.2605 86.4136 77.3317 86.3877 77.3817C86.3618 77.4316 86.3294 77.4668 86.2906 77.4871C86.2517 77.5093 86.2119 77.5223 86.1712 77.526C86.1324 77.5315 86.0991 77.5343 86.0713 77.5343H85.5385C85.5052 77.5343 85.4682 77.5315 85.4275 77.526C85.3868 77.5223 85.348 77.5093 85.311 77.4871C85.274 77.4649 85.2435 77.4288 85.2194 77.3789C85.1954 77.3289 85.1833 77.2586 85.1833 77.168V76.4021ZM85.422 76.5075V77.0625C85.422 77.1532 85.459 77.1985 85.533 77.1985H86.0769C86.1509 77.1985 86.1879 77.1532 86.1879 77.0625V76.5075C86.1879 76.4187 86.1509 76.3743 86.0769 76.3743H85.533C85.459 76.3743 85.422 76.4187 85.422 76.5075ZM85.1833 77.8386H86.4265V78.0661L86.371 78.1716C86.3969 78.2197 86.4173 78.2715 86.4321 78.327C86.4469 78.3825 86.4543 78.4528 86.4543 78.5379C86.4543 78.6729 86.4395 78.7821 86.4099 78.8653C86.3803 78.9504 86.3581 79.0068 86.3433 79.0346L86.1019 78.9375C86.113 78.9153 86.1268 78.8783 86.1435 78.8265C86.162 78.7765 86.1786 78.7173 86.1934 78.6489C86.2082 78.5804 86.2156 78.5055 86.2156 78.4241V78.3936C86.2156 78.3048 86.1981 78.2465 86.1629 78.2187C86.1278 78.1928 86.0695 78.179 85.9881 78.1771H85.1833V77.8386ZM85.1833 79.7116C85.1833 79.571 85.2129 79.4748 85.2721 79.423C85.3313 79.3712 85.4201 79.3453 85.5385 79.3453H86.1879V79.1178H86.4265V79.2343C86.4265 79.2695 86.4321 79.2944 86.4432 79.3092C86.4543 79.3259 86.4765 79.3379 86.5098 79.3453L86.8067 79.4008V79.6839H86.4265V80.2611H86.1879V79.6839H85.5358C85.4895 79.6839 85.459 79.695 85.4442 79.7172C85.4294 79.7394 85.422 79.7727 85.422 79.8171V80.2083L85.2111 80.2361C85.2055 80.1972 85.1991 80.138 85.1917 80.0585C85.1861 79.9789 85.1833 79.892 85.1833 79.7976V79.7116ZM85.1833 80.5445H86.1879V80.3725H86.4238V80.5445H86.6707C86.7336 80.5445 86.7919 80.5566 86.8456 80.5806C86.8992 80.6065 86.9427 80.6481 86.976 80.7055C87.0093 80.7647 87.0259 80.8424 87.0259 80.9386V81.0773C87.0259 81.2993 87.0158 81.4584 86.9954 81.5546C86.9751 81.6527 86.9575 81.7017 86.9427 81.7017L86.7318 81.6185C86.7447 81.587 86.7568 81.5306 86.7679 81.4492C86.7808 81.3678 86.7873 81.2697 86.7873 81.155V81.0163C86.7873 80.97 86.779 80.9358 86.7623 80.9136C86.7457 80.8933 86.717 80.8831 86.6763 80.8831H86.4238V81.4603H86.1879V80.8831H85.1833V80.5445ZM85.1833 82.0388C85.1833 81.9149 85.2083 81.8224 85.2583 81.7613C85.3082 81.7021 85.3896 81.6725 85.5025 81.6725H86.0713C86.0991 81.6725 86.1324 81.6744 86.1712 81.6781C86.2119 81.6836 86.2517 81.6966 86.2906 81.7169C86.3294 81.7391 86.3618 81.7752 86.3877 81.8251C86.4136 81.8769 86.4265 81.9482 86.4265 82.0388V82.8047C86.4265 82.8972 86.4136 82.9684 86.3877 83.0184C86.3618 83.0683 86.3294 83.1035 86.2906 83.1238C86.2517 83.146 86.2119 83.159 86.1712 83.1627C86.1324 83.1682 86.0991 83.171 86.0713 83.171H85.5385C85.5052 83.171 85.4682 83.1682 85.4275 83.1627C85.3868 83.159 85.348 83.146 85.311 83.1238C85.274 83.1016 85.2435 83.0656 85.2194 83.0156C85.1954 82.9657 85.1833 82.8954 85.1833 82.8047V82.0388ZM85.422 82.1443V82.6993C85.422 82.7899 85.459 82.8352 85.533 82.8352H86.0769C86.1509 82.8352 86.1879 82.7899 86.1879 82.6993V82.1443C86.1879 82.0555 86.1509 82.0111 86.0769 82.0111H85.533C85.459 82.0111 85.422 82.0555 85.422 82.1443ZM85.1833 83.503H86.7207L86.9427 83.4753V83.8416H85.1833V83.503ZM86.6014 84.3715C86.6014 84.303 86.6152 84.2531 86.643 84.2216C86.6707 84.1902 86.717 84.1744 86.7817 84.1744C86.8483 84.1744 86.8946 84.1892 86.9205 84.2188C86.9482 84.2503 86.9621 84.3012 86.9621 84.3715C86.9621 84.4418 86.9482 84.4926 86.9205 84.5241C86.8946 84.5555 86.8483 84.5713 86.7817 84.5713C86.7188 84.5713 86.6726 84.5555 86.643 84.5241C86.6152 84.4926 86.6014 84.4418 86.6014 84.3715ZM85.1833 84.2022H86.4265V84.5407H85.1833V84.2022ZM85.1833 85.242C85.1833 85.118 85.2083 85.0255 85.2583 84.9645C85.3082 84.9053 85.3896 84.8757 85.5025 84.8757H86.0713C86.0991 84.8757 86.1324 84.8775 86.1712 84.8812C86.2119 84.8868 86.2517 84.8997 86.2906 84.9201C86.3294 84.9423 86.3618 84.9783 86.3877 85.0283C86.4136 85.0801 86.4265 85.1513 86.4265 85.242V86.0079C86.4265 86.1004 86.4136 86.1716 86.3877 86.2215C86.3618 86.2715 86.3294 86.3066 86.2906 86.327C86.2517 86.3492 86.2119 86.3621 86.1712 86.3658C86.1324 86.3714 86.0991 86.3742 86.0713 86.3742H85.5385C85.5052 86.3742 85.4682 86.3714 85.4275 86.3658C85.3868 86.3621 85.348 86.3492 85.311 86.327C85.274 86.3048 85.2435 86.2687 85.2194 86.2188C85.1954 86.1688 85.1833 86.0985 85.1833 86.0079V85.242ZM85.422 85.3474V85.9024C85.422 85.9931 85.459 86.0384 85.533 86.0384H86.0769C86.1509 86.0384 86.1879 85.9931 86.1879 85.9024V85.3474C86.1879 85.2586 86.1509 85.2142 86.0769 85.2142H85.533C85.459 85.2142 85.422 85.2586 85.422 85.3474ZM85.1833 86.931C85.1833 86.8625 85.1972 86.8126 85.225 86.7811C85.2527 86.7497 85.299 86.7339 85.3637 86.7339C85.4303 86.7339 85.4766 86.7487 85.5025 86.7783C85.5302 86.8098 85.5441 86.8607 85.5441 86.931C85.5441 87.0013 85.5302 87.0521 85.5025 87.0836C85.4766 87.115 85.4303 87.1308 85.3637 87.1308C85.3008 87.1308 85.2546 87.115 85.225 87.0836C85.1972 87.0521 85.1833 87.0013 85.1833 86.931Z" fill="#2A1919"/>
<path d="M89.1187 65L92.0145 63.9393V64.63L90.1201 65.3256L89.6416 65.4391V65.4884L89.9771 65.5525L92.0145 66.2087V67.0473L89.9771 67.7331L89.6416 67.8219V67.8712L90.1201 67.9847L92.0145 68.6309V69.3216L91.7185 69.2723L89.1187 68.256V67.4173L91.0575 66.7464L91.3732 66.6477V66.5984L91.0575 66.5047L89.1187 65.8387V65ZM89.1187 70.0729C89.1187 69.8525 89.1631 69.6881 89.2519 69.5796C89.3407 69.4743 89.4854 69.4217 89.686 69.4217H90.6973C90.7467 69.4217 90.8059 69.425 90.8749 69.4316C90.9473 69.4414 91.018 69.4645 91.0871 69.5006C91.1561 69.5401 91.2137 69.6042 91.2597 69.693C91.3058 69.7851 91.3288 69.9117 91.3288 70.0729V71.4345C91.3288 71.5989 91.3058 71.7256 91.2597 71.8144C91.2137 71.9032 91.1561 71.9657 91.0871 72.0018C91.018 72.0413 90.9473 72.0643 90.8749 72.0709C90.8059 72.0808 90.7467 72.0857 90.6973 72.0857H89.7501C89.6909 72.0857 89.6251 72.0808 89.5528 72.0709C89.4804 72.0643 89.4114 72.0413 89.3456 72.0018C89.2798 71.9624 89.2255 71.8982 89.1828 71.8094C89.14 71.7206 89.1187 71.5957 89.1187 71.4345V70.0729ZM89.5429 70.2604V71.247C89.5429 71.4082 89.6087 71.4888 89.7403 71.4888H90.7072C90.8387 71.4888 90.9045 71.4082 90.9045 71.247V70.2604C90.9045 70.1025 90.8387 70.0236 90.7072 70.0236H89.7403C89.6087 70.0236 89.5429 70.1025 89.5429 70.2604ZM89.1187 72.6266H91.3288V73.0312L91.2301 73.2186C91.2762 73.3041 91.3123 73.3962 91.3387 73.4949C91.365 73.5936 91.3781 73.7185 91.3781 73.8698C91.3781 74.1099 91.3518 74.304 91.2992 74.452C91.2466 74.6033 91.2071 74.7036 91.1808 74.7529L90.7516 74.5802C90.7713 74.5408 90.796 74.475 90.8256 74.3829C90.8585 74.2941 90.8881 74.1889 90.9144 74.0672C90.9407 73.9455 90.9539 73.8123 90.9539 73.6676V73.6133C90.9539 73.4554 90.9226 73.3518 90.8601 73.3025C90.7976 73.2565 90.694 73.2318 90.5493 73.2285H89.1187V72.6266ZM89.0693 77.4612C89.0693 77.323 89.0858 77.2046 89.1187 77.106C89.1515 77.0106 89.2223 76.9086 89.3308 76.8001C89.3407 76.7902 89.367 76.7639 89.4097 76.7212C89.4525 76.6784 89.5002 76.6307 89.5528 76.5781C89.6054 76.5288 89.6531 76.4827 89.6959 76.44C89.7386 76.3972 89.7666 76.3693 89.7797 76.3561C89.8619 76.2739 89.9261 76.195 89.9721 76.1193C90.0182 76.047 90.0412 75.9565 90.0412 75.848C90.0412 75.7756 90.0346 75.7329 90.0215 75.7197C90.0083 75.7066 89.9639 75.7 89.8883 75.7H89.1187V75.0981H92.2415V75.7H90.4655V75.8578C90.4655 75.917 90.4885 75.9697 90.5345 76.0157C90.5641 76.0453 90.6233 76.1012 90.7121 76.1834C90.8009 76.2657 90.9012 76.3578 91.0131 76.4597C91.1249 76.565 91.2285 76.6603 91.3239 76.7458V77.471L91.1709 77.3921C91.092 77.3165 91.0081 77.2342 90.9193 77.1454C90.8338 77.0566 90.7499 76.9695 90.6677 76.884C90.5888 76.8018 90.5181 76.7261 90.4556 76.657C90.3964 76.588 90.3569 76.5354 90.3372 76.4992C90.2846 76.5978 90.2237 76.6866 90.1547 76.7656C90.0889 76.8445 90.0132 76.93 89.9277 77.0221C89.8455 77.1142 89.7518 77.2244 89.6465 77.3526C89.5544 77.4678 89.5002 77.5746 89.4837 77.6733C89.4706 77.772 89.464 77.8312 89.464 77.8509L89.1187 77.7621C89.1088 77.7292 89.0989 77.6848 89.0891 77.6289C89.0759 77.573 89.0693 77.5171 89.0693 77.4612ZM89.1187 78.7052C89.1187 78.4848 89.1302 78.3286 89.1532 78.2365C89.1762 78.1444 89.1992 78.0984 89.2223 78.0984L89.5923 78.2464C89.5824 78.3418 89.5709 78.5161 89.5577 78.7693C89.5479 79.0259 89.5429 79.3416 89.5429 79.7165V79.9632C89.5429 80.0454 89.5643 80.0964 89.6071 80.1161C89.6531 80.1391 89.7139 80.1507 89.7896 80.1507C89.8652 80.1507 89.9261 80.1375 89.9721 80.1112C90.0182 80.0882 90.0412 80.0388 90.0412 79.9632V78.7496C90.0412 78.5194 90.0839 78.3533 90.1695 78.2513C90.2583 78.1494 90.3898 78.0984 90.5641 78.0984H90.7615C90.8075 78.0984 90.8618 78.1033 90.9243 78.1132C90.9867 78.1231 91.0492 78.1477 91.1117 78.1872C91.1742 78.2267 91.2252 78.2908 91.2647 78.3796C91.3074 78.4684 91.3288 78.5917 91.3288 78.7496V80.1112C91.3288 80.3085 91.3173 80.4483 91.2943 80.5305C91.2712 80.6127 91.2482 80.6539 91.2252 80.6539L90.8552 80.6045C90.8651 80.5091 90.8749 80.3332 90.8848 80.0767C90.8979 79.8201 90.9045 79.506 90.9045 79.1344V78.8877C90.9045 78.8055 90.8815 78.7529 90.8355 78.7299C90.7927 78.7101 90.7417 78.7003 90.6825 78.7003C90.62 78.7003 90.5674 78.7101 90.5247 78.7299C90.4852 78.7529 90.4655 78.8055 90.4655 78.8877V80.1013C90.4655 80.325 90.4194 80.4894 90.3273 80.5947C90.2352 80.6999 90.1185 80.7525 89.9771 80.7525H89.686C89.6268 80.7525 89.5643 80.7476 89.4985 80.7377C89.4327 80.7311 89.3703 80.7081 89.3111 80.6687C89.2551 80.6292 89.2091 80.5651 89.1729 80.4763C89.1367 80.3875 89.1187 80.2625 89.1187 80.1013V78.7052Z" fill="#2A1919"/>
<path d="M58.4333 59.1184H59.3398V59.3219H58.4333V59.1184ZM58.4333 59.5377H59.124V59.6641L59.0932 59.7258C59.1014 59.769 59.1086 59.8209 59.1148 59.8815C59.1209 59.9421 59.124 60.0115 59.124 60.0896V60.1667C59.124 60.2181 59.1168 60.2577 59.1024 60.2854C59.088 60.3132 59.0701 60.3327 59.0485 60.344C59.0269 60.3563 59.0048 60.3635 58.9822 60.3656C58.9606 60.3687 58.9421 60.3702 58.9267 60.3702H58.4333V60.1821H58.9298C58.9709 60.1821 58.9914 60.1575 58.9914 60.1081V59.772C58.9914 59.7525 58.9894 59.7397 58.9853 59.7335C58.9822 59.7284 58.9729 59.7258 58.9575 59.7258H58.4333V59.5377ZM58.4333 61.1549C58.4333 61.0768 58.4498 61.0234 58.4827 60.9946C58.5156 60.9658 58.5649 60.9514 58.6307 60.9514H58.9914V60.825H59.124V60.8897C59.124 60.9093 59.1271 60.9232 59.1333 60.9314C59.1394 60.9406 59.1518 60.9473 59.1703 60.9514L59.3352 60.9822V61.1395H59.124V61.4602H58.9914V61.1395H58.6291C58.6034 61.1395 58.5865 61.1457 58.5783 61.158C58.57 61.1703 58.5659 61.1888 58.5659 61.2135V61.4309L58.4488 61.4463C58.4457 61.4247 58.4421 61.3918 58.438 61.3476C58.4349 61.3034 58.4333 61.2551 58.4333 61.2027V61.1549ZM58.4333 61.5837H59.4323V61.7718H59.0932C59.1014 61.815 59.1086 61.8669 59.1148 61.9275C59.1209 61.9882 59.124 62.0575 59.124 62.1356V62.2127C59.124 62.2641 59.1168 62.3037 59.1024 62.3314C59.088 62.3592 59.0701 62.3787 59.0485 62.39C59.0269 62.4024 59.0048 62.4095 58.9822 62.4116C58.9606 62.4147 58.9421 62.4162 58.9267 62.4162H58.4333V62.2281H58.9298C58.9709 62.2281 58.9914 62.2035 58.9914 62.1541V61.8181C58.9914 61.7985 58.9894 61.7857 58.9853 61.7795C58.9822 61.7744 58.9729 61.7718 58.9575 61.7718H58.4333V61.5837ZM58.4333 62.5939H59.124V62.7204L59.0932 62.7789C59.1076 62.8057 59.1189 62.8344 59.1271 62.8653C59.1353 62.8961 59.1394 62.9352 59.1394 62.9824C59.1394 63.0575 59.1312 63.1181 59.1148 63.1644C59.0983 63.2116 59.086 63.243 59.0778 63.2584L58.9436 63.2044C58.9498 63.1921 58.9575 63.1716 58.9668 63.1428C58.977 63.115 58.9863 63.0821 58.9945 63.0441C59.0027 63.0061 59.0068 62.9645 59.0068 62.9192V62.9023C59.0068 62.8529 58.9971 62.8206 58.9776 62.8051C58.958 62.7908 58.9257 62.7831 58.8804 62.782H58.4333V62.5939ZM58.4333 63.5544C58.4333 63.503 58.44 63.4634 58.4534 63.4357C58.4668 63.4079 58.4837 63.3879 58.5043 63.3755C58.5248 63.3642 58.5464 63.357 58.569 63.3539C58.5916 63.3519 58.6122 63.3509 58.6307 63.3509H58.9267C58.9421 63.3509 58.9606 63.3519 58.9822 63.3539C59.0048 63.357 59.0269 63.3642 59.0485 63.3755C59.0701 63.3879 59.088 63.4079 59.1024 63.4357C59.1168 63.4644 59.124 63.504 59.124 63.5544V63.8858C59.124 63.9537 59.1173 64.0066 59.104 64.0446C59.0916 64.0837 59.0711 64.1109 59.0423 64.1263C59.0135 64.1428 58.975 64.151 58.9267 64.151H58.6985V63.8812C58.6985 63.7887 58.7006 63.7132 58.7047 63.6546C58.7088 63.597 58.7114 63.5585 58.7124 63.5389H58.6276C58.5865 63.5379 58.5659 63.5626 58.5659 63.6129V63.6916C58.5659 63.7471 58.5664 63.801 58.5675 63.8534C58.5695 63.9069 58.5716 63.9557 58.5736 63.9999C58.5767 64.0441 58.5793 64.0796 58.5813 64.1063L58.4811 64.1679C58.4493 64.1679 58.4333 64.0667 58.4333 63.8642V63.5544ZM58.8311 63.5389V63.9629H58.9298C58.9503 63.9629 58.9647 63.9603 58.9729 63.9552C58.9812 63.9511 58.9863 63.9377 58.9883 63.9151C58.9904 63.8925 58.9914 63.854 58.9914 63.7995V63.6129C58.9914 63.5636 58.9709 63.5389 58.9298 63.5389H58.8311ZM58.4333 64.5104C58.4333 64.459 58.44 64.4194 58.4534 64.3917C58.4668 64.3639 58.4837 64.3439 58.5043 64.3315C58.5248 64.3202 58.5464 64.313 58.569 64.31C58.5916 64.3079 58.6122 64.3069 58.6307 64.3069H58.9267C58.9421 64.3069 58.9606 64.3079 58.9822 64.31C59.0048 64.313 59.0269 64.3202 59.0485 64.3315C59.0701 64.3439 59.088 64.3639 59.1024 64.3917C59.1168 64.4204 59.124 64.46 59.124 64.5104V64.8418C59.124 64.9097 59.1173 64.9626 59.104 65.0006C59.0916 65.0397 59.0711 65.0669 59.0423 65.0823C59.0135 65.0988 58.975 65.107 58.9267 65.107H58.6985V64.8372C58.6985 64.7447 58.7006 64.6692 58.7047 64.6106C58.7088 64.553 58.7114 64.5145 58.7124 64.495H58.6276C58.5865 64.4939 58.5659 64.5186 58.5659 64.569V64.6476C58.5659 64.7031 58.5664 64.757 58.5675 64.8095C58.5695 64.8629 58.5716 64.9117 58.5736 64.9559C58.5767 65.0001 58.5793 65.0356 58.5813 65.0623L58.4811 65.124C58.4493 65.124 58.4333 65.0227 58.4333 64.8203V64.5104ZM58.8311 64.495V64.9189H58.9298C58.9503 64.9189 58.9647 64.9163 58.9729 64.9112C58.9812 64.9071 58.9863 64.8937 58.9883 64.8711C58.9904 64.8485 58.9914 64.81 58.9914 64.7555V64.569C58.9914 64.5196 58.9709 64.495 58.9298 64.495H58.8311ZM58.4333 65.6171H59.124V65.7435L59.1055 65.782C59.1107 65.8118 59.1148 65.8483 59.1178 65.8915C59.122 65.9346 59.124 65.986 59.124 66.0456V66.1227C59.124 66.1525 59.1199 66.1813 59.1117 66.2091C59.1045 66.2368 59.0937 66.2574 59.0793 66.2707C59.0927 66.2974 59.1035 66.3344 59.1117 66.3817C59.1199 66.429 59.124 66.4907 59.124 66.5667V66.6438C59.124 66.6952 59.1168 66.7348 59.1024 66.7625C59.088 66.7903 59.0701 66.8098 59.0485 66.8211C59.0269 66.8334 59.0048 66.8406 58.9822 66.8427C58.9606 66.8458 58.9421 66.8473 58.9267 66.8473H58.4333V66.6592H58.9298C58.9709 66.6592 58.9914 66.6346 58.9914 66.5852V66.3694C58.9914 66.3529 58.9894 66.3416 58.9853 66.3355C58.9812 66.3293 58.9719 66.3262 58.9575 66.3262H58.4333V66.1381H58.9298C58.9709 66.1381 58.9914 66.1135 58.9914 66.0641V65.8514C58.9914 65.8319 58.9894 65.819 58.9853 65.8128C58.9822 65.8077 58.9729 65.8051 58.9575 65.8051H58.4333V65.6171ZM58.4333 67.2128C58.4333 67.1439 58.4472 67.0926 58.475 67.0586C58.5027 67.0258 58.5479 67.0093 58.6106 67.0093H58.9267C58.9421 67.0093 58.9606 67.0103 58.9822 67.0124C59.0048 67.0155 59.0269 67.0227 59.0485 67.034C59.0701 67.0463 59.088 67.0664 59.1024 67.0941C59.1168 67.1229 59.124 67.1624 59.124 67.2128V67.6383C59.124 67.6897 59.1168 67.7293 59.1024 67.757C59.088 67.7848 59.0701 67.8043 59.0485 67.8156C59.0269 67.8279 59.0048 67.8351 58.9822 67.8372C58.9606 67.8403 58.9421 67.8418 58.9267 67.8418H58.6307C58.6122 67.8418 58.5916 67.8403 58.569 67.8372C58.5464 67.8351 58.5248 67.8279 58.5043 67.8156C58.4837 67.8033 58.4668 67.7832 58.4534 67.7555C58.44 67.7277 58.4333 67.6887 58.4333 67.6383V67.2128ZM58.5659 67.2714V67.5797C58.5659 67.6301 58.5865 67.6553 58.6276 67.6553H58.9298C58.9709 67.6553 58.9914 67.6301 58.9914 67.5797V67.2714C58.9914 67.2221 58.9709 67.1974 58.9298 67.1974H58.6276C58.5865 67.1974 58.5659 67.2221 58.5659 67.2714ZM58.4333 68.0109H59.124V68.1373L59.0932 68.1989C59.1014 68.2421 59.1086 68.294 59.1148 68.3546C59.1209 68.4153 59.124 68.4847 59.124 68.5628V68.6399C59.124 68.6912 59.1168 68.7308 59.1024 68.7586C59.088 68.7863 59.0701 68.8058 59.0485 68.8171C59.0269 68.8295 59.0048 68.8367 58.9822 68.8387C58.9606 68.8418 58.9421 68.8434 58.9267 68.8434H58.4333V68.6553H58.9298C58.9709 68.6553 58.9914 68.6306 58.9914 68.5813V68.2452C58.9914 68.2257 58.9894 68.2128 58.9853 68.2066C58.9822 68.2015 58.9729 68.1989 58.9575 68.1989H58.4333V68.0109ZM58.4333 69.2893C58.4333 69.2112 58.4498 69.1578 58.4827 69.129C58.5156 69.1002 58.5649 69.0858 58.6307 69.0858H58.9914V68.9594H59.124V69.0241C59.124 69.0437 59.1271 69.0576 59.1333 69.0658C59.1394 69.075 59.1518 69.0817 59.1703 69.0858L59.3352 69.1166V69.2739H59.124V69.5946H58.9914V69.2739H58.6291C58.6034 69.2739 58.5865 69.2801 58.5783 69.2924C58.57 69.3047 58.5659 69.3232 58.5659 69.3479V69.5653L58.4488 69.5807C58.4457 69.5591 58.4421 69.5262 58.438 69.482C58.4349 69.4378 58.4333 69.3895 58.4333 69.3371V69.2893ZM58.4333 69.7181H59.4323V69.9062H59.0932C59.1014 69.9494 59.1086 70.0013 59.1148 70.0619C59.1209 70.1226 59.124 70.1919 59.124 70.27V70.3471C59.124 70.3985 59.1168 70.4381 59.1024 70.4658C59.088 70.4936 59.0701 70.5131 59.0485 70.5244C59.0269 70.5368 59.0048 70.5439 58.9822 70.546C58.9606 70.5491 58.9421 70.5506 58.9267 70.5506H58.4333V70.3625H58.9298C58.9709 70.3625 58.9914 70.3379 58.9914 70.2885V69.9525C58.9914 69.9329 58.9894 69.9201 58.9853 69.9139C58.9822 69.9088 58.9729 69.9062 58.9575 69.9062H58.4333V69.7181ZM58.4333 70.9025C58.4333 70.8337 58.4369 70.7849 58.4441 70.7561C58.4513 70.7273 58.4585 70.7129 58.4657 70.7129L58.5813 70.7592C58.5783 70.789 58.5747 70.8435 58.5706 70.9226C58.5675 71.0028 58.5659 71.1014 58.5659 71.2186V71.2957C58.5659 71.3214 58.5726 71.3373 58.586 71.3435C58.6004 71.3507 58.6194 71.3543 58.643 71.3543C58.6667 71.3543 58.6857 71.3501 58.7001 71.3419C58.7144 71.3347 58.7216 71.3193 58.7216 71.2957V70.9164C58.7216 70.8445 58.735 70.7926 58.7617 70.7607C58.7895 70.7289 58.8306 70.7129 58.8851 70.7129H58.9467C58.9611 70.7129 58.9781 70.7145 58.9976 70.7175C59.0171 70.7206 59.0367 70.7283 59.0562 70.7407C59.0757 70.753 59.0916 70.773 59.104 70.8008C59.1173 70.8285 59.124 70.8671 59.124 70.9164V71.3419C59.124 71.4036 59.1204 71.4473 59.1132 71.473C59.106 71.4987 59.0988 71.5115 59.0916 71.5115L58.976 71.4961C58.9791 71.4663 58.9822 71.4113 58.9853 71.3311C58.9894 71.251 58.9914 71.1528 58.9914 71.0367V70.9596C58.9914 70.9339 58.9842 70.9175 58.9698 70.9103C58.9565 70.9041 58.9406 70.901 58.9221 70.901C58.9025 70.901 58.8861 70.9041 58.8727 70.9103C58.8604 70.9175 58.8542 70.9339 58.8542 70.9596V71.3388C58.8542 71.4087 58.8398 71.4601 58.8111 71.493C58.7823 71.5259 58.7458 71.5423 58.7016 71.5423H58.6106C58.5921 71.5423 58.5726 71.5408 58.5521 71.5377C58.5315 71.5357 58.512 71.5285 58.4935 71.5161C58.476 71.5038 58.4616 71.4838 58.4503 71.456C58.439 71.4283 58.4333 71.3892 58.4333 71.3388V70.9025ZM58.2206 71.7515C58.2144 71.73 58.2175 71.7171 58.2298 71.713C58.2412 71.7099 58.253 71.712 58.2653 71.7192C58.2735 71.7253 58.2869 71.7335 58.3054 71.7438C58.3239 71.7551 58.345 71.7659 58.3686 71.7762C58.3912 71.7865 58.4143 71.7932 58.438 71.7962C58.4421 71.7695 58.4518 71.75 58.4673 71.7377C58.4827 71.7253 58.5063 71.7192 58.5382 71.7192C58.5742 71.7192 58.5993 71.7274 58.6137 71.7438C58.6291 71.7613 58.6368 71.7896 58.6368 71.8286C58.6368 71.8708 58.6276 71.9021 58.6091 71.9227C58.5916 71.9442 58.5623 71.955 58.5212 71.955C58.4914 71.955 58.4601 71.9484 58.4272 71.935C58.3943 71.9227 58.3635 71.9062 58.3347 71.8857C58.3049 71.8651 58.2802 71.843 58.2607 71.8194C58.2401 71.7957 58.2268 71.7731 58.2206 71.7515ZM58.4333 72.5402H59.3398V72.7437H58.4333V72.5402ZM58.4333 73.2983H59.4323V73.4864H59.0932C59.1014 73.5295 59.1086 73.5814 59.1148 73.6421C59.1209 73.7027 59.124 73.7721 59.124 73.8502V73.9273C59.124 73.9787 59.1168 74.0182 59.1024 74.046C59.088 74.0737 59.0701 74.0933 59.0485 74.1046C59.0269 74.1169 59.0048 74.1241 58.9822 74.1262C58.9606 74.1292 58.9421 74.1308 58.9267 74.1308H58.4333V73.9427H58.9298C58.9709 73.9427 58.9914 73.918 58.9914 73.8687V73.5326C58.9914 73.5131 58.9894 73.5002 58.9853 73.4941C58.9822 73.4889 58.9729 73.4864 58.9575 73.4864H58.4333V73.2983ZM58.4333 74.4966C58.4333 74.4277 58.4472 74.3763 58.475 74.3424C58.5027 74.3095 58.5479 74.2931 58.6106 74.2931H58.9267C58.9421 74.2931 58.9606 74.2941 58.9822 74.2962C59.0048 74.2992 59.0269 74.3064 59.0485 74.3177C59.0701 74.3301 59.088 74.3501 59.1024 74.3779C59.1168 74.4067 59.124 74.4462 59.124 74.4966V74.9221C59.124 74.9735 59.1168 75.013 59.1024 75.0408C59.088 75.0685 59.0701 75.0881 59.0485 75.0994C59.0269 75.1117 59.0048 75.1189 58.9822 75.121C58.9606 75.124 58.9421 75.1256 58.9267 75.1256H58.6307C58.6122 75.1256 58.5916 75.124 58.569 75.121C58.5464 75.1189 58.5248 75.1117 58.5043 75.0994C58.4837 75.087 58.4668 75.067 58.4534 75.0392C58.44 75.0115 58.4333 74.9724 58.4333 74.9221V74.4966ZM58.5659 74.5552V74.8635C58.5659 74.9139 58.5865 74.939 58.6276 74.939H58.9298C58.9709 74.939 58.9914 74.9139 58.9914 74.8635V74.5552C58.9914 74.5058 58.9709 74.4812 58.9298 74.4812H58.6276C58.5865 74.4812 58.5659 74.5058 58.5659 74.5552ZM58.1466 75.2946H59.124V75.421L59.104 75.4596C59.1091 75.5058 59.1137 75.5608 59.1178 75.6245C59.122 75.6893 59.124 75.7628 59.124 75.845V75.9236C59.124 75.975 59.1173 76.0146 59.104 76.0423C59.0906 76.0701 59.0737 76.0896 59.0531 76.1009C59.0325 76.1132 59.011 76.1204 58.9883 76.1225C58.9657 76.1256 58.9452 76.1271 58.9267 76.1271H58.6307C58.6153 76.1271 58.5963 76.1256 58.5736 76.1225C58.5521 76.1204 58.5305 76.1132 58.5089 76.1009C58.4873 76.0896 58.4693 76.0701 58.4549 76.0423C58.4405 76.0146 58.4333 75.975 58.4333 75.9236V75.845C58.4333 75.7669 58.4354 75.6975 58.4395 75.6369C58.4436 75.5762 58.4477 75.5248 58.4518 75.4827H58.1466V75.2946ZM58.5659 75.5305V75.865C58.5659 75.8846 58.5711 75.9015 58.5813 75.9159C58.5916 75.9313 58.607 75.939 58.6276 75.939H58.9298C58.9524 75.9401 58.9683 75.9344 58.9776 75.9221C58.9868 75.9108 58.9914 75.8918 58.9914 75.865V75.788C58.9914 75.7222 58.9899 75.6636 58.9868 75.6122C58.9848 75.5618 58.9822 75.5187 58.9791 75.4827H58.6137C58.5911 75.4827 58.5772 75.4848 58.5721 75.4889C58.568 75.494 58.5659 75.5079 58.5659 75.5305ZM58.4333 76.4854C58.4333 76.434 58.44 76.3944 58.4534 76.3667C58.4668 76.3389 58.4837 76.3189 58.5043 76.3066C58.5248 76.2953 58.5464 76.2881 58.569 76.285C58.5916 76.2829 58.6122 76.2819 58.6307 76.2819H58.9267C58.9421 76.2819 58.9606 76.2829 58.9822 76.285C59.0048 76.2881 59.0269 76.2953 59.0485 76.3066C59.0701 76.3189 59.088 76.3389 59.1024 76.3667C59.1168 76.3955 59.124 76.435 59.124 76.4854V76.8169C59.124 76.8847 59.1173 76.9376 59.104 76.9756C59.0916 77.0147 59.0711 77.0419 59.0423 77.0574C59.0135 77.0738 58.975 77.082 58.9267 77.082H58.6985V76.8122C58.6985 76.7197 58.7006 76.6442 58.7047 76.5856C58.7088 76.528 58.7114 76.4895 58.7124 76.47H58.6276C58.5865 76.4689 58.5659 76.4936 58.5659 76.544V76.6226C58.5659 76.6781 58.5664 76.7321 58.5675 76.7845C58.5695 76.8379 58.5716 76.8867 58.5736 76.9309C58.5767 76.9751 58.5793 77.0106 58.5813 77.0373L58.4811 77.099C58.4493 77.099 58.4333 76.9977 58.4333 76.7953V76.4854ZM58.8311 76.47V76.8939H58.9298C58.9503 76.8939 58.9647 76.8914 58.9729 76.8862C58.9812 76.8821 58.9863 76.8688 58.9883 76.8461C58.9904 76.8235 58.9914 76.785 58.9914 76.7305V76.544C58.9914 76.4946 58.9709 76.47 58.9298 76.47H58.8311ZM58.4333 77.8603C58.4333 77.7822 58.4498 77.7288 58.4827 77.7C58.5156 77.6712 58.5649 77.6568 58.6307 77.6568H58.9914V77.5304H59.124V77.5952C59.124 77.6147 59.1271 77.6286 59.1333 77.6368C59.1394 77.646 59.1518 77.6527 59.1703 77.6568L59.3352 77.6877V77.8449H59.124V78.1656H58.9914V77.8449H58.6291C58.6034 77.8449 58.5865 77.8511 58.5783 77.8634C58.57 77.8757 58.5659 77.8942 58.5659 77.9189V78.1363L58.4488 78.1517C58.4457 78.1301 58.4421 78.0972 58.438 78.053C58.4349 78.0088 58.4333 77.9605 58.4333 77.9081V77.8603ZM58.4333 78.4772C58.4333 78.4084 58.4472 78.357 58.475 78.323C58.5027 78.2902 58.5479 78.2737 58.6106 78.2737H58.9267C58.9421 78.2737 58.9606 78.2747 58.9822 78.2768C59.0048 78.2799 59.0269 78.2871 59.0485 78.2984C59.0701 78.3107 59.088 78.3308 59.1024 78.3585C59.1168 78.3873 59.124 78.4269 59.124 78.4772V78.9027C59.124 78.9541 59.1168 78.9937 59.1024 79.0214C59.088 79.0492 59.0701 79.0687 59.0485 79.08C59.0269 79.0923 59.0048 79.0995 58.9822 79.1016C58.9606 79.1047 58.9421 79.1062 58.9267 79.1062H58.6307C58.6122 79.1062 58.5916 79.1047 58.569 79.1016C58.5464 79.0995 58.5248 79.0923 58.5043 79.08C58.4837 79.0677 58.4668 79.0476 58.4534 79.0199C58.44 78.9921 58.4333 78.9531 58.4333 78.9027V78.4772ZM58.5659 78.5358V78.8441C58.5659 78.8945 58.5865 78.9197 58.6276 78.9197H58.9298C58.9709 78.9197 58.9914 78.8945 58.9914 78.8441V78.5358C58.9914 78.4865 58.9709 78.4618 58.9298 78.4618H58.6276C58.5865 78.4618 58.5659 78.4865 58.5659 78.5358ZM58.4333 79.614H59.4108V79.8021H59.1055C59.1107 79.8463 59.1148 79.8982 59.1178 79.9578C59.122 80.0184 59.124 80.0873 59.124 80.1644V80.243C59.124 80.2944 59.1173 80.334 59.104 80.3617C59.0906 80.3895 59.0737 80.409 59.0531 80.4203C59.0325 80.4326 59.011 80.4398 58.9883 80.4419C58.9657 80.445 58.9452 80.4465 58.9267 80.4465H58.6307C58.6153 80.4465 58.5963 80.445 58.5736 80.4419C58.5521 80.4398 58.5305 80.4326 58.5089 80.4203C58.4873 80.409 58.4693 80.3895 58.4549 80.3617C58.4405 80.334 58.4333 80.2944 58.4333 80.243V80.1644C58.4333 80.0791 58.4354 80.0046 58.4395 79.9408C58.4447 79.8771 58.4498 79.8242 58.4549 79.782L58.4333 79.7404V79.614ZM58.5659 79.8499V80.1844C58.5659 80.2337 58.5865 80.2584 58.6276 80.2584H58.9298C58.9524 80.2594 58.9683 80.2548 58.9776 80.2445C58.9868 80.2343 58.9914 80.2142 58.9914 80.1844V80.1073C58.9914 80.0416 58.9899 79.983 58.9868 79.9316C58.9848 79.8812 58.9822 79.8381 58.9791 79.8021H58.6137C58.5921 79.8021 58.5788 79.8041 58.5736 79.8082C58.5685 79.8134 58.5659 79.8273 58.5659 79.8499ZM58.4333 80.8048C58.4333 80.7534 58.44 80.7138 58.4534 80.6861C58.4668 80.6583 58.4837 80.6383 58.5043 80.6259C58.5248 80.6146 58.5464 80.6074 58.569 80.6044C58.5916 80.6023 58.6122 80.6013 58.6307 80.6013H58.9267C58.9421 80.6013 58.9606 80.6023 58.9822 80.6044C59.0048 80.6074 59.0269 80.6146 59.0485 80.6259C59.0701 80.6383 59.088 80.6583 59.1024 80.6861C59.1168 80.7148 59.124 80.7544 59.124 80.8048V81.1362C59.124 81.2041 59.1173 81.257 59.104 81.295C59.0916 81.3341 59.0711 81.3613 59.0423 81.3767C59.0135 81.3932 58.975 81.4014 58.9267 81.4014H58.6985V81.1316C58.6985 81.0391 58.7006 80.9636 58.7047 80.905C58.7088 80.8474 58.7114 80.8089 58.7124 80.7894H58.6276C58.5865 80.7883 58.5659 80.813 58.5659 80.8634V80.942C58.5659 80.9975 58.5664 81.0514 58.5675 81.1039C58.5695 81.1573 58.5716 81.2061 58.5736 81.2503C58.5767 81.2945 58.5793 81.33 58.5813 81.3567L58.4811 81.4184C58.4493 81.4184 58.4333 81.3171 58.4333 81.1146V80.8048ZM58.8311 80.7894V81.2133H58.9298C58.9503 81.2133 58.9647 81.2107 58.9729 81.2056C58.9812 81.2015 58.9863 81.1881 58.9883 81.1655C58.9904 81.1429 58.9914 81.1044 58.9914 81.0499V80.8634C58.9914 80.814 58.9709 80.7894 58.9298 80.7894H58.8311ZM58.4333 81.7608C58.4333 81.7094 58.44 81.6698 58.4534 81.6421C58.4668 81.6143 58.4837 81.5943 58.5043 81.5819C58.5248 81.5706 58.5464 81.5634 58.569 81.5604C58.5916 81.5583 58.6122 81.5573 58.6307 81.5573H58.9267C58.9421 81.5573 58.9606 81.5583 58.9822 81.5604C59.0048 81.5634 59.0269 81.5706 59.0485 81.5819C59.0701 81.5943 59.088 81.6143 59.1024 81.6421C59.1168 81.6709 59.124 81.7104 59.124 81.7608V81.9751C59.124 82.1035 59.1204 82.1945 59.1132 82.2479C59.1071 82.3024 59.1004 82.3297 59.0932 82.3297L58.976 82.2988C58.9781 82.27 58.9801 82.2336 58.9822 82.1894C58.9853 82.1452 58.9873 82.0974 58.9883 82.046C58.9904 81.9956 58.9914 81.9463 58.9914 81.898V81.8194C58.9914 81.77 58.9709 81.7454 58.9298 81.7454H58.6276C58.5865 81.7443 58.5659 81.769 58.5659 81.8194V81.898C58.5659 81.9535 58.5664 82.0074 58.5675 82.0599C58.5695 82.1133 58.5716 82.1621 58.5736 82.2063C58.5767 82.2505 58.5793 82.286 58.5813 82.3127L58.4811 82.3744C58.4493 82.3744 58.4333 82.2731 58.4333 82.0707V81.7608ZM58.4333 82.6701C58.4333 82.6013 58.4472 82.5499 58.475 82.516C58.5027 82.4831 58.5479 82.4666 58.6106 82.4666H58.9267C58.9421 82.4666 58.9606 82.4677 58.9822 82.4697C59.0048 82.4728 59.0269 82.48 59.0485 82.4913C59.0701 82.5036 59.088 82.5237 59.1024 82.5514C59.1168 82.5802 59.124 82.6198 59.124 82.6701V83.0956C59.124 83.147 59.1168 83.1866 59.1024 83.2143C59.088 83.2421 59.0701 83.2616 59.0485 83.2729C59.0269 83.2852 59.0048 83.2924 58.9822 83.2945C58.9606 83.2976 58.9421 83.2991 58.9267 83.2991H58.6307C58.6122 83.2991 58.5916 83.2976 58.569 83.2945C58.5464 83.2924 58.5248 83.2852 58.5043 83.2729C58.4837 83.2606 58.4668 83.2405 58.4534 83.2128C58.44 83.185 58.4333 83.146 58.4333 83.0956V82.6701ZM58.5659 82.7287V83.037C58.5659 83.0874 58.5865 83.1126 58.6276 83.1126H58.9298C58.9709 83.1126 58.9914 83.0874 58.9914 83.037V82.7287C58.9914 82.6794 58.9709 82.6547 58.9298 82.6547H58.6276C58.5865 82.6547 58.5659 82.6794 58.5659 82.7287ZM58.4333 83.4682H59.124V83.5946L59.1055 83.6331C59.1107 83.6629 59.1148 83.6994 59.1178 83.7426C59.122 83.7858 59.124 83.8371 59.124 83.8968V83.9738C59.124 84.0036 59.1199 84.0324 59.1117 84.0602C59.1045 84.0879 59.0937 84.1085 59.0793 84.1218C59.0927 84.1486 59.1035 84.1856 59.1117 84.2328C59.1199 84.2801 59.124 84.3418 59.124 84.4178V84.4949C59.124 84.5463 59.1168 84.5859 59.1024 84.6136C59.088 84.6414 59.0701 84.6609 59.0485 84.6722C59.0269 84.6845 59.0048 84.6917 58.9822 84.6938C58.9606 84.6969 58.9421 84.6984 58.9267 84.6984H58.4333V84.5103H58.9298C58.9709 84.5103 58.9914 84.4857 58.9914 84.4363V84.2205C58.9914 84.2041 58.9894 84.1928 58.9853 84.1866C58.9812 84.1804 58.9719 84.1773 58.9575 84.1773H58.4333V83.9893H58.9298C58.9709 83.9893 58.9914 83.9646 58.9914 83.9153V83.7025C58.9914 83.683 58.9894 83.6701 58.9853 83.664C58.9822 83.6588 58.9729 83.6563 58.9575 83.6563H58.4333V83.4682ZM58.4333 85.0639C58.4333 85.0125 58.44 84.973 58.4534 84.9452C58.4668 84.9175 58.4837 84.8974 58.5043 84.8851C58.5248 84.8738 58.5464 84.8666 58.569 84.8635C58.5916 84.8615 58.6122 84.8604 58.6307 84.8604H58.9267C58.9421 84.8604 58.9606 84.8615 58.9822 84.8635C59.0048 84.8666 59.0269 84.8738 59.0485 84.8851C59.0701 84.8974 59.088 84.9175 59.1024 84.9452C59.1168 84.974 59.124 85.0136 59.124 85.0639V85.3954C59.124 85.4632 59.1173 85.5161 59.104 85.5542C59.0916 85.5932 59.0711 85.6205 59.0423 85.6359C59.0135 85.6523 58.975 85.6605 58.9267 85.6605H58.6985V85.3908C58.6985 85.2983 58.7006 85.2227 58.7047 85.1641C58.7088 85.1066 58.7114 85.068 58.7124 85.0485H58.6276C58.5865 85.0475 58.5659 85.0721 58.5659 85.1225V85.2011C58.5659 85.2566 58.5664 85.3106 58.5675 85.363C58.5695 85.4165 58.5716 85.4653 58.5736 85.5095C58.5767 85.5537 58.5793 85.5891 58.5813 85.6158L58.4811 85.6775C58.4493 85.6775 58.4333 85.5763 58.4333 85.3738V85.0639ZM58.8311 85.0485V85.4725H58.9298C58.9503 85.4725 58.9647 85.4699 58.9729 85.4648C58.9812 85.4606 58.9863 85.4473 58.9883 85.4247C58.9904 85.4021 58.9914 85.3635 58.9914 85.309V85.1225C58.9914 85.0732 58.9709 85.0485 58.9298 85.0485H58.8311ZM58.4333 86.3695C58.4333 86.2914 58.4513 86.2348 58.4873 86.1999C58.5243 86.1649 58.5747 86.1475 58.6384 86.1475C58.7052 86.1475 58.7566 86.1655 58.7926 86.2014C58.8285 86.2384 58.8465 86.2944 58.8465 86.3695V86.4481C58.8465 86.5252 58.8445 86.5946 58.8403 86.6562C58.8362 86.7179 58.8321 86.7688 58.828 86.8089H58.9298C58.939 86.8089 58.9483 86.8078 58.9575 86.8058C58.9678 86.8037 58.976 86.7975 58.9822 86.7873C58.9883 86.777 58.9914 86.7595 58.9914 86.7349V86.6578C58.9914 86.5457 58.9894 86.4522 58.9853 86.3772C58.9822 86.3022 58.9791 86.2513 58.976 86.2246L59.0932 86.2076C59.1076 86.2076 59.1163 86.2467 59.1194 86.3248C59.1225 86.4029 59.124 86.5334 59.124 86.7164V86.7934C59.124 86.8448 59.1168 86.8844 59.1024 86.9121C59.088 86.9399 59.0701 86.9594 59.0485 86.9707C59.0269 86.9831 59.0048 86.9903 58.9822 86.9923C58.9606 86.9954 58.9421 86.9969 58.9267 86.9969H58.4333V86.8705L58.4642 86.8104C58.457 86.7672 58.4498 86.7153 58.4426 86.6547C58.4364 86.594 58.4333 86.5247 58.4333 86.4466V86.3695ZM58.5659 86.4096V86.7626C58.5659 86.7852 58.568 86.7986 58.5721 86.8027C58.5762 86.8068 58.5891 86.8089 58.6106 86.8089H58.7293V86.4096C58.7293 86.3818 58.7227 86.3623 58.7093 86.351C58.6959 86.3407 58.6749 86.3356 58.6461 86.3356C58.6173 86.3356 58.5968 86.3417 58.5844 86.3541C58.5721 86.3664 58.5659 86.3849 58.5659 86.4096ZM56.4333 65.6946H56.9914V65.599H57.1225V65.6946H57.2597C57.2946 65.6946 57.327 65.7013 57.3568 65.7147C57.3866 65.7291 57.4108 65.7522 57.4293 65.784C57.4478 65.8169 57.457 65.8601 57.457 65.9135V65.9906C57.457 66.114 57.4514 66.2024 57.4401 66.2558C57.4288 66.3103 57.419 66.3375 57.4108 66.3375L57.2936 66.2913C57.3008 66.2738 57.3075 66.2424 57.3136 66.1972C57.3208 66.152 57.3244 66.0975 57.3244 66.0338V65.9567C57.3244 65.931 57.3198 65.912 57.3106 65.8997C57.3013 65.8884 57.2854 65.8827 57.2628 65.8827H57.1225V66.2034H56.9914V65.8827H56.4333V65.6946ZM56.4333 66.3683H57.124V66.4947L57.0932 66.5533C57.1076 66.58 57.1189 66.6088 57.1271 66.6396C57.1353 66.6705 57.1394 66.7095 57.1394 66.7568C57.1394 66.8318 57.1312 66.8925 57.1148 66.9387C57.0983 66.986 57.086 67.0174 57.0778 67.0328L56.9436 66.9788C56.9498 66.9665 56.9575 66.9459 56.9668 66.9171C56.977 66.8894 56.9863 66.8565 56.9945 66.8185C57.0027 66.7805 57.0068 66.7388 57.0068 66.6936V66.6766C57.0068 66.6273 56.9971 66.5949 56.9776 66.5795C56.958 66.5651 56.9257 66.5574 56.8804 66.5564H56.4333V66.3683ZM56.4333 67.3287C56.4333 67.2599 56.4472 67.2085 56.475 67.1746C56.5027 67.1417 56.5479 67.1252 56.6106 67.1252H56.9267C56.9421 67.1252 56.9606 67.1263 56.9822 67.1283C57.0048 67.1314 57.0269 67.1386 57.0485 67.1499C57.0701 67.1622 57.088 67.1823 57.1024 67.21C57.1168 67.2388 57.124 67.2784 57.124 67.3287V67.7542C57.124 67.8056 57.1168 67.8452 57.1024 67.8729C57.088 67.9007 57.0701 67.9202 57.0485 67.9315C57.0269 67.9439 57.0048 67.9511 56.9822 67.9531C56.9606 67.9562 56.9421 67.9577 56.9267 67.9577H56.6307C56.6122 67.9577 56.5916 67.9562 56.569 67.9531C56.5464 67.9511 56.5248 67.9439 56.5043 67.9315C56.4837 67.9192 56.4668 67.8992 56.4534 67.8714C56.44 67.8437 56.4333 67.8046 56.4333 67.7542V67.3287ZM56.5659 67.3873V67.6957C56.5659 67.746 56.5865 67.7712 56.6276 67.7712H56.9298C56.9709 67.7712 56.9914 67.746 56.9914 67.6957V67.3873C56.9914 67.338 56.9709 67.3133 56.9298 67.3133H56.6276C56.5865 67.3133 56.5659 67.338 56.5659 67.3873ZM56.4333 68.1268H57.124V68.2532L57.0932 68.3149C57.1014 68.358 57.1086 68.4099 57.1148 68.4706C57.1209 68.5312 57.124 68.6006 57.124 68.6787V68.7558C57.124 68.8072 57.1168 68.8467 57.1024 68.8745C57.088 68.9022 57.0701 68.9218 57.0485 68.9331C57.0269 68.9454 57.0048 68.9526 56.9822 68.9547C56.9606 68.9577 56.9421 68.9593 56.9267 68.9593H56.4333V68.7712H56.9298C56.9709 68.7712 56.9914 68.7465 56.9914 68.6972V68.3611C56.9914 68.3416 56.9894 68.3287 56.9853 68.3226C56.9822 68.3174 56.9729 68.3149 56.9575 68.3149H56.4333V68.1268ZM56.4333 69.4052C56.4333 69.3271 56.4498 69.2737 56.4827 69.2449C56.5156 69.2161 56.5649 69.2017 56.6307 69.2017H56.9914V69.0753H57.124V69.1401C57.124 69.1596 57.1271 69.1735 57.1333 69.1817C57.1394 69.1909 57.1518 69.1976 57.1703 69.2017L57.3352 69.2326V69.3898H57.124V69.7105H56.9914V69.3898H56.6291C56.6034 69.3898 56.5865 69.396 56.5783 69.4083C56.57 69.4207 56.5659 69.4392 56.5659 69.4638V69.6812L56.4488 69.6966C56.4457 69.675 56.4421 69.6421 56.438 69.5979C56.4349 69.5538 56.4333 69.5054 56.4333 69.453V69.4052ZM56.4333 70.0221C56.4333 69.9707 56.44 69.9312 56.4534 69.9034C56.4668 69.8757 56.4837 69.8556 56.5043 69.8433C56.5248 69.832 56.5464 69.8248 56.569 69.8217C56.5916 69.8197 56.6122 69.8186 56.6307 69.8186H56.9267C56.9421 69.8186 56.9606 69.8197 56.9822 69.8217C57.0048 69.8248 57.0269 69.832 57.0485 69.8433C57.0701 69.8556 57.088 69.8757 57.1024 69.9034C57.1168 69.9322 57.124 69.9718 57.124 70.0221V70.3536C57.124 70.4214 57.1173 70.4744 57.104 70.5124C57.0916 70.5514 57.0711 70.5787 57.0423 70.5941C57.0135 70.6105 56.975 70.6188 56.9267 70.6188H56.6985V70.349C56.6985 70.2565 56.7006 70.1809 56.7047 70.1223C56.7088 70.0648 56.7114 70.0262 56.7124 70.0067H56.6276C56.5865 70.0057 56.5659 70.0304 56.5659 70.0807V70.1593C56.5659 70.2148 56.5664 70.2688 56.5675 70.3212C56.5695 70.3747 56.5716 70.4235 56.5736 70.4677C56.5767 70.5119 56.5793 70.5473 56.5813 70.5741L56.4811 70.6357C56.4493 70.6357 56.4333 70.5345 56.4333 70.332V70.0221ZM56.8311 70.0067V70.4307H56.9298C56.9503 70.4307 56.9647 70.4281 56.9729 70.423C56.9812 70.4189 56.9863 70.4055 56.9883 70.3829C56.9904 70.3603 56.9914 70.3217 56.9914 70.2673V70.0807C56.9914 70.0314 56.9709 70.0067 56.9298 70.0067H56.8311ZM56.4333 70.7901H57.124V70.9165L57.0932 70.9781C57.1014 71.0213 57.1086 71.0732 57.1148 71.1339C57.1209 71.1945 57.124 71.2639 57.124 71.342V71.4191C57.124 71.4705 57.1168 71.51 57.1024 71.5378C57.088 71.5655 57.0701 71.5851 57.0485 71.5964C57.0269 71.6087 57.0048 71.6159 56.9822 71.6179C56.9606 71.621 56.9421 71.6226 56.9267 71.6226H56.4333V71.4345H56.9298C56.9709 71.4345 56.9914 71.4098 56.9914 71.3605V71.0244C56.9914 71.0049 56.9894 70.992 56.9853 70.9859C56.9822 70.9807 56.9729 70.9781 56.9575 70.9781H56.4333V70.7901ZM56.4333 71.9884C56.4333 71.937 56.44 71.8974 56.4534 71.8697C56.4668 71.8419 56.4837 71.8219 56.5043 71.8095C56.5248 71.7982 56.5464 71.791 56.569 71.7879C56.5916 71.7859 56.6122 71.7849 56.6307 71.7849H56.9267C56.9421 71.7849 56.9606 71.7859 56.9822 71.7879C57.0048 71.791 57.0269 71.7982 57.0485 71.8095C57.0701 71.8219 57.088 71.8419 57.1024 71.8697C57.1168 71.8984 57.124 71.938 57.124 71.9884V72.067C57.124 72.1615 57.122 72.2376 57.1178 72.2952C57.1148 72.3537 57.1112 72.3984 57.1071 72.4293H57.4108V72.6174H56.4333V72.4909L56.4642 72.4308C56.457 72.3877 56.4498 72.3358 56.4426 72.2751C56.4364 72.2145 56.4333 72.1446 56.4333 72.0654V71.9884ZM56.5659 72.0469V72.3815C56.5659 72.4031 56.5685 72.4164 56.5736 72.4216C56.5788 72.4267 56.5916 72.4293 56.6122 72.4293H56.9806C56.9827 72.3943 56.9848 72.3501 56.9868 72.2967C56.9899 72.2433 56.9914 72.1862 56.9914 72.1256V72.0469C56.9914 71.9976 56.9709 71.9729 56.9298 71.9729H56.6276C56.5865 71.9729 56.5659 71.9976 56.5659 72.0469ZM56.4333 73.3448C56.4333 73.2935 56.44 73.2539 56.4534 73.2261C56.4668 73.1984 56.4837 73.1783 56.5043 73.166C56.5248 73.1547 56.5464 73.1475 56.569 73.1444C56.5916 73.1424 56.6122 73.1413 56.6307 73.1413H56.9267C56.9421 73.1413 56.9606 73.1424 56.9822 73.1444C57.0048 73.1475 57.0269 73.1547 57.0485 73.166C57.0701 73.1783 57.088 73.1984 57.1024 73.2261C57.1168 73.2549 57.124 73.2945 57.124 73.3448V73.6763C57.124 73.7441 57.1173 73.7971 57.104 73.8351C57.0916 73.8742 57.0711 73.9014 57.0423 73.9168C57.0135 73.9333 56.975 73.9415 56.9267 73.9415H56.6985V73.6717C56.6985 73.5792 56.7006 73.5036 56.7047 73.4451C56.7088 73.3875 56.7114 73.349 56.7124 73.3294H56.6276C56.5865 73.3284 56.5659 73.3531 56.5659 73.4034V73.4821C56.5659 73.5376 56.5664 73.5915 56.5675 73.6439C56.5695 73.6974 56.5716 73.7462 56.5736 73.7904C56.5767 73.8346 56.5793 73.87 56.5813 73.8968L56.4811 73.9584C56.4493 73.9584 56.4333 73.8572 56.4333 73.6547V73.3448ZM56.8311 73.3294V73.7534H56.9298C56.9503 73.7534 56.9647 73.7508 56.9729 73.7457C56.9812 73.7416 56.9863 73.7282 56.9883 73.7056C56.9904 73.683 56.9914 73.6444 56.9914 73.59V73.4034C56.9914 73.3541 56.9709 73.3294 56.9298 73.3294H56.8311ZM56.4333 74.1128H57.124V74.2392L57.0932 74.3009C57.1014 74.344 57.1086 74.3959 57.1148 74.4566C57.1209 74.5172 57.124 74.5866 57.124 74.6647V74.7418C57.124 74.7932 57.1168 74.8327 57.1024 74.8605C57.088 74.8882 57.0701 74.9078 57.0485 74.9191C57.0269 74.9314 57.0048 74.9386 56.9822 74.9407C56.9606 74.9437 56.9421 74.9453 56.9267 74.9453H56.4333V74.7572H56.9298C56.9709 74.7572 56.9914 74.7325 56.9914 74.6832V74.3471C56.9914 74.3276 56.9894 74.3147 56.9853 74.3086C56.9822 74.3034 56.9729 74.3009 56.9575 74.3009H56.4333V74.1128ZM56.162 75.6302C56.162 75.5171 56.163 75.4252 56.1651 75.3542C56.1672 75.2833 56.1702 75.2289 56.1743 75.1908C56.1785 75.1528 56.1836 75.1266 56.1898 75.1122C56.1959 75.0988 56.2026 75.0922 56.2098 75.0922L56.3254 75.1384C56.3203 75.1549 56.3141 75.1836 56.3069 75.2247C56.2987 75.2669 56.2946 75.3203 56.2946 75.3851V75.6487C56.2946 75.6867 56.3003 75.7135 56.3116 75.7289C56.3229 75.7453 56.3429 75.7535 56.3717 75.7535H56.4642C56.456 75.7093 56.4488 75.6569 56.4426 75.5963C56.4364 75.5367 56.4333 75.4678 56.4333 75.3897V75.3126C56.4333 75.2612 56.44 75.2217 56.4534 75.1939C56.4668 75.1662 56.4837 75.1461 56.5043 75.1338C56.5248 75.1225 56.5464 75.1153 56.569 75.1122C56.5916 75.1101 56.6122 75.1091 56.6307 75.1091H56.9267C56.9421 75.1091 56.9606 75.1101 56.9822 75.1122C57.0048 75.1153 57.0269 75.1225 57.0485 75.1338C57.0701 75.1461 57.088 75.1662 57.1024 75.1939C57.1168 75.2227 57.124 75.2623 57.124 75.3126V75.3912C57.124 75.4992 57.122 75.5829 57.1178 75.6425C57.1137 75.7032 57.1091 75.7474 57.104 75.7751L57.124 75.8152V75.9416H56.3593C56.3408 75.9416 56.3203 75.9385 56.2977 75.9324C56.2751 75.9272 56.2535 75.9164 56.2329 75.9C56.2124 75.8835 56.1954 75.8599 56.1821 75.8291C56.1687 75.7982 56.162 75.7576 56.162 75.7073V75.6302ZM56.5659 75.3712V75.7057C56.5659 75.7294 56.568 75.7433 56.5721 75.7474C56.5762 75.7515 56.5896 75.7535 56.6122 75.7535H56.9806C56.9827 75.7186 56.9848 75.6744 56.9868 75.621C56.9899 75.5675 56.9914 75.5105 56.9914 75.4498V75.3712C56.9914 75.3219 56.9709 75.2972 56.9298 75.2972H56.6276C56.5865 75.2962 56.5659 75.3208 56.5659 75.3712ZM57.2211 76.2366C57.2211 76.1986 57.2288 76.1709 57.2443 76.1534C57.2597 76.1359 57.2854 76.1272 57.3213 76.1272C57.3583 76.1272 57.384 76.1354 57.3984 76.1518C57.4138 76.1693 57.4216 76.1976 57.4216 76.2366C57.4216 76.2757 57.4138 76.304 57.3984 76.3214C57.384 76.3389 57.3583 76.3476 57.3213 76.3476C57.2864 76.3476 57.2607 76.3389 57.2443 76.3214C57.2288 76.304 57.2211 76.2757 57.2211 76.2366ZM56.4333 76.1426H57.124V76.3307H56.4333V76.1426ZM56.4333 76.5322H57.124V76.6586L57.0932 76.7203C57.1014 76.7634 57.1086 76.8153 57.1148 76.876C57.1209 76.9366 57.124 77.006 57.124 77.0841V77.1612C57.124 77.2126 57.1168 77.2521 57.1024 77.2799C57.088 77.3076 57.0701 77.3272 57.0485 77.3385C57.0269 77.3508 57.0048 77.358 56.9822 77.36C56.9606 77.3631 56.9421 77.3647 56.9267 77.3647H56.4333V77.1766H56.9298C56.9709 77.1766 56.9914 77.1519 56.9914 77.1026V76.7665C56.9914 76.747 56.9894 76.7341 56.9853 76.728C56.9822 76.7228 56.9729 76.7203 56.9575 76.7203H56.4333V76.5322ZM56.4333 77.7305C56.4333 77.6791 56.44 77.6395 56.4534 77.6118C56.4668 77.584 56.4837 77.564 56.5043 77.5516C56.5248 77.5403 56.5464 77.5331 56.569 77.5301C56.5916 77.528 56.6122 77.527 56.6307 77.527H56.9267C56.9421 77.527 56.9606 77.528 56.9822 77.5301C57.0048 77.5331 57.0269 77.5403 57.0485 77.5516C57.0701 77.564 57.088 77.584 57.1024 77.6118C57.1168 77.6405 57.124 77.6801 57.124 77.7305V78.0619C57.124 78.1298 57.1173 78.1827 57.104 78.2207C57.0916 78.2598 57.0711 78.287 57.0423 78.3024C57.0135 78.3189 56.975 78.3271 56.9267 78.3271H56.6985V78.0573C56.6985 77.9648 56.7006 77.8893 56.7047 77.8307C56.7088 77.7731 56.7114 77.7346 56.7124 77.7151H56.6276C56.5865 77.714 56.5659 77.7387 56.5659 77.7891V77.8677C56.5659 77.9232 56.5664 77.9771 56.5675 78.0296C56.5695 78.083 56.5716 78.1318 56.5736 78.176C56.5767 78.2202 56.5793 78.2557 56.5813 78.2824L56.4811 78.3441C56.4493 78.3441 56.4333 78.2428 56.4333 78.0403V77.7305ZM56.8311 77.7151V78.139H56.9298C56.9503 78.139 56.9647 78.1364 56.9729 78.1313C56.9812 78.1272 56.9863 78.1138 56.9883 78.0912C56.9904 78.0686 56.9914 78.0301 56.9914 77.9756V77.7891C56.9914 77.7397 56.9709 77.7151 56.9298 77.7151H56.8311ZM56.4333 78.6865C56.4333 78.6351 56.44 78.5955 56.4534 78.5678C56.4668 78.54 56.4837 78.52 56.5043 78.5076C56.5248 78.4963 56.5464 78.4891 56.569 78.4861C56.5916 78.484 56.6122 78.483 56.6307 78.483H56.9267C56.9421 78.483 56.9606 78.484 56.9822 78.4861C57.0048 78.4891 57.0269 78.4963 57.0485 78.5076C57.0701 78.52 57.088 78.54 57.1024 78.5678C57.1168 78.5966 57.124 78.6361 57.124 78.6865V79.0179C57.124 79.0858 57.1173 79.1387 57.104 79.1767C57.0916 79.2158 57.0711 79.243 57.0423 79.2584C57.0135 79.2749 56.975 79.2831 56.9267 79.2831H56.6985V79.0133C56.6985 78.9208 56.7006 78.8453 56.7047 78.7867C56.7088 78.7291 56.7114 78.6906 56.7124 78.6711H56.6276C56.5865 78.67 56.5659 78.6947 56.5659 78.7451V78.8237C56.5659 78.8792 56.5664 78.9331 56.5675 78.9856C56.5695 79.039 56.5716 79.0878 56.5736 79.132C56.5767 79.1762 56.5793 79.2117 56.5813 79.2384L56.4811 79.3001C56.4493 79.3001 56.4333 79.1988 56.4333 78.9964V78.6865ZM56.8311 78.6711V79.095H56.9298C56.9503 79.095 56.9647 79.0925 56.9729 79.0873C56.9812 79.0832 56.9863 79.0698 56.9883 79.0472C56.9904 79.0246 56.9914 78.9861 56.9914 78.9316V78.7451C56.9914 78.6957 56.9709 78.6711 56.9298 78.6711H56.8311ZM56.4333 79.4544H57.124V79.5808L57.0932 79.6394C57.1076 79.6661 57.1189 79.6949 57.1271 79.7257C57.1353 79.7566 57.1394 79.7956 57.1394 79.8429C57.1394 79.9179 57.1312 79.9786 57.1148 80.0248C57.0983 80.0721 57.086 80.1035 57.0778 80.1189L56.9436 80.0649C56.9498 80.0526 56.9575 80.032 56.9668 80.0032C56.977 79.9755 56.9863 79.9426 56.9945 79.9046C57.0027 79.8666 57.0068 79.8249 57.0068 79.7797V79.7627C57.0068 79.7134 56.9971 79.681 56.9776 79.6656C56.958 79.6512 56.9257 79.6435 56.8804 79.6425H56.4333V79.4544ZM56.4333 80.2752C56.4333 80.2372 56.4411 80.2094 56.4565 80.192C56.4719 80.1745 56.4976 80.1657 56.5336 80.1657C56.5706 80.1657 56.5963 80.174 56.6106 80.1904C56.6261 80.2079 56.6338 80.2362 56.6338 80.2752C56.6338 80.3143 56.6261 80.3425 56.6106 80.36C56.5963 80.3775 56.5706 80.3862 56.5336 80.3862C56.4986 80.3862 56.4729 80.3775 56.4565 80.36C56.4411 80.3425 56.4333 80.3143 56.4333 80.2752Z" fill="white"/>
<defs>
<radialGradient id="paint0_diamond_272_1198" cx="0" cy="0" r="1" gradientUnits="userSpaceOnUse" gradientTransform="translate(87.0707 30.3686) rotate(132.974) scale(69.741 92.0581)">
<stop stop-color="#BFBEBE"/>
<stop offset="1" stop-color="#2D2D2D"/>
</radialGradient>
<radialGradient id="paint1_diamond_272_1198" cx="0" cy="0" r="1" gradientUnits="userSpaceOnUse" gradientTransform="translate(144.737 72.9718) rotate(180) scale(72.4879 95.6841)">
<stop stop-color="#BFBEBE"/>
<stop offset="0.51" stop-color="#363636"/>
</radialGradient>
<linearGradient id="paint2_linear_272_1198" x1="72.6155" y1="0.483887" x2="72.6155" y2="144.728" gradientUnits="userSpaceOnUse">
<stop offset="0.235"/>
<stop offset="0.499748" stop-color="white"/>
<stop offset="0.87"/>
</linearGradient>
<radialGradient id="paint3_diamond_272_1198" cx="0" cy="0" r="1" gradientUnits="userSpaceOnUse" gradientTransform="translate(86.1673 33.0086) rotate(132.974) scale(65.3821 86.3044)">
<stop stop-color="#BFBEBE"/>
<stop offset="1" stop-color="#2D2D2D"/>
</radialGradient>
<radialGradient id="paint4_diamond_272_1198" cx="0" cy="0" r="1" gradientUnits="userSpaceOnUse" gradientTransform="translate(140.23 72.9491) rotate(180) scale(67.9574 89.7038)">
<stop stop-color="#BFBEBE"/>
<stop offset="0.51" stop-color="#363636"/>
</radialGradient>
<linearGradient id="paint5_linear_272_1198" x1="72.6155" y1="4.9917" x2="72.6155" y2="140.22" gradientUnits="userSpaceOnUse">
<stop offset="0.235"/>
<stop offset="0.499748" stop-color="white"/>
<stop offset="0.87"/>
</linearGradient>
<radialGradient id="paint6_diamond_272_1198" cx="0" cy="0" r="1" gradientUnits="userSpaceOnUse" gradientTransform="translate(109.133 85.1036) rotate(-137.026) scale(60.2969 79.5919)">
<stop stop-color="#BFBEBE"/>
<stop offset="1" stop-color="#2D2D2D"/>
</radialGradient>
<radialGradient id="paint7_diamond_272_1198" cx="0" cy="0" r="1" gradientUnits="userSpaceOnUse" gradientTransform="translate(72.2989 134.961) rotate(-90) scale(62.6719 82.7269)">
<stop stop-color="#BFBEBE"/>
<stop offset="0.51" stop-color="#363636"/>
</radialGradient>
<linearGradient id="paint8_linear_272_1198" x1="134.971" y1="72.6058" x2="10.2601" y2="72.6058" gradientUnits="userSpaceOnUse">
<stop offset="0.235"/>
<stop offset="0.499748" stop-color="white"/>
<stop offset="0.87"/>
</linearGradient>
<radialGradient id="paint9_diamond_272_1198" cx="0" cy="0" r="1" gradientUnits="userSpaceOnUse" gradientTransform="translate(15.519 72.8956) scale(56.8066 74.9848)">
<stop stop-color="#BFBEBE"/>
<stop offset="1"/>
</radialGradient>
<radialGradient id="paint10_diamond_272_1198" cx="0" cy="0" r="1" gradientUnits="userSpaceOnUse" gradientTransform="translate(129.712 72.8956) rotate(180) scale(57.3863 75.7499)">
<stop stop-color="#BFBEBE"/>
<stop offset="1"/>
</radialGradient>
<linearGradient id="paint11_linear_272_1198" x1="89.6445" y1="15.5093" x2="55.5865" y2="129.702" gradientUnits="userSpaceOnUse">
<stop offset="0.199226" stop-color="#7A7A7A"/>
<stop offset="0.499748" stop-color="white" stop-opacity="0.66"/>
<stop offset="0.8019" stop-color="#7A7A7A"/>
</linearGradient>
<radialGradient id="paint12_diamond_272_1198" cx="0" cy="0" r="1" gradientUnits="userSpaceOnUse" gradientTransform="translate(20.0267 72.8729) scale(52.3219 69.0649)">
<stop stop-color="#BFBEBE"/>
<stop offset="1"/>
</radialGradient>
<radialGradient id="paint13_diamond_272_1198" cx="0" cy="0" r="1" gradientUnits="userSpaceOnUse" gradientTransform="translate(125.204 72.8729) rotate(180) scale(52.8558 69.7696)">
<stop stop-color="#BFBEBE"/>
<stop offset="1"/>
</radialGradient>
<linearGradient id="paint14_linear_272_1198" x1="82.9355" y1="20.0171" x2="62.2955" y2="125.195" gradientUnits="userSpaceOnUse">
<stop offset="0.199226" stop-color="#7A7A7A"/>
<stop offset="0.499748" stop-color="white" stop-opacity="0.66"/>
<stop offset="0.8019" stop-color="#7A7A7A"/>
</linearGradient>
<radialGradient id="paint15_diamond_272_1198" cx="0" cy="0" r="1" gradientUnits="userSpaceOnUse" gradientTransform="translate(23.783 72.8538) scale(48.5846 64.1317)">
<stop stop-color="#BFBEBE"/>
<stop offset="1"/>
</radialGradient>
<radialGradient id="paint16_diamond_272_1198" cx="0" cy="0" r="1" gradientUnits="userSpaceOnUse" gradientTransform="translate(121.448 72.8538) rotate(180) scale(49.0804 64.7861)">
<stop stop-color="#BFBEBE"/>
<stop offset="1"/>
</radialGradient>
<linearGradient id="paint17_linear_272_1198" x1="61.0714" y1="23.7734" x2="84.1596" y2="121.438" gradientUnits="userSpaceOnUse">
<stop offset="0.199226" stop-color="#7A7A7A"/>
<stop offset="0.499748" stop-color="white" stop-opacity="0.66"/>
<stop offset="0.8019" stop-color="#7A7A7A"/>
</linearGradient>
<radialGradient id="paint18_diamond_272_1198" cx="0" cy="0" r="1" gradientUnits="userSpaceOnUse" gradientTransform="translate(28.2907 72.8306) scale(44.0999 58.2118)">
<stop stop-color="#BFBEBE"/>
<stop offset="1"/>
</radialGradient>
<radialGradient id="paint19_diamond_272_1198" cx="0" cy="0" r="1" gradientUnits="userSpaceOnUse" gradientTransform="translate(116.94 72.8306) rotate(180) scale(44.5499 58.8058)">
<stop stop-color="#BFBEBE"/>
<stop offset="1"/>
</radialGradient>
<linearGradient id="paint20_linear_272_1198" x1="80.5954" y1="28.2808" x2="64.6358" y2="116.931" gradientUnits="userSpaceOnUse">
<stop offset="0.199226" stop-color="#7A7A7A"/>
<stop offset="0.499748" stop-color="white" stop-opacity="0.66"/>
<stop offset="0.8019" stop-color="#7A7A7A"/>
</linearGradient>
<radialGradient id="paint21_diamond_272_1198" cx="0" cy="0" r="1" gradientUnits="userSpaceOnUse" gradientTransform="translate(72.4096 32.0371) rotate(90) scale(40.3626 53.2786)">
<stop stop-color="#BFBEBE"/>
<stop offset="1"/>
</radialGradient>
<radialGradient id="paint22_diamond_272_1198" cx="0" cy="0" r="1" gradientUnits="userSpaceOnUse" gradientTransform="translate(72.4096 113.174) rotate(-90) scale(40.7745 53.8223)">
<stop stop-color="#BFBEBE"/>
<stop offset="1"/>
</radialGradient>
<linearGradient id="paint23_linear_272_1198" x1="113.184" y1="66.5559" x2="32.047" y2="78.6553" gradientUnits="userSpaceOnUse">
<stop offset="0.199226" stop-color="#7A7A7A"/>
<stop offset="0.499748" stop-color="white" stop-opacity="0.66"/>
<stop offset="0.8019" stop-color="#7A7A7A"/>
</linearGradient>
<radialGradient id="paint24_diamond_272_1198" cx="0" cy="0" r="1" gradientUnits="userSpaceOnUse" gradientTransform="translate(36.5544 72.7889) scale(35.8779 47.3588)">
<stop stop-color="#BFBEBE"/>
<stop offset="1"/>
</radialGradient>
<radialGradient id="paint25_diamond_272_1198" cx="0" cy="0" r="1" gradientUnits="userSpaceOnUse" gradientTransform="translate(108.676 72.7889) rotate(180) scale(36.244 47.842)">
<stop stop-color="#BFBEBE"/>
<stop offset="1" stop-color="#1B1B1B"/>
</radialGradient>
<linearGradient id="paint26_linear_272_1198" x1="77.2957" y1="36.5449" x2="67.935" y2="108.667" gradientUnits="userSpaceOnUse">
<stop offset="0.199226" stop-color="#7A7A7A"/>
<stop offset="0.499748" stop-color="white" stop-opacity="0.66"/>
<stop offset="0.8019" stop-color="#7A7A7A"/>
</linearGradient>
<radialGradient id="paint27_diamond_272_1198" cx="0" cy="0" r="1" gradientUnits="userSpaceOnUse" gradientTransform="translate(91.534 79.0806) rotate(-137.026) scale(31.2381 41.2343)">
<stop stop-color="#BFBEBE"/>
<stop offset="1" stop-color="#2D2D2D"/>
</radialGradient>
<radialGradient id="paint28_diamond_272_1198" cx="0" cy="0" r="1" gradientUnits="userSpaceOnUse" gradientTransform="translate(72.4514 104.91) rotate(-90) scale(32.4686 42.8585)">
<stop stop-color="#BFBEBE"/>
<stop offset="0.51" stop-color="#363636"/>
</radialGradient>
<linearGradient id="paint29_linear_272_1198" x1="104.92" y1="72.6058" x2="40.3108" y2="72.6058" gradientUnits="userSpaceOnUse">
<stop offset="0.235"/>
<stop offset="0.499748" stop-color="white"/>
<stop offset="0.87"/>
</linearGradient>
<radialGradient id="paint30_diamond_272_1198" cx="0" cy="0" r="1" gradientUnits="userSpaceOnUse" gradientTransform="translate(89.3344 78.3277) rotate(-137.026) scale(27.6058 36.4397)">
<stop stop-color="#BFBEBE"/>
<stop offset="1" stop-color="#2D2D2D"/>
</radialGradient>
<radialGradient id="paint31_diamond_272_1198" cx="0" cy="0" r="1" gradientUnits="userSpaceOnUse" gradientTransform="translate(72.4707 101.154) rotate(-90) scale(28.6931 37.8749)">
<stop stop-color="#BFBEBE"/>
<stop offset="0.51" stop-color="#363636"/>
</radialGradient>
<linearGradient id="paint32_linear_272_1198" x1="101.164" y1="72.6058" x2="44.0674" y2="72.6058" gradientUnits="userSpaceOnUse">
<stop offset="0.235"/>
<stop offset="0.499748" stop-color="white"/>
<stop offset="0.87"/>
</linearGradient>
</defs>
</svg>
