<svg width="148" height="148" viewBox="0 0 148 148" fill="none" xmlns="http://www.w3.org/2000/svg">
<circle cx="73.8782" cy="74.1218" r="71.9575" transform="rotate(90 73.8782 74.1218)" stroke="url(#paint0_diamond_272_1198)" stroke-opacity="0.5" stroke-width="0.328645"/>
<circle cx="73.8782" cy="74.1218" r="71.9575" transform="rotate(90 73.8782 74.1218)" stroke="url(#paint1_diamond_272_1198)" stroke-opacity="0.5" stroke-width="0.328645"/>
<circle cx="73.8782" cy="74.1218" r="71.9575" transform="rotate(90 73.8782 74.1218)" stroke="url(#paint2_linear_272_1198)" stroke-opacity="0.37" stroke-width="0.328645"/>
<circle cx="73.8782" cy="74.122" r="67.4499" transform="rotate(90 73.8782 74.122)" stroke="url(#paint3_diamond_272_1198)" stroke-opacity="0.5" stroke-width="0.328645"/>
<circle cx="73.8782" cy="74.122" r="67.4499" transform="rotate(90 73.8782 74.122)" stroke="url(#paint4_diamond_272_1198)" stroke-opacity="0.5" stroke-width="0.328645"/>
<circle cx="73.8782" cy="74.122" r="67.4499" transform="rotate(90 73.8782 74.122)" stroke="url(#paint5_linear_272_1198)" stroke-opacity="0.37" stroke-width="0.328645"/>
<path d="M73.8781 136.313C39.5309 136.313 11.6871 108.469 11.6871 74.1219C11.6871 39.7748 39.5309 11.9309 73.8781 11.9309C108.225 11.9309 136.069 39.7748 136.069 74.1219C136.069 108.469 108.225 136.313 73.8781 136.313Z" stroke="url(#paint6_diamond_272_1198)" stroke-opacity="0.5" stroke-width="0.328645"/>
<path d="M73.8781 136.313C39.5309 136.313 11.6871 108.469 11.6871 74.1219C11.6871 39.7748 39.5309 11.9309 73.8781 11.9309C108.225 11.9309 136.069 39.7748 136.069 74.1219C136.069 108.469 108.225 136.313 73.8781 136.313Z" stroke="url(#paint7_diamond_272_1198)" stroke-opacity="0.5" stroke-width="0.328645"/>
<path d="M73.8781 136.313C39.5309 136.313 11.6871 108.469 11.6871 74.1219C11.6871 39.7748 39.5309 11.9309 73.8781 11.9309C108.225 11.9309 136.069 39.7748 136.069 74.1219C136.069 108.469 108.225 136.313 73.8781 136.313Z" stroke="url(#paint8_linear_272_1198)" stroke-opacity="0.37" stroke-width="0.328645"/>
<circle cx="73.8782" cy="74.1218" r="56.9321" transform="rotate(90 73.8782 74.1218)" stroke="url(#paint9_diamond_272_1198)" stroke-opacity="0.5" stroke-width="0.328645"/>
<circle cx="73.8782" cy="74.1218" r="56.9321" transform="rotate(90 73.8782 74.1218)" stroke="url(#paint10_diamond_272_1198)" stroke-opacity="0.5" stroke-width="0.328645"/>
<circle cx="73.8782" cy="74.1218" r="56.9321" transform="rotate(90 73.8782 74.1218)" stroke="url(#paint11_linear_272_1198)" stroke-opacity="0.37" stroke-width="0.328645"/>
<circle cx="73.8782" cy="74.122" r="52.4245" transform="rotate(90 73.8782 74.122)" stroke="url(#paint12_diamond_272_1198)" stroke-opacity="0.5" stroke-width="0.328645"/>
<circle cx="73.8782" cy="74.122" r="52.4245" transform="rotate(90 73.8782 74.122)" stroke="url(#paint13_diamond_272_1198)" stroke-opacity="0.5" stroke-width="0.328645"/>
<circle cx="73.8782" cy="74.122" r="52.4245" transform="rotate(90 73.8782 74.122)" stroke="url(#paint14_linear_272_1198)" stroke-opacity="0.37" stroke-width="0.328645"/>
<circle cx="73.8782" cy="74.122" r="48.6682" transform="rotate(90 73.8782 74.122)" stroke="url(#paint15_diamond_272_1198)" stroke-opacity="0.5" stroke-width="0.328645"/>
<circle cx="73.8782" cy="74.122" r="48.6682" transform="rotate(90 73.8782 74.122)" stroke="url(#paint16_diamond_272_1198)" stroke-opacity="0.5" stroke-width="0.328645"/>
<circle cx="73.8782" cy="74.122" r="48.6682" transform="rotate(90 73.8782 74.122)" stroke="url(#paint17_linear_272_1198)" stroke-opacity="0.37" stroke-width="0.328645"/>
<circle cx="73.8783" cy="74.1217" r="44.1605" transform="rotate(90 73.8783 74.1217)" stroke="url(#paint18_diamond_272_1198)" stroke-opacity="0.5" stroke-width="0.328645"/>
<circle cx="73.8783" cy="74.1217" r="44.1605" transform="rotate(90 73.8783 74.1217)" stroke="url(#paint19_diamond_272_1198)" stroke-opacity="0.5" stroke-width="0.328645"/>
<circle cx="73.8783" cy="74.1217" r="44.1605" transform="rotate(90 73.8783 74.1217)" stroke="url(#paint20_linear_272_1198)" stroke-opacity="0.37" stroke-width="0.328645"/>
<path d="M73.8783 114.526C51.5636 114.526 33.4741 96.4364 33.4741 74.1217C33.4741 51.8071 51.5636 33.7175 73.8783 33.7175C96.1929 33.7175 114.282 51.8071 114.282 74.1217C114.282 96.4364 96.1929 114.526 73.8783 114.526Z" stroke="url(#paint21_diamond_272_1198)" stroke-opacity="0.5" stroke-width="0.328645"/>
<path d="M73.8783 114.526C51.5636 114.526 33.4741 96.4364 33.4741 74.1217C33.4741 51.8071 51.5636 33.7175 73.8783 33.7175C96.1929 33.7175 114.282 51.8071 114.282 74.1217C114.282 96.4364 96.1929 114.526 73.8783 114.526Z" stroke="url(#paint22_diamond_272_1198)" stroke-opacity="0.5" stroke-width="0.328645"/>
<path d="M73.8783 114.526C51.5636 114.526 33.4741 96.4364 33.4741 74.1217C33.4741 51.8071 51.5636 33.7175 73.8783 33.7175C96.1929 33.7175 114.282 51.8071 114.282 74.1217C114.282 96.4364 96.1929 114.526 73.8783 114.526Z" stroke="url(#paint23_linear_272_1198)" stroke-opacity="0.37" stroke-width="0.328645"/>
<circle cx="73.8781" cy="74.1219" r="35.8966" transform="rotate(90 73.8781 74.1219)" stroke="url(#paint24_diamond_272_1198)" stroke-opacity="0.5" stroke-width="0.328645"/>
<circle cx="73.8781" cy="74.1219" r="35.8966" transform="rotate(90 73.8781 74.1219)" stroke="url(#paint25_diamond_272_1198)" stroke-opacity="0.5" stroke-width="0.328645"/>
<circle cx="73.8781" cy="74.1219" r="35.8966" transform="rotate(90 73.8781 74.1219)" stroke="url(#paint26_linear_272_1198)" stroke-opacity="0.37" stroke-width="0.328645"/>
<path d="M73.878 106.262C56.1275 106.262 41.7378 91.8725 41.7378 74.122C41.7378 56.3714 56.1275 41.9817 73.878 41.9817C91.6286 41.9817 106.018 56.3714 106.018 74.122C106.018 91.8725 91.6286 106.262 73.878 106.262Z" stroke="url(#paint27_diamond_272_1198)" stroke-opacity="0.5" stroke-width="0.328645"/>
<path d="M73.878 106.262C56.1275 106.262 41.7378 91.8725 41.7378 74.122C41.7378 56.3714 56.1275 41.9817 73.878 41.9817C91.6286 41.9817 106.018 56.3714 106.018 74.122C106.018 91.8725 91.6286 106.262 73.878 106.262Z" stroke="url(#paint28_diamond_272_1198)" stroke-opacity="0.5" stroke-width="0.328645"/>
<path d="M73.878 106.262C56.1275 106.262 41.7378 91.8725 41.7378 74.122C41.7378 56.3714 56.1275 41.9817 73.878 41.9817C91.6286 41.9817 106.018 56.3714 106.018 74.122C106.018 91.8725 91.6286 106.262 73.878 106.262Z" stroke="url(#paint29_linear_272_1198)" stroke-opacity="0.37" stroke-width="0.328645"/>
<path d="M73.8783 102.506C58.2023 102.506 45.4944 89.798 45.4944 74.122C45.4944 58.446 58.2023 45.7381 73.8783 45.7381C89.5543 45.7381 102.262 58.446 102.262 74.122C102.262 89.798 89.5543 102.506 73.8783 102.506Z" stroke="url(#paint30_diamond_272_1198)" stroke-opacity="0.5" stroke-width="0.328645"/>
<path d="M73.8783 102.506C58.2023 102.506 45.4944 89.798 45.4944 74.122C45.4944 58.446 58.2023 45.7381 73.8783 45.7381C89.5543 45.7381 102.262 58.446 102.262 74.122C102.262 89.798 89.5543 102.506 73.8783 102.506Z" stroke="url(#paint31_diamond_272_1198)" stroke-opacity="0.5" stroke-width="0.328645"/>
<path d="M73.8783 102.506C58.2023 102.506 45.4944 89.798 45.4944 74.122C45.4944 58.446 58.2023 45.7381 73.8783 45.7381C89.5543 45.7381 102.262 58.446 102.262 74.122C102.262 89.798 89.5543 102.506 73.8783 102.506Z" stroke="url(#paint32_linear_272_1198)" stroke-opacity="0.37" stroke-width="0.328645"/>
<path fill-rule="evenodd" clip-rule="evenodd" d="M50.5975 74.516C50.5975 87.5859 61.1927 98.181 74.2625 98.181C87.3323 98.181 97.9275 87.5859 97.9275 74.516C97.9275 61.4462 87.3323 50.8511 74.2625 50.8511C61.1927 50.8511 50.5975 61.4462 50.5975 74.516ZM72.0668 74.516C72.0668 75.7287 73.0499 76.7118 74.2625 76.7118C75.4752 76.7118 76.4582 75.7287 76.4582 74.516C76.4582 73.3034 75.4752 72.3203 74.2625 72.3203C73.0499 72.3203 72.0668 73.3034 72.0668 74.516Z" fill="#A5A5A5"/>
<circle cx="74.2628" cy="74.5161" r="25.5316" transform="rotate(90 74.2628 74.5161)" stroke="black" stroke-width="3.77942"/>
<path fill-rule="evenodd" clip-rule="evenodd" d="M50.5953 74.5185C50.5953 87.5883 61.1905 98.1835 74.2603 98.1835C87.3301 98.1835 97.9253 87.5883 97.9253 74.5185C97.9253 61.4487 87.3301 50.8535 74.2603 50.8535C61.1905 50.8535 50.5953 61.4487 50.5953 74.5185ZM72.0646 74.5185C72.0646 75.7312 73.0477 76.7142 74.2603 76.7142C75.473 76.7142 76.456 75.7312 76.456 74.5185C76.456 73.3058 75.473 72.3228 74.2603 72.3228C73.0477 72.3228 72.0646 73.3058 72.0646 74.5185Z" fill="#9586D6"/>
<circle cx="74.2482" cy="74.5306" r="9.07161" transform="rotate(90 74.2482 74.5306)" stroke="white" stroke-width="0.0770833"/>
<path d="M86.446 60.2318H88.0777V60.5981H87.4006V61.6859H88.0777V62.0522H86.446V61.6859H87.1342V60.5981H86.446V60.2318ZM86.446 62.7804C86.446 62.6879 86.4581 62.6166 86.4821 62.5667C86.5062 62.5167 86.5367 62.4807 86.5737 62.4585C86.6107 62.4381 86.6495 62.4252 86.6902 62.4196C86.7309 62.4159 86.7679 62.4141 86.8012 62.4141H87.334C87.3618 62.4141 87.3951 62.4159 87.4339 62.4196C87.4746 62.4252 87.5144 62.4381 87.5533 62.4585C87.5921 62.4807 87.6245 62.5167 87.6504 62.5667C87.6763 62.6185 87.6892 62.6897 87.6892 62.7804V63.377C87.6892 63.4991 87.6772 63.5944 87.6532 63.6628C87.631 63.7331 87.594 63.7821 87.5422 63.8099C87.4904 63.8395 87.421 63.8543 87.334 63.8543H86.9233V63.3687C86.9233 63.2022 86.927 63.0662 86.9344 62.9607C86.9418 62.8571 86.9465 62.7878 86.9483 62.7526H86.7957C86.7217 62.7508 86.6847 62.7952 86.6847 62.8858V63.0273C86.6847 63.1272 86.6856 63.2244 86.6875 63.3187C86.6912 63.4149 86.6949 63.5028 86.6986 63.5823C86.7041 63.6619 86.7087 63.7257 86.7124 63.7738L86.5321 63.8848C86.4747 63.8848 86.446 63.7026 86.446 63.3381V62.7804ZM87.162 62.7526V63.5157H87.3396C87.3766 63.5157 87.4025 63.5111 87.4173 63.5019C87.4321 63.4945 87.4413 63.4704 87.445 63.4297C87.4487 63.389 87.4506 63.3196 87.4506 63.2216V62.8858C87.4506 62.797 87.4136 62.7526 87.3396 62.7526H87.162ZM86.446 64.1626H87.6892V64.3902L87.6337 64.4956C87.6596 64.5437 87.68 64.5955 87.6948 64.651C87.7096 64.7065 87.717 64.7768 87.717 64.8619C87.717 64.997 87.7022 65.1061 87.6726 65.1894C87.643 65.2745 87.6208 65.3309 87.606 65.3587L87.3646 65.2615C87.3757 65.2393 87.3895 65.2023 87.4062 65.1505C87.4247 65.1006 87.4413 65.0414 87.4561 64.9729C87.4709 64.9045 87.4783 64.8296 87.4783 64.7482V64.7176C87.4783 64.6288 87.4608 64.5706 87.4256 64.5428C87.3905 64.5169 87.3322 64.503 87.2508 64.5012H86.446V64.1626ZM86.446 65.8914C86.446 65.7989 86.4581 65.7277 86.4821 65.6777C86.5062 65.6278 86.5367 65.5917 86.5737 65.5695C86.6107 65.5491 86.6495 65.5362 86.6902 65.5306C86.7309 65.5269 86.7679 65.5251 86.8012 65.5251H87.334C87.3618 65.5251 87.3951 65.5269 87.4339 65.5306C87.4746 65.5362 87.5144 65.5491 87.5533 65.5695C87.5921 65.5917 87.6245 65.6278 87.6504 65.6777C87.6763 65.7295 87.6892 65.8007 87.6892 65.8914V66.488C87.6892 66.6101 87.6772 66.7054 87.6532 66.7738C87.631 66.8441 87.594 66.8932 87.5422 66.9209C87.4904 66.9505 87.421 66.9653 87.334 66.9653H86.9233V66.4797C86.9233 66.3132 86.927 66.1772 86.9344 66.0718C86.9418 65.9682 86.9465 65.8988 86.9483 65.8636H86.7957C86.7217 65.8618 86.6847 65.9062 86.6847 65.9968V66.1384C86.6847 66.2383 86.6856 66.3354 86.6875 66.4297C86.6912 66.5259 86.6949 66.6138 86.6986 66.6934C86.7041 66.7729 86.7087 66.8367 86.7124 66.8848L86.5321 66.9958C86.4747 66.9958 86.446 66.8136 86.446 66.4492V65.8914ZM87.162 65.8636V66.6268H87.3396C87.3766 66.6268 87.4025 66.6221 87.4173 66.6129C87.4321 66.6055 87.4413 66.5814 87.445 66.5407C87.4487 66.5 87.4506 66.4307 87.4506 66.3326V65.9968C87.4506 65.908 87.4136 65.8636 87.3396 65.8636H87.162ZM87.8641 68.0804C87.8641 68.012 87.8779 67.962 87.9057 67.9306C87.9334 67.8991 87.9797 67.8834 88.0444 67.8834C88.111 67.8834 88.1573 67.8982 88.1832 67.9278C88.2109 67.9593 88.2248 68.0101 88.2248 68.0804C88.2248 68.1507 88.2109 68.2016 88.1832 68.2331C88.1573 68.2645 88.111 68.2802 88.0444 68.2802C87.9815 68.2802 87.9353 68.2645 87.9057 68.2331C87.8779 68.2016 87.8641 68.1507 87.8641 68.0804ZM86.446 67.9112H87.6892V68.2497H86.446V67.9112ZM86.446 68.926C86.446 68.802 86.4525 68.7141 86.4655 68.6623C86.4784 68.6105 86.4914 68.5846 86.5043 68.5846L86.7124 68.6679C86.7069 68.7215 86.7004 68.8196 86.693 68.962C86.6875 69.1063 86.6847 69.2839 86.6847 69.4948V69.6336C86.6847 69.6798 86.6967 69.7085 86.7208 69.7196C86.7467 69.7326 86.7809 69.739 86.8234 69.739C86.866 69.739 86.9002 69.7316 86.9261 69.7168C86.952 69.7039 86.965 69.6761 86.965 69.6336V68.9509C86.965 68.8214 86.989 68.728 87.0371 68.6707C87.0871 68.6133 87.1611 68.5846 87.2591 68.5846H87.3701C87.396 68.5846 87.4265 68.5874 87.4617 68.593C87.4968 68.5985 87.532 68.6124 87.5671 68.6346C87.6023 68.6568 87.631 68.6929 87.6532 68.7428C87.6772 68.7928 87.6892 68.8621 87.6892 68.9509V69.7168C87.6892 69.8278 87.6828 69.9065 87.6698 69.9527C87.6569 69.999 87.6439 70.0221 87.631 70.0221L87.4228 69.9943C87.4284 69.9407 87.4339 69.8417 87.4395 69.6974C87.4469 69.5531 87.4506 69.3764 87.4506 69.1674V69.0286C87.4506 68.9824 87.4376 68.9528 87.4117 68.9398C87.3877 68.9287 87.359 68.9232 87.3257 68.9232C87.2906 68.9232 87.261 68.9287 87.2369 68.9398C87.2147 68.9528 87.2036 68.9824 87.2036 69.0286V69.7113C87.2036 69.8371 87.1777 69.9296 87.1259 69.9888C87.0741 70.048 87.0084 70.0776 86.9289 70.0776H86.7652C86.7319 70.0776 86.6967 70.0748 86.6597 70.0693C86.6227 70.0656 86.5876 70.0526 86.5543 70.0304C86.5228 70.0082 86.4969 69.9721 86.4766 69.9222C86.4562 69.8722 86.446 69.8019 86.446 69.7113V68.926ZM86.446 70.9917H87.6892V71.2193L87.6559 71.2887C87.6652 71.3423 87.6726 71.408 87.6781 71.4857C87.6855 71.5634 87.6892 71.6559 87.6892 71.7632V71.9019C87.6892 71.9556 87.6818 72.0074 87.667 72.0573C87.6541 72.1073 87.6347 72.1443 87.6088 72.1683C87.6328 72.2164 87.6522 72.283 87.667 72.3681C87.6818 72.4532 87.6892 72.5642 87.6892 72.7011V72.8399C87.6892 72.9324 87.6763 73.0036 87.6504 73.0536C87.6245 73.1035 87.5921 73.1387 87.5533 73.159C87.5144 73.1812 87.4746 73.1942 87.4339 73.1979C87.3951 73.2034 87.3618 73.2062 87.334 73.2062H86.446V72.8676H87.3396C87.4136 72.8676 87.4506 72.8232 87.4506 72.7344V72.3459C87.4506 72.3163 87.4469 72.296 87.4395 72.2849C87.4321 72.2738 87.4154 72.2682 87.3895 72.2682H86.446V71.9297H87.3396C87.4136 71.9297 87.4506 71.8853 87.4506 71.7965V71.4135C87.4506 71.3784 87.4469 71.3553 87.4395 71.3442C87.4339 71.3349 87.4173 71.3303 87.3895 71.3303H86.446V70.9917ZM85.9021 73.6421C85.9021 73.5533 85.9123 73.4719 85.9327 73.3979C85.953 73.3239 85.9715 73.2739 85.9882 73.248L86.2379 73.3313C86.225 73.3627 86.2102 73.4071 86.1935 73.4645C86.175 73.5237 86.1658 73.5903 86.1658 73.6643V73.6948C86.1658 73.7799 86.1917 73.8548 86.2435 73.9196C86.2934 73.9862 86.3609 74.0371 86.446 74.0722V73.9335L87.6892 73.3896V73.7781L86.9233 74.0972L86.7235 74.1693V74.1971L86.9233 74.2692L87.6892 74.5939V74.9713L87.52 74.9269C87.4478 74.8918 87.3646 74.8511 87.2702 74.8048C87.1777 74.7604 87.0815 74.7142 86.9816 74.6661C86.8817 74.618 86.7855 74.5708 86.693 74.5245C86.6005 74.4801 86.5182 74.4404 86.446 74.4052C86.335 74.3516 86.2388 74.2924 86.1574 74.2276C86.076 74.1647 86.0131 74.0916 85.9687 74.0084C85.9243 73.927 85.9021 73.8299 85.9021 73.717V73.6421ZM85.9299 75.7748H87.6892V76.0024L87.6532 76.0717C87.6624 76.155 87.6707 76.254 87.6781 76.3687C87.6855 76.4852 87.6892 76.6175 87.6892 76.7655V76.907C87.6892 76.9995 87.6772 77.0707 87.6532 77.1207C87.6291 77.1706 87.5986 77.2058 87.5616 77.2261C87.5246 77.2483 87.4857 77.2613 87.445 77.265C87.4043 77.2705 87.3673 77.2733 87.334 77.2733H86.8012C86.7735 77.2733 86.7393 77.2705 86.6986 77.265C86.6597 77.2613 86.6209 77.2483 86.582 77.2261C86.5432 77.2058 86.5108 77.1706 86.4849 77.1207C86.459 77.0707 86.446 76.9995 86.446 76.907V76.7655C86.446 76.6249 86.4497 76.5 86.4571 76.3909C86.4645 76.2817 86.4719 76.1892 86.4793 76.1134H85.9299V75.7748ZM86.6847 76.1994V76.8016C86.6847 76.8367 86.6939 76.8672 86.7124 76.8931C86.7309 76.9209 86.7587 76.9348 86.7957 76.9348H87.3396C87.3803 76.9366 87.409 76.9264 87.4256 76.9042C87.4423 76.8839 87.4506 76.8497 87.4506 76.8016V76.6628C87.4506 76.5444 87.4478 76.439 87.4423 76.3465C87.4386 76.2558 87.4339 76.1781 87.4284 76.1134H86.7707C86.73 76.1134 86.705 76.1171 86.6958 76.1245C86.6884 76.1337 86.6847 76.1587 86.6847 76.1994ZM86.446 77.9182C86.446 77.7942 86.471 77.7017 86.521 77.6407C86.5709 77.5815 86.6523 77.5519 86.7652 77.5519H87.334C87.3618 77.5519 87.3951 77.5537 87.4339 77.5574C87.4746 77.563 87.5144 77.5759 87.5533 77.5963C87.5921 77.6185 87.6245 77.6546 87.6504 77.7045C87.6763 77.7563 87.6892 77.8275 87.6892 77.9182V78.6841C87.6892 78.7766 87.6763 78.8478 87.6504 78.8978C87.6245 78.9477 87.5921 78.9829 87.5533 79.0032C87.5144 79.0254 87.4746 79.0384 87.4339 79.0421C87.3951 79.0476 87.3618 79.0504 87.334 79.0504H86.8012C86.7679 79.0504 86.7309 79.0476 86.6902 79.0421C86.6495 79.0384 86.6107 79.0254 86.5737 79.0032C86.5367 78.981 86.5062 78.9449 86.4821 78.895C86.4581 78.845 86.446 78.7747 86.446 78.6841V77.9182ZM86.6847 78.0236V78.5786C86.6847 78.6693 86.7217 78.7146 86.7957 78.7146H87.3396C87.4136 78.7146 87.4506 78.6693 87.4506 78.5786V78.0236C87.4506 77.9348 87.4136 77.8904 87.3396 77.8904H86.7957C86.7217 77.8904 86.6847 77.9348 86.6847 78.0236ZM86.446 79.3547H87.6892V79.5822L87.6337 79.6877C87.6596 79.7358 87.68 79.7876 87.6948 79.8431C87.7096 79.8986 87.717 79.9689 87.717 80.054C87.717 80.189 87.7022 80.2982 87.6726 80.3814C87.643 80.4665 87.6208 80.5229 87.606 80.5507L87.3646 80.4536C87.3757 80.4314 87.3895 80.3944 87.4062 80.3426C87.4247 80.2926 87.4413 80.2334 87.4561 80.165C87.4709 80.0965 87.4783 80.0216 87.4783 79.9402V79.9097C87.4783 79.8209 87.4608 79.7626 87.4256 79.7348C87.3905 79.7089 87.3322 79.6951 87.2508 79.6932H86.446V79.3547ZM86.446 81.2277C86.446 81.0871 86.4756 80.9909 86.5348 80.9391C86.594 80.8873 86.6828 80.8614 86.8012 80.8614H87.4506V80.6339H87.6892V80.7504C87.6892 80.7856 87.6948 80.8106 87.7059 80.8254C87.717 80.842 87.7392 80.854 87.7725 80.8614L88.0694 80.9169V81.2H87.6892V81.7772H87.4506V81.2H86.7985C86.7522 81.2 86.7217 81.2111 86.7069 81.2333C86.6921 81.2555 86.6847 81.2888 86.6847 81.3332V81.7245L86.4738 81.7522C86.4682 81.7134 86.4618 81.6542 86.4544 81.5746C86.4488 81.4951 86.446 81.4081 86.446 81.3138V81.2277ZM86.446 82.0606H87.4506V81.8886H87.6865V82.0606H87.9334C87.9963 82.0606 88.0546 82.0727 88.1083 82.0967C88.1619 82.1226 88.2054 82.1642 88.2387 82.2216C88.272 82.2808 88.2886 82.3585 88.2886 82.4547V82.5934C88.2886 82.8154 88.2785 82.9745 88.2581 83.0707C88.2378 83.1688 88.2202 83.2178 88.2054 83.2178L87.9945 83.1346C88.0074 83.1031 88.0195 83.0467 88.0306 82.9653C88.0435 82.8839 88.05 82.7858 88.05 82.6711V82.5324C88.05 82.4861 88.0417 82.4519 88.025 82.4297C88.0084 82.4094 87.9797 82.3992 87.939 82.3992H87.6865V82.9764H87.4506V82.3992H86.446V82.0606ZM86.446 83.5549C86.446 83.431 86.471 83.3385 86.521 83.2774C86.5709 83.2182 86.6523 83.1886 86.7652 83.1886H87.334C87.3618 83.1886 87.3951 83.1905 87.4339 83.1942C87.4746 83.1997 87.5144 83.2127 87.5533 83.233C87.5921 83.2552 87.6245 83.2913 87.6504 83.3412C87.6763 83.393 87.6892 83.4643 87.6892 83.5549V84.3208C87.6892 84.4133 87.6763 84.4845 87.6504 84.5345C87.6245 84.5844 87.5921 84.6196 87.5533 84.6399C87.5144 84.6621 87.4746 84.6751 87.4339 84.6788C87.3951 84.6843 87.3618 84.6871 87.334 84.6871H86.8012C86.7679 84.6871 86.7309 84.6843 86.6902 84.6788C86.6495 84.6751 86.6107 84.6621 86.5737 84.6399C86.5367 84.6177 86.5062 84.5817 86.4821 84.5317C86.4581 84.4818 86.446 84.4115 86.446 84.3208V83.5549ZM86.6847 83.6604V84.2154C86.6847 84.306 86.7217 84.3513 86.7957 84.3513H87.3396C87.4136 84.3513 87.4506 84.306 87.4506 84.2154V83.6604C87.4506 83.5716 87.4136 83.5272 87.3396 83.5272H86.7957C86.7217 83.5272 86.6847 83.5716 86.6847 83.6604ZM86.446 85.0191H87.9834L88.2054 84.9914V85.3577H86.446V85.0191ZM87.8641 85.8876C87.8641 85.8191 87.8779 85.7692 87.9057 85.7377C87.9334 85.7063 87.9797 85.6906 88.0444 85.6906C88.111 85.6906 88.1573 85.7054 88.1832 85.735C88.2109 85.7664 88.2248 85.8173 88.2248 85.8876C88.2248 85.9579 88.2109 86.0088 88.1832 86.0402C88.1573 86.0717 88.111 86.0874 88.0444 86.0874C87.9815 86.0874 87.9353 86.0717 87.9057 86.0402C87.8779 86.0088 87.8641 85.9579 87.8641 85.8876ZM86.446 85.7183H87.6892V86.0569H86.446V85.7183ZM86.446 86.7581C86.446 86.6341 86.471 86.5416 86.521 86.4806C86.5709 86.4214 86.6523 86.3918 86.7652 86.3918H87.334C87.3618 86.3918 87.3951 86.3936 87.4339 86.3973C87.4746 86.4029 87.5144 86.4158 87.5533 86.4362C87.5921 86.4584 87.6245 86.4945 87.6504 86.5444C87.6763 86.5962 87.6892 86.6674 87.6892 86.7581V87.524C87.6892 87.6165 87.6763 87.6877 87.6504 87.7377C87.6245 87.7876 87.5921 87.8228 87.5533 87.8431C87.5144 87.8653 87.4746 87.8783 87.4339 87.882C87.3951 87.8875 87.3618 87.8903 87.334 87.8903H86.8012C86.7679 87.8903 86.7309 87.8875 86.6902 87.882C86.6495 87.8783 86.6107 87.8653 86.5737 87.8431C86.5367 87.8209 86.5062 87.7848 86.4821 87.7349C86.4581 87.6849 86.446 87.6146 86.446 87.524V86.7581ZM86.6847 86.8635V87.4185C86.6847 87.5092 86.7217 87.5545 86.7957 87.5545H87.3396C87.4136 87.5545 87.4506 87.5092 87.4506 87.4185V86.8635C87.4506 86.7747 87.4136 86.7303 87.3396 86.7303H86.7957C86.7217 86.7303 86.6847 86.7747 86.6847 86.8635ZM86.446 88.4471C86.446 88.3786 86.4599 88.3287 86.4877 88.2972C86.5154 88.2658 86.5617 88.2501 86.6264 88.2501C86.693 88.2501 86.7393 88.2649 86.7652 88.2945C86.7929 88.3259 86.8068 88.3768 86.8068 88.4471C86.8068 88.5174 86.7929 88.5683 86.7652 88.5997C86.7393 88.6312 86.693 88.6469 86.6264 88.6469C86.5635 88.6469 86.5173 88.6312 86.4877 88.5997C86.4599 88.5683 86.446 88.5174 86.446 88.4471Z" fill="#2A1919"/>
<path d="M90.3813 66.5161L93.2772 65.4555V66.1461L91.3828 66.8417L90.9043 66.9552V67.0045L91.2397 67.0687L93.2772 67.7248V68.5635L91.2397 69.2492L90.9043 69.338V69.3873L91.3828 69.5008L93.2772 70.1471V70.8377L92.9812 70.7884L90.3813 69.7721V68.9335L92.3201 68.2625L92.6359 68.1639V68.1145L92.3201 68.0208L90.3813 67.3548V66.5161ZM90.3813 71.589C90.3813 71.3687 90.4257 71.2042 90.5145 71.0957C90.6033 70.9904 90.7481 70.9378 90.9487 70.9378H91.96C92.0093 70.9378 92.0685 70.9411 92.1376 70.9477C92.21 70.9575 92.2807 70.9806 92.3497 71.0167C92.4188 71.0562 92.4764 71.1203 92.5224 71.2091C92.5685 71.3012 92.5915 71.4279 92.5915 71.589V72.9506C92.5915 73.1151 92.5685 73.2417 92.5224 73.3305C92.4764 73.4193 92.4188 73.4818 92.3497 73.5179C92.2807 73.5574 92.21 73.5804 92.1376 73.587C92.0685 73.5969 92.0093 73.6018 91.96 73.6018H91.0128C90.9536 73.6018 90.8878 73.5969 90.8155 73.587C90.7431 73.5804 90.6741 73.5574 90.6083 73.5179C90.5425 73.4785 90.4882 73.4143 90.4455 73.3255C90.4027 73.2367 90.3813 73.1118 90.3813 72.9506V71.589ZM90.8056 71.7765V72.7631C90.8056 72.9243 90.8714 73.0049 91.0029 73.0049H91.9699C92.1014 73.0049 92.1672 72.9243 92.1672 72.7631V71.7765C92.1672 71.6186 92.1014 71.5397 91.9699 71.5397H91.0029C90.8714 71.5397 90.8056 71.6186 90.8056 71.7765ZM90.3813 74.1427H92.5915V74.5473L92.4928 74.7347C92.5389 74.8203 92.575 74.9123 92.6013 75.011C92.6277 75.1097 92.6408 75.2347 92.6408 75.3859C92.6408 75.626 92.6145 75.8201 92.5619 75.9681C92.5093 76.1194 92.4698 76.2197 92.4435 76.269L92.0143 76.0963C92.034 76.0569 92.0587 75.9911 92.0883 75.899C92.1212 75.8102 92.1508 75.705 92.1771 75.5833C92.2034 75.4616 92.2165 75.3284 92.2165 75.1837V75.1294C92.2165 74.9715 92.1853 74.8679 92.1228 74.8186C92.0603 74.7726 91.9567 74.7479 91.812 74.7446H90.3813V74.1427ZM90.332 78.9773C90.332 78.8392 90.3485 78.7208 90.3813 78.6221C90.4142 78.5267 90.4849 78.4248 90.5935 78.3162C90.6033 78.3064 90.6297 78.2801 90.6724 78.2373C90.7152 78.1945 90.7629 78.1469 90.8155 78.0942C90.8681 78.0449 90.9158 77.9989 90.9585 77.9561C91.0013 77.9133 91.0293 77.8854 91.0424 77.8722C91.1246 77.79 91.1888 77.7111 91.2348 77.6354C91.2809 77.5631 91.3039 77.4726 91.3039 77.3641C91.3039 77.2917 91.2973 77.249 91.2841 77.2358C91.271 77.2227 91.2266 77.2161 91.1509 77.2161H90.3813V76.6142H93.5041V77.2161H91.7281V77.374C91.7281 77.4332 91.7512 77.4858 91.7972 77.5318C91.8268 77.5614 91.886 77.6173 91.9748 77.6996C92.0636 77.7818 92.1639 77.8739 92.2757 77.9758C92.3876 78.0811 92.4912 78.1765 92.5865 78.262V78.9872L92.4336 78.9082C92.3547 78.8326 92.2708 78.7504 92.182 78.6616C92.0965 78.5728 92.0126 78.4856 91.9304 78.4001C91.8515 78.3179 91.7808 78.2422 91.7183 78.1732C91.6591 78.1041 91.6196 78.0515 91.5999 78.0153C91.5473 78.114 91.4864 78.2028 91.4173 78.2817C91.3516 78.3606 91.2759 78.4461 91.1904 78.5382C91.1082 78.6303 91.0145 78.7405 90.9092 78.8688C90.8171 78.9839 90.7629 79.0908 90.7464 79.1894C90.7333 79.2881 90.7267 79.3473 90.7267 79.367L90.3813 79.2782C90.3715 79.2453 90.3616 79.2009 90.3517 79.145C90.3386 79.0891 90.332 79.0332 90.332 78.9773ZM90.3813 80.2213C90.3813 80.0009 90.3929 79.8447 90.4159 79.7526C90.4389 79.6605 90.4619 79.6145 90.4849 79.6145L90.8549 79.7625C90.8451 79.8579 90.8336 80.0322 90.8204 80.2854C90.8105 80.542 90.8056 80.8577 90.8056 81.2326V81.4793C90.8056 81.5615 90.827 81.6125 90.8697 81.6322C90.9158 81.6553 90.9766 81.6668 91.0523 81.6668C91.1279 81.6668 91.1888 81.6536 91.2348 81.6273C91.2809 81.6043 91.3039 81.5549 91.3039 81.4793V80.2657C91.3039 80.0355 91.3466 79.8694 91.4321 79.7674C91.5209 79.6655 91.6525 79.6145 91.8268 79.6145H92.0241C92.0702 79.6145 92.1245 79.6194 92.1869 79.6293C92.2494 79.6392 92.3119 79.6638 92.3744 79.7033C92.4369 79.7428 92.4879 79.8069 92.5273 79.8957C92.5701 79.9845 92.5915 80.1078 92.5915 80.2657V81.6273C92.5915 81.8246 92.58 81.9644 92.5569 82.0466C92.5339 82.1289 92.5109 82.17 92.4879 82.17L92.1179 82.1206C92.1277 82.0253 92.1376 81.8493 92.1475 81.5928C92.1606 81.3362 92.1672 81.0221 92.1672 80.6505V80.4038C92.1672 80.3216 92.1442 80.269 92.0981 80.246C92.0554 80.2262 92.0044 80.2164 91.9452 80.2164C91.8827 80.2164 91.8301 80.2262 91.7873 80.246C91.7479 80.269 91.7281 80.3216 91.7281 80.4038V81.6174C91.7281 81.8411 91.6821 82.0055 91.59 82.1108C91.4979 82.216 91.3812 82.2686 91.2397 82.2686H90.9487C90.8895 82.2686 90.827 82.2637 90.7612 82.2538C90.6954 82.2473 90.6329 82.2242 90.5737 82.1848C90.5178 82.1453 90.4718 82.0812 90.4356 81.9924C90.3994 81.9036 90.3813 81.7786 90.3813 81.6174V80.2213Z" fill="#2A1919"/>
<path d="M59.696 60.6345H60.6025V60.838H59.696V60.6345ZM59.696 61.0538H60.3867V61.1802L60.3559 61.2419C60.3641 61.2851 60.3713 61.337 60.3775 61.3976C60.3836 61.4583 60.3867 61.5276 60.3867 61.6057V61.6828C60.3867 61.7342 60.3795 61.7738 60.3651 61.8015C60.3507 61.8293 60.3328 61.8488 60.3112 61.8601C60.2896 61.8724 60.2675 61.8796 60.2449 61.8817C60.2233 61.8848 60.2048 61.8863 60.1894 61.8863H59.696V61.6982H60.1925C60.2336 61.6982 60.2541 61.6736 60.2541 61.6242V61.2882C60.2541 61.2686 60.2521 61.2558 60.248 61.2496C60.2449 61.2445 60.2356 61.2419 60.2202 61.2419H59.696V61.0538ZM59.696 62.671C59.696 62.5929 59.7125 62.5395 59.7454 62.5107C59.7783 62.4819 59.8276 62.4675 59.8934 62.4675H60.2541V62.3411H60.3867V62.4059C60.3867 62.4254 60.3898 62.4393 60.396 62.4475C60.4021 62.4567 60.4145 62.4634 60.433 62.4675L60.5979 62.4984V62.6556H60.3867V62.9763H60.2541V62.6556H59.8918C59.8661 62.6556 59.8492 62.6618 59.841 62.6741C59.8327 62.6864 59.8286 62.7049 59.8286 62.7296V62.947L59.7115 62.9624C59.7084 62.9408 59.7048 62.9079 59.7007 62.8637C59.6976 62.8195 59.696 62.7712 59.696 62.7188V62.671ZM59.696 63.0998H60.695V63.2879H60.3559C60.3641 63.3311 60.3713 63.383 60.3775 63.4436C60.3836 63.5043 60.3867 63.5736 60.3867 63.6518V63.7288C60.3867 63.7802 60.3795 63.8198 60.3651 63.8475C60.3507 63.8753 60.3328 63.8948 60.3112 63.9061C60.2896 63.9185 60.2675 63.9257 60.2449 63.9277C60.2233 63.9308 60.2048 63.9323 60.1894 63.9323H59.696V63.7443H60.1925C60.2336 63.7443 60.2541 63.7196 60.2541 63.6703V63.3342C60.2541 63.3146 60.2521 63.3018 60.248 63.2956C60.2449 63.2905 60.2356 63.2879 60.2202 63.2879H59.696V63.0998ZM59.696 64.1101H60.3867V64.2365L60.3559 64.2951C60.3703 64.3218 60.3816 64.3506 60.3898 64.3814C60.398 64.4122 60.4021 64.4513 60.4021 64.4986C60.4021 64.5736 60.3939 64.6342 60.3775 64.6805C60.361 64.7277 60.3487 64.7591 60.3405 64.7745L60.2063 64.7206C60.2125 64.7082 60.2202 64.6877 60.2295 64.6589C60.2397 64.6311 60.249 64.5982 60.2572 64.5602C60.2654 64.5222 60.2695 64.4806 60.2695 64.4353V64.4184C60.2695 64.3691 60.2598 64.3367 60.2403 64.3213C60.2207 64.3069 60.1884 64.2992 60.1431 64.2981H59.696V64.1101ZM59.696 65.0705C59.696 65.0191 59.7027 64.9795 59.7161 64.9518C59.7294 64.924 59.7464 64.904 59.767 64.8916C59.7875 64.8803 59.8091 64.8731 59.8317 64.8701C59.8543 64.868 59.8749 64.867 59.8934 64.867H60.1894C60.2048 64.867 60.2233 64.868 60.2449 64.8701C60.2675 64.8731 60.2896 64.8803 60.3112 64.8916C60.3328 64.904 60.3507 64.924 60.3651 64.9518C60.3795 64.9805 60.3867 65.0201 60.3867 65.0705V65.4019C60.3867 65.4698 60.38 65.5227 60.3667 65.5607C60.3543 65.5998 60.3338 65.627 60.305 65.6424C60.2762 65.6589 60.2377 65.6671 60.1894 65.6671H59.9612V65.3973C59.9612 65.3048 59.9633 65.2293 59.9674 65.1707C59.9715 65.1131 59.9741 65.0746 59.9751 65.0551H59.8903C59.8492 65.054 59.8286 65.0787 59.8286 65.1291V65.2077C59.8286 65.2632 59.8291 65.3171 59.8302 65.3696C59.8322 65.423 59.8343 65.4718 59.8363 65.516C59.8394 65.5602 59.842 65.5957 59.844 65.6224L59.7438 65.6841C59.712 65.6841 59.696 65.5828 59.696 65.3804V65.0705ZM60.0938 65.0551V65.479H60.1925C60.213 65.479 60.2274 65.4764 60.2356 65.4713C60.2439 65.4672 60.249 65.4538 60.251 65.4312C60.2531 65.4086 60.2541 65.3701 60.2541 65.3156V65.1291C60.2541 65.0797 60.2336 65.0551 60.1925 65.0551H60.0938ZM59.696 66.0265C59.696 65.9751 59.7027 65.9355 59.7161 65.9078C59.7294 65.88 59.7464 65.86 59.767 65.8477C59.7875 65.8364 59.8091 65.8292 59.8317 65.8261C59.8543 65.824 59.8749 65.823 59.8934 65.823H60.1894C60.2048 65.823 60.2233 65.824 60.2449 65.8261C60.2675 65.8292 60.2896 65.8364 60.3112 65.8477C60.3328 65.86 60.3507 65.88 60.3651 65.9078C60.3795 65.9366 60.3867 65.9761 60.3867 66.0265V66.3579C60.3867 66.4258 60.38 66.4787 60.3667 66.5167C60.3543 66.5558 60.3338 66.583 60.305 66.5984C60.2762 66.6149 60.2377 66.6231 60.1894 66.6231H59.9612V66.3533C59.9612 66.2608 59.9633 66.1853 59.9674 66.1267C59.9715 66.0691 59.9741 66.0306 59.9751 66.0111H59.8903C59.8492 66.01 59.8286 66.0347 59.8286 66.0851V66.1637C59.8286 66.2192 59.8291 66.2732 59.8302 66.3256C59.8322 66.379 59.8343 66.4278 59.8363 66.472C59.8394 66.5162 59.842 66.5517 59.844 66.5784L59.7438 66.6401C59.712 66.6401 59.696 66.5388 59.696 66.3364V66.0265ZM60.0938 66.0111V66.435H60.1925C60.213 66.435 60.2274 66.4325 60.2356 66.4273C60.2439 66.4232 60.249 66.4099 60.251 66.3872C60.2531 66.3646 60.2541 66.3261 60.2541 66.2716V66.0851C60.2541 66.0357 60.2336 66.0111 60.1925 66.0111H60.0938ZM59.696 67.1332H60.3867V67.2596L60.3682 67.2981C60.3734 67.3279 60.3775 67.3644 60.3805 67.4076C60.3847 67.4507 60.3867 67.5021 60.3867 67.5617V67.6388C60.3867 67.6686 60.3826 67.6974 60.3744 67.7252C60.3672 67.7529 60.3564 67.7735 60.342 67.7868C60.3554 67.8136 60.3662 67.8506 60.3744 67.8978C60.3826 67.9451 60.3867 68.0068 60.3867 68.0828V68.1599C60.3867 68.2113 60.3795 68.2509 60.3651 68.2786C60.3507 68.3064 60.3328 68.3259 60.3112 68.3372C60.2896 68.3495 60.2675 68.3567 60.2449 68.3588C60.2233 68.3619 60.2048 68.3634 60.1894 68.3634H59.696V68.1753H60.1925C60.2336 68.1753 60.2541 68.1507 60.2541 68.1013V67.8855C60.2541 67.8691 60.2521 67.8577 60.248 67.8516C60.2439 67.8454 60.2346 67.8423 60.2202 67.8423H59.696V67.6542H60.1925C60.2336 67.6542 60.2541 67.6296 60.2541 67.5802V67.3675C60.2541 67.348 60.2521 67.3351 60.248 67.329C60.2449 67.3238 60.2356 67.3212 60.2202 67.3212H59.696V67.1332ZM59.696 68.7289C59.696 68.6601 59.7099 68.6087 59.7377 68.5748C59.7654 68.5419 59.8106 68.5254 59.8733 68.5254H60.1894C60.2048 68.5254 60.2233 68.5265 60.2449 68.5285C60.2675 68.5316 60.2896 68.5388 60.3112 68.5501C60.3328 68.5624 60.3507 68.5825 60.3651 68.6102C60.3795 68.639 60.3867 68.6786 60.3867 68.7289V69.1544C60.3867 69.2058 60.3795 69.2454 60.3651 69.2731C60.3507 69.3009 60.3328 69.3204 60.3112 69.3317C60.2896 69.344 60.2675 69.3512 60.2449 69.3533C60.2233 69.3564 60.2048 69.3579 60.1894 69.3579H59.8934C59.8749 69.3579 59.8543 69.3564 59.8317 69.3533C59.8091 69.3512 59.7875 69.344 59.767 69.3317C59.7464 69.3194 59.7294 69.2993 59.7161 69.2716C59.7027 69.2438 59.696 69.2048 59.696 69.1544V68.7289ZM59.8286 68.7875V69.0958C59.8286 69.1462 59.8492 69.1714 59.8903 69.1714H60.1925C60.2336 69.1714 60.2541 69.1462 60.2541 69.0958V68.7875C60.2541 68.7382 60.2336 68.7135 60.1925 68.7135H59.8903C59.8492 68.7135 59.8286 68.7382 59.8286 68.7875ZM59.696 69.527H60.3867V69.6534L60.3559 69.715C60.3641 69.7582 60.3713 69.8101 60.3775 69.8708C60.3836 69.9314 60.3867 70.0008 60.3867 70.0789V70.156C60.3867 70.2074 60.3795 70.2469 60.3651 70.2747C60.3507 70.3024 60.3328 70.322 60.3112 70.3333C60.2896 70.3456 60.2675 70.3528 60.2449 70.3548C60.2233 70.3579 60.2048 70.3595 60.1894 70.3595H59.696V70.1714H60.1925C60.2336 70.1714 60.2541 70.1467 60.2541 70.0974V69.7613C60.2541 69.7418 60.2521 69.7289 60.248 69.7228C60.2449 69.7176 60.2356 69.715 60.2202 69.715H59.696V69.527ZM59.696 70.8054C59.696 70.7273 59.7125 70.6739 59.7454 70.6451C59.7783 70.6163 59.8276 70.6019 59.8934 70.6019H60.2541V70.4755H60.3867V70.5403C60.3867 70.5598 60.3898 70.5737 60.396 70.5819C60.4021 70.5911 60.4145 70.5978 60.433 70.6019L60.5979 70.6328V70.79H60.3867V71.1107H60.2541V70.79H59.8918C59.8661 70.79 59.8492 70.7962 59.841 70.8085C59.8327 70.8208 59.8286 70.8393 59.8286 70.864V71.0814L59.7115 71.0968C59.7084 71.0752 59.7048 71.0423 59.7007 70.9981C59.6976 70.9539 59.696 70.9056 59.696 70.8532V70.8054ZM59.696 71.2342H60.695V71.4223H60.3559C60.3641 71.4655 60.3713 71.5174 60.3775 71.578C60.3836 71.6387 60.3867 71.708 60.3867 71.7862V71.8632C60.3867 71.9146 60.3795 71.9542 60.3651 71.9819C60.3507 72.0097 60.3328 72.0292 60.3112 72.0405C60.2896 72.0529 60.2675 72.0601 60.2449 72.0621C60.2233 72.0652 60.2048 72.0667 60.1894 72.0667H59.696V71.8787H60.1925C60.2336 71.8787 60.2541 71.854 60.2541 71.8047V71.4686C60.2541 71.449 60.2521 71.4362 60.248 71.43C60.2449 71.4249 60.2356 71.4223 60.2202 71.4223H59.696V71.2342ZM59.696 72.4187C59.696 72.3498 59.6996 72.301 59.7068 72.2722C59.714 72.2434 59.7212 72.229 59.7284 72.229L59.844 72.2753C59.841 72.3051 59.8374 72.3596 59.8333 72.4387C59.8302 72.5189 59.8286 72.6175 59.8286 72.7347V72.8118C59.8286 72.8375 59.8353 72.8534 59.8487 72.8596C59.8631 72.8668 59.8821 72.8704 59.9057 72.8704C59.9294 72.8704 59.9484 72.8663 59.9628 72.858C59.9771 72.8508 59.9843 72.8354 59.9843 72.8118V72.4325C59.9843 72.3606 59.9977 72.3087 60.0244 72.2768C60.0522 72.245 60.0933 72.229 60.1478 72.229H60.2094C60.2238 72.229 60.2408 72.2306 60.2603 72.2337C60.2798 72.2367 60.2994 72.2445 60.3189 72.2568C60.3384 72.2691 60.3543 72.2892 60.3667 72.3169C60.38 72.3447 60.3867 72.3832 60.3867 72.4325V72.858C60.3867 72.9197 60.3831 72.9634 60.3759 72.9891C60.3687 73.0148 60.3615 73.0276 60.3543 73.0276L60.2387 73.0122C60.2418 72.9824 60.2449 72.9274 60.248 72.8472C60.2521 72.7671 60.2541 72.6689 60.2541 72.5528V72.4757C60.2541 72.45 60.2469 72.4336 60.2325 72.4264C60.2192 72.4202 60.2033 72.4171 60.1848 72.4171C60.1652 72.4171 60.1488 72.4202 60.1354 72.4264C60.1231 72.4336 60.1169 72.45 60.1169 72.4757V72.855C60.1169 72.9248 60.1025 72.9762 60.0738 73.0091C60.045 73.042 60.0085 73.0585 59.9643 73.0585H59.8733C59.8548 73.0585 59.8353 73.0569 59.8148 73.0538C59.7942 73.0518 59.7747 73.0446 59.7562 73.0322C59.7387 73.0199 59.7243 72.9999 59.713 72.9721C59.7017 72.9444 59.696 72.9053 59.696 72.855V72.4187ZM59.4833 73.2676C59.4771 73.2461 59.4802 73.2332 59.4925 73.2291C59.5039 73.226 59.5157 73.2281 59.528 73.2353C59.5362 73.2414 59.5496 73.2497 59.5681 73.2599C59.5866 73.2712 59.6077 73.282 59.6313 73.2923C59.6539 73.3026 59.677 73.3093 59.7007 73.3124C59.7048 73.2856 59.7145 73.2661 59.73 73.2538C59.7454 73.2414 59.769 73.2353 59.8009 73.2353C59.8369 73.2353 59.862 73.2435 59.8764 73.2599C59.8918 73.2774 59.8995 73.3057 59.8995 73.3447C59.8995 73.3869 59.8903 73.4182 59.8718 73.4388C59.8543 73.4604 59.825 73.4711 59.7839 73.4711C59.7541 73.4711 59.7228 73.4645 59.6899 73.4511C59.657 73.4388 59.6262 73.4223 59.5974 73.4018C59.5676 73.3812 59.5429 73.3591 59.5234 73.3355C59.5028 73.3118 59.4895 73.2892 59.4833 73.2676ZM59.696 74.0563H60.6025V74.2598H59.696V74.0563ZM59.696 74.8144H60.695V75.0025H60.3559C60.3641 75.0456 60.3713 75.0976 60.3775 75.1582C60.3836 75.2188 60.3867 75.2882 60.3867 75.3663V75.4434C60.3867 75.4948 60.3795 75.5344 60.3651 75.5621C60.3507 75.5899 60.3328 75.6094 60.3112 75.6207C60.2896 75.633 60.2675 75.6402 60.2449 75.6423C60.2233 75.6454 60.2048 75.6469 60.1894 75.6469H59.696V75.4588H60.1925C60.2336 75.4588 60.2541 75.4341 60.2541 75.3848V75.0487C60.2541 75.0292 60.2521 75.0164 60.248 75.0102C60.2449 75.0051 60.2356 75.0025 60.2202 75.0025H59.696V74.8144ZM59.696 76.0127C59.696 75.9438 59.7099 75.8924 59.7377 75.8585C59.7654 75.8256 59.8106 75.8092 59.8733 75.8092H60.1894C60.2048 75.8092 60.2233 75.8102 60.2449 75.8123C60.2675 75.8154 60.2896 75.8226 60.3112 75.8339C60.3328 75.8462 60.3507 75.8662 60.3651 75.894C60.3795 75.9228 60.3867 75.9623 60.3867 76.0127V76.4382C60.3867 76.4896 60.3795 76.5292 60.3651 76.5569C60.3507 76.5847 60.3328 76.6042 60.3112 76.6155C60.2896 76.6278 60.2675 76.635 60.2449 76.6371C60.2233 76.6402 60.2048 76.6417 60.1894 76.6417H59.8934C59.8749 76.6417 59.8543 76.6402 59.8317 76.6371C59.8091 76.635 59.7875 76.6278 59.767 76.6155C59.7464 76.6032 59.7294 76.5831 59.7161 76.5554C59.7027 76.5276 59.696 76.4886 59.696 76.4382V76.0127ZM59.8286 76.0713V76.3796C59.8286 76.43 59.8492 76.4552 59.8903 76.4552H60.1925C60.2336 76.4552 60.2541 76.43 60.2541 76.3796V76.0713C60.2541 76.0219 60.2336 75.9973 60.1925 75.9973H59.8903C59.8492 75.9973 59.8286 76.0219 59.8286 76.0713ZM59.4093 76.8107H60.3867V76.9372L60.3667 76.9757C60.3718 77.0219 60.3764 77.0769 60.3805 77.1407C60.3847 77.2054 60.3867 77.2789 60.3867 77.3611V77.4397C60.3867 77.4911 60.38 77.5307 60.3667 77.5584C60.3533 77.5862 60.3364 77.6057 60.3158 77.617C60.2952 77.6294 60.2737 77.6366 60.251 77.6386C60.2284 77.6417 60.2079 77.6432 60.1894 77.6432H59.8934C59.878 77.6432 59.8589 77.6417 59.8363 77.6386C59.8148 77.6366 59.7932 77.6294 59.7716 77.617C59.75 77.6057 59.732 77.5862 59.7176 77.5584C59.7032 77.5307 59.696 77.4911 59.696 77.4397V77.3611C59.696 77.283 59.6981 77.2136 59.7022 77.153C59.7063 77.0923 59.7104 77.041 59.7145 76.9988H59.4093V76.8107ZM59.8286 77.0466V77.3812C59.8286 77.4007 59.8338 77.4176 59.844 77.432C59.8543 77.4474 59.8697 77.4552 59.8903 77.4552H60.1925C60.2151 77.4562 60.231 77.4505 60.2403 77.4382C60.2495 77.4269 60.2541 77.4079 60.2541 77.3812V77.3041C60.2541 77.2383 60.2526 77.1797 60.2495 77.1283C60.2474 77.078 60.2449 77.0348 60.2418 76.9988H59.8764C59.8538 76.9988 59.8399 77.0009 59.8348 77.005C59.8307 77.0101 59.8286 77.024 59.8286 77.0466ZM59.696 78.0015C59.696 77.9501 59.7027 77.9105 59.7161 77.8828C59.7294 77.855 59.7464 77.835 59.767 77.8227C59.7875 77.8114 59.8091 77.8042 59.8317 77.8011C59.8543 77.799 59.8749 77.798 59.8934 77.798H60.1894C60.2048 77.798 60.2233 77.799 60.2449 77.8011C60.2675 77.8042 60.2896 77.8114 60.3112 77.8227C60.3328 77.835 60.3507 77.855 60.3651 77.8828C60.3795 77.9116 60.3867 77.9511 60.3867 78.0015V78.333C60.3867 78.4008 60.38 78.4537 60.3667 78.4918C60.3543 78.5308 60.3338 78.558 60.305 78.5735C60.2762 78.5899 60.2377 78.5981 60.1894 78.5981H59.9612V78.3283C59.9612 78.2358 59.9633 78.1603 59.9674 78.1017C59.9715 78.0442 59.9741 78.0056 59.9751 77.9861H59.8903C59.8492 77.9851 59.8286 78.0097 59.8286 78.0601V78.1387C59.8286 78.1942 59.8291 78.2482 59.8302 78.3006C59.8322 78.354 59.8343 78.4029 59.8363 78.447C59.8394 78.4912 59.842 78.5267 59.844 78.5534L59.7438 78.6151C59.712 78.6151 59.696 78.5139 59.696 78.3114V78.0015ZM60.0938 77.9861V78.41H60.1925C60.213 78.41 60.2274 78.4075 60.2356 78.4023C60.2439 78.3982 60.249 78.3849 60.251 78.3623C60.2531 78.3396 60.2541 78.3011 60.2541 78.2466V78.0601C60.2541 78.0108 60.2336 77.9861 60.1925 77.9861H60.0938ZM59.696 79.3764C59.696 79.2983 59.7125 79.2449 59.7454 79.2161C59.7783 79.1873 59.8276 79.1729 59.8934 79.1729H60.2541V79.0465H60.3867V79.1113C60.3867 79.1308 60.3898 79.1447 60.396 79.1529C60.4021 79.1621 60.4145 79.1688 60.433 79.1729L60.5979 79.2038V79.361H60.3867V79.6817H60.2541V79.361H59.8918C59.8661 79.361 59.8492 79.3672 59.841 79.3795C59.8327 79.3918 59.8286 79.4103 59.8286 79.435V79.6524L59.7115 79.6678C59.7084 79.6462 59.7048 79.6133 59.7007 79.5691C59.6976 79.5249 59.696 79.4766 59.696 79.4242V79.3764ZM59.696 79.9933C59.696 79.9245 59.7099 79.8731 59.7377 79.8392C59.7654 79.8063 59.8106 79.7898 59.8733 79.7898H60.1894C60.2048 79.7898 60.2233 79.7909 60.2449 79.7929C60.2675 79.796 60.2896 79.8032 60.3112 79.8145C60.3328 79.8268 60.3507 79.8469 60.3651 79.8746C60.3795 79.9034 60.3867 79.943 60.3867 79.9933V80.4188C60.3867 80.4702 60.3795 80.5098 60.3651 80.5375C60.3507 80.5653 60.3328 80.5848 60.3112 80.5961C60.2896 80.6085 60.2675 80.6156 60.2449 80.6177C60.2233 80.6208 60.2048 80.6223 60.1894 80.6223H59.8934C59.8749 80.6223 59.8543 80.6208 59.8317 80.6177C59.8091 80.6156 59.7875 80.6085 59.767 80.5961C59.7464 80.5838 59.7294 80.5637 59.7161 80.536C59.7027 80.5082 59.696 80.4692 59.696 80.4188V79.9933ZM59.8286 80.0519V80.3602C59.8286 80.4106 59.8492 80.4358 59.8903 80.4358H60.1925C60.2336 80.4358 60.2541 80.4106 60.2541 80.3602V80.0519C60.2541 80.0026 60.2336 79.9779 60.1925 79.9779H59.8903C59.8492 79.9779 59.8286 80.0026 59.8286 80.0519ZM59.696 81.1301H60.6735V81.3182H60.3682C60.3734 81.3624 60.3775 81.4143 60.3805 81.4739C60.3847 81.5345 60.3867 81.6034 60.3867 81.6805V81.7591C60.3867 81.8105 60.38 81.8501 60.3667 81.8778C60.3533 81.9056 60.3364 81.9251 60.3158 81.9364C60.2952 81.9487 60.2737 81.9559 60.251 81.958C60.2284 81.9611 60.2079 81.9626 60.1894 81.9626H59.8934C59.878 81.9626 59.8589 81.9611 59.8363 81.958C59.8148 81.9559 59.7932 81.9487 59.7716 81.9364C59.75 81.9251 59.732 81.9056 59.7176 81.8778C59.7032 81.8501 59.696 81.8105 59.696 81.7591V81.6805C59.696 81.5952 59.6981 81.5207 59.7022 81.4569C59.7074 81.3932 59.7125 81.3403 59.7176 81.2982L59.696 81.2565V81.1301ZM59.8286 81.366V81.7005C59.8286 81.7499 59.8492 81.7745 59.8903 81.7745H60.1925C60.2151 81.7756 60.231 81.7709 60.2403 81.7607C60.2495 81.7504 60.2541 81.7303 60.2541 81.7005V81.6234C60.2541 81.5577 60.2526 81.4991 60.2495 81.4477C60.2474 81.3973 60.2449 81.3542 60.2418 81.3182H59.8764C59.8548 81.3182 59.8415 81.3203 59.8363 81.3244C59.8312 81.3295 59.8286 81.3434 59.8286 81.366ZM59.696 82.3209C59.696 82.2695 59.7027 82.2299 59.7161 82.2022C59.7294 82.1744 59.7464 82.1544 59.767 82.142C59.7875 82.1307 59.8091 82.1235 59.8317 82.1205C59.8543 82.1184 59.8749 82.1174 59.8934 82.1174H60.1894C60.2048 82.1174 60.2233 82.1184 60.2449 82.1205C60.2675 82.1235 60.2896 82.1307 60.3112 82.142C60.3328 82.1544 60.3507 82.1744 60.3651 82.2022C60.3795 82.231 60.3867 82.2705 60.3867 82.3209V82.6523C60.3867 82.7202 60.38 82.7731 60.3667 82.8111C60.3543 82.8502 60.3338 82.8774 60.305 82.8928C60.2762 82.9093 60.2377 82.9175 60.1894 82.9175H59.9612V82.6477C59.9612 82.5552 59.9633 82.4797 59.9674 82.4211C59.9715 82.3635 59.9741 82.325 59.9751 82.3055H59.8903C59.8492 82.3044 59.8286 82.3291 59.8286 82.3795V82.4581C59.8286 82.5136 59.8291 82.5675 59.8302 82.62C59.8322 82.6734 59.8343 82.7222 59.8363 82.7664C59.8394 82.8106 59.842 82.8461 59.844 82.8728L59.7438 82.9345C59.712 82.9345 59.696 82.8332 59.696 82.6308V82.3209ZM60.0938 82.3055V82.7294H60.1925C60.213 82.7294 60.2274 82.7269 60.2356 82.7217C60.2439 82.7176 60.249 82.7042 60.251 82.6816C60.2531 82.659 60.2541 82.6205 60.2541 82.566V82.3795C60.2541 82.3301 60.2336 82.3055 60.1925 82.3055H60.0938ZM59.696 83.2769C59.696 83.2255 59.7027 83.1859 59.7161 83.1582C59.7294 83.1304 59.7464 83.1104 59.767 83.0981C59.7875 83.0868 59.8091 83.0796 59.8317 83.0765C59.8543 83.0744 59.8749 83.0734 59.8934 83.0734H60.1894C60.2048 83.0734 60.2233 83.0744 60.2449 83.0765C60.2675 83.0796 60.2896 83.0868 60.3112 83.0981C60.3328 83.1104 60.3507 83.1304 60.3651 83.1582C60.3795 83.187 60.3867 83.2265 60.3867 83.2769V83.4912C60.3867 83.6197 60.3831 83.7106 60.3759 83.7641C60.3698 83.8185 60.3631 83.8458 60.3559 83.8458L60.2387 83.8149C60.2408 83.7862 60.2428 83.7497 60.2449 83.7055C60.248 83.6613 60.25 83.6135 60.251 83.5621C60.2531 83.5117 60.2541 83.4624 60.2541 83.4141V83.3355C60.2541 83.2861 60.2336 83.2615 60.1925 83.2615H59.8903C59.8492 83.2605 59.8286 83.2851 59.8286 83.3355V83.4141C59.8286 83.4696 59.8291 83.5236 59.8302 83.576C59.8322 83.6294 59.8343 83.6782 59.8363 83.7224C59.8394 83.7666 59.842 83.8021 59.844 83.8288L59.7438 83.8905C59.712 83.8905 59.696 83.7892 59.696 83.5868V83.2769ZM59.696 84.1862C59.696 84.1174 59.7099 84.066 59.7377 84.0321C59.7654 83.9992 59.8106 83.9827 59.8733 83.9827H60.1894C60.2048 83.9827 60.2233 83.9838 60.2449 83.9858C60.2675 83.9889 60.2896 83.9961 60.3112 84.0074C60.3328 84.0197 60.3507 84.0398 60.3651 84.0675C60.3795 84.0963 60.3867 84.1359 60.3867 84.1862V84.6117C60.3867 84.6631 60.3795 84.7027 60.3651 84.7304C60.3507 84.7582 60.3328 84.7777 60.3112 84.789C60.2896 84.8014 60.2675 84.8086 60.2449 84.8106C60.2233 84.8137 60.2048 84.8152 60.1894 84.8152H59.8934C59.8749 84.8152 59.8543 84.8137 59.8317 84.8106C59.8091 84.8086 59.7875 84.8014 59.767 84.789C59.7464 84.7767 59.7294 84.7567 59.7161 84.7289C59.7027 84.7012 59.696 84.6621 59.696 84.6117V84.1862ZM59.8286 84.2448V84.5532C59.8286 84.6035 59.8492 84.6287 59.8903 84.6287H60.1925C60.2336 84.6287 60.2541 84.6035 60.2541 84.5532V84.2448C60.2541 84.1955 60.2336 84.1708 60.1925 84.1708H59.8903C59.8492 84.1708 59.8286 84.1955 59.8286 84.2448ZM59.696 84.9843H60.3867V85.1107L60.3682 85.1492C60.3734 85.179 60.3775 85.2155 60.3805 85.2587C60.3847 85.3019 60.3867 85.3533 60.3867 85.4129V85.4899C60.3867 85.5198 60.3826 85.5485 60.3744 85.5763C60.3672 85.604 60.3564 85.6246 60.342 85.6379C60.3554 85.6647 60.3662 85.7017 60.3744 85.7489C60.3826 85.7962 60.3867 85.8579 60.3867 85.9339V86.011C60.3867 86.0624 60.3795 86.102 60.3651 86.1297C60.3507 86.1575 60.3328 86.177 60.3112 86.1883C60.2896 86.2007 60.2675 86.2079 60.2449 86.2099C60.2233 86.213 60.2048 86.2145 60.1894 86.2145H59.696V86.0264H60.1925C60.2336 86.0264 60.2541 86.0018 60.2541 85.9524V85.7366C60.2541 85.7202 60.2521 85.7089 60.248 85.7027C60.2439 85.6965 60.2346 85.6934 60.2202 85.6934H59.696V85.5054H60.1925C60.2336 85.5054 60.2541 85.4807 60.2541 85.4314V85.2186C60.2541 85.1991 60.2521 85.1862 60.248 85.1801C60.2449 85.1749 60.2356 85.1724 60.2202 85.1724H59.696V84.9843ZM59.696 86.58C59.696 86.5286 59.7027 86.4891 59.7161 86.4613C59.7294 86.4336 59.7464 86.4135 59.767 86.4012C59.7875 86.3899 59.8091 86.3827 59.8317 86.3796C59.8543 86.3776 59.8749 86.3765 59.8934 86.3765H60.1894C60.2048 86.3765 60.2233 86.3776 60.2449 86.3796C60.2675 86.3827 60.2896 86.3899 60.3112 86.4012C60.3328 86.4135 60.3507 86.4336 60.3651 86.4613C60.3795 86.4901 60.3867 86.5297 60.3867 86.58V86.9115C60.3867 86.9793 60.38 87.0323 60.3667 87.0703C60.3543 87.1093 60.3338 87.1366 60.305 87.152C60.2762 87.1684 60.2377 87.1767 60.1894 87.1767H59.9612V86.9069C59.9612 86.8144 59.9633 86.7388 59.9674 86.6802C59.9715 86.6227 59.9741 86.5841 59.9751 86.5646H59.8903C59.8492 86.5636 59.8286 86.5883 59.8286 86.6386V86.7172C59.8286 86.7727 59.8291 86.8267 59.8302 86.8791C59.8322 86.9326 59.8343 86.9814 59.8363 87.0256C59.8394 87.0698 59.842 87.1052 59.844 87.132L59.7438 87.1936C59.712 87.1936 59.696 87.0924 59.696 86.8899V86.58ZM60.0938 86.5646V86.9886H60.1925C60.213 86.9886 60.2274 86.986 60.2356 86.9809C60.2439 86.9768 60.249 86.9634 60.251 86.9408C60.2531 86.9182 60.2541 86.8796 60.2541 86.8252V86.6386C60.2541 86.5893 60.2336 86.5646 60.1925 86.5646H60.0938ZM59.696 87.8856C59.696 87.8075 59.714 87.7509 59.75 87.716C59.787 87.6811 59.8374 87.6636 59.9011 87.6636C59.9679 87.6636 60.0193 87.6816 60.0553 87.7175C60.0912 87.7545 60.1092 87.8106 60.1092 87.8856V87.9642C60.1092 88.0413 60.1072 88.1107 60.103 88.1723C60.0989 88.234 60.0948 88.2849 60.0907 88.325H60.1925C60.2017 88.325 60.211 88.3239 60.2202 88.3219C60.2305 88.3198 60.2387 88.3137 60.2449 88.3034C60.251 88.2931 60.2541 88.2756 60.2541 88.251V88.1739C60.2541 88.0619 60.2521 87.9683 60.248 87.8933C60.2449 87.8183 60.2418 87.7674 60.2387 87.7407L60.3559 87.7237C60.3703 87.7237 60.379 87.7628 60.3821 87.8409C60.3852 87.919 60.3867 88.0495 60.3867 88.2325V88.3095C60.3867 88.3609 60.3795 88.4005 60.3651 88.4283C60.3507 88.456 60.3328 88.4755 60.3112 88.4868C60.2896 88.4992 60.2675 88.5064 60.2449 88.5084C60.2233 88.5115 60.2048 88.513 60.1894 88.513H59.696V88.3866L59.7269 88.3265C59.7197 88.2833 59.7125 88.2314 59.7053 88.1708C59.6991 88.1102 59.696 88.0408 59.696 87.9627V87.8856ZM59.8286 87.9257V88.2787C59.8286 88.3013 59.8307 88.3147 59.8348 88.3188C59.8389 88.3229 59.8518 88.325 59.8733 88.325H59.992V87.9257C59.992 87.8979 59.9854 87.8784 59.972 87.8671C59.9586 87.8568 59.9376 87.8517 59.9088 87.8517C59.88 87.8517 59.8595 87.8578 59.8471 87.8702C59.8348 87.8825 59.8286 87.901 59.8286 87.9257ZM57.696 67.2107H58.2541V67.1152H58.3852V67.2107H58.5224C58.5573 67.2107 58.5897 67.2174 58.6195 67.2308C58.6493 67.2452 58.6735 67.2683 58.692 67.3002C58.7105 67.333 58.7197 67.3762 58.7197 67.4297V67.5067C58.7197 67.6301 58.7141 67.7185 58.7028 67.7719C58.6914 67.8264 58.6817 67.8536 58.6735 67.8536L58.5563 67.8074C58.5635 67.7899 58.5702 67.7585 58.5763 67.7133C58.5835 67.6681 58.5871 67.6136 58.5871 67.5499V67.4728C58.5871 67.4471 58.5825 67.4281 58.5733 67.4158C58.564 67.4045 58.5481 67.3988 58.5255 67.3988H58.3852V67.7195H58.2541V67.3988H57.696V67.2107ZM57.696 67.8844H58.3867V68.0108L58.3559 68.0694C58.3703 68.0961 58.3816 68.1249 58.3898 68.1558C58.398 68.1866 58.4021 68.2256 58.4021 68.2729C58.4021 68.348 58.3939 68.4086 58.3775 68.4548C58.361 68.5021 58.3487 68.5335 58.3405 68.5489L58.2063 68.4949C58.2125 68.4826 58.2202 68.462 58.2295 68.4333C58.2397 68.4055 58.249 68.3726 58.2572 68.3346C58.2654 68.2966 58.2695 68.2549 58.2695 68.2097V68.1928C58.2695 68.1434 58.2598 68.1111 58.2403 68.0956C58.2207 68.0812 58.1884 68.0735 58.1431 68.0725H57.696V67.8844ZM57.696 68.8448C57.696 68.776 57.7099 68.7246 57.7377 68.6907C57.7654 68.6578 57.8106 68.6413 57.8733 68.6413H58.1894C58.2048 68.6413 58.2233 68.6424 58.2449 68.6444C58.2675 68.6475 58.2896 68.6547 58.3112 68.666C58.3328 68.6783 58.3507 68.6984 58.3651 68.7261C58.3795 68.7549 58.3867 68.7945 58.3867 68.8448V69.2703C58.3867 69.3217 58.3795 69.3613 58.3651 69.3891C58.3507 69.4168 58.3328 69.4363 58.3112 69.4476C58.2896 69.46 58.2675 69.4672 58.2449 69.4692C58.2233 69.4723 58.2048 69.4738 58.1894 69.4738H57.8934C57.8749 69.4738 57.8543 69.4723 57.8317 69.4692C57.8091 69.4672 57.7875 69.46 57.767 69.4476C57.7464 69.4353 57.7294 69.4153 57.7161 69.3875C57.7027 69.3598 57.696 69.3207 57.696 69.2703V68.8448ZM57.8286 68.9034V69.2118C57.8286 69.2621 57.8492 69.2873 57.8903 69.2873H58.1925C58.2336 69.2873 58.2541 69.2621 58.2541 69.2118V68.9034C58.2541 68.8541 58.2336 68.8294 58.1925 68.8294H57.8903C57.8492 68.8294 57.8286 68.8541 57.8286 68.9034ZM57.696 69.6429H58.3867V69.7693L58.3559 69.831C58.3641 69.8741 58.3713 69.926 58.3775 69.9867C58.3836 70.0473 58.3867 70.1167 58.3867 70.1948V70.2719C58.3867 70.3233 58.3795 70.3628 58.3651 70.3906C58.3507 70.4183 58.3328 70.4379 58.3112 70.4492C58.2896 70.4615 58.2675 70.4687 58.2449 70.4708C58.2233 70.4738 58.2048 70.4754 58.1894 70.4754H57.696V70.2873H58.1925C58.2336 70.2873 58.2541 70.2626 58.2541 70.2133V69.8772C58.2541 69.8577 58.2521 69.8448 58.248 69.8387C58.2449 69.8335 58.2356 69.831 58.2202 69.831H57.696V69.6429ZM57.696 70.9214C57.696 70.8432 57.7125 70.7898 57.7454 70.761C57.7783 70.7322 57.8276 70.7179 57.8934 70.7179H58.2541V70.5914H58.3867V70.6562C58.3867 70.6757 58.3898 70.6896 58.396 70.6978C58.4021 70.7071 58.4145 70.7137 58.433 70.7179L58.5979 70.7487V70.9059H58.3867V71.2266H58.2541V70.9059H57.8918C57.8661 70.9059 57.8492 70.9121 57.841 70.9244C57.8327 70.9368 57.8286 70.9553 57.8286 70.9799V71.1973L57.7115 71.2127C57.7084 71.1911 57.7048 71.1583 57.7007 71.1141C57.6976 71.0699 57.696 71.0216 57.696 70.9691V70.9214ZM57.696 71.5382C57.696 71.4869 57.7027 71.4473 57.7161 71.4195C57.7294 71.3918 57.7464 71.3717 57.767 71.3594C57.7875 71.3481 57.8091 71.3409 57.8317 71.3378C57.8543 71.3358 57.8749 71.3347 57.8934 71.3347H58.1894C58.2048 71.3347 58.2233 71.3358 58.2449 71.3378C58.2675 71.3409 58.2896 71.3481 58.3112 71.3594C58.3328 71.3717 58.3507 71.3918 58.3651 71.4195C58.3795 71.4483 58.3867 71.4879 58.3867 71.5382V71.8697C58.3867 71.9375 58.38 71.9905 58.3667 72.0285C58.3543 72.0676 58.3338 72.0948 58.305 72.1102C58.2762 72.1267 58.2377 72.1349 58.1894 72.1349H57.9612V71.8651C57.9612 71.7726 57.9633 71.697 57.9674 71.6385C57.9715 71.5809 57.9741 71.5424 57.9751 71.5228H57.8903C57.8492 71.5218 57.8286 71.5465 57.8286 71.5968V71.6755C57.8286 71.731 57.8291 71.7849 57.8302 71.8373C57.8322 71.8908 57.8343 71.9396 57.8363 71.9838C57.8394 72.028 57.842 72.0634 57.844 72.0902L57.7438 72.1518C57.712 72.1518 57.696 72.0506 57.696 71.8481V71.5382ZM58.0938 71.5228V71.9468H58.1925C58.213 71.9468 58.2274 71.9442 58.2356 71.9391C58.2439 71.935 58.249 71.9216 58.251 71.899C58.2531 71.8764 58.2541 71.8378 58.2541 71.7834V71.5968C58.2541 71.5475 58.2336 71.5228 58.1925 71.5228H58.0938ZM57.696 72.3062H58.3867V72.4326L58.3559 72.4943C58.3641 72.5374 58.3713 72.5893 58.3775 72.65C58.3836 72.7106 58.3867 72.78 58.3867 72.8581V72.9352C58.3867 72.9866 58.3795 73.0261 58.3651 73.0539C58.3507 73.0816 58.3328 73.1012 58.3112 73.1125C58.2896 73.1248 58.2675 73.132 58.2449 73.1341C58.2233 73.1371 58.2048 73.1387 58.1894 73.1387H57.696V72.9506H58.1925C58.2336 72.9506 58.2541 72.9259 58.2541 72.8766V72.5405C58.2541 72.521 58.2521 72.5081 58.248 72.502C58.2449 72.4968 58.2356 72.4943 58.2202 72.4943H57.696V72.3062ZM57.696 73.5045C57.696 73.4531 57.7027 73.4135 57.7161 73.3858C57.7294 73.358 57.7464 73.338 57.767 73.3256C57.7875 73.3143 57.8091 73.3071 57.8317 73.3041C57.8543 73.302 57.8749 73.301 57.8934 73.301H58.1894C58.2048 73.301 58.2233 73.302 58.2449 73.3041C58.2675 73.3071 58.2896 73.3143 58.3112 73.3256C58.3328 73.338 58.3507 73.358 58.3651 73.3858C58.3795 73.4145 58.3867 73.4541 58.3867 73.5045V73.5831C58.3867 73.6777 58.3847 73.7537 58.3805 73.8113C58.3775 73.8699 58.3739 73.9146 58.3698 73.9454H58.6735V74.1335H57.696V74.0071L57.7269 73.9469C57.7197 73.9038 57.7125 73.8519 57.7053 73.7912C57.6991 73.7306 57.696 73.6607 57.696 73.5816V73.5045ZM57.8286 73.5631V73.8976C57.8286 73.9192 57.8312 73.9325 57.8363 73.9377C57.8415 73.9428 57.8543 73.9454 57.8749 73.9454H58.2433C58.2454 73.9104 58.2474 73.8663 58.2495 73.8128C58.2526 73.7594 58.2541 73.7023 58.2541 73.6417V73.5631C58.2541 73.5137 58.2336 73.4891 58.1925 73.4891H57.8903C57.8492 73.4891 57.8286 73.5137 57.8286 73.5631ZM57.696 74.861C57.696 74.8096 57.7027 74.77 57.7161 74.7423C57.7294 74.7145 57.7464 74.6945 57.767 74.6821C57.7875 74.6708 57.8091 74.6636 57.8317 74.6605C57.8543 74.6585 57.8749 74.6575 57.8934 74.6575H58.1894C58.2048 74.6575 58.2233 74.6585 58.2449 74.6605C58.2675 74.6636 58.2896 74.6708 58.3112 74.6821C58.3328 74.6945 58.3507 74.7145 58.3651 74.7423C58.3795 74.771 58.3867 74.8106 58.3867 74.861V75.1924C58.3867 75.2603 58.38 75.3132 58.3667 75.3512C58.3543 75.3903 58.3338 75.4175 58.305 75.4329C58.2762 75.4494 58.2377 75.4576 58.1894 75.4576H57.9612V75.1878C57.9612 75.0953 57.9633 75.0198 57.9674 74.9612C57.9715 74.9036 57.9741 74.8651 57.9751 74.8455H57.8903C57.8492 74.8445 57.8286 74.8692 57.8286 74.9195V74.9982C57.8286 75.0537 57.8291 75.1076 57.8302 75.16C57.8322 75.2135 57.8343 75.2623 57.8363 75.3065C57.8394 75.3507 57.842 75.3862 57.844 75.4129L57.7438 75.4745C57.712 75.4745 57.696 75.3733 57.696 75.1708V74.861ZM58.0938 74.8455V75.2695H58.1925C58.213 75.2695 58.2274 75.2669 58.2356 75.2618C58.2439 75.2577 58.249 75.2443 58.251 75.2217C58.2531 75.1991 58.2541 75.1606 58.2541 75.1061V74.9195C58.2541 74.8702 58.2336 74.8455 58.1925 74.8455H58.0938ZM57.696 75.6289H58.3867V75.7553L58.3559 75.817C58.3641 75.8601 58.3713 75.912 58.3775 75.9727C58.3836 76.0333 58.3867 76.1027 58.3867 76.1808V76.2579C58.3867 76.3093 58.3795 76.3489 58.3651 76.3766C58.3507 76.4044 58.3328 76.4239 58.3112 76.4352C58.2896 76.4475 58.2675 76.4547 58.2449 76.4568C58.2233 76.4599 58.2048 76.4614 58.1894 76.4614H57.696V76.2733H58.1925C58.2336 76.2733 58.2541 76.2486 58.2541 76.1993V75.8632C58.2541 75.8437 58.2521 75.8309 58.248 75.8247C58.2449 75.8195 58.2356 75.817 58.2202 75.817H57.696V75.6289ZM57.4247 77.1463C57.4247 77.0333 57.4257 76.9413 57.4278 76.8704C57.4299 76.7994 57.4329 76.745 57.437 76.7069C57.4412 76.6689 57.4463 76.6427 57.4525 76.6283C57.4586 76.615 57.4653 76.6083 57.4725 76.6083L57.5881 76.6545C57.583 76.671 57.5768 76.6997 57.5696 76.7409C57.5614 76.783 57.5573 76.8364 57.5573 76.9012V77.1648C57.5573 77.2028 57.5629 77.2296 57.5743 77.245C57.5856 77.2614 57.6056 77.2696 57.6344 77.2696H57.7269C57.7187 77.2255 57.7115 77.173 57.7053 77.1124C57.6991 77.0528 57.696 76.9839 57.696 76.9058V76.8287C57.696 76.7773 57.7027 76.7378 57.7161 76.71C57.7294 76.6823 57.7464 76.6622 57.767 76.6499C57.7875 76.6386 57.8091 76.6314 57.8317 76.6283C57.8543 76.6263 57.8749 76.6252 57.8934 76.6252H58.1894C58.2048 76.6252 58.2233 76.6263 58.2449 76.6283C58.2675 76.6314 58.2896 76.6386 58.3112 76.6499C58.3328 76.6622 58.3507 76.6823 58.3651 76.71C58.3795 76.7388 58.3867 76.7784 58.3867 76.8287V76.9074C58.3867 77.0153 58.3847 77.099 58.3805 77.1586C58.3764 77.2193 58.3718 77.2635 58.3667 77.2912L58.3867 77.3313V77.4577H57.622C57.6035 77.4577 57.583 77.4546 57.5604 77.4485C57.5378 77.4433 57.5162 77.4326 57.4956 77.4161C57.4751 77.3997 57.4581 77.376 57.4448 77.3452C57.4314 77.3144 57.4247 77.2738 57.4247 77.2234V77.1463ZM57.8286 76.8873V77.2219C57.8286 77.2455 57.8307 77.2594 57.8348 77.2635C57.8389 77.2676 57.8523 77.2696 57.8749 77.2696H58.2433C58.2454 77.2347 58.2474 77.1905 58.2495 77.1371C58.2526 77.0836 58.2541 77.0266 58.2541 76.9659V76.8873C58.2541 76.838 58.2336 76.8133 58.1925 76.8133H57.8903C57.8492 76.8123 57.8286 76.837 57.8286 76.8873ZM58.4838 77.7528C58.4838 77.7147 58.4915 77.687 58.507 77.6695C58.5224 77.652 58.5481 77.6433 58.584 77.6433C58.621 77.6433 58.6467 77.6515 58.6611 77.668C58.6765 77.6854 58.6843 77.7137 58.6843 77.7528C58.6843 77.7918 58.6765 77.8201 58.6611 77.8375C58.6467 77.855 58.621 77.8638 58.584 77.8638C58.5491 77.8638 58.5234 77.855 58.507 77.8375C58.4915 77.8201 58.4838 77.7918 58.4838 77.7528ZM57.696 77.6587H58.3867V77.8468H57.696V77.6587ZM57.696 78.0483H58.3867V78.1747L58.3559 78.2364C58.3641 78.2795 58.3713 78.3314 58.3775 78.3921C58.3836 78.4527 58.3867 78.5221 58.3867 78.6002V78.6773C58.3867 78.7287 58.3795 78.7682 58.3651 78.796C58.3507 78.8237 58.3328 78.8433 58.3112 78.8546C58.2896 78.8669 58.2675 78.8741 58.2449 78.8762C58.2233 78.8792 58.2048 78.8808 58.1894 78.8808H57.696V78.6927H58.1925C58.2336 78.6927 58.2541 78.668 58.2541 78.6187V78.2826C58.2541 78.2631 58.2521 78.2502 58.248 78.2441C58.2449 78.2389 58.2356 78.2364 58.2202 78.2364H57.696V78.0483ZM57.696 79.2466C57.696 79.1952 57.7027 79.1556 57.7161 79.1279C57.7294 79.1001 57.7464 79.0801 57.767 79.0677C57.7875 79.0564 57.8091 79.0492 57.8317 79.0462C57.8543 79.0441 57.8749 79.0431 57.8934 79.0431H58.1894C58.2048 79.0431 58.2233 79.0441 58.2449 79.0462C58.2675 79.0492 58.2896 79.0564 58.3112 79.0677C58.3328 79.0801 58.3507 79.1001 58.3651 79.1279C58.3795 79.1567 58.3867 79.1962 58.3867 79.2466V79.578C58.3867 79.6459 58.38 79.6988 58.3667 79.7368C58.3543 79.7759 58.3338 79.8031 58.305 79.8185C58.2762 79.835 58.2377 79.8432 58.1894 79.8432H57.9612V79.5734C57.9612 79.4809 57.9633 79.4054 57.9674 79.3468C57.9715 79.2892 57.9741 79.2507 57.9751 79.2312H57.8903C57.8492 79.2301 57.8286 79.2548 57.8286 79.3052V79.3838C57.8286 79.4393 57.8291 79.4932 57.8302 79.5457C57.8322 79.5991 57.8343 79.6479 57.8363 79.6921C57.8394 79.7363 57.842 79.7718 57.844 79.7985L57.7438 79.8602C57.712 79.8602 57.696 79.7589 57.696 79.5565V79.2466ZM58.0938 79.2312V79.6551H58.1925C58.213 79.6551 58.2274 79.6526 58.2356 79.6474C58.2439 79.6433 58.249 79.6299 58.251 79.6073C58.2531 79.5847 58.2541 79.5462 58.2541 79.4917V79.3052C58.2541 79.2558 58.2336 79.2312 58.1925 79.2312H58.0938ZM57.696 80.2026C57.696 80.1512 57.7027 80.1116 57.7161 80.0839C57.7294 80.0561 57.7464 80.0361 57.767 80.0238C57.7875 80.0125 57.8091 80.0053 57.8317 80.0022C57.8543 80.0001 57.8749 79.9991 57.8934 79.9991H58.1894C58.2048 79.9991 58.2233 80.0001 58.2449 80.0022C58.2675 80.0053 58.2896 80.0125 58.3112 80.0238C58.3328 80.0361 58.3507 80.0561 58.3651 80.0839C58.3795 80.1127 58.3867 80.1522 58.3867 80.2026V80.5341C58.3867 80.6019 58.38 80.6548 58.3667 80.6928C58.3543 80.7319 58.3338 80.7591 58.305 80.7746C58.2762 80.791 58.2377 80.7992 58.1894 80.7992H57.9612V80.5294C57.9612 80.4369 57.9633 80.3614 57.9674 80.3028C57.9715 80.2452 57.9741 80.2067 57.9751 80.1872H57.8903C57.8492 80.1862 57.8286 80.2108 57.8286 80.2612V80.3398C57.8286 80.3953 57.8291 80.4493 57.8302 80.5017C57.8322 80.5551 57.8343 80.6039 57.8363 80.6481C57.8394 80.6923 57.842 80.7278 57.844 80.7545L57.7438 80.8162C57.712 80.8162 57.696 80.7149 57.696 80.5125V80.2026ZM58.0938 80.1872V80.6111H58.1925C58.213 80.6111 58.2274 80.6086 58.2356 80.6034C58.2439 80.5993 58.249 80.586 58.251 80.5633C58.2531 80.5407 58.2541 80.5022 58.2541 80.4477V80.2612C58.2541 80.2118 58.2336 80.1872 58.1925 80.1872H58.0938ZM57.696 80.9705H58.3867V81.0969L58.3559 81.1555C58.3703 81.1822 58.3816 81.211 58.3898 81.2419C58.398 81.2727 58.4021 81.3117 58.4021 81.359C58.4021 81.4341 58.3939 81.4947 58.3775 81.5409C58.361 81.5882 58.3487 81.6196 58.3405 81.635L58.2063 81.581C58.2125 81.5687 58.2202 81.5481 58.2295 81.5194C58.2397 81.4916 58.249 81.4587 58.2572 81.4207C58.2654 81.3827 58.2695 81.341 58.2695 81.2958V81.2789C58.2695 81.2295 58.2598 81.1972 58.2403 81.1817C58.2207 81.1673 58.1884 81.1596 58.1431 81.1586H57.696V80.9705ZM57.696 81.7913C57.696 81.7533 57.7038 81.7255 57.7192 81.7081C57.7346 81.6906 57.7603 81.6819 57.7963 81.6819C57.8333 81.6819 57.8589 81.6901 57.8733 81.7065C57.8888 81.724 57.8965 81.7523 57.8965 81.7913C57.8965 81.8304 57.8888 81.8586 57.8733 81.8761C57.8589 81.8936 57.8333 81.9023 57.7963 81.9023C57.7613 81.9023 57.7356 81.8936 57.7192 81.8761C57.7038 81.8586 57.696 81.8304 57.696 81.7913Z" fill="white"/>
<defs>
<radialGradient id="paint0_diamond_272_1198" cx="0" cy="0" r="1" gradientUnits="userSpaceOnUse" gradientTransform="translate(88.3334 31.8847) rotate(132.974) scale(69.741 92.0581)">
<stop stop-color="#BFBEBE"/>
<stop offset="1" stop-color="#2D2D2D"/>
</radialGradient>
<radialGradient id="paint1_diamond_272_1198" cx="0" cy="0" r="1" gradientUnits="userSpaceOnUse" gradientTransform="translate(146 74.4879) rotate(180) scale(72.4879 95.6841)">
<stop stop-color="#BFBEBE"/>
<stop offset="0.51" stop-color="#363636"/>
</radialGradient>
<linearGradient id="paint2_linear_272_1198" x1="73.8782" y1="2" x2="73.8782" y2="146.244" gradientUnits="userSpaceOnUse">
<stop offset="0.235"/>
<stop offset="0.499748" stop-color="white"/>
<stop offset="0.87"/>
</linearGradient>
<radialGradient id="paint3_diamond_272_1198" cx="0" cy="0" r="1" gradientUnits="userSpaceOnUse" gradientTransform="translate(87.43 34.5248) rotate(132.974) scale(65.3821 86.3044)">
<stop stop-color="#BFBEBE"/>
<stop offset="1" stop-color="#2D2D2D"/>
</radialGradient>
<radialGradient id="paint4_diamond_272_1198" cx="0" cy="0" r="1" gradientUnits="userSpaceOnUse" gradientTransform="translate(141.492 74.4652) rotate(180) scale(67.9574 89.7038)">
<stop stop-color="#BFBEBE"/>
<stop offset="0.51" stop-color="#363636"/>
</radialGradient>
<linearGradient id="paint5_linear_272_1198" x1="73.8782" y1="6.50781" x2="73.8782" y2="141.736" gradientUnits="userSpaceOnUse">
<stop offset="0.235"/>
<stop offset="0.499748" stop-color="white"/>
<stop offset="0.87"/>
</linearGradient>
<radialGradient id="paint6_diamond_272_1198" cx="0" cy="0" r="1" gradientUnits="userSpaceOnUse" gradientTransform="translate(110.396 86.6197) rotate(-137.026) scale(60.2969 79.5919)">
<stop stop-color="#BFBEBE"/>
<stop offset="1" stop-color="#2D2D2D"/>
</radialGradient>
<radialGradient id="paint7_diamond_272_1198" cx="0" cy="0" r="1" gradientUnits="userSpaceOnUse" gradientTransform="translate(73.5616 136.477) rotate(-90) scale(62.6719 82.7269)">
<stop stop-color="#BFBEBE"/>
<stop offset="0.51" stop-color="#363636"/>
</radialGradient>
<linearGradient id="paint8_linear_272_1198" x1="136.233" y1="74.1219" x2="11.5228" y2="74.1219" gradientUnits="userSpaceOnUse">
<stop offset="0.235"/>
<stop offset="0.499748" stop-color="white"/>
<stop offset="0.87"/>
</linearGradient>
<radialGradient id="paint9_diamond_272_1198" cx="0" cy="0" r="1" gradientUnits="userSpaceOnUse" gradientTransform="translate(16.7817 74.4117) scale(56.8066 74.9848)">
<stop stop-color="#BFBEBE"/>
<stop offset="1"/>
</radialGradient>
<radialGradient id="paint10_diamond_272_1198" cx="0" cy="0" r="1" gradientUnits="userSpaceOnUse" gradientTransform="translate(130.975 74.4117) rotate(180) scale(57.3863 75.7499)">
<stop stop-color="#BFBEBE"/>
<stop offset="1"/>
</radialGradient>
<linearGradient id="paint11_linear_272_1198" x1="90.9072" y1="17.0254" x2="56.8492" y2="131.218" gradientUnits="userSpaceOnUse">
<stop offset="0.199226" stop-color="#7A7A7A"/>
<stop offset="0.499748" stop-color="white" stop-opacity="0.66"/>
<stop offset="0.8019" stop-color="#7A7A7A"/>
</linearGradient>
<radialGradient id="paint12_diamond_272_1198" cx="0" cy="0" r="1" gradientUnits="userSpaceOnUse" gradientTransform="translate(21.2894 74.389) scale(52.3219 69.0649)">
<stop stop-color="#BFBEBE"/>
<stop offset="1"/>
</radialGradient>
<radialGradient id="paint13_diamond_272_1198" cx="0" cy="0" r="1" gradientUnits="userSpaceOnUse" gradientTransform="translate(126.467 74.389) rotate(180) scale(52.8558 69.7696)">
<stop stop-color="#BFBEBE"/>
<stop offset="1"/>
</radialGradient>
<linearGradient id="paint14_linear_272_1198" x1="84.1982" y1="21.5332" x2="63.5582" y2="126.711" gradientUnits="userSpaceOnUse">
<stop offset="0.199226" stop-color="#7A7A7A"/>
<stop offset="0.499748" stop-color="white" stop-opacity="0.66"/>
<stop offset="0.8019" stop-color="#7A7A7A"/>
</linearGradient>
<radialGradient id="paint15_diamond_272_1198" cx="0" cy="0" r="1" gradientUnits="userSpaceOnUse" gradientTransform="translate(25.0457 74.3699) scale(48.5846 64.1317)">
<stop stop-color="#BFBEBE"/>
<stop offset="1"/>
</radialGradient>
<radialGradient id="paint16_diamond_272_1198" cx="0" cy="0" r="1" gradientUnits="userSpaceOnUse" gradientTransform="translate(122.711 74.3699) rotate(180) scale(49.0804 64.7861)">
<stop stop-color="#BFBEBE"/>
<stop offset="1"/>
</radialGradient>
<linearGradient id="paint17_linear_272_1198" x1="62.3341" y1="25.2896" x2="85.4223" y2="122.955" gradientUnits="userSpaceOnUse">
<stop offset="0.199226" stop-color="#7A7A7A"/>
<stop offset="0.499748" stop-color="white" stop-opacity="0.66"/>
<stop offset="0.8019" stop-color="#7A7A7A"/>
</linearGradient>
<radialGradient id="paint18_diamond_272_1198" cx="0" cy="0" r="1" gradientUnits="userSpaceOnUse" gradientTransform="translate(29.5534 74.3467) scale(44.0999 58.2118)">
<stop stop-color="#BFBEBE"/>
<stop offset="1"/>
</radialGradient>
<radialGradient id="paint19_diamond_272_1198" cx="0" cy="0" r="1" gradientUnits="userSpaceOnUse" gradientTransform="translate(118.203 74.3467) rotate(180) scale(44.5499 58.8058)">
<stop stop-color="#BFBEBE"/>
<stop offset="1"/>
</radialGradient>
<linearGradient id="paint20_linear_272_1198" x1="81.8581" y1="29.7969" x2="65.8985" y2="118.447" gradientUnits="userSpaceOnUse">
<stop offset="0.199226" stop-color="#7A7A7A"/>
<stop offset="0.499748" stop-color="white" stop-opacity="0.66"/>
<stop offset="0.8019" stop-color="#7A7A7A"/>
</linearGradient>
<radialGradient id="paint21_diamond_272_1198" cx="0" cy="0" r="1" gradientUnits="userSpaceOnUse" gradientTransform="translate(73.6723 33.5532) rotate(90) scale(40.3626 53.2786)">
<stop stop-color="#BFBEBE"/>
<stop offset="1"/>
</radialGradient>
<radialGradient id="paint22_diamond_272_1198" cx="0" cy="0" r="1" gradientUnits="userSpaceOnUse" gradientTransform="translate(73.6723 114.69) rotate(-90) scale(40.7745 53.8223)">
<stop stop-color="#BFBEBE"/>
<stop offset="1"/>
</radialGradient>
<linearGradient id="paint23_linear_272_1198" x1="114.447" y1="68.072" x2="33.3097" y2="80.1715" gradientUnits="userSpaceOnUse">
<stop offset="0.199226" stop-color="#7A7A7A"/>
<stop offset="0.499748" stop-color="white" stop-opacity="0.66"/>
<stop offset="0.8019" stop-color="#7A7A7A"/>
</linearGradient>
<radialGradient id="paint24_diamond_272_1198" cx="0" cy="0" r="1" gradientUnits="userSpaceOnUse" gradientTransform="translate(37.8171 74.305) scale(35.8779 47.3588)">
<stop stop-color="#BFBEBE"/>
<stop offset="1"/>
</radialGradient>
<radialGradient id="paint25_diamond_272_1198" cx="0" cy="0" r="1" gradientUnits="userSpaceOnUse" gradientTransform="translate(109.939 74.305) rotate(180) scale(36.244 47.842)">
<stop stop-color="#BFBEBE"/>
<stop offset="1" stop-color="#1B1B1B"/>
</radialGradient>
<linearGradient id="paint26_linear_272_1198" x1="78.5584" y1="38.061" x2="69.1977" y2="110.183" gradientUnits="userSpaceOnUse">
<stop offset="0.199226" stop-color="#7A7A7A"/>
<stop offset="0.499748" stop-color="white" stop-opacity="0.66"/>
<stop offset="0.8019" stop-color="#7A7A7A"/>
</linearGradient>
<radialGradient id="paint27_diamond_272_1198" cx="0" cy="0" r="1" gradientUnits="userSpaceOnUse" gradientTransform="translate(92.7967 80.5967) rotate(-137.026) scale(31.2381 41.2343)">
<stop stop-color="#BFBEBE"/>
<stop offset="1" stop-color="#2D2D2D"/>
</radialGradient>
<radialGradient id="paint28_diamond_272_1198" cx="0" cy="0" r="1" gradientUnits="userSpaceOnUse" gradientTransform="translate(73.7141 106.427) rotate(-90) scale(32.4686 42.8585)">
<stop stop-color="#BFBEBE"/>
<stop offset="0.51" stop-color="#363636"/>
</radialGradient>
<linearGradient id="paint29_linear_272_1198" x1="106.183" y1="74.122" x2="41.5735" y2="74.122" gradientUnits="userSpaceOnUse">
<stop offset="0.235"/>
<stop offset="0.499748" stop-color="white"/>
<stop offset="0.87"/>
</linearGradient>
<radialGradient id="paint30_diamond_272_1198" cx="0" cy="0" r="1" gradientUnits="userSpaceOnUse" gradientTransform="translate(90.5971 79.8438) rotate(-137.026) scale(27.6058 36.4397)">
<stop stop-color="#BFBEBE"/>
<stop offset="1" stop-color="#2D2D2D"/>
</radialGradient>
<radialGradient id="paint31_diamond_272_1198" cx="0" cy="0" r="1" gradientUnits="userSpaceOnUse" gradientTransform="translate(73.7334 102.67) rotate(-90) scale(28.6931 37.8749)">
<stop stop-color="#BFBEBE"/>
<stop offset="0.51" stop-color="#363636"/>
</radialGradient>
<linearGradient id="paint32_linear_272_1198" x1="102.427" y1="74.122" x2="45.3301" y2="74.122" gradientUnits="userSpaceOnUse">
<stop offset="0.235"/>
<stop offset="0.499748" stop-color="white"/>
<stop offset="0.87"/>
</linearGradient>
</defs>
</svg>
