<svg width="148" height="148" viewBox="0 0 148 148" fill="none" xmlns="http://www.w3.org/2000/svg">
<g style="mix-blend-mode:plus-darker">
<path fill-rule="evenodd" clip-rule="evenodd" d="M-1.37091e-06 74C-1.37091e-06 114.869 33.1309 148 74 148C114.869 148 148 114.869 148 74C148 33.1309 114.869 0 74 0C33.1309 0 -1.37091e-06 33.1309 -1.37091e-06 74ZM70.6193 74C70.6193 75.8671 72.1329 77.3807 74 77.3807C75.8671 77.3807 77.3807 75.8671 77.3807 74C77.3807 72.1329 75.8671 70.6193 74 70.6193C72.1329 70.6193 70.6193 72.1329 70.6193 74Z" fill="black"/>
<path fill-rule="evenodd" clip-rule="evenodd" d="M-1.37091e-06 74C-1.37091e-06 114.869 33.1309 148 74 148C114.869 148 148 114.869 148 74C148 33.1309 114.869 0 74 0C33.1309 0 -1.37091e-06 33.1309 -1.37091e-06 74ZM70.6193 74C70.6193 75.8671 72.1329 77.3807 74 77.3807C75.8671 77.3807 77.3807 75.8671 77.3807 74C77.3807 72.1329 75.8671 70.6193 74 70.6193C72.1329 70.6193 70.6193 72.1329 70.6193 74Z" fill="url(#paint0_diamond_248_1115)" fill-opacity="0.5"/>
<path fill-rule="evenodd" clip-rule="evenodd" d="M-1.37091e-06 74C-1.37091e-06 114.869 33.1309 148 74 148C114.869 148 148 114.869 148 74C148 33.1309 114.869 0 74 0C33.1309 0 -1.37091e-06 33.1309 -1.37091e-06 74ZM70.6193 74C70.6193 75.8671 72.1329 77.3807 74 77.3807C75.8671 77.3807 77.3807 75.8671 77.3807 74C77.3807 72.1329 75.8671 70.6193 74 70.6193C72.1329 70.6193 70.6193 72.1329 70.6193 74Z" fill="url(#paint1_diamond_248_1115)" fill-opacity="0.5"/>
<path fill-rule="evenodd" clip-rule="evenodd" d="M-1.37091e-06 74C-1.37091e-06 114.869 33.1309 148 74 148C114.869 148 148 114.869 148 74C148 33.1309 114.869 0 74 0C33.1309 0 -1.37091e-06 33.1309 -1.37091e-06 74ZM70.6193 74C70.6193 75.8671 72.1329 77.3807 74 77.3807C75.8671 77.3807 77.3807 75.8671 77.3807 74C77.3807 72.1329 75.8671 70.6193 74 70.6193C72.1329 70.6193 70.6193 72.1329 70.6193 74Z" fill="url(#paint2_linear_248_1115)" fill-opacity="0.37"/>
</g>
<circle cx="73.6155" cy="73.6057" r="71.9575" transform="rotate(90 73.6155 73.6057)" stroke="url(#paint3_diamond_248_1115)" stroke-opacity="0.5" stroke-width="0.328645"/>
<circle cx="73.6155" cy="73.6057" r="71.9575" transform="rotate(90 73.6155 73.6057)" stroke="url(#paint4_diamond_248_1115)" stroke-opacity="0.5" stroke-width="0.328645"/>
<circle cx="73.6155" cy="73.6057" r="71.9575" transform="rotate(90 73.6155 73.6057)" stroke="url(#paint5_linear_248_1115)" stroke-opacity="0.37" stroke-width="0.328645"/>
<circle cx="73.6155" cy="73.6059" r="67.4499" transform="rotate(90 73.6155 73.6059)" stroke="url(#paint6_diamond_248_1115)" stroke-opacity="0.5" stroke-width="0.328645"/>
<circle cx="73.6155" cy="73.6059" r="67.4499" transform="rotate(90 73.6155 73.6059)" stroke="url(#paint7_diamond_248_1115)" stroke-opacity="0.5" stroke-width="0.328645"/>
<circle cx="73.6155" cy="73.6059" r="67.4499" transform="rotate(90 73.6155 73.6059)" stroke="url(#paint8_linear_248_1115)" stroke-opacity="0.37" stroke-width="0.328645"/>
<path d="M73.6156 135.797C39.2685 135.797 11.4246 107.953 11.4246 73.6058C11.4246 39.2587 39.2685 11.4148 73.6156 11.4148C107.963 11.4148 135.807 39.2587 135.807 73.6058C135.807 107.953 107.963 135.797 73.6156 135.797Z" stroke="url(#paint9_diamond_248_1115)" stroke-opacity="0.5" stroke-width="0.328645"/>
<path d="M73.6156 135.797C39.2685 135.797 11.4246 107.953 11.4246 73.6058C11.4246 39.2587 39.2685 11.4148 73.6156 11.4148C107.963 11.4148 135.807 39.2587 135.807 73.6058C135.807 107.953 107.963 135.797 73.6156 135.797Z" stroke="url(#paint10_diamond_248_1115)" stroke-opacity="0.5" stroke-width="0.328645"/>
<path d="M73.6156 135.797C39.2685 135.797 11.4246 107.953 11.4246 73.6058C11.4246 39.2587 39.2685 11.4148 73.6156 11.4148C107.963 11.4148 135.807 39.2587 135.807 73.6058C135.807 107.953 107.963 135.797 73.6156 135.797Z" stroke="url(#paint11_linear_248_1115)" stroke-opacity="0.37" stroke-width="0.328645"/>
<circle cx="73.6155" cy="73.6057" r="56.9321" transform="rotate(90 73.6155 73.6057)" stroke="url(#paint12_diamond_248_1115)" stroke-opacity="0.5" stroke-width="0.328645"/>
<circle cx="73.6155" cy="73.6057" r="56.9321" transform="rotate(90 73.6155 73.6057)" stroke="url(#paint13_diamond_248_1115)" stroke-opacity="0.5" stroke-width="0.328645"/>
<circle cx="73.6155" cy="73.6057" r="56.9321" transform="rotate(90 73.6155 73.6057)" stroke="url(#paint14_linear_248_1115)" stroke-opacity="0.37" stroke-width="0.328645"/>
<circle cx="73.6155" cy="73.6059" r="52.4245" transform="rotate(90 73.6155 73.6059)" stroke="url(#paint15_diamond_248_1115)" stroke-opacity="0.5" stroke-width="0.328645"/>
<circle cx="73.6155" cy="73.6059" r="52.4245" transform="rotate(90 73.6155 73.6059)" stroke="url(#paint16_diamond_248_1115)" stroke-opacity="0.5" stroke-width="0.328645"/>
<circle cx="73.6155" cy="73.6059" r="52.4245" transform="rotate(90 73.6155 73.6059)" stroke="url(#paint17_linear_248_1115)" stroke-opacity="0.37" stroke-width="0.328645"/>
<circle cx="73.6155" cy="73.6059" r="48.6682" transform="rotate(90 73.6155 73.6059)" stroke="url(#paint18_diamond_248_1115)" stroke-opacity="0.5" stroke-width="0.328645"/>
<circle cx="73.6155" cy="73.6059" r="48.6682" transform="rotate(90 73.6155 73.6059)" stroke="url(#paint19_diamond_248_1115)" stroke-opacity="0.5" stroke-width="0.328645"/>
<circle cx="73.6155" cy="73.6059" r="48.6682" transform="rotate(90 73.6155 73.6059)" stroke="url(#paint20_linear_248_1115)" stroke-opacity="0.37" stroke-width="0.328645"/>
<path d="M73.6153 117.766C49.2261 117.766 29.4548 97.9948 29.4548 73.6056C29.4548 49.2164 49.2261 29.4451 73.6153 29.4451C98.0045 29.4451 117.776 49.2164 117.776 73.6056C117.776 97.9948 98.0045 117.766 73.6153 117.766Z" stroke="url(#paint21_diamond_248_1115)" stroke-opacity="0.5" stroke-width="0.328645"/>
<path d="M73.6153 117.766C49.2261 117.766 29.4548 97.9948 29.4548 73.6056C29.4548 49.2164 49.2261 29.4451 73.6153 29.4451C98.0045 29.4451 117.776 49.2164 117.776 73.6056C117.776 97.9948 98.0045 117.766 73.6153 117.766Z" stroke="url(#paint22_diamond_248_1115)" stroke-opacity="0.5" stroke-width="0.328645"/>
<path d="M73.6153 117.766C49.2261 117.766 29.4548 97.9948 29.4548 73.6056C29.4548 49.2164 49.2261 29.4451 73.6153 29.4451C98.0045 29.4451 117.776 49.2164 117.776 73.6056C117.776 97.9948 98.0045 117.766 73.6153 117.766Z" stroke="url(#paint23_linear_248_1115)" stroke-opacity="0.37" stroke-width="0.328645"/>
<path d="M73.6156 114.01C51.3009 114.01 33.2114 95.9203 33.2114 73.6056C33.2114 51.291 51.3009 33.2014 73.6156 33.2014C95.9302 33.2014 114.02 51.291 114.02 73.6056C114.02 95.9203 95.9302 114.01 73.6156 114.01Z" stroke="url(#paint24_diamond_248_1115)" stroke-opacity="0.5" stroke-width="0.328645"/>
<path d="M73.6156 114.01C51.3009 114.01 33.2114 95.9203 33.2114 73.6056C33.2114 51.291 51.3009 33.2014 73.6156 33.2014C95.9302 33.2014 114.02 51.291 114.02 73.6056C114.02 95.9203 95.9302 114.01 73.6156 114.01Z" stroke="url(#paint25_diamond_248_1115)" stroke-opacity="0.5" stroke-width="0.328645"/>
<path d="M73.6156 114.01C51.3009 114.01 33.2114 95.9203 33.2114 73.6056C33.2114 51.291 51.3009 33.2014 73.6156 33.2014C95.9302 33.2014 114.02 51.291 114.02 73.6056C114.02 95.9203 95.9302 114.01 73.6156 114.01Z" stroke="url(#paint26_linear_248_1115)" stroke-opacity="0.37" stroke-width="0.328645"/>
<circle cx="73.6156" cy="73.6058" r="35.8966" transform="rotate(90 73.6156 73.6058)" stroke="url(#paint27_diamond_248_1115)" stroke-opacity="0.5" stroke-width="0.328645"/>
<circle cx="73.6156" cy="73.6058" r="35.8966" transform="rotate(90 73.6156 73.6058)" stroke="url(#paint28_diamond_248_1115)" stroke-opacity="0.5" stroke-width="0.328645"/>
<circle cx="73.6156" cy="73.6058" r="35.8966" transform="rotate(90 73.6156 73.6058)" stroke="url(#paint29_linear_248_1115)" stroke-opacity="0.37" stroke-width="0.328645"/>
<circle cx="73.6156" cy="73.6058" r="32.1402" transform="rotate(90 73.6156 73.6058)" stroke="url(#paint30_diamond_248_1115)" stroke-opacity="0.5" stroke-width="0.328645"/>
<circle cx="73.6156" cy="73.6058" r="32.1402" transform="rotate(90 73.6156 73.6058)" stroke="url(#paint31_diamond_248_1115)" stroke-opacity="0.5" stroke-width="0.328645"/>
<circle cx="73.6156" cy="73.6058" r="32.1402" transform="rotate(90 73.6156 73.6058)" stroke="url(#paint32_linear_248_1115)" stroke-opacity="0.37" stroke-width="0.328645"/>
<path d="M73.6156 101.99C57.9396 101.99 45.2317 89.2818 45.2317 73.6058C45.2317 57.9298 57.9396 45.2219 73.6156 45.2219C89.2916 45.2219 101.999 57.9298 101.999 73.6058C101.999 89.2818 89.2916 101.99 73.6156 101.99Z" stroke="url(#paint33_diamond_248_1115)" stroke-opacity="0.5" stroke-width="0.328645"/>
<path d="M73.6156 101.99C57.9396 101.99 45.2317 89.2818 45.2317 73.6058C45.2317 57.9298 57.9396 45.2219 73.6156 45.2219C89.2916 45.2219 101.999 57.9298 101.999 73.6058C101.999 89.2818 89.2916 101.99 73.6156 101.99Z" stroke="url(#paint34_diamond_248_1115)" stroke-opacity="0.5" stroke-width="0.328645"/>
<path d="M73.6156 101.99C57.9396 101.99 45.2317 89.2818 45.2317 73.6058C45.2317 57.9298 57.9396 45.2219 73.6156 45.2219C89.2916 45.2219 101.999 57.9298 101.999 73.6058C101.999 89.2818 89.2916 101.99 73.6156 101.99Z" stroke="url(#paint35_linear_248_1115)" stroke-opacity="0.37" stroke-width="0.328645"/>
<path fill-rule="evenodd" clip-rule="evenodd" d="M50.3351 73.9999C50.3351 87.0697 60.9303 97.6649 74.0001 97.6649C87.0699 97.6649 97.665 87.0697 97.665 73.9999C97.665 60.9301 87.0699 50.335 74.0001 50.335C60.9303 50.335 50.3351 60.9301 50.3351 73.9999ZM71.8043 73.9999C71.8043 75.2126 72.7874 76.1957 74.0001 76.1957C75.2127 76.1957 76.1958 75.2126 76.1958 73.9999C76.1958 72.7873 75.2127 71.8042 74.0001 71.8042C72.7874 71.8042 71.8043 72.7873 71.8043 73.9999Z" fill="#A5A5A5"/>
<circle cx="74.0001" cy="73.9999" r="25.5316" transform="rotate(90 74.0001 73.9999)" stroke="black" stroke-width="3.77942"/>
<path fill-rule="evenodd" clip-rule="evenodd" d="M50.3324 74.0024C50.3324 87.0722 60.9276 97.6674 73.9974 97.6674C87.0672 97.6674 97.6624 87.0722 97.6624 74.0024C97.6624 60.9326 87.0672 50.3374 73.9974 50.3374C60.9276 50.3374 50.3324 60.9326 50.3324 74.0024ZM71.8017 74.0024C71.8017 75.215 72.7847 76.1981 73.9974 76.1981C75.21 76.1981 76.1931 75.215 76.1931 74.0024C76.1931 72.7897 75.21 71.8067 73.9974 71.8067C72.7847 71.8067 71.8017 72.7897 71.8017 74.0024Z" fill="#FBB24A"/>
<circle cx="73.9853" cy="74.0145" r="9.07161" transform="rotate(90 73.9853 74.0145)" stroke="white" stroke-width="0.0770833"/>
<path d="M86.1833 59.8438C86.1833 59.7143 86.2018 59.6125 86.2388 59.5385C86.2758 59.4645 86.3313 59.4118 86.4053 59.3803C86.4793 59.3507 86.5709 59.3359 86.6801 59.3359H87.3211C87.4284 59.3359 87.5181 59.3507 87.5903 59.3803C87.6643 59.4099 87.7198 59.4617 87.7568 59.5357C87.7956 59.6097 87.815 59.7124 87.815 59.8438V60.6541C87.815 60.7836 87.7956 60.8844 87.7568 60.9565C87.7198 61.0305 87.6643 61.0823 87.5903 61.1119C87.5181 61.1434 87.4284 61.1591 87.3211 61.1591H86.6801C86.5173 61.1591 86.3933 61.123 86.3082 61.0509C86.225 60.9787 86.1833 60.8465 86.1833 60.6541V59.8438ZM86.4497 59.9242V60.5764C86.4497 60.6448 86.4673 60.6975 86.5025 60.7345C86.5376 60.7734 86.5857 60.7928 86.6468 60.7928H87.3544C87.408 60.7928 87.4534 60.7734 87.4904 60.7345C87.5292 60.6957 87.5486 60.643 87.5486 60.5764V59.9242C87.5486 59.8576 87.5311 59.804 87.4959 59.7633C87.4608 59.7226 87.4136 59.7022 87.3544 59.7022H86.6468C86.5839 59.7022 86.5348 59.7217 86.4997 59.7605C86.4664 59.8012 86.4497 59.8558 86.4497 59.9242ZM86.1833 61.5195H87.4265V61.7471L87.371 61.8581C87.3858 61.9358 87.3988 62.0292 87.4099 62.1383C87.421 62.2475 87.4265 62.3724 87.4265 62.513V62.6517C87.4265 62.7442 87.4136 62.8154 87.3877 62.8654C87.3618 62.9153 87.3294 62.9505 87.2906 62.9708C87.2517 62.993 87.2119 63.006 87.1712 63.0097C87.1324 63.0152 87.0991 63.018 87.0713 63.018H86.1833V62.6795H87.0769C87.1509 62.6795 87.1879 62.6351 87.1879 62.5463V61.9413C87.1879 61.9062 87.1842 61.883 87.1768 61.8719C87.1712 61.8627 87.1546 61.8581 87.1268 61.8581H86.1833V61.5195ZM86.1833 63.6764C86.1833 63.5839 86.1954 63.5127 86.2194 63.4628C86.2435 63.4128 86.274 63.3767 86.311 63.3545C86.348 63.3342 86.3868 63.3212 86.4275 63.3157C86.4682 63.312 86.5052 63.3101 86.5385 63.3101H87.0713C87.0991 63.3101 87.1324 63.312 87.1712 63.3157C87.2119 63.3212 87.2517 63.3342 87.2906 63.3545C87.3294 63.3767 87.3618 63.4128 87.3877 63.4628C87.4136 63.5146 87.4265 63.5858 87.4265 63.6764V64.2731C87.4265 64.3952 87.4145 64.4904 87.3905 64.5589C87.3683 64.6292 87.3313 64.6782 87.2795 64.706C87.2277 64.7356 87.1583 64.7504 87.0713 64.7504H86.6606V64.2647C86.6606 64.0982 86.6643 63.9623 86.6717 63.8568C86.6791 63.7532 86.6838 63.6838 86.6856 63.6487H86.533C86.459 63.6468 86.422 63.6912 86.422 63.7819V63.9234C86.422 64.0233 86.4229 64.1204 86.4248 64.2148C86.4285 64.311 86.4322 64.3989 86.4359 64.4784C86.4414 64.558 86.446 64.6218 86.4497 64.6699L86.2694 64.7809C86.212 64.7809 86.1833 64.5987 86.1833 64.2342V63.6764ZM86.8993 63.6487V64.4118H87.0769C87.1139 64.4118 87.1398 64.4072 87.1546 64.3979C87.1694 64.3905 87.1786 64.3665 87.1823 64.3258C87.186 64.2851 87.1879 64.2157 87.1879 64.1177V63.7819C87.1879 63.6931 87.1509 63.6487 87.0769 63.6487H86.8993ZM85.6672 65.6685H87.4265V65.896L87.3905 65.9654C87.3997 66.0486 87.408 66.1476 87.4154 66.2623C87.4228 66.3789 87.4265 66.5111 87.4265 66.6591V66.8007C87.4265 66.8932 87.4145 66.9644 87.3905 67.0143C87.3664 67.0643 87.3359 67.0994 87.2989 67.1198C87.2619 67.142 87.223 67.1549 87.1823 67.1586C87.1416 67.1642 87.1046 67.167 87.0713 67.167H86.5385C86.5108 67.167 86.4766 67.1642 86.4359 67.1586C86.397 67.1549 86.3582 67.142 86.3193 67.1198C86.2805 67.0994 86.2481 67.0643 86.2222 67.0143C86.1963 66.9644 86.1833 66.8932 86.1833 66.8007V66.6591C86.1833 66.5185 86.187 66.3937 86.1944 66.2845C86.2018 66.1754 86.2092 66.0829 86.2166 66.007H85.6672V65.6685ZM86.422 66.093V66.6952C86.422 66.7304 86.4312 66.7609 86.4497 66.7868C86.4682 66.8145 86.496 66.8284 86.533 66.8284H87.0769C87.1176 66.8303 87.1463 66.8201 87.1629 66.7979C87.1796 66.7775 87.1879 66.7433 87.1879 66.6952V66.5565C87.1879 66.4381 87.1851 66.3326 87.1796 66.2401C87.1759 66.1495 87.1712 66.0718 87.1657 66.007H86.508C86.4673 66.007 86.4423 66.0107 86.4331 66.0181C86.4257 66.0274 86.422 66.0523 86.422 66.093ZM86.1833 67.8313C86.1833 67.6907 86.2157 67.5889 86.2805 67.526C86.3471 67.4631 86.4377 67.4317 86.5524 67.4317C86.6727 67.4317 86.7652 67.464 86.8299 67.5288C86.8947 67.5954 86.927 67.6962 86.927 67.8313V67.9728C86.927 68.1115 86.9233 68.2364 86.9159 68.3474C86.9085 68.4584 86.9011 68.55 86.8937 68.6221H87.0769C87.0935 68.6221 87.1102 68.6203 87.1268 68.6166C87.1453 68.6129 87.1601 68.6018 87.1712 68.5833C87.1823 68.5648 87.1879 68.5333 87.1879 68.4889V68.3502C87.1879 68.1485 87.1842 67.9802 87.1768 67.8451C87.1712 67.7101 87.1657 67.6185 87.1601 67.5704L87.371 67.5399C87.3969 67.5399 87.4127 67.6102 87.4182 67.7508C87.4238 67.8914 87.4265 68.1263 87.4265 68.4556V68.5944C87.4265 68.6869 87.4136 68.7581 87.3877 68.8081C87.3618 68.858 87.3294 68.8932 87.2906 68.9135C87.2517 68.9357 87.2119 68.9487 87.1712 68.9524C87.1324 68.9579 87.0991 68.9607 87.0713 68.9607H86.1833V68.7331L86.2388 68.6249C86.2259 68.5472 86.2129 68.4538 86.2 68.3446C86.1889 68.2355 86.1833 68.1106 86.1833 67.97V67.8313ZM86.422 67.9034V68.5389C86.422 68.5796 86.4257 68.6036 86.4331 68.611C86.4405 68.6184 86.4636 68.6221 86.5025 68.6221H86.7161V67.9034C86.7161 67.8535 86.7041 67.8183 86.6801 67.798C86.656 67.7795 86.6181 67.7702 86.5663 67.7702C86.5145 67.7702 86.4775 67.7813 86.4553 67.8035C86.4331 67.8257 86.422 67.859 86.422 67.9034ZM85.6949 70.1938C85.6949 69.9903 85.6968 69.8247 85.7005 69.6971C85.7042 69.5694 85.7097 69.4714 85.7171 69.4029C85.7245 69.3345 85.7338 69.2873 85.7449 69.2614C85.756 69.2374 85.768 69.2253 85.781 69.2253L85.9891 69.3086C85.9798 69.3382 85.9687 69.39 85.9558 69.464C85.941 69.5398 85.9336 69.636 85.9336 69.7526V70.2271C85.9336 70.2956 85.9438 70.3437 85.9641 70.3714C85.9845 70.401 86.0205 70.4158 86.0723 70.4158H86.2388C86.224 70.3363 86.2111 70.2419 86.2 70.1328C86.1889 70.0255 86.1833 69.9015 86.1833 69.7609V69.6222C86.1833 69.5297 86.1954 69.4584 86.2194 69.4085C86.2435 69.3585 86.274 69.3225 86.311 69.3003C86.348 69.2799 86.3868 69.267 86.4275 69.2614C86.4682 69.2577 86.5052 69.2559 86.5385 69.2559H87.0713C87.0991 69.2559 87.1324 69.2577 87.1712 69.2614C87.2119 69.267 87.2517 69.2799 87.2906 69.3003C87.3294 69.3225 87.3618 69.3585 87.3877 69.4085C87.4136 69.4603 87.4265 69.5315 87.4265 69.6222V69.7637C87.4265 69.9579 87.4228 70.1087 87.4154 70.216C87.408 70.3252 87.3997 70.4047 87.3905 70.4547L87.4265 70.5268V70.7544H86.0501C86.0168 70.7544 85.9798 70.7488 85.9391 70.7377C85.8984 70.7285 85.8596 70.709 85.8226 70.6794C85.7856 70.6498 85.7551 70.6073 85.731 70.5518C85.707 70.4963 85.6949 70.4232 85.6949 70.3326V70.1938ZM86.422 69.7276V70.3298C86.422 70.3723 86.4257 70.3973 86.4331 70.4047C86.4405 70.4121 86.4645 70.4158 86.5052 70.4158H87.1685C87.1722 70.3529 87.1759 70.2734 87.1796 70.1772C87.1851 70.081 87.1879 69.9783 87.1879 69.8691V69.7276C87.1879 69.6388 87.1509 69.5944 87.0769 69.5944H86.533C86.459 69.5926 86.422 69.637 86.422 69.7276ZM86.1833 71.4269C86.1833 71.3344 86.1954 71.2632 86.2194 71.2133C86.2435 71.1633 86.274 71.1272 86.311 71.105C86.348 71.0847 86.3868 71.0717 86.4275 71.0662C86.4682 71.0625 86.5052 71.0606 86.5385 71.0606H87.0713C87.0991 71.0606 87.1324 71.0625 87.1712 71.0662C87.2119 71.0717 87.2517 71.0847 87.2906 71.105C87.3294 71.1272 87.3618 71.1633 87.3877 71.2133C87.4136 71.2651 87.4265 71.3363 87.4265 71.4269V72.0236C87.4265 72.1457 87.4145 72.2409 87.3905 72.3094C87.3683 72.3797 87.3313 72.4287 87.2795 72.4565C87.2277 72.4861 87.1583 72.5009 87.0713 72.5009H86.6606V72.0152C86.6606 71.8487 86.6643 71.7128 86.6717 71.6073C86.6791 71.5037 86.6838 71.4343 86.6856 71.3992H86.533C86.459 71.3973 86.422 71.4417 86.422 71.5324V71.6739C86.422 71.7738 86.4229 71.8709 86.4248 71.9653C86.4285 72.0615 86.4322 72.1494 86.4359 72.2289C86.4414 72.3085 86.446 72.3723 86.4497 72.4204L86.2694 72.5314C86.212 72.5314 86.1833 72.3492 86.1833 71.9847V71.4269ZM86.8993 71.3992V72.1623H87.0769C87.1139 72.1623 87.1398 72.1577 87.1546 72.1484C87.1694 72.141 87.1786 72.117 87.1823 72.0763C87.186 72.0356 87.1879 71.9662 87.1879 71.8682V71.5324C87.1879 71.4436 87.1509 71.3992 87.0769 71.3992H86.8993ZM86.1833 73.7575C86.1833 73.6336 86.2083 73.5411 86.2583 73.48C86.3082 73.4208 86.3896 73.3912 86.5025 73.3912H87.0713C87.0991 73.3912 87.1324 73.3931 87.1712 73.3968C87.2119 73.4023 87.2517 73.4153 87.2906 73.4356C87.3294 73.4578 87.3618 73.4939 87.3877 73.5438C87.4136 73.5956 87.4265 73.6669 87.4265 73.7575V74.5234C87.4265 74.6159 87.4136 74.6871 87.3877 74.7371C87.3618 74.787 87.3294 74.8222 87.2906 74.8425C87.2517 74.8647 87.2119 74.8777 87.1712 74.8814C87.1324 74.8869 87.0991 74.8897 87.0713 74.8897H86.5385C86.5052 74.8897 86.4682 74.8869 86.4275 74.8814C86.3868 74.8777 86.348 74.8647 86.311 74.8425C86.274 74.8203 86.2435 74.7843 86.2194 74.7343C86.1954 74.6844 86.1833 74.6141 86.1833 74.5234V73.7575ZM86.422 73.863V74.418C86.422 74.5086 86.459 74.5539 86.533 74.5539H87.0769C87.1509 74.5539 87.1879 74.5086 87.1879 74.418V73.863C87.1879 73.7742 87.1509 73.7298 87.0769 73.7298H86.533C86.459 73.7298 86.422 73.7742 86.422 73.863ZM86.1833 75.255H87.1879V75.083H87.4238V75.255H87.6707C87.7336 75.255 87.7919 75.2671 87.8456 75.2911C87.8992 75.317 87.9427 75.3586 87.976 75.416C88.0093 75.4752 88.0259 75.5529 88.0259 75.6491V75.7878C88.0259 76.0098 88.0158 76.1689 87.9954 76.2651C87.9751 76.3632 87.9575 76.4122 87.9427 76.4122L87.7318 76.329C87.7447 76.2975 87.7568 76.2411 87.7679 76.1597C87.7808 76.0783 87.7873 75.9802 87.7873 75.8655V75.7268C87.7873 75.6805 87.779 75.6463 87.7623 75.6241C87.7457 75.6038 87.717 75.5936 87.6763 75.5936H87.4238V76.1708H87.1879V75.5936H86.1833V75.255ZM86.1833 77.1316H87.4265V77.3591L87.3932 77.4285C87.4025 77.4822 87.4099 77.5478 87.4154 77.6255C87.4228 77.7032 87.4265 77.7957 87.4265 77.903V78.0418C87.4265 78.0954 87.4191 78.1472 87.4043 78.1972C87.3914 78.2471 87.372 78.2841 87.3461 78.3082C87.3701 78.3563 87.3895 78.4229 87.4043 78.508C87.4191 78.5931 87.4265 78.7041 87.4265 78.841V78.9797C87.4265 79.0722 87.4136 79.1435 87.3877 79.1934C87.3618 79.2434 87.3294 79.2785 87.2906 79.2989C87.2517 79.3211 87.2119 79.334 87.1712 79.3377C87.1324 79.3433 87.0991 79.346 87.0713 79.346H86.1833V79.0075H87.0769C87.1509 79.0075 87.1879 78.9631 87.1879 78.8743V78.4858C87.1879 78.4562 87.1842 78.4358 87.1768 78.4247C87.1694 78.4136 87.1527 78.4081 87.1268 78.4081H86.1833V78.0695H87.0769C87.1509 78.0695 87.1879 78.0251 87.1879 77.9363V77.5534C87.1879 77.5182 87.1842 77.4951 87.1768 77.484C87.1712 77.4748 87.1546 77.4701 87.1268 77.4701H86.1833V77.1316ZM85.6394 79.782C85.6394 79.6932 85.6496 79.6118 85.67 79.5378C85.6903 79.4638 85.7088 79.4138 85.7255 79.3879L85.9752 79.4712C85.9623 79.5026 85.9475 79.547 85.9308 79.6044C85.9123 79.6636 85.9031 79.7302 85.9031 79.8042V79.8347C85.9031 79.9198 85.929 79.9947 85.9808 80.0595C86.0307 80.1261 86.0982 80.1769 86.1833 80.2121V80.0733L87.4265 79.5294V79.9179L86.6606 80.2371L86.4608 80.3092V80.337L86.6606 80.4091L87.4265 80.7338V81.1112L87.2573 81.0668C87.1851 81.0316 87.1019 80.9909 87.0075 80.9447C86.915 80.9003 86.8188 80.854 86.7189 80.8059C86.619 80.7578 86.5228 80.7107 86.4303 80.6644C86.3378 80.62 86.2555 80.5802 86.1833 80.5451C86.0723 80.4914 85.9761 80.4322 85.8947 80.3675C85.8133 80.3046 85.7504 80.2315 85.706 80.1483C85.6616 80.0669 85.6394 79.9697 85.6394 79.8569V79.782ZM86.1833 81.9424H87.7207L87.9427 81.9147V82.281H86.1833V81.9424ZM87.6014 82.8109C87.6014 82.7424 87.6152 82.6925 87.643 82.661C87.6707 82.6296 87.717 82.6138 87.7817 82.6138C87.8483 82.6138 87.8946 82.6286 87.9205 82.6582C87.9482 82.6897 87.9621 82.7406 87.9621 82.8109C87.9621 82.8812 87.9482 82.932 87.9205 82.9635C87.8946 82.9949 87.8483 83.0107 87.7817 83.0107C87.7188 83.0107 87.6726 82.9949 87.643 82.9635C87.6152 82.932 87.6014 82.8812 87.6014 82.8109ZM86.1833 82.6416H87.4265V82.9801H86.1833V82.6416ZM86.1833 83.4039H87.1879V83.2318H87.4238V83.4039H87.6707C87.7336 83.4039 87.7919 83.4159 87.8456 83.44C87.8992 83.4659 87.9427 83.5075 87.976 83.5648C88.0093 83.624 88.0259 83.7017 88.0259 83.7979V83.9367C88.0259 84.1587 88.0158 84.3178 87.9954 84.414C87.9751 84.512 87.9575 84.5611 87.9427 84.5611L87.7318 84.4778C87.7447 84.4464 87.7568 84.3899 87.7679 84.3085C87.7808 84.2271 87.7873 84.1291 87.7873 84.0144V83.8756C87.7873 83.8294 87.779 83.7952 87.7623 83.773C87.7457 83.7526 87.717 83.7424 87.6763 83.7424H87.4238V84.3196H87.1879V83.7424H86.1833V83.4039ZM86.1833 84.8982C86.1833 84.8057 86.1954 84.7344 86.2194 84.6845C86.2435 84.6345 86.274 84.5985 86.311 84.5763C86.348 84.5559 86.3868 84.543 86.4275 84.5374C86.4682 84.5337 86.5052 84.5319 86.5385 84.5319H87.0713C87.0991 84.5319 87.1324 84.5337 87.1712 84.5374C87.2119 84.543 87.2517 84.5559 87.2906 84.5763C87.3294 84.5985 87.3618 84.6345 87.3877 84.6845C87.4136 84.7363 87.4265 84.8075 87.4265 84.8982V85.4948C87.4265 85.6169 87.4145 85.7122 87.3905 85.7806C87.3683 85.8509 87.3313 85.8999 87.2795 85.9277C87.2277 85.9573 87.1583 85.9721 87.0713 85.9721H86.6606V85.4865C86.6606 85.32 86.6643 85.184 86.6717 85.0785C86.6791 84.9749 86.6838 84.9056 86.6856 84.8704H86.533C86.459 84.8686 86.422 84.913 86.422 85.0036V85.1451C86.422 85.245 86.4229 85.3422 86.4248 85.4365C86.4285 85.5327 86.4322 85.6206 86.4359 85.7001C86.4414 85.7797 86.446 85.8435 86.4497 85.8916L86.2694 86.0026C86.212 86.0026 86.1833 85.8204 86.1833 85.4559V84.8982ZM86.8993 84.8704V85.6335H87.0769C87.1139 85.6335 87.1398 85.6289 87.1546 85.6197C87.1694 85.6123 87.1786 85.5882 87.1823 85.5475C87.186 85.5068 87.1879 85.4374 87.1879 85.3394V85.0036C87.1879 84.9148 87.1509 84.8704 87.0769 84.8704H86.8993ZM86.1833 86.533C86.1833 86.4645 86.1972 86.4146 86.225 86.3831C86.2527 86.3517 86.299 86.3359 86.3637 86.3359C86.4303 86.3359 86.4766 86.3507 86.5025 86.3803C86.5302 86.4118 86.5441 86.4627 86.5441 86.533C86.5441 86.6033 86.5302 86.6541 86.5025 86.6856C86.4766 86.717 86.4303 86.7328 86.3637 86.7328C86.3008 86.7328 86.2546 86.717 86.225 86.6856C86.1972 86.6541 86.1833 86.6033 86.1833 86.533Z" fill="#2A1919"/>
<path d="M90.1187 65.0706C90.1187 64.8371 90.1515 64.6546 90.2173 64.523C90.2831 64.3914 90.3818 64.2994 90.5133 64.2467C90.6449 64.1941 90.8077 64.1678 91.0017 64.1678H92.1019C92.4176 64.1678 92.6495 64.2385 92.7975 64.3799C92.9487 64.5214 93.0244 64.7516 93.0244 65.0706V66.5555C93.0244 66.7825 93.0112 66.9551 92.9849 67.0735C92.9619 67.1952 92.9372 67.2561 92.9109 67.2561L92.5015 67.1574C92.5113 67.1015 92.5212 66.9354 92.5311 66.6591C92.5442 66.3862 92.5508 65.9882 92.5508 65.4653V65.2137C92.5508 64.9506 92.434 64.819 92.2005 64.819H90.9425C90.8307 64.819 90.7435 64.847 90.6811 64.9029C90.6219 64.9621 90.5923 65.0657 90.5923 65.2137V65.4159C90.5923 65.9619 90.5972 66.3845 90.6071 66.6838C90.6202 66.9864 90.6334 67.1738 90.6465 67.2462L90.3209 67.4485C90.3045 67.4485 90.2798 67.4205 90.2469 67.3646C90.214 67.312 90.1844 67.2133 90.1581 67.0686C90.1318 66.9239 90.1187 66.715 90.1187 66.4421V65.0706ZM90.1187 68.4444C90.1187 68.2241 90.1631 68.0596 90.2519 67.9511C90.3407 67.8458 90.4854 67.7932 90.686 67.7932H91.6973C91.7467 67.7932 91.8059 67.7965 91.8749 67.8031C91.9473 67.8129 92.018 67.836 92.0871 67.8721C92.1561 67.9116 92.2137 67.9757 92.2597 68.0645C92.3058 68.1566 92.3288 68.2833 92.3288 68.4444V69.806C92.3288 69.9705 92.3058 70.0971 92.2597 70.1859C92.2137 70.2747 92.1561 70.3372 92.0871 70.3733C92.018 70.4128 91.9473 70.4358 91.8749 70.4424C91.8059 70.4523 91.7467 70.4572 91.6973 70.4572H90.7501C90.6909 70.4572 90.6251 70.4523 90.5528 70.4424C90.4804 70.4358 90.4114 70.4128 90.3456 70.3733C90.2798 70.3339 90.2255 70.2698 90.1828 70.181C90.14 70.0921 90.1187 69.9672 90.1187 69.806V68.4444ZM90.5429 68.6319V69.6185C90.5429 69.7797 90.6087 69.8603 90.7403 69.8603H91.7072C91.8387 69.8603 91.9045 69.7797 91.9045 69.6185V68.6319C91.9045 68.474 91.8387 68.3951 91.7072 68.3951H90.7403C90.6087 68.3951 90.5429 68.474 90.5429 68.6319ZM90.1187 70.9981H92.3288V71.4027L92.2301 71.6C92.2564 71.7381 92.2795 71.9042 92.2992 72.0983C92.3189 72.2923 92.3288 72.5143 92.3288 72.7643V73.0109C92.3288 73.1754 92.3058 73.302 92.2597 73.3908C92.2137 73.4796 92.1561 73.5421 92.0871 73.5783C92.018 73.6177 91.9473 73.6408 91.8749 73.6473C91.8059 73.6572 91.7467 73.6621 91.6973 73.6621H90.1187V73.0603H91.7072C91.8387 73.0603 91.9045 72.9813 91.9045 72.8235V71.748C91.9045 71.6855 91.8979 71.6444 91.8848 71.6247C91.8749 71.6082 91.8453 71.6 91.796 71.6H90.1187V70.9981ZM90.1187 75.0892C90.1187 74.8393 90.1713 74.6683 90.2765 74.5762C90.3818 74.4841 90.5396 74.438 90.7501 74.438H91.9045V74.0335H92.3288V74.2407C92.3288 74.3032 92.3387 74.3476 92.3584 74.3739C92.3781 74.4035 92.4176 74.4249 92.4768 74.438L93.0047 74.5367V75.0399H92.3288V76.066H91.9045V75.0399H90.7452C90.663 75.0399 90.6087 75.0596 90.5824 75.0991C90.5561 75.1386 90.5429 75.1978 90.5429 75.2767V75.9723L90.168 76.0216C90.1581 75.9526 90.1466 75.8473 90.1335 75.7059C90.1236 75.5645 90.1187 75.4099 90.1187 75.2422V75.0892ZM90.1187 77.0978C90.1187 76.8479 90.1762 76.667 90.2913 76.5552C90.4097 76.4433 90.5709 76.3874 90.7748 76.3874C90.9886 76.3874 91.153 76.445 91.2681 76.5601C91.3832 76.6785 91.4408 76.8577 91.4408 77.0978V77.3494C91.4408 77.5961 91.4342 77.8181 91.4211 78.0154C91.4079 78.2128 91.3947 78.3756 91.3816 78.5038H91.7072C91.7368 78.5038 91.7664 78.5005 91.796 78.494C91.8289 78.4874 91.8552 78.4677 91.8749 78.4348C91.8947 78.4019 91.9045 78.346 91.9045 78.267V78.0204C91.9045 77.6619 91.8979 77.3626 91.8848 77.1225C91.8749 76.8824 91.8651 76.7196 91.8552 76.6341L92.2301 76.5798C92.2762 76.5798 92.3041 76.7048 92.314 76.9548C92.3239 77.2047 92.3288 77.6224 92.3288 78.2078V78.4545C92.3288 78.6189 92.3058 78.7456 92.2597 78.8344C92.2137 78.9232 92.1561 78.9857 92.0871 79.0218C92.018 79.0613 91.9473 79.0843 91.8749 79.0909C91.8059 79.1008 91.7467 79.1057 91.6973 79.1057H90.1187V78.7012L90.2173 78.5088C90.1943 78.3706 90.1713 78.2045 90.1483 78.0105C90.1285 77.8165 90.1187 77.5945 90.1187 77.3445V77.0978ZM90.5429 77.2261V78.3558C90.5429 78.4282 90.5495 78.4709 90.5627 78.4841C90.5758 78.4973 90.6169 78.5038 90.686 78.5038H91.0659V77.2261C91.0659 77.1373 91.0445 77.0748 91.0017 77.0386C90.959 77.0057 90.8915 76.9893 90.7995 76.9893C90.7074 76.9893 90.6416 77.009 90.6021 77.0485C90.5627 77.088 90.5429 77.1472 90.5429 77.2261ZM90.1187 80.2767C90.1187 80.1123 90.14 79.9856 90.1828 79.8968C90.2255 79.808 90.2798 79.7439 90.3456 79.7044C90.4114 79.6683 90.4804 79.6452 90.5528 79.6354C90.6251 79.6288 90.6909 79.6255 90.7501 79.6255H91.6973C91.7467 79.6255 91.8059 79.6288 91.8749 79.6354C91.9473 79.6452 92.018 79.6683 92.0871 79.7044C92.1561 79.7439 92.2137 79.808 92.2597 79.8968C92.3058 79.9889 92.3288 80.1156 92.3288 80.2767V80.9624C92.3288 81.3736 92.3173 81.6646 92.2943 81.8356C92.2745 82.01 92.2531 82.0971 92.2301 82.0971L91.8552 81.9984C91.8618 81.9064 91.8683 81.7896 91.8749 81.6482C91.8848 81.5068 91.8914 81.3538 91.8947 81.1894C91.9012 81.0282 91.9045 80.8704 91.9045 80.7158V80.4642C91.9045 80.3063 91.8387 80.2274 91.7072 80.2274H90.7403C90.6087 80.2241 90.5429 80.303 90.5429 80.4642V80.7158C90.5429 80.8934 90.5446 81.066 90.5479 81.2338C90.5544 81.4048 90.561 81.561 90.5676 81.7024C90.5775 81.8439 90.5857 81.9573 90.5923 82.0428L90.2716 82.2402C90.1696 82.2402 90.1187 81.9162 90.1187 81.2683V80.2767ZM90.1187 83.4431C90.1187 83.1932 90.1713 83.0222 90.2765 82.9301C90.3818 82.838 90.5396 82.7919 90.7501 82.7919H91.9045V82.3874H92.3288V82.5946C92.3288 82.6571 92.3387 82.7015 92.3584 82.7278C92.3781 82.7574 92.4176 82.7788 92.4768 82.7919L93.0047 82.8906V83.3938H92.3288V84.4199H91.9045V83.3938H90.7452C90.663 83.3938 90.6087 83.4135 90.5824 83.453C90.5561 83.4925 90.5429 83.5517 90.5429 83.6306V84.3262L90.168 84.3755C90.1581 84.3065 90.1466 84.2012 90.1335 84.0598C90.1236 83.9184 90.1187 83.7638 90.1187 83.5961V83.4431Z" fill="#2A1919"/>
<path d="M59.4333 60.1184H60.3398V60.3219H59.4333V60.1184ZM59.4333 60.5377H60.124V60.6641L60.0932 60.7258C60.1014 60.769 60.1086 60.8209 60.1148 60.8815C60.1209 60.9421 60.124 61.0115 60.124 61.0896V61.1667C60.124 61.2181 60.1168 61.2577 60.1024 61.2854C60.088 61.3132 60.0701 61.3327 60.0485 61.344C60.0269 61.3563 60.0048 61.3635 59.9822 61.3656C59.9606 61.3687 59.9421 61.3702 59.9267 61.3702H59.4333V61.1821H59.9298C59.9709 61.1821 59.9914 61.1575 59.9914 61.1081V60.772C59.9914 60.7525 59.9894 60.7397 59.9853 60.7335C59.9822 60.7284 59.9729 60.7258 59.9575 60.7258H59.4333V60.5377ZM59.4333 62.1549C59.4333 62.0768 59.4498 62.0234 59.4827 61.9946C59.5156 61.9658 59.5649 61.9514 59.6307 61.9514H59.9914V61.825H60.124V61.8897C60.124 61.9093 60.1271 61.9232 60.1333 61.9314C60.1394 61.9406 60.1518 61.9473 60.1703 61.9514L60.3352 61.9822V62.1395H60.124V62.4602H59.9914V62.1395H59.6291C59.6034 62.1395 59.5865 62.1457 59.5783 62.158C59.57 62.1703 59.5659 62.1888 59.5659 62.2135V62.4309L59.4488 62.4463C59.4457 62.4247 59.4421 62.3918 59.438 62.3476C59.4349 62.3034 59.4333 62.2551 59.4333 62.2027V62.1549ZM59.4333 62.5837H60.4323V62.7718H60.0932C60.1014 62.815 60.1086 62.8669 60.1148 62.9275C60.1209 62.9882 60.124 63.0575 60.124 63.1356V63.2127C60.124 63.2641 60.1168 63.3037 60.1024 63.3314C60.088 63.3592 60.0701 63.3787 60.0485 63.39C60.0269 63.4024 60.0048 63.4095 59.9822 63.4116C59.9606 63.4147 59.9421 63.4162 59.9267 63.4162H59.4333V63.2281H59.9298C59.9709 63.2281 59.9914 63.2035 59.9914 63.1541V62.8181C59.9914 62.7985 59.9894 62.7857 59.9853 62.7795C59.9822 62.7744 59.9729 62.7718 59.9575 62.7718H59.4333V62.5837ZM59.4333 63.5939H60.124V63.7204L60.0932 63.7789C60.1076 63.8057 60.1189 63.8344 60.1271 63.8653C60.1353 63.8961 60.1394 63.9352 60.1394 63.9824C60.1394 64.0575 60.1312 64.1181 60.1148 64.1644C60.0983 64.2116 60.086 64.243 60.0778 64.2584L59.9436 64.2044C59.9498 64.1921 59.9575 64.1716 59.9668 64.1428C59.977 64.115 59.9863 64.0821 59.9945 64.0441C60.0027 64.0061 60.0068 63.9645 60.0068 63.9192V63.9023C60.0068 63.8529 59.9971 63.8206 59.9776 63.8051C59.958 63.7908 59.9257 63.7831 59.8804 63.782H59.4333V63.5939ZM59.4333 64.5544C59.4333 64.503 59.44 64.4634 59.4534 64.4357C59.4668 64.4079 59.4837 64.3879 59.5043 64.3755C59.5248 64.3642 59.5464 64.357 59.569 64.3539C59.5916 64.3519 59.6122 64.3509 59.6307 64.3509H59.9267C59.9421 64.3509 59.9606 64.3519 59.9822 64.3539C60.0048 64.357 60.0269 64.3642 60.0485 64.3755C60.0701 64.3879 60.088 64.4079 60.1024 64.4357C60.1168 64.4644 60.124 64.504 60.124 64.5544V64.8858C60.124 64.9537 60.1173 65.0066 60.104 65.0446C60.0916 65.0837 60.0711 65.1109 60.0423 65.1263C60.0135 65.1428 59.975 65.151 59.9267 65.151H59.6985V64.8812C59.6985 64.7887 59.7006 64.7132 59.7047 64.6546C59.7088 64.597 59.7114 64.5585 59.7124 64.5389H59.6276C59.5865 64.5379 59.5659 64.5626 59.5659 64.6129V64.6916C59.5659 64.7471 59.5664 64.801 59.5675 64.8534C59.5695 64.9069 59.5716 64.9557 59.5736 64.9999C59.5767 65.0441 59.5793 65.0796 59.5813 65.1063L59.4811 65.1679C59.4493 65.1679 59.4333 65.0667 59.4333 64.8642V64.5544ZM59.8311 64.5389V64.9629H59.9298C59.9503 64.9629 59.9647 64.9603 59.9729 64.9552C59.9812 64.9511 59.9863 64.9377 59.9883 64.9151C59.9904 64.8925 59.9914 64.854 59.9914 64.7995V64.6129C59.9914 64.5636 59.9709 64.5389 59.9298 64.5389H59.8311ZM59.4333 65.5104C59.4333 65.459 59.44 65.4194 59.4534 65.3917C59.4668 65.3639 59.4837 65.3439 59.5043 65.3315C59.5248 65.3202 59.5464 65.313 59.569 65.31C59.5916 65.3079 59.6122 65.3069 59.6307 65.3069H59.9267C59.9421 65.3069 59.9606 65.3079 59.9822 65.31C60.0048 65.313 60.0269 65.3202 60.0485 65.3315C60.0701 65.3439 60.088 65.3639 60.1024 65.3917C60.1168 65.4204 60.124 65.46 60.124 65.5104V65.8418C60.124 65.9097 60.1173 65.9626 60.104 66.0006C60.0916 66.0397 60.0711 66.0669 60.0423 66.0823C60.0135 66.0988 59.975 66.107 59.9267 66.107H59.6985V65.8372C59.6985 65.7447 59.7006 65.6692 59.7047 65.6106C59.7088 65.553 59.7114 65.5145 59.7124 65.495H59.6276C59.5865 65.4939 59.5659 65.5186 59.5659 65.569V65.6476C59.5659 65.7031 59.5664 65.757 59.5675 65.8095C59.5695 65.8629 59.5716 65.9117 59.5736 65.9559C59.5767 66.0001 59.5793 66.0356 59.5813 66.0623L59.4811 66.124C59.4493 66.124 59.4333 66.0227 59.4333 65.8203V65.5104ZM59.8311 65.495V65.9189H59.9298C59.9503 65.9189 59.9647 65.9163 59.9729 65.9112C59.9812 65.9071 59.9863 65.8937 59.9883 65.8711C59.9904 65.8485 59.9914 65.81 59.9914 65.7555V65.569C59.9914 65.5196 59.9709 65.495 59.9298 65.495H59.8311ZM59.4333 66.6171H60.124V66.7435L60.1055 66.782C60.1107 66.8118 60.1148 66.8483 60.1178 66.8915C60.122 66.9346 60.124 66.986 60.124 67.0456V67.1227C60.124 67.1525 60.1199 67.1813 60.1117 67.2091C60.1045 67.2368 60.0937 67.2574 60.0793 67.2707C60.0927 67.2974 60.1035 67.3344 60.1117 67.3817C60.1199 67.429 60.124 67.4907 60.124 67.5667V67.6438C60.124 67.6952 60.1168 67.7348 60.1024 67.7625C60.088 67.7903 60.0701 67.8098 60.0485 67.8211C60.0269 67.8334 60.0048 67.8406 59.9822 67.8427C59.9606 67.8458 59.9421 67.8473 59.9267 67.8473H59.4333V67.6592H59.9298C59.9709 67.6592 59.9914 67.6346 59.9914 67.5852V67.3694C59.9914 67.3529 59.9894 67.3416 59.9853 67.3355C59.9812 67.3293 59.9719 67.3262 59.9575 67.3262H59.4333V67.1381H59.9298C59.9709 67.1381 59.9914 67.1135 59.9914 67.0641V66.8514C59.9914 66.8319 59.9894 66.819 59.9853 66.8128C59.9822 66.8077 59.9729 66.8051 59.9575 66.8051H59.4333V66.6171ZM59.4333 68.2128C59.4333 68.1439 59.4472 68.0926 59.475 68.0586C59.5027 68.0258 59.5479 68.0093 59.6106 68.0093H59.9267C59.9421 68.0093 59.9606 68.0103 59.9822 68.0124C60.0048 68.0155 60.0269 68.0227 60.0485 68.034C60.0701 68.0463 60.088 68.0664 60.1024 68.0941C60.1168 68.1229 60.124 68.1624 60.124 68.2128V68.6383C60.124 68.6897 60.1168 68.7293 60.1024 68.757C60.088 68.7848 60.0701 68.8043 60.0485 68.8156C60.0269 68.8279 60.0048 68.8351 59.9822 68.8372C59.9606 68.8403 59.9421 68.8418 59.9267 68.8418H59.6307C59.6122 68.8418 59.5916 68.8403 59.569 68.8372C59.5464 68.8351 59.5248 68.8279 59.5043 68.8156C59.4837 68.8033 59.4668 68.7832 59.4534 68.7555C59.44 68.7277 59.4333 68.6887 59.4333 68.6383V68.2128ZM59.5659 68.2714V68.5797C59.5659 68.6301 59.5865 68.6553 59.6276 68.6553H59.9298C59.9709 68.6553 59.9914 68.6301 59.9914 68.5797V68.2714C59.9914 68.2221 59.9709 68.1974 59.9298 68.1974H59.6276C59.5865 68.1974 59.5659 68.2221 59.5659 68.2714ZM59.4333 69.0109H60.124V69.1373L60.0932 69.1989C60.1014 69.2421 60.1086 69.294 60.1148 69.3546C60.1209 69.4153 60.124 69.4847 60.124 69.5628V69.6399C60.124 69.6912 60.1168 69.7308 60.1024 69.7586C60.088 69.7863 60.0701 69.8058 60.0485 69.8171C60.0269 69.8295 60.0048 69.8367 59.9822 69.8387C59.9606 69.8418 59.9421 69.8434 59.9267 69.8434H59.4333V69.6553H59.9298C59.9709 69.6553 59.9914 69.6306 59.9914 69.5813V69.2452C59.9914 69.2257 59.9894 69.2128 59.9853 69.2066C59.9822 69.2015 59.9729 69.1989 59.9575 69.1989H59.4333V69.0109ZM59.4333 70.2893C59.4333 70.2112 59.4498 70.1578 59.4827 70.129C59.5156 70.1002 59.5649 70.0858 59.6307 70.0858H59.9914V69.9594H60.124V70.0241C60.124 70.0437 60.1271 70.0576 60.1333 70.0658C60.1394 70.075 60.1518 70.0817 60.1703 70.0858L60.3352 70.1166V70.2739H60.124V70.5946H59.9914V70.2739H59.6291C59.6034 70.2739 59.5865 70.2801 59.5783 70.2924C59.57 70.3047 59.5659 70.3232 59.5659 70.3479V70.5653L59.4488 70.5807C59.4457 70.5591 59.4421 70.5262 59.438 70.482C59.4349 70.4378 59.4333 70.3895 59.4333 70.3371V70.2893ZM59.4333 70.7181H60.4323V70.9062H60.0932C60.1014 70.9494 60.1086 71.0013 60.1148 71.0619C60.1209 71.1226 60.124 71.1919 60.124 71.27V71.3471C60.124 71.3985 60.1168 71.4381 60.1024 71.4658C60.088 71.4936 60.0701 71.5131 60.0485 71.5244C60.0269 71.5368 60.0048 71.5439 59.9822 71.546C59.9606 71.5491 59.9421 71.5506 59.9267 71.5506H59.4333V71.3625H59.9298C59.9709 71.3625 59.9914 71.3379 59.9914 71.2885V70.9525C59.9914 70.9329 59.9894 70.9201 59.9853 70.9139C59.9822 70.9088 59.9729 70.9062 59.9575 70.9062H59.4333V70.7181ZM59.4333 71.9025C59.4333 71.8337 59.4369 71.7849 59.4441 71.7561C59.4513 71.7273 59.4585 71.7129 59.4657 71.7129L59.5813 71.7592C59.5783 71.789 59.5747 71.8435 59.5706 71.9226C59.5675 72.0028 59.5659 72.1014 59.5659 72.2186V72.2957C59.5659 72.3214 59.5726 72.3373 59.586 72.3435C59.6004 72.3507 59.6194 72.3543 59.643 72.3543C59.6667 72.3543 59.6857 72.3501 59.7001 72.3419C59.7144 72.3347 59.7216 72.3193 59.7216 72.2957V71.9164C59.7216 71.8445 59.735 71.7926 59.7617 71.7607C59.7895 71.7289 59.8306 71.7129 59.8851 71.7129H59.9467C59.9611 71.7129 59.9781 71.7145 59.9976 71.7175C60.0171 71.7206 60.0367 71.7283 60.0562 71.7407C60.0757 71.753 60.0916 71.773 60.104 71.8008C60.1173 71.8285 60.124 71.8671 60.124 71.9164V72.3419C60.124 72.4036 60.1204 72.4473 60.1132 72.473C60.106 72.4987 60.0988 72.5115 60.0916 72.5115L59.976 72.4961C59.9791 72.4663 59.9822 72.4113 59.9853 72.3311C59.9894 72.251 59.9914 72.1528 59.9914 72.0367V71.9596C59.9914 71.9339 59.9842 71.9175 59.9698 71.9103C59.9565 71.9041 59.9406 71.901 59.9221 71.901C59.9025 71.901 59.8861 71.9041 59.8727 71.9103C59.8604 71.9175 59.8542 71.9339 59.8542 71.9596V72.3388C59.8542 72.4087 59.8398 72.4601 59.8111 72.493C59.7823 72.5259 59.7458 72.5423 59.7016 72.5423H59.6106C59.5921 72.5423 59.5726 72.5408 59.5521 72.5377C59.5315 72.5357 59.512 72.5285 59.4935 72.5161C59.476 72.5038 59.4616 72.4838 59.4503 72.456C59.439 72.4283 59.4333 72.3892 59.4333 72.3388V71.9025ZM59.2206 72.7515C59.2144 72.73 59.2175 72.7171 59.2298 72.713C59.2412 72.7099 59.253 72.712 59.2653 72.7192C59.2735 72.7253 59.2869 72.7335 59.3054 72.7438C59.3239 72.7551 59.345 72.7659 59.3686 72.7762C59.3912 72.7865 59.4143 72.7932 59.438 72.7962C59.4421 72.7695 59.4518 72.75 59.4673 72.7377C59.4827 72.7253 59.5063 72.7192 59.5382 72.7192C59.5742 72.7192 59.5993 72.7274 59.6137 72.7438C59.6291 72.7613 59.6368 72.7896 59.6368 72.8286C59.6368 72.8708 59.6276 72.9021 59.6091 72.9227C59.5916 72.9442 59.5623 72.955 59.5212 72.955C59.4914 72.955 59.4601 72.9484 59.4272 72.935C59.3943 72.9227 59.3635 72.9062 59.3347 72.8857C59.3049 72.8651 59.2802 72.843 59.2607 72.8194C59.2401 72.7957 59.2268 72.7731 59.2206 72.7515ZM59.4333 73.5402H60.3398V73.7437H59.4333V73.5402ZM59.4333 74.2983H60.4323V74.4864H60.0932C60.1014 74.5295 60.1086 74.5814 60.1148 74.6421C60.1209 74.7027 60.124 74.7721 60.124 74.8502V74.9273C60.124 74.9787 60.1168 75.0182 60.1024 75.046C60.088 75.0737 60.0701 75.0933 60.0485 75.1046C60.0269 75.1169 60.0048 75.1241 59.9822 75.1262C59.9606 75.1292 59.9421 75.1308 59.9267 75.1308H59.4333V74.9427H59.9298C59.9709 74.9427 59.9914 74.918 59.9914 74.8687V74.5326C59.9914 74.5131 59.9894 74.5002 59.9853 74.4941C59.9822 74.4889 59.9729 74.4864 59.9575 74.4864H59.4333V74.2983ZM59.4333 75.4966C59.4333 75.4277 59.4472 75.3763 59.475 75.3424C59.5027 75.3095 59.5479 75.2931 59.6106 75.2931H59.9267C59.9421 75.2931 59.9606 75.2941 59.9822 75.2962C60.0048 75.2992 60.0269 75.3064 60.0485 75.3177C60.0701 75.3301 60.088 75.3501 60.1024 75.3779C60.1168 75.4067 60.124 75.4462 60.124 75.4966V75.9221C60.124 75.9735 60.1168 76.013 60.1024 76.0408C60.088 76.0685 60.0701 76.0881 60.0485 76.0994C60.0269 76.1117 60.0048 76.1189 59.9822 76.121C59.9606 76.124 59.9421 76.1256 59.9267 76.1256H59.6307C59.6122 76.1256 59.5916 76.124 59.569 76.121C59.5464 76.1189 59.5248 76.1117 59.5043 76.0994C59.4837 76.087 59.4668 76.067 59.4534 76.0392C59.44 76.0115 59.4333 75.9724 59.4333 75.9221V75.4966ZM59.5659 75.5552V75.8635C59.5659 75.9139 59.5865 75.939 59.6276 75.939H59.9298C59.9709 75.939 59.9914 75.9139 59.9914 75.8635V75.5552C59.9914 75.5058 59.9709 75.4812 59.9298 75.4812H59.6276C59.5865 75.4812 59.5659 75.5058 59.5659 75.5552ZM59.1466 76.2946H60.124V76.421L60.104 76.4596C60.1091 76.5058 60.1137 76.5608 60.1178 76.6245C60.122 76.6893 60.124 76.7628 60.124 76.845V76.9236C60.124 76.975 60.1173 77.0146 60.104 77.0423C60.0906 77.0701 60.0737 77.0896 60.0531 77.1009C60.0325 77.1132 60.011 77.1204 59.9883 77.1225C59.9657 77.1256 59.9452 77.1271 59.9267 77.1271H59.6307C59.6153 77.1271 59.5963 77.1256 59.5736 77.1225C59.5521 77.1204 59.5305 77.1132 59.5089 77.1009C59.4873 77.0896 59.4693 77.0701 59.4549 77.0423C59.4405 77.0146 59.4333 76.975 59.4333 76.9236V76.845C59.4333 76.7669 59.4354 76.6975 59.4395 76.6369C59.4436 76.5762 59.4477 76.5248 59.4518 76.4827H59.1466V76.2946ZM59.5659 76.5305V76.865C59.5659 76.8846 59.5711 76.9015 59.5813 76.9159C59.5916 76.9313 59.607 76.939 59.6276 76.939H59.9298C59.9524 76.9401 59.9683 76.9344 59.9776 76.9221C59.9868 76.9108 59.9914 76.8918 59.9914 76.865V76.788C59.9914 76.7222 59.9899 76.6636 59.9868 76.6122C59.9848 76.5618 59.9822 76.5187 59.9791 76.4827H59.6137C59.5911 76.4827 59.5772 76.4848 59.5721 76.4889C59.568 76.494 59.5659 76.5079 59.5659 76.5305ZM59.4333 77.4854C59.4333 77.434 59.44 77.3944 59.4534 77.3667C59.4668 77.3389 59.4837 77.3189 59.5043 77.3066C59.5248 77.2953 59.5464 77.2881 59.569 77.285C59.5916 77.2829 59.6122 77.2819 59.6307 77.2819H59.9267C59.9421 77.2819 59.9606 77.2829 59.9822 77.285C60.0048 77.2881 60.0269 77.2953 60.0485 77.3066C60.0701 77.3189 60.088 77.3389 60.1024 77.3667C60.1168 77.3955 60.124 77.435 60.124 77.4854V77.8169C60.124 77.8847 60.1173 77.9376 60.104 77.9756C60.0916 78.0147 60.0711 78.0419 60.0423 78.0574C60.0135 78.0738 59.975 78.082 59.9267 78.082H59.6985V77.8122C59.6985 77.7197 59.7006 77.6442 59.7047 77.5856C59.7088 77.528 59.7114 77.4895 59.7124 77.47H59.6276C59.5865 77.4689 59.5659 77.4936 59.5659 77.544V77.6226C59.5659 77.6781 59.5664 77.7321 59.5675 77.7845C59.5695 77.8379 59.5716 77.8867 59.5736 77.9309C59.5767 77.9751 59.5793 78.0106 59.5813 78.0373L59.4811 78.099C59.4493 78.099 59.4333 77.9977 59.4333 77.7953V77.4854ZM59.8311 77.47V77.8939H59.9298C59.9503 77.8939 59.9647 77.8914 59.9729 77.8862C59.9812 77.8821 59.9863 77.8688 59.9883 77.8461C59.9904 77.8235 59.9914 77.785 59.9914 77.7305V77.544C59.9914 77.4946 59.9709 77.47 59.9298 77.47H59.8311ZM59.4333 78.8603C59.4333 78.7822 59.4498 78.7288 59.4827 78.7C59.5156 78.6712 59.5649 78.6568 59.6307 78.6568H59.9914V78.5304H60.124V78.5952C60.124 78.6147 60.1271 78.6286 60.1333 78.6368C60.1394 78.646 60.1518 78.6527 60.1703 78.6568L60.3352 78.6877V78.8449H60.124V79.1656H59.9914V78.8449H59.6291C59.6034 78.8449 59.5865 78.8511 59.5783 78.8634C59.57 78.8757 59.5659 78.8942 59.5659 78.9189V79.1363L59.4488 79.1517C59.4457 79.1301 59.4421 79.0972 59.438 79.053C59.4349 79.0088 59.4333 78.9605 59.4333 78.9081V78.8603ZM59.4333 79.4772C59.4333 79.4084 59.4472 79.357 59.475 79.323C59.5027 79.2902 59.5479 79.2737 59.6106 79.2737H59.9267C59.9421 79.2737 59.9606 79.2747 59.9822 79.2768C60.0048 79.2799 60.0269 79.2871 60.0485 79.2984C60.0701 79.3107 60.088 79.3308 60.1024 79.3585C60.1168 79.3873 60.124 79.4269 60.124 79.4772V79.9027C60.124 79.9541 60.1168 79.9937 60.1024 80.0214C60.088 80.0492 60.0701 80.0687 60.0485 80.08C60.0269 80.0923 60.0048 80.0995 59.9822 80.1016C59.9606 80.1047 59.9421 80.1062 59.9267 80.1062H59.6307C59.6122 80.1062 59.5916 80.1047 59.569 80.1016C59.5464 80.0995 59.5248 80.0923 59.5043 80.08C59.4837 80.0677 59.4668 80.0476 59.4534 80.0199C59.44 79.9921 59.4333 79.9531 59.4333 79.9027V79.4772ZM59.5659 79.5358V79.8441C59.5659 79.8945 59.5865 79.9197 59.6276 79.9197H59.9298C59.9709 79.9197 59.9914 79.8945 59.9914 79.8441V79.5358C59.9914 79.4865 59.9709 79.4618 59.9298 79.4618H59.6276C59.5865 79.4618 59.5659 79.4865 59.5659 79.5358ZM59.4333 80.614H60.4108V80.8021H60.1055C60.1107 80.8463 60.1148 80.8982 60.1178 80.9578C60.122 81.0184 60.124 81.0873 60.124 81.1644V81.243C60.124 81.2944 60.1173 81.334 60.104 81.3617C60.0906 81.3895 60.0737 81.409 60.0531 81.4203C60.0325 81.4326 60.011 81.4398 59.9883 81.4419C59.9657 81.445 59.9452 81.4465 59.9267 81.4465H59.6307C59.6153 81.4465 59.5963 81.445 59.5736 81.4419C59.5521 81.4398 59.5305 81.4326 59.5089 81.4203C59.4873 81.409 59.4693 81.3895 59.4549 81.3617C59.4405 81.334 59.4333 81.2944 59.4333 81.243V81.1644C59.4333 81.0791 59.4354 81.0046 59.4395 80.9408C59.4447 80.8771 59.4498 80.8242 59.4549 80.782L59.4333 80.7404V80.614ZM59.5659 80.8499V81.1844C59.5659 81.2337 59.5865 81.2584 59.6276 81.2584H59.9298C59.9524 81.2594 59.9683 81.2548 59.9776 81.2445C59.9868 81.2343 59.9914 81.2142 59.9914 81.1844V81.1073C59.9914 81.0416 59.9899 80.983 59.9868 80.9316C59.9848 80.8812 59.9822 80.8381 59.9791 80.8021H59.6137C59.5921 80.8021 59.5788 80.8041 59.5736 80.8082C59.5685 80.8134 59.5659 80.8273 59.5659 80.8499ZM59.4333 81.8048C59.4333 81.7534 59.44 81.7138 59.4534 81.6861C59.4668 81.6583 59.4837 81.6383 59.5043 81.6259C59.5248 81.6146 59.5464 81.6074 59.569 81.6044C59.5916 81.6023 59.6122 81.6013 59.6307 81.6013H59.9267C59.9421 81.6013 59.9606 81.6023 59.9822 81.6044C60.0048 81.6074 60.0269 81.6146 60.0485 81.6259C60.0701 81.6383 60.088 81.6583 60.1024 81.6861C60.1168 81.7148 60.124 81.7544 60.124 81.8048V82.1362C60.124 82.2041 60.1173 82.257 60.104 82.295C60.0916 82.3341 60.0711 82.3613 60.0423 82.3767C60.0135 82.3932 59.975 82.4014 59.9267 82.4014H59.6985V82.1316C59.6985 82.0391 59.7006 81.9636 59.7047 81.905C59.7088 81.8474 59.7114 81.8089 59.7124 81.7894H59.6276C59.5865 81.7883 59.5659 81.813 59.5659 81.8634V81.942C59.5659 81.9975 59.5664 82.0514 59.5675 82.1039C59.5695 82.1573 59.5716 82.2061 59.5736 82.2503C59.5767 82.2945 59.5793 82.33 59.5813 82.3567L59.4811 82.4184C59.4493 82.4184 59.4333 82.3171 59.4333 82.1146V81.8048ZM59.8311 81.7894V82.2133H59.9298C59.9503 82.2133 59.9647 82.2107 59.9729 82.2056C59.9812 82.2015 59.9863 82.1881 59.9883 82.1655C59.9904 82.1429 59.9914 82.1044 59.9914 82.0499V81.8634C59.9914 81.814 59.9709 81.7894 59.9298 81.7894H59.8311ZM59.4333 82.7608C59.4333 82.7094 59.44 82.6698 59.4534 82.6421C59.4668 82.6143 59.4837 82.5943 59.5043 82.5819C59.5248 82.5706 59.5464 82.5634 59.569 82.5604C59.5916 82.5583 59.6122 82.5573 59.6307 82.5573H59.9267C59.9421 82.5573 59.9606 82.5583 59.9822 82.5604C60.0048 82.5634 60.0269 82.5706 60.0485 82.5819C60.0701 82.5943 60.088 82.6143 60.1024 82.6421C60.1168 82.6709 60.124 82.7104 60.124 82.7608V82.9751C60.124 83.1035 60.1204 83.1945 60.1132 83.2479C60.1071 83.3024 60.1004 83.3297 60.0932 83.3297L59.976 83.2988C59.9781 83.27 59.9801 83.2336 59.9822 83.1894C59.9853 83.1452 59.9873 83.0974 59.9883 83.046C59.9904 82.9956 59.9914 82.9463 59.9914 82.898V82.8194C59.9914 82.77 59.9709 82.7454 59.9298 82.7454H59.6276C59.5865 82.7443 59.5659 82.769 59.5659 82.8194V82.898C59.5659 82.9535 59.5664 83.0074 59.5675 83.0599C59.5695 83.1133 59.5716 83.1621 59.5736 83.2063C59.5767 83.2505 59.5793 83.286 59.5813 83.3127L59.4811 83.3744C59.4493 83.3744 59.4333 83.2731 59.4333 83.0707V82.7608ZM59.4333 83.6701C59.4333 83.6013 59.4472 83.5499 59.475 83.516C59.5027 83.4831 59.5479 83.4666 59.6106 83.4666H59.9267C59.9421 83.4666 59.9606 83.4677 59.9822 83.4697C60.0048 83.4728 60.0269 83.48 60.0485 83.4913C60.0701 83.5036 60.088 83.5237 60.1024 83.5514C60.1168 83.5802 60.124 83.6198 60.124 83.6701V84.0956C60.124 84.147 60.1168 84.1866 60.1024 84.2143C60.088 84.2421 60.0701 84.2616 60.0485 84.2729C60.0269 84.2852 60.0048 84.2924 59.9822 84.2945C59.9606 84.2976 59.9421 84.2991 59.9267 84.2991H59.6307C59.6122 84.2991 59.5916 84.2976 59.569 84.2945C59.5464 84.2924 59.5248 84.2852 59.5043 84.2729C59.4837 84.2606 59.4668 84.2405 59.4534 84.2128C59.44 84.185 59.4333 84.146 59.4333 84.0956V83.6701ZM59.5659 83.7287V84.037C59.5659 84.0874 59.5865 84.1126 59.6276 84.1126H59.9298C59.9709 84.1126 59.9914 84.0874 59.9914 84.037V83.7287C59.9914 83.6794 59.9709 83.6547 59.9298 83.6547H59.6276C59.5865 83.6547 59.5659 83.6794 59.5659 83.7287ZM59.4333 84.4682H60.124V84.5946L60.1055 84.6331C60.1107 84.6629 60.1148 84.6994 60.1178 84.7426C60.122 84.7858 60.124 84.8371 60.124 84.8968V84.9738C60.124 85.0036 60.1199 85.0324 60.1117 85.0602C60.1045 85.0879 60.0937 85.1085 60.0793 85.1218C60.0927 85.1486 60.1035 85.1856 60.1117 85.2328C60.1199 85.2801 60.124 85.3418 60.124 85.4178V85.4949C60.124 85.5463 60.1168 85.5859 60.1024 85.6136C60.088 85.6414 60.0701 85.6609 60.0485 85.6722C60.0269 85.6845 60.0048 85.6917 59.9822 85.6938C59.9606 85.6969 59.9421 85.6984 59.9267 85.6984H59.4333V85.5103H59.9298C59.9709 85.5103 59.9914 85.4857 59.9914 85.4363V85.2205C59.9914 85.2041 59.9894 85.1928 59.9853 85.1866C59.9812 85.1804 59.9719 85.1773 59.9575 85.1773H59.4333V84.9893H59.9298C59.9709 84.9893 59.9914 84.9646 59.9914 84.9153V84.7025C59.9914 84.683 59.9894 84.6701 59.9853 84.664C59.9822 84.6588 59.9729 84.6563 59.9575 84.6563H59.4333V84.4682ZM59.4333 86.0639C59.4333 86.0125 59.44 85.973 59.4534 85.9452C59.4668 85.9175 59.4837 85.8974 59.5043 85.8851C59.5248 85.8738 59.5464 85.8666 59.569 85.8635C59.5916 85.8615 59.6122 85.8604 59.6307 85.8604H59.9267C59.9421 85.8604 59.9606 85.8615 59.9822 85.8635C60.0048 85.8666 60.0269 85.8738 60.0485 85.8851C60.0701 85.8974 60.088 85.9175 60.1024 85.9452C60.1168 85.974 60.124 86.0136 60.124 86.0639V86.3954C60.124 86.4632 60.1173 86.5161 60.104 86.5542C60.0916 86.5932 60.0711 86.6205 60.0423 86.6359C60.0135 86.6523 59.975 86.6605 59.9267 86.6605H59.6985V86.3908C59.6985 86.2983 59.7006 86.2227 59.7047 86.1641C59.7088 86.1066 59.7114 86.068 59.7124 86.0485H59.6276C59.5865 86.0475 59.5659 86.0721 59.5659 86.1225V86.2011C59.5659 86.2566 59.5664 86.3106 59.5675 86.363C59.5695 86.4165 59.5716 86.4653 59.5736 86.5095C59.5767 86.5537 59.5793 86.5891 59.5813 86.6158L59.4811 86.6775C59.4493 86.6775 59.4333 86.5763 59.4333 86.3738V86.0639ZM59.8311 86.0485V86.4725H59.9298C59.9503 86.4725 59.9647 86.4699 59.9729 86.4648C59.9812 86.4606 59.9863 86.4473 59.9883 86.4247C59.9904 86.4021 59.9914 86.3635 59.9914 86.309V86.1225C59.9914 86.0732 59.9709 86.0485 59.9298 86.0485H59.8311ZM59.4333 87.3695C59.4333 87.2914 59.4513 87.2348 59.4873 87.1999C59.5243 87.1649 59.5747 87.1475 59.6384 87.1475C59.7052 87.1475 59.7566 87.1655 59.7926 87.2014C59.8285 87.2384 59.8465 87.2944 59.8465 87.3695V87.4481C59.8465 87.5252 59.8445 87.5946 59.8403 87.6562C59.8362 87.7179 59.8321 87.7688 59.828 87.8089H59.9298C59.939 87.8089 59.9483 87.8078 59.9575 87.8058C59.9678 87.8037 59.976 87.7975 59.9822 87.7873C59.9883 87.777 59.9914 87.7595 59.9914 87.7349V87.6578C59.9914 87.5457 59.9894 87.4522 59.9853 87.3772C59.9822 87.3022 59.9791 87.2513 59.976 87.2246L60.0932 87.2076C60.1076 87.2076 60.1163 87.2467 60.1194 87.3248C60.1225 87.4029 60.124 87.5334 60.124 87.7164V87.7934C60.124 87.8448 60.1168 87.8844 60.1024 87.9121C60.088 87.9399 60.0701 87.9594 60.0485 87.9707C60.0269 87.9831 60.0048 87.9903 59.9822 87.9923C59.9606 87.9954 59.9421 87.9969 59.9267 87.9969H59.4333V87.8705L59.4642 87.8104C59.457 87.7672 59.4498 87.7153 59.4426 87.6547C59.4364 87.594 59.4333 87.5247 59.4333 87.4466V87.3695ZM59.5659 87.4096V87.7626C59.5659 87.7852 59.568 87.7986 59.5721 87.8027C59.5762 87.8068 59.5891 87.8089 59.6106 87.8089H59.7293V87.4096C59.7293 87.3818 59.7227 87.3623 59.7093 87.351C59.6959 87.3407 59.6749 87.3356 59.6461 87.3356C59.6173 87.3356 59.5968 87.3417 59.5844 87.3541C59.5721 87.3664 59.5659 87.3849 59.5659 87.4096ZM57.4333 66.6946H57.9914V66.599H58.1225V66.6946H58.2597C58.2946 66.6946 58.327 66.7013 58.3568 66.7147C58.3866 66.7291 58.4108 66.7522 58.4293 66.784C58.4478 66.8169 58.457 66.8601 58.457 66.9135V66.9906C58.457 67.114 58.4514 67.2024 58.4401 67.2558C58.4288 67.3103 58.419 67.3375 58.4108 67.3375L58.2936 67.2913C58.3008 67.2738 58.3075 67.2424 58.3136 67.1972C58.3208 67.152 58.3244 67.0975 58.3244 67.0338V66.9567C58.3244 66.931 58.3198 66.912 58.3106 66.8997C58.3013 66.8884 58.2854 66.8827 58.2628 66.8827H58.1225V67.2034H57.9914V66.8827H57.4333V66.6946ZM57.4333 67.3683H58.124V67.4947L58.0932 67.5533C58.1076 67.58 58.1189 67.6088 58.1271 67.6396C58.1353 67.6705 58.1394 67.7095 58.1394 67.7568C58.1394 67.8318 58.1312 67.8925 58.1148 67.9387C58.0983 67.986 58.086 68.0174 58.0778 68.0328L57.9436 67.9788C57.9498 67.9665 57.9575 67.9459 57.9668 67.9171C57.977 67.8894 57.9863 67.8565 57.9945 67.8185C58.0027 67.7805 58.0068 67.7388 58.0068 67.6936V67.6766C58.0068 67.6273 57.9971 67.5949 57.9776 67.5795C57.958 67.5651 57.9257 67.5574 57.8804 67.5564H57.4333V67.3683ZM57.4333 68.3287C57.4333 68.2599 57.4472 68.2085 57.475 68.1746C57.5027 68.1417 57.5479 68.1252 57.6106 68.1252H57.9267C57.9421 68.1252 57.9606 68.1263 57.9822 68.1283C58.0048 68.1314 58.0269 68.1386 58.0485 68.1499C58.0701 68.1622 58.088 68.1823 58.1024 68.21C58.1168 68.2388 58.124 68.2784 58.124 68.3287V68.7542C58.124 68.8056 58.1168 68.8452 58.1024 68.8729C58.088 68.9007 58.0701 68.9202 58.0485 68.9315C58.0269 68.9439 58.0048 68.9511 57.9822 68.9531C57.9606 68.9562 57.9421 68.9577 57.9267 68.9577H57.6307C57.6122 68.9577 57.5916 68.9562 57.569 68.9531C57.5464 68.9511 57.5248 68.9439 57.5043 68.9315C57.4837 68.9192 57.4668 68.8992 57.4534 68.8714C57.44 68.8437 57.4333 68.8046 57.4333 68.7542V68.3287ZM57.5659 68.3873V68.6957C57.5659 68.746 57.5865 68.7712 57.6276 68.7712H57.9298C57.9709 68.7712 57.9914 68.746 57.9914 68.6957V68.3873C57.9914 68.338 57.9709 68.3133 57.9298 68.3133H57.6276C57.5865 68.3133 57.5659 68.338 57.5659 68.3873ZM57.4333 69.1268H58.124V69.2532L58.0932 69.3149C58.1014 69.358 58.1086 69.4099 58.1148 69.4706C58.1209 69.5312 58.124 69.6006 58.124 69.6787V69.7558C58.124 69.8072 58.1168 69.8467 58.1024 69.8745C58.088 69.9022 58.0701 69.9218 58.0485 69.9331C58.0269 69.9454 58.0048 69.9526 57.9822 69.9547C57.9606 69.9577 57.9421 69.9593 57.9267 69.9593H57.4333V69.7712H57.9298C57.9709 69.7712 57.9914 69.7465 57.9914 69.6972V69.3611C57.9914 69.3416 57.9894 69.3287 57.9853 69.3226C57.9822 69.3174 57.9729 69.3149 57.9575 69.3149H57.4333V69.1268ZM57.4333 70.4052C57.4333 70.3271 57.4498 70.2737 57.4827 70.2449C57.5156 70.2161 57.5649 70.2017 57.6307 70.2017H57.9914V70.0753H58.124V70.1401C58.124 70.1596 58.1271 70.1735 58.1333 70.1817C58.1394 70.1909 58.1518 70.1976 58.1703 70.2017L58.3352 70.2326V70.3898H58.124V70.7105H57.9914V70.3898H57.6291C57.6034 70.3898 57.5865 70.396 57.5783 70.4083C57.57 70.4207 57.5659 70.4392 57.5659 70.4638V70.6812L57.4488 70.6966C57.4457 70.675 57.4421 70.6421 57.438 70.5979C57.4349 70.5538 57.4333 70.5054 57.4333 70.453V70.4052ZM57.4333 71.0221C57.4333 70.9707 57.44 70.9312 57.4534 70.9034C57.4668 70.8757 57.4837 70.8556 57.5043 70.8433C57.5248 70.832 57.5464 70.8248 57.569 70.8217C57.5916 70.8197 57.6122 70.8186 57.6307 70.8186H57.9267C57.9421 70.8186 57.9606 70.8197 57.9822 70.8217C58.0048 70.8248 58.0269 70.832 58.0485 70.8433C58.0701 70.8556 58.088 70.8757 58.1024 70.9034C58.1168 70.9322 58.124 70.9718 58.124 71.0221V71.3536C58.124 71.4214 58.1173 71.4744 58.104 71.5124C58.0916 71.5514 58.0711 71.5787 58.0423 71.5941C58.0135 71.6105 57.975 71.6188 57.9267 71.6188H57.6985V71.349C57.6985 71.2565 57.7006 71.1809 57.7047 71.1223C57.7088 71.0648 57.7114 71.0262 57.7124 71.0067H57.6276C57.5865 71.0057 57.5659 71.0304 57.5659 71.0807V71.1593C57.5659 71.2148 57.5664 71.2688 57.5675 71.3212C57.5695 71.3747 57.5716 71.4235 57.5736 71.4677C57.5767 71.5119 57.5793 71.5473 57.5813 71.5741L57.4811 71.6357C57.4493 71.6357 57.4333 71.5345 57.4333 71.332V71.0221ZM57.8311 71.0067V71.4307H57.9298C57.9503 71.4307 57.9647 71.4281 57.9729 71.423C57.9812 71.4189 57.9863 71.4055 57.9883 71.3829C57.9904 71.3603 57.9914 71.3217 57.9914 71.2673V71.0807C57.9914 71.0314 57.9709 71.0067 57.9298 71.0067H57.8311ZM57.4333 71.7901H58.124V71.9165L58.0932 71.9781C58.1014 72.0213 58.1086 72.0732 58.1148 72.1339C58.1209 72.1945 58.124 72.2639 58.124 72.342V72.4191C58.124 72.4705 58.1168 72.51 58.1024 72.5378C58.088 72.5655 58.0701 72.5851 58.0485 72.5964C58.0269 72.6087 58.0048 72.6159 57.9822 72.6179C57.9606 72.621 57.9421 72.6226 57.9267 72.6226H57.4333V72.4345H57.9298C57.9709 72.4345 57.9914 72.4098 57.9914 72.3605V72.0244C57.9914 72.0049 57.9894 71.992 57.9853 71.9859C57.9822 71.9807 57.9729 71.9781 57.9575 71.9781H57.4333V71.7901ZM57.4333 72.9884C57.4333 72.937 57.44 72.8974 57.4534 72.8697C57.4668 72.8419 57.4837 72.8219 57.5043 72.8095C57.5248 72.7982 57.5464 72.791 57.569 72.7879C57.5916 72.7859 57.6122 72.7849 57.6307 72.7849H57.9267C57.9421 72.7849 57.9606 72.7859 57.9822 72.7879C58.0048 72.791 58.0269 72.7982 58.0485 72.8095C58.0701 72.8219 58.088 72.8419 58.1024 72.8697C58.1168 72.8984 58.124 72.938 58.124 72.9884V73.067C58.124 73.1615 58.122 73.2376 58.1178 73.2952C58.1148 73.3537 58.1112 73.3984 58.1071 73.4293H58.4108V73.6174H57.4333V73.4909L57.4642 73.4308C57.457 73.3877 57.4498 73.3358 57.4426 73.2751C57.4364 73.2145 57.4333 73.1446 57.4333 73.0654V72.9884ZM57.5659 73.0469V73.3815C57.5659 73.4031 57.5685 73.4164 57.5736 73.4216C57.5788 73.4267 57.5916 73.4293 57.6122 73.4293H57.9806C57.9827 73.3943 57.9848 73.3501 57.9868 73.2967C57.9899 73.2433 57.9914 73.1862 57.9914 73.1256V73.0469C57.9914 72.9976 57.9709 72.9729 57.9298 72.9729H57.6276C57.5865 72.9729 57.5659 72.9976 57.5659 73.0469ZM57.4333 74.3448C57.4333 74.2935 57.44 74.2539 57.4534 74.2261C57.4668 74.1984 57.4837 74.1783 57.5043 74.166C57.5248 74.1547 57.5464 74.1475 57.569 74.1444C57.5916 74.1424 57.6122 74.1413 57.6307 74.1413H57.9267C57.9421 74.1413 57.9606 74.1424 57.9822 74.1444C58.0048 74.1475 58.0269 74.1547 58.0485 74.166C58.0701 74.1783 58.088 74.1984 58.1024 74.2261C58.1168 74.2549 58.124 74.2945 58.124 74.3448V74.6763C58.124 74.7441 58.1173 74.7971 58.104 74.8351C58.0916 74.8742 58.0711 74.9014 58.0423 74.9168C58.0135 74.9333 57.975 74.9415 57.9267 74.9415H57.6985V74.6717C57.6985 74.5792 57.7006 74.5036 57.7047 74.4451C57.7088 74.3875 57.7114 74.349 57.7124 74.3294H57.6276C57.5865 74.3284 57.5659 74.3531 57.5659 74.4034V74.4821C57.5659 74.5376 57.5664 74.5915 57.5675 74.6439C57.5695 74.6974 57.5716 74.7462 57.5736 74.7904C57.5767 74.8346 57.5793 74.87 57.5813 74.8968L57.4811 74.9584C57.4493 74.9584 57.4333 74.8572 57.4333 74.6547V74.3448ZM57.8311 74.3294V74.7534H57.9298C57.9503 74.7534 57.9647 74.7508 57.9729 74.7457C57.9812 74.7416 57.9863 74.7282 57.9883 74.7056C57.9904 74.683 57.9914 74.6444 57.9914 74.59V74.4034C57.9914 74.3541 57.9709 74.3294 57.9298 74.3294H57.8311ZM57.4333 75.1128H58.124V75.2392L58.0932 75.3009C58.1014 75.344 58.1086 75.3959 58.1148 75.4566C58.1209 75.5172 58.124 75.5866 58.124 75.6647V75.7418C58.124 75.7932 58.1168 75.8327 58.1024 75.8605C58.088 75.8882 58.0701 75.9078 58.0485 75.9191C58.0269 75.9314 58.0048 75.9386 57.9822 75.9407C57.9606 75.9437 57.9421 75.9453 57.9267 75.9453H57.4333V75.7572H57.9298C57.9709 75.7572 57.9914 75.7325 57.9914 75.6832V75.3471C57.9914 75.3276 57.9894 75.3147 57.9853 75.3086C57.9822 75.3034 57.9729 75.3009 57.9575 75.3009H57.4333V75.1128ZM57.162 76.6302C57.162 76.5171 57.163 76.4252 57.1651 76.3542C57.1672 76.2833 57.1702 76.2289 57.1743 76.1908C57.1785 76.1528 57.1836 76.1266 57.1898 76.1122C57.1959 76.0988 57.2026 76.0922 57.2098 76.0922L57.3254 76.1384C57.3203 76.1549 57.3141 76.1836 57.3069 76.2247C57.2987 76.2669 57.2946 76.3203 57.2946 76.3851V76.6487C57.2946 76.6867 57.3003 76.7135 57.3116 76.7289C57.3229 76.7453 57.3429 76.7535 57.3717 76.7535H57.4642C57.456 76.7093 57.4488 76.6569 57.4426 76.5963C57.4364 76.5367 57.4333 76.4678 57.4333 76.3897V76.3126C57.4333 76.2612 57.44 76.2217 57.4534 76.1939C57.4668 76.1662 57.4837 76.1461 57.5043 76.1338C57.5248 76.1225 57.5464 76.1153 57.569 76.1122C57.5916 76.1101 57.6122 76.1091 57.6307 76.1091H57.9267C57.9421 76.1091 57.9606 76.1101 57.9822 76.1122C58.0048 76.1153 58.0269 76.1225 58.0485 76.1338C58.0701 76.1461 58.088 76.1662 58.1024 76.1939C58.1168 76.2227 58.124 76.2623 58.124 76.3126V76.3912C58.124 76.4992 58.122 76.5829 58.1178 76.6425C58.1137 76.7032 58.1091 76.7474 58.104 76.7751L58.124 76.8152V76.9416H57.3593C57.3408 76.9416 57.3203 76.9385 57.2977 76.9324C57.2751 76.9272 57.2535 76.9164 57.2329 76.9C57.2124 76.8835 57.1954 76.8599 57.1821 76.8291C57.1687 76.7982 57.162 76.7576 57.162 76.7073V76.6302ZM57.5659 76.3712V76.7057C57.5659 76.7294 57.568 76.7433 57.5721 76.7474C57.5762 76.7515 57.5896 76.7535 57.6122 76.7535H57.9806C57.9827 76.7186 57.9848 76.6744 57.9868 76.621C57.9899 76.5675 57.9914 76.5105 57.9914 76.4498V76.3712C57.9914 76.3219 57.9709 76.2972 57.9298 76.2972H57.6276C57.5865 76.2962 57.5659 76.3208 57.5659 76.3712ZM58.2211 77.2366C58.2211 77.1986 58.2288 77.1709 58.2443 77.1534C58.2597 77.1359 58.2854 77.1272 58.3213 77.1272C58.3583 77.1272 58.384 77.1354 58.3984 77.1518C58.4138 77.1693 58.4216 77.1976 58.4216 77.2366C58.4216 77.2757 58.4138 77.304 58.3984 77.3214C58.384 77.3389 58.3583 77.3476 58.3213 77.3476C58.2864 77.3476 58.2607 77.3389 58.2443 77.3214C58.2288 77.304 58.2211 77.2757 58.2211 77.2366ZM57.4333 77.1426H58.124V77.3307H57.4333V77.1426ZM57.4333 77.5322H58.124V77.6586L58.0932 77.7203C58.1014 77.7634 58.1086 77.8153 58.1148 77.876C58.1209 77.9366 58.124 78.006 58.124 78.0841V78.1612C58.124 78.2126 58.1168 78.2521 58.1024 78.2799C58.088 78.3076 58.0701 78.3272 58.0485 78.3385C58.0269 78.3508 58.0048 78.358 57.9822 78.36C57.9606 78.3631 57.9421 78.3647 57.9267 78.3647H57.4333V78.1766H57.9298C57.9709 78.1766 57.9914 78.1519 57.9914 78.1026V77.7665C57.9914 77.747 57.9894 77.7341 57.9853 77.728C57.9822 77.7228 57.9729 77.7203 57.9575 77.7203H57.4333V77.5322ZM57.4333 78.7305C57.4333 78.6791 57.44 78.6395 57.4534 78.6118C57.4668 78.584 57.4837 78.564 57.5043 78.5516C57.5248 78.5403 57.5464 78.5331 57.569 78.5301C57.5916 78.528 57.6122 78.527 57.6307 78.527H57.9267C57.9421 78.527 57.9606 78.528 57.9822 78.5301C58.0048 78.5331 58.0269 78.5403 58.0485 78.5516C58.0701 78.564 58.088 78.584 58.1024 78.6118C58.1168 78.6405 58.124 78.6801 58.124 78.7305V79.0619C58.124 79.1298 58.1173 79.1827 58.104 79.2207C58.0916 79.2598 58.0711 79.287 58.0423 79.3024C58.0135 79.3189 57.975 79.3271 57.9267 79.3271H57.6985V79.0573C57.6985 78.9648 57.7006 78.8893 57.7047 78.8307C57.7088 78.7731 57.7114 78.7346 57.7124 78.7151H57.6276C57.5865 78.714 57.5659 78.7387 57.5659 78.7891V78.8677C57.5659 78.9232 57.5664 78.9771 57.5675 79.0296C57.5695 79.083 57.5716 79.1318 57.5736 79.176C57.5767 79.2202 57.5793 79.2557 57.5813 79.2824L57.4811 79.3441C57.4493 79.3441 57.4333 79.2428 57.4333 79.0403V78.7305ZM57.8311 78.7151V79.139H57.9298C57.9503 79.139 57.9647 79.1364 57.9729 79.1313C57.9812 79.1272 57.9863 79.1138 57.9883 79.0912C57.9904 79.0686 57.9914 79.0301 57.9914 78.9756V78.7891C57.9914 78.7397 57.9709 78.7151 57.9298 78.7151H57.8311ZM57.4333 79.6865C57.4333 79.6351 57.44 79.5955 57.4534 79.5678C57.4668 79.54 57.4837 79.52 57.5043 79.5076C57.5248 79.4963 57.5464 79.4891 57.569 79.4861C57.5916 79.484 57.6122 79.483 57.6307 79.483H57.9267C57.9421 79.483 57.9606 79.484 57.9822 79.4861C58.0048 79.4891 58.0269 79.4963 58.0485 79.5076C58.0701 79.52 58.088 79.54 58.1024 79.5678C58.1168 79.5966 58.124 79.6361 58.124 79.6865V80.0179C58.124 80.0858 58.1173 80.1387 58.104 80.1767C58.0916 80.2158 58.0711 80.243 58.0423 80.2584C58.0135 80.2749 57.975 80.2831 57.9267 80.2831H57.6985V80.0133C57.6985 79.9208 57.7006 79.8453 57.7047 79.7867C57.7088 79.7291 57.7114 79.6906 57.7124 79.6711H57.6276C57.5865 79.67 57.5659 79.6947 57.5659 79.7451V79.8237C57.5659 79.8792 57.5664 79.9331 57.5675 79.9856C57.5695 80.039 57.5716 80.0878 57.5736 80.132C57.5767 80.1762 57.5793 80.2117 57.5813 80.2384L57.4811 80.3001C57.4493 80.3001 57.4333 80.1988 57.4333 79.9964V79.6865ZM57.8311 79.6711V80.095H57.9298C57.9503 80.095 57.9647 80.0925 57.9729 80.0873C57.9812 80.0832 57.9863 80.0698 57.9883 80.0472C57.9904 80.0246 57.9914 79.9861 57.9914 79.9316V79.7451C57.9914 79.6957 57.9709 79.6711 57.9298 79.6711H57.8311ZM57.4333 80.4544H58.124V80.5808L58.0932 80.6394C58.1076 80.6661 58.1189 80.6949 58.1271 80.7257C58.1353 80.7566 58.1394 80.7956 58.1394 80.8429C58.1394 80.9179 58.1312 80.9786 58.1148 81.0248C58.0983 81.0721 58.086 81.1035 58.0778 81.1189L57.9436 81.0649C57.9498 81.0526 57.9575 81.032 57.9668 81.0032C57.977 80.9755 57.9863 80.9426 57.9945 80.9046C58.0027 80.8666 58.0068 80.8249 58.0068 80.7797V80.7627C58.0068 80.7134 57.9971 80.681 57.9776 80.6656C57.958 80.6512 57.9257 80.6435 57.8804 80.6425H57.4333V80.4544ZM57.4333 81.2752C57.4333 81.2372 57.4411 81.2094 57.4565 81.192C57.4719 81.1745 57.4976 81.1657 57.5336 81.1657C57.5706 81.1657 57.5963 81.174 57.6106 81.1904C57.6261 81.2079 57.6338 81.2362 57.6338 81.2752C57.6338 81.3143 57.6261 81.3425 57.6106 81.36C57.5963 81.3775 57.5706 81.3862 57.5336 81.3862C57.4986 81.3862 57.4729 81.3775 57.4565 81.36C57.4411 81.3425 57.4333 81.3143 57.4333 81.2752Z" fill="white"/>
<defs>
<radialGradient id="paint0_diamond_248_1115" cx="0" cy="0" r="1" gradientUnits="userSpaceOnUse" gradientTransform="translate(73.6244 1.35056e-06) rotate(90) scale(73.6244 97.1842)">
<stop stop-color="#BFBEBE"/>
<stop offset="1"/>
</radialGradient>
<radialGradient id="paint1_diamond_248_1115" cx="0" cy="0" r="1" gradientUnits="userSpaceOnUse" gradientTransform="translate(73.6244 148) rotate(-90) scale(74.3756 98.1759)">
<stop stop-color="#BFBEBE"/>
<stop offset="1"/>
</radialGradient>
<linearGradient id="paint2_linear_248_1115" x1="148" y1="74" x2="0" y2="74" gradientUnits="userSpaceOnUse">
<stop offset="0.199226"/>
<stop offset="0.499748" stop-color="white"/>
<stop offset="0.8019"/>
</linearGradient>
<radialGradient id="paint3_diamond_248_1115" cx="0" cy="0" r="1" gradientUnits="userSpaceOnUse" gradientTransform="translate(88.0707 31.3686) rotate(132.974) scale(69.741 92.0581)">
<stop stop-color="#BFBEBE"/>
<stop offset="1" stop-color="#2D2D2D"/>
</radialGradient>
<radialGradient id="paint4_diamond_248_1115" cx="0" cy="0" r="1" gradientUnits="userSpaceOnUse" gradientTransform="translate(145.737 73.9718) rotate(180) scale(72.4879 95.6841)">
<stop stop-color="#BFBEBE"/>
<stop offset="0.51" stop-color="#363636"/>
</radialGradient>
<linearGradient id="paint5_linear_248_1115" x1="73.6155" y1="1.48389" x2="73.6155" y2="145.728" gradientUnits="userSpaceOnUse">
<stop offset="0.235"/>
<stop offset="0.499748" stop-color="white"/>
<stop offset="0.87"/>
</linearGradient>
<radialGradient id="paint6_diamond_248_1115" cx="0" cy="0" r="1" gradientUnits="userSpaceOnUse" gradientTransform="translate(87.1673 34.0086) rotate(132.974) scale(65.3821 86.3045)">
<stop stop-color="#BFBEBE"/>
<stop offset="1" stop-color="#2D2D2D"/>
</radialGradient>
<radialGradient id="paint7_diamond_248_1115" cx="0" cy="0" r="1" gradientUnits="userSpaceOnUse" gradientTransform="translate(141.23 73.9491) rotate(180) scale(67.9574 89.7038)">
<stop stop-color="#BFBEBE"/>
<stop offset="0.51" stop-color="#363636"/>
</radialGradient>
<linearGradient id="paint8_linear_248_1115" x1="73.6155" y1="5.9917" x2="73.6155" y2="141.22" gradientUnits="userSpaceOnUse">
<stop offset="0.235"/>
<stop offset="0.499748" stop-color="white"/>
<stop offset="0.87"/>
</linearGradient>
<radialGradient id="paint9_diamond_248_1115" cx="0" cy="0" r="1" gradientUnits="userSpaceOnUse" gradientTransform="translate(110.133 86.1036) rotate(-137.026) scale(60.2969 79.5919)">
<stop stop-color="#BFBEBE"/>
<stop offset="1" stop-color="#2D2D2D"/>
</radialGradient>
<radialGradient id="paint10_diamond_248_1115" cx="0" cy="0" r="1" gradientUnits="userSpaceOnUse" gradientTransform="translate(73.2991 135.961) rotate(-90) scale(62.6719 82.7269)">
<stop stop-color="#BFBEBE"/>
<stop offset="0.51" stop-color="#363636"/>
</radialGradient>
<linearGradient id="paint11_linear_248_1115" x1="135.971" y1="73.6058" x2="11.2603" y2="73.6058" gradientUnits="userSpaceOnUse">
<stop offset="0.235"/>
<stop offset="0.499748" stop-color="white"/>
<stop offset="0.87"/>
</linearGradient>
<radialGradient id="paint12_diamond_248_1115" cx="0" cy="0" r="1" gradientUnits="userSpaceOnUse" gradientTransform="translate(16.519 73.8956) scale(56.8066 74.9848)">
<stop stop-color="#BFBEBE"/>
<stop offset="1"/>
</radialGradient>
<radialGradient id="paint13_diamond_248_1115" cx="0" cy="0" r="1" gradientUnits="userSpaceOnUse" gradientTransform="translate(130.712 73.8956) rotate(180) scale(57.3863 75.7499)">
<stop stop-color="#BFBEBE"/>
<stop offset="1"/>
</radialGradient>
<linearGradient id="paint14_linear_248_1115" x1="90.6445" y1="16.5093" x2="56.5865" y2="130.702" gradientUnits="userSpaceOnUse">
<stop offset="0.199226" stop-color="#7A7A7A"/>
<stop offset="0.499748" stop-color="white" stop-opacity="0.66"/>
<stop offset="0.8019" stop-color="#7A7A7A"/>
</linearGradient>
<radialGradient id="paint15_diamond_248_1115" cx="0" cy="0" r="1" gradientUnits="userSpaceOnUse" gradientTransform="translate(21.0267 73.8729) scale(52.3219 69.0649)">
<stop stop-color="#BFBEBE"/>
<stop offset="1"/>
</radialGradient>
<radialGradient id="paint16_diamond_248_1115" cx="0" cy="0" r="1" gradientUnits="userSpaceOnUse" gradientTransform="translate(126.204 73.8729) rotate(180) scale(52.8558 69.7696)">
<stop stop-color="#BFBEBE"/>
<stop offset="1"/>
</radialGradient>
<linearGradient id="paint17_linear_248_1115" x1="83.9355" y1="21.0171" x2="63.2955" y2="126.195" gradientUnits="userSpaceOnUse">
<stop offset="0.199226" stop-color="#7A7A7A"/>
<stop offset="0.499748" stop-color="white" stop-opacity="0.66"/>
<stop offset="0.8019" stop-color="#7A7A7A"/>
</linearGradient>
<radialGradient id="paint18_diamond_248_1115" cx="0" cy="0" r="1" gradientUnits="userSpaceOnUse" gradientTransform="translate(24.783 73.8538) scale(48.5846 64.1317)">
<stop stop-color="#BFBEBE"/>
<stop offset="1"/>
</radialGradient>
<radialGradient id="paint19_diamond_248_1115" cx="0" cy="0" r="1" gradientUnits="userSpaceOnUse" gradientTransform="translate(122.448 73.8538) rotate(180) scale(49.0804 64.7861)">
<stop stop-color="#BFBEBE"/>
<stop offset="1"/>
</radialGradient>
<linearGradient id="paint20_linear_248_1115" x1="62.0714" y1="24.7734" x2="85.1596" y2="122.438" gradientUnits="userSpaceOnUse">
<stop offset="0.199226" stop-color="#7A7A7A"/>
<stop offset="0.499748" stop-color="white" stop-opacity="0.66"/>
<stop offset="0.8019" stop-color="#7A7A7A"/>
</linearGradient>
<radialGradient id="paint21_diamond_248_1115" cx="0" cy="0" r="1" gradientUnits="userSpaceOnUse" gradientTransform="translate(73.3903 29.2808) rotate(90) scale(44.0999 58.2118)">
<stop stop-color="#BFBEBE"/>
<stop offset="1"/>
</radialGradient>
<radialGradient id="paint22_diamond_248_1115" cx="0" cy="0" r="1" gradientUnits="userSpaceOnUse" gradientTransform="translate(73.3903 117.931) rotate(-90) scale(44.5499 58.8058)">
<stop stop-color="#BFBEBE"/>
<stop offset="1"/>
</radialGradient>
<linearGradient id="paint23_linear_248_1115" x1="117.94" y1="81.5854" x2="29.2904" y2="65.6258" gradientUnits="userSpaceOnUse">
<stop offset="0.199226" stop-color="#7A7A7A"/>
<stop offset="0.499748" stop-color="white" stop-opacity="0.66"/>
<stop offset="0.8019" stop-color="#7A7A7A"/>
</linearGradient>
<radialGradient id="paint24_diamond_248_1115" cx="0" cy="0" r="1" gradientUnits="userSpaceOnUse" gradientTransform="translate(73.4096 33.0371) rotate(90) scale(40.3626 53.2786)">
<stop stop-color="#BFBEBE"/>
<stop offset="1"/>
</radialGradient>
<radialGradient id="paint25_diamond_248_1115" cx="0" cy="0" r="1" gradientUnits="userSpaceOnUse" gradientTransform="translate(73.4096 114.174) rotate(-90) scale(40.7745 53.8223)">
<stop stop-color="#BFBEBE"/>
<stop offset="1"/>
</radialGradient>
<linearGradient id="paint26_linear_248_1115" x1="114.184" y1="67.5559" x2="33.047" y2="79.6553" gradientUnits="userSpaceOnUse">
<stop offset="0.199226" stop-color="#7A7A7A"/>
<stop offset="0.499748" stop-color="white" stop-opacity="0.66"/>
<stop offset="0.8019" stop-color="#7A7A7A"/>
</linearGradient>
<radialGradient id="paint27_diamond_248_1115" cx="0" cy="0" r="1" gradientUnits="userSpaceOnUse" gradientTransform="translate(37.5547 73.7889) scale(35.8779 47.3588)">
<stop stop-color="#BFBEBE"/>
<stop offset="1"/>
</radialGradient>
<radialGradient id="paint28_diamond_248_1115" cx="0" cy="0" r="1" gradientUnits="userSpaceOnUse" gradientTransform="translate(109.677 73.7889) rotate(180) scale(36.244 47.842)">
<stop stop-color="#BFBEBE"/>
<stop offset="1" stop-color="#1B1B1B"/>
</radialGradient>
<linearGradient id="paint29_linear_248_1115" x1="78.2959" y1="37.5449" x2="68.9353" y2="109.667" gradientUnits="userSpaceOnUse">
<stop offset="0.199226" stop-color="#7A7A7A"/>
<stop offset="0.499748" stop-color="white" stop-opacity="0.66"/>
<stop offset="0.8019" stop-color="#7A7A7A"/>
</linearGradient>
<radialGradient id="paint30_diamond_248_1115" cx="0" cy="0" r="1" gradientUnits="userSpaceOnUse" gradientTransform="translate(80.0903 54.6871) rotate(132.974) scale(31.2381 41.2343)">
<stop stop-color="#BFBEBE"/>
<stop offset="1" stop-color="#2D2D2D"/>
</radialGradient>
<radialGradient id="paint31_diamond_248_1115" cx="0" cy="0" r="1" gradientUnits="userSpaceOnUse" gradientTransform="translate(105.92 73.7698) rotate(180) scale(32.4685 42.8585)">
<stop stop-color="#BFBEBE"/>
<stop offset="0.51" stop-color="#363636"/>
</radialGradient>
<linearGradient id="paint32_linear_248_1115" x1="73.6156" y1="41.3013" x2="73.6156" y2="105.91" gradientUnits="userSpaceOnUse">
<stop offset="0.235"/>
<stop offset="0.499748" stop-color="white"/>
<stop offset="0.87"/>
</linearGradient>
<radialGradient id="paint33_diamond_248_1115" cx="0" cy="0" r="1" gradientUnits="userSpaceOnUse" gradientTransform="translate(90.3344 79.3277) rotate(-137.026) scale(27.6058 36.4397)">
<stop stop-color="#BFBEBE"/>
<stop offset="1" stop-color="#2D2D2D"/>
</radialGradient>
<radialGradient id="paint34_diamond_248_1115" cx="0" cy="0" r="1" gradientUnits="userSpaceOnUse" gradientTransform="translate(73.4707 102.154) rotate(-90) scale(28.6931 37.8749)">
<stop stop-color="#BFBEBE"/>
<stop offset="0.51" stop-color="#363636"/>
</radialGradient>
<linearGradient id="paint35_linear_248_1115" x1="102.164" y1="73.6058" x2="45.0674" y2="73.6058" gradientUnits="userSpaceOnUse">
<stop offset="0.235"/>
<stop offset="0.499748" stop-color="white"/>
<stop offset="0.87"/>
</linearGradient>
</defs>
</svg>
