<svg width="148" height="148" viewBox="0 0 148 148" fill="none" xmlns="http://www.w3.org/2000/svg">
<circle cx="73.8782" cy="74.1218" r="71.9575" transform="rotate(90 73.8782 74.1218)" stroke="url(#paint0_diamond_272_1197)" stroke-opacity="0.5" stroke-width="0.328645"/>
<circle cx="73.8782" cy="74.1218" r="71.9575" transform="rotate(90 73.8782 74.1218)" stroke="url(#paint1_diamond_272_1197)" stroke-opacity="0.5" stroke-width="0.328645"/>
<circle cx="73.8782" cy="74.1218" r="71.9575" transform="rotate(90 73.8782 74.1218)" stroke="url(#paint2_linear_272_1197)" stroke-opacity="0.37" stroke-width="0.328645"/>
<circle cx="73.8782" cy="74.122" r="67.4499" transform="rotate(90 73.8782 74.122)" stroke="url(#paint3_diamond_272_1197)" stroke-opacity="0.5" stroke-width="0.328645"/>
<circle cx="73.8782" cy="74.122" r="67.4499" transform="rotate(90 73.8782 74.122)" stroke="url(#paint4_diamond_272_1197)" stroke-opacity="0.5" stroke-width="0.328645"/>
<circle cx="73.8782" cy="74.122" r="67.4499" transform="rotate(90 73.8782 74.122)" stroke="url(#paint5_linear_272_1197)" stroke-opacity="0.37" stroke-width="0.328645"/>
<path d="M73.8781 136.313C39.5309 136.313 11.6871 108.469 11.6871 74.1219C11.6871 39.7748 39.5309 11.9309 73.8781 11.9309C108.225 11.9309 136.069 39.7748 136.069 74.1219C136.069 108.469 108.225 136.313 73.8781 136.313Z" stroke="url(#paint6_diamond_272_1197)" stroke-opacity="0.5" stroke-width="0.328645"/>
<path d="M73.8781 136.313C39.5309 136.313 11.6871 108.469 11.6871 74.1219C11.6871 39.7748 39.5309 11.9309 73.8781 11.9309C108.225 11.9309 136.069 39.7748 136.069 74.1219C136.069 108.469 108.225 136.313 73.8781 136.313Z" stroke="url(#paint7_diamond_272_1197)" stroke-opacity="0.5" stroke-width="0.328645"/>
<path d="M73.8781 136.313C39.5309 136.313 11.6871 108.469 11.6871 74.1219C11.6871 39.7748 39.5309 11.9309 73.8781 11.9309C108.225 11.9309 136.069 39.7748 136.069 74.1219C136.069 108.469 108.225 136.313 73.8781 136.313Z" stroke="url(#paint8_linear_272_1197)" stroke-opacity="0.37" stroke-width="0.328645"/>
<circle cx="73.8782" cy="74.1218" r="56.9321" transform="rotate(90 73.8782 74.1218)" stroke="url(#paint9_diamond_272_1197)" stroke-opacity="0.5" stroke-width="0.328645"/>
<circle cx="73.8782" cy="74.1218" r="56.9321" transform="rotate(90 73.8782 74.1218)" stroke="url(#paint10_diamond_272_1197)" stroke-opacity="0.5" stroke-width="0.328645"/>
<circle cx="73.8782" cy="74.1218" r="56.9321" transform="rotate(90 73.8782 74.1218)" stroke="url(#paint11_linear_272_1197)" stroke-opacity="0.37" stroke-width="0.328645"/>
<circle cx="73.8782" cy="74.122" r="52.4245" transform="rotate(90 73.8782 74.122)" stroke="url(#paint12_diamond_272_1197)" stroke-opacity="0.5" stroke-width="0.328645"/>
<circle cx="73.8782" cy="74.122" r="52.4245" transform="rotate(90 73.8782 74.122)" stroke="url(#paint13_diamond_272_1197)" stroke-opacity="0.5" stroke-width="0.328645"/>
<circle cx="73.8782" cy="74.122" r="52.4245" transform="rotate(90 73.8782 74.122)" stroke="url(#paint14_linear_272_1197)" stroke-opacity="0.37" stroke-width="0.328645"/>
<circle cx="73.8782" cy="74.122" r="48.6682" transform="rotate(90 73.8782 74.122)" stroke="url(#paint15_diamond_272_1197)" stroke-opacity="0.5" stroke-width="0.328645"/>
<circle cx="73.8782" cy="74.122" r="48.6682" transform="rotate(90 73.8782 74.122)" stroke="url(#paint16_diamond_272_1197)" stroke-opacity="0.5" stroke-width="0.328645"/>
<circle cx="73.8782" cy="74.122" r="48.6682" transform="rotate(90 73.8782 74.122)" stroke="url(#paint17_linear_272_1197)" stroke-opacity="0.37" stroke-width="0.328645"/>
<path d="M73.8783 118.282C49.4891 118.282 29.7177 98.5109 29.7177 74.1217C29.7177 49.7326 49.4891 29.9612 73.8783 29.9612C98.2675 29.9612 118.039 49.7326 118.039 74.1217C118.039 98.5109 98.2675 118.282 73.8783 118.282Z" stroke="url(#paint18_diamond_272_1197)" stroke-opacity="0.5" stroke-width="0.328645"/>
<path d="M73.8783 118.282C49.4891 118.282 29.7177 98.5109 29.7177 74.1217C29.7177 49.7326 49.4891 29.9612 73.8783 29.9612C98.2675 29.9612 118.039 49.7326 118.039 74.1217C118.039 98.5109 98.2675 118.282 73.8783 118.282Z" stroke="url(#paint19_diamond_272_1197)" stroke-opacity="0.5" stroke-width="0.328645"/>
<path d="M73.8783 118.282C49.4891 118.282 29.7177 98.5109 29.7177 74.1217C29.7177 49.7326 49.4891 29.9612 73.8783 29.9612C98.2675 29.9612 118.039 49.7326 118.039 74.1217C118.039 98.5109 98.2675 118.282 73.8783 118.282Z" stroke="url(#paint20_linear_272_1197)" stroke-opacity="0.37" stroke-width="0.328645"/>
<path d="M73.8783 114.526C51.5636 114.526 33.4741 96.4364 33.4741 74.1218C33.4741 51.8071 51.5636 33.7175 73.8783 33.7175C96.1929 33.7175 114.282 51.8071 114.282 74.1218C114.282 96.4364 96.1929 114.526 73.8783 114.526Z" stroke="url(#paint21_diamond_272_1197)" stroke-opacity="0.5" stroke-width="0.328645"/>
<path d="M73.8783 114.526C51.5636 114.526 33.4741 96.4364 33.4741 74.1218C33.4741 51.8071 51.5636 33.7175 73.8783 33.7175C96.1929 33.7175 114.282 51.8071 114.282 74.1218C114.282 96.4364 96.1929 114.526 73.8783 114.526Z" stroke="url(#paint22_diamond_272_1197)" stroke-opacity="0.5" stroke-width="0.328645"/>
<path d="M73.8783 114.526C51.5636 114.526 33.4741 96.4364 33.4741 74.1218C33.4741 51.8071 51.5636 33.7175 73.8783 33.7175C96.1929 33.7175 114.282 51.8071 114.282 74.1218C114.282 96.4364 96.1929 114.526 73.8783 114.526Z" stroke="url(#paint23_linear_272_1197)" stroke-opacity="0.37" stroke-width="0.328645"/>
<circle cx="73.8781" cy="74.1219" r="35.8966" transform="rotate(90 73.8781 74.1219)" stroke="url(#paint24_diamond_272_1197)" stroke-opacity="0.5" stroke-width="0.328645"/>
<circle cx="73.8781" cy="74.1219" r="35.8966" transform="rotate(90 73.8781 74.1219)" stroke="url(#paint25_diamond_272_1197)" stroke-opacity="0.5" stroke-width="0.328645"/>
<circle cx="73.8781" cy="74.1219" r="35.8966" transform="rotate(90 73.8781 74.1219)" stroke="url(#paint26_linear_272_1197)" stroke-opacity="0.37" stroke-width="0.328645"/>
<circle cx="73.8783" cy="74.1219" r="32.1402" transform="rotate(90 73.8783 74.1219)" stroke="url(#paint27_diamond_272_1197)" stroke-opacity="0.5" stroke-width="0.328645"/>
<circle cx="73.8783" cy="74.1219" r="32.1402" transform="rotate(90 73.8783 74.1219)" stroke="url(#paint28_diamond_272_1197)" stroke-opacity="0.5" stroke-width="0.328645"/>
<circle cx="73.8783" cy="74.1219" r="32.1402" transform="rotate(90 73.8783 74.1219)" stroke="url(#paint29_linear_272_1197)" stroke-opacity="0.37" stroke-width="0.328645"/>
<path d="M73.8783 102.506C58.2023 102.506 45.4944 89.798 45.4944 74.122C45.4944 58.446 58.2023 45.7381 73.8783 45.7381C89.5543 45.7381 102.262 58.446 102.262 74.122C102.262 89.798 89.5543 102.506 73.8783 102.506Z" stroke="url(#paint30_diamond_272_1197)" stroke-opacity="0.5" stroke-width="0.328645"/>
<path d="M73.8783 102.506C58.2023 102.506 45.4944 89.798 45.4944 74.122C45.4944 58.446 58.2023 45.7381 73.8783 45.7381C89.5543 45.7381 102.262 58.446 102.262 74.122C102.262 89.798 89.5543 102.506 73.8783 102.506Z" stroke="url(#paint31_diamond_272_1197)" stroke-opacity="0.5" stroke-width="0.328645"/>
<path d="M73.8783 102.506C58.2023 102.506 45.4944 89.798 45.4944 74.122C45.4944 58.446 58.2023 45.7381 73.8783 45.7381C89.5543 45.7381 102.262 58.446 102.262 74.122C102.262 89.798 89.5543 102.506 73.8783 102.506Z" stroke="url(#paint32_linear_272_1197)" stroke-opacity="0.37" stroke-width="0.328645"/>
<path fill-rule="evenodd" clip-rule="evenodd" d="M50.5978 74.516C50.5978 87.5859 61.193 98.181 74.2628 98.181C87.3326 98.181 97.9277 87.5859 97.9277 74.516C97.9277 61.4462 87.3326 50.8511 74.2628 50.8511C61.193 50.8511 50.5978 61.4462 50.5978 74.516ZM72.067 74.516C72.067 75.7287 73.0501 76.7118 74.2628 76.7118C75.4754 76.7118 76.4585 75.7287 76.4585 74.516C76.4585 73.3034 75.4754 72.3203 74.2628 72.3203C73.0501 72.3203 72.067 73.3034 72.067 74.516Z" fill="#A5A5A5"/>
<circle cx="74.2628" cy="74.5161" r="25.5316" transform="rotate(90 74.2628 74.5161)" stroke="black" stroke-width="3.77942"/>
<path fill-rule="evenodd" clip-rule="evenodd" d="M50.5953 74.5185C50.5953 87.5883 61.1905 98.1835 74.2603 98.1835C87.3301 98.1835 97.9253 87.5883 97.9253 74.5185C97.9253 61.4487 87.3301 50.8535 74.2603 50.8535C61.1905 50.8535 50.5953 61.4487 50.5953 74.5185ZM72.0646 74.5185C72.0646 75.7312 73.0477 76.7142 74.2603 76.7142C75.473 76.7142 76.456 75.7312 76.456 74.5185C76.456 73.3058 75.473 72.3228 74.2603 72.3228C73.0477 72.3228 72.0646 73.3058 72.0646 74.5185Z" fill="#2C5ECA"/>
<circle cx="74.2485" cy="74.5306" r="9.07161" transform="rotate(90 74.2485 74.5306)" stroke="white" stroke-width="0.0770833"/>
<path d="M86.446 60.2744C86.446 60.1449 86.4645 60.0432 86.5015 59.9692C86.5385 59.8952 86.594 59.8425 86.668 59.811C86.742 59.7814 86.8336 59.7666 86.9428 59.7666H87.5838C87.6911 59.7666 87.7808 59.7814 87.853 59.811C87.927 59.8406 87.9825 59.8924 88.0195 59.9664C88.0583 60.0404 88.0777 60.1431 88.0777 60.2744V61.0847C88.0777 61.2142 88.0583 61.3151 88.0195 61.3872C87.9825 61.4612 87.927 61.513 87.853 61.5426C87.7808 61.5741 87.6911 61.5898 87.5838 61.5898H86.9428C86.78 61.5898 86.656 61.5537 86.5709 61.4816C86.4877 61.4094 86.446 61.2771 86.446 61.0847V60.2744ZM86.7124 60.3549V61.007C86.7124 61.0755 86.73 61.1282 86.7652 61.1652C86.8003 61.2041 86.8484 61.2235 86.9095 61.2235H87.6171C87.6707 61.2235 87.7161 61.2041 87.7531 61.1652C87.7919 61.1264 87.8113 61.0736 87.8113 61.007V60.3549C87.8113 60.2883 87.7938 60.2347 87.7586 60.194C87.7235 60.1533 87.6763 60.1329 87.6171 60.1329H86.9095C86.8466 60.1329 86.7975 60.1523 86.7624 60.1912C86.7291 60.2319 86.7124 60.2865 86.7124 60.3549ZM86.446 61.9502H87.6892V62.1777L87.6337 62.2887C87.6485 62.3664 87.6615 62.4599 87.6726 62.569C87.6837 62.6782 87.6892 62.803 87.6892 62.9436V63.0824C87.6892 63.1749 87.6763 63.2461 87.6504 63.2961C87.6245 63.346 87.5921 63.3812 87.5533 63.4015C87.5144 63.4237 87.4746 63.4367 87.4339 63.4404C87.3951 63.4459 87.3618 63.4487 87.334 63.4487H86.446V63.1101H87.3396C87.4136 63.1101 87.4506 63.0657 87.4506 62.9769V62.372C87.4506 62.3368 87.4469 62.3137 87.4395 62.3026C87.4339 62.2934 87.4173 62.2887 87.3895 62.2887H86.446V61.9502ZM86.446 64.1071C86.446 64.0146 86.4581 63.9434 86.4821 63.8934C86.5062 63.8435 86.5367 63.8074 86.5737 63.7852C86.6107 63.7649 86.6495 63.7519 86.6902 63.7464C86.7309 63.7427 86.7679 63.7408 86.8012 63.7408H87.334C87.3618 63.7408 87.3951 63.7427 87.4339 63.7464C87.4746 63.7519 87.5144 63.7649 87.5533 63.7852C87.5921 63.8074 87.6245 63.8435 87.6504 63.8934C87.6763 63.9452 87.6892 64.0165 87.6892 64.1071V64.7037C87.6892 64.8258 87.6772 64.9211 87.6532 64.9896C87.631 65.0599 87.594 65.1089 87.5422 65.1366C87.4904 65.1662 87.421 65.181 87.334 65.181H86.9233V64.6954C86.9233 64.5289 86.927 64.3929 86.9344 64.2875C86.9418 64.1839 86.9465 64.1145 86.9483 64.0794H86.7957C86.7217 64.0775 86.6847 64.1219 86.6847 64.2126V64.3541C86.6847 64.454 86.6856 64.5511 86.6875 64.6455C86.6912 64.7417 86.6949 64.8295 86.6986 64.9091C86.7041 64.9886 86.7087 65.0525 86.7124 65.1006L86.5321 65.2116C86.4747 65.2116 86.446 65.0293 86.446 64.6649V64.1071ZM87.162 64.0794V64.8425H87.3396C87.3766 64.8425 87.4025 64.8379 87.4173 64.8286C87.4321 64.8212 87.4413 64.7972 87.445 64.7565C87.4487 64.7158 87.4506 64.6464 87.4506 64.5483V64.2126C87.4506 64.1238 87.4136 64.0794 87.3396 64.0794H87.162ZM85.9299 66.0991H87.6892V66.3267L87.6532 66.3961C87.6624 66.4793 87.6707 66.5783 87.6781 66.693C87.6855 66.8095 87.6892 66.9418 87.6892 67.0898V67.2313C87.6892 67.3238 87.6772 67.3951 87.6532 67.445C87.6291 67.495 87.5986 67.5301 87.5616 67.5505C87.5246 67.5727 87.4857 67.5856 87.445 67.5893C87.4043 67.5949 87.3673 67.5976 87.334 67.5976H86.8012C86.7735 67.5976 86.7393 67.5949 86.6986 67.5893C86.6597 67.5856 86.6209 67.5727 86.582 67.5505C86.5432 67.5301 86.5108 67.495 86.4849 67.445C86.459 67.3951 86.446 67.3238 86.446 67.2313V67.0898C86.446 66.9492 86.4497 66.8243 86.4571 66.7152C86.4645 66.606 86.4719 66.5135 86.4793 66.4377H85.9299V66.0991ZM86.6847 66.5237V67.1259C86.6847 67.161 86.6939 67.1916 86.7124 67.2175C86.7309 67.2452 86.7587 67.2591 86.7957 67.2591H87.3396C87.3803 67.2609 87.409 67.2508 87.4256 67.2286C87.4423 67.2082 87.4506 67.174 87.4506 67.1259V66.9871C87.4506 66.8687 87.4478 66.7633 87.4423 66.6708C87.4386 66.5801 87.4339 66.5024 87.4284 66.4377H86.7707C86.73 66.4377 86.705 66.4414 86.6958 66.4488C86.6884 66.458 86.6847 66.483 86.6847 66.5237ZM86.446 68.2619C86.446 68.1213 86.4784 68.0196 86.5432 67.9567C86.6098 67.8938 86.7004 67.8623 86.8151 67.8623C86.9354 67.8623 87.0279 67.8947 87.0926 67.9595C87.1574 68.0261 87.1897 68.1269 87.1897 68.2619V68.4035C87.1897 68.5422 87.186 68.6671 87.1786 68.7781C87.1712 68.8891 87.1638 68.9807 87.1564 69.0528H87.3396C87.3562 69.0528 87.3729 69.051 87.3895 69.0473C87.408 69.0436 87.4228 69.0325 87.4339 69.014C87.445 68.9955 87.4506 68.964 87.4506 68.9196V68.7809C87.4506 68.5792 87.4469 68.4109 87.4395 68.2758C87.4339 68.1408 87.4284 68.0492 87.4228 68.0011L87.6337 67.9706C87.6596 67.9706 87.6754 68.0409 87.6809 68.1815C87.6865 68.3221 87.6892 68.557 87.6892 68.8863V69.0251C87.6892 69.1176 87.6763 69.1888 87.6504 69.2387C87.6245 69.2887 87.5921 69.3238 87.5533 69.3442C87.5144 69.3664 87.4746 69.3793 87.4339 69.383C87.3951 69.3886 87.3618 69.3914 87.334 69.3914H86.446V69.1638L86.5015 69.0556C86.4886 68.9779 86.4756 68.8845 86.4627 68.7753C86.4516 68.6662 86.446 68.5413 86.446 68.4007V68.2619ZM86.6847 68.3341V68.9696C86.6847 69.0103 86.6884 69.0343 86.6958 69.0417C86.7032 69.0491 86.7263 69.0528 86.7652 69.0528H86.9788V68.3341C86.9788 68.2841 86.9668 68.249 86.9428 68.2286C86.9187 68.2101 86.8808 68.2009 86.829 68.2009C86.7772 68.2009 86.7402 68.212 86.718 68.2342C86.6958 68.2564 86.6847 68.2897 86.6847 68.3341ZM85.9576 70.6245C85.9576 70.421 85.9595 70.2554 85.9632 70.1278C85.9669 70.0001 85.9724 69.9021 85.9798 69.8336C85.9872 69.7652 85.9965 69.718 86.0076 69.6921C86.0187 69.668 86.0307 69.656 86.0437 69.656L86.2518 69.7393C86.2425 69.7689 86.2314 69.8207 86.2185 69.8947C86.2037 69.9705 86.1963 70.0667 86.1963 70.1833V70.6578C86.1963 70.7262 86.2065 70.7743 86.2268 70.8021C86.2472 70.8317 86.2832 70.8465 86.335 70.8465H86.5015C86.4867 70.7669 86.4738 70.6726 86.4627 70.5634C86.4516 70.4561 86.446 70.3322 86.446 70.1916V70.0528C86.446 69.9603 86.4581 69.8891 86.4821 69.8392C86.5062 69.7892 86.5367 69.7531 86.5737 69.7309C86.6107 69.7106 86.6495 69.6976 86.6902 69.6921C86.7309 69.6884 86.7679 69.6865 86.8012 69.6865H87.334C87.3618 69.6865 87.3951 69.6884 87.4339 69.6921C87.4746 69.6976 87.5144 69.7106 87.5533 69.7309C87.5921 69.7531 87.6245 69.7892 87.6504 69.8392C87.6763 69.891 87.6892 69.9622 87.6892 70.0528V70.1944C87.6892 70.3886 87.6855 70.5394 87.6781 70.6467C87.6707 70.7558 87.6624 70.8354 87.6532 70.8853L87.6892 70.9575V71.185H86.3128C86.2795 71.185 86.2425 71.1795 86.2018 71.1684C86.1611 71.1591 86.1223 71.1397 86.0853 71.1101C86.0483 71.0805 86.0178 71.038 85.9937 70.9825C85.9697 70.927 85.9576 70.8539 85.9576 70.7632V70.6245ZM86.6847 70.1583V70.7605C86.6847 70.803 86.6884 70.828 86.6958 70.8354C86.7032 70.8428 86.7272 70.8465 86.7679 70.8465H87.4312C87.4349 70.7836 87.4386 70.704 87.4423 70.6078C87.4478 70.5116 87.4506 70.409 87.4506 70.2998V70.1583C87.4506 70.0695 87.4136 70.0251 87.3396 70.0251H86.7957C86.7217 70.0232 86.6847 70.0676 86.6847 70.1583ZM86.446 71.8576C86.446 71.7651 86.4581 71.6939 86.4821 71.6439C86.5062 71.594 86.5367 71.5579 86.5737 71.5357C86.6107 71.5154 86.6495 71.5024 86.6902 71.4969C86.7309 71.4932 86.7679 71.4913 86.8012 71.4913H87.334C87.3618 71.4913 87.3951 71.4932 87.4339 71.4969C87.4746 71.5024 87.5144 71.5154 87.5533 71.5357C87.5921 71.5579 87.6245 71.594 87.6504 71.6439C87.6763 71.6957 87.6892 71.767 87.6892 71.8576V72.4542C87.6892 72.5763 87.6772 72.6716 87.6532 72.7401C87.631 72.8104 87.594 72.8594 87.5422 72.8871C87.4904 72.9167 87.421 72.9315 87.334 72.9315H86.9233V72.4459C86.9233 72.2794 86.927 72.1434 86.9344 72.038C86.9418 71.9344 86.9465 71.865 86.9483 71.8299H86.7957C86.7217 71.828 86.6847 71.8724 86.6847 71.9631V72.1046C86.6847 72.2045 86.6856 72.3016 86.6875 72.396C86.6912 72.4922 86.6949 72.58 86.6986 72.6596C86.7041 72.7391 86.7087 72.803 86.7124 72.8511L86.5321 72.9621C86.4747 72.9621 86.446 72.7798 86.446 72.4154V71.8576ZM87.162 71.8299V72.593H87.3396C87.3766 72.593 87.4025 72.5884 87.4173 72.5791C87.4321 72.5717 87.4413 72.5477 87.445 72.507C87.4487 72.4663 87.4506 72.3969 87.4506 72.2988V71.9631C87.4506 71.8743 87.4136 71.8299 87.3396 71.8299H87.162ZM86.446 74.1882C86.446 74.0642 86.471 73.9717 86.521 73.9107C86.5709 73.8515 86.6523 73.8219 86.7652 73.8219H87.334C87.3618 73.8219 87.3951 73.8237 87.4339 73.8274C87.4746 73.833 87.5144 73.8459 87.5533 73.8663C87.5921 73.8885 87.6245 73.9245 87.6504 73.9745C87.6763 74.0263 87.6892 74.0975 87.6892 74.1882V74.9541C87.6892 75.0466 87.6763 75.1178 87.6504 75.1677C87.6245 75.2177 87.5921 75.2528 87.5533 75.2732C87.5144 75.2954 87.4746 75.3083 87.4339 75.312C87.3951 75.3176 87.3618 75.3204 87.334 75.3204H86.8012C86.7679 75.3204 86.7309 75.3176 86.6902 75.312C86.6495 75.3083 86.6107 75.2954 86.5737 75.2732C86.5367 75.251 86.5062 75.2149 86.4821 75.165C86.4581 75.115 86.446 75.0447 86.446 74.9541V74.1882ZM86.6847 74.2936V74.8486C86.6847 74.9393 86.7217 74.9846 86.7957 74.9846H87.3396C87.4136 74.9846 87.4506 74.9393 87.4506 74.8486V74.2936C87.4506 74.2048 87.4136 74.1604 87.3396 74.1604H86.7957C86.7217 74.1604 86.6847 74.2048 86.6847 74.2936ZM86.446 75.6857H87.4506V75.5136H87.6865V75.6857H87.9334C87.9963 75.6857 88.0546 75.6977 88.1083 75.7218C88.1619 75.7477 88.2054 75.7893 88.2387 75.8466C88.272 75.9058 88.2886 75.9835 88.2886 76.0797V76.2185C88.2886 76.4405 88.2785 76.5996 88.2581 76.6958C88.2378 76.7938 88.2202 76.8429 88.2054 76.8429L87.9945 76.7596C88.0074 76.7282 88.0195 76.6717 88.0306 76.5903C88.0435 76.5089 88.05 76.4109 88.05 76.2962V76.1574C88.05 76.1112 88.0417 76.077 88.025 76.0548C88.0084 76.0344 87.9797 76.0242 87.939 76.0242H87.6865V76.6014H87.4506V76.0242H86.446V75.6857ZM86.446 77.5623H87.6892V77.7898L87.6559 77.8592C87.6652 77.9128 87.6726 77.9785 87.6781 78.0562C87.6855 78.1339 87.6892 78.2264 87.6892 78.3337V78.4725C87.6892 78.5261 87.6818 78.5779 87.667 78.6279C87.6541 78.6778 87.6347 78.7148 87.6088 78.7389C87.6328 78.787 87.6522 78.8536 87.667 78.9387C87.6818 79.0238 87.6892 79.1348 87.6892 79.2717V79.4104C87.6892 79.5029 87.6763 79.5741 87.6504 79.6241C87.6245 79.674 87.5921 79.7092 87.5533 79.7295C87.5144 79.7517 87.4746 79.7647 87.4339 79.7684C87.3951 79.7739 87.3618 79.7767 87.334 79.7767H86.446V79.4382H87.3396C87.4136 79.4382 87.4506 79.3938 87.4506 79.305V78.9165C87.4506 78.8869 87.4469 78.8665 87.4395 78.8554C87.4321 78.8443 87.4154 78.8388 87.3895 78.8388H86.446V78.5002H87.3396C87.4136 78.5002 87.4506 78.4558 87.4506 78.367V77.9841C87.4506 77.9489 87.4469 77.9258 87.4395 77.9147C87.4339 77.9054 87.4173 77.9008 87.3895 77.9008H86.446V77.5623ZM85.9021 80.2126C85.9021 80.1238 85.9123 80.0424 85.9327 79.9684C85.953 79.8944 85.9715 79.8445 85.9882 79.8186L86.2379 79.9018C86.225 79.9333 86.2102 79.9777 86.1935 80.035C86.175 80.0942 86.1658 80.1608 86.1658 80.2348V80.2654C86.1658 80.3505 86.1917 80.4254 86.2435 80.4901C86.2934 80.5567 86.3609 80.6076 86.446 80.6428V80.504L87.6892 79.9601V80.3486L86.9233 80.6677L86.7235 80.7399V80.7676L86.9233 80.8398L87.6892 81.1645V81.5419L87.52 81.4975C87.4478 81.4623 87.3646 81.4216 87.2702 81.3754C87.1777 81.331 87.0815 81.2847 86.9816 81.2366C86.8817 81.1885 86.7855 81.1413 86.693 81.0951C86.6005 81.0507 86.5182 81.0109 86.446 80.9758C86.335 80.9221 86.2388 80.8629 86.1574 80.7982C86.076 80.7353 86.0131 80.6622 85.9687 80.5789C85.9243 80.4975 85.9021 80.4004 85.9021 80.2876V80.2126ZM86.446 82.3731H87.9834L88.2054 82.3453V82.7116H86.446V82.3731ZM87.8641 83.2415C87.8641 83.1731 87.8779 83.1231 87.9057 83.0917C87.9334 83.0602 87.9797 83.0445 88.0444 83.0445C88.111 83.0445 88.1573 83.0593 88.1832 83.0889C88.2109 83.1204 88.2248 83.1712 88.2248 83.2415C88.2248 83.3118 88.2109 83.3627 88.1832 83.3942C88.1573 83.4256 88.111 83.4413 88.0444 83.4413C87.9815 83.4413 87.9353 83.4256 87.9057 83.3942C87.8779 83.3627 87.8641 83.3118 87.8641 83.2415ZM86.446 83.0723H87.6892V83.4108H86.446V83.0723ZM86.446 83.8345H87.4506V83.6625H87.6865V83.8345H87.9334C87.9963 83.8345 88.0546 83.8466 88.1083 83.8706C88.1619 83.8965 88.2054 83.9381 88.2387 83.9955C88.272 84.0547 88.2886 84.1324 88.2886 84.2286V84.3673C88.2886 84.5893 88.2785 84.7484 88.2581 84.8446C88.2378 84.9427 88.2202 84.9917 88.2054 84.9917L87.9945 84.9085C88.0074 84.877 88.0195 84.8206 88.0306 84.7392C88.0435 84.6578 88.05 84.5597 88.05 84.445V84.3063C88.05 84.26 88.0417 84.2258 88.025 84.2036C88.0084 84.1833 87.9797 84.1731 87.939 84.1731H87.6865V84.7503H87.4506V84.1731H86.446V83.8345ZM86.446 85.3288C86.446 85.2363 86.4581 85.1651 86.4821 85.1151C86.5062 85.0652 86.5367 85.0291 86.5737 85.0069C86.6107 84.9866 86.6495 84.9736 86.6902 84.9681C86.7309 84.9644 86.7679 84.9625 86.8012 84.9625H87.334C87.3618 84.9625 87.3951 84.9644 87.4339 84.9681C87.4746 84.9736 87.5144 84.9866 87.5533 85.0069C87.5921 85.0291 87.6245 85.0652 87.6504 85.1151C87.6763 85.1669 87.6892 85.2382 87.6892 85.3288V85.9254C87.6892 86.0475 87.6772 86.1428 87.6532 86.2113C87.631 86.2816 87.594 86.3306 87.5422 86.3583C87.4904 86.3879 87.421 86.4027 87.334 86.4027H86.9233V85.9171C86.9233 85.7506 86.927 85.6146 86.9344 85.5092C86.9418 85.4056 86.9465 85.3362 86.9483 85.3011H86.7957C86.7217 85.2992 86.6847 85.3436 86.6847 85.4343V85.5758C86.6847 85.6757 86.6856 85.7728 86.6875 85.8672C86.6912 85.9634 86.6949 86.0512 86.6986 86.1308C86.7041 86.2103 86.7087 86.2742 86.7124 86.3223L86.5321 86.4333C86.4747 86.4333 86.446 86.251 86.446 85.8866V85.3288ZM87.162 85.3011V86.0642H87.3396C87.3766 86.0642 87.4025 86.0596 87.4173 86.0503C87.4321 86.0429 87.4413 86.0189 87.445 85.9782C87.4487 85.9375 87.4506 85.8681 87.4506 85.77V85.4343C87.4506 85.3455 87.4136 85.3011 87.3396 85.3011H87.162ZM86.446 86.9636C86.446 86.8952 86.4599 86.8452 86.4877 86.8138C86.5154 86.7823 86.5617 86.7666 86.6264 86.7666C86.693 86.7666 86.7393 86.7814 86.7652 86.811C86.7929 86.8424 86.8068 86.8933 86.8068 86.9636C86.8068 87.0339 86.7929 87.0848 86.7652 87.1162C86.7393 87.1477 86.693 87.1634 86.6264 87.1634C86.5635 87.1634 86.5173 87.1477 86.4877 87.1162C86.4599 87.0848 86.446 87.0339 86.446 86.9636Z" fill="#2A1919"/>
<path d="M90.3813 65.9258L93.2821 67.3712V68.3431L90.3813 69.7836V69.0239L91.0079 68.7328V66.9667L90.3813 66.646V65.9258ZM91.4913 67.1443V68.5503L92.8381 67.8744V67.8251L91.4913 67.1443ZM90.3813 70.0808H93.5091V70.6826H92.5323C92.5487 70.8241 92.5619 70.9901 92.5717 71.1809C92.5849 71.3749 92.5915 71.5953 92.5915 71.842V72.0936C92.5915 72.258 92.5701 72.3846 92.5273 72.4734C92.4846 72.5622 92.4303 72.6247 92.3645 72.6609C92.2988 72.7004 92.2297 72.7234 92.1573 72.73C92.085 72.7398 92.0192 72.7448 91.96 72.7448H91.0128C90.9635 72.7448 90.9026 72.7398 90.8303 72.73C90.7612 72.7234 90.6921 72.7004 90.6231 72.6609C90.554 72.6247 90.4965 72.5622 90.4504 72.4734C90.4044 72.3846 90.3813 72.258 90.3813 72.0936V71.842C90.3813 71.569 90.3879 71.3305 90.4011 71.1266C90.4175 70.9227 90.434 70.7533 90.4504 70.6185L90.3813 70.4853V70.0808ZM90.8056 70.8356V71.9061C90.8056 72.064 90.8714 72.1429 91.0029 72.1429H91.9699C92.0422 72.1462 92.0932 72.1314 92.1228 72.0985C92.1524 72.0656 92.1672 72.0015 92.1672 71.9061V71.6594C92.1672 71.4489 92.1623 71.2615 92.1524 71.097C92.1458 70.9359 92.1376 70.7977 92.1277 70.6826H90.9585C90.8895 70.6826 90.8467 70.6892 90.8303 70.7024C90.8138 70.7188 90.8056 70.7632 90.8056 70.8356ZM90.3813 73.8912C90.3813 73.6709 90.4257 73.5064 90.5145 73.3979C90.6033 73.2926 90.7481 73.24 90.9487 73.24H91.96C92.0093 73.24 92.0685 73.2433 92.1376 73.2499C92.21 73.2598 92.2807 73.2828 92.3497 73.319C92.4188 73.3584 92.4764 73.4226 92.5224 73.5114C92.5685 73.6034 92.5915 73.7301 92.5915 73.8912V75.2528C92.5915 75.4173 92.5685 75.5439 92.5224 75.6327C92.4764 75.7215 92.4188 75.784 92.3497 75.8202C92.2807 75.8596 92.21 75.8826 92.1376 75.8892C92.0685 75.8991 92.0093 75.904 91.96 75.904H91.0128C90.9536 75.904 90.8878 75.8991 90.8155 75.8892C90.7431 75.8826 90.6741 75.8596 90.6083 75.8202C90.5425 75.7807 90.4882 75.7166 90.4455 75.6278C90.4027 75.539 90.3813 75.414 90.3813 75.2528V73.8912ZM90.8056 74.0787V75.0654C90.8056 75.2265 90.8714 75.3071 91.0029 75.3071H91.9699C92.1014 75.3071 92.1672 75.2265 92.1672 75.0654V74.0787C92.1672 73.9208 92.1014 73.8419 91.9699 73.8419H91.0029C90.8714 73.8419 90.8056 73.9208 90.8056 74.0787ZM90.3813 77.0962C90.3813 76.935 90.4027 76.8084 90.4455 76.7163C90.4882 76.6275 90.5425 76.5634 90.6083 76.5239C90.6741 76.4877 90.7431 76.4647 90.8155 76.4548C90.8878 76.4482 90.9536 76.445 91.0128 76.445H92.5915V77.0468H91.0029C90.9306 77.0435 90.8796 77.0666 90.85 77.1159C90.8204 77.1685 90.8056 77.2244 90.8056 77.2836V78.2604C90.8056 78.3328 90.8122 78.3755 90.8253 78.3887C90.8385 78.4018 90.8813 78.4084 90.9536 78.4084H92.5915V79.0103H90.3813V78.6058L90.48 78.4183C90.4537 78.2867 90.4307 78.1305 90.4109 77.9496C90.3912 77.772 90.3813 77.5714 90.3813 77.3478V77.0962ZM90.3813 80.459C90.3813 80.209 90.434 80.038 90.5392 79.9459C90.6445 79.8538 90.8023 79.8078 91.0128 79.8078H92.1672V79.4032H92.5915V79.6104C92.5915 79.6729 92.6013 79.7173 92.6211 79.7436C92.6408 79.7732 92.6803 79.7946 92.7395 79.8078L93.2673 79.9064V80.4096H92.5915V81.4358H92.1672V80.4096H91.0079C90.9257 80.4096 90.8714 80.4294 90.8451 80.4688C90.8188 80.5083 90.8056 80.5675 90.8056 80.6464V81.342L90.4307 81.3914C90.4208 81.3223 90.4093 81.217 90.3961 81.0756C90.3863 80.9342 90.3813 80.7796 90.3813 80.6119V80.459Z" fill="#2A1919"/>
<path d="M59.696 60.6345H60.6025V60.838H59.696V60.6345ZM59.696 61.0538H60.3867V61.1802L60.3559 61.2419C60.3641 61.2851 60.3713 61.337 60.3775 61.3976C60.3836 61.4583 60.3867 61.5276 60.3867 61.6057V61.6828C60.3867 61.7342 60.3795 61.7738 60.3651 61.8015C60.3507 61.8293 60.3328 61.8488 60.3112 61.8601C60.2896 61.8724 60.2675 61.8796 60.2449 61.8817C60.2233 61.8848 60.2048 61.8863 60.1894 61.8863H59.696V61.6982H60.1925C60.2336 61.6982 60.2541 61.6736 60.2541 61.6242V61.2882C60.2541 61.2686 60.2521 61.2558 60.248 61.2496C60.2449 61.2445 60.2356 61.2419 60.2202 61.2419H59.696V61.0538ZM59.696 62.671C59.696 62.5929 59.7125 62.5395 59.7454 62.5107C59.7783 62.4819 59.8276 62.4675 59.8934 62.4675H60.2541V62.3411H60.3867V62.4059C60.3867 62.4254 60.3898 62.4393 60.396 62.4475C60.4021 62.4567 60.4145 62.4634 60.433 62.4675L60.5979 62.4984V62.6556H60.3867V62.9763H60.2541V62.6556H59.8918C59.8661 62.6556 59.8492 62.6618 59.841 62.6741C59.8327 62.6864 59.8286 62.7049 59.8286 62.7296V62.947L59.7115 62.9624C59.7084 62.9408 59.7048 62.9079 59.7007 62.8637C59.6976 62.8195 59.696 62.7712 59.696 62.7188V62.671ZM59.696 63.0998H60.695V63.2879H60.3559C60.3641 63.3311 60.3713 63.383 60.3775 63.4436C60.3836 63.5043 60.3867 63.5736 60.3867 63.6518V63.7288C60.3867 63.7802 60.3795 63.8198 60.3651 63.8475C60.3507 63.8753 60.3328 63.8948 60.3112 63.9061C60.2896 63.9185 60.2675 63.9257 60.2449 63.9277C60.2233 63.9308 60.2048 63.9323 60.1894 63.9323H59.696V63.7443H60.1925C60.2336 63.7443 60.2541 63.7196 60.2541 63.6703V63.3342C60.2541 63.3146 60.2521 63.3018 60.248 63.2956C60.2449 63.2905 60.2356 63.2879 60.2202 63.2879H59.696V63.0998ZM59.696 64.1101H60.3867V64.2365L60.3559 64.2951C60.3703 64.3218 60.3816 64.3506 60.3898 64.3814C60.398 64.4122 60.4021 64.4513 60.4021 64.4986C60.4021 64.5736 60.3939 64.6342 60.3775 64.6805C60.361 64.7277 60.3487 64.7591 60.3405 64.7745L60.2063 64.7206C60.2125 64.7082 60.2202 64.6877 60.2295 64.6589C60.2397 64.6311 60.249 64.5982 60.2572 64.5602C60.2654 64.5222 60.2695 64.4806 60.2695 64.4353V64.4184C60.2695 64.3691 60.2598 64.3367 60.2403 64.3213C60.2207 64.3069 60.1884 64.2992 60.1431 64.2981H59.696V64.1101ZM59.696 65.0705C59.696 65.0191 59.7027 64.9795 59.7161 64.9518C59.7294 64.924 59.7464 64.904 59.767 64.8916C59.7875 64.8803 59.8091 64.8731 59.8317 64.8701C59.8543 64.868 59.8749 64.867 59.8934 64.867H60.1894C60.2048 64.867 60.2233 64.868 60.2449 64.8701C60.2675 64.8731 60.2896 64.8803 60.3112 64.8916C60.3328 64.904 60.3507 64.924 60.3651 64.9518C60.3795 64.9805 60.3867 65.0201 60.3867 65.0705V65.4019C60.3867 65.4698 60.38 65.5227 60.3667 65.5607C60.3543 65.5998 60.3338 65.627 60.305 65.6424C60.2762 65.6589 60.2377 65.6671 60.1894 65.6671H59.9612V65.3973C59.9612 65.3048 59.9633 65.2293 59.9674 65.1707C59.9715 65.1131 59.9741 65.0746 59.9751 65.0551H59.8903C59.8492 65.054 59.8286 65.0787 59.8286 65.1291V65.2077C59.8286 65.2632 59.8291 65.3171 59.8302 65.3696C59.8322 65.423 59.8343 65.4718 59.8363 65.516C59.8394 65.5602 59.842 65.5957 59.844 65.6224L59.7438 65.6841C59.712 65.6841 59.696 65.5828 59.696 65.3804V65.0705ZM60.0938 65.0551V65.479H60.1925C60.213 65.479 60.2274 65.4764 60.2356 65.4713C60.2439 65.4672 60.249 65.4538 60.251 65.4312C60.2531 65.4086 60.2541 65.3701 60.2541 65.3156V65.1291C60.2541 65.0797 60.2336 65.0551 60.1925 65.0551H60.0938ZM59.696 66.0265C59.696 65.9751 59.7027 65.9355 59.7161 65.9078C59.7294 65.88 59.7464 65.86 59.767 65.8477C59.7875 65.8364 59.8091 65.8292 59.8317 65.8261C59.8543 65.824 59.8749 65.823 59.8934 65.823H60.1894C60.2048 65.823 60.2233 65.824 60.2449 65.8261C60.2675 65.8292 60.2896 65.8364 60.3112 65.8477C60.3328 65.86 60.3507 65.88 60.3651 65.9078C60.3795 65.9366 60.3867 65.9761 60.3867 66.0265V66.3579C60.3867 66.4258 60.38 66.4787 60.3667 66.5167C60.3543 66.5558 60.3338 66.583 60.305 66.5984C60.2762 66.6149 60.2377 66.6231 60.1894 66.6231H59.9612V66.3533C59.9612 66.2608 59.9633 66.1853 59.9674 66.1267C59.9715 66.0691 59.9741 66.0306 59.9751 66.0111H59.8903C59.8492 66.01 59.8286 66.0347 59.8286 66.0851V66.1637C59.8286 66.2192 59.8291 66.2732 59.8302 66.3256C59.8322 66.379 59.8343 66.4278 59.8363 66.472C59.8394 66.5162 59.842 66.5517 59.844 66.5784L59.7438 66.6401C59.712 66.6401 59.696 66.5388 59.696 66.3364V66.0265ZM60.0938 66.0111V66.435H60.1925C60.213 66.435 60.2274 66.4325 60.2356 66.4273C60.2439 66.4232 60.249 66.4099 60.251 66.3872C60.2531 66.3646 60.2541 66.3261 60.2541 66.2716V66.0851C60.2541 66.0357 60.2336 66.0111 60.1925 66.0111H60.0938ZM59.696 67.1332H60.3867V67.2596L60.3682 67.2981C60.3734 67.3279 60.3775 67.3644 60.3805 67.4076C60.3847 67.4507 60.3867 67.5021 60.3867 67.5617V67.6388C60.3867 67.6686 60.3826 67.6974 60.3744 67.7252C60.3672 67.7529 60.3564 67.7735 60.342 67.7868C60.3554 67.8136 60.3662 67.8506 60.3744 67.8978C60.3826 67.9451 60.3867 68.0068 60.3867 68.0828V68.1599C60.3867 68.2113 60.3795 68.2509 60.3651 68.2786C60.3507 68.3064 60.3328 68.3259 60.3112 68.3372C60.2896 68.3495 60.2675 68.3567 60.2449 68.3588C60.2233 68.3619 60.2048 68.3634 60.1894 68.3634H59.696V68.1753H60.1925C60.2336 68.1753 60.2541 68.1507 60.2541 68.1013V67.8855C60.2541 67.8691 60.2521 67.8577 60.248 67.8516C60.2439 67.8454 60.2346 67.8423 60.2202 67.8423H59.696V67.6542H60.1925C60.2336 67.6542 60.2541 67.6296 60.2541 67.5802V67.3675C60.2541 67.348 60.2521 67.3351 60.248 67.329C60.2449 67.3238 60.2356 67.3212 60.2202 67.3212H59.696V67.1332ZM59.696 68.7289C59.696 68.6601 59.7099 68.6087 59.7377 68.5748C59.7654 68.5419 59.8106 68.5254 59.8733 68.5254H60.1894C60.2048 68.5254 60.2233 68.5265 60.2449 68.5285C60.2675 68.5316 60.2896 68.5388 60.3112 68.5501C60.3328 68.5624 60.3507 68.5825 60.3651 68.6102C60.3795 68.639 60.3867 68.6786 60.3867 68.7289V69.1544C60.3867 69.2058 60.3795 69.2454 60.3651 69.2731C60.3507 69.3009 60.3328 69.3204 60.3112 69.3317C60.2896 69.344 60.2675 69.3512 60.2449 69.3533C60.2233 69.3564 60.2048 69.3579 60.1894 69.3579H59.8934C59.8749 69.3579 59.8543 69.3564 59.8317 69.3533C59.8091 69.3512 59.7875 69.344 59.767 69.3317C59.7464 69.3194 59.7294 69.2993 59.7161 69.2716C59.7027 69.2438 59.696 69.2048 59.696 69.1544V68.7289ZM59.8286 68.7875V69.0958C59.8286 69.1462 59.8492 69.1714 59.8903 69.1714H60.1925C60.2336 69.1714 60.2541 69.1462 60.2541 69.0958V68.7875C60.2541 68.7382 60.2336 68.7135 60.1925 68.7135H59.8903C59.8492 68.7135 59.8286 68.7382 59.8286 68.7875ZM59.696 69.527H60.3867V69.6534L60.3559 69.715C60.3641 69.7582 60.3713 69.8101 60.3775 69.8708C60.3836 69.9314 60.3867 70.0008 60.3867 70.0789V70.156C60.3867 70.2074 60.3795 70.2469 60.3651 70.2747C60.3507 70.3024 60.3328 70.322 60.3112 70.3333C60.2896 70.3456 60.2675 70.3528 60.2449 70.3548C60.2233 70.3579 60.2048 70.3595 60.1894 70.3595H59.696V70.1714H60.1925C60.2336 70.1714 60.2541 70.1467 60.2541 70.0974V69.7613C60.2541 69.7418 60.2521 69.7289 60.248 69.7228C60.2449 69.7176 60.2356 69.715 60.2202 69.715H59.696V69.527ZM59.696 70.8054C59.696 70.7273 59.7125 70.6739 59.7454 70.6451C59.7783 70.6163 59.8276 70.6019 59.8934 70.6019H60.2541V70.4755H60.3867V70.5403C60.3867 70.5598 60.3898 70.5737 60.396 70.5819C60.4021 70.5911 60.4145 70.5978 60.433 70.6019L60.5979 70.6328V70.79H60.3867V71.1107H60.2541V70.79H59.8918C59.8661 70.79 59.8492 70.7962 59.841 70.8085C59.8327 70.8208 59.8286 70.8393 59.8286 70.864V71.0814L59.7115 71.0968C59.7084 71.0752 59.7048 71.0423 59.7007 70.9981C59.6976 70.9539 59.696 70.9056 59.696 70.8532V70.8054ZM59.696 71.2342H60.695V71.4223H60.3559C60.3641 71.4655 60.3713 71.5174 60.3775 71.578C60.3836 71.6387 60.3867 71.708 60.3867 71.7862V71.8632C60.3867 71.9146 60.3795 71.9542 60.3651 71.9819C60.3507 72.0097 60.3328 72.0292 60.3112 72.0405C60.2896 72.0529 60.2675 72.0601 60.2449 72.0621C60.2233 72.0652 60.2048 72.0667 60.1894 72.0667H59.696V71.8787H60.1925C60.2336 71.8787 60.2541 71.854 60.2541 71.8047V71.4686C60.2541 71.449 60.2521 71.4362 60.248 71.43C60.2449 71.4249 60.2356 71.4223 60.2202 71.4223H59.696V71.2342ZM59.696 72.4187C59.696 72.3498 59.6996 72.301 59.7068 72.2722C59.714 72.2434 59.7212 72.229 59.7284 72.229L59.844 72.2753C59.841 72.3051 59.8374 72.3596 59.8333 72.4387C59.8302 72.5189 59.8286 72.6175 59.8286 72.7347V72.8118C59.8286 72.8375 59.8353 72.8534 59.8487 72.8596C59.8631 72.8668 59.8821 72.8704 59.9057 72.8704C59.9294 72.8704 59.9484 72.8663 59.9628 72.858C59.9771 72.8508 59.9843 72.8354 59.9843 72.8118V72.4325C59.9843 72.3606 59.9977 72.3087 60.0244 72.2768C60.0522 72.245 60.0933 72.229 60.1478 72.229H60.2094C60.2238 72.229 60.2408 72.2306 60.2603 72.2337C60.2798 72.2367 60.2994 72.2445 60.3189 72.2568C60.3384 72.2691 60.3543 72.2892 60.3667 72.3169C60.38 72.3447 60.3867 72.3832 60.3867 72.4325V72.858C60.3867 72.9197 60.3831 72.9634 60.3759 72.9891C60.3687 73.0148 60.3615 73.0276 60.3543 73.0276L60.2387 73.0122C60.2418 72.9824 60.2449 72.9274 60.248 72.8472C60.2521 72.7671 60.2541 72.6689 60.2541 72.5528V72.4757C60.2541 72.45 60.2469 72.4336 60.2325 72.4264C60.2192 72.4202 60.2033 72.4171 60.1848 72.4171C60.1652 72.4171 60.1488 72.4202 60.1354 72.4264C60.1231 72.4336 60.1169 72.45 60.1169 72.4757V72.855C60.1169 72.9248 60.1025 72.9762 60.0738 73.0091C60.045 73.042 60.0085 73.0585 59.9643 73.0585H59.8733C59.8548 73.0585 59.8353 73.0569 59.8148 73.0538C59.7942 73.0518 59.7747 73.0446 59.7562 73.0322C59.7387 73.0199 59.7243 72.9999 59.713 72.9721C59.7017 72.9444 59.696 72.9053 59.696 72.855V72.4187ZM59.4833 73.2676C59.4771 73.2461 59.4802 73.2332 59.4925 73.2291C59.5039 73.226 59.5157 73.2281 59.528 73.2353C59.5362 73.2414 59.5496 73.2497 59.5681 73.2599C59.5866 73.2712 59.6077 73.282 59.6313 73.2923C59.6539 73.3026 59.677 73.3093 59.7007 73.3124C59.7048 73.2856 59.7145 73.2661 59.73 73.2538C59.7454 73.2414 59.769 73.2353 59.8009 73.2353C59.8369 73.2353 59.862 73.2435 59.8764 73.2599C59.8918 73.2774 59.8995 73.3057 59.8995 73.3447C59.8995 73.3869 59.8903 73.4182 59.8718 73.4388C59.8543 73.4604 59.825 73.4711 59.7839 73.4711C59.7541 73.4711 59.7228 73.4645 59.6899 73.4511C59.657 73.4388 59.6262 73.4223 59.5974 73.4018C59.5676 73.3812 59.5429 73.3591 59.5234 73.3355C59.5028 73.3118 59.4895 73.2892 59.4833 73.2676ZM59.696 74.0563H60.6025V74.2598H59.696V74.0563ZM59.696 74.8144H60.695V75.0025H60.3559C60.3641 75.0456 60.3713 75.0976 60.3775 75.1582C60.3836 75.2188 60.3867 75.2882 60.3867 75.3663V75.4434C60.3867 75.4948 60.3795 75.5344 60.3651 75.5621C60.3507 75.5899 60.3328 75.6094 60.3112 75.6207C60.2896 75.633 60.2675 75.6402 60.2449 75.6423C60.2233 75.6454 60.2048 75.6469 60.1894 75.6469H59.696V75.4588H60.1925C60.2336 75.4588 60.2541 75.4341 60.2541 75.3848V75.0487C60.2541 75.0292 60.2521 75.0164 60.248 75.0102C60.2449 75.0051 60.2356 75.0025 60.2202 75.0025H59.696V74.8144ZM59.696 76.0127C59.696 75.9438 59.7099 75.8924 59.7377 75.8585C59.7654 75.8256 59.8106 75.8092 59.8733 75.8092H60.1894C60.2048 75.8092 60.2233 75.8102 60.2449 75.8123C60.2675 75.8154 60.2896 75.8226 60.3112 75.8339C60.3328 75.8462 60.3507 75.8662 60.3651 75.894C60.3795 75.9228 60.3867 75.9623 60.3867 76.0127V76.4382C60.3867 76.4896 60.3795 76.5292 60.3651 76.5569C60.3507 76.5847 60.3328 76.6042 60.3112 76.6155C60.2896 76.6278 60.2675 76.635 60.2449 76.6371C60.2233 76.6402 60.2048 76.6417 60.1894 76.6417H59.8934C59.8749 76.6417 59.8543 76.6402 59.8317 76.6371C59.8091 76.635 59.7875 76.6278 59.767 76.6155C59.7464 76.6032 59.7294 76.5831 59.7161 76.5554C59.7027 76.5276 59.696 76.4886 59.696 76.4382V76.0127ZM59.8286 76.0713V76.3796C59.8286 76.43 59.8492 76.4552 59.8903 76.4552H60.1925C60.2336 76.4552 60.2541 76.43 60.2541 76.3796V76.0713C60.2541 76.0219 60.2336 75.9973 60.1925 75.9973H59.8903C59.8492 75.9973 59.8286 76.0219 59.8286 76.0713ZM59.4093 76.8107H60.3867V76.9372L60.3667 76.9757C60.3718 77.0219 60.3764 77.0769 60.3805 77.1407C60.3847 77.2054 60.3867 77.2789 60.3867 77.3611V77.4397C60.3867 77.4911 60.38 77.5307 60.3667 77.5584C60.3533 77.5862 60.3364 77.6057 60.3158 77.617C60.2952 77.6294 60.2737 77.6366 60.251 77.6386C60.2284 77.6417 60.2079 77.6432 60.1894 77.6432H59.8934C59.878 77.6432 59.8589 77.6417 59.8363 77.6386C59.8148 77.6366 59.7932 77.6294 59.7716 77.617C59.75 77.6057 59.732 77.5862 59.7176 77.5584C59.7032 77.5307 59.696 77.4911 59.696 77.4397V77.3611C59.696 77.283 59.6981 77.2136 59.7022 77.153C59.7063 77.0923 59.7104 77.041 59.7145 76.9988H59.4093V76.8107ZM59.8286 77.0466V77.3812C59.8286 77.4007 59.8338 77.4176 59.844 77.432C59.8543 77.4474 59.8697 77.4552 59.8903 77.4552H60.1925C60.2151 77.4562 60.231 77.4505 60.2403 77.4382C60.2495 77.4269 60.2541 77.4079 60.2541 77.3812V77.3041C60.2541 77.2383 60.2526 77.1797 60.2495 77.1283C60.2474 77.078 60.2449 77.0348 60.2418 76.9988H59.8764C59.8538 76.9988 59.8399 77.0009 59.8348 77.005C59.8307 77.0101 59.8286 77.024 59.8286 77.0466ZM59.696 78.0015C59.696 77.9501 59.7027 77.9105 59.7161 77.8828C59.7294 77.855 59.7464 77.835 59.767 77.8227C59.7875 77.8114 59.8091 77.8042 59.8317 77.8011C59.8543 77.799 59.8749 77.798 59.8934 77.798H60.1894C60.2048 77.798 60.2233 77.799 60.2449 77.8011C60.2675 77.8042 60.2896 77.8114 60.3112 77.8227C60.3328 77.835 60.3507 77.855 60.3651 77.8828C60.3795 77.9116 60.3867 77.9511 60.3867 78.0015V78.333C60.3867 78.4008 60.38 78.4537 60.3667 78.4918C60.3543 78.5308 60.3338 78.558 60.305 78.5735C60.2762 78.5899 60.2377 78.5981 60.1894 78.5981H59.9612V78.3283C59.9612 78.2358 59.9633 78.1603 59.9674 78.1017C59.9715 78.0442 59.9741 78.0056 59.9751 77.9861H59.8903C59.8492 77.9851 59.8286 78.0097 59.8286 78.0601V78.1387C59.8286 78.1942 59.8291 78.2482 59.8302 78.3006C59.8322 78.354 59.8343 78.4029 59.8363 78.447C59.8394 78.4912 59.842 78.5267 59.844 78.5534L59.7438 78.6151C59.712 78.6151 59.696 78.5139 59.696 78.3114V78.0015ZM60.0938 77.9861V78.41H60.1925C60.213 78.41 60.2274 78.4075 60.2356 78.4023C60.2439 78.3982 60.249 78.3849 60.251 78.3623C60.2531 78.3396 60.2541 78.3011 60.2541 78.2466V78.0601C60.2541 78.0108 60.2336 77.9861 60.1925 77.9861H60.0938ZM59.696 79.3764C59.696 79.2983 59.7125 79.2449 59.7454 79.2161C59.7783 79.1873 59.8276 79.1729 59.8934 79.1729H60.2541V79.0465H60.3867V79.1113C60.3867 79.1308 60.3898 79.1447 60.396 79.1529C60.4021 79.1621 60.4145 79.1688 60.433 79.1729L60.5979 79.2038V79.361H60.3867V79.6817H60.2541V79.361H59.8918C59.8661 79.361 59.8492 79.3672 59.841 79.3795C59.8327 79.3918 59.8286 79.4103 59.8286 79.435V79.6524L59.7115 79.6678C59.7084 79.6462 59.7048 79.6133 59.7007 79.5691C59.6976 79.5249 59.696 79.4766 59.696 79.4242V79.3764ZM59.696 79.9933C59.696 79.9245 59.7099 79.8731 59.7377 79.8392C59.7654 79.8063 59.8106 79.7898 59.8733 79.7898H60.1894C60.2048 79.7898 60.2233 79.7909 60.2449 79.7929C60.2675 79.796 60.2896 79.8032 60.3112 79.8145C60.3328 79.8268 60.3507 79.8469 60.3651 79.8746C60.3795 79.9034 60.3867 79.943 60.3867 79.9933V80.4188C60.3867 80.4702 60.3795 80.5098 60.3651 80.5375C60.3507 80.5653 60.3328 80.5848 60.3112 80.5961C60.2896 80.6085 60.2675 80.6156 60.2449 80.6177C60.2233 80.6208 60.2048 80.6223 60.1894 80.6223H59.8934C59.8749 80.6223 59.8543 80.6208 59.8317 80.6177C59.8091 80.6156 59.7875 80.6085 59.767 80.5961C59.7464 80.5838 59.7294 80.5637 59.7161 80.536C59.7027 80.5082 59.696 80.4692 59.696 80.4188V79.9933ZM59.8286 80.0519V80.3602C59.8286 80.4106 59.8492 80.4358 59.8903 80.4358H60.1925C60.2336 80.4358 60.2541 80.4106 60.2541 80.3602V80.0519C60.2541 80.0026 60.2336 79.9779 60.1925 79.9779H59.8903C59.8492 79.9779 59.8286 80.0026 59.8286 80.0519ZM59.696 81.1301H60.6735V81.3182H60.3682C60.3734 81.3624 60.3775 81.4143 60.3805 81.4739C60.3847 81.5345 60.3867 81.6034 60.3867 81.6805V81.7591C60.3867 81.8105 60.38 81.8501 60.3667 81.8778C60.3533 81.9056 60.3364 81.9251 60.3158 81.9364C60.2952 81.9487 60.2737 81.9559 60.251 81.958C60.2284 81.9611 60.2079 81.9626 60.1894 81.9626H59.8934C59.878 81.9626 59.8589 81.9611 59.8363 81.958C59.8148 81.9559 59.7932 81.9487 59.7716 81.9364C59.75 81.9251 59.732 81.9056 59.7176 81.8778C59.7032 81.8501 59.696 81.8105 59.696 81.7591V81.6805C59.696 81.5952 59.6981 81.5207 59.7022 81.4569C59.7074 81.3932 59.7125 81.3403 59.7176 81.2982L59.696 81.2565V81.1301ZM59.8286 81.366V81.7005C59.8286 81.7499 59.8492 81.7745 59.8903 81.7745H60.1925C60.2151 81.7756 60.231 81.7709 60.2403 81.7607C60.2495 81.7504 60.2541 81.7303 60.2541 81.7005V81.6234C60.2541 81.5577 60.2526 81.4991 60.2495 81.4477C60.2474 81.3973 60.2449 81.3542 60.2418 81.3182H59.8764C59.8548 81.3182 59.8415 81.3203 59.8363 81.3244C59.8312 81.3295 59.8286 81.3434 59.8286 81.366ZM59.696 82.3209C59.696 82.2695 59.7027 82.2299 59.7161 82.2022C59.7294 82.1744 59.7464 82.1544 59.767 82.142C59.7875 82.1307 59.8091 82.1235 59.8317 82.1205C59.8543 82.1184 59.8749 82.1174 59.8934 82.1174H60.1894C60.2048 82.1174 60.2233 82.1184 60.2449 82.1205C60.2675 82.1235 60.2896 82.1307 60.3112 82.142C60.3328 82.1544 60.3507 82.1744 60.3651 82.2022C60.3795 82.231 60.3867 82.2705 60.3867 82.3209V82.6523C60.3867 82.7202 60.38 82.7731 60.3667 82.8111C60.3543 82.8502 60.3338 82.8774 60.305 82.8928C60.2762 82.9093 60.2377 82.9175 60.1894 82.9175H59.9612V82.6477C59.9612 82.5552 59.9633 82.4797 59.9674 82.4211C59.9715 82.3635 59.9741 82.325 59.9751 82.3055H59.8903C59.8492 82.3044 59.8286 82.3291 59.8286 82.3795V82.4581C59.8286 82.5136 59.8291 82.5675 59.8302 82.62C59.8322 82.6734 59.8343 82.7222 59.8363 82.7664C59.8394 82.8106 59.842 82.8461 59.844 82.8728L59.7438 82.9345C59.712 82.9345 59.696 82.8332 59.696 82.6308V82.3209ZM60.0938 82.3055V82.7294H60.1925C60.213 82.7294 60.2274 82.7269 60.2356 82.7217C60.2439 82.7176 60.249 82.7042 60.251 82.6816C60.2531 82.659 60.2541 82.6205 60.2541 82.566V82.3795C60.2541 82.3301 60.2336 82.3055 60.1925 82.3055H60.0938ZM59.696 83.2769C59.696 83.2255 59.7027 83.1859 59.7161 83.1582C59.7294 83.1304 59.7464 83.1104 59.767 83.0981C59.7875 83.0868 59.8091 83.0796 59.8317 83.0765C59.8543 83.0744 59.8749 83.0734 59.8934 83.0734H60.1894C60.2048 83.0734 60.2233 83.0744 60.2449 83.0765C60.2675 83.0796 60.2896 83.0868 60.3112 83.0981C60.3328 83.1104 60.3507 83.1304 60.3651 83.1582C60.3795 83.187 60.3867 83.2265 60.3867 83.2769V83.4912C60.3867 83.6197 60.3831 83.7106 60.3759 83.7641C60.3698 83.8185 60.3631 83.8458 60.3559 83.8458L60.2387 83.8149C60.2408 83.7862 60.2428 83.7497 60.2449 83.7055C60.248 83.6613 60.25 83.6135 60.251 83.5621C60.2531 83.5117 60.2541 83.4624 60.2541 83.4141V83.3355C60.2541 83.2861 60.2336 83.2615 60.1925 83.2615H59.8903C59.8492 83.2605 59.8286 83.2851 59.8286 83.3355V83.4141C59.8286 83.4696 59.8291 83.5236 59.8302 83.576C59.8322 83.6294 59.8343 83.6782 59.8363 83.7224C59.8394 83.7666 59.842 83.8021 59.844 83.8288L59.7438 83.8905C59.712 83.8905 59.696 83.7892 59.696 83.5868V83.2769ZM59.696 84.1862C59.696 84.1174 59.7099 84.066 59.7377 84.0321C59.7654 83.9992 59.8106 83.9827 59.8733 83.9827H60.1894C60.2048 83.9827 60.2233 83.9838 60.2449 83.9858C60.2675 83.9889 60.2896 83.9961 60.3112 84.0074C60.3328 84.0197 60.3507 84.0398 60.3651 84.0675C60.3795 84.0963 60.3867 84.1359 60.3867 84.1862V84.6117C60.3867 84.6631 60.3795 84.7027 60.3651 84.7304C60.3507 84.7582 60.3328 84.7777 60.3112 84.789C60.2896 84.8014 60.2675 84.8086 60.2449 84.8106C60.2233 84.8137 60.2048 84.8152 60.1894 84.8152H59.8934C59.8749 84.8152 59.8543 84.8137 59.8317 84.8106C59.8091 84.8086 59.7875 84.8014 59.767 84.789C59.7464 84.7767 59.7294 84.7567 59.7161 84.7289C59.7027 84.7012 59.696 84.6621 59.696 84.6117V84.1862ZM59.8286 84.2448V84.5532C59.8286 84.6035 59.8492 84.6287 59.8903 84.6287H60.1925C60.2336 84.6287 60.2541 84.6035 60.2541 84.5532V84.2448C60.2541 84.1955 60.2336 84.1708 60.1925 84.1708H59.8903C59.8492 84.1708 59.8286 84.1955 59.8286 84.2448ZM59.696 84.9843H60.3867V85.1107L60.3682 85.1492C60.3734 85.179 60.3775 85.2155 60.3805 85.2587C60.3847 85.3019 60.3867 85.3533 60.3867 85.4129V85.4899C60.3867 85.5198 60.3826 85.5485 60.3744 85.5763C60.3672 85.604 60.3564 85.6246 60.342 85.6379C60.3554 85.6647 60.3662 85.7017 60.3744 85.7489C60.3826 85.7962 60.3867 85.8579 60.3867 85.9339V86.011C60.3867 86.0624 60.3795 86.102 60.3651 86.1297C60.3507 86.1575 60.3328 86.177 60.3112 86.1883C60.2896 86.2007 60.2675 86.2079 60.2449 86.2099C60.2233 86.213 60.2048 86.2145 60.1894 86.2145H59.696V86.0264H60.1925C60.2336 86.0264 60.2541 86.0018 60.2541 85.9524V85.7366C60.2541 85.7202 60.2521 85.7089 60.248 85.7027C60.2439 85.6965 60.2346 85.6934 60.2202 85.6934H59.696V85.5054H60.1925C60.2336 85.5054 60.2541 85.4807 60.2541 85.4314V85.2186C60.2541 85.1991 60.2521 85.1862 60.248 85.1801C60.2449 85.1749 60.2356 85.1724 60.2202 85.1724H59.696V84.9843ZM59.696 86.58C59.696 86.5286 59.7027 86.4891 59.7161 86.4613C59.7294 86.4336 59.7464 86.4135 59.767 86.4012C59.7875 86.3899 59.8091 86.3827 59.8317 86.3796C59.8543 86.3776 59.8749 86.3765 59.8934 86.3765H60.1894C60.2048 86.3765 60.2233 86.3776 60.2449 86.3796C60.2675 86.3827 60.2896 86.3899 60.3112 86.4012C60.3328 86.4135 60.3507 86.4336 60.3651 86.4613C60.3795 86.4901 60.3867 86.5297 60.3867 86.58V86.9115C60.3867 86.9793 60.38 87.0323 60.3667 87.0703C60.3543 87.1093 60.3338 87.1366 60.305 87.152C60.2762 87.1684 60.2377 87.1767 60.1894 87.1767H59.9612V86.9069C59.9612 86.8144 59.9633 86.7388 59.9674 86.6802C59.9715 86.6227 59.9741 86.5841 59.9751 86.5646H59.8903C59.8492 86.5636 59.8286 86.5883 59.8286 86.6386V86.7172C59.8286 86.7727 59.8291 86.8267 59.8302 86.8791C59.8322 86.9326 59.8343 86.9814 59.8363 87.0256C59.8394 87.0698 59.842 87.1052 59.844 87.132L59.7438 87.1936C59.712 87.1936 59.696 87.0924 59.696 86.8899V86.58ZM60.0938 86.5646V86.9886H60.1925C60.213 86.9886 60.2274 86.986 60.2356 86.9809C60.2439 86.9768 60.249 86.9634 60.251 86.9408C60.2531 86.9182 60.2541 86.8796 60.2541 86.8252V86.6386C60.2541 86.5893 60.2336 86.5646 60.1925 86.5646H60.0938ZM59.696 87.8856C59.696 87.8075 59.714 87.7509 59.75 87.716C59.787 87.6811 59.8374 87.6636 59.9011 87.6636C59.9679 87.6636 60.0193 87.6816 60.0553 87.7175C60.0912 87.7545 60.1092 87.8106 60.1092 87.8856V87.9642C60.1092 88.0413 60.1072 88.1107 60.103 88.1723C60.0989 88.234 60.0948 88.2849 60.0907 88.325H60.1925C60.2017 88.325 60.211 88.3239 60.2202 88.3219C60.2305 88.3198 60.2387 88.3137 60.2449 88.3034C60.251 88.2931 60.2541 88.2756 60.2541 88.251V88.1739C60.2541 88.0619 60.2521 87.9683 60.248 87.8933C60.2449 87.8183 60.2418 87.7674 60.2387 87.7407L60.3559 87.7237C60.3703 87.7237 60.379 87.7628 60.3821 87.8409C60.3852 87.919 60.3867 88.0495 60.3867 88.2325V88.3095C60.3867 88.3609 60.3795 88.4005 60.3651 88.4283C60.3507 88.456 60.3328 88.4755 60.3112 88.4868C60.2896 88.4992 60.2675 88.5064 60.2449 88.5084C60.2233 88.5115 60.2048 88.513 60.1894 88.513H59.696V88.3866L59.7269 88.3265C59.7197 88.2833 59.7125 88.2314 59.7053 88.1708C59.6991 88.1102 59.696 88.0408 59.696 87.9627V87.8856ZM59.8286 87.9257V88.2787C59.8286 88.3013 59.8307 88.3147 59.8348 88.3188C59.8389 88.3229 59.8518 88.325 59.8733 88.325H59.992V87.9257C59.992 87.8979 59.9854 87.8784 59.972 87.8671C59.9586 87.8568 59.9376 87.8517 59.9088 87.8517C59.88 87.8517 59.8595 87.8578 59.8471 87.8702C59.8348 87.8825 59.8286 87.901 59.8286 87.9257ZM57.696 67.2107H58.2541V67.1152H58.3852V67.2107H58.5224C58.5573 67.2107 58.5897 67.2174 58.6195 67.2308C58.6493 67.2452 58.6735 67.2683 58.692 67.3002C58.7105 67.333 58.7197 67.3762 58.7197 67.4297V67.5067C58.7197 67.6301 58.7141 67.7185 58.7028 67.7719C58.6914 67.8264 58.6817 67.8536 58.6735 67.8536L58.5563 67.8074C58.5635 67.7899 58.5702 67.7585 58.5763 67.7133C58.5835 67.6681 58.5871 67.6136 58.5871 67.5499V67.4728C58.5871 67.4471 58.5825 67.4281 58.5733 67.4158C58.564 67.4045 58.5481 67.3988 58.5255 67.3988H58.3852V67.7195H58.2541V67.3988H57.696V67.2107ZM57.696 67.8844H58.3867V68.0108L58.3559 68.0694C58.3703 68.0961 58.3816 68.1249 58.3898 68.1558C58.398 68.1866 58.4021 68.2256 58.4021 68.2729C58.4021 68.348 58.3939 68.4086 58.3775 68.4548C58.361 68.5021 58.3487 68.5335 58.3405 68.5489L58.2063 68.4949C58.2125 68.4826 58.2202 68.462 58.2295 68.4333C58.2397 68.4055 58.249 68.3726 58.2572 68.3346C58.2654 68.2966 58.2695 68.2549 58.2695 68.2097V68.1928C58.2695 68.1434 58.2598 68.1111 58.2403 68.0956C58.2207 68.0812 58.1884 68.0735 58.1431 68.0725H57.696V67.8844ZM57.696 68.8448C57.696 68.776 57.7099 68.7246 57.7377 68.6907C57.7654 68.6578 57.8106 68.6413 57.8733 68.6413H58.1894C58.2048 68.6413 58.2233 68.6424 58.2449 68.6444C58.2675 68.6475 58.2896 68.6547 58.3112 68.666C58.3328 68.6783 58.3507 68.6984 58.3651 68.7261C58.3795 68.7549 58.3867 68.7945 58.3867 68.8448V69.2703C58.3867 69.3217 58.3795 69.3613 58.3651 69.3891C58.3507 69.4168 58.3328 69.4363 58.3112 69.4476C58.2896 69.46 58.2675 69.4672 58.2449 69.4692C58.2233 69.4723 58.2048 69.4738 58.1894 69.4738H57.8934C57.8749 69.4738 57.8543 69.4723 57.8317 69.4692C57.8091 69.4672 57.7875 69.46 57.767 69.4476C57.7464 69.4353 57.7294 69.4153 57.7161 69.3875C57.7027 69.3598 57.696 69.3207 57.696 69.2703V68.8448ZM57.8286 68.9034V69.2118C57.8286 69.2621 57.8492 69.2873 57.8903 69.2873H58.1925C58.2336 69.2873 58.2541 69.2621 58.2541 69.2118V68.9034C58.2541 68.8541 58.2336 68.8294 58.1925 68.8294H57.8903C57.8492 68.8294 57.8286 68.8541 57.8286 68.9034ZM57.696 69.6429H58.3867V69.7693L58.3559 69.831C58.3641 69.8741 58.3713 69.926 58.3775 69.9867C58.3836 70.0473 58.3867 70.1167 58.3867 70.1948V70.2719C58.3867 70.3233 58.3795 70.3628 58.3651 70.3906C58.3507 70.4183 58.3328 70.4379 58.3112 70.4492C58.2896 70.4615 58.2675 70.4687 58.2449 70.4708C58.2233 70.4738 58.2048 70.4754 58.1894 70.4754H57.696V70.2873H58.1925C58.2336 70.2873 58.2541 70.2626 58.2541 70.2133V69.8772C58.2541 69.8577 58.2521 69.8448 58.248 69.8387C58.2449 69.8335 58.2356 69.831 58.2202 69.831H57.696V69.6429ZM57.696 70.9214C57.696 70.8432 57.7125 70.7898 57.7454 70.761C57.7783 70.7322 57.8276 70.7179 57.8934 70.7179H58.2541V70.5914H58.3867V70.6562C58.3867 70.6757 58.3898 70.6896 58.396 70.6978C58.4021 70.7071 58.4145 70.7137 58.433 70.7179L58.5979 70.7487V70.9059H58.3867V71.2266H58.2541V70.9059H57.8918C57.8661 70.9059 57.8492 70.9121 57.841 70.9244C57.8327 70.9368 57.8286 70.9553 57.8286 70.9799V71.1973L57.7115 71.2127C57.7084 71.1911 57.7048 71.1583 57.7007 71.1141C57.6976 71.0699 57.696 71.0216 57.696 70.9691V70.9214ZM57.696 71.5382C57.696 71.4869 57.7027 71.4473 57.7161 71.4195C57.7294 71.3918 57.7464 71.3717 57.767 71.3594C57.7875 71.3481 57.8091 71.3409 57.8317 71.3378C57.8543 71.3358 57.8749 71.3347 57.8934 71.3347H58.1894C58.2048 71.3347 58.2233 71.3358 58.2449 71.3378C58.2675 71.3409 58.2896 71.3481 58.3112 71.3594C58.3328 71.3717 58.3507 71.3918 58.3651 71.4195C58.3795 71.4483 58.3867 71.4879 58.3867 71.5382V71.8697C58.3867 71.9375 58.38 71.9905 58.3667 72.0285C58.3543 72.0676 58.3338 72.0948 58.305 72.1102C58.2762 72.1267 58.2377 72.1349 58.1894 72.1349H57.9612V71.8651C57.9612 71.7726 57.9633 71.697 57.9674 71.6385C57.9715 71.5809 57.9741 71.5424 57.9751 71.5228H57.8903C57.8492 71.5218 57.8286 71.5465 57.8286 71.5968V71.6755C57.8286 71.731 57.8291 71.7849 57.8302 71.8373C57.8322 71.8908 57.8343 71.9396 57.8363 71.9838C57.8394 72.028 57.842 72.0634 57.844 72.0902L57.7438 72.1518C57.712 72.1518 57.696 72.0506 57.696 71.8481V71.5382ZM58.0938 71.5228V71.9468H58.1925C58.213 71.9468 58.2274 71.9442 58.2356 71.9391C58.2439 71.935 58.249 71.9216 58.251 71.899C58.2531 71.8764 58.2541 71.8378 58.2541 71.7834V71.5968C58.2541 71.5475 58.2336 71.5228 58.1925 71.5228H58.0938ZM57.696 72.3062H58.3867V72.4326L58.3559 72.4943C58.3641 72.5374 58.3713 72.5893 58.3775 72.65C58.3836 72.7106 58.3867 72.78 58.3867 72.8581V72.9352C58.3867 72.9866 58.3795 73.0261 58.3651 73.0539C58.3507 73.0816 58.3328 73.1012 58.3112 73.1125C58.2896 73.1248 58.2675 73.132 58.2449 73.1341C58.2233 73.1371 58.2048 73.1387 58.1894 73.1387H57.696V72.9506H58.1925C58.2336 72.9506 58.2541 72.9259 58.2541 72.8766V72.5405C58.2541 72.521 58.2521 72.5081 58.248 72.502C58.2449 72.4968 58.2356 72.4943 58.2202 72.4943H57.696V72.3062ZM57.696 73.5045C57.696 73.4531 57.7027 73.4135 57.7161 73.3858C57.7294 73.358 57.7464 73.338 57.767 73.3256C57.7875 73.3143 57.8091 73.3071 57.8317 73.3041C57.8543 73.302 57.8749 73.301 57.8934 73.301H58.1894C58.2048 73.301 58.2233 73.302 58.2449 73.3041C58.2675 73.3071 58.2896 73.3143 58.3112 73.3256C58.3328 73.338 58.3507 73.358 58.3651 73.3858C58.3795 73.4145 58.3867 73.4541 58.3867 73.5045V73.5831C58.3867 73.6777 58.3847 73.7537 58.3805 73.8113C58.3775 73.8699 58.3739 73.9146 58.3698 73.9454H58.6735V74.1335H57.696V74.0071L57.7269 73.9469C57.7197 73.9038 57.7125 73.8519 57.7053 73.7912C57.6991 73.7306 57.696 73.6607 57.696 73.5816V73.5045ZM57.8286 73.5631V73.8976C57.8286 73.9192 57.8312 73.9325 57.8363 73.9377C57.8415 73.9428 57.8543 73.9454 57.8749 73.9454H58.2433C58.2454 73.9104 58.2474 73.8663 58.2495 73.8128C58.2526 73.7594 58.2541 73.7023 58.2541 73.6417V73.5631C58.2541 73.5137 58.2336 73.4891 58.1925 73.4891H57.8903C57.8492 73.4891 57.8286 73.5137 57.8286 73.5631ZM57.696 74.861C57.696 74.8096 57.7027 74.77 57.7161 74.7423C57.7294 74.7145 57.7464 74.6945 57.767 74.6821C57.7875 74.6708 57.8091 74.6636 57.8317 74.6605C57.8543 74.6585 57.8749 74.6575 57.8934 74.6575H58.1894C58.2048 74.6575 58.2233 74.6585 58.2449 74.6605C58.2675 74.6636 58.2896 74.6708 58.3112 74.6821C58.3328 74.6945 58.3507 74.7145 58.3651 74.7423C58.3795 74.771 58.3867 74.8106 58.3867 74.861V75.1924C58.3867 75.2603 58.38 75.3132 58.3667 75.3512C58.3543 75.3903 58.3338 75.4175 58.305 75.4329C58.2762 75.4494 58.2377 75.4576 58.1894 75.4576H57.9612V75.1878C57.9612 75.0953 57.9633 75.0198 57.9674 74.9612C57.9715 74.9036 57.9741 74.8651 57.9751 74.8455H57.8903C57.8492 74.8445 57.8286 74.8692 57.8286 74.9195V74.9982C57.8286 75.0537 57.8291 75.1076 57.8302 75.16C57.8322 75.2135 57.8343 75.2623 57.8363 75.3065C57.8394 75.3507 57.842 75.3862 57.844 75.4129L57.7438 75.4745C57.712 75.4745 57.696 75.3733 57.696 75.1708V74.861ZM58.0938 74.8455V75.2695H58.1925C58.213 75.2695 58.2274 75.2669 58.2356 75.2618C58.2439 75.2577 58.249 75.2443 58.251 75.2217C58.2531 75.1991 58.2541 75.1606 58.2541 75.1061V74.9195C58.2541 74.8702 58.2336 74.8455 58.1925 74.8455H58.0938ZM57.696 75.6289H58.3867V75.7553L58.3559 75.817C58.3641 75.8601 58.3713 75.912 58.3775 75.9727C58.3836 76.0333 58.3867 76.1027 58.3867 76.1808V76.2579C58.3867 76.3093 58.3795 76.3489 58.3651 76.3766C58.3507 76.4044 58.3328 76.4239 58.3112 76.4352C58.2896 76.4475 58.2675 76.4547 58.2449 76.4568C58.2233 76.4599 58.2048 76.4614 58.1894 76.4614H57.696V76.2733H58.1925C58.2336 76.2733 58.2541 76.2486 58.2541 76.1993V75.8632C58.2541 75.8437 58.2521 75.8309 58.248 75.8247C58.2449 75.8195 58.2356 75.817 58.2202 75.817H57.696V75.6289ZM57.4247 77.1463C57.4247 77.0333 57.4257 76.9413 57.4278 76.8704C57.4299 76.7994 57.4329 76.745 57.437 76.7069C57.4412 76.6689 57.4463 76.6427 57.4525 76.6283C57.4586 76.615 57.4653 76.6083 57.4725 76.6083L57.5881 76.6545C57.583 76.671 57.5768 76.6997 57.5696 76.7409C57.5614 76.783 57.5573 76.8364 57.5573 76.9012V77.1648C57.5573 77.2028 57.5629 77.2296 57.5743 77.245C57.5856 77.2614 57.6056 77.2696 57.6344 77.2696H57.7269C57.7187 77.2255 57.7115 77.173 57.7053 77.1124C57.6991 77.0528 57.696 76.9839 57.696 76.9058V76.8287C57.696 76.7773 57.7027 76.7378 57.7161 76.71C57.7294 76.6823 57.7464 76.6622 57.767 76.6499C57.7875 76.6386 57.8091 76.6314 57.8317 76.6283C57.8543 76.6263 57.8749 76.6252 57.8934 76.6252H58.1894C58.2048 76.6252 58.2233 76.6263 58.2449 76.6283C58.2675 76.6314 58.2896 76.6386 58.3112 76.6499C58.3328 76.6622 58.3507 76.6823 58.3651 76.71C58.3795 76.7388 58.3867 76.7784 58.3867 76.8287V76.9074C58.3867 77.0153 58.3847 77.099 58.3805 77.1586C58.3764 77.2193 58.3718 77.2635 58.3667 77.2912L58.3867 77.3313V77.4577H57.622C57.6035 77.4577 57.583 77.4546 57.5604 77.4485C57.5378 77.4433 57.5162 77.4326 57.4956 77.4161C57.4751 77.3997 57.4581 77.376 57.4448 77.3452C57.4314 77.3144 57.4247 77.2738 57.4247 77.2234V77.1463ZM57.8286 76.8873V77.2219C57.8286 77.2455 57.8307 77.2594 57.8348 77.2635C57.8389 77.2676 57.8523 77.2696 57.8749 77.2696H58.2433C58.2454 77.2347 58.2474 77.1905 58.2495 77.1371C58.2526 77.0836 58.2541 77.0266 58.2541 76.9659V76.8873C58.2541 76.838 58.2336 76.8133 58.1925 76.8133H57.8903C57.8492 76.8123 57.8286 76.837 57.8286 76.8873ZM58.4838 77.7528C58.4838 77.7147 58.4915 77.687 58.507 77.6695C58.5224 77.652 58.5481 77.6433 58.584 77.6433C58.621 77.6433 58.6467 77.6515 58.6611 77.668C58.6765 77.6854 58.6843 77.7137 58.6843 77.7528C58.6843 77.7918 58.6765 77.8201 58.6611 77.8375C58.6467 77.855 58.621 77.8638 58.584 77.8638C58.5491 77.8638 58.5234 77.855 58.507 77.8375C58.4915 77.8201 58.4838 77.7918 58.4838 77.7528ZM57.696 77.6587H58.3867V77.8468H57.696V77.6587ZM57.696 78.0483H58.3867V78.1747L58.3559 78.2364C58.3641 78.2795 58.3713 78.3314 58.3775 78.3921C58.3836 78.4527 58.3867 78.5221 58.3867 78.6002V78.6773C58.3867 78.7287 58.3795 78.7682 58.3651 78.796C58.3507 78.8237 58.3328 78.8433 58.3112 78.8546C58.2896 78.8669 58.2675 78.8741 58.2449 78.8762C58.2233 78.8792 58.2048 78.8808 58.1894 78.8808H57.696V78.6927H58.1925C58.2336 78.6927 58.2541 78.668 58.2541 78.6187V78.2826C58.2541 78.2631 58.2521 78.2502 58.248 78.2441C58.2449 78.2389 58.2356 78.2364 58.2202 78.2364H57.696V78.0483ZM57.696 79.2466C57.696 79.1952 57.7027 79.1556 57.7161 79.1279C57.7294 79.1001 57.7464 79.0801 57.767 79.0677C57.7875 79.0564 57.8091 79.0492 57.8317 79.0462C57.8543 79.0441 57.8749 79.0431 57.8934 79.0431H58.1894C58.2048 79.0431 58.2233 79.0441 58.2449 79.0462C58.2675 79.0492 58.2896 79.0564 58.3112 79.0677C58.3328 79.0801 58.3507 79.1001 58.3651 79.1279C58.3795 79.1567 58.3867 79.1962 58.3867 79.2466V79.578C58.3867 79.6459 58.38 79.6988 58.3667 79.7368C58.3543 79.7759 58.3338 79.8031 58.305 79.8185C58.2762 79.835 58.2377 79.8432 58.1894 79.8432H57.9612V79.5734C57.9612 79.4809 57.9633 79.4054 57.9674 79.3468C57.9715 79.2892 57.9741 79.2507 57.9751 79.2312H57.8903C57.8492 79.2301 57.8286 79.2548 57.8286 79.3052V79.3838C57.8286 79.4393 57.8291 79.4932 57.8302 79.5457C57.8322 79.5991 57.8343 79.6479 57.8363 79.6921C57.8394 79.7363 57.842 79.7718 57.844 79.7985L57.7438 79.8602C57.712 79.8602 57.696 79.7589 57.696 79.5565V79.2466ZM58.0938 79.2312V79.6551H58.1925C58.213 79.6551 58.2274 79.6526 58.2356 79.6474C58.2439 79.6433 58.249 79.6299 58.251 79.6073C58.2531 79.5847 58.2541 79.5462 58.2541 79.4917V79.3052C58.2541 79.2558 58.2336 79.2312 58.1925 79.2312H58.0938ZM57.696 80.2026C57.696 80.1512 57.7027 80.1116 57.7161 80.0839C57.7294 80.0561 57.7464 80.0361 57.767 80.0238C57.7875 80.0125 57.8091 80.0053 57.8317 80.0022C57.8543 80.0001 57.8749 79.9991 57.8934 79.9991H58.1894C58.2048 79.9991 58.2233 80.0001 58.2449 80.0022C58.2675 80.0053 58.2896 80.0125 58.3112 80.0238C58.3328 80.0361 58.3507 80.0561 58.3651 80.0839C58.3795 80.1127 58.3867 80.1522 58.3867 80.2026V80.5341C58.3867 80.6019 58.38 80.6548 58.3667 80.6928C58.3543 80.7319 58.3338 80.7591 58.305 80.7746C58.2762 80.791 58.2377 80.7992 58.1894 80.7992H57.9612V80.5294C57.9612 80.4369 57.9633 80.3614 57.9674 80.3028C57.9715 80.2452 57.9741 80.2067 57.9751 80.1872H57.8903C57.8492 80.1862 57.8286 80.2108 57.8286 80.2612V80.3398C57.8286 80.3953 57.8291 80.4493 57.8302 80.5017C57.8322 80.5551 57.8343 80.6039 57.8363 80.6481C57.8394 80.6923 57.842 80.7278 57.844 80.7545L57.7438 80.8162C57.712 80.8162 57.696 80.7149 57.696 80.5125V80.2026ZM58.0938 80.1872V80.6111H58.1925C58.213 80.6111 58.2274 80.6086 58.2356 80.6034C58.2439 80.5993 58.249 80.586 58.251 80.5633C58.2531 80.5407 58.2541 80.5022 58.2541 80.4477V80.2612C58.2541 80.2118 58.2336 80.1872 58.1925 80.1872H58.0938ZM57.696 80.9705H58.3867V81.0969L58.3559 81.1555C58.3703 81.1822 58.3816 81.211 58.3898 81.2419C58.398 81.2727 58.4021 81.3117 58.4021 81.359C58.4021 81.4341 58.3939 81.4947 58.3775 81.5409C58.361 81.5882 58.3487 81.6196 58.3405 81.635L58.2063 81.581C58.2125 81.5687 58.2202 81.5481 58.2295 81.5194C58.2397 81.4916 58.249 81.4587 58.2572 81.4207C58.2654 81.3827 58.2695 81.341 58.2695 81.2958V81.2789C58.2695 81.2295 58.2598 81.1972 58.2403 81.1817C58.2207 81.1673 58.1884 81.1596 58.1431 81.1586H57.696V80.9705ZM57.696 81.7913C57.696 81.7533 57.7038 81.7255 57.7192 81.7081C57.7346 81.6906 57.7603 81.6819 57.7963 81.6819C57.8333 81.6819 57.8589 81.6901 57.8733 81.7065C57.8888 81.724 57.8965 81.7523 57.8965 81.7913C57.8965 81.8304 57.8888 81.8586 57.8733 81.8761C57.8589 81.8936 57.8333 81.9023 57.7963 81.9023C57.7613 81.9023 57.7356 81.8936 57.7192 81.8761C57.7038 81.8586 57.696 81.8304 57.696 81.7913Z" fill="white"/>
<defs>
<radialGradient id="paint0_diamond_272_1197" cx="0" cy="0" r="1" gradientUnits="userSpaceOnUse" gradientTransform="translate(88.3334 31.8847) rotate(132.974) scale(69.741 92.0581)">
<stop stop-color="#BFBEBE"/>
<stop offset="1" stop-color="#2D2D2D"/>
</radialGradient>
<radialGradient id="paint1_diamond_272_1197" cx="0" cy="0" r="1" gradientUnits="userSpaceOnUse" gradientTransform="translate(146 74.4879) rotate(180) scale(72.4879 95.6841)">
<stop stop-color="#BFBEBE"/>
<stop offset="0.51" stop-color="#363636"/>
</radialGradient>
<linearGradient id="paint2_linear_272_1197" x1="73.8782" y1="2" x2="73.8782" y2="146.244" gradientUnits="userSpaceOnUse">
<stop offset="0.235"/>
<stop offset="0.499748" stop-color="white"/>
<stop offset="0.87"/>
</linearGradient>
<radialGradient id="paint3_diamond_272_1197" cx="0" cy="0" r="1" gradientUnits="userSpaceOnUse" gradientTransform="translate(87.43 34.5248) rotate(132.974) scale(65.3821 86.3045)">
<stop stop-color="#BFBEBE"/>
<stop offset="1" stop-color="#2D2D2D"/>
</radialGradient>
<radialGradient id="paint4_diamond_272_1197" cx="0" cy="0" r="1" gradientUnits="userSpaceOnUse" gradientTransform="translate(141.492 74.4652) rotate(180) scale(67.9574 89.7038)">
<stop stop-color="#BFBEBE"/>
<stop offset="0.51" stop-color="#363636"/>
</radialGradient>
<linearGradient id="paint5_linear_272_1197" x1="73.8782" y1="6.50781" x2="73.8782" y2="141.736" gradientUnits="userSpaceOnUse">
<stop offset="0.235"/>
<stop offset="0.499748" stop-color="white"/>
<stop offset="0.87"/>
</linearGradient>
<radialGradient id="paint6_diamond_272_1197" cx="0" cy="0" r="1" gradientUnits="userSpaceOnUse" gradientTransform="translate(110.396 86.6197) rotate(-137.026) scale(60.2969 79.5919)">
<stop stop-color="#BFBEBE"/>
<stop offset="1" stop-color="#2D2D2D"/>
</radialGradient>
<radialGradient id="paint7_diamond_272_1197" cx="0" cy="0" r="1" gradientUnits="userSpaceOnUse" gradientTransform="translate(73.5616 136.477) rotate(-90) scale(62.6719 82.7269)">
<stop stop-color="#BFBEBE"/>
<stop offset="0.51" stop-color="#363636"/>
</radialGradient>
<linearGradient id="paint8_linear_272_1197" x1="136.233" y1="74.1219" x2="11.5228" y2="74.1219" gradientUnits="userSpaceOnUse">
<stop offset="0.235"/>
<stop offset="0.499748" stop-color="white"/>
<stop offset="0.87"/>
</linearGradient>
<radialGradient id="paint9_diamond_272_1197" cx="0" cy="0" r="1" gradientUnits="userSpaceOnUse" gradientTransform="translate(16.7817 74.4117) scale(56.8066 74.9848)">
<stop stop-color="#BFBEBE"/>
<stop offset="1"/>
</radialGradient>
<radialGradient id="paint10_diamond_272_1197" cx="0" cy="0" r="1" gradientUnits="userSpaceOnUse" gradientTransform="translate(130.975 74.4117) rotate(180) scale(57.3863 75.7499)">
<stop stop-color="#BFBEBE"/>
<stop offset="1"/>
</radialGradient>
<linearGradient id="paint11_linear_272_1197" x1="90.9072" y1="17.0254" x2="56.8492" y2="131.218" gradientUnits="userSpaceOnUse">
<stop offset="0.199226" stop-color="#7A7A7A"/>
<stop offset="0.499748" stop-color="white" stop-opacity="0.66"/>
<stop offset="0.8019" stop-color="#7A7A7A"/>
</linearGradient>
<radialGradient id="paint12_diamond_272_1197" cx="0" cy="0" r="1" gradientUnits="userSpaceOnUse" gradientTransform="translate(21.2894 74.389) scale(52.3219 69.0649)">
<stop stop-color="#BFBEBE"/>
<stop offset="1"/>
</radialGradient>
<radialGradient id="paint13_diamond_272_1197" cx="0" cy="0" r="1" gradientUnits="userSpaceOnUse" gradientTransform="translate(126.467 74.389) rotate(180) scale(52.8558 69.7696)">
<stop stop-color="#BFBEBE"/>
<stop offset="1"/>
</radialGradient>
<linearGradient id="paint14_linear_272_1197" x1="84.1982" y1="21.5332" x2="63.5582" y2="126.711" gradientUnits="userSpaceOnUse">
<stop offset="0.199226" stop-color="#7A7A7A"/>
<stop offset="0.499748" stop-color="white" stop-opacity="0.66"/>
<stop offset="0.8019" stop-color="#7A7A7A"/>
</linearGradient>
<radialGradient id="paint15_diamond_272_1197" cx="0" cy="0" r="1" gradientUnits="userSpaceOnUse" gradientTransform="translate(25.0457 74.3699) scale(48.5846 64.1317)">
<stop stop-color="#BFBEBE"/>
<stop offset="1"/>
</radialGradient>
<radialGradient id="paint16_diamond_272_1197" cx="0" cy="0" r="1" gradientUnits="userSpaceOnUse" gradientTransform="translate(122.711 74.3699) rotate(180) scale(49.0804 64.7861)">
<stop stop-color="#BFBEBE"/>
<stop offset="1"/>
</radialGradient>
<linearGradient id="paint17_linear_272_1197" x1="62.3341" y1="25.2896" x2="85.4223" y2="122.955" gradientUnits="userSpaceOnUse">
<stop offset="0.199226" stop-color="#7A7A7A"/>
<stop offset="0.499748" stop-color="white" stop-opacity="0.66"/>
<stop offset="0.8019" stop-color="#7A7A7A"/>
</linearGradient>
<radialGradient id="paint18_diamond_272_1197" cx="0" cy="0" r="1" gradientUnits="userSpaceOnUse" gradientTransform="translate(73.6533 29.7969) rotate(90) scale(44.0999 58.2118)">
<stop stop-color="#BFBEBE"/>
<stop offset="1"/>
</radialGradient>
<radialGradient id="paint19_diamond_272_1197" cx="0" cy="0" r="1" gradientUnits="userSpaceOnUse" gradientTransform="translate(73.6533 118.447) rotate(-90) scale(44.5499 58.8058)">
<stop stop-color="#BFBEBE"/>
<stop offset="1"/>
</radialGradient>
<linearGradient id="paint20_linear_272_1197" x1="118.203" y1="82.1016" x2="29.5534" y2="66.142" gradientUnits="userSpaceOnUse">
<stop offset="0.199226" stop-color="#7A7A7A"/>
<stop offset="0.499748" stop-color="white" stop-opacity="0.66"/>
<stop offset="0.8019" stop-color="#7A7A7A"/>
</linearGradient>
<radialGradient id="paint21_diamond_272_1197" cx="0" cy="0" r="1" gradientUnits="userSpaceOnUse" gradientTransform="translate(73.6723 33.5532) rotate(90) scale(40.3626 53.2786)">
<stop stop-color="#BFBEBE"/>
<stop offset="1"/>
</radialGradient>
<radialGradient id="paint22_diamond_272_1197" cx="0" cy="0" r="1" gradientUnits="userSpaceOnUse" gradientTransform="translate(73.6723 114.69) rotate(-90) scale(40.7745 53.8223)">
<stop stop-color="#BFBEBE"/>
<stop offset="1"/>
</radialGradient>
<linearGradient id="paint23_linear_272_1197" x1="114.447" y1="68.0721" x2="33.3097" y2="80.1715" gradientUnits="userSpaceOnUse">
<stop offset="0.199226" stop-color="#7A7A7A"/>
<stop offset="0.499748" stop-color="white" stop-opacity="0.66"/>
<stop offset="0.8019" stop-color="#7A7A7A"/>
</linearGradient>
<radialGradient id="paint24_diamond_272_1197" cx="0" cy="0" r="1" gradientUnits="userSpaceOnUse" gradientTransform="translate(37.8171 74.305) scale(35.8779 47.3588)">
<stop stop-color="#BFBEBE"/>
<stop offset="1"/>
</radialGradient>
<radialGradient id="paint25_diamond_272_1197" cx="0" cy="0" r="1" gradientUnits="userSpaceOnUse" gradientTransform="translate(109.939 74.305) rotate(180) scale(36.244 47.842)">
<stop stop-color="#BFBEBE"/>
<stop offset="1" stop-color="#1B1B1B"/>
</radialGradient>
<linearGradient id="paint26_linear_272_1197" x1="78.5584" y1="38.061" x2="69.1977" y2="110.183" gradientUnits="userSpaceOnUse">
<stop offset="0.199226" stop-color="#7A7A7A"/>
<stop offset="0.499748" stop-color="white" stop-opacity="0.66"/>
<stop offset="0.8019" stop-color="#7A7A7A"/>
</linearGradient>
<radialGradient id="paint27_diamond_272_1197" cx="0" cy="0" r="1" gradientUnits="userSpaceOnUse" gradientTransform="translate(80.353 55.2033) rotate(132.974) scale(31.2381 41.2343)">
<stop stop-color="#BFBEBE"/>
<stop offset="1" stop-color="#2D2D2D"/>
</radialGradient>
<radialGradient id="paint28_diamond_272_1197" cx="0" cy="0" r="1" gradientUnits="userSpaceOnUse" gradientTransform="translate(106.183 74.2859) rotate(180) scale(32.4685 42.8585)">
<stop stop-color="#BFBEBE"/>
<stop offset="0.51" stop-color="#363636"/>
</radialGradient>
<linearGradient id="paint29_linear_272_1197" x1="73.8783" y1="41.8174" x2="73.8783" y2="106.427" gradientUnits="userSpaceOnUse">
<stop offset="0.235"/>
<stop offset="0.499748" stop-color="white"/>
<stop offset="0.87"/>
</linearGradient>
<radialGradient id="paint30_diamond_272_1197" cx="0" cy="0" r="1" gradientUnits="userSpaceOnUse" gradientTransform="translate(90.5971 79.8438) rotate(-137.026) scale(27.6058 36.4397)">
<stop stop-color="#BFBEBE"/>
<stop offset="1" stop-color="#2D2D2D"/>
</radialGradient>
<radialGradient id="paint31_diamond_272_1197" cx="0" cy="0" r="1" gradientUnits="userSpaceOnUse" gradientTransform="translate(73.7334 102.67) rotate(-90) scale(28.6931 37.8749)">
<stop stop-color="#BFBEBE"/>
<stop offset="0.51" stop-color="#363636"/>
</radialGradient>
<linearGradient id="paint32_linear_272_1197" x1="102.427" y1="74.122" x2="45.3301" y2="74.122" gradientUnits="userSpaceOnUse">
<stop offset="0.235"/>
<stop offset="0.499748" stop-color="white"/>
<stop offset="0.87"/>
</linearGradient>
</defs>
</svg>
