<svg width="148" height="148" viewBox="0 0 148 148" fill="none" xmlns="http://www.w3.org/2000/svg">
<g style="mix-blend-mode:plus-darker">
<path fill-rule="evenodd" clip-rule="evenodd" d="M-1.37091e-06 74C-1.37091e-06 114.869 33.1309 148 74 148C114.869 148 148 114.869 148 74C148 33.1309 114.869 0 74 0C33.1309 0 -1.37091e-06 33.1309 -1.37091e-06 74ZM70.6193 74C70.6193 75.8671 72.1329 77.3807 74 77.3807C75.8671 77.3807 77.3807 75.8671 77.3807 74C77.3807 72.1329 75.8671 70.6193 74 70.6193C72.1329 70.6193 70.6193 72.1329 70.6193 74Z" fill="black"/>
<path fill-rule="evenodd" clip-rule="evenodd" d="M-1.37091e-06 74C-1.37091e-06 114.869 33.1309 148 74 148C114.869 148 148 114.869 148 74C148 33.1309 114.869 0 74 0C33.1309 0 -1.37091e-06 33.1309 -1.37091e-06 74ZM70.6193 74C70.6193 75.8671 72.1329 77.3807 74 77.3807C75.8671 77.3807 77.3807 75.8671 77.3807 74C77.3807 72.1329 75.8671 70.6193 74 70.6193C72.1329 70.6193 70.6193 72.1329 70.6193 74Z" fill="url(#paint0_diamond_229_1383)" fill-opacity="0.5"/>
<path fill-rule="evenodd" clip-rule="evenodd" d="M-1.37091e-06 74C-1.37091e-06 114.869 33.1309 148 74 148C114.869 148 148 114.869 148 74C148 33.1309 114.869 0 74 0C33.1309 0 -1.37091e-06 33.1309 -1.37091e-06 74ZM70.6193 74C70.6193 75.8671 72.1329 77.3807 74 77.3807C75.8671 77.3807 77.3807 75.8671 77.3807 74C77.3807 72.1329 75.8671 70.6193 74 70.6193C72.1329 70.6193 70.6193 72.1329 70.6193 74Z" fill="url(#paint1_diamond_229_1383)" fill-opacity="0.5"/>
<path fill-rule="evenodd" clip-rule="evenodd" d="M-1.37091e-06 74C-1.37091e-06 114.869 33.1309 148 74 148C114.869 148 148 114.869 148 74C148 33.1309 114.869 0 74 0C33.1309 0 -1.37091e-06 33.1309 -1.37091e-06 74ZM70.6193 74C70.6193 75.8671 72.1329 77.3807 74 77.3807C75.8671 77.3807 77.3807 75.8671 77.3807 74C77.3807 72.1329 75.8671 70.6193 74 70.6193C72.1329 70.6193 70.6193 72.1329 70.6193 74Z" fill="url(#paint2_linear_229_1383)" fill-opacity="0.37"/>
</g>
<circle cx="73.6152" cy="73.6057" r="71.9575" transform="rotate(90 73.6152 73.6057)" stroke="url(#paint3_diamond_229_1383)" stroke-opacity="0.5" stroke-width="0.328645"/>
<circle cx="73.6152" cy="73.6057" r="71.9575" transform="rotate(90 73.6152 73.6057)" stroke="url(#paint4_diamond_229_1383)" stroke-opacity="0.5" stroke-width="0.328645"/>
<circle cx="73.6152" cy="73.6057" r="71.9575" transform="rotate(90 73.6152 73.6057)" stroke="url(#paint5_linear_229_1383)" stroke-opacity="0.37" stroke-width="0.328645"/>
<circle cx="73.6153" cy="73.6059" r="67.4499" transform="rotate(90 73.6153 73.6059)" stroke="url(#paint6_diamond_229_1383)" stroke-opacity="0.5" stroke-width="0.328645"/>
<circle cx="73.6153" cy="73.6059" r="67.4499" transform="rotate(90 73.6153 73.6059)" stroke="url(#paint7_diamond_229_1383)" stroke-opacity="0.5" stroke-width="0.328645"/>
<circle cx="73.6153" cy="73.6059" r="67.4499" transform="rotate(90 73.6153 73.6059)" stroke="url(#paint8_linear_229_1383)" stroke-opacity="0.37" stroke-width="0.328645"/>
<path d="M73.6151 135.797C39.268 135.797 11.4241 107.953 11.4241 73.6058C11.4241 39.2587 39.268 11.4148 73.6151 11.4148C107.962 11.4148 135.806 39.2587 135.806 73.6058C135.806 107.953 107.962 135.797 73.6151 135.797Z" stroke="url(#paint9_diamond_229_1383)" stroke-opacity="0.5" stroke-width="0.328645"/>
<path d="M73.6151 135.797C39.268 135.797 11.4241 107.953 11.4241 73.6058C11.4241 39.2587 39.268 11.4148 73.6151 11.4148C107.962 11.4148 135.806 39.2587 135.806 73.6058C135.806 107.953 107.962 135.797 73.6151 135.797Z" stroke="url(#paint10_diamond_229_1383)" stroke-opacity="0.5" stroke-width="0.328645"/>
<path d="M73.6151 135.797C39.268 135.797 11.4241 107.953 11.4241 73.6058C11.4241 39.2587 39.268 11.4148 73.6151 11.4148C107.962 11.4148 135.806 39.2587 135.806 73.6058C135.806 107.953 107.962 135.797 73.6151 135.797Z" stroke="url(#paint11_linear_229_1383)" stroke-opacity="0.37" stroke-width="0.328645"/>
<circle cx="73.6152" cy="73.6057" r="56.9321" transform="rotate(90 73.6152 73.6057)" stroke="url(#paint12_diamond_229_1383)" stroke-opacity="0.5" stroke-width="0.328645"/>
<circle cx="73.6152" cy="73.6057" r="56.9321" transform="rotate(90 73.6152 73.6057)" stroke="url(#paint13_diamond_229_1383)" stroke-opacity="0.5" stroke-width="0.328645"/>
<circle cx="73.6152" cy="73.6057" r="56.9321" transform="rotate(90 73.6152 73.6057)" stroke="url(#paint14_linear_229_1383)" stroke-opacity="0.37" stroke-width="0.328645"/>
<circle cx="73.6153" cy="73.6059" r="52.4245" transform="rotate(90 73.6153 73.6059)" stroke="url(#paint15_diamond_229_1383)" stroke-opacity="0.5" stroke-width="0.328645"/>
<circle cx="73.6153" cy="73.6059" r="52.4245" transform="rotate(90 73.6153 73.6059)" stroke="url(#paint16_diamond_229_1383)" stroke-opacity="0.5" stroke-width="0.328645"/>
<circle cx="73.6153" cy="73.6059" r="52.4245" transform="rotate(90 73.6153 73.6059)" stroke="url(#paint17_linear_229_1383)" stroke-opacity="0.37" stroke-width="0.328645"/>
<circle cx="73.6153" cy="73.6059" r="48.6682" transform="rotate(90 73.6153 73.6059)" stroke="url(#paint18_diamond_229_1383)" stroke-opacity="0.5" stroke-width="0.328645"/>
<circle cx="73.6153" cy="73.6059" r="48.6682" transform="rotate(90 73.6153 73.6059)" stroke="url(#paint19_diamond_229_1383)" stroke-opacity="0.5" stroke-width="0.328645"/>
<circle cx="73.6153" cy="73.6059" r="48.6682" transform="rotate(90 73.6153 73.6059)" stroke="url(#paint20_linear_229_1383)" stroke-opacity="0.37" stroke-width="0.328645"/>
<circle cx="73.6151" cy="73.6056" r="44.1605" transform="rotate(90 73.6151 73.6056)" stroke="url(#paint21_diamond_229_1383)" stroke-opacity="0.5" stroke-width="0.328645"/>
<circle cx="73.6151" cy="73.6056" r="44.1605" transform="rotate(90 73.6151 73.6056)" stroke="url(#paint22_diamond_229_1383)" stroke-opacity="0.5" stroke-width="0.328645"/>
<circle cx="73.6151" cy="73.6056" r="44.1605" transform="rotate(90 73.6151 73.6056)" stroke="url(#paint23_linear_229_1383)" stroke-opacity="0.37" stroke-width="0.328645"/>
<path d="M73.6153 114.01C51.3007 114.01 33.2111 95.9203 33.2111 73.6056C33.2111 51.291 51.3007 33.2014 73.6153 33.2014C95.9299 33.2014 114.02 51.291 114.02 73.6056C114.02 95.9203 95.9299 114.01 73.6153 114.01Z" stroke="url(#paint24_diamond_229_1383)" stroke-opacity="0.5" stroke-width="0.328645"/>
<path d="M73.6153 114.01C51.3007 114.01 33.2111 95.9203 33.2111 73.6056C33.2111 51.291 51.3007 33.2014 73.6153 33.2014C95.9299 33.2014 114.02 51.291 114.02 73.6056C114.02 95.9203 95.9299 114.01 73.6153 114.01Z" stroke="url(#paint25_diamond_229_1383)" stroke-opacity="0.5" stroke-width="0.328645"/>
<path d="M73.6153 114.01C51.3007 114.01 33.2111 95.9203 33.2111 73.6056C33.2111 51.291 51.3007 33.2014 73.6153 33.2014C95.9299 33.2014 114.02 51.291 114.02 73.6056C114.02 95.9203 95.9299 114.01 73.6153 114.01Z" stroke="url(#paint26_linear_229_1383)" stroke-opacity="0.37" stroke-width="0.328645"/>
<circle cx="73.6151" cy="73.6058" r="35.8966" transform="rotate(90 73.6151 73.6058)" stroke="url(#paint27_diamond_229_1383)" stroke-opacity="0.5" stroke-width="0.328645"/>
<circle cx="73.6151" cy="73.6058" r="35.8966" transform="rotate(90 73.6151 73.6058)" stroke="url(#paint28_diamond_229_1383)" stroke-opacity="0.5" stroke-width="0.328645"/>
<circle cx="73.6151" cy="73.6058" r="35.8966" transform="rotate(90 73.6151 73.6058)" stroke="url(#paint29_linear_229_1383)" stroke-opacity="0.37" stroke-width="0.328645"/>
<path d="M73.6151 105.746C55.8645 105.746 41.4749 91.3564 41.4749 73.6058C41.4749 55.8553 55.8645 41.4656 73.6151 41.4656C91.3657 41.4656 105.755 55.8553 105.755 73.6058C105.755 91.3564 91.3657 105.746 73.6151 105.746Z" stroke="url(#paint30_diamond_229_1383)" stroke-opacity="0.5" stroke-width="0.328645"/>
<path d="M73.6151 105.746C55.8645 105.746 41.4749 91.3564 41.4749 73.6058C41.4749 55.8553 55.8645 41.4656 73.6151 41.4656C91.3657 41.4656 105.755 55.8553 105.755 73.6058C105.755 91.3564 91.3657 105.746 73.6151 105.746Z" stroke="url(#paint31_diamond_229_1383)" stroke-opacity="0.5" stroke-width="0.328645"/>
<path d="M73.6151 105.746C55.8645 105.746 41.4749 91.3564 41.4749 73.6058C41.4749 55.8553 55.8645 41.4656 73.6151 41.4656C91.3657 41.4656 105.755 55.8553 105.755 73.6058C105.755 91.3564 91.3657 105.746 73.6151 105.746Z" stroke="url(#paint32_linear_229_1383)" stroke-opacity="0.37" stroke-width="0.328645"/>
<path d="M73.6154 101.99C57.9394 101.99 45.2315 89.2818 45.2315 73.6058C45.2315 57.9298 57.9394 45.2219 73.6154 45.2219C89.2913 45.2219 101.999 57.9298 101.999 73.6058C101.999 89.2818 89.2913 101.99 73.6154 101.99Z" stroke="url(#paint33_diamond_229_1383)" stroke-opacity="0.5" stroke-width="0.328645"/>
<path d="M73.6154 101.99C57.9394 101.99 45.2315 89.2818 45.2315 73.6058C45.2315 57.9298 57.9394 45.2219 73.6154 45.2219C89.2913 45.2219 101.999 57.9298 101.999 73.6058C101.999 89.2818 89.2913 101.99 73.6154 101.99Z" stroke="url(#paint34_diamond_229_1383)" stroke-opacity="0.5" stroke-width="0.328645"/>
<path d="M73.6154 101.99C57.9394 101.99 45.2315 89.2818 45.2315 73.6058C45.2315 57.9298 57.9394 45.2219 73.6154 45.2219C89.2913 45.2219 101.999 57.9298 101.999 73.6058C101.999 89.2818 89.2913 101.99 73.6154 101.99Z" stroke="url(#paint35_linear_229_1383)" stroke-opacity="0.37" stroke-width="0.328645"/>
<path fill-rule="evenodd" clip-rule="evenodd" d="M50.3351 73.9999C50.3351 87.0697 60.9303 97.6649 74.0001 97.6649C87.0699 97.6649 97.665 87.0697 97.665 73.9999C97.665 60.9301 87.0699 50.335 74.0001 50.335C60.9303 50.335 50.3351 60.9301 50.3351 73.9999ZM71.8043 73.9999C71.8043 75.2126 72.7874 76.1957 74.0001 76.1957C75.2127 76.1957 76.1958 75.2126 76.1958 73.9999C76.1958 72.7873 75.2127 71.8042 74.0001 71.8042C72.7874 71.8042 71.8043 72.7873 71.8043 73.9999Z" fill="#A5A5A5"/>
<circle cx="74.0001" cy="73.9999" r="25.5316" transform="rotate(90 74.0001 73.9999)" stroke="black" stroke-width="3.77942"/>
<path fill-rule="evenodd" clip-rule="evenodd" d="M50.3324 74.0024C50.3324 87.0722 60.9276 97.6674 73.9974 97.6674C87.0672 97.6674 97.6624 87.0722 97.6624 74.0024C97.6624 60.9326 87.0672 50.3374 73.9974 50.3374C60.9276 50.3374 50.3324 60.9326 50.3324 74.0024ZM71.8017 74.0024C71.8017 75.215 72.7847 76.1981 73.9974 76.1981C75.21 76.1981 76.1931 75.215 76.1931 74.0024C76.1931 72.7897 75.21 71.8067 73.9974 71.8067C72.7847 71.8067 71.8017 72.7897 71.8017 74.0024Z" fill="#5CB28A"/>
<circle cx="73.9853" cy="74.0145" r="9.07161" transform="rotate(90 73.9853 74.0145)" stroke="white" stroke-width="0.0770833"/>
<path d="M86.1833 59.7157H87.815V60.082H87.1379V61.1698H87.815V61.5361H86.1833V61.1698H86.8715V60.082H86.1833V59.7157ZM86.1833 62.2642C86.1833 62.1717 86.1954 62.1005 86.2194 62.0506C86.2435 62.0006 86.274 61.9645 86.311 61.9423C86.348 61.922 86.3868 61.909 86.4275 61.9035C86.4682 61.8998 86.5052 61.8979 86.5385 61.8979H87.0713C87.0991 61.8979 87.1324 61.8998 87.1712 61.9035C87.2119 61.909 87.2517 61.922 87.2906 61.9423C87.3294 61.9645 87.3618 62.0006 87.3877 62.0506C87.4136 62.1024 87.4265 62.1736 87.4265 62.2642V62.8609C87.4265 62.983 87.4145 63.0782 87.3905 63.1467C87.3683 63.217 87.3313 63.266 87.2795 63.2938C87.2277 63.3234 87.1583 63.3382 87.0713 63.3382H86.6606V62.8525C86.6606 62.686 86.6643 62.5501 86.6717 62.4446C86.6791 62.341 86.6838 62.2716 86.6856 62.2365H86.533C86.459 62.2346 86.422 62.279 86.422 62.3697V62.5112C86.422 62.6111 86.4229 62.7082 86.4248 62.8026C86.4285 62.8988 86.4322 62.9867 86.4359 63.0662C86.4414 63.1458 86.446 63.2096 86.4497 63.2577L86.2694 63.3687C86.212 63.3687 86.1833 63.1865 86.1833 62.822V62.2642ZM86.8993 62.2365V62.9996H87.0769C87.1139 62.9996 87.1398 62.995 87.1546 62.9857C87.1694 62.9783 87.1786 62.9543 87.1823 62.9136C87.186 62.8729 87.1879 62.8035 87.1879 62.7055V62.3697C87.1879 62.2809 87.1509 62.2365 87.0769 62.2365H86.8993ZM86.1833 63.6465H87.4265V63.8741L87.371 63.9795C87.3969 64.0276 87.4173 64.0794 87.4321 64.1349C87.4469 64.1904 87.4543 64.2607 87.4543 64.3458C87.4543 64.4809 87.4395 64.59 87.4099 64.6733C87.3803 64.7584 87.3581 64.8148 87.3433 64.8425L87.1019 64.7454C87.113 64.7232 87.1268 64.6862 87.1435 64.6344C87.162 64.5845 87.1786 64.5253 87.1934 64.4568C87.2082 64.3884 87.2156 64.3134 87.2156 64.232V64.2015C87.2156 64.1127 87.1981 64.0544 87.1629 64.0267C87.1278 64.0008 87.0695 63.9869 86.9881 63.9851H86.1833V63.6465ZM86.1833 65.3753C86.1833 65.2828 86.1954 65.2116 86.2194 65.1616C86.2435 65.1117 86.274 65.0756 86.311 65.0534C86.348 65.033 86.3868 65.0201 86.4275 65.0145C86.4682 65.0108 86.5052 65.009 86.5385 65.009H87.0713C87.0991 65.009 87.1324 65.0108 87.1712 65.0145C87.2119 65.0201 87.2517 65.033 87.2906 65.0534C87.3294 65.0756 87.3618 65.1117 87.3877 65.1616C87.4136 65.2134 87.4265 65.2846 87.4265 65.3753V65.9719C87.4265 66.094 87.4145 66.1893 87.3905 66.2577C87.3683 66.328 87.3313 66.3771 87.2795 66.4048C87.2277 66.4344 87.1583 66.4492 87.0713 66.4492H86.6606V65.9636C86.6606 65.7971 86.6643 65.6611 86.6717 65.5557C86.6791 65.4521 86.6838 65.3827 86.6856 65.3475H86.533C86.459 65.3457 86.422 65.3901 86.422 65.4807V65.6223C86.422 65.7222 86.4229 65.8193 86.4248 65.9136C86.4285 66.0098 86.4322 66.0977 86.4359 66.1773C86.4414 66.2568 86.446 66.3206 86.4497 66.3687L86.2694 66.4797C86.212 66.4797 86.1833 66.2975 86.1833 65.9331V65.3753ZM86.8993 65.3475V66.1107H87.0769C87.1139 66.1107 87.1398 66.106 87.1546 66.0968C87.1694 66.0894 87.1786 66.0653 87.1823 66.0246C87.186 65.9839 87.1879 65.9146 87.1879 65.8165V65.4807C87.1879 65.3919 87.1509 65.3475 87.0769 65.3475H86.8993ZM87.6014 67.5643C87.6014 67.4959 87.6152 67.4459 87.643 67.4145C87.6707 67.383 87.717 67.3673 87.7817 67.3673C87.8483 67.3673 87.8946 67.3821 87.9205 67.4117C87.9482 67.4431 87.9621 67.494 87.9621 67.5643C87.9621 67.6346 87.9482 67.6855 87.9205 67.7169C87.8946 67.7484 87.8483 67.7641 87.7817 67.7641C87.7188 67.7641 87.6726 67.7484 87.643 67.7169C87.6152 67.6855 87.6014 67.6346 87.6014 67.5643ZM86.1833 67.395H87.4265V67.7336H86.1833V67.395ZM86.1833 68.4098C86.1833 68.2859 86.1898 68.198 86.2028 68.1462C86.2157 68.0944 86.2287 68.0685 86.2416 68.0685L86.4497 68.1518C86.4442 68.2054 86.4377 68.3035 86.4303 68.4459C86.4248 68.5902 86.422 68.7678 86.422 68.9787V69.1175C86.422 69.1637 86.434 69.1924 86.4581 69.2035C86.484 69.2164 86.5182 69.2229 86.5607 69.2229C86.6033 69.2229 86.6375 69.2155 86.6634 69.2007C86.6893 69.1878 86.7023 69.16 86.7023 69.1175V68.4348C86.7023 68.3053 86.7263 68.2119 86.7744 68.1545C86.8244 68.0972 86.8984 68.0685 86.9964 68.0685H87.1074C87.1333 68.0685 87.1638 68.0713 87.199 68.0768C87.2341 68.0824 87.2693 68.0963 87.3044 68.1185C87.3396 68.1407 87.3683 68.1767 87.3905 68.2267C87.4145 68.2766 87.4265 68.346 87.4265 68.4348V69.2007C87.4265 69.3117 87.4201 69.3903 87.4071 69.4366C87.3942 69.4828 87.3812 69.506 87.3683 69.506L87.1601 69.4782C87.1657 69.4246 87.1712 69.3256 87.1768 69.1813C87.1842 69.037 87.1879 68.8603 87.1879 68.6513V68.5125C87.1879 68.4663 87.1749 68.4367 87.149 68.4237C87.125 68.4126 87.0963 68.4071 87.063 68.4071C87.0279 68.4071 86.9983 68.4126 86.9742 68.4237C86.952 68.4367 86.9409 68.4663 86.9409 68.5125V69.1952C86.9409 69.321 86.915 69.4135 86.8632 69.4727C86.8114 69.5319 86.7457 69.5615 86.6662 69.5615H86.5025C86.4692 69.5615 86.434 69.5587 86.397 69.5531C86.36 69.5494 86.3249 69.5365 86.2916 69.5143C86.2601 69.4921 86.2342 69.456 86.2139 69.4061C86.1935 69.3561 86.1833 69.2858 86.1833 69.1952V68.4098ZM86.1833 70.4756H87.4265V70.7032L87.3932 70.7725C87.4025 70.8262 87.4099 70.8919 87.4154 70.9696C87.4228 71.0473 87.4265 71.1398 87.4265 71.2471V71.3858C87.4265 71.4395 87.4191 71.4913 87.4043 71.5412C87.3914 71.5912 87.372 71.6282 87.3461 71.6522C87.3701 71.7003 87.3895 71.7669 87.4043 71.852C87.4191 71.9371 87.4265 72.0481 87.4265 72.185V72.3238C87.4265 72.4163 87.4136 72.4875 87.3877 72.5374C87.3618 72.5874 87.3294 72.6225 87.2906 72.6429C87.2517 72.6651 87.2119 72.678 87.1712 72.6817C87.1324 72.6873 87.0991 72.6901 87.0713 72.6901H86.1833V72.3515H87.0769C87.1509 72.3515 87.1879 72.3071 87.1879 72.2183V71.8298C87.1879 71.8002 87.1842 71.7799 87.1768 71.7688C87.1694 71.7577 87.1527 71.7521 87.1268 71.7521H86.1833V71.4136H87.0769C87.1509 71.4136 87.1879 71.3692 87.1879 71.2804V70.8974C87.1879 70.8623 87.1842 70.8391 87.1768 70.828C87.1712 70.8188 87.1546 70.8142 87.1268 70.8142H86.1833V70.4756ZM85.6394 73.126C85.6394 73.0372 85.6496 72.9558 85.67 72.8818C85.6903 72.8078 85.7088 72.7578 85.7255 72.7319L85.9752 72.8152C85.9623 72.8466 85.9475 72.891 85.9308 72.9484C85.9123 73.0076 85.9031 73.0742 85.9031 73.1482V73.1787C85.9031 73.2638 85.929 73.3387 85.9808 73.4035C86.0307 73.4701 86.0982 73.521 86.1833 73.5561V73.4174L87.4265 72.8735V73.262L86.6606 73.5811L86.4608 73.6532V73.681L86.6606 73.7531L87.4265 74.0778V74.4552L87.2573 74.4108C87.1851 74.3757 87.1019 74.335 87.0075 74.2887C86.915 74.2443 86.8188 74.1981 86.7189 74.15C86.619 74.1019 86.5228 74.0547 86.4303 74.0084C86.3378 73.964 86.2555 73.9243 86.1833 73.8891C86.0723 73.8355 85.9761 73.7763 85.8947 73.7115C85.8133 73.6486 85.7504 73.5755 85.706 73.4923C85.6616 73.4109 85.6394 73.3138 85.6394 73.2009V73.126ZM85.6672 75.2587H87.4265V75.4863L87.3905 75.5556C87.3997 75.6389 87.408 75.7379 87.4154 75.8526C87.4228 75.9691 87.4265 76.1014 87.4265 76.2494V76.3909C87.4265 76.4834 87.4145 76.5546 87.3905 76.6046C87.3664 76.6545 87.3359 76.6897 87.2989 76.71C87.2619 76.7322 87.223 76.7452 87.1823 76.7489C87.1416 76.7544 87.1046 76.7572 87.0713 76.7572H86.5385C86.5108 76.7572 86.4766 76.7544 86.4359 76.7489C86.397 76.7452 86.3582 76.7322 86.3193 76.71C86.2805 76.6897 86.2481 76.6545 86.2222 76.6046C86.1963 76.5546 86.1833 76.4834 86.1833 76.3909V76.2494C86.1833 76.1088 86.187 75.9839 86.1944 75.8748C86.2018 75.7656 86.2092 75.6731 86.2166 75.5973H85.6672V75.2587ZM86.422 75.6833V76.2855C86.422 76.3206 86.4312 76.3511 86.4497 76.377C86.4682 76.4048 86.496 76.4187 86.533 76.4187H87.0769C87.1176 76.4205 87.1463 76.4103 87.1629 76.3881C87.1796 76.3678 87.1879 76.3336 87.1879 76.2855V76.1467C87.1879 76.0283 87.1851 75.9229 87.1796 75.8304C87.1759 75.7397 87.1712 75.662 87.1657 75.5973H86.508C86.4673 75.5973 86.4423 75.601 86.4331 75.6084C86.4257 75.6176 86.422 75.6426 86.422 75.6833ZM86.1833 77.4021C86.1833 77.2781 86.2083 77.1856 86.2583 77.1246C86.3082 77.0654 86.3896 77.0358 86.5025 77.0358H87.0713C87.0991 77.0358 87.1324 77.0376 87.1712 77.0413C87.2119 77.0469 87.2517 77.0598 87.2906 77.0802C87.3294 77.1024 87.3618 77.1385 87.3877 77.1884C87.4136 77.2402 87.4265 77.3114 87.4265 77.4021V78.168C87.4265 78.2605 87.4136 78.3317 87.3877 78.3817C87.3618 78.4316 87.3294 78.4668 87.2906 78.4871C87.2517 78.5093 87.2119 78.5223 87.1712 78.526C87.1324 78.5315 87.0991 78.5343 87.0713 78.5343H86.5385C86.5052 78.5343 86.4682 78.5315 86.4275 78.526C86.3868 78.5223 86.348 78.5093 86.311 78.4871C86.274 78.4649 86.2435 78.4288 86.2194 78.3789C86.1954 78.3289 86.1833 78.2586 86.1833 78.168V77.4021ZM86.422 77.5075V78.0625C86.422 78.1532 86.459 78.1985 86.533 78.1985H87.0769C87.1509 78.1985 87.1879 78.1532 87.1879 78.0625V77.5075C87.1879 77.4187 87.1509 77.3743 87.0769 77.3743H86.533C86.459 77.3743 86.422 77.4187 86.422 77.5075ZM86.1833 78.8386H87.4265V79.0661L87.371 79.1716C87.3969 79.2197 87.4173 79.2715 87.4321 79.327C87.4469 79.3825 87.4543 79.4528 87.4543 79.5379C87.4543 79.6729 87.4395 79.7821 87.4099 79.8653C87.3803 79.9504 87.3581 80.0068 87.3433 80.0346L87.1019 79.9375C87.113 79.9153 87.1268 79.8783 87.1435 79.8265C87.162 79.7765 87.1786 79.7173 87.1934 79.6489C87.2082 79.5804 87.2156 79.5055 87.2156 79.4241V79.3936C87.2156 79.3048 87.1981 79.2465 87.1629 79.2187C87.1278 79.1928 87.0695 79.179 86.9881 79.1771H86.1833V78.8386ZM86.1833 80.7116C86.1833 80.571 86.2129 80.4748 86.2721 80.423C86.3313 80.3712 86.4201 80.3453 86.5385 80.3453H87.1879V80.1178H87.4265V80.2343C87.4265 80.2695 87.4321 80.2944 87.4432 80.3092C87.4543 80.3259 87.4765 80.3379 87.5098 80.3453L87.8067 80.4008V80.6839H87.4265V81.2611H87.1879V80.6839H86.5358C86.4895 80.6839 86.459 80.695 86.4442 80.7172C86.4294 80.7394 86.422 80.7727 86.422 80.8171V81.2083L86.2111 81.2361C86.2055 81.1972 86.1991 81.138 86.1917 81.0585C86.1861 80.9789 86.1833 80.892 86.1833 80.7976V80.7116ZM86.1833 81.5445H87.1879V81.3725H87.4238V81.5445H87.6707C87.7336 81.5445 87.7919 81.5566 87.8456 81.5806C87.8992 81.6065 87.9427 81.6481 87.976 81.7055C88.0093 81.7647 88.0259 81.8424 88.0259 81.9386V82.0773C88.0259 82.2993 88.0158 82.4584 87.9954 82.5546C87.9751 82.6527 87.9575 82.7017 87.9427 82.7017L87.7318 82.6185C87.7447 82.587 87.7568 82.5306 87.7679 82.4492C87.7808 82.3678 87.7873 82.2697 87.7873 82.155V82.0163C87.7873 81.97 87.779 81.9358 87.7623 81.9136C87.7457 81.8933 87.717 81.8831 87.6763 81.8831H87.4238V82.4603H87.1879V81.8831H86.1833V81.5445ZM86.1833 83.0388C86.1833 82.9149 86.2083 82.8224 86.2583 82.7613C86.3082 82.7021 86.3896 82.6725 86.5025 82.6725H87.0713C87.0991 82.6725 87.1324 82.6744 87.1712 82.6781C87.2119 82.6836 87.2517 82.6966 87.2906 82.7169C87.3294 82.7391 87.3618 82.7752 87.3877 82.8251C87.4136 82.8769 87.4265 82.9482 87.4265 83.0388V83.8047C87.4265 83.8972 87.4136 83.9684 87.3877 84.0184C87.3618 84.0683 87.3294 84.1035 87.2906 84.1238C87.2517 84.146 87.2119 84.159 87.1712 84.1627C87.1324 84.1682 87.0991 84.171 87.0713 84.171H86.5385C86.5052 84.171 86.4682 84.1682 86.4275 84.1627C86.3868 84.159 86.348 84.146 86.311 84.1238C86.274 84.1016 86.2435 84.0656 86.2194 84.0156C86.1954 83.9657 86.1833 83.8954 86.1833 83.8047V83.0388ZM86.422 83.1443V83.6993C86.422 83.7899 86.459 83.8352 86.533 83.8352H87.0769C87.1509 83.8352 87.1879 83.7899 87.1879 83.6993V83.1443C87.1879 83.0555 87.1509 83.0111 87.0769 83.0111H86.533C86.459 83.0111 86.422 83.0555 86.422 83.1443ZM86.1833 84.503H87.7207L87.9427 84.4753V84.8416H86.1833V84.503ZM87.6014 85.3715C87.6014 85.303 87.6152 85.2531 87.643 85.2216C87.6707 85.1902 87.717 85.1744 87.7817 85.1744C87.8483 85.1744 87.8946 85.1892 87.9205 85.2188C87.9482 85.2503 87.9621 85.3012 87.9621 85.3715C87.9621 85.4418 87.9482 85.4926 87.9205 85.5241C87.8946 85.5555 87.8483 85.5713 87.7817 85.5713C87.7188 85.5713 87.6726 85.5555 87.643 85.5241C87.6152 85.4926 87.6014 85.4418 87.6014 85.3715ZM86.1833 85.2022H87.4265V85.5407H86.1833V85.2022ZM86.1833 86.242C86.1833 86.118 86.2083 86.0255 86.2583 85.9645C86.3082 85.9053 86.3896 85.8757 86.5025 85.8757H87.0713C87.0991 85.8757 87.1324 85.8775 87.1712 85.8812C87.2119 85.8868 87.2517 85.8997 87.2906 85.9201C87.3294 85.9423 87.3618 85.9783 87.3877 86.0283C87.4136 86.0801 87.4265 86.1513 87.4265 86.242V87.0079C87.4265 87.1004 87.4136 87.1716 87.3877 87.2215C87.3618 87.2715 87.3294 87.3066 87.2906 87.327C87.2517 87.3492 87.2119 87.3621 87.1712 87.3658C87.1324 87.3714 87.0991 87.3742 87.0713 87.3742H86.5385C86.5052 87.3742 86.4682 87.3714 86.4275 87.3658C86.3868 87.3621 86.348 87.3492 86.311 87.327C86.274 87.3048 86.2435 87.2687 86.2194 87.2188C86.1954 87.1688 86.1833 87.0985 86.1833 87.0079V86.242ZM86.422 86.3474V86.9024C86.422 86.9931 86.459 87.0384 86.533 87.0384H87.0769C87.1509 87.0384 87.1879 86.9931 87.1879 86.9024V86.3474C87.1879 86.2586 87.1509 86.2142 87.0769 86.2142H86.533C86.459 86.2142 86.422 86.2586 86.422 86.3474ZM86.1833 87.931C86.1833 87.8625 86.1972 87.8126 86.225 87.7811C86.2527 87.7497 86.299 87.7339 86.3637 87.7339C86.4303 87.7339 86.4766 87.7487 86.5025 87.7783C86.5302 87.8098 86.5441 87.8607 86.5441 87.931C86.5441 88.0013 86.5302 88.0521 86.5025 88.0836C86.4766 88.115 86.4303 88.1308 86.3637 88.1308C86.3008 88.1308 86.2546 88.115 86.225 88.0836C86.1972 88.0521 86.1833 88.0013 86.1833 87.931Z" fill="#2A1919"/>
<path d="M90.1187 66L93.0145 64.9393V65.63L91.1201 66.3256L90.6416 66.4391V66.4884L90.9771 66.5525L93.0145 67.2087V68.0473L90.9771 68.7331L90.6416 68.8219V68.8712L91.1201 68.9847L93.0145 69.6309V70.3216L92.7185 70.2723L90.1187 69.256V68.4173L92.0575 67.7464L92.3732 67.6477V67.5984L92.0575 67.5047L90.1187 66.8387V66ZM90.1187 71.0729C90.1187 70.8525 90.1631 70.6881 90.2519 70.5796C90.3407 70.4743 90.4854 70.4217 90.686 70.4217H91.6973C91.7467 70.4217 91.8059 70.425 91.8749 70.4316C91.9473 70.4414 92.018 70.4645 92.0871 70.5006C92.1561 70.5401 92.2137 70.6042 92.2597 70.693C92.3058 70.7851 92.3288 70.9117 92.3288 71.0729V72.4345C92.3288 72.5989 92.3058 72.7256 92.2597 72.8144C92.2137 72.9032 92.1561 72.9657 92.0871 73.0018C92.018 73.0413 91.9473 73.0643 91.8749 73.0709C91.8059 73.0808 91.7467 73.0857 91.6973 73.0857H90.7501C90.6909 73.0857 90.6251 73.0808 90.5528 73.0709C90.4804 73.0643 90.4114 73.0413 90.3456 73.0018C90.2798 72.9624 90.2255 72.8982 90.1828 72.8094C90.14 72.7206 90.1187 72.5957 90.1187 72.4345V71.0729ZM90.5429 71.2604V72.247C90.5429 72.4082 90.6087 72.4888 90.7403 72.4888H91.7072C91.8387 72.4888 91.9045 72.4082 91.9045 72.247V71.2604C91.9045 71.1025 91.8387 71.0236 91.7072 71.0236H90.7403C90.6087 71.0236 90.5429 71.1025 90.5429 71.2604ZM90.1187 73.6266H92.3288V74.0312L92.2301 74.2186C92.2762 74.3041 92.3123 74.3962 92.3387 74.4949C92.365 74.5936 92.3781 74.7185 92.3781 74.8698C92.3781 75.1099 92.3518 75.304 92.2992 75.452C92.2466 75.6033 92.2071 75.7036 92.1808 75.7529L91.7516 75.5802C91.7713 75.5408 91.796 75.475 91.8256 75.3829C91.8585 75.2941 91.8881 75.1889 91.9144 75.0672C91.9407 74.9455 91.9539 74.8123 91.9539 74.6676V74.6133C91.9539 74.4554 91.9226 74.3518 91.8601 74.3025C91.7976 74.2565 91.694 74.2318 91.5493 74.2285H90.1187V73.6266ZM90.0693 78.4612C90.0693 78.323 90.0858 78.2046 90.1187 78.106C90.1515 78.0106 90.2223 77.9086 90.3308 77.8001C90.3407 77.7902 90.367 77.7639 90.4097 77.7212C90.4525 77.6784 90.5002 77.6307 90.5528 77.5781C90.6054 77.5288 90.6531 77.4827 90.6959 77.44C90.7386 77.3972 90.7666 77.3693 90.7797 77.3561C90.8619 77.2739 90.9261 77.195 90.9721 77.1193C91.0182 77.047 91.0412 76.9565 91.0412 76.848C91.0412 76.7756 91.0346 76.7329 91.0215 76.7197C91.0083 76.7066 90.9639 76.7 90.8883 76.7H90.1187V76.0981H93.2415V76.7H91.4655V76.8578C91.4655 76.917 91.4885 76.9697 91.5345 77.0157C91.5641 77.0453 91.6233 77.1012 91.7121 77.1834C91.8009 77.2657 91.9012 77.3578 92.0131 77.4597C92.1249 77.565 92.2285 77.6603 92.3239 77.7458V78.471L92.1709 78.3921C92.092 78.3165 92.0081 78.2342 91.9193 78.1454C91.8338 78.0566 91.7499 77.9695 91.6677 77.884C91.5888 77.8018 91.5181 77.7261 91.4556 77.657C91.3964 77.588 91.3569 77.5354 91.3372 77.4992C91.2846 77.5978 91.2237 77.6866 91.1547 77.7656C91.0889 77.8445 91.0132 77.93 90.9277 78.0221C90.8455 78.1142 90.7518 78.2244 90.6465 78.3526C90.5544 78.4678 90.5002 78.5746 90.4837 78.6733C90.4706 78.772 90.464 78.8312 90.464 78.8509L90.1187 78.7621C90.1088 78.7292 90.0989 78.6848 90.0891 78.6289C90.0759 78.573 90.0693 78.5171 90.0693 78.4612ZM90.1187 79.7052C90.1187 79.4848 90.1302 79.3286 90.1532 79.2365C90.1762 79.1444 90.1992 79.0984 90.2223 79.0984L90.5923 79.2464C90.5824 79.3418 90.5709 79.5161 90.5577 79.7693C90.5479 80.0259 90.5429 80.3416 90.5429 80.7165V80.9632C90.5429 81.0454 90.5643 81.0964 90.6071 81.1161C90.6531 81.1391 90.7139 81.1507 90.7896 81.1507C90.8652 81.1507 90.9261 81.1375 90.9721 81.1112C91.0182 81.0882 91.0412 81.0388 91.0412 80.9632V79.7496C91.0412 79.5194 91.0839 79.3533 91.1695 79.2513C91.2583 79.1494 91.3898 79.0984 91.5641 79.0984H91.7615C91.8075 79.0984 91.8618 79.1033 91.9243 79.1132C91.9867 79.1231 92.0492 79.1477 92.1117 79.1872C92.1742 79.2267 92.2252 79.2908 92.2647 79.3796C92.3074 79.4684 92.3288 79.5917 92.3288 79.7496V81.1112C92.3288 81.3085 92.3173 81.4483 92.2943 81.5305C92.2712 81.6127 92.2482 81.6539 92.2252 81.6539L91.8552 81.6045C91.8651 81.5091 91.8749 81.3332 91.8848 81.0767C91.8979 80.8201 91.9045 80.506 91.9045 80.1344V79.8877C91.9045 79.8055 91.8815 79.7529 91.8355 79.7299C91.7927 79.7101 91.7417 79.7003 91.6825 79.7003C91.62 79.7003 91.5674 79.7101 91.5247 79.7299C91.4852 79.7529 91.4655 79.8055 91.4655 79.8877V81.1013C91.4655 81.325 91.4194 81.4894 91.3273 81.5947C91.2352 81.6999 91.1185 81.7525 90.9771 81.7525H90.686C90.6268 81.7525 90.5643 81.7476 90.4985 81.7377C90.4327 81.7311 90.3703 81.7081 90.3111 81.6687C90.2551 81.6292 90.2091 81.5651 90.1729 81.4763C90.1367 81.3875 90.1187 81.2625 90.1187 81.1013V79.7052Z" fill="#2A1919"/>
<path d="M59.4333 60.1184H60.3398V60.3219H59.4333V60.1184ZM59.4333 60.5377H60.124V60.6641L60.0932 60.7258C60.1014 60.769 60.1086 60.8209 60.1148 60.8815C60.1209 60.9421 60.124 61.0115 60.124 61.0896V61.1667C60.124 61.2181 60.1168 61.2577 60.1024 61.2854C60.088 61.3132 60.0701 61.3327 60.0485 61.344C60.0269 61.3563 60.0048 61.3635 59.9822 61.3656C59.9606 61.3687 59.9421 61.3702 59.9267 61.3702H59.4333V61.1821H59.9298C59.9709 61.1821 59.9914 61.1575 59.9914 61.1081V60.772C59.9914 60.7525 59.9894 60.7397 59.9853 60.7335C59.9822 60.7284 59.9729 60.7258 59.9575 60.7258H59.4333V60.5377ZM59.4333 62.1549C59.4333 62.0768 59.4498 62.0234 59.4827 61.9946C59.5156 61.9658 59.5649 61.9514 59.6307 61.9514H59.9914V61.825H60.124V61.8897C60.124 61.9093 60.1271 61.9232 60.1333 61.9314C60.1394 61.9406 60.1518 61.9473 60.1703 61.9514L60.3352 61.9822V62.1395H60.124V62.4602H59.9914V62.1395H59.6291C59.6034 62.1395 59.5865 62.1457 59.5783 62.158C59.57 62.1703 59.5659 62.1888 59.5659 62.2135V62.4309L59.4488 62.4463C59.4457 62.4247 59.4421 62.3918 59.438 62.3476C59.4349 62.3034 59.4333 62.2551 59.4333 62.2027V62.1549ZM59.4333 62.5837H60.4323V62.7718H60.0932C60.1014 62.815 60.1086 62.8669 60.1148 62.9275C60.1209 62.9882 60.124 63.0575 60.124 63.1356V63.2127C60.124 63.2641 60.1168 63.3037 60.1024 63.3314C60.088 63.3592 60.0701 63.3787 60.0485 63.39C60.0269 63.4024 60.0048 63.4095 59.9822 63.4116C59.9606 63.4147 59.9421 63.4162 59.9267 63.4162H59.4333V63.2281H59.9298C59.9709 63.2281 59.9914 63.2035 59.9914 63.1541V62.8181C59.9914 62.7985 59.9894 62.7857 59.9853 62.7795C59.9822 62.7744 59.9729 62.7718 59.9575 62.7718H59.4333V62.5837ZM59.4333 63.5939H60.124V63.7204L60.0932 63.7789C60.1076 63.8057 60.1189 63.8344 60.1271 63.8653C60.1353 63.8961 60.1394 63.9352 60.1394 63.9824C60.1394 64.0575 60.1312 64.1181 60.1148 64.1644C60.0983 64.2116 60.086 64.243 60.0778 64.2584L59.9436 64.2044C59.9498 64.1921 59.9575 64.1716 59.9668 64.1428C59.977 64.115 59.9863 64.0821 59.9945 64.0441C60.0027 64.0061 60.0068 63.9645 60.0068 63.9192V63.9023C60.0068 63.8529 59.9971 63.8206 59.9776 63.8051C59.958 63.7908 59.9257 63.7831 59.8804 63.782H59.4333V63.5939ZM59.4333 64.5544C59.4333 64.503 59.44 64.4634 59.4534 64.4357C59.4668 64.4079 59.4837 64.3879 59.5043 64.3755C59.5248 64.3642 59.5464 64.357 59.569 64.3539C59.5916 64.3519 59.6122 64.3509 59.6307 64.3509H59.9267C59.9421 64.3509 59.9606 64.3519 59.9822 64.3539C60.0048 64.357 60.0269 64.3642 60.0485 64.3755C60.0701 64.3879 60.088 64.4079 60.1024 64.4357C60.1168 64.4644 60.124 64.504 60.124 64.5544V64.8858C60.124 64.9537 60.1173 65.0066 60.104 65.0446C60.0916 65.0837 60.0711 65.1109 60.0423 65.1263C60.0135 65.1428 59.975 65.151 59.9267 65.151H59.6985V64.8812C59.6985 64.7887 59.7006 64.7132 59.7047 64.6546C59.7088 64.597 59.7114 64.5585 59.7124 64.5389H59.6276C59.5865 64.5379 59.5659 64.5626 59.5659 64.6129V64.6916C59.5659 64.7471 59.5664 64.801 59.5675 64.8534C59.5695 64.9069 59.5716 64.9557 59.5736 64.9999C59.5767 65.0441 59.5793 65.0796 59.5813 65.1063L59.4811 65.1679C59.4493 65.1679 59.4333 65.0667 59.4333 64.8642V64.5544ZM59.8311 64.5389V64.9629H59.9298C59.9503 64.9629 59.9647 64.9603 59.9729 64.9552C59.9812 64.9511 59.9863 64.9377 59.9883 64.9151C59.9904 64.8925 59.9914 64.854 59.9914 64.7995V64.6129C59.9914 64.5636 59.9709 64.5389 59.9298 64.5389H59.8311ZM59.4333 65.5104C59.4333 65.459 59.44 65.4194 59.4534 65.3917C59.4668 65.3639 59.4837 65.3439 59.5043 65.3315C59.5248 65.3202 59.5464 65.313 59.569 65.31C59.5916 65.3079 59.6122 65.3069 59.6307 65.3069H59.9267C59.9421 65.3069 59.9606 65.3079 59.9822 65.31C60.0048 65.313 60.0269 65.3202 60.0485 65.3315C60.0701 65.3439 60.088 65.3639 60.1024 65.3917C60.1168 65.4204 60.124 65.46 60.124 65.5104V65.8418C60.124 65.9097 60.1173 65.9626 60.104 66.0006C60.0916 66.0397 60.0711 66.0669 60.0423 66.0823C60.0135 66.0988 59.975 66.107 59.9267 66.107H59.6985V65.8372C59.6985 65.7447 59.7006 65.6692 59.7047 65.6106C59.7088 65.553 59.7114 65.5145 59.7124 65.495H59.6276C59.5865 65.4939 59.5659 65.5186 59.5659 65.569V65.6476C59.5659 65.7031 59.5664 65.757 59.5675 65.8095C59.5695 65.8629 59.5716 65.9117 59.5736 65.9559C59.5767 66.0001 59.5793 66.0356 59.5813 66.0623L59.4811 66.124C59.4493 66.124 59.4333 66.0227 59.4333 65.8203V65.5104ZM59.8311 65.495V65.9189H59.9298C59.9503 65.9189 59.9647 65.9163 59.9729 65.9112C59.9812 65.9071 59.9863 65.8937 59.9883 65.8711C59.9904 65.8485 59.9914 65.81 59.9914 65.7555V65.569C59.9914 65.5196 59.9709 65.495 59.9298 65.495H59.8311ZM59.4333 66.6171H60.124V66.7435L60.1055 66.782C60.1107 66.8118 60.1148 66.8483 60.1178 66.8915C60.122 66.9346 60.124 66.986 60.124 67.0456V67.1227C60.124 67.1525 60.1199 67.1813 60.1117 67.2091C60.1045 67.2368 60.0937 67.2574 60.0793 67.2707C60.0927 67.2974 60.1035 67.3344 60.1117 67.3817C60.1199 67.429 60.124 67.4907 60.124 67.5667V67.6438C60.124 67.6952 60.1168 67.7348 60.1024 67.7625C60.088 67.7903 60.0701 67.8098 60.0485 67.8211C60.0269 67.8334 60.0048 67.8406 59.9822 67.8427C59.9606 67.8458 59.9421 67.8473 59.9267 67.8473H59.4333V67.6592H59.9298C59.9709 67.6592 59.9914 67.6346 59.9914 67.5852V67.3694C59.9914 67.3529 59.9894 67.3416 59.9853 67.3355C59.9812 67.3293 59.9719 67.3262 59.9575 67.3262H59.4333V67.1381H59.9298C59.9709 67.1381 59.9914 67.1135 59.9914 67.0641V66.8514C59.9914 66.8319 59.9894 66.819 59.9853 66.8128C59.9822 66.8077 59.9729 66.8051 59.9575 66.8051H59.4333V66.6171ZM59.4333 68.2128C59.4333 68.1439 59.4472 68.0926 59.475 68.0586C59.5027 68.0258 59.5479 68.0093 59.6106 68.0093H59.9267C59.9421 68.0093 59.9606 68.0103 59.9822 68.0124C60.0048 68.0155 60.0269 68.0227 60.0485 68.034C60.0701 68.0463 60.088 68.0664 60.1024 68.0941C60.1168 68.1229 60.124 68.1624 60.124 68.2128V68.6383C60.124 68.6897 60.1168 68.7293 60.1024 68.757C60.088 68.7848 60.0701 68.8043 60.0485 68.8156C60.0269 68.8279 60.0048 68.8351 59.9822 68.8372C59.9606 68.8403 59.9421 68.8418 59.9267 68.8418H59.6307C59.6122 68.8418 59.5916 68.8403 59.569 68.8372C59.5464 68.8351 59.5248 68.8279 59.5043 68.8156C59.4837 68.8033 59.4668 68.7832 59.4534 68.7555C59.44 68.7277 59.4333 68.6887 59.4333 68.6383V68.2128ZM59.5659 68.2714V68.5797C59.5659 68.6301 59.5865 68.6553 59.6276 68.6553H59.9298C59.9709 68.6553 59.9914 68.6301 59.9914 68.5797V68.2714C59.9914 68.2221 59.9709 68.1974 59.9298 68.1974H59.6276C59.5865 68.1974 59.5659 68.2221 59.5659 68.2714ZM59.4333 69.0109H60.124V69.1373L60.0932 69.1989C60.1014 69.2421 60.1086 69.294 60.1148 69.3546C60.1209 69.4153 60.124 69.4847 60.124 69.5628V69.6399C60.124 69.6912 60.1168 69.7308 60.1024 69.7586C60.088 69.7863 60.0701 69.8058 60.0485 69.8171C60.0269 69.8295 60.0048 69.8367 59.9822 69.8387C59.9606 69.8418 59.9421 69.8434 59.9267 69.8434H59.4333V69.6553H59.9298C59.9709 69.6553 59.9914 69.6306 59.9914 69.5813V69.2452C59.9914 69.2257 59.9894 69.2128 59.9853 69.2066C59.9822 69.2015 59.9729 69.1989 59.9575 69.1989H59.4333V69.0109ZM59.4333 70.2893C59.4333 70.2112 59.4498 70.1578 59.4827 70.129C59.5156 70.1002 59.5649 70.0858 59.6307 70.0858H59.9914V69.9594H60.124V70.0241C60.124 70.0437 60.1271 70.0576 60.1333 70.0658C60.1394 70.075 60.1518 70.0817 60.1703 70.0858L60.3352 70.1166V70.2739H60.124V70.5946H59.9914V70.2739H59.6291C59.6034 70.2739 59.5865 70.2801 59.5783 70.2924C59.57 70.3047 59.5659 70.3232 59.5659 70.3479V70.5653L59.4488 70.5807C59.4457 70.5591 59.4421 70.5262 59.438 70.482C59.4349 70.4378 59.4333 70.3895 59.4333 70.3371V70.2893ZM59.4333 70.7181H60.4323V70.9062H60.0932C60.1014 70.9494 60.1086 71.0013 60.1148 71.0619C60.1209 71.1226 60.124 71.1919 60.124 71.27V71.3471C60.124 71.3985 60.1168 71.4381 60.1024 71.4658C60.088 71.4936 60.0701 71.5131 60.0485 71.5244C60.0269 71.5368 60.0048 71.5439 59.9822 71.546C59.9606 71.5491 59.9421 71.5506 59.9267 71.5506H59.4333V71.3625H59.9298C59.9709 71.3625 59.9914 71.3379 59.9914 71.2885V70.9525C59.9914 70.9329 59.9894 70.9201 59.9853 70.9139C59.9822 70.9088 59.9729 70.9062 59.9575 70.9062H59.4333V70.7181ZM59.4333 71.9025C59.4333 71.8337 59.4369 71.7849 59.4441 71.7561C59.4513 71.7273 59.4585 71.7129 59.4657 71.7129L59.5813 71.7592C59.5783 71.789 59.5747 71.8435 59.5706 71.9226C59.5675 72.0028 59.5659 72.1014 59.5659 72.2186V72.2957C59.5659 72.3214 59.5726 72.3373 59.586 72.3435C59.6004 72.3507 59.6194 72.3543 59.643 72.3543C59.6667 72.3543 59.6857 72.3501 59.7001 72.3419C59.7144 72.3347 59.7216 72.3193 59.7216 72.2957V71.9164C59.7216 71.8445 59.735 71.7926 59.7617 71.7607C59.7895 71.7289 59.8306 71.7129 59.8851 71.7129H59.9467C59.9611 71.7129 59.9781 71.7145 59.9976 71.7175C60.0171 71.7206 60.0367 71.7283 60.0562 71.7407C60.0757 71.753 60.0916 71.773 60.104 71.8008C60.1173 71.8285 60.124 71.8671 60.124 71.9164V72.3419C60.124 72.4036 60.1204 72.4473 60.1132 72.473C60.106 72.4987 60.0988 72.5115 60.0916 72.5115L59.976 72.4961C59.9791 72.4663 59.9822 72.4113 59.9853 72.3311C59.9894 72.251 59.9914 72.1528 59.9914 72.0367V71.9596C59.9914 71.9339 59.9842 71.9175 59.9698 71.9103C59.9565 71.9041 59.9406 71.901 59.9221 71.901C59.9025 71.901 59.8861 71.9041 59.8727 71.9103C59.8604 71.9175 59.8542 71.9339 59.8542 71.9596V72.3388C59.8542 72.4087 59.8398 72.4601 59.8111 72.493C59.7823 72.5259 59.7458 72.5423 59.7016 72.5423H59.6106C59.5921 72.5423 59.5726 72.5408 59.5521 72.5377C59.5315 72.5357 59.512 72.5285 59.4935 72.5161C59.476 72.5038 59.4616 72.4838 59.4503 72.456C59.439 72.4283 59.4333 72.3892 59.4333 72.3388V71.9025ZM59.2206 72.7515C59.2144 72.73 59.2175 72.7171 59.2298 72.713C59.2412 72.7099 59.253 72.712 59.2653 72.7192C59.2735 72.7253 59.2869 72.7335 59.3054 72.7438C59.3239 72.7551 59.345 72.7659 59.3686 72.7762C59.3912 72.7865 59.4143 72.7932 59.438 72.7962C59.4421 72.7695 59.4518 72.75 59.4673 72.7377C59.4827 72.7253 59.5063 72.7192 59.5382 72.7192C59.5742 72.7192 59.5993 72.7274 59.6137 72.7438C59.6291 72.7613 59.6368 72.7896 59.6368 72.8286C59.6368 72.8708 59.6276 72.9021 59.6091 72.9227C59.5916 72.9442 59.5623 72.955 59.5212 72.955C59.4914 72.955 59.4601 72.9484 59.4272 72.935C59.3943 72.9227 59.3635 72.9062 59.3347 72.8857C59.3049 72.8651 59.2802 72.843 59.2607 72.8194C59.2401 72.7957 59.2268 72.7731 59.2206 72.7515ZM59.4333 73.5402H60.3398V73.7437H59.4333V73.5402ZM59.4333 74.2983H60.4323V74.4864H60.0932C60.1014 74.5295 60.1086 74.5814 60.1148 74.6421C60.1209 74.7027 60.124 74.7721 60.124 74.8502V74.9273C60.124 74.9787 60.1168 75.0182 60.1024 75.046C60.088 75.0737 60.0701 75.0933 60.0485 75.1046C60.0269 75.1169 60.0048 75.1241 59.9822 75.1262C59.9606 75.1292 59.9421 75.1308 59.9267 75.1308H59.4333V74.9427H59.9298C59.9709 74.9427 59.9914 74.918 59.9914 74.8687V74.5326C59.9914 74.5131 59.9894 74.5002 59.9853 74.4941C59.9822 74.4889 59.9729 74.4864 59.9575 74.4864H59.4333V74.2983ZM59.4333 75.4966C59.4333 75.4277 59.4472 75.3763 59.475 75.3424C59.5027 75.3095 59.5479 75.2931 59.6106 75.2931H59.9267C59.9421 75.2931 59.9606 75.2941 59.9822 75.2962C60.0048 75.2992 60.0269 75.3064 60.0485 75.3177C60.0701 75.3301 60.088 75.3501 60.1024 75.3779C60.1168 75.4067 60.124 75.4462 60.124 75.4966V75.9221C60.124 75.9735 60.1168 76.013 60.1024 76.0408C60.088 76.0685 60.0701 76.0881 60.0485 76.0994C60.0269 76.1117 60.0048 76.1189 59.9822 76.121C59.9606 76.124 59.9421 76.1256 59.9267 76.1256H59.6307C59.6122 76.1256 59.5916 76.124 59.569 76.121C59.5464 76.1189 59.5248 76.1117 59.5043 76.0994C59.4837 76.087 59.4668 76.067 59.4534 76.0392C59.44 76.0115 59.4333 75.9724 59.4333 75.9221V75.4966ZM59.5659 75.5552V75.8635C59.5659 75.9139 59.5865 75.939 59.6276 75.939H59.9298C59.9709 75.939 59.9914 75.9139 59.9914 75.8635V75.5552C59.9914 75.5058 59.9709 75.4812 59.9298 75.4812H59.6276C59.5865 75.4812 59.5659 75.5058 59.5659 75.5552ZM59.1466 76.2946H60.124V76.421L60.104 76.4596C60.1091 76.5058 60.1137 76.5608 60.1178 76.6245C60.122 76.6893 60.124 76.7628 60.124 76.845V76.9236C60.124 76.975 60.1173 77.0146 60.104 77.0423C60.0906 77.0701 60.0737 77.0896 60.0531 77.1009C60.0325 77.1132 60.011 77.1204 59.9883 77.1225C59.9657 77.1256 59.9452 77.1271 59.9267 77.1271H59.6307C59.6153 77.1271 59.5963 77.1256 59.5736 77.1225C59.5521 77.1204 59.5305 77.1132 59.5089 77.1009C59.4873 77.0896 59.4693 77.0701 59.4549 77.0423C59.4405 77.0146 59.4333 76.975 59.4333 76.9236V76.845C59.4333 76.7669 59.4354 76.6975 59.4395 76.6369C59.4436 76.5762 59.4477 76.5248 59.4518 76.4827H59.1466V76.2946ZM59.5659 76.5305V76.865C59.5659 76.8846 59.5711 76.9015 59.5813 76.9159C59.5916 76.9313 59.607 76.939 59.6276 76.939H59.9298C59.9524 76.9401 59.9683 76.9344 59.9776 76.9221C59.9868 76.9108 59.9914 76.8918 59.9914 76.865V76.788C59.9914 76.7222 59.9899 76.6636 59.9868 76.6122C59.9848 76.5618 59.9822 76.5187 59.9791 76.4827H59.6137C59.5911 76.4827 59.5772 76.4848 59.5721 76.4889C59.568 76.494 59.5659 76.5079 59.5659 76.5305ZM59.4333 77.4854C59.4333 77.434 59.44 77.3944 59.4534 77.3667C59.4668 77.3389 59.4837 77.3189 59.5043 77.3066C59.5248 77.2953 59.5464 77.2881 59.569 77.285C59.5916 77.2829 59.6122 77.2819 59.6307 77.2819H59.9267C59.9421 77.2819 59.9606 77.2829 59.9822 77.285C60.0048 77.2881 60.0269 77.2953 60.0485 77.3066C60.0701 77.3189 60.088 77.3389 60.1024 77.3667C60.1168 77.3955 60.124 77.435 60.124 77.4854V77.8169C60.124 77.8847 60.1173 77.9376 60.104 77.9756C60.0916 78.0147 60.0711 78.0419 60.0423 78.0574C60.0135 78.0738 59.975 78.082 59.9267 78.082H59.6985V77.8122C59.6985 77.7197 59.7006 77.6442 59.7047 77.5856C59.7088 77.528 59.7114 77.4895 59.7124 77.47H59.6276C59.5865 77.4689 59.5659 77.4936 59.5659 77.544V77.6226C59.5659 77.6781 59.5664 77.7321 59.5675 77.7845C59.5695 77.8379 59.5716 77.8867 59.5736 77.9309C59.5767 77.9751 59.5793 78.0106 59.5813 78.0373L59.4811 78.099C59.4493 78.099 59.4333 77.9977 59.4333 77.7953V77.4854ZM59.8311 77.47V77.8939H59.9298C59.9503 77.8939 59.9647 77.8914 59.9729 77.8862C59.9812 77.8821 59.9863 77.8688 59.9883 77.8461C59.9904 77.8235 59.9914 77.785 59.9914 77.7305V77.544C59.9914 77.4946 59.9709 77.47 59.9298 77.47H59.8311ZM59.4333 78.8603C59.4333 78.7822 59.4498 78.7288 59.4827 78.7C59.5156 78.6712 59.5649 78.6568 59.6307 78.6568H59.9914V78.5304H60.124V78.5952C60.124 78.6147 60.1271 78.6286 60.1333 78.6368C60.1394 78.646 60.1518 78.6527 60.1703 78.6568L60.3352 78.6877V78.8449H60.124V79.1656H59.9914V78.8449H59.6291C59.6034 78.8449 59.5865 78.8511 59.5783 78.8634C59.57 78.8757 59.5659 78.8942 59.5659 78.9189V79.1363L59.4488 79.1517C59.4457 79.1301 59.4421 79.0972 59.438 79.053C59.4349 79.0088 59.4333 78.9605 59.4333 78.9081V78.8603ZM59.4333 79.4772C59.4333 79.4084 59.4472 79.357 59.475 79.323C59.5027 79.2902 59.5479 79.2737 59.6106 79.2737H59.9267C59.9421 79.2737 59.9606 79.2747 59.9822 79.2768C60.0048 79.2799 60.0269 79.2871 60.0485 79.2984C60.0701 79.3107 60.088 79.3308 60.1024 79.3585C60.1168 79.3873 60.124 79.4269 60.124 79.4772V79.9027C60.124 79.9541 60.1168 79.9937 60.1024 80.0214C60.088 80.0492 60.0701 80.0687 60.0485 80.08C60.0269 80.0923 60.0048 80.0995 59.9822 80.1016C59.9606 80.1047 59.9421 80.1062 59.9267 80.1062H59.6307C59.6122 80.1062 59.5916 80.1047 59.569 80.1016C59.5464 80.0995 59.5248 80.0923 59.5043 80.08C59.4837 80.0677 59.4668 80.0476 59.4534 80.0199C59.44 79.9921 59.4333 79.9531 59.4333 79.9027V79.4772ZM59.5659 79.5358V79.8441C59.5659 79.8945 59.5865 79.9197 59.6276 79.9197H59.9298C59.9709 79.9197 59.9914 79.8945 59.9914 79.8441V79.5358C59.9914 79.4865 59.9709 79.4618 59.9298 79.4618H59.6276C59.5865 79.4618 59.5659 79.4865 59.5659 79.5358ZM59.4333 80.614H60.4108V80.8021H60.1055C60.1107 80.8463 60.1148 80.8982 60.1178 80.9578C60.122 81.0184 60.124 81.0873 60.124 81.1644V81.243C60.124 81.2944 60.1173 81.334 60.104 81.3617C60.0906 81.3895 60.0737 81.409 60.0531 81.4203C60.0325 81.4326 60.011 81.4398 59.9883 81.4419C59.9657 81.445 59.9452 81.4465 59.9267 81.4465H59.6307C59.6153 81.4465 59.5963 81.445 59.5736 81.4419C59.5521 81.4398 59.5305 81.4326 59.5089 81.4203C59.4873 81.409 59.4693 81.3895 59.4549 81.3617C59.4405 81.334 59.4333 81.2944 59.4333 81.243V81.1644C59.4333 81.0791 59.4354 81.0046 59.4395 80.9408C59.4447 80.8771 59.4498 80.8242 59.4549 80.782L59.4333 80.7404V80.614ZM59.5659 80.8499V81.1844C59.5659 81.2337 59.5865 81.2584 59.6276 81.2584H59.9298C59.9524 81.2594 59.9683 81.2548 59.9776 81.2445C59.9868 81.2343 59.9914 81.2142 59.9914 81.1844V81.1073C59.9914 81.0416 59.9899 80.983 59.9868 80.9316C59.9848 80.8812 59.9822 80.8381 59.9791 80.8021H59.6137C59.5921 80.8021 59.5788 80.8041 59.5736 80.8082C59.5685 80.8134 59.5659 80.8273 59.5659 80.8499ZM59.4333 81.8048C59.4333 81.7534 59.44 81.7138 59.4534 81.6861C59.4668 81.6583 59.4837 81.6383 59.5043 81.6259C59.5248 81.6146 59.5464 81.6074 59.569 81.6044C59.5916 81.6023 59.6122 81.6013 59.6307 81.6013H59.9267C59.9421 81.6013 59.9606 81.6023 59.9822 81.6044C60.0048 81.6074 60.0269 81.6146 60.0485 81.6259C60.0701 81.6383 60.088 81.6583 60.1024 81.6861C60.1168 81.7148 60.124 81.7544 60.124 81.8048V82.1362C60.124 82.2041 60.1173 82.257 60.104 82.295C60.0916 82.3341 60.0711 82.3613 60.0423 82.3767C60.0135 82.3932 59.975 82.4014 59.9267 82.4014H59.6985V82.1316C59.6985 82.0391 59.7006 81.9636 59.7047 81.905C59.7088 81.8474 59.7114 81.8089 59.7124 81.7894H59.6276C59.5865 81.7883 59.5659 81.813 59.5659 81.8634V81.942C59.5659 81.9975 59.5664 82.0514 59.5675 82.1039C59.5695 82.1573 59.5716 82.2061 59.5736 82.2503C59.5767 82.2945 59.5793 82.33 59.5813 82.3567L59.4811 82.4184C59.4493 82.4184 59.4333 82.3171 59.4333 82.1146V81.8048ZM59.8311 81.7894V82.2133H59.9298C59.9503 82.2133 59.9647 82.2107 59.9729 82.2056C59.9812 82.2015 59.9863 82.1881 59.9883 82.1655C59.9904 82.1429 59.9914 82.1044 59.9914 82.0499V81.8634C59.9914 81.814 59.9709 81.7894 59.9298 81.7894H59.8311ZM59.4333 82.7608C59.4333 82.7094 59.44 82.6698 59.4534 82.6421C59.4668 82.6143 59.4837 82.5943 59.5043 82.5819C59.5248 82.5706 59.5464 82.5634 59.569 82.5604C59.5916 82.5583 59.6122 82.5573 59.6307 82.5573H59.9267C59.9421 82.5573 59.9606 82.5583 59.9822 82.5604C60.0048 82.5634 60.0269 82.5706 60.0485 82.5819C60.0701 82.5943 60.088 82.6143 60.1024 82.6421C60.1168 82.6709 60.124 82.7104 60.124 82.7608V82.9751C60.124 83.1035 60.1204 83.1945 60.1132 83.2479C60.1071 83.3024 60.1004 83.3297 60.0932 83.3297L59.976 83.2988C59.9781 83.27 59.9801 83.2336 59.9822 83.1894C59.9853 83.1452 59.9873 83.0974 59.9883 83.046C59.9904 82.9956 59.9914 82.9463 59.9914 82.898V82.8194C59.9914 82.77 59.9709 82.7454 59.9298 82.7454H59.6276C59.5865 82.7443 59.5659 82.769 59.5659 82.8194V82.898C59.5659 82.9535 59.5664 83.0074 59.5675 83.0599C59.5695 83.1133 59.5716 83.1621 59.5736 83.2063C59.5767 83.2505 59.5793 83.286 59.5813 83.3127L59.4811 83.3744C59.4493 83.3744 59.4333 83.2731 59.4333 83.0707V82.7608ZM59.4333 83.6701C59.4333 83.6013 59.4472 83.5499 59.475 83.516C59.5027 83.4831 59.5479 83.4666 59.6106 83.4666H59.9267C59.9421 83.4666 59.9606 83.4677 59.9822 83.4697C60.0048 83.4728 60.0269 83.48 60.0485 83.4913C60.0701 83.5036 60.088 83.5237 60.1024 83.5514C60.1168 83.5802 60.124 83.6198 60.124 83.6701V84.0956C60.124 84.147 60.1168 84.1866 60.1024 84.2143C60.088 84.2421 60.0701 84.2616 60.0485 84.2729C60.0269 84.2852 60.0048 84.2924 59.9822 84.2945C59.9606 84.2976 59.9421 84.2991 59.9267 84.2991H59.6307C59.6122 84.2991 59.5916 84.2976 59.569 84.2945C59.5464 84.2924 59.5248 84.2852 59.5043 84.2729C59.4837 84.2606 59.4668 84.2405 59.4534 84.2128C59.44 84.185 59.4333 84.146 59.4333 84.0956V83.6701ZM59.5659 83.7287V84.037C59.5659 84.0874 59.5865 84.1126 59.6276 84.1126H59.9298C59.9709 84.1126 59.9914 84.0874 59.9914 84.037V83.7287C59.9914 83.6794 59.9709 83.6547 59.9298 83.6547H59.6276C59.5865 83.6547 59.5659 83.6794 59.5659 83.7287ZM59.4333 84.4682H60.124V84.5946L60.1055 84.6331C60.1107 84.6629 60.1148 84.6994 60.1178 84.7426C60.122 84.7858 60.124 84.8371 60.124 84.8968V84.9738C60.124 85.0036 60.1199 85.0324 60.1117 85.0602C60.1045 85.0879 60.0937 85.1085 60.0793 85.1218C60.0927 85.1486 60.1035 85.1856 60.1117 85.2328C60.1199 85.2801 60.124 85.3418 60.124 85.4178V85.4949C60.124 85.5463 60.1168 85.5859 60.1024 85.6136C60.088 85.6414 60.0701 85.6609 60.0485 85.6722C60.0269 85.6845 60.0048 85.6917 59.9822 85.6938C59.9606 85.6969 59.9421 85.6984 59.9267 85.6984H59.4333V85.5103H59.9298C59.9709 85.5103 59.9914 85.4857 59.9914 85.4363V85.2205C59.9914 85.2041 59.9894 85.1928 59.9853 85.1866C59.9812 85.1804 59.9719 85.1773 59.9575 85.1773H59.4333V84.9893H59.9298C59.9709 84.9893 59.9914 84.9646 59.9914 84.9153V84.7025C59.9914 84.683 59.9894 84.6701 59.9853 84.664C59.9822 84.6588 59.9729 84.6563 59.9575 84.6563H59.4333V84.4682ZM59.4333 86.0639C59.4333 86.0125 59.44 85.973 59.4534 85.9452C59.4668 85.9175 59.4837 85.8974 59.5043 85.8851C59.5248 85.8738 59.5464 85.8666 59.569 85.8635C59.5916 85.8615 59.6122 85.8604 59.6307 85.8604H59.9267C59.9421 85.8604 59.9606 85.8615 59.9822 85.8635C60.0048 85.8666 60.0269 85.8738 60.0485 85.8851C60.0701 85.8974 60.088 85.9175 60.1024 85.9452C60.1168 85.974 60.124 86.0136 60.124 86.0639V86.3954C60.124 86.4632 60.1173 86.5161 60.104 86.5542C60.0916 86.5932 60.0711 86.6205 60.0423 86.6359C60.0135 86.6523 59.975 86.6605 59.9267 86.6605H59.6985V86.3908C59.6985 86.2983 59.7006 86.2227 59.7047 86.1641C59.7088 86.1066 59.7114 86.068 59.7124 86.0485H59.6276C59.5865 86.0475 59.5659 86.0721 59.5659 86.1225V86.2011C59.5659 86.2566 59.5664 86.3106 59.5675 86.363C59.5695 86.4165 59.5716 86.4653 59.5736 86.5095C59.5767 86.5537 59.5793 86.5891 59.5813 86.6158L59.4811 86.6775C59.4493 86.6775 59.4333 86.5763 59.4333 86.3738V86.0639ZM59.8311 86.0485V86.4725H59.9298C59.9503 86.4725 59.9647 86.4699 59.9729 86.4648C59.9812 86.4606 59.9863 86.4473 59.9883 86.4247C59.9904 86.4021 59.9914 86.3635 59.9914 86.309V86.1225C59.9914 86.0732 59.9709 86.0485 59.9298 86.0485H59.8311ZM59.4333 87.3695C59.4333 87.2914 59.4513 87.2348 59.4873 87.1999C59.5243 87.1649 59.5747 87.1475 59.6384 87.1475C59.7052 87.1475 59.7566 87.1655 59.7926 87.2014C59.8285 87.2384 59.8465 87.2944 59.8465 87.3695V87.4481C59.8465 87.5252 59.8445 87.5946 59.8403 87.6562C59.8362 87.7179 59.8321 87.7688 59.828 87.8089H59.9298C59.939 87.8089 59.9483 87.8078 59.9575 87.8058C59.9678 87.8037 59.976 87.7975 59.9822 87.7873C59.9883 87.777 59.9914 87.7595 59.9914 87.7349V87.6578C59.9914 87.5457 59.9894 87.4522 59.9853 87.3772C59.9822 87.3022 59.9791 87.2513 59.976 87.2246L60.0932 87.2076C60.1076 87.2076 60.1163 87.2467 60.1194 87.3248C60.1225 87.4029 60.124 87.5334 60.124 87.7164V87.7934C60.124 87.8448 60.1168 87.8844 60.1024 87.9121C60.088 87.9399 60.0701 87.9594 60.0485 87.9707C60.0269 87.9831 60.0048 87.9903 59.9822 87.9923C59.9606 87.9954 59.9421 87.9969 59.9267 87.9969H59.4333V87.8705L59.4642 87.8104C59.457 87.7672 59.4498 87.7153 59.4426 87.6547C59.4364 87.594 59.4333 87.5247 59.4333 87.4466V87.3695ZM59.5659 87.4096V87.7626C59.5659 87.7852 59.568 87.7986 59.5721 87.8027C59.5762 87.8068 59.5891 87.8089 59.6106 87.8089H59.7293V87.4096C59.7293 87.3818 59.7227 87.3623 59.7093 87.351C59.6959 87.3407 59.6749 87.3356 59.6461 87.3356C59.6173 87.3356 59.5968 87.3417 59.5844 87.3541C59.5721 87.3664 59.5659 87.3849 59.5659 87.4096ZM57.4333 66.6946H57.9914V66.599H58.1225V66.6946H58.2597C58.2946 66.6946 58.327 66.7013 58.3568 66.7147C58.3866 66.7291 58.4108 66.7522 58.4293 66.784C58.4478 66.8169 58.457 66.8601 58.457 66.9135V66.9906C58.457 67.114 58.4514 67.2024 58.4401 67.2558C58.4288 67.3103 58.419 67.3375 58.4108 67.3375L58.2936 67.2913C58.3008 67.2738 58.3075 67.2424 58.3136 67.1972C58.3208 67.152 58.3244 67.0975 58.3244 67.0338V66.9567C58.3244 66.931 58.3198 66.912 58.3106 66.8997C58.3013 66.8884 58.2854 66.8827 58.2628 66.8827H58.1225V67.2034H57.9914V66.8827H57.4333V66.6946ZM57.4333 67.3683H58.124V67.4947L58.0932 67.5533C58.1076 67.58 58.1189 67.6088 58.1271 67.6396C58.1353 67.6705 58.1394 67.7095 58.1394 67.7568C58.1394 67.8318 58.1312 67.8925 58.1148 67.9387C58.0983 67.986 58.086 68.0174 58.0778 68.0328L57.9436 67.9788C57.9498 67.9665 57.9575 67.9459 57.9668 67.9171C57.977 67.8894 57.9863 67.8565 57.9945 67.8185C58.0027 67.7805 58.0068 67.7388 58.0068 67.6936V67.6766C58.0068 67.6273 57.9971 67.5949 57.9776 67.5795C57.958 67.5651 57.9257 67.5574 57.8804 67.5564H57.4333V67.3683ZM57.4333 68.3287C57.4333 68.2599 57.4472 68.2085 57.475 68.1746C57.5027 68.1417 57.5479 68.1252 57.6106 68.1252H57.9267C57.9421 68.1252 57.9606 68.1263 57.9822 68.1283C58.0048 68.1314 58.0269 68.1386 58.0485 68.1499C58.0701 68.1622 58.088 68.1823 58.1024 68.21C58.1168 68.2388 58.124 68.2784 58.124 68.3287V68.7542C58.124 68.8056 58.1168 68.8452 58.1024 68.8729C58.088 68.9007 58.0701 68.9202 58.0485 68.9315C58.0269 68.9439 58.0048 68.9511 57.9822 68.9531C57.9606 68.9562 57.9421 68.9577 57.9267 68.9577H57.6307C57.6122 68.9577 57.5916 68.9562 57.569 68.9531C57.5464 68.9511 57.5248 68.9439 57.5043 68.9315C57.4837 68.9192 57.4668 68.8992 57.4534 68.8714C57.44 68.8437 57.4333 68.8046 57.4333 68.7542V68.3287ZM57.5659 68.3873V68.6957C57.5659 68.746 57.5865 68.7712 57.6276 68.7712H57.9298C57.9709 68.7712 57.9914 68.746 57.9914 68.6957V68.3873C57.9914 68.338 57.9709 68.3133 57.9298 68.3133H57.6276C57.5865 68.3133 57.5659 68.338 57.5659 68.3873ZM57.4333 69.1268H58.124V69.2532L58.0932 69.3149C58.1014 69.358 58.1086 69.4099 58.1148 69.4706C58.1209 69.5312 58.124 69.6006 58.124 69.6787V69.7558C58.124 69.8072 58.1168 69.8467 58.1024 69.8745C58.088 69.9022 58.0701 69.9218 58.0485 69.9331C58.0269 69.9454 58.0048 69.9526 57.9822 69.9547C57.9606 69.9577 57.9421 69.9593 57.9267 69.9593H57.4333V69.7712H57.9298C57.9709 69.7712 57.9914 69.7465 57.9914 69.6972V69.3611C57.9914 69.3416 57.9894 69.3287 57.9853 69.3226C57.9822 69.3174 57.9729 69.3149 57.9575 69.3149H57.4333V69.1268ZM57.4333 70.4052C57.4333 70.3271 57.4498 70.2737 57.4827 70.2449C57.5156 70.2161 57.5649 70.2017 57.6307 70.2017H57.9914V70.0753H58.124V70.1401C58.124 70.1596 58.1271 70.1735 58.1333 70.1817C58.1394 70.1909 58.1518 70.1976 58.1703 70.2017L58.3352 70.2326V70.3898H58.124V70.7105H57.9914V70.3898H57.6291C57.6034 70.3898 57.5865 70.396 57.5783 70.4083C57.57 70.4207 57.5659 70.4392 57.5659 70.4638V70.6812L57.4488 70.6966C57.4457 70.675 57.4421 70.6421 57.438 70.5979C57.4349 70.5538 57.4333 70.5054 57.4333 70.453V70.4052ZM57.4333 71.0221C57.4333 70.9707 57.44 70.9312 57.4534 70.9034C57.4668 70.8757 57.4837 70.8556 57.5043 70.8433C57.5248 70.832 57.5464 70.8248 57.569 70.8217C57.5916 70.8197 57.6122 70.8186 57.6307 70.8186H57.9267C57.9421 70.8186 57.9606 70.8197 57.9822 70.8217C58.0048 70.8248 58.0269 70.832 58.0485 70.8433C58.0701 70.8556 58.088 70.8757 58.1024 70.9034C58.1168 70.9322 58.124 70.9718 58.124 71.0221V71.3536C58.124 71.4214 58.1173 71.4744 58.104 71.5124C58.0916 71.5514 58.0711 71.5787 58.0423 71.5941C58.0135 71.6105 57.975 71.6188 57.9267 71.6188H57.6985V71.349C57.6985 71.2565 57.7006 71.1809 57.7047 71.1223C57.7088 71.0648 57.7114 71.0262 57.7124 71.0067H57.6276C57.5865 71.0057 57.5659 71.0304 57.5659 71.0807V71.1593C57.5659 71.2148 57.5664 71.2688 57.5675 71.3212C57.5695 71.3747 57.5716 71.4235 57.5736 71.4677C57.5767 71.5119 57.5793 71.5473 57.5813 71.5741L57.4811 71.6357C57.4493 71.6357 57.4333 71.5345 57.4333 71.332V71.0221ZM57.8311 71.0067V71.4307H57.9298C57.9503 71.4307 57.9647 71.4281 57.9729 71.423C57.9812 71.4189 57.9863 71.4055 57.9883 71.3829C57.9904 71.3603 57.9914 71.3217 57.9914 71.2673V71.0807C57.9914 71.0314 57.9709 71.0067 57.9298 71.0067H57.8311ZM57.4333 71.7901H58.124V71.9165L58.0932 71.9781C58.1014 72.0213 58.1086 72.0732 58.1148 72.1339C58.1209 72.1945 58.124 72.2639 58.124 72.342V72.4191C58.124 72.4705 58.1168 72.51 58.1024 72.5378C58.088 72.5655 58.0701 72.5851 58.0485 72.5964C58.0269 72.6087 58.0048 72.6159 57.9822 72.6179C57.9606 72.621 57.9421 72.6226 57.9267 72.6226H57.4333V72.4345H57.9298C57.9709 72.4345 57.9914 72.4098 57.9914 72.3605V72.0244C57.9914 72.0049 57.9894 71.992 57.9853 71.9859C57.9822 71.9807 57.9729 71.9781 57.9575 71.9781H57.4333V71.7901ZM57.4333 72.9884C57.4333 72.937 57.44 72.8974 57.4534 72.8697C57.4668 72.8419 57.4837 72.8219 57.5043 72.8095C57.5248 72.7982 57.5464 72.791 57.569 72.7879C57.5916 72.7859 57.6122 72.7849 57.6307 72.7849H57.9267C57.9421 72.7849 57.9606 72.7859 57.9822 72.7879C58.0048 72.791 58.0269 72.7982 58.0485 72.8095C58.0701 72.8219 58.088 72.8419 58.1024 72.8697C58.1168 72.8984 58.124 72.938 58.124 72.9884V73.067C58.124 73.1615 58.122 73.2376 58.1178 73.2952C58.1148 73.3537 58.1112 73.3984 58.1071 73.4293H58.4108V73.6174H57.4333V73.4909L57.4642 73.4308C57.457 73.3877 57.4498 73.3358 57.4426 73.2751C57.4364 73.2145 57.4333 73.1446 57.4333 73.0654V72.9884ZM57.5659 73.0469V73.3815C57.5659 73.4031 57.5685 73.4164 57.5736 73.4216C57.5788 73.4267 57.5916 73.4293 57.6122 73.4293H57.9806C57.9827 73.3943 57.9848 73.3501 57.9868 73.2967C57.9899 73.2433 57.9914 73.1862 57.9914 73.1256V73.0469C57.9914 72.9976 57.9709 72.9729 57.9298 72.9729H57.6276C57.5865 72.9729 57.5659 72.9976 57.5659 73.0469ZM57.4333 74.3448C57.4333 74.2935 57.44 74.2539 57.4534 74.2261C57.4668 74.1984 57.4837 74.1783 57.5043 74.166C57.5248 74.1547 57.5464 74.1475 57.569 74.1444C57.5916 74.1424 57.6122 74.1413 57.6307 74.1413H57.9267C57.9421 74.1413 57.9606 74.1424 57.9822 74.1444C58.0048 74.1475 58.0269 74.1547 58.0485 74.166C58.0701 74.1783 58.088 74.1984 58.1024 74.2261C58.1168 74.2549 58.124 74.2945 58.124 74.3448V74.6763C58.124 74.7441 58.1173 74.7971 58.104 74.8351C58.0916 74.8742 58.0711 74.9014 58.0423 74.9168C58.0135 74.9333 57.975 74.9415 57.9267 74.9415H57.6985V74.6717C57.6985 74.5792 57.7006 74.5036 57.7047 74.4451C57.7088 74.3875 57.7114 74.349 57.7124 74.3294H57.6276C57.5865 74.3284 57.5659 74.3531 57.5659 74.4034V74.4821C57.5659 74.5376 57.5664 74.5915 57.5675 74.6439C57.5695 74.6974 57.5716 74.7462 57.5736 74.7904C57.5767 74.8346 57.5793 74.87 57.5813 74.8968L57.4811 74.9584C57.4493 74.9584 57.4333 74.8572 57.4333 74.6547V74.3448ZM57.8311 74.3294V74.7534H57.9298C57.9503 74.7534 57.9647 74.7508 57.9729 74.7457C57.9812 74.7416 57.9863 74.7282 57.9883 74.7056C57.9904 74.683 57.9914 74.6444 57.9914 74.59V74.4034C57.9914 74.3541 57.9709 74.3294 57.9298 74.3294H57.8311ZM57.4333 75.1128H58.124V75.2392L58.0932 75.3009C58.1014 75.344 58.1086 75.3959 58.1148 75.4566C58.1209 75.5172 58.124 75.5866 58.124 75.6647V75.7418C58.124 75.7932 58.1168 75.8327 58.1024 75.8605C58.088 75.8882 58.0701 75.9078 58.0485 75.9191C58.0269 75.9314 58.0048 75.9386 57.9822 75.9407C57.9606 75.9437 57.9421 75.9453 57.9267 75.9453H57.4333V75.7572H57.9298C57.9709 75.7572 57.9914 75.7325 57.9914 75.6832V75.3471C57.9914 75.3276 57.9894 75.3147 57.9853 75.3086C57.9822 75.3034 57.9729 75.3009 57.9575 75.3009H57.4333V75.1128ZM57.162 76.6302C57.162 76.5171 57.163 76.4252 57.1651 76.3542C57.1672 76.2833 57.1702 76.2289 57.1743 76.1908C57.1785 76.1528 57.1836 76.1266 57.1898 76.1122C57.1959 76.0988 57.2026 76.0922 57.2098 76.0922L57.3254 76.1384C57.3203 76.1549 57.3141 76.1836 57.3069 76.2247C57.2987 76.2669 57.2946 76.3203 57.2946 76.3851V76.6487C57.2946 76.6867 57.3003 76.7135 57.3116 76.7289C57.3229 76.7453 57.3429 76.7535 57.3717 76.7535H57.4642C57.456 76.7093 57.4488 76.6569 57.4426 76.5963C57.4364 76.5367 57.4333 76.4678 57.4333 76.3897V76.3126C57.4333 76.2612 57.44 76.2217 57.4534 76.1939C57.4668 76.1662 57.4837 76.1461 57.5043 76.1338C57.5248 76.1225 57.5464 76.1153 57.569 76.1122C57.5916 76.1101 57.6122 76.1091 57.6307 76.1091H57.9267C57.9421 76.1091 57.9606 76.1101 57.9822 76.1122C58.0048 76.1153 58.0269 76.1225 58.0485 76.1338C58.0701 76.1461 58.088 76.1662 58.1024 76.1939C58.1168 76.2227 58.124 76.2623 58.124 76.3126V76.3912C58.124 76.4992 58.122 76.5829 58.1178 76.6425C58.1137 76.7032 58.1091 76.7474 58.104 76.7751L58.124 76.8152V76.9416H57.3593C57.3408 76.9416 57.3203 76.9385 57.2977 76.9324C57.2751 76.9272 57.2535 76.9164 57.2329 76.9C57.2124 76.8835 57.1954 76.8599 57.1821 76.8291C57.1687 76.7982 57.162 76.7576 57.162 76.7073V76.6302ZM57.5659 76.3712V76.7057C57.5659 76.7294 57.568 76.7433 57.5721 76.7474C57.5762 76.7515 57.5896 76.7535 57.6122 76.7535H57.9806C57.9827 76.7186 57.9848 76.6744 57.9868 76.621C57.9899 76.5675 57.9914 76.5105 57.9914 76.4498V76.3712C57.9914 76.3219 57.9709 76.2972 57.9298 76.2972H57.6276C57.5865 76.2962 57.5659 76.3208 57.5659 76.3712ZM58.2211 77.2366C58.2211 77.1986 58.2288 77.1709 58.2443 77.1534C58.2597 77.1359 58.2854 77.1272 58.3213 77.1272C58.3583 77.1272 58.384 77.1354 58.3984 77.1518C58.4138 77.1693 58.4216 77.1976 58.4216 77.2366C58.4216 77.2757 58.4138 77.304 58.3984 77.3214C58.384 77.3389 58.3583 77.3476 58.3213 77.3476C58.2864 77.3476 58.2607 77.3389 58.2443 77.3214C58.2288 77.304 58.2211 77.2757 58.2211 77.2366ZM57.4333 77.1426H58.124V77.3307H57.4333V77.1426ZM57.4333 77.5322H58.124V77.6586L58.0932 77.7203C58.1014 77.7634 58.1086 77.8153 58.1148 77.876C58.1209 77.9366 58.124 78.006 58.124 78.0841V78.1612C58.124 78.2126 58.1168 78.2521 58.1024 78.2799C58.088 78.3076 58.0701 78.3272 58.0485 78.3385C58.0269 78.3508 58.0048 78.358 57.9822 78.36C57.9606 78.3631 57.9421 78.3647 57.9267 78.3647H57.4333V78.1766H57.9298C57.9709 78.1766 57.9914 78.1519 57.9914 78.1026V77.7665C57.9914 77.747 57.9894 77.7341 57.9853 77.728C57.9822 77.7228 57.9729 77.7203 57.9575 77.7203H57.4333V77.5322ZM57.4333 78.7305C57.4333 78.6791 57.44 78.6395 57.4534 78.6118C57.4668 78.584 57.4837 78.564 57.5043 78.5516C57.5248 78.5403 57.5464 78.5331 57.569 78.5301C57.5916 78.528 57.6122 78.527 57.6307 78.527H57.9267C57.9421 78.527 57.9606 78.528 57.9822 78.5301C58.0048 78.5331 58.0269 78.5403 58.0485 78.5516C58.0701 78.564 58.088 78.584 58.1024 78.6118C58.1168 78.6405 58.124 78.6801 58.124 78.7305V79.0619C58.124 79.1298 58.1173 79.1827 58.104 79.2207C58.0916 79.2598 58.0711 79.287 58.0423 79.3024C58.0135 79.3189 57.975 79.3271 57.9267 79.3271H57.6985V79.0573C57.6985 78.9648 57.7006 78.8893 57.7047 78.8307C57.7088 78.7731 57.7114 78.7346 57.7124 78.7151H57.6276C57.5865 78.714 57.5659 78.7387 57.5659 78.7891V78.8677C57.5659 78.9232 57.5664 78.9771 57.5675 79.0296C57.5695 79.083 57.5716 79.1318 57.5736 79.176C57.5767 79.2202 57.5793 79.2557 57.5813 79.2824L57.4811 79.3441C57.4493 79.3441 57.4333 79.2428 57.4333 79.0403V78.7305ZM57.8311 78.7151V79.139H57.9298C57.9503 79.139 57.9647 79.1364 57.9729 79.1313C57.9812 79.1272 57.9863 79.1138 57.9883 79.0912C57.9904 79.0686 57.9914 79.0301 57.9914 78.9756V78.7891C57.9914 78.7397 57.9709 78.7151 57.9298 78.7151H57.8311ZM57.4333 79.6865C57.4333 79.6351 57.44 79.5955 57.4534 79.5678C57.4668 79.54 57.4837 79.52 57.5043 79.5076C57.5248 79.4963 57.5464 79.4891 57.569 79.4861C57.5916 79.484 57.6122 79.483 57.6307 79.483H57.9267C57.9421 79.483 57.9606 79.484 57.9822 79.4861C58.0048 79.4891 58.0269 79.4963 58.0485 79.5076C58.0701 79.52 58.088 79.54 58.1024 79.5678C58.1168 79.5966 58.124 79.6361 58.124 79.6865V80.0179C58.124 80.0858 58.1173 80.1387 58.104 80.1767C58.0916 80.2158 58.0711 80.243 58.0423 80.2584C58.0135 80.2749 57.975 80.2831 57.9267 80.2831H57.6985V80.0133C57.6985 79.9208 57.7006 79.8453 57.7047 79.7867C57.7088 79.7291 57.7114 79.6906 57.7124 79.6711H57.6276C57.5865 79.67 57.5659 79.6947 57.5659 79.7451V79.8237C57.5659 79.8792 57.5664 79.9331 57.5675 79.9856C57.5695 80.039 57.5716 80.0878 57.5736 80.132C57.5767 80.1762 57.5793 80.2117 57.5813 80.2384L57.4811 80.3001C57.4493 80.3001 57.4333 80.1988 57.4333 79.9964V79.6865ZM57.8311 79.6711V80.095H57.9298C57.9503 80.095 57.9647 80.0925 57.9729 80.0873C57.9812 80.0832 57.9863 80.0698 57.9883 80.0472C57.9904 80.0246 57.9914 79.9861 57.9914 79.9316V79.7451C57.9914 79.6957 57.9709 79.6711 57.9298 79.6711H57.8311ZM57.4333 80.4544H58.124V80.5808L58.0932 80.6394C58.1076 80.6661 58.1189 80.6949 58.1271 80.7257C58.1353 80.7566 58.1394 80.7956 58.1394 80.8429C58.1394 80.9179 58.1312 80.9786 58.1148 81.0248C58.0983 81.0721 58.086 81.1035 58.0778 81.1189L57.9436 81.0649C57.9498 81.0526 57.9575 81.032 57.9668 81.0032C57.977 80.9755 57.9863 80.9426 57.9945 80.9046C58.0027 80.8666 58.0068 80.8249 58.0068 80.7797V80.7627C58.0068 80.7134 57.9971 80.681 57.9776 80.6656C57.958 80.6512 57.9257 80.6435 57.8804 80.6425H57.4333V80.4544ZM57.4333 81.2752C57.4333 81.2372 57.4411 81.2094 57.4565 81.192C57.4719 81.1745 57.4976 81.1657 57.5336 81.1657C57.5706 81.1657 57.5963 81.174 57.6106 81.1904C57.6261 81.2079 57.6338 81.2362 57.6338 81.2752C57.6338 81.3143 57.6261 81.3425 57.6106 81.36C57.5963 81.3775 57.5706 81.3862 57.5336 81.3862C57.4986 81.3862 57.4729 81.3775 57.4565 81.36C57.4411 81.3425 57.4333 81.3143 57.4333 81.2752Z" fill="white"/>
<defs>
<radialGradient id="paint0_diamond_229_1383" cx="0" cy="0" r="1" gradientUnits="userSpaceOnUse" gradientTransform="translate(73.6244 1.35056e-06) rotate(90) scale(73.6244 97.1842)">
<stop stop-color="#BFBEBE"/>
<stop offset="1"/>
</radialGradient>
<radialGradient id="paint1_diamond_229_1383" cx="0" cy="0" r="1" gradientUnits="userSpaceOnUse" gradientTransform="translate(73.6244 148) rotate(-90) scale(74.3756 98.1759)">
<stop stop-color="#BFBEBE"/>
<stop offset="1"/>
</radialGradient>
<linearGradient id="paint2_linear_229_1383" x1="148" y1="74" x2="0" y2="74" gradientUnits="userSpaceOnUse">
<stop offset="0.199226"/>
<stop offset="0.499748" stop-color="white"/>
<stop offset="0.8019"/>
</linearGradient>
<radialGradient id="paint3_diamond_229_1383" cx="0" cy="0" r="1" gradientUnits="userSpaceOnUse" gradientTransform="translate(88.0705 31.3686) rotate(132.974) scale(69.741 92.0581)">
<stop stop-color="#BFBEBE"/>
<stop offset="1" stop-color="#2D2D2D"/>
</radialGradient>
<radialGradient id="paint4_diamond_229_1383" cx="0" cy="0" r="1" gradientUnits="userSpaceOnUse" gradientTransform="translate(145.737 73.9718) rotate(180) scale(72.4879 95.6841)">
<stop stop-color="#BFBEBE"/>
<stop offset="0.51" stop-color="#363636"/>
</radialGradient>
<linearGradient id="paint5_linear_229_1383" x1="73.6152" y1="1.48389" x2="73.6152" y2="145.728" gradientUnits="userSpaceOnUse">
<stop offset="0.235"/>
<stop offset="0.499748" stop-color="white"/>
<stop offset="0.87"/>
</linearGradient>
<radialGradient id="paint6_diamond_229_1383" cx="0" cy="0" r="1" gradientUnits="userSpaceOnUse" gradientTransform="translate(87.1671 34.0086) rotate(132.974) scale(65.3821 86.3044)">
<stop stop-color="#BFBEBE"/>
<stop offset="1" stop-color="#2D2D2D"/>
</radialGradient>
<radialGradient id="paint7_diamond_229_1383" cx="0" cy="0" r="1" gradientUnits="userSpaceOnUse" gradientTransform="translate(141.229 73.9491) rotate(180) scale(67.9574 89.7038)">
<stop stop-color="#BFBEBE"/>
<stop offset="0.51" stop-color="#363636"/>
</radialGradient>
<linearGradient id="paint8_linear_229_1383" x1="73.6153" y1="5.9917" x2="73.6153" y2="141.22" gradientUnits="userSpaceOnUse">
<stop offset="0.235"/>
<stop offset="0.499748" stop-color="white"/>
<stop offset="0.87"/>
</linearGradient>
<radialGradient id="paint9_diamond_229_1383" cx="0" cy="0" r="1" gradientUnits="userSpaceOnUse" gradientTransform="translate(110.133 86.1036) rotate(-137.026) scale(60.2969 79.5919)">
<stop stop-color="#BFBEBE"/>
<stop offset="1" stop-color="#2D2D2D"/>
</radialGradient>
<radialGradient id="paint10_diamond_229_1383" cx="0" cy="0" r="1" gradientUnits="userSpaceOnUse" gradientTransform="translate(73.2986 135.961) rotate(-90) scale(62.6719 82.7269)">
<stop stop-color="#BFBEBE"/>
<stop offset="0.51" stop-color="#363636"/>
</radialGradient>
<linearGradient id="paint11_linear_229_1383" x1="135.97" y1="73.6058" x2="11.2598" y2="73.6058" gradientUnits="userSpaceOnUse">
<stop offset="0.235"/>
<stop offset="0.499748" stop-color="white"/>
<stop offset="0.87"/>
</linearGradient>
<radialGradient id="paint12_diamond_229_1383" cx="0" cy="0" r="1" gradientUnits="userSpaceOnUse" gradientTransform="translate(16.5188 73.8956) scale(56.8066 74.9848)">
<stop stop-color="#BFBEBE"/>
<stop offset="1"/>
</radialGradient>
<radialGradient id="paint13_diamond_229_1383" cx="0" cy="0" r="1" gradientUnits="userSpaceOnUse" gradientTransform="translate(130.712 73.8956) rotate(180) scale(57.3863 75.7499)">
<stop stop-color="#BFBEBE"/>
<stop offset="1"/>
</radialGradient>
<linearGradient id="paint14_linear_229_1383" x1="90.6442" y1="16.5093" x2="56.5863" y2="130.702" gradientUnits="userSpaceOnUse">
<stop offset="0.199226" stop-color="#7A7A7A"/>
<stop offset="0.499748" stop-color="white" stop-opacity="0.66"/>
<stop offset="0.8019" stop-color="#7A7A7A"/>
</linearGradient>
<radialGradient id="paint15_diamond_229_1383" cx="0" cy="0" r="1" gradientUnits="userSpaceOnUse" gradientTransform="translate(21.0264 73.8729) scale(52.3219 69.0649)">
<stop stop-color="#BFBEBE"/>
<stop offset="1"/>
</radialGradient>
<radialGradient id="paint16_diamond_229_1383" cx="0" cy="0" r="1" gradientUnits="userSpaceOnUse" gradientTransform="translate(126.204 73.8729) rotate(180) scale(52.8558 69.7696)">
<stop stop-color="#BFBEBE"/>
<stop offset="1"/>
</radialGradient>
<linearGradient id="paint17_linear_229_1383" x1="83.9352" y1="21.0171" x2="63.2953" y2="126.195" gradientUnits="userSpaceOnUse">
<stop offset="0.199226" stop-color="#7A7A7A"/>
<stop offset="0.499748" stop-color="white" stop-opacity="0.66"/>
<stop offset="0.8019" stop-color="#7A7A7A"/>
</linearGradient>
<radialGradient id="paint18_diamond_229_1383" cx="0" cy="0" r="1" gradientUnits="userSpaceOnUse" gradientTransform="translate(24.7828 73.8538) scale(48.5846 64.1317)">
<stop stop-color="#BFBEBE"/>
<stop offset="1"/>
</radialGradient>
<radialGradient id="paint19_diamond_229_1383" cx="0" cy="0" r="1" gradientUnits="userSpaceOnUse" gradientTransform="translate(122.448 73.8538) rotate(180) scale(49.0804 64.7861)">
<stop stop-color="#BFBEBE"/>
<stop offset="1"/>
</radialGradient>
<linearGradient id="paint20_linear_229_1383" x1="62.0712" y1="24.7734" x2="85.1593" y2="122.438" gradientUnits="userSpaceOnUse">
<stop offset="0.199226" stop-color="#7A7A7A"/>
<stop offset="0.499748" stop-color="white" stop-opacity="0.66"/>
<stop offset="0.8019" stop-color="#7A7A7A"/>
</linearGradient>
<radialGradient id="paint21_diamond_229_1383" cx="0" cy="0" r="1" gradientUnits="userSpaceOnUse" gradientTransform="translate(29.2902 73.8306) scale(44.0999 58.2118)">
<stop stop-color="#BFBEBE"/>
<stop offset="1"/>
</radialGradient>
<radialGradient id="paint22_diamond_229_1383" cx="0" cy="0" r="1" gradientUnits="userSpaceOnUse" gradientTransform="translate(117.94 73.8306) rotate(180) scale(44.5499 58.8058)">
<stop stop-color="#BFBEBE"/>
<stop offset="1"/>
</radialGradient>
<linearGradient id="paint23_linear_229_1383" x1="81.5949" y1="29.2808" x2="65.6353" y2="117.931" gradientUnits="userSpaceOnUse">
<stop offset="0.199226" stop-color="#7A7A7A"/>
<stop offset="0.499748" stop-color="white" stop-opacity="0.66"/>
<stop offset="0.8019" stop-color="#7A7A7A"/>
</linearGradient>
<radialGradient id="paint24_diamond_229_1383" cx="0" cy="0" r="1" gradientUnits="userSpaceOnUse" gradientTransform="translate(73.4094 33.0371) rotate(90) scale(40.3626 53.2786)">
<stop stop-color="#BFBEBE"/>
<stop offset="1"/>
</radialGradient>
<radialGradient id="paint25_diamond_229_1383" cx="0" cy="0" r="1" gradientUnits="userSpaceOnUse" gradientTransform="translate(73.4094 114.174) rotate(-90) scale(40.7745 53.8223)">
<stop stop-color="#BFBEBE"/>
<stop offset="1"/>
</radialGradient>
<linearGradient id="paint26_linear_229_1383" x1="114.184" y1="67.5559" x2="33.0468" y2="79.6553" gradientUnits="userSpaceOnUse">
<stop offset="0.199226" stop-color="#7A7A7A"/>
<stop offset="0.499748" stop-color="white" stop-opacity="0.66"/>
<stop offset="0.8019" stop-color="#7A7A7A"/>
</linearGradient>
<radialGradient id="paint27_diamond_229_1383" cx="0" cy="0" r="1" gradientUnits="userSpaceOnUse" gradientTransform="translate(37.5542 73.7889) scale(35.8779 47.3588)">
<stop stop-color="#BFBEBE"/>
<stop offset="1"/>
</radialGradient>
<radialGradient id="paint28_diamond_229_1383" cx="0" cy="0" r="1" gradientUnits="userSpaceOnUse" gradientTransform="translate(109.676 73.7889) rotate(180) scale(36.244 47.842)">
<stop stop-color="#BFBEBE"/>
<stop offset="1" stop-color="#1B1B1B"/>
</radialGradient>
<linearGradient id="paint29_linear_229_1383" x1="78.2954" y1="37.5449" x2="68.9348" y2="109.667" gradientUnits="userSpaceOnUse">
<stop offset="0.199226" stop-color="#7A7A7A"/>
<stop offset="0.499748" stop-color="white" stop-opacity="0.66"/>
<stop offset="0.8019" stop-color="#7A7A7A"/>
</linearGradient>
<radialGradient id="paint30_diamond_229_1383" cx="0" cy="0" r="1" gradientUnits="userSpaceOnUse" gradientTransform="translate(92.5338 80.0806) rotate(-137.026) scale(31.2381 41.2343)">
<stop stop-color="#BFBEBE"/>
<stop offset="1" stop-color="#2D2D2D"/>
</radialGradient>
<radialGradient id="paint31_diamond_229_1383" cx="0" cy="0" r="1" gradientUnits="userSpaceOnUse" gradientTransform="translate(73.4511 105.91) rotate(-90) scale(32.4686 42.8585)">
<stop stop-color="#BFBEBE"/>
<stop offset="0.51" stop-color="#363636"/>
</radialGradient>
<linearGradient id="paint32_linear_229_1383" x1="105.92" y1="73.6058" x2="41.3105" y2="73.6058" gradientUnits="userSpaceOnUse">
<stop offset="0.235"/>
<stop offset="0.499748" stop-color="white"/>
<stop offset="0.87"/>
</linearGradient>
<radialGradient id="paint33_diamond_229_1383" cx="0" cy="0" r="1" gradientUnits="userSpaceOnUse" gradientTransform="translate(90.3342 79.3277) rotate(-137.026) scale(27.6058 36.4397)">
<stop stop-color="#BFBEBE"/>
<stop offset="1" stop-color="#2D2D2D"/>
</radialGradient>
<radialGradient id="paint34_diamond_229_1383" cx="0" cy="0" r="1" gradientUnits="userSpaceOnUse" gradientTransform="translate(73.4704 102.154) rotate(-90) scale(28.6931 37.8749)">
<stop stop-color="#BFBEBE"/>
<stop offset="0.51" stop-color="#363636"/>
</radialGradient>
<linearGradient id="paint35_linear_229_1383" x1="102.164" y1="73.6058" x2="45.0671" y2="73.6058" gradientUnits="userSpaceOnUse">
<stop offset="0.235"/>
<stop offset="0.499748" stop-color="white"/>
<stop offset="0.87"/>
</linearGradient>
</defs>
</svg>
