<svg width="148" height="148" viewBox="0 0 148 148" fill="none" xmlns="http://www.w3.org/2000/svg">
<circle cx="74.1218" cy="74.1218" r="71.9575" stroke="url(#paint0_diamond_272_1199)" stroke-opacity="0.5" stroke-width="0.328645"/>
<circle cx="74.1218" cy="74.1218" r="71.9575" stroke="url(#paint1_diamond_272_1199)" stroke-opacity="0.5" stroke-width="0.328645"/>
<circle cx="74.1218" cy="74.1218" r="71.9575" stroke="url(#paint2_linear_272_1199)" stroke-opacity="0.37" stroke-width="0.328645"/>
<circle cx="74.1218" cy="74.122" r="67.4499" stroke="url(#paint3_diamond_272_1199)" stroke-opacity="0.5" stroke-width="0.328645"/>
<circle cx="74.1218" cy="74.122" r="67.4499" stroke="url(#paint4_diamond_272_1199)" stroke-opacity="0.5" stroke-width="0.328645"/>
<circle cx="74.1218" cy="74.122" r="67.4499" stroke="url(#paint5_linear_272_1199)" stroke-opacity="0.37" stroke-width="0.328645"/>
<path d="M136.313 74.1219C136.313 108.469 108.469 136.313 74.1219 136.313C39.7748 136.313 11.9309 108.469 11.9309 74.1219C11.9309 39.7748 39.7748 11.9309 74.1219 11.9309C108.469 11.9309 136.313 39.7748 136.313 74.1219Z" stroke="url(#paint6_diamond_272_1199)" stroke-opacity="0.5" stroke-width="0.328645"/>
<path d="M136.313 74.1219C136.313 108.469 108.469 136.313 74.1219 136.313C39.7748 136.313 11.9309 108.469 11.9309 74.1219C11.9309 39.7748 39.7748 11.9309 74.1219 11.9309C108.469 11.9309 136.313 39.7748 136.313 74.1219Z" stroke="url(#paint7_diamond_272_1199)" stroke-opacity="0.5" stroke-width="0.328645"/>
<path d="M136.313 74.1219C136.313 108.469 108.469 136.313 74.1219 136.313C39.7748 136.313 11.9309 108.469 11.9309 74.1219C11.9309 39.7748 39.7748 11.9309 74.1219 11.9309C108.469 11.9309 136.313 39.7748 136.313 74.1219Z" stroke="url(#paint8_linear_272_1199)" stroke-opacity="0.37" stroke-width="0.328645"/>
<circle cx="74.1218" cy="74.1218" r="56.9321" stroke="url(#paint9_diamond_272_1199)" stroke-opacity="0.5" stroke-width="0.328645"/>
<circle cx="74.1218" cy="74.1218" r="56.9321" stroke="url(#paint10_diamond_272_1199)" stroke-opacity="0.5" stroke-width="0.328645"/>
<circle cx="74.1218" cy="74.1218" r="56.9321" stroke="url(#paint11_linear_272_1199)" stroke-opacity="0.37" stroke-width="0.328645"/>
<circle cx="74.1218" cy="74.1215" r="52.4245" stroke="url(#paint12_diamond_272_1199)" stroke-opacity="0.5" stroke-width="0.328645"/>
<circle cx="74.1218" cy="74.1215" r="52.4245" stroke="url(#paint13_diamond_272_1199)" stroke-opacity="0.5" stroke-width="0.328645"/>
<circle cx="74.1218" cy="74.1215" r="52.4245" stroke="url(#paint14_linear_272_1199)" stroke-opacity="0.37" stroke-width="0.328645"/>
<circle cx="74.1218" cy="74.122" r="48.6682" stroke="url(#paint15_diamond_272_1199)" stroke-opacity="0.5" stroke-width="0.328645"/>
<circle cx="74.1218" cy="74.122" r="48.6682" stroke="url(#paint16_diamond_272_1199)" stroke-opacity="0.5" stroke-width="0.328645"/>
<circle cx="74.1218" cy="74.122" r="48.6682" stroke="url(#paint17_linear_272_1199)" stroke-opacity="0.37" stroke-width="0.328645"/>
<path d="M118.283 74.1217C118.283 98.5109 98.5112 118.282 74.122 118.282C49.7328 118.282 29.9614 98.5109 29.9614 74.1217C29.9614 49.7325 49.7328 29.9612 74.122 29.9612C98.5112 29.9612 118.283 49.7325 118.283 74.1217Z" stroke="url(#paint18_diamond_272_1199)" stroke-opacity="0.5" stroke-width="0.328645"/>
<path d="M118.283 74.1217C118.283 98.5109 98.5112 118.282 74.122 118.282C49.7328 118.282 29.9614 98.5109 29.9614 74.1217C29.9614 49.7325 49.7328 29.9612 74.122 29.9612C98.5112 29.9612 118.283 49.7325 118.283 74.1217Z" stroke="url(#paint19_diamond_272_1199)" stroke-opacity="0.5" stroke-width="0.328645"/>
<path d="M118.283 74.1217C118.283 98.5109 98.5112 118.282 74.122 118.282C49.7328 118.282 29.9614 98.5109 29.9614 74.1217C29.9614 49.7325 49.7328 29.9612 74.122 29.9612C98.5112 29.9612 118.283 49.7325 118.283 74.1217Z" stroke="url(#paint20_linear_272_1199)" stroke-opacity="0.37" stroke-width="0.328645"/>
<path d="M114.526 74.1217C114.526 96.4364 96.4364 114.526 74.1218 114.526C51.8071 114.526 33.7175 96.4364 33.7175 74.1217C33.7175 51.8071 51.8071 33.7175 74.1218 33.7175C96.4364 33.7175 114.526 51.8071 114.526 74.1217Z" stroke="url(#paint21_diamond_272_1199)" stroke-opacity="0.5" stroke-width="0.328645"/>
<path d="M114.526 74.1217C114.526 96.4364 96.4364 114.526 74.1218 114.526C51.8071 114.526 33.7175 96.4364 33.7175 74.1217C33.7175 51.8071 51.8071 33.7175 74.1218 33.7175C96.4364 33.7175 114.526 51.8071 114.526 74.1217Z" stroke="url(#paint22_diamond_272_1199)" stroke-opacity="0.5" stroke-width="0.328645"/>
<path d="M114.526 74.1217C114.526 96.4364 96.4364 114.526 74.1218 114.526C51.8071 114.526 33.7175 96.4364 33.7175 74.1217C33.7175 51.8071 51.8071 33.7175 74.1218 33.7175C96.4364 33.7175 114.526 51.8071 114.526 74.1217Z" stroke="url(#paint23_linear_272_1199)" stroke-opacity="0.37" stroke-width="0.328645"/>
<circle cx="74.1219" cy="74.1219" r="35.8966" stroke="url(#paint24_diamond_272_1199)" stroke-opacity="0.5" stroke-width="0.328645"/>
<circle cx="74.1219" cy="74.1219" r="35.8966" stroke="url(#paint25_diamond_272_1199)" stroke-opacity="0.5" stroke-width="0.328645"/>
<circle cx="74.1219" cy="74.1219" r="35.8966" stroke="url(#paint26_linear_272_1199)" stroke-opacity="0.37" stroke-width="0.328645"/>
<circle cx="74.1219" cy="74.1219" r="32.1402" stroke="url(#paint27_diamond_272_1199)" stroke-opacity="0.5" stroke-width="0.328645"/>
<circle cx="74.1219" cy="74.1219" r="32.1402" stroke="url(#paint28_diamond_272_1199)" stroke-opacity="0.5" stroke-width="0.328645"/>
<circle cx="74.1219" cy="74.1219" r="32.1402" stroke="url(#paint29_linear_272_1199)" stroke-opacity="0.37" stroke-width="0.328645"/>
<path d="M102.506 74.122C102.506 89.7979 89.7977 102.506 74.1217 102.506C58.4457 102.506 45.7378 89.7979 45.7378 74.122C45.7378 58.446 58.4457 45.7381 74.1217 45.7381C89.7977 45.7381 102.506 58.446 102.506 74.122Z" stroke="url(#paint30_diamond_272_1199)" stroke-opacity="0.5" stroke-width="0.328645"/>
<path d="M102.506 74.122C102.506 89.7979 89.7977 102.506 74.1217 102.506C58.4457 102.506 45.7378 89.7979 45.7378 74.122C45.7378 58.446 58.4457 45.7381 74.1217 45.7381C89.7977 45.7381 102.506 58.446 102.506 74.122Z" stroke="url(#paint31_diamond_272_1199)" stroke-opacity="0.5" stroke-width="0.328645"/>
<path d="M102.506 74.122C102.506 89.7979 89.7977 102.506 74.1217 102.506C58.4457 102.506 45.7378 89.7979 45.7378 74.122C45.7378 58.446 58.4457 45.7381 74.1217 45.7381C89.7977 45.7381 102.506 58.446 102.506 74.122Z" stroke="url(#paint32_linear_272_1199)" stroke-opacity="0.37" stroke-width="0.328645"/>
<path fill-rule="evenodd" clip-rule="evenodd" d="M74.516 97.4022C87.5859 97.4022 98.181 86.807 98.181 73.7372C98.181 60.6674 87.5859 50.0723 74.516 50.0723C61.4462 50.0723 50.8511 60.6674 50.8511 73.7372C50.8511 86.807 61.4462 97.4022 74.516 97.4022ZM74.516 75.933C75.7287 75.933 76.7118 74.9499 76.7118 73.7372C76.7118 72.5246 75.7287 71.5415 74.516 71.5415C73.3034 71.5415 72.3203 72.5246 72.3203 73.7372C72.3203 74.9499 73.3034 75.933 74.516 75.933Z" fill="#A5A5A5"/>
<circle cx="74.5161" cy="73.7372" r="25.5316" stroke="black" stroke-width="3.77942"/>
<path fill-rule="evenodd" clip-rule="evenodd" d="M74.5185 97.4047C87.5883 97.4047 98.1835 86.8095 98.1835 73.7397C98.1835 60.6699 87.5883 50.0747 74.5185 50.0747C61.4487 50.0747 50.8535 60.6699 50.8535 73.7397C50.8535 86.8095 61.4487 97.4047 74.5185 97.4047ZM74.5185 75.9354C75.7312 75.9354 76.7142 74.9523 76.7142 73.7397C76.7142 72.527 75.7312 71.544 74.5185 71.544C73.3058 71.544 72.3228 72.527 72.3228 73.7397C72.3228 74.9523 73.3058 75.9354 74.5185 75.9354Z" fill="#DE9959"/>
<circle cx="74.5306" cy="73.7518" r="9.07161" stroke="white" stroke-width="0.0770833"/>
<path d="M60.3599 61.5537C60.2304 61.5537 60.1286 61.5352 60.0546 61.4982C59.9806 61.4612 59.9279 61.4057 59.8964 61.3317C59.8668 61.2577 59.852 61.1661 59.852 61.057V60.416C59.852 60.3087 59.8668 60.2189 59.8964 60.1468C59.926 60.0728 59.9778 60.0173 60.0518 59.9803C60.1258 59.9414 60.2285 59.922 60.3599 59.922H61.1702C61.2997 59.922 61.4005 59.9414 61.4726 59.9803C61.5466 60.0173 61.5984 60.0728 61.628 60.1468C61.6595 60.2189 61.6752 60.3087 61.6752 60.416V61.057C61.6752 61.2198 61.6391 61.3437 61.567 61.4288C61.4948 61.5121 61.3626 61.5537 61.1702 61.5537H60.3599ZM60.4403 61.2873H61.0925C61.1609 61.2873 61.2136 61.2697 61.2506 61.2346C61.2895 61.1994 61.3089 61.1513 61.3089 61.0903V60.3827C61.3089 60.329 61.2895 60.2837 61.2506 60.2467C61.2118 60.2078 61.1591 60.1884 61.0925 60.1884H60.4403C60.3737 60.1884 60.3201 60.206 60.2794 60.2411C60.2387 60.2763 60.2183 60.3235 60.2183 60.3827V61.0903C60.2183 61.1532 60.2378 61.2022 60.2766 61.2374C60.3173 61.2707 60.3719 61.2873 60.4403 61.2873ZM62.0356 61.5537V60.3105H62.2632L62.3742 60.366C62.4519 60.3512 62.5453 60.3383 62.6545 60.3272C62.7636 60.3161 62.8885 60.3105 63.0291 60.3105H63.1678C63.2603 60.3105 63.3316 60.3235 63.3815 60.3494C63.4315 60.3753 63.4666 60.4076 63.487 60.4465C63.5092 60.4853 63.5221 60.5251 63.5258 60.5658C63.5314 60.6047 63.5341 60.638 63.5341 60.6657V61.5537H63.1956V60.6602C63.1956 60.5862 63.1512 60.5492 63.0624 60.5492H62.4574C62.4223 60.5492 62.3992 60.5529 62.3881 60.5603C62.3788 60.5658 62.3742 60.5825 62.3742 60.6102V61.5537H62.0356ZM64.1926 61.5537C64.1001 61.5537 64.0288 61.5417 63.9789 61.5176C63.9289 61.4936 63.8929 61.4631 63.8707 61.4261C63.8503 61.3891 63.8374 61.3502 63.8318 61.3095C63.8281 61.2688 63.8263 61.2318 63.8263 61.1985V60.6657C63.8263 60.638 63.8281 60.6047 63.8318 60.5658C63.8374 60.5251 63.8503 60.4853 63.8707 60.4465C63.8929 60.4076 63.9289 60.3753 63.9789 60.3494C64.0307 60.3235 64.1019 60.3105 64.1926 60.3105H64.7892C64.9113 60.3105 65.0066 60.3225 65.075 60.3466C65.1453 60.3688 65.1943 60.4058 65.2221 60.4576C65.2517 60.5094 65.2665 60.5788 65.2665 60.6657V61.0764H64.7809C64.6144 61.0764 64.4784 61.0727 64.3729 61.0653C64.2693 61.0579 64.2 61.0533 64.1648 61.0514V61.2041C64.163 61.2781 64.2074 61.3151 64.298 61.3151H64.4395C64.5394 61.3151 64.6366 61.3141 64.7309 61.3123C64.8271 61.3086 64.915 61.3049 64.9945 61.3012C65.0741 61.2956 65.1379 61.291 65.186 61.2873L65.297 61.4677C65.297 61.525 65.1148 61.5537 64.7503 61.5537H64.1926ZM64.1648 60.8378H64.9279V60.6602C64.9279 60.6232 64.9233 60.5973 64.9141 60.5825C64.9067 60.5677 64.8826 60.5584 64.8419 60.5547C64.8012 60.551 64.7318 60.5492 64.6338 60.5492H64.298C64.2092 60.5492 64.1648 60.5862 64.1648 60.6602V60.8378ZM66.1846 62.0699V60.3105H66.4121L66.4815 60.3466C66.5648 60.3373 66.6637 60.329 66.7784 60.3216C66.895 60.3142 67.0273 60.3105 67.1753 60.3105H67.3168C67.4093 60.3105 67.4805 60.3225 67.5305 60.3466C67.5804 60.3706 67.6156 60.4012 67.6359 60.4382C67.6581 60.4752 67.6711 60.514 67.6748 60.5547C67.6803 60.5954 67.6831 60.6324 67.6831 60.6657V61.1985C67.6831 61.2263 67.6803 61.2605 67.6748 61.3012C67.6711 61.34 67.6581 61.3789 67.6359 61.4177C67.6156 61.4566 67.5804 61.489 67.5305 61.5149C67.4805 61.5408 67.4093 61.5537 67.3168 61.5537H67.1753C67.0347 61.5537 66.9098 61.55 66.8006 61.5426C66.6915 61.5352 66.599 61.5278 66.5231 61.5204V62.0699H66.1846ZM66.6092 61.3151H67.2113C67.2465 61.3151 67.277 61.3058 67.3029 61.2873C67.3307 61.2688 67.3445 61.2411 67.3445 61.2041V60.6602C67.3464 60.6195 67.3362 60.5908 67.314 60.5741C67.2937 60.5575 67.2594 60.5492 67.2113 60.5492H67.0726C66.9542 60.5492 66.8487 60.5519 66.7562 60.5575C66.6656 60.5612 66.5879 60.5658 66.5231 60.5714V61.229C66.5231 61.2697 66.5268 61.2947 66.5342 61.304C66.5435 61.3114 66.5685 61.3151 66.6092 61.3151ZM68.3474 61.5537C68.2068 61.5537 68.105 61.5213 68.0421 61.4566C67.9792 61.39 67.9478 61.2993 67.9478 61.1846C67.9478 61.0644 67.9802 60.9719 68.0449 60.9071C68.1115 60.8424 68.2123 60.81 68.3474 60.81H68.4889C68.6277 60.81 68.7525 60.8137 68.8635 60.8211C68.9745 60.8285 69.0661 60.8359 69.1383 60.8433V60.6602C69.1383 60.6435 69.1364 60.6269 69.1327 60.6102C69.129 60.5917 69.1179 60.5769 69.0994 60.5658C69.0809 60.5547 69.0495 60.5492 69.0051 60.5492H68.8663C68.6647 60.5492 68.4963 60.5529 68.3613 60.5603C68.2262 60.5658 68.1346 60.5714 68.0865 60.5769L68.056 60.366C68.056 60.3401 68.1263 60.3244 68.2669 60.3188C68.4075 60.3133 68.6425 60.3105 68.9718 60.3105H69.1105C69.203 60.3105 69.2742 60.3235 69.3242 60.3494C69.3741 60.3753 69.4093 60.4076 69.4296 60.4465C69.4518 60.4853 69.4648 60.5251 69.4685 60.5658C69.474 60.6047 69.4768 60.638 69.4768 60.6657V61.5537H69.2493L69.141 61.4982C69.0633 61.5112 68.9699 61.5241 68.8608 61.5371C68.7516 61.5482 68.6267 61.5537 68.4861 61.5537H68.3474ZM68.4195 61.3151H69.055C69.0957 61.3151 69.1198 61.3114 69.1272 61.304C69.1346 61.2966 69.1383 61.2734 69.1383 61.2346V61.0209H68.4195C68.3696 61.0209 68.3344 61.0329 68.3141 61.057C68.2956 61.081 68.2863 61.119 68.2863 61.1708C68.2863 61.2226 68.2974 61.2596 68.3196 61.2818C68.3418 61.304 68.3751 61.3151 68.4195 61.3151ZM70.7099 62.0421C70.5064 62.0421 70.3409 62.0403 70.2132 62.0366C70.0856 62.0329 69.9875 62.0273 69.9191 62.0199C69.8506 62.0125 69.8034 62.0033 69.7775 61.9922C69.7535 61.9811 69.7415 61.969 69.7415 61.9561L69.8247 61.748C69.8543 61.7572 69.9061 61.7683 69.9801 61.7813C70.056 61.7961 70.1522 61.8035 70.2687 61.8035H70.7432C70.8117 61.8035 70.8598 61.7933 70.8875 61.7729C70.9171 61.7526 70.9319 61.7165 70.9319 61.6647V61.4982C70.8524 61.513 70.758 61.526 70.6489 61.5371C70.5416 61.5482 70.4176 61.5537 70.277 61.5537H70.1383C70.0458 61.5537 69.9746 61.5417 69.9246 61.5176C69.8747 61.4936 69.8386 61.4631 69.8164 61.4261C69.796 61.3891 69.7831 61.3502 69.7775 61.3095C69.7738 61.2688 69.772 61.2318 69.772 61.1985V60.6657C69.772 60.638 69.7738 60.6047 69.7775 60.5658C69.7831 60.5251 69.796 60.4853 69.8164 60.4465C69.8386 60.4076 69.8747 60.3753 69.9246 60.3494C69.9764 60.3235 70.0476 60.3105 70.1383 60.3105H70.2798C70.4741 60.3105 70.6248 60.3142 70.7321 60.3216C70.8413 60.329 70.9208 60.3373 70.9708 60.3466L71.0429 60.3105H71.2705V61.6869C71.2705 61.7202 71.2649 61.7572 71.2538 61.7979C71.2446 61.8386 71.2252 61.8775 71.1956 61.9145C71.166 61.9515 71.1234 61.982 71.0679 62.006C71.0124 62.0301 70.9393 62.0421 70.8487 62.0421H70.7099ZM70.2437 61.3151H70.8459C70.8885 61.3151 70.9134 61.3114 70.9208 61.304C70.9282 61.2966 70.9319 61.2725 70.9319 61.2318V60.5686C70.869 60.5649 70.7895 60.5612 70.6933 60.5575C70.5971 60.5519 70.4944 60.5492 70.3853 60.5492H70.2437C70.1549 60.5492 70.1105 60.5862 70.1105 60.6602V61.2041C70.1087 61.2781 70.1531 61.3151 70.2437 61.3151ZM71.9431 61.5537C71.8506 61.5537 71.7793 61.5417 71.7294 61.5176C71.6794 61.4936 71.6434 61.4631 71.6212 61.4261C71.6008 61.3891 71.5879 61.3502 71.5823 61.3095C71.5786 61.2688 71.5768 61.2318 71.5768 61.1985V60.6657C71.5768 60.638 71.5786 60.6047 71.5823 60.5658C71.5879 60.5251 71.6008 60.4853 71.6212 60.4465C71.6434 60.4076 71.6794 60.3753 71.7294 60.3494C71.7812 60.3235 71.8524 60.3105 71.9431 60.3105H72.5397C72.6618 60.3105 72.7571 60.3225 72.8255 60.3466C72.8958 60.3688 72.9448 60.4058 72.9726 60.4576C73.0022 60.5094 73.017 60.5788 73.017 60.6657V61.0764H72.5314C72.3649 61.0764 72.2289 61.0727 72.1234 61.0653C72.0198 61.0579 71.9505 61.0533 71.9153 61.0514V61.2041C71.9135 61.2781 71.9579 61.3151 72.0485 61.3151H72.19C72.2899 61.3151 72.3871 61.3141 72.4814 61.3123C72.5776 61.3086 72.6655 61.3049 72.745 61.3012C72.8246 61.2956 72.8884 61.291 72.9365 61.2873L73.0475 61.4677C73.0475 61.525 72.8653 61.5537 72.5008 61.5537H71.9431ZM71.9153 60.8378H72.6784V60.6602C72.6784 60.6232 72.6738 60.5973 72.6646 60.5825C72.6572 60.5677 72.6331 60.5584 72.5924 60.5547C72.5517 60.551 72.4823 60.5492 72.3843 60.5492H72.0485C71.9597 60.5492 71.9153 60.5862 71.9153 60.6602V60.8378ZM74.2736 61.5537C74.1497 61.5537 74.0572 61.5287 73.9961 61.4788C73.9369 61.4288 73.9073 61.3474 73.9073 61.2346V60.6657C73.9073 60.638 73.9092 60.6047 73.9129 60.5658C73.9184 60.5251 73.9314 60.4853 73.9517 60.4465C73.9739 60.4076 74.01 60.3753 74.0599 60.3494C74.1117 60.3235 74.183 60.3105 74.2736 60.3105H75.0395C75.132 60.3105 75.2032 60.3235 75.2532 60.3494C75.3031 60.3753 75.3383 60.4076 75.3586 60.4465C75.3808 60.4853 75.3938 60.5251 75.3975 60.5658C75.403 60.6047 75.4058 60.638 75.4058 60.6657V61.1985C75.4058 61.2318 75.403 61.2688 75.3975 61.3095C75.3938 61.3502 75.3808 61.3891 75.3586 61.4261C75.3364 61.4631 75.3004 61.4936 75.2504 61.5176C75.2005 61.5417 75.1302 61.5537 75.0395 61.5537H74.2736ZM74.3791 61.3151H74.9341C75.0247 61.3151 75.07 61.2781 75.07 61.2041V60.6602C75.07 60.5862 75.0247 60.5492 74.9341 60.5492H74.3791C74.2903 60.5492 74.2459 60.5862 74.2459 60.6602V61.2041C74.2459 61.2781 74.2903 61.3151 74.3791 61.3151ZM75.7711 61.5537V60.5492H75.5991V60.3133H75.7711V60.0663C75.7711 60.0034 75.7832 59.9451 75.8072 59.8915C75.8331 59.8378 75.8747 59.7944 75.9321 59.7611C75.9913 59.7278 76.069 59.7111 76.1652 59.7111H76.3039C76.5259 59.7111 76.685 59.7213 76.7812 59.7416C76.8793 59.762 76.9283 59.7796 76.9283 59.7944L76.8451 60.0053C76.8136 59.9923 76.7572 59.9803 76.6758 59.9692C76.5944 59.9562 76.4963 59.9498 76.3816 59.9498H76.2429C76.1966 59.9498 76.1624 59.9581 76.1402 59.9747C76.1199 59.9914 76.1097 60.0201 76.1097 60.0608V60.3133H76.6869V60.5492H76.1097V61.5537H75.7711ZM77.6477 61.5537V60.3105H77.8753L77.9446 60.3438C77.9983 60.3346 78.064 60.3272 78.1417 60.3216C78.2194 60.3142 78.3119 60.3105 78.4192 60.3105H78.5579C78.6116 60.3105 78.6634 60.3179 78.7133 60.3327C78.7633 60.3457 78.8003 60.3651 78.8243 60.391C78.8724 60.3669 78.939 60.3475 79.0241 60.3327C79.1092 60.3179 79.2202 60.3105 79.3571 60.3105H79.4959C79.5884 60.3105 79.6596 60.3235 79.7095 60.3494C79.7595 60.3753 79.7946 60.4076 79.815 60.4465C79.8372 60.4853 79.8501 60.5251 79.8538 60.5658C79.8594 60.6047 79.8622 60.638 79.8622 60.6657V61.5537H79.5236V60.6602C79.5236 60.5862 79.4792 60.5492 79.3904 60.5492H79.0019C78.9723 60.5492 78.952 60.5529 78.9409 60.5603C78.9298 60.5677 78.9242 60.5843 78.9242 60.6102V61.5537H78.5857V60.6602C78.5857 60.5862 78.5413 60.5492 78.4525 60.5492H78.0695C78.0344 60.5492 78.0112 60.5529 78.0001 60.5603C77.9909 60.5658 77.9863 60.5825 77.9863 60.6102V61.5537H77.6477ZM80.2981 62.0976C80.2093 62.0976 80.1279 62.0874 80.0539 62.0671C79.9799 62.0467 79.9299 62.0282 79.904 62.0116L79.9873 61.7618C80.0187 61.7748 80.0631 61.7896 80.1205 61.8062C80.1797 61.8247 80.2463 61.834 80.3203 61.834H80.3508C80.4359 61.834 80.5108 61.8081 80.5756 61.7563C80.6422 61.7063 80.6931 61.6388 80.7282 61.5537H80.5895L80.0456 60.3105H80.4341L80.7532 61.0764L80.8253 61.2762H80.8531L80.9252 61.0764L81.2499 60.3105H81.6273L81.5829 60.4798C81.5478 60.5519 81.5071 60.6352 81.4608 60.7295C81.4164 60.822 81.3702 60.9182 81.3221 61.0181C81.274 61.118 81.2268 61.2142 81.1805 61.3067C81.1361 61.3992 81.0964 61.4816 81.0612 61.5537C81.0076 61.6647 80.9484 61.7609 80.8836 61.8423C80.8207 61.9237 80.7476 61.9866 80.6644 62.031C80.583 62.0754 80.4859 62.0976 80.373 62.0976H80.2981ZM82.4585 61.5537V60.0164L82.4308 59.7944H82.7971V61.5537H82.4585ZM83.327 60.1357C83.2585 60.1357 83.2086 60.1218 83.1771 60.0941C83.1457 60.0663 83.13 60.0201 83.13 59.9553C83.13 59.8887 83.1448 59.8425 83.1744 59.8166C83.2058 59.7888 83.2567 59.7749 83.327 59.7749C83.3973 59.7749 83.4482 59.7888 83.4796 59.8166C83.5111 59.8425 83.5268 59.8887 83.5268 59.9553C83.5268 60.0182 83.5111 60.0645 83.4796 60.0941C83.4482 60.1218 83.3973 60.1357 83.327 60.1357ZM83.1577 61.5537V60.3105H83.4963V61.5537H83.1577ZM83.92 61.5537V60.5492H83.7479V60.3133H83.92V60.0663C83.92 60.0034 83.932 59.9451 83.9561 59.8915C83.982 59.8378 84.0236 59.7944 84.0809 59.7611C84.1401 59.7278 84.2178 59.7111 84.314 59.7111H84.4528C84.6748 59.7111 84.8339 59.7213 84.9301 59.7416C85.0281 59.762 85.0772 59.7796 85.0772 59.7944L84.9939 60.0053C84.9625 59.9923 84.906 59.9803 84.8246 59.9692C84.7432 59.9562 84.6452 59.9498 84.5305 59.9498H84.3917C84.3455 59.9498 84.3113 59.9581 84.2891 59.9747C84.2687 59.9914 84.2585 60.0201 84.2585 60.0608V60.3133H84.8357V60.5492H84.2585V61.5537H83.92ZM85.4143 61.5537C85.3218 61.5537 85.2505 61.5417 85.2006 61.5176C85.1506 61.4936 85.1146 61.4631 85.0924 61.4261C85.072 61.3891 85.0591 61.3502 85.0535 61.3095C85.0498 61.2688 85.048 61.2318 85.048 61.1985V60.6657C85.048 60.638 85.0498 60.6047 85.0535 60.5658C85.0591 60.5251 85.072 60.4853 85.0924 60.4465C85.1146 60.4076 85.1506 60.3753 85.2006 60.3494C85.2524 60.3235 85.3236 60.3105 85.4143 60.3105H86.0109C86.133 60.3105 86.2283 60.3225 86.2967 60.3466C86.367 60.3688 86.416 60.4058 86.4438 60.4576C86.4734 60.5094 86.4882 60.5788 86.4882 60.6657V61.0764H86.0026C85.8361 61.0764 85.7001 61.0727 85.5946 61.0653C85.491 61.0579 85.4217 61.0533 85.3865 61.0514V61.2041C85.3847 61.2781 85.4291 61.3151 85.5197 61.3151H85.6612C85.7611 61.3151 85.8583 61.3141 85.9526 61.3123C86.0488 61.3086 86.1367 61.3049 86.2162 61.3012C86.2958 61.2956 86.3596 61.291 86.4077 61.2873L86.5187 61.4677C86.5187 61.525 86.3365 61.5537 85.972 61.5537H85.4143ZM85.3865 60.8378H86.1496V60.6602C86.1496 60.6232 86.145 60.5973 86.1358 60.5825C86.1284 60.5677 86.1043 60.5584 86.0636 60.5547C86.0229 60.551 85.9535 60.5492 85.8555 60.5492H85.5197C85.4309 60.5492 85.3865 60.5862 85.3865 60.6602V60.8378ZM87.0491 61.5537C86.9806 61.5537 86.9307 61.5398 86.8992 61.5121C86.8678 61.4843 86.852 61.4381 86.852 61.3733C86.852 61.3067 86.8668 61.2605 86.8964 61.2346C86.9279 61.2068 86.9788 61.193 87.0491 61.193C87.1194 61.193 87.1702 61.2068 87.2017 61.2346C87.2331 61.2605 87.2489 61.3067 87.2489 61.3733C87.2489 61.4362 87.2331 61.4825 87.2017 61.5121C87.1702 61.5398 87.1194 61.5537 87.0491 61.5537Z" fill="#2A1919"/>
<path d="M65.5867 57.6187C65.3532 57.6187 65.1707 57.5858 65.0391 57.52C64.9076 57.4542 64.8155 57.3555 64.7628 57.224C64.7102 57.0924 64.6839 56.9296 64.6839 56.7356V55.6355C64.6839 55.3197 64.7546 55.0879 64.896 54.9399C65.0375 54.7886 65.2677 54.7129 65.5867 54.7129H67.0716C67.2986 54.7129 67.4712 54.7261 67.5896 54.7524C67.7113 54.7754 67.7722 54.8001 67.7722 54.8264L67.6735 55.2359C67.6176 55.226 67.4515 55.2161 67.1752 55.2063C66.9023 55.1931 66.5043 55.1865 65.9814 55.1865H65.7298C65.4667 55.1865 65.3351 55.3033 65.3351 55.5368V56.7948C65.3351 56.9066 65.3631 56.9938 65.419 57.0563C65.4782 57.1155 65.5818 57.1451 65.7298 57.1451H65.932C66.478 57.1451 66.9006 57.1401 67.1999 57.1303C67.5025 57.1171 67.69 57.1039 67.7623 57.0908L67.9646 57.4164C67.9646 57.4328 67.9366 57.4575 67.8807 57.4904C67.8281 57.5233 67.7294 57.5529 67.5847 57.5792C67.44 57.6055 67.2312 57.6187 66.9582 57.6187H65.5867ZM68.9605 57.6187C68.7402 57.6187 68.5757 57.5743 68.4672 57.4855C68.362 57.3967 68.3093 57.2519 68.3093 57.0513V56.04C68.3093 55.9907 68.3126 55.9315 68.3192 55.8624C68.3291 55.79 68.3521 55.7193 68.3883 55.6503C68.4277 55.5812 68.4919 55.5236 68.5807 55.4776C68.6728 55.4315 68.7994 55.4085 68.9605 55.4085H70.3221C70.4866 55.4085 70.6132 55.4315 70.702 55.4776C70.7908 55.5236 70.8533 55.5812 70.8895 55.6503C70.9289 55.7193 70.952 55.79 70.9585 55.8624C70.9684 55.9315 70.9733 55.9907 70.9733 56.04V56.9872C70.9733 57.0464 70.9684 57.1122 70.9585 57.1845C70.952 57.2569 70.9289 57.3259 70.8895 57.3917C70.85 57.4575 70.7859 57.5118 70.6971 57.5545C70.6083 57.5973 70.4833 57.6187 70.3221 57.6187H68.9605ZM69.148 57.1944H70.1347C70.2958 57.1944 70.3764 57.1286 70.3764 56.9971V56.0301C70.3764 55.8986 70.2958 55.8328 70.1347 55.8328H69.148C68.9901 55.8328 68.9112 55.8986 68.9112 56.0301V56.9971C68.9112 57.1286 68.9901 57.1944 69.148 57.1944ZM71.5143 57.6187V55.4085H71.9188L72.1161 55.5072C72.2543 55.4809 72.4204 55.4579 72.6144 55.4381C72.8084 55.4184 73.0304 55.4085 73.2804 55.4085H73.5271C73.6915 55.4085 73.8181 55.4315 73.9069 55.4776C73.9957 55.5236 74.0582 55.5812 74.0944 55.6503C74.1339 55.7193 74.1569 55.79 74.1635 55.8624C74.1733 55.9315 74.1783 55.9907 74.1783 56.04V57.6187H73.5764V56.0301C73.5764 55.8986 73.4975 55.8328 73.3396 55.8328H72.2641C72.2016 55.8328 72.1605 55.8394 72.1408 55.8525C72.1244 55.8624 72.1161 55.892 72.1161 55.9413V57.6187H71.5143ZM75.6053 57.6187C75.3554 57.6187 75.1844 57.566 75.0923 57.4608C75.0002 57.3555 74.9541 57.1977 74.9541 56.9872V55.8328H74.5496V55.4085H74.7568C74.8193 55.4085 74.8637 55.3987 74.89 55.3789C74.9196 55.3592 74.941 55.3197 74.9541 55.2605L75.0528 54.7327H75.556V55.4085H76.5821V55.8328H75.556V56.9921C75.556 57.0743 75.5757 57.1286 75.6152 57.1549C75.6547 57.1812 75.7139 57.1944 75.7928 57.1944H76.4884L76.5377 57.5693C76.4687 57.5792 76.3634 57.5907 76.222 57.6039C76.0806 57.6137 75.926 57.6187 75.7583 57.6187H75.6053ZM77.6139 57.6187C77.364 57.6187 77.1831 57.5611 77.0713 57.446C76.9595 57.3276 76.9035 57.1664 76.9035 56.9625C76.9035 56.7487 76.9611 56.5843 77.0762 56.4692C77.1946 56.3541 77.3739 56.2965 77.6139 56.2965H77.8655C78.1122 56.2965 78.3342 56.3031 78.5315 56.3163C78.7289 56.3294 78.8917 56.3426 79.0199 56.3557V56.0301C79.0199 56.0005 79.0167 55.9709 79.0101 55.9413C79.0035 55.9084 78.9838 55.8821 78.9509 55.8624C78.918 55.8427 78.8621 55.8328 78.7831 55.8328H78.5365C78.178 55.8328 77.8787 55.8394 77.6386 55.8525C77.3985 55.8624 77.2357 55.8723 77.1502 55.8821L77.0959 55.5072C77.0959 55.4611 77.2209 55.4332 77.4709 55.4233C77.7208 55.4135 78.1385 55.4085 78.7239 55.4085H78.9706C79.1351 55.4085 79.2617 55.4315 79.3505 55.4776C79.4393 55.5236 79.5018 55.5812 79.5379 55.6503C79.5774 55.7193 79.6004 55.79 79.607 55.8624C79.6169 55.9315 79.6218 55.9907 79.6218 56.04V57.6187H79.2173L79.0249 57.52C78.8867 57.543 78.7207 57.566 78.5266 57.5891C78.3326 57.6088 78.1106 57.6187 77.8606 57.6187H77.6139ZM77.7422 57.1944H78.8719C78.9443 57.1944 78.9871 57.1878 79.0002 57.1747C79.0134 57.1615 79.0199 57.1204 79.0199 57.0513V56.6715H77.7422C77.6534 56.6715 77.5909 56.6928 77.5547 56.7356C77.5219 56.7783 77.5054 56.8458 77.5054 56.9379C77.5054 57.0299 77.5251 57.0957 77.5646 57.1352C77.6041 57.1747 77.6633 57.1944 77.7422 57.1944ZM80.7928 57.6187C80.6284 57.6187 80.5018 57.5973 80.413 57.5545C80.3242 57.5118 80.26 57.4575 80.2206 57.3917C80.1844 57.3259 80.1614 57.2569 80.1515 57.1845C80.1449 57.1122 80.1416 57.0464 80.1416 56.9872V56.04C80.1416 55.9907 80.1449 55.9315 80.1515 55.8624C80.1614 55.79 80.1844 55.7193 80.2206 55.6503C80.26 55.5812 80.3242 55.5236 80.413 55.4776C80.505 55.4315 80.6317 55.4085 80.7928 55.4085H81.4786C81.8897 55.4085 82.1807 55.42 82.3518 55.4431C82.5261 55.4628 82.6132 55.4842 82.6132 55.5072L82.5146 55.8821C82.4225 55.8755 82.3057 55.869 82.1643 55.8624C82.0229 55.8525 81.8699 55.8459 81.7055 55.8427C81.5443 55.8361 81.3865 55.8328 81.2319 55.8328H80.9803C80.8224 55.8328 80.7435 55.8986 80.7435 56.0301V56.9971C80.7402 57.1286 80.8191 57.1944 80.9803 57.1944H81.2319C81.4095 57.1944 81.5822 57.1927 81.7499 57.1895C81.9209 57.1829 82.0771 57.1763 82.2186 57.1697C82.36 57.1599 82.4734 57.1516 82.559 57.1451L82.7563 57.4657C82.7563 57.5677 82.4323 57.6187 81.7844 57.6187H80.7928ZM83.9593 57.6187C83.7093 57.6187 83.5383 57.566 83.4462 57.4608C83.3541 57.3555 83.3081 57.1977 83.3081 56.9872V55.8328H82.9035V55.4085H83.1107C83.1732 55.4085 83.2176 55.3987 83.2439 55.3789C83.2735 55.3592 83.2949 55.3197 83.3081 55.2605L83.4067 54.7327H83.9099V55.4085H84.9361V55.8328H83.9099V56.9921C83.9099 57.0743 83.9297 57.1286 83.9691 57.1549C84.0086 57.1812 84.0678 57.1944 84.1467 57.1944H84.8423L84.8917 57.5693C84.8226 57.5792 84.7173 57.5907 84.5759 57.6039C84.4345 57.6137 84.2799 57.6187 84.1122 57.6187H83.9593Z" fill="#2A1919"/>
<path d="M60.6345 88.3037V87.3972H60.838V88.3037H60.6345ZM61.0538 88.3037V87.613H61.1802L61.2419 87.6439C61.2851 87.6357 61.337 87.6285 61.3976 87.6223C61.4583 87.6161 61.5276 87.613 61.6057 87.613H61.6828C61.7342 87.613 61.7738 87.6202 61.8015 87.6346C61.8293 87.649 61.8488 87.667 61.8601 87.6886C61.8724 87.7102 61.8796 87.7323 61.8817 87.7549C61.8848 87.7765 61.8863 87.795 61.8863 87.8104V88.3037H61.6982V87.8073C61.6982 87.7662 61.6736 87.7456 61.6242 87.7456H61.2882C61.2686 87.7456 61.2558 87.7477 61.2496 87.7518C61.2445 87.7549 61.2419 87.7641 61.2419 87.7795V88.3037H61.0538ZM62.671 88.3037C62.5929 88.3037 62.5395 88.2873 62.5107 88.2544C62.4819 88.2215 62.4675 88.1722 62.4675 88.1064V87.7456H62.3411V87.613H62.4059C62.4254 87.613 62.4393 87.61 62.4475 87.6038C62.4567 87.5976 62.4634 87.5853 62.4675 87.5668L62.4984 87.4018H62.6556V87.613H62.9763V87.7456H62.6556V88.1079C62.6556 88.1336 62.6618 88.1506 62.6741 88.1588C62.6864 88.167 62.7049 88.1711 62.7296 88.1711H62.947L62.9624 88.2883C62.9408 88.2914 62.9079 88.295 62.8637 88.2991C62.8195 88.3022 62.7712 88.3037 62.7188 88.3037H62.671ZM63.0998 88.3037V87.3047H63.2879V87.6439C63.3311 87.6357 63.383 87.6285 63.4436 87.6223C63.5043 87.6161 63.5736 87.613 63.6518 87.613H63.7288C63.7802 87.613 63.8198 87.6202 63.8475 87.6346C63.8753 87.649 63.8948 87.667 63.9061 87.6886C63.9185 87.7102 63.9257 87.7323 63.9277 87.7549C63.9308 87.7765 63.9323 87.795 63.9323 87.8104V88.3037H63.7443V87.8073C63.7443 87.7662 63.7196 87.7456 63.6703 87.7456H63.3342C63.3146 87.7456 63.3018 87.7477 63.2956 87.7518C63.2905 87.7549 63.2879 87.7641 63.2879 87.7795V88.3037H63.0998ZM64.1101 88.3037V87.613H64.2365L64.2951 87.6439C64.3218 87.6295 64.3506 87.6182 64.3814 87.61C64.4122 87.6017 64.4513 87.5976 64.4986 87.5976C64.5736 87.5976 64.6342 87.6058 64.6805 87.6223C64.7277 87.6387 64.7591 87.6511 64.7745 87.6593L64.7206 87.7934C64.7082 87.7873 64.6877 87.7795 64.6589 87.7703C64.6311 87.76 64.5982 87.7508 64.5602 87.7425C64.5222 87.7343 64.4806 87.7302 64.4353 87.7302H64.4184C64.3691 87.7302 64.3367 87.74 64.3213 87.7595C64.3069 87.779 64.2992 87.8114 64.2981 87.8566V88.3037H64.1101ZM65.0705 88.3037C65.0191 88.3037 64.9795 88.297 64.9518 88.2837C64.924 88.2703 64.904 88.2533 64.8916 88.2328C64.8803 88.2122 64.8731 88.1907 64.8701 88.168C64.868 88.1454 64.867 88.1249 64.867 88.1064V87.8104C64.867 87.795 64.868 87.7765 64.8701 87.7549C64.8731 87.7323 64.8803 87.7102 64.8916 87.6886C64.904 87.667 64.924 87.649 64.9518 87.6346C64.9805 87.6202 65.0201 87.613 65.0705 87.613H65.4019C65.4698 87.613 65.5227 87.6197 65.5607 87.6331C65.5998 87.6454 65.627 87.666 65.6424 87.6948C65.6589 87.7235 65.6671 87.7621 65.6671 87.8104V88.0385H65.3973C65.3048 88.0385 65.2293 88.0365 65.1707 88.0324C65.1131 88.0283 65.0746 88.0257 65.0551 88.0247V88.1095C65.054 88.1506 65.0787 88.1711 65.1291 88.1711H65.2077C65.2632 88.1711 65.3171 88.1706 65.3696 88.1696C65.423 88.1675 65.4718 88.1655 65.516 88.1634C65.5602 88.1603 65.5957 88.1578 65.6224 88.1557L65.6841 88.2559C65.6841 88.2878 65.5828 88.3037 65.3804 88.3037H65.0705ZM65.0551 87.906H65.479V87.8073C65.479 87.7867 65.4764 87.7723 65.4713 87.7641C65.4672 87.7559 65.4538 87.7508 65.4312 87.7487C65.4086 87.7467 65.3701 87.7456 65.3156 87.7456H65.1291C65.0797 87.7456 65.0551 87.7662 65.0551 87.8073V87.906ZM66.0265 88.3037C65.9751 88.3037 65.9355 88.297 65.9078 88.2837C65.88 88.2703 65.86 88.2533 65.8477 88.2328C65.8364 88.2122 65.8292 88.1907 65.8261 88.168C65.824 88.1454 65.823 88.1249 65.823 88.1064V87.8104C65.823 87.795 65.824 87.7765 65.8261 87.7549C65.8292 87.7323 65.8364 87.7102 65.8477 87.6886C65.86 87.667 65.88 87.649 65.9078 87.6346C65.9366 87.6202 65.9761 87.613 66.0265 87.613H66.3579C66.4258 87.613 66.4787 87.6197 66.5167 87.6331C66.5558 87.6454 66.583 87.666 66.5984 87.6948C66.6149 87.7235 66.6231 87.7621 66.6231 87.8104V88.0385H66.3533C66.2608 88.0385 66.1853 88.0365 66.1267 88.0324C66.0691 88.0283 66.0306 88.0257 66.0111 88.0247V88.1095C66.01 88.1506 66.0347 88.1711 66.0851 88.1711H66.1637C66.2192 88.1711 66.2732 88.1706 66.3256 88.1696C66.379 88.1675 66.4278 88.1655 66.472 88.1634C66.5162 88.1603 66.5517 88.1578 66.5784 88.1557L66.6401 88.2559C66.6401 88.2878 66.5388 88.3037 66.3364 88.3037H66.0265ZM66.0111 87.906H66.435V87.8073C66.435 87.7867 66.4325 87.7723 66.4273 87.7641C66.4232 87.7559 66.4099 87.7508 66.3872 87.7487C66.3646 87.7467 66.3261 87.7456 66.2716 87.7456H66.0851C66.0357 87.7456 66.0111 87.7662 66.0111 87.8073V87.906ZM67.1332 88.3037V87.613H67.2596L67.2981 87.6315C67.3279 87.6264 67.3644 87.6223 67.4076 87.6192C67.4507 87.6151 67.5021 87.613 67.5617 87.613H67.6388C67.6686 87.613 67.6974 87.6172 67.7252 87.6254C67.7529 87.6326 67.7735 87.6434 67.7868 87.6578C67.8136 87.6444 67.8506 87.6336 67.8978 87.6254C67.9451 87.6172 68.0068 87.613 68.0828 87.613H68.1599C68.2113 87.613 68.2509 87.6202 68.2786 87.6346C68.3064 87.649 68.3259 87.667 68.3372 87.6886C68.3495 87.7102 68.3567 87.7323 68.3588 87.7549C68.3619 87.7765 68.3634 87.795 68.3634 87.8104V88.3037H68.1753V87.8073C68.1753 87.7662 68.1507 87.7456 68.1013 87.7456H67.8855C67.8691 87.7456 67.8577 87.7477 67.8516 87.7518C67.8454 87.7559 67.8423 87.7652 67.8423 87.7795V88.3037H67.6542V87.8073C67.6542 87.7662 67.6296 87.7456 67.5802 87.7456H67.3675C67.348 87.7456 67.3351 87.7477 67.329 87.7518C67.3238 87.7549 67.3212 87.7641 67.3212 87.7795V88.3037H67.1332ZM68.7289 88.3037C68.6601 88.3037 68.6087 88.2898 68.5748 88.2621C68.5419 88.2343 68.5254 88.1891 68.5254 88.1264V87.8104C68.5254 87.795 68.5265 87.7765 68.5285 87.7549C68.5316 87.7323 68.5388 87.7102 68.5501 87.6886C68.5624 87.667 68.5825 87.649 68.6102 87.6346C68.639 87.6202 68.6786 87.613 68.7289 87.613H69.1544C69.2058 87.613 69.2454 87.6202 69.2731 87.6346C69.3009 87.649 69.3204 87.667 69.3317 87.6886C69.344 87.7102 69.3512 87.7323 69.3533 87.7549C69.3564 87.7765 69.3579 87.795 69.3579 87.8104V88.1064C69.3579 88.1249 69.3564 88.1454 69.3533 88.168C69.3512 88.1907 69.344 88.2122 69.3317 88.2328C69.3194 88.2533 69.2993 88.2703 69.2716 88.2837C69.2438 88.297 69.2048 88.3037 69.1544 88.3037H68.7289ZM68.7875 88.1711H69.0958C69.1462 88.1711 69.1714 88.1506 69.1714 88.1095V87.8073C69.1714 87.7662 69.1462 87.7456 69.0958 87.7456H68.7875C68.7382 87.7456 68.7135 87.7662 68.7135 87.8073V88.1095C68.7135 88.1506 68.7382 88.1711 68.7875 88.1711ZM69.527 88.3037V87.613H69.6534L69.715 87.6439C69.7582 87.6357 69.8101 87.6285 69.8708 87.6223C69.9314 87.6161 70.0008 87.613 70.0789 87.613H70.156C70.2074 87.613 70.2469 87.6202 70.2747 87.6346C70.3024 87.649 70.322 87.667 70.3333 87.6886C70.3456 87.7102 70.3528 87.7323 70.3548 87.7549C70.3579 87.7765 70.3595 87.795 70.3595 87.8104V88.3037H70.1714V87.8073C70.1714 87.7662 70.1467 87.7456 70.0974 87.7456H69.7613C69.7418 87.7456 69.7289 87.7477 69.7228 87.7518C69.7176 87.7549 69.715 87.7641 69.715 87.7795V88.3037H69.527ZM70.8054 88.3037C70.7273 88.3037 70.6739 88.2873 70.6451 88.2544C70.6163 88.2215 70.6019 88.1722 70.6019 88.1064V87.7456H70.4755V87.613H70.5403C70.5598 87.613 70.5737 87.61 70.5819 87.6038C70.5911 87.5976 70.5978 87.5853 70.6019 87.5668L70.6328 87.4018H70.79V87.613H71.1107V87.7456H70.79V88.1079C70.79 88.1336 70.7962 88.1506 70.8085 88.1588C70.8208 88.167 70.8393 88.1711 70.864 88.1711H71.0814L71.0968 88.2883C71.0752 88.2914 71.0423 88.295 70.9981 88.2991C70.9539 88.3022 70.9056 88.3037 70.8532 88.3037H70.8054ZM71.2342 88.3037V87.3047H71.4223V87.6439C71.4655 87.6357 71.5174 87.6285 71.578 87.6223C71.6387 87.6161 71.708 87.613 71.7862 87.613H71.8632C71.9146 87.613 71.9542 87.6202 71.9819 87.6346C72.0097 87.649 72.0292 87.667 72.0405 87.6886C72.0529 87.7102 72.0601 87.7323 72.0621 87.7549C72.0652 87.7765 72.0667 87.795 72.0667 87.8104V88.3037H71.8787V87.8073C71.8787 87.7662 71.854 87.7456 71.8047 87.7456H71.4686C71.449 87.7456 71.4362 87.7477 71.43 87.7518C71.4249 87.7549 71.4223 87.7641 71.4223 87.7795V88.3037H71.2342ZM72.4187 88.3037C72.3498 88.3037 72.301 88.3001 72.2722 88.2929C72.2434 88.2857 72.229 88.2785 72.229 88.2713L72.2753 88.1557C72.3051 88.1588 72.3596 88.1624 72.4387 88.1665C72.5189 88.1696 72.6175 88.1711 72.7347 88.1711H72.8118C72.8375 88.1711 72.8534 88.1644 72.8596 88.1511C72.8668 88.1367 72.8704 88.1177 72.8704 88.094C72.8704 88.0704 72.8663 88.0514 72.858 88.037C72.8508 88.0226 72.8354 88.0154 72.8118 88.0154H72.4325C72.3606 88.0154 72.3087 88.0021 72.2768 87.9753C72.245 87.9476 72.229 87.9065 72.229 87.852V87.7903C72.229 87.7759 72.2306 87.759 72.2337 87.7395C72.2367 87.7199 72.2445 87.7004 72.2568 87.6809C72.2691 87.6613 72.2892 87.6454 72.3169 87.6331C72.3447 87.6197 72.3832 87.613 72.4325 87.613H72.858C72.9197 87.613 72.9634 87.6166 72.9891 87.6238C73.0148 87.631 73.0276 87.6382 73.0276 87.6454L73.0122 87.761C72.9824 87.758 72.9274 87.7549 72.8472 87.7518C72.7671 87.7477 72.6689 87.7456 72.5528 87.7456H72.4757C72.45 87.7456 72.4336 87.7528 72.4264 87.7672C72.4202 87.7806 72.4171 87.7965 72.4171 87.815C72.4171 87.8345 72.4202 87.851 72.4264 87.8643C72.4336 87.8767 72.45 87.8828 72.4757 87.8828H72.855C72.9248 87.8828 72.9762 87.8972 73.0091 87.926C73.042 87.9548 73.0585 87.9913 73.0585 88.0355V88.1264C73.0585 88.1449 73.0569 88.1644 73.0538 88.185C73.0518 88.2056 73.0446 88.2251 73.0322 88.2436C73.0199 88.2611 72.9999 88.2754 72.9721 88.2868C72.9444 88.2981 72.9053 88.3037 72.855 88.3037H72.4187ZM73.2676 88.5165C73.2461 88.5226 73.2332 88.5195 73.2291 88.5072C73.226 88.4959 73.2281 88.4841 73.2353 88.4718C73.2414 88.4635 73.2497 88.4502 73.2599 88.4317C73.2712 88.4132 73.282 88.3921 73.2923 88.3685C73.3026 88.3458 73.3093 88.3227 73.3124 88.2991C73.2856 88.295 73.2661 88.2852 73.2538 88.2698C73.2414 88.2544 73.2353 88.2307 73.2353 88.1989C73.2353 88.1629 73.2435 88.1377 73.2599 88.1233C73.2774 88.1079 73.3057 88.1002 73.3447 88.1002C73.3869 88.1002 73.4182 88.1095 73.4388 88.128C73.4604 88.1454 73.4711 88.1747 73.4711 88.2158C73.4711 88.2456 73.4645 88.277 73.4511 88.3099C73.4388 88.3428 73.4223 88.3736 73.4018 88.4024C73.3812 88.4322 73.3591 88.4568 73.3355 88.4764C73.3118 88.4969 73.2892 88.5103 73.2676 88.5165ZM74.0563 88.3037V87.3972H74.2598V88.3037H74.0563ZM74.8144 88.3037V87.3047H75.0025V87.6439C75.0456 87.6357 75.0976 87.6285 75.1582 87.6223C75.2188 87.6161 75.2882 87.613 75.3663 87.613H75.4434C75.4948 87.613 75.5344 87.6202 75.5621 87.6346C75.5899 87.649 75.6094 87.667 75.6207 87.6886C75.633 87.7102 75.6402 87.7323 75.6423 87.7549C75.6454 87.7765 75.6469 87.795 75.6469 87.8104V88.3037H75.4588V87.8073C75.4588 87.7662 75.4341 87.7456 75.3848 87.7456H75.0487C75.0292 87.7456 75.0164 87.7477 75.0102 87.7518C75.0051 87.7549 75.0025 87.7641 75.0025 87.7795V88.3037H74.8144ZM76.0127 88.3037C75.9438 88.3037 75.8924 88.2898 75.8585 88.2621C75.8256 88.2343 75.8092 88.1891 75.8092 88.1264V87.8104C75.8092 87.795 75.8102 87.7765 75.8123 87.7549C75.8154 87.7323 75.8226 87.7102 75.8339 87.6886C75.8462 87.667 75.8662 87.649 75.894 87.6346C75.9228 87.6202 75.9623 87.613 76.0127 87.613H76.4382C76.4896 87.613 76.5292 87.6202 76.5569 87.6346C76.5847 87.649 76.6042 87.667 76.6155 87.6886C76.6278 87.7102 76.635 87.7323 76.6371 87.7549C76.6402 87.7765 76.6417 87.795 76.6417 87.8104V88.1064C76.6417 88.1249 76.6402 88.1454 76.6371 88.168C76.635 88.1907 76.6278 88.2122 76.6155 88.2328C76.6032 88.2533 76.5831 88.2703 76.5554 88.2837C76.5276 88.297 76.4886 88.3037 76.4382 88.3037H76.0127ZM76.0713 88.1711H76.3796C76.43 88.1711 76.4552 88.1506 76.4552 88.1095V87.8073C76.4552 87.7662 76.43 87.7456 76.3796 87.7456H76.0713C76.0219 87.7456 75.9973 87.7662 75.9973 87.8073V88.1095C75.9973 88.1506 76.0219 88.1711 76.0713 88.1711ZM76.8107 88.5905V87.613H76.9372L76.9757 87.6331C77.0219 87.6279 77.0769 87.6233 77.1407 87.6192C77.2054 87.6151 77.2789 87.613 77.3611 87.613H77.4397C77.4911 87.613 77.5307 87.6197 77.5584 87.6331C77.5862 87.6464 77.6057 87.6634 77.617 87.684C77.6294 87.7045 77.6366 87.7261 77.6386 87.7487C77.6417 87.7713 77.6432 87.7919 77.6432 87.8104V88.1064C77.6432 88.1218 77.6417 88.1408 77.6386 88.1634C77.6366 88.185 77.6294 88.2066 77.617 88.2282C77.6057 88.2498 77.5862 88.2677 77.5584 88.2821C77.5307 88.2965 77.4911 88.3037 77.4397 88.3037H77.3611C77.283 88.3037 77.2136 88.3017 77.153 88.2975C77.0923 88.2934 77.041 88.2893 76.9988 88.2852V88.5905H76.8107ZM77.0466 88.1711H77.3812C77.4007 88.1711 77.4176 88.166 77.432 88.1557C77.4474 88.1454 77.4552 88.13 77.4552 88.1095V87.8073C77.4562 87.7847 77.4505 87.7688 77.4382 87.7595C77.4269 87.7503 77.4079 87.7456 77.3812 87.7456H77.3041C77.2383 87.7456 77.1797 87.7472 77.1283 87.7503C77.078 87.7523 77.0348 87.7549 76.9988 87.758V88.1233C76.9988 88.1459 77.0009 88.1598 77.005 88.165C77.0101 88.1691 77.024 88.1711 77.0466 88.1711ZM78.0015 88.3037C77.9501 88.3037 77.9105 88.297 77.8828 88.2837C77.855 88.2703 77.835 88.2533 77.8227 88.2328C77.8114 88.2122 77.8042 88.1907 77.8011 88.168C77.799 88.1454 77.798 88.1249 77.798 88.1064V87.8104C77.798 87.795 77.799 87.7765 77.8011 87.7549C77.8042 87.7323 77.8114 87.7102 77.8227 87.6886C77.835 87.667 77.855 87.649 77.8828 87.6346C77.9116 87.6202 77.9511 87.613 78.0015 87.613H78.333C78.4008 87.613 78.4537 87.6197 78.4918 87.6331C78.5308 87.6454 78.558 87.666 78.5735 87.6948C78.5899 87.7235 78.5981 87.7621 78.5981 87.8104V88.0385H78.3283C78.2358 88.0385 78.1603 88.0365 78.1017 88.0324C78.0442 88.0283 78.0056 88.0257 77.9861 88.0247V88.1095C77.9851 88.1506 78.0097 88.1711 78.0601 88.1711H78.1387C78.1942 88.1711 78.2482 88.1706 78.3006 88.1696C78.354 88.1675 78.4029 88.1655 78.447 88.1634C78.4912 88.1603 78.5267 88.1578 78.5534 88.1557L78.6151 88.2559C78.6151 88.2878 78.5139 88.3037 78.3114 88.3037H78.0015ZM77.9861 87.906H78.41V87.8073C78.41 87.7867 78.4075 87.7723 78.4023 87.7641C78.3982 87.7559 78.3849 87.7508 78.3623 87.7487C78.3396 87.7467 78.3011 87.7456 78.2466 87.7456H78.0601C78.0108 87.7456 77.9861 87.7662 77.9861 87.8073V87.906ZM79.3764 88.3037C79.2983 88.3037 79.2449 88.2873 79.2161 88.2544C79.1873 88.2215 79.1729 88.1722 79.1729 88.1064V87.7456H79.0465V87.613H79.1113C79.1308 87.613 79.1447 87.61 79.1529 87.6038C79.1621 87.5976 79.1688 87.5853 79.1729 87.5668L79.2038 87.4018H79.361V87.613H79.6817V87.7456H79.361V88.1079C79.361 88.1336 79.3672 88.1506 79.3795 88.1588C79.3918 88.167 79.4103 88.1711 79.435 88.1711H79.6524L79.6678 88.2883C79.6462 88.2914 79.6133 88.295 79.5691 88.2991C79.5249 88.3022 79.4766 88.3037 79.4242 88.3037H79.3764ZM79.9933 88.3037C79.9245 88.3037 79.8731 88.2898 79.8392 88.2621C79.8063 88.2343 79.7898 88.1891 79.7898 88.1264V87.8104C79.7898 87.795 79.7909 87.7765 79.7929 87.7549C79.796 87.7323 79.8032 87.7102 79.8145 87.6886C79.8268 87.667 79.8469 87.649 79.8746 87.6346C79.9034 87.6202 79.943 87.613 79.9933 87.613H80.4188C80.4702 87.613 80.5098 87.6202 80.5375 87.6346C80.5653 87.649 80.5848 87.667 80.5961 87.6886C80.6085 87.7102 80.6156 87.7323 80.6177 87.7549C80.6208 87.7765 80.6223 87.795 80.6223 87.8104V88.1064C80.6223 88.1249 80.6208 88.1454 80.6177 88.168C80.6156 88.1907 80.6085 88.2122 80.5961 88.2328C80.5838 88.2533 80.5637 88.2703 80.536 88.2837C80.5082 88.297 80.4692 88.3037 80.4188 88.3037H79.9933ZM80.0519 88.1711H80.3602C80.4106 88.1711 80.4358 88.1506 80.4358 88.1095V87.8073C80.4358 87.7662 80.4106 87.7456 80.3602 87.7456H80.0519C80.0026 87.7456 79.9779 87.7662 79.9779 87.8073V88.1095C79.9779 88.1506 80.0026 88.1711 80.0519 88.1711ZM81.1301 88.3037V87.3263H81.3182V87.6315C81.3624 87.6264 81.4143 87.6223 81.4739 87.6192C81.5345 87.6151 81.6034 87.613 81.6805 87.613H81.7591C81.8105 87.613 81.8501 87.6197 81.8778 87.6331C81.9056 87.6464 81.9251 87.6634 81.9364 87.684C81.9487 87.7045 81.9559 87.7261 81.958 87.7487C81.9611 87.7713 81.9626 87.7919 81.9626 87.8104V88.1064C81.9626 88.1218 81.9611 88.1408 81.958 88.1634C81.9559 88.185 81.9487 88.2066 81.9364 88.2282C81.9251 88.2498 81.9056 88.2677 81.8778 88.2821C81.8501 88.2965 81.8105 88.3037 81.7591 88.3037H81.6805C81.5952 88.3037 81.5207 88.3017 81.4569 88.2975C81.3932 88.2924 81.3403 88.2873 81.2982 88.2821L81.2565 88.3037H81.1301ZM81.366 88.1711H81.7005C81.7499 88.1711 81.7745 88.1506 81.7745 88.1095V87.8073C81.7756 87.7847 81.7709 87.7688 81.7607 87.7595C81.7504 87.7503 81.7303 87.7456 81.7005 87.7456H81.6234C81.5577 87.7456 81.4991 87.7472 81.4477 87.7503C81.3973 87.7523 81.3542 87.7549 81.3182 87.758V88.1233C81.3182 88.1449 81.3203 88.1583 81.3244 88.1634C81.3295 88.1686 81.3434 88.1711 81.366 88.1711ZM82.3209 88.3037C82.2695 88.3037 82.2299 88.297 82.2022 88.2837C82.1744 88.2703 82.1544 88.2533 82.142 88.2328C82.1307 88.2122 82.1235 88.1907 82.1205 88.168C82.1184 88.1454 82.1174 88.1249 82.1174 88.1064V87.8104C82.1174 87.795 82.1184 87.7765 82.1205 87.7549C82.1235 87.7323 82.1307 87.7102 82.142 87.6886C82.1544 87.667 82.1744 87.649 82.2022 87.6346C82.231 87.6202 82.2705 87.613 82.3209 87.613H82.6523C82.7202 87.613 82.7731 87.6197 82.8111 87.6331C82.8502 87.6454 82.8774 87.666 82.8928 87.6948C82.9093 87.7235 82.9175 87.7621 82.9175 87.8104V88.0385H82.6477C82.5552 88.0385 82.4797 88.0365 82.4211 88.0324C82.3635 88.0283 82.325 88.0257 82.3055 88.0247V88.1095C82.3044 88.1506 82.3291 88.1711 82.3795 88.1711H82.4581C82.5136 88.1711 82.5675 88.1706 82.62 88.1696C82.6734 88.1675 82.7222 88.1655 82.7664 88.1634C82.8106 88.1603 82.8461 88.1578 82.8728 88.1557L82.9345 88.2559C82.9345 88.2878 82.8332 88.3037 82.6308 88.3037H82.3209ZM82.3055 87.906H82.7294V87.8073C82.7294 87.7867 82.7269 87.7723 82.7217 87.7641C82.7176 87.7559 82.7042 87.7508 82.6816 87.7487C82.659 87.7467 82.6205 87.7456 82.566 87.7456H82.3795C82.3301 87.7456 82.3055 87.7662 82.3055 87.8073V87.906ZM83.2769 88.3037C83.2255 88.3037 83.1859 88.297 83.1582 88.2837C83.1304 88.2703 83.1104 88.2533 83.0981 88.2328C83.0868 88.2122 83.0796 88.1907 83.0765 88.168C83.0744 88.1454 83.0734 88.1249 83.0734 88.1064V87.8104C83.0734 87.795 83.0744 87.7765 83.0765 87.7549C83.0796 87.7323 83.0868 87.7102 83.0981 87.6886C83.1104 87.667 83.1304 87.649 83.1582 87.6346C83.187 87.6202 83.2265 87.613 83.2769 87.613H83.4912C83.6197 87.613 83.7106 87.6166 83.7641 87.6238C83.8185 87.63 83.8458 87.6367 83.8458 87.6439L83.8149 87.761C83.7862 87.759 83.7497 87.7569 83.7055 87.7549C83.6613 87.7518 83.6135 87.7497 83.5621 87.7487C83.5117 87.7467 83.4624 87.7456 83.4141 87.7456H83.3355C83.2861 87.7456 83.2615 87.7662 83.2615 87.8073V88.1095C83.2605 88.1506 83.2851 88.1711 83.3355 88.1711H83.4141C83.4696 88.1711 83.5236 88.1706 83.576 88.1696C83.6294 88.1675 83.6782 88.1655 83.7224 88.1634C83.7666 88.1603 83.8021 88.1578 83.8288 88.1557L83.8905 88.2559C83.8905 88.2878 83.7892 88.3037 83.5868 88.3037H83.2769ZM84.1862 88.3037C84.1174 88.3037 84.066 88.2898 84.0321 88.2621C83.9992 88.2343 83.9827 88.1891 83.9827 88.1264V87.8104C83.9827 87.795 83.9838 87.7765 83.9858 87.7549C83.9889 87.7323 83.9961 87.7102 84.0074 87.6886C84.0197 87.667 84.0398 87.649 84.0675 87.6346C84.0963 87.6202 84.1359 87.613 84.1862 87.613H84.6117C84.6631 87.613 84.7027 87.6202 84.7304 87.6346C84.7582 87.649 84.7777 87.667 84.789 87.6886C84.8014 87.7102 84.8086 87.7323 84.8106 87.7549C84.8137 87.7765 84.8152 87.795 84.8152 87.8104V88.1064C84.8152 88.1249 84.8137 88.1454 84.8106 88.168C84.8086 88.1907 84.8014 88.2122 84.789 88.2328C84.7767 88.2533 84.7567 88.2703 84.7289 88.2837C84.7012 88.297 84.6621 88.3037 84.6117 88.3037H84.1862ZM84.2448 88.1711H84.5532C84.6035 88.1711 84.6287 88.1506 84.6287 88.1095V87.8073C84.6287 87.7662 84.6035 87.7456 84.5532 87.7456H84.2448C84.1955 87.7456 84.1708 87.7662 84.1708 87.8073V88.1095C84.1708 88.1506 84.1955 88.1711 84.2448 88.1711ZM84.9843 88.3037V87.613H85.1107L85.1492 87.6315C85.179 87.6264 85.2155 87.6223 85.2587 87.6192C85.3019 87.6151 85.3533 87.613 85.4129 87.613H85.4899C85.5198 87.613 85.5485 87.6172 85.5763 87.6254C85.604 87.6326 85.6246 87.6434 85.6379 87.6578C85.6647 87.6444 85.7017 87.6336 85.7489 87.6254C85.7962 87.6172 85.8579 87.613 85.9339 87.613H86.011C86.0624 87.613 86.102 87.6202 86.1297 87.6346C86.1575 87.649 86.177 87.667 86.1883 87.6886C86.2007 87.7102 86.2079 87.7323 86.2099 87.7549C86.213 87.7765 86.2145 87.795 86.2145 87.8104V88.3037H86.0264V87.8073C86.0264 87.7662 86.0018 87.7456 85.9524 87.7456H85.7366C85.7202 87.7456 85.7089 87.7477 85.7027 87.7518C85.6965 87.7559 85.6934 87.7652 85.6934 87.7795V88.3037H85.5054V87.8073C85.5054 87.7662 85.4807 87.7456 85.4314 87.7456H85.2186C85.1991 87.7456 85.1862 87.7477 85.1801 87.7518C85.1749 87.7549 85.1724 87.7641 85.1724 87.7795V88.3037H84.9843ZM86.58 88.3037C86.5286 88.3037 86.4891 88.297 86.4613 88.2837C86.4336 88.2703 86.4135 88.2533 86.4012 88.2328C86.3899 88.2122 86.3827 88.1907 86.3796 88.168C86.3776 88.1454 86.3765 88.1249 86.3765 88.1064V87.8104C86.3765 87.795 86.3776 87.7765 86.3796 87.7549C86.3827 87.7323 86.3899 87.7102 86.4012 87.6886C86.4135 87.667 86.4336 87.649 86.4613 87.6346C86.4901 87.6202 86.5297 87.613 86.58 87.613H86.9115C86.9793 87.613 87.0323 87.6197 87.0703 87.6331C87.1093 87.6454 87.1366 87.666 87.152 87.6948C87.1684 87.7235 87.1767 87.7621 87.1767 87.8104V88.0385H86.9069C86.8144 88.0385 86.7388 88.0365 86.6802 88.0324C86.6227 88.0283 86.5841 88.0257 86.5646 88.0247V88.1095C86.5636 88.1506 86.5883 88.1711 86.6386 88.1711H86.7172C86.7727 88.1711 86.8267 88.1706 86.8791 88.1696C86.9326 88.1675 86.9814 88.1655 87.0256 88.1634C87.0698 88.1603 87.1052 88.1578 87.132 88.1557L87.1936 88.2559C87.1936 88.2878 87.0924 88.3037 86.8899 88.3037H86.58ZM86.5646 87.906H86.9886V87.8073C86.9886 87.7867 86.986 87.7723 86.9809 87.7641C86.9768 87.7559 86.9634 87.7508 86.9408 87.7487C86.9182 87.7467 86.8796 87.7456 86.8252 87.7456H86.6386C86.5893 87.7456 86.5646 87.7662 86.5646 87.8073V87.906ZM87.8856 88.3037C87.8075 88.3037 87.7509 88.2857 87.716 88.2498C87.6811 88.2128 87.6636 88.1624 87.6636 88.0987C87.6636 88.0319 87.6816 87.9805 87.7175 87.9445C87.7545 87.9085 87.8106 87.8905 87.8856 87.8905H87.9642C88.0413 87.8905 88.1107 87.8926 88.1723 87.8967C88.234 87.9008 88.2849 87.9049 88.325 87.909V87.8073C88.325 87.798 88.3239 87.7888 88.3219 87.7795C88.3198 87.7693 88.3137 87.761 88.3034 87.7549C88.2931 87.7487 88.2756 87.7456 88.251 87.7456H88.1739C88.0619 87.7456 87.9683 87.7477 87.8933 87.7518C87.8183 87.7549 87.7674 87.758 87.7407 87.761L87.7237 87.6439C87.7237 87.6295 87.7628 87.6208 87.8409 87.6177C87.919 87.6146 88.0495 87.613 88.2325 87.613H88.3095C88.3609 87.613 88.4005 87.6202 88.4283 87.6346C88.456 87.649 88.4755 87.667 88.4868 87.6886C88.4992 87.7102 88.5064 87.7323 88.5084 87.7549C88.5115 87.7765 88.513 87.795 88.513 87.8104V88.3037H88.3866L88.3265 88.2729C88.2833 88.2801 88.2314 88.2873 88.1708 88.2945C88.1102 88.3006 88.0408 88.3037 87.9627 88.3037H87.8856ZM87.9257 88.1711H88.2787C88.3013 88.1711 88.3147 88.1691 88.3188 88.165C88.3229 88.1608 88.325 88.148 88.325 88.1264V88.0077H87.9257C87.8979 88.0077 87.8784 88.0144 87.8671 88.0278C87.8568 88.0411 87.8517 88.0622 87.8517 88.091C87.8517 88.1197 87.8578 88.1403 87.8702 88.1526C87.8825 88.165 87.901 88.1711 87.9257 88.1711ZM67.2107 90.3037V89.7456H67.1152V89.6146H67.2107V89.4774C67.2107 89.4424 67.2174 89.4101 67.2308 89.3803C67.2452 89.3504 67.2683 89.3263 67.3002 89.3078C67.333 89.2893 67.3762 89.28 67.4297 89.28H67.5067C67.6301 89.28 67.7185 89.2857 67.7719 89.297C67.8264 89.3083 67.8536 89.3181 67.8536 89.3263L67.8074 89.4435C67.7899 89.4363 67.7585 89.4296 67.7133 89.4234C67.6681 89.4162 67.6136 89.4126 67.5499 89.4126H67.4728C67.4471 89.4126 67.4281 89.4173 67.4158 89.4265C67.4045 89.4358 67.3988 89.4517 67.3988 89.4743V89.6146H67.7195V89.7456H67.3988V90.3037H67.2107ZM67.8844 90.3037V89.613H68.0108L68.0694 89.6439C68.0961 89.6295 68.1249 89.6182 68.1558 89.61C68.1866 89.6017 68.2256 89.5976 68.2729 89.5976C68.348 89.5976 68.4086 89.6058 68.4548 89.6223C68.5021 89.6387 68.5335 89.6511 68.5489 89.6593L68.4949 89.7934C68.4826 89.7873 68.462 89.7795 68.4333 89.7703C68.4055 89.76 68.3726 89.7508 68.3346 89.7425C68.2966 89.7343 68.2549 89.7302 68.2097 89.7302H68.1928C68.1434 89.7302 68.1111 89.74 68.0956 89.7595C68.0812 89.779 68.0735 89.8114 68.0725 89.8566V90.3037H67.8844ZM68.8448 90.3037C68.776 90.3037 68.7246 90.2898 68.6907 90.2621C68.6578 90.2343 68.6413 90.1891 68.6413 90.1264V89.8104C68.6413 89.795 68.6424 89.7765 68.6444 89.7549C68.6475 89.7323 68.6547 89.7102 68.666 89.6886C68.6783 89.667 68.6984 89.649 68.7261 89.6346C68.7549 89.6202 68.7945 89.613 68.8448 89.613H69.2703C69.3217 89.613 69.3613 89.6202 69.3891 89.6346C69.4168 89.649 69.4363 89.667 69.4476 89.6886C69.46 89.7102 69.4672 89.7323 69.4692 89.7549C69.4723 89.7765 69.4738 89.795 69.4738 89.8104V90.1064C69.4738 90.1249 69.4723 90.1454 69.4692 90.168C69.4672 90.1907 69.46 90.2122 69.4476 90.2328C69.4353 90.2533 69.4153 90.2703 69.3875 90.2837C69.3598 90.297 69.3207 90.3037 69.2703 90.3037H68.8448ZM68.9034 90.1711H69.2118C69.2621 90.1711 69.2873 90.1506 69.2873 90.1095V89.8073C69.2873 89.7662 69.2621 89.7456 69.2118 89.7456H68.9034C68.8541 89.7456 68.8294 89.7662 68.8294 89.8073V90.1095C68.8294 90.1506 68.8541 90.1711 68.9034 90.1711ZM69.6429 90.3037V89.613H69.7693L69.831 89.6439C69.8741 89.6357 69.926 89.6285 69.9867 89.6223C70.0473 89.6161 70.1167 89.613 70.1948 89.613H70.2719C70.3233 89.613 70.3628 89.6202 70.3906 89.6346C70.4183 89.649 70.4379 89.667 70.4492 89.6886C70.4615 89.7102 70.4687 89.7323 70.4708 89.7549C70.4738 89.7765 70.4754 89.795 70.4754 89.8104V90.3037H70.2873V89.8073C70.2873 89.7662 70.2626 89.7456 70.2133 89.7456H69.8772C69.8577 89.7456 69.8448 89.7477 69.8387 89.7518C69.8335 89.7549 69.831 89.7641 69.831 89.7795V90.3037H69.6429ZM70.9214 90.3037C70.8432 90.3037 70.7898 90.2873 70.761 90.2544C70.7322 90.2215 70.7179 90.1722 70.7179 90.1064V89.7456H70.5914V89.613H70.6562C70.6757 89.613 70.6896 89.61 70.6978 89.6038C70.7071 89.5976 70.7137 89.5853 70.7179 89.5668L70.7487 89.4018H70.9059V89.613H71.2266V89.7456H70.9059V90.1079C70.9059 90.1336 70.9121 90.1506 70.9244 90.1588C70.9368 90.167 70.9553 90.1711 70.9799 90.1711H71.1973L71.2127 90.2883C71.1911 90.2914 71.1583 90.295 71.1141 90.2991C71.0699 90.3022 71.0216 90.3037 70.9691 90.3037H70.9214ZM71.5382 90.3037C71.4869 90.3037 71.4473 90.297 71.4195 90.2837C71.3918 90.2703 71.3717 90.2533 71.3594 90.2328C71.3481 90.2122 71.3409 90.1907 71.3378 90.168C71.3358 90.1454 71.3347 90.1249 71.3347 90.1064V89.8104C71.3347 89.795 71.3358 89.7765 71.3378 89.7549C71.3409 89.7323 71.3481 89.7102 71.3594 89.6886C71.3717 89.667 71.3918 89.649 71.4195 89.6346C71.4483 89.6202 71.4879 89.613 71.5382 89.613H71.8697C71.9375 89.613 71.9905 89.6197 72.0285 89.6331C72.0676 89.6454 72.0948 89.666 72.1102 89.6948C72.1267 89.7235 72.1349 89.7621 72.1349 89.8104V90.0385H71.8651C71.7726 90.0385 71.697 90.0365 71.6385 90.0324C71.5809 90.0283 71.5424 90.0257 71.5228 90.0247V90.1095C71.5218 90.1506 71.5465 90.1711 71.5968 90.1711H71.6755C71.731 90.1711 71.7849 90.1706 71.8373 90.1696C71.8908 90.1675 71.9396 90.1655 71.9838 90.1634C72.028 90.1603 72.0634 90.1578 72.0902 90.1557L72.1518 90.2559C72.1518 90.2878 72.0506 90.3037 71.8481 90.3037H71.5382ZM71.5228 89.906H71.9468V89.8073C71.9468 89.7867 71.9442 89.7723 71.9391 89.7641C71.935 89.7559 71.9216 89.7508 71.899 89.7487C71.8764 89.7467 71.8378 89.7456 71.7834 89.7456H71.5968C71.5475 89.7456 71.5228 89.7662 71.5228 89.8073V89.906ZM72.3062 90.3037V89.613H72.4326L72.4943 89.6439C72.5374 89.6357 72.5893 89.6285 72.65 89.6223C72.7106 89.6161 72.78 89.613 72.8581 89.613H72.9352C72.9866 89.613 73.0261 89.6202 73.0539 89.6346C73.0816 89.649 73.1012 89.667 73.1125 89.6886C73.1248 89.7102 73.132 89.7323 73.1341 89.7549C73.1371 89.7765 73.1387 89.795 73.1387 89.8104V90.3037H72.9506V89.8073C72.9506 89.7662 72.9259 89.7456 72.8766 89.7456H72.5405C72.521 89.7456 72.5081 89.7477 72.502 89.7518C72.4968 89.7549 72.4943 89.7641 72.4943 89.7795V90.3037H72.3062ZM73.5045 90.3037C73.4531 90.3037 73.4135 90.297 73.3858 90.2837C73.358 90.2703 73.338 90.2533 73.3256 90.2328C73.3143 90.2122 73.3071 90.1907 73.3041 90.168C73.302 90.1454 73.301 90.1249 73.301 90.1064V89.8104C73.301 89.795 73.302 89.7765 73.3041 89.7549C73.3071 89.7323 73.3143 89.7102 73.3256 89.6886C73.338 89.667 73.358 89.649 73.3858 89.6346C73.4145 89.6202 73.4541 89.613 73.5045 89.613H73.5831C73.6777 89.613 73.7537 89.6151 73.8113 89.6192C73.8699 89.6223 73.9146 89.6259 73.9454 89.63V89.3263H74.1335V90.3037H74.0071L73.9469 90.2729C73.9038 90.2801 73.8519 90.2873 73.7912 90.2945C73.7306 90.3006 73.6607 90.3037 73.5816 90.3037H73.5045ZM73.5631 90.1711H73.8976C73.9192 90.1711 73.9325 90.1686 73.9377 90.1634C73.9428 90.1583 73.9454 90.1454 73.9454 90.1249V89.7564C73.9104 89.7544 73.8663 89.7523 73.8128 89.7503C73.7594 89.7472 73.7023 89.7456 73.6417 89.7456H73.5631C73.5137 89.7456 73.4891 89.7662 73.4891 89.8073V90.1095C73.4891 90.1506 73.5137 90.1711 73.5631 90.1711ZM74.861 90.3037C74.8096 90.3037 74.77 90.297 74.7423 90.2837C74.7145 90.2703 74.6945 90.2533 74.6821 90.2328C74.6708 90.2122 74.6636 90.1907 74.6605 90.168C74.6585 90.1454 74.6575 90.1249 74.6575 90.1064V89.8104C74.6575 89.795 74.6585 89.7765 74.6605 89.7549C74.6636 89.7323 74.6708 89.7102 74.6821 89.6886C74.6945 89.667 74.7145 89.649 74.7423 89.6346C74.771 89.6202 74.8106 89.613 74.861 89.613H75.1924C75.2603 89.613 75.3132 89.6197 75.3512 89.6331C75.3903 89.6454 75.4175 89.666 75.4329 89.6948C75.4494 89.7235 75.4576 89.7621 75.4576 89.8104V90.0385H75.1878C75.0953 90.0385 75.0198 90.0365 74.9612 90.0324C74.9036 90.0283 74.8651 90.0257 74.8455 90.0247V90.1095C74.8445 90.1506 74.8692 90.1711 74.9195 90.1711H74.9982C75.0537 90.1711 75.1076 90.1706 75.16 90.1696C75.2135 90.1675 75.2623 90.1655 75.3065 90.1634C75.3507 90.1603 75.3862 90.1578 75.4129 90.1557L75.4745 90.2559C75.4745 90.2878 75.3733 90.3037 75.1708 90.3037H74.861ZM74.8455 89.906H75.2695V89.8073C75.2695 89.7867 75.2669 89.7723 75.2618 89.7641C75.2577 89.7559 75.2443 89.7508 75.2217 89.7487C75.1991 89.7467 75.1606 89.7456 75.1061 89.7456H74.9195C74.8702 89.7456 74.8455 89.7662 74.8455 89.8073V89.906ZM75.6289 90.3037V89.613H75.7553L75.817 89.6439C75.8601 89.6357 75.912 89.6285 75.9727 89.6223C76.0333 89.6161 76.1027 89.613 76.1808 89.613H76.2579C76.3093 89.613 76.3489 89.6202 76.3766 89.6346C76.4044 89.649 76.4239 89.667 76.4352 89.6886C76.4475 89.7102 76.4547 89.7323 76.4568 89.7549C76.4599 89.7765 76.4614 89.795 76.4614 89.8104V90.3037H76.2733V89.8073C76.2733 89.7662 76.2486 89.7456 76.1993 89.7456H75.8632C75.8437 89.7456 75.8309 89.7477 75.8247 89.7518C75.8195 89.7549 75.817 89.7641 75.817 89.7795V90.3037H75.6289ZM77.1463 90.575C77.0333 90.575 76.9413 90.574 76.8704 90.572C76.7994 90.5699 76.745 90.5668 76.7069 90.5627C76.6689 90.5586 76.6427 90.5535 76.6283 90.5473C76.615 90.5411 76.6083 90.5344 76.6083 90.5273L76.6545 90.4116C76.671 90.4168 76.6997 90.4229 76.7409 90.4301C76.783 90.4383 76.8364 90.4425 76.9012 90.4425H77.1648C77.2028 90.4425 77.2296 90.4368 77.245 90.4255C77.2614 90.4142 77.2696 90.3942 77.2696 90.3654V90.2729C77.2255 90.2811 77.173 90.2883 77.1124 90.2945C77.0528 90.3006 76.9839 90.3037 76.9058 90.3037H76.8287C76.7773 90.3037 76.7378 90.297 76.71 90.2837C76.6823 90.2703 76.6622 90.2533 76.6499 90.2328C76.6386 90.2122 76.6314 90.1907 76.6283 90.168C76.6263 90.1454 76.6252 90.1249 76.6252 90.1064V89.8104C76.6252 89.795 76.6263 89.7765 76.6283 89.7549C76.6314 89.7323 76.6386 89.7102 76.6499 89.6886C76.6622 89.667 76.6823 89.649 76.71 89.6346C76.7388 89.6202 76.7784 89.613 76.8287 89.613H76.9074C77.0153 89.613 77.099 89.6151 77.1586 89.6192C77.2193 89.6233 77.2635 89.6279 77.2912 89.6331L77.3313 89.613H77.4577V90.3777C77.4577 90.3962 77.4546 90.4168 77.4485 90.4394C77.4433 90.462 77.4326 90.4836 77.4161 90.5041C77.3997 90.5247 77.376 90.5416 77.3452 90.555C77.3144 90.5684 77.2738 90.575 77.2234 90.575H77.1463ZM76.8873 90.1711H77.2219C77.2455 90.1711 77.2594 90.1691 77.2635 90.165C77.2676 90.1608 77.2696 90.1475 77.2696 90.1249V89.7564C77.2347 89.7544 77.1905 89.7523 77.1371 89.7503C77.0836 89.7472 77.0266 89.7456 76.9659 89.7456H76.8873C76.838 89.7456 76.8133 89.7662 76.8133 89.8073V90.1095C76.8123 90.1506 76.837 90.1711 76.8873 90.1711ZM77.7528 89.5159C77.7147 89.5159 77.687 89.5082 77.6695 89.4928C77.652 89.4774 77.6433 89.4517 77.6433 89.4157C77.6433 89.3787 77.6515 89.353 77.668 89.3386C77.6854 89.3232 77.7137 89.3155 77.7528 89.3155C77.7918 89.3155 77.8201 89.3232 77.8375 89.3386C77.855 89.353 77.8638 89.3787 77.8638 89.4157C77.8638 89.4507 77.855 89.4763 77.8375 89.4928C77.8201 89.5082 77.7918 89.5159 77.7528 89.5159ZM77.6587 90.3037V89.613H77.8468V90.3037H77.6587ZM78.0483 90.3037V89.613H78.1747L78.2364 89.6439C78.2795 89.6357 78.3314 89.6285 78.3921 89.6223C78.4527 89.6161 78.5221 89.613 78.6002 89.613H78.6773C78.7287 89.613 78.7682 89.6202 78.796 89.6346C78.8237 89.649 78.8433 89.667 78.8546 89.6886C78.8669 89.7102 78.8741 89.7323 78.8762 89.7549C78.8792 89.7765 78.8808 89.795 78.8808 89.8104V90.3037H78.6927V89.8073C78.6927 89.7662 78.668 89.7456 78.6187 89.7456H78.2826C78.2631 89.7456 78.2502 89.7477 78.2441 89.7518C78.2389 89.7549 78.2364 89.7641 78.2364 89.7795V90.3037H78.0483ZM79.2466 90.3037C79.1952 90.3037 79.1556 90.297 79.1279 90.2837C79.1001 90.2703 79.0801 90.2533 79.0677 90.2328C79.0564 90.2122 79.0492 90.1907 79.0462 90.168C79.0441 90.1454 79.0431 90.1249 79.0431 90.1064V89.8104C79.0431 89.795 79.0441 89.7765 79.0462 89.7549C79.0492 89.7323 79.0564 89.7102 79.0677 89.6886C79.0801 89.667 79.1001 89.649 79.1279 89.6346C79.1567 89.6202 79.1962 89.613 79.2466 89.613H79.578C79.6459 89.613 79.6988 89.6197 79.7368 89.6331C79.7759 89.6454 79.8031 89.666 79.8185 89.6948C79.835 89.7235 79.8432 89.7621 79.8432 89.8104V90.0385H79.5734C79.4809 90.0385 79.4054 90.0365 79.3468 90.0324C79.2892 90.0283 79.2507 90.0257 79.2312 90.0247V90.1095C79.2301 90.1506 79.2548 90.1711 79.3052 90.1711H79.3838C79.4393 90.1711 79.4932 90.1706 79.5457 90.1696C79.5991 90.1675 79.6479 90.1655 79.6921 90.1634C79.7363 90.1603 79.7718 90.1578 79.7985 90.1557L79.8602 90.2559C79.8602 90.2878 79.7589 90.3037 79.5565 90.3037H79.2466ZM79.2312 89.906H79.6551V89.8073C79.6551 89.7867 79.6526 89.7723 79.6474 89.7641C79.6433 89.7559 79.6299 89.7508 79.6073 89.7487C79.5847 89.7467 79.5462 89.7456 79.4917 89.7456H79.3052C79.2558 89.7456 79.2312 89.7662 79.2312 89.8073V89.906ZM80.2026 90.3037C80.1512 90.3037 80.1116 90.297 80.0839 90.2837C80.0561 90.2703 80.0361 90.2533 80.0238 90.2328C80.0125 90.2122 80.0053 90.1907 80.0022 90.168C80.0001 90.1454 79.9991 90.1249 79.9991 90.1064V89.8104C79.9991 89.795 80.0001 89.7765 80.0022 89.7549C80.0053 89.7323 80.0125 89.7102 80.0238 89.6886C80.0361 89.667 80.0561 89.649 80.0839 89.6346C80.1127 89.6202 80.1522 89.613 80.2026 89.613H80.5341C80.6019 89.613 80.6548 89.6197 80.6928 89.6331C80.7319 89.6454 80.7591 89.666 80.7746 89.6948C80.791 89.7235 80.7992 89.7621 80.7992 89.8104V90.0385H80.5294C80.4369 90.0385 80.3614 90.0365 80.3028 90.0324C80.2452 90.0283 80.2067 90.0257 80.1872 90.0247V90.1095C80.1862 90.1506 80.2108 90.1711 80.2612 90.1711H80.3398C80.3953 90.1711 80.4493 90.1706 80.5017 90.1696C80.5551 90.1675 80.6039 90.1655 80.6481 90.1634C80.6923 90.1603 80.7278 90.1578 80.7545 90.1557L80.8162 90.2559C80.8162 90.2878 80.7149 90.3037 80.5125 90.3037H80.2026ZM80.1872 89.906H80.6111V89.8073C80.6111 89.7867 80.6086 89.7723 80.6034 89.7641C80.5993 89.7559 80.586 89.7508 80.5633 89.7487C80.5407 89.7467 80.5022 89.7456 80.4477 89.7456H80.2612C80.2118 89.7456 80.1872 89.7662 80.1872 89.8073V89.906ZM80.9705 90.3037V89.613H81.0969L81.1555 89.6439C81.1822 89.6295 81.211 89.6182 81.2419 89.61C81.2727 89.6017 81.3117 89.5976 81.359 89.5976C81.4341 89.5976 81.4947 89.6058 81.5409 89.6223C81.5882 89.6387 81.6196 89.6511 81.635 89.6593L81.581 89.7934C81.5687 89.7873 81.5481 89.7795 81.5194 89.7703C81.4916 89.76 81.4587 89.7508 81.4207 89.7425C81.3827 89.7343 81.341 89.7302 81.2958 89.7302H81.2789C81.2295 89.7302 81.1972 89.74 81.1817 89.7595C81.1673 89.779 81.1596 89.8114 81.1586 89.8566V90.3037H80.9705ZM81.7913 90.3037C81.7533 90.3037 81.7255 90.296 81.7081 90.2806C81.6906 90.2652 81.6819 90.2395 81.6819 90.2035C81.6819 90.1665 81.6901 90.1408 81.7065 90.1264C81.724 90.111 81.7523 90.1033 81.7913 90.1033C81.8304 90.1033 81.8586 90.111 81.8761 90.1264C81.8936 90.1408 81.9023 90.1665 81.9023 90.2035C81.9023 90.2384 81.8936 90.2641 81.8761 90.2806C81.8586 90.296 81.8304 90.3037 81.7913 90.3037Z" fill="white"/>
<defs>
<radialGradient id="paint0_diamond_272_1199" cx="0" cy="0" r="1" gradientUnits="userSpaceOnUse" gradientTransform="translate(88.5771 31.8847) rotate(132.974) scale(69.741 92.0581)">
<stop stop-color="#BFBEBE"/>
<stop offset="1" stop-color="#2D2D2D"/>
</radialGradient>
<radialGradient id="paint1_diamond_272_1199" cx="0" cy="0" r="1" gradientUnits="userSpaceOnUse" gradientTransform="translate(146.244 74.4879) rotate(180) scale(72.4879 95.6841)">
<stop stop-color="#BFBEBE"/>
<stop offset="0.51" stop-color="#363636"/>
</radialGradient>
<linearGradient id="paint2_linear_272_1199" x1="74.1218" y1="2" x2="74.1218" y2="146.244" gradientUnits="userSpaceOnUse">
<stop offset="0.235"/>
<stop offset="0.499748" stop-color="white"/>
<stop offset="0.87"/>
</linearGradient>
<radialGradient id="paint3_diamond_272_1199" cx="0" cy="0" r="1" gradientUnits="userSpaceOnUse" gradientTransform="translate(87.6736 34.5248) rotate(132.974) scale(65.3821 86.3045)">
<stop stop-color="#BFBEBE"/>
<stop offset="1" stop-color="#2D2D2D"/>
</radialGradient>
<radialGradient id="paint4_diamond_272_1199" cx="0" cy="0" r="1" gradientUnits="userSpaceOnUse" gradientTransform="translate(141.736 74.4652) rotate(180) scale(67.9574 89.7038)">
<stop stop-color="#BFBEBE"/>
<stop offset="0.51" stop-color="#363636"/>
</radialGradient>
<linearGradient id="paint5_linear_272_1199" x1="74.1218" y1="6.50781" x2="74.1218" y2="141.736" gradientUnits="userSpaceOnUse">
<stop offset="0.235"/>
<stop offset="0.499748" stop-color="white"/>
<stop offset="0.87"/>
</linearGradient>
<radialGradient id="paint6_diamond_272_1199" cx="0" cy="0" r="1" gradientUnits="userSpaceOnUse" gradientTransform="translate(86.6197 37.6044) rotate(132.974) scale(60.2969 79.5919)">
<stop stop-color="#BFBEBE"/>
<stop offset="1" stop-color="#2D2D2D"/>
</radialGradient>
<radialGradient id="paint7_diamond_272_1199" cx="0" cy="0" r="1" gradientUnits="userSpaceOnUse" gradientTransform="translate(136.477 74.4384) rotate(180) scale(62.6719 82.7269)">
<stop stop-color="#BFBEBE"/>
<stop offset="0.51" stop-color="#363636"/>
</radialGradient>
<linearGradient id="paint8_linear_272_1199" x1="74.1219" y1="11.7666" x2="74.1219" y2="136.477" gradientUnits="userSpaceOnUse">
<stop offset="0.235"/>
<stop offset="0.499748" stop-color="white"/>
<stop offset="0.87"/>
</linearGradient>
<radialGradient id="paint9_diamond_272_1199" cx="0" cy="0" r="1" gradientUnits="userSpaceOnUse" gradientTransform="translate(17.0254 74.4117) scale(56.8066 74.9848)">
<stop stop-color="#BFBEBE"/>
<stop offset="1"/>
</radialGradient>
<radialGradient id="paint10_diamond_272_1199" cx="0" cy="0" r="1" gradientUnits="userSpaceOnUse" gradientTransform="translate(131.218 74.4117) rotate(180) scale(57.3863 75.7499)">
<stop stop-color="#BFBEBE"/>
<stop offset="1"/>
</radialGradient>
<linearGradient id="paint11_linear_272_1199" x1="91.1508" y1="17.0254" x2="57.0929" y2="131.218" gradientUnits="userSpaceOnUse">
<stop offset="0.199226" stop-color="#7A7A7A"/>
<stop offset="0.499748" stop-color="white" stop-opacity="0.66"/>
<stop offset="0.8019" stop-color="#7A7A7A"/>
</linearGradient>
<radialGradient id="paint12_diamond_272_1199" cx="0" cy="0" r="1" gradientUnits="userSpaceOnUse" gradientTransform="translate(21.533 74.3885) scale(52.3219 69.0649)">
<stop stop-color="#BFBEBE"/>
<stop offset="1"/>
</radialGradient>
<radialGradient id="paint13_diamond_272_1199" cx="0" cy="0" r="1" gradientUnits="userSpaceOnUse" gradientTransform="translate(126.711 74.3885) rotate(180) scale(52.8558 69.7696)">
<stop stop-color="#BFBEBE"/>
<stop offset="1"/>
</radialGradient>
<linearGradient id="paint14_linear_272_1199" x1="84.4418" y1="21.5327" x2="63.8018" y2="126.71" gradientUnits="userSpaceOnUse">
<stop offset="0.199226" stop-color="#7A7A7A"/>
<stop offset="0.499748" stop-color="white" stop-opacity="0.66"/>
<stop offset="0.8019" stop-color="#7A7A7A"/>
</linearGradient>
<radialGradient id="paint15_diamond_272_1199" cx="0" cy="0" r="1" gradientUnits="userSpaceOnUse" gradientTransform="translate(25.2893 74.3699) scale(48.5846 64.1317)">
<stop stop-color="#BFBEBE"/>
<stop offset="1"/>
</radialGradient>
<radialGradient id="paint16_diamond_272_1199" cx="0" cy="0" r="1" gradientUnits="userSpaceOnUse" gradientTransform="translate(122.954 74.3699) rotate(180) scale(49.0804 64.7861)">
<stop stop-color="#BFBEBE"/>
<stop offset="1"/>
</radialGradient>
<linearGradient id="paint17_linear_272_1199" x1="62.5777" y1="25.2896" x2="85.6659" y2="122.955" gradientUnits="userSpaceOnUse">
<stop offset="0.199226" stop-color="#7A7A7A"/>
<stop offset="0.499748" stop-color="white" stop-opacity="0.66"/>
<stop offset="0.8019" stop-color="#7A7A7A"/>
</linearGradient>
<radialGradient id="paint18_diamond_272_1199" cx="0" cy="0" r="1" gradientUnits="userSpaceOnUse" gradientTransform="translate(29.7971 74.3467) scale(44.0999 58.2118)">
<stop stop-color="#BFBEBE"/>
<stop offset="1"/>
</radialGradient>
<radialGradient id="paint19_diamond_272_1199" cx="0" cy="0" r="1" gradientUnits="userSpaceOnUse" gradientTransform="translate(118.447 74.3467) rotate(180) scale(44.5499 58.8058)">
<stop stop-color="#BFBEBE"/>
<stop offset="1"/>
</radialGradient>
<linearGradient id="paint20_linear_272_1199" x1="82.1018" y1="29.7969" x2="66.1422" y2="118.447" gradientUnits="userSpaceOnUse">
<stop offset="0.199226" stop-color="#7A7A7A"/>
<stop offset="0.499748" stop-color="white" stop-opacity="0.66"/>
<stop offset="0.8019" stop-color="#7A7A7A"/>
</linearGradient>
<radialGradient id="paint21_diamond_272_1199" cx="0" cy="0" r="1" gradientUnits="userSpaceOnUse" gradientTransform="translate(33.5532 74.3277) scale(40.3626 53.2786)">
<stop stop-color="#BFBEBE"/>
<stop offset="1"/>
</radialGradient>
<radialGradient id="paint22_diamond_272_1199" cx="0" cy="0" r="1" gradientUnits="userSpaceOnUse" gradientTransform="translate(114.69 74.3277) rotate(180) scale(40.7745 53.8223)">
<stop stop-color="#BFBEBE"/>
<stop offset="1"/>
</radialGradient>
<linearGradient id="paint23_linear_272_1199" x1="68.0721" y1="33.5532" x2="80.1715" y2="114.69" gradientUnits="userSpaceOnUse">
<stop offset="0.199226" stop-color="#7A7A7A"/>
<stop offset="0.499748" stop-color="white" stop-opacity="0.66"/>
<stop offset="0.8019" stop-color="#7A7A7A"/>
</linearGradient>
<radialGradient id="paint24_diamond_272_1199" cx="0" cy="0" r="1" gradientUnits="userSpaceOnUse" gradientTransform="translate(38.061 74.305) scale(35.8779 47.3588)">
<stop stop-color="#BFBEBE"/>
<stop offset="1"/>
</radialGradient>
<radialGradient id="paint25_diamond_272_1199" cx="0" cy="0" r="1" gradientUnits="userSpaceOnUse" gradientTransform="translate(110.183 74.305) rotate(180) scale(36.244 47.842)">
<stop stop-color="#BFBEBE"/>
<stop offset="1" stop-color="#1B1B1B"/>
</radialGradient>
<linearGradient id="paint26_linear_272_1199" x1="78.8023" y1="38.061" x2="69.4416" y2="110.183" gradientUnits="userSpaceOnUse">
<stop offset="0.199226" stop-color="#7A7A7A"/>
<stop offset="0.499748" stop-color="white" stop-opacity="0.66"/>
<stop offset="0.8019" stop-color="#7A7A7A"/>
</linearGradient>
<radialGradient id="paint27_diamond_272_1199" cx="0" cy="0" r="1" gradientUnits="userSpaceOnUse" gradientTransform="translate(80.5967 55.2033) rotate(132.974) scale(31.2381 41.2343)">
<stop stop-color="#BFBEBE"/>
<stop offset="1" stop-color="#2D2D2D"/>
</radialGradient>
<radialGradient id="paint28_diamond_272_1199" cx="0" cy="0" r="1" gradientUnits="userSpaceOnUse" gradientTransform="translate(106.427 74.2859) rotate(180) scale(32.4685 42.8585)">
<stop stop-color="#BFBEBE"/>
<stop offset="0.51" stop-color="#363636"/>
</radialGradient>
<linearGradient id="paint29_linear_272_1199" x1="74.1219" y1="41.8174" x2="74.1219" y2="106.427" gradientUnits="userSpaceOnUse">
<stop offset="0.235"/>
<stop offset="0.499748" stop-color="white"/>
<stop offset="0.87"/>
</linearGradient>
<radialGradient id="paint30_diamond_272_1199" cx="0" cy="0" r="1" gradientUnits="userSpaceOnUse" gradientTransform="translate(79.8436 57.4031) rotate(132.974) scale(27.6058 36.4397)">
<stop stop-color="#BFBEBE"/>
<stop offset="1" stop-color="#2D2D2D"/>
</radialGradient>
<radialGradient id="paint31_diamond_272_1199" cx="0" cy="0" r="1" gradientUnits="userSpaceOnUse" gradientTransform="translate(102.67 74.2669) rotate(180) scale(28.6931 37.8749)">
<stop stop-color="#BFBEBE"/>
<stop offset="0.51" stop-color="#363636"/>
</radialGradient>
<linearGradient id="paint32_linear_272_1199" x1="74.1217" y1="45.5737" x2="74.1217" y2="102.67" gradientUnits="userSpaceOnUse">
<stop offset="0.235"/>
<stop offset="0.499748" stop-color="white"/>
<stop offset="0.87"/>
</linearGradient>
</defs>
</svg>
