<svg width="148" height="148" viewBox="0 0 148 148" fill="none" xmlns="http://www.w3.org/2000/svg">
<circle cx="74.1218" cy="74.1218" r="71.9575" stroke="url(#paint0_diamond_277_1117)" stroke-opacity="0.5" stroke-width="0.328645"/>
<circle cx="74.1218" cy="74.1218" r="71.9575" stroke="url(#paint1_diamond_277_1117)" stroke-opacity="0.5" stroke-width="0.328645"/>
<circle cx="74.1218" cy="74.1218" r="71.9575" stroke="url(#paint2_linear_277_1117)" stroke-opacity="0.37" stroke-width="0.328645"/>
<circle cx="74.122" cy="74.1215" r="67.4499" stroke="url(#paint3_diamond_277_1117)" stroke-opacity="0.5" stroke-width="0.328645"/>
<circle cx="74.122" cy="74.1215" r="67.4499" stroke="url(#paint4_diamond_277_1117)" stroke-opacity="0.5" stroke-width="0.328645"/>
<circle cx="74.122" cy="74.1215" r="67.4499" stroke="url(#paint5_linear_277_1117)" stroke-opacity="0.37" stroke-width="0.328645"/>
<path d="M136.313 74.1219C136.313 108.469 108.469 136.313 74.1219 136.313C39.7748 136.313 11.9309 108.469 11.9309 74.1219C11.9309 39.7748 39.7748 11.9309 74.1219 11.9309C108.469 11.9309 136.313 39.7748 136.313 74.1219Z" stroke="url(#paint6_diamond_277_1117)" stroke-opacity="0.5" stroke-width="0.328645"/>
<path d="M136.313 74.1219C136.313 108.469 108.469 136.313 74.1219 136.313C39.7748 136.313 11.9309 108.469 11.9309 74.1219C11.9309 39.7748 39.7748 11.9309 74.1219 11.9309C108.469 11.9309 136.313 39.7748 136.313 74.1219Z" stroke="url(#paint7_diamond_277_1117)" stroke-opacity="0.5" stroke-width="0.328645"/>
<path d="M136.313 74.1219C136.313 108.469 108.469 136.313 74.1219 136.313C39.7748 136.313 11.9309 108.469 11.9309 74.1219C11.9309 39.7748 39.7748 11.9309 74.1219 11.9309C108.469 11.9309 136.313 39.7748 136.313 74.1219Z" stroke="url(#paint8_linear_277_1117)" stroke-opacity="0.37" stroke-width="0.328645"/>
<circle cx="74.1218" cy="74.1218" r="56.9321" stroke="url(#paint9_diamond_277_1117)" stroke-opacity="0.5" stroke-width="0.328645"/>
<circle cx="74.1218" cy="74.1218" r="56.9321" stroke="url(#paint10_diamond_277_1117)" stroke-opacity="0.5" stroke-width="0.328645"/>
<circle cx="74.1218" cy="74.1218" r="56.9321" stroke="url(#paint11_linear_277_1117)" stroke-opacity="0.37" stroke-width="0.328645"/>
<circle cx="74.1218" cy="74.1216" r="52.4245" stroke="url(#paint12_diamond_277_1117)" stroke-opacity="0.5" stroke-width="0.328645"/>
<circle cx="74.1218" cy="74.1216" r="52.4245" stroke="url(#paint13_diamond_277_1117)" stroke-opacity="0.5" stroke-width="0.328645"/>
<circle cx="74.1218" cy="74.1216" r="52.4245" stroke="url(#paint14_linear_277_1117)" stroke-opacity="0.37" stroke-width="0.328645"/>
<circle cx="74.122" cy="74.1216" r="48.6682" stroke="url(#paint15_diamond_277_1117)" stroke-opacity="0.5" stroke-width="0.328645"/>
<circle cx="74.122" cy="74.1216" r="48.6682" stroke="url(#paint16_diamond_277_1117)" stroke-opacity="0.5" stroke-width="0.328645"/>
<circle cx="74.122" cy="74.1216" r="48.6682" stroke="url(#paint17_linear_277_1117)" stroke-opacity="0.37" stroke-width="0.328645"/>
<path d="M118.283 74.1217C118.283 98.5109 98.5112 118.282 74.122 118.282C49.7328 118.282 29.9614 98.5109 29.9614 74.1217C29.9614 49.7325 49.7328 29.9612 74.122 29.9612C98.5112 29.9612 118.283 49.7325 118.283 74.1217Z" stroke="url(#paint18_diamond_277_1117)" stroke-opacity="0.5" stroke-width="0.328645"/>
<path d="M118.283 74.1217C118.283 98.5109 98.5112 118.282 74.122 118.282C49.7328 118.282 29.9614 98.5109 29.9614 74.1217C29.9614 49.7325 49.7328 29.9612 74.122 29.9612C98.5112 29.9612 118.283 49.7325 118.283 74.1217Z" stroke="url(#paint19_diamond_277_1117)" stroke-opacity="0.5" stroke-width="0.328645"/>
<path d="M118.283 74.1217C118.283 98.5109 98.5112 118.282 74.122 118.282C49.7328 118.282 29.9614 98.5109 29.9614 74.1217C29.9614 49.7325 49.7328 29.9612 74.122 29.9612C98.5112 29.9612 118.283 49.7325 118.283 74.1217Z" stroke="url(#paint20_linear_277_1117)" stroke-opacity="0.37" stroke-width="0.328645"/>
<path d="M114.526 74.1217C114.526 96.4364 96.4366 114.526 74.122 114.526C51.8074 114.526 33.7178 96.4364 33.7178 74.1217C33.7178 51.8071 51.8074 33.7175 74.122 33.7175C96.4366 33.7175 114.526 51.8071 114.526 74.1217Z" stroke="url(#paint21_diamond_277_1117)" stroke-opacity="0.5" stroke-width="0.328645"/>
<path d="M114.526 74.1217C114.526 96.4364 96.4366 114.526 74.122 114.526C51.8074 114.526 33.7178 96.4364 33.7178 74.1217C33.7178 51.8071 51.8074 33.7175 74.122 33.7175C96.4366 33.7175 114.526 51.8071 114.526 74.1217Z" stroke="url(#paint22_diamond_277_1117)" stroke-opacity="0.5" stroke-width="0.328645"/>
<path d="M114.526 74.1217C114.526 96.4364 96.4366 114.526 74.122 114.526C51.8074 114.526 33.7178 96.4364 33.7178 74.1217C33.7178 51.8071 51.8074 33.7175 74.122 33.7175C96.4366 33.7175 114.526 51.8071 114.526 74.1217Z" stroke="url(#paint23_linear_277_1117)" stroke-opacity="0.37" stroke-width="0.328645"/>
<circle cx="74.122" cy="74.122" r="35.8966" stroke="url(#paint24_diamond_277_1117)" stroke-opacity="0.5" stroke-width="0.328645"/>
<circle cx="74.122" cy="74.122" r="35.8966" stroke="url(#paint25_diamond_277_1117)" stroke-opacity="0.5" stroke-width="0.328645"/>
<circle cx="74.122" cy="74.122" r="35.8966" stroke="url(#paint26_linear_277_1117)" stroke-opacity="0.37" stroke-width="0.328645"/>
<path d="M106.262 74.122C106.262 91.8725 91.8725 106.262 74.122 106.262C56.3714 106.262 41.9817 91.8725 41.9817 74.122C41.9817 56.3714 56.3714 41.9817 74.122 41.9817C91.8725 41.9817 106.262 56.3714 106.262 74.122Z" stroke="url(#paint27_diamond_277_1117)" stroke-opacity="0.5" stroke-width="0.328645"/>
<path d="M106.262 74.122C106.262 91.8725 91.8725 106.262 74.122 106.262C56.3714 106.262 41.9817 91.8725 41.9817 74.122C41.9817 56.3714 56.3714 41.9817 74.122 41.9817C91.8725 41.9817 106.262 56.3714 106.262 74.122Z" stroke="url(#paint28_diamond_277_1117)" stroke-opacity="0.5" stroke-width="0.328645"/>
<path d="M106.262 74.122C106.262 91.8725 91.8725 106.262 74.122 106.262C56.3714 106.262 41.9817 91.8725 41.9817 74.122C41.9817 56.3714 56.3714 41.9817 74.122 41.9817C91.8725 41.9817 106.262 56.3714 106.262 74.122Z" stroke="url(#paint29_linear_277_1117)" stroke-opacity="0.37" stroke-width="0.328645"/>
<path d="M102.506 74.1215C102.506 89.7975 89.798 102.505 74.122 102.505C58.446 102.505 45.7381 89.7975 45.7381 74.1215C45.7381 58.4455 58.446 45.7376 74.122 45.7376C89.798 45.7376 102.506 58.4455 102.506 74.1215Z" stroke="url(#paint30_diamond_277_1117)" stroke-opacity="0.5" stroke-width="0.328645"/>
<path d="M102.506 74.1215C102.506 89.7975 89.798 102.505 74.122 102.505C58.446 102.505 45.7381 89.7975 45.7381 74.1215C45.7381 58.4455 58.446 45.7376 74.122 45.7376C89.798 45.7376 102.506 58.4455 102.506 74.1215Z" stroke="url(#paint31_diamond_277_1117)" stroke-opacity="0.5" stroke-width="0.328645"/>
<path d="M102.506 74.1215C102.506 89.7975 89.798 102.505 74.122 102.505C58.446 102.505 45.7381 89.7975 45.7381 74.1215C45.7381 58.4455 58.446 45.7376 74.122 45.7376C89.798 45.7376 102.506 58.4455 102.506 74.1215Z" stroke="url(#paint32_linear_277_1117)" stroke-opacity="0.37" stroke-width="0.328645"/>
<path fill-rule="evenodd" clip-rule="evenodd" d="M74.519 97.4047C87.5888 97.4047 98.1839 86.8095 98.1839 73.7397C98.1839 60.6699 87.5888 50.0747 74.519 50.0747C61.4492 50.0747 50.854 60.6699 50.854 73.7397C50.854 86.8095 61.4492 97.4047 74.519 97.4047ZM74.519 75.9354C75.7316 75.9354 76.7147 74.9523 76.7147 73.7397C76.7147 72.527 75.7316 71.544 74.519 71.544C73.3063 71.544 72.3233 72.527 72.3233 73.7397C72.3233 74.9523 73.3063 75.9354 74.519 75.9354Z" fill="#DD5746"/>
<circle cx="74.5166" cy="73.7371" r="9.07161" stroke="white" stroke-width="0.0770833"/>
<path d="M60.5517 61.5537V59.922H60.918V60.5991H62.0058V59.922H62.3721V61.5537H62.0058V60.8655H60.918V61.5537H60.5517ZM63.1003 61.5537C63.0078 61.5537 62.9366 61.5417 62.8866 61.5176C62.8367 61.4936 62.8006 61.4631 62.7784 61.4261C62.758 61.3891 62.7451 61.3502 62.7395 61.3095C62.7358 61.2688 62.734 61.2318 62.734 61.1985V60.6657C62.734 60.638 62.7358 60.6047 62.7395 60.5658C62.7451 60.5251 62.758 60.4853 62.7784 60.4465C62.8006 60.4076 62.8367 60.3753 62.8866 60.3494C62.9384 60.3235 63.0096 60.3105 63.1003 60.3105H63.6969C63.819 60.3105 63.9143 60.3225 63.9827 60.3466C64.053 60.3688 64.1021 60.4058 64.1298 60.4576C64.1594 60.5094 64.1742 60.5788 64.1742 60.6657V61.0764H63.6886C63.5221 61.0764 63.3861 61.0727 63.2807 61.0653C63.1771 61.0579 63.1077 61.0533 63.0725 61.0514V61.2041C63.0707 61.2781 63.1151 61.3151 63.2057 61.3151H63.3473C63.4472 61.3151 63.5443 61.3141 63.6386 61.3123C63.7348 61.3086 63.8227 61.3049 63.9023 61.3012C63.9818 61.2956 64.0456 61.291 64.0937 61.2873L64.2047 61.4677C64.2047 61.525 64.0225 61.5537 63.6581 61.5537H63.1003ZM63.0725 60.8378H63.8357V60.6602C63.8357 60.6232 63.831 60.5973 63.8218 60.5825C63.8144 60.5677 63.7903 60.5584 63.7496 60.5547C63.7089 60.551 63.6396 60.5492 63.5415 60.5492H63.2057C63.1169 60.5492 63.0725 60.5862 63.0725 60.6602V60.8378ZM64.5103 61.5537V60.0164L64.4826 59.7944H64.8489V61.5537H64.5103ZM65.2095 61.5537V60.0164L65.1817 59.7944H65.548V61.5537H65.2095ZM66.2195 61.5537C66.0955 61.5537 66.003 61.5287 65.942 61.4788C65.8828 61.4288 65.8532 61.3474 65.8532 61.2346V60.6657C65.8532 60.638 65.855 60.6047 65.8587 60.5658C65.8643 60.5251 65.8772 60.4853 65.8976 60.4465C65.9198 60.4076 65.9558 60.3753 66.0058 60.3494C66.0576 60.3235 66.1288 60.3105 66.2195 60.3105H66.9854C67.0779 60.3105 67.1491 60.3235 67.199 60.3494C67.249 60.3753 67.2841 60.4076 67.3045 60.4465C67.3267 60.4853 67.3396 60.5251 67.3433 60.5658C67.3489 60.6047 67.3517 60.638 67.3517 60.6657V61.1985C67.3517 61.2318 67.3489 61.2688 67.3433 61.3095C67.3396 61.3502 67.3267 61.3891 67.3045 61.4261C67.2823 61.4631 67.2462 61.4936 67.1963 61.5176C67.1463 61.5417 67.076 61.5537 66.9854 61.5537H66.2195ZM66.3249 61.3151H66.8799C66.9706 61.3151 67.0159 61.2781 67.0159 61.2041V60.6602C67.0159 60.5862 66.9706 60.5492 66.8799 60.5492H66.3249C66.2361 60.5492 66.1917 60.5862 66.1917 60.6602V61.2041C66.1917 61.2781 66.2361 61.3151 66.3249 61.3151ZM68.7235 61.5537L68.1269 59.9248H68.5154L68.9067 60.9904L68.9705 61.2596H68.9983L69.0343 61.0709L69.4034 59.9248H69.8752L70.2609 61.0709L70.3108 61.2596H70.3386L70.4024 60.9904L70.7659 59.9248H71.1544L71.1267 60.0913L70.555 61.5537H70.0833L69.7059 60.4631L69.6504 60.2855H69.6226L69.5699 60.4631L69.1953 61.5537H68.7235ZM71.577 61.5537C71.4531 61.5537 71.3606 61.5287 71.2995 61.4788C71.2403 61.4288 71.2107 61.3474 71.2107 61.2346V60.6657C71.2107 60.638 71.2126 60.6047 71.2163 60.5658C71.2218 60.5251 71.2348 60.4853 71.2551 60.4465C71.2773 60.4076 71.3134 60.3753 71.3634 60.3494C71.4152 60.3235 71.4864 60.3105 71.577 60.3105H72.3429C72.4354 60.3105 72.5067 60.3235 72.5566 60.3494C72.6066 60.3753 72.6417 60.4076 72.6621 60.4465C72.6843 60.4853 72.6972 60.5251 72.7009 60.5658C72.7065 60.6047 72.7092 60.638 72.7092 60.6657V61.1985C72.7092 61.2318 72.7065 61.2688 72.7009 61.3095C72.6972 61.3502 72.6843 61.3891 72.6621 61.4261C72.6399 61.4631 72.6038 61.4936 72.5538 61.5176C72.5039 61.5417 72.4336 61.5537 72.3429 61.5537H71.577ZM71.6825 61.3151H72.2375C72.3281 61.3151 72.3735 61.2781 72.3735 61.2041V60.6602C72.3735 60.5862 72.3281 60.5492 72.2375 60.5492H71.6825C71.5937 60.5492 71.5493 60.5862 71.5493 60.6602V61.2041C71.5493 61.2781 71.5937 61.3151 71.6825 61.3151ZM73.0135 61.5537V60.3105H73.2411L73.3465 60.366C73.3946 60.3401 73.4464 60.3198 73.5019 60.305C73.5574 60.2902 73.6277 60.2828 73.7128 60.2828C73.8479 60.2828 73.957 60.2976 74.0403 60.3272C74.1254 60.3568 74.1818 60.379 74.2095 60.3938L74.1124 60.6352C74.0902 60.6241 74.0532 60.6102 74.0014 60.5936C73.9515 60.5751 73.8923 60.5584 73.8238 60.5436C73.7554 60.5288 73.6804 60.5214 73.599 60.5214H73.5685C73.4797 60.5214 73.4214 60.539 73.3937 60.5741C73.3678 60.6093 73.3539 60.6676 73.3521 60.749V61.5537H73.0135ZM74.4315 61.5537V60.0164L74.4037 59.7944H74.77V61.5537H74.4315ZM75.4415 61.5537C75.349 61.5537 75.2777 61.5417 75.2278 61.5176C75.1778 61.4936 75.1418 61.4631 75.1196 61.4261C75.0992 61.3891 75.0863 61.3502 75.0807 61.3095C75.077 61.2688 75.0752 61.2318 75.0752 61.1985V60.6657C75.0752 60.638 75.077 60.6047 75.0807 60.5658C75.0863 60.5251 75.0992 60.4853 75.1196 60.4465C75.1418 60.4076 75.1778 60.3753 75.2278 60.3494C75.2796 60.3235 75.3508 60.3105 75.4415 60.3105H75.583C75.7532 60.3105 75.8901 60.3142 75.9937 60.3216C76.0991 60.3272 76.1796 60.3336 76.2351 60.341V59.7944H76.5737V61.5537H76.3461L76.2379 61.4982C76.1602 61.5112 76.0668 61.5241 75.9576 61.5371C75.8485 61.5482 75.7227 61.5537 75.5802 61.5537H75.4415ZM75.5469 61.3151H76.1491C76.1879 61.3151 76.212 61.3104 76.2212 61.3012C76.2305 61.2919 76.2351 61.2688 76.2351 61.2318V60.5686C76.1722 60.5649 76.0927 60.5612 75.9965 60.5575C75.9003 60.5519 75.7976 60.5492 75.6884 60.5492H75.5469C75.4581 60.5492 75.4137 60.5862 75.4137 60.6602V61.2041C75.4137 61.2781 75.4581 61.3151 75.5469 61.3151ZM77.007 61.9367C76.9681 61.9478 76.945 61.9422 76.9376 61.92C76.9321 61.8997 76.9358 61.8784 76.9487 61.8562C76.9598 61.8414 76.9746 61.8173 76.9931 61.784C77.0135 61.7507 77.0329 61.7128 77.0514 61.6703C77.0699 61.6296 77.0819 61.5879 77.0875 61.5454C77.0394 61.538 77.0042 61.5204 76.982 61.4927C76.9598 61.4649 76.9487 61.4224 76.9487 61.365C76.9487 61.3003 76.9635 61.2549 76.9931 61.229C77.0246 61.2013 77.0754 61.1874 77.1457 61.1874C77.2216 61.1874 77.278 61.2041 77.315 61.2374C77.3539 61.2688 77.3733 61.3215 77.3733 61.3955C77.3733 61.4492 77.3613 61.5056 77.3372 61.5648C77.315 61.624 77.2854 61.6795 77.2484 61.7313C77.2114 61.785 77.1716 61.8294 77.1291 61.8645C77.0865 61.9015 77.0458 61.9256 77.007 61.9367ZM78.4266 61.5537V59.922H78.7929V61.5537H78.4266ZM79.198 60.1607C79.1592 60.1718 79.1361 60.1671 79.1287 60.1468C79.1231 60.1246 79.1268 60.1024 79.1398 60.0802C79.1509 60.0654 79.1657 60.0413 79.1842 60.008C79.2045 59.9747 79.2239 59.9377 79.2424 59.897C79.2609 59.8545 79.273 59.8119 79.2785 59.7694C79.2304 59.762 79.1953 59.7444 79.1731 59.7167C79.1509 59.6889 79.1398 59.6464 79.1398 59.589C79.1398 59.5243 79.1546 59.4789 79.1842 59.453C79.2156 59.4253 79.2665 59.4114 79.3368 59.4114C79.4126 59.4114 79.4691 59.4281 79.5061 59.4614C79.5449 59.4928 79.5643 59.5455 79.5643 59.6195C79.5643 59.6732 79.5523 59.7296 79.5283 59.7888C79.5061 59.848 79.4765 59.9044 79.4395 59.9581C79.4025 60.0099 79.3627 60.0543 79.3201 60.0913C79.2776 60.1264 79.2369 60.1496 79.198 60.1607ZM79.9537 61.5537V60.3105H80.1813L80.2507 60.3438C80.3043 60.3346 80.37 60.3272 80.4477 60.3216C80.5254 60.3142 80.6179 60.3105 80.7252 60.3105H80.8639C80.9176 60.3105 80.9694 60.3179 81.0193 60.3327C81.0693 60.3457 81.1063 60.3651 81.1303 60.391C81.1784 60.3669 81.245 60.3475 81.3301 60.3327C81.4152 60.3179 81.5262 60.3105 81.6631 60.3105H81.8019C81.8944 60.3105 81.9656 60.3235 82.0156 60.3494C82.0655 60.3753 82.1007 60.4076 82.121 60.4465C82.1432 60.4853 82.1562 60.5251 82.1599 60.5658C82.1654 60.6047 82.1682 60.638 82.1682 60.6657V61.5537H81.8296V60.6602C81.8296 60.5862 81.7852 60.5492 81.6964 60.5492H81.3079C81.2783 60.5492 81.258 60.5529 81.2469 60.5603C81.2358 60.5677 81.2302 60.5843 81.2302 60.6102V61.5537H80.8917V60.6602C80.8917 60.5862 80.8473 60.5492 80.7585 60.5492H80.3755C80.3404 60.5492 80.3173 60.5529 80.3062 60.5603C80.2969 60.5658 80.2923 60.5825 80.2923 60.6102V61.5537H79.9537ZM82.9308 61.5537L83.7439 59.922H84.2905L85.1008 61.5537H84.6735L84.5098 61.2013H83.5163L83.3359 61.5537H82.9308ZM83.6162 60.9293H84.4071L84.0269 60.1718H83.9992L83.6162 60.9293ZM85.268 61.5537V60.3105H85.4955L85.601 60.366C85.6491 60.3401 85.7009 60.3198 85.7564 60.305C85.8119 60.2902 85.8822 60.2828 85.9673 60.2828C86.1023 60.2828 86.2115 60.2976 86.2947 60.3272C86.3798 60.3568 86.4362 60.379 86.464 60.3938L86.3669 60.6352C86.3447 60.6241 86.3077 60.6102 86.2559 60.5936C86.2059 60.5751 86.1467 60.5584 86.0783 60.5436C86.0098 60.5288 85.9349 60.5214 85.8535 60.5214H85.823C85.7342 60.5214 85.6759 60.539 85.6481 60.5741C85.6222 60.6093 85.6084 60.6676 85.6065 60.749V61.5537H85.268ZM86.8552 60.1357C86.7868 60.1357 86.7368 60.1218 86.7054 60.0941C86.6739 60.0663 86.6582 60.0201 86.6582 59.9553C86.6582 59.8887 86.673 59.8425 86.7026 59.8166C86.734 59.7888 86.7849 59.7749 86.8552 59.7749C86.9255 59.7749 86.9764 59.7888 87.0078 59.8166C87.0393 59.8425 87.055 59.8887 87.055 59.9553C87.055 60.0182 87.0393 60.0645 87.0078 60.0941C86.9764 60.1218 86.9255 60.1357 86.8552 60.1357ZM86.6859 61.5537V60.3105H87.0245V61.5537H86.6859ZM87.7451 61.5537C87.6045 61.5537 87.5028 61.5213 87.4399 61.4566C87.377 61.39 87.3455 61.2993 87.3455 61.1846C87.3455 61.0644 87.3779 60.9719 87.4427 60.9071C87.5093 60.8424 87.6101 60.81 87.7451 60.81H87.8867C88.0254 60.81 88.1503 60.8137 88.2613 60.8211C88.3723 60.8285 88.4639 60.8359 88.536 60.8433V60.6602C88.536 60.6435 88.5342 60.6269 88.5305 60.6102C88.5268 60.5917 88.5157 60.5769 88.4972 60.5658C88.4787 60.5547 88.4472 60.5492 88.4028 60.5492H88.2641C88.0624 60.5492 87.8941 60.5529 87.759 60.5603C87.624 60.5658 87.5324 60.5714 87.4843 60.5769L87.4538 60.366C87.4538 60.3401 87.5241 60.3244 87.6647 60.3188C87.8053 60.3133 88.0402 60.3105 88.3695 60.3105H88.5083C88.6008 60.3105 88.672 60.3235 88.7219 60.3494C88.7719 60.3753 88.807 60.4076 88.8274 60.4465C88.8496 60.4853 88.8625 60.5251 88.8662 60.5658C88.8718 60.6047 88.8746 60.638 88.8746 60.6657V61.5537H88.647L88.5388 61.4982C88.4611 61.5112 88.3677 61.5241 88.2585 61.5371C88.1494 61.5482 88.0245 61.5537 87.8839 61.5537H87.7451ZM87.8173 61.3151H88.4528C88.4935 61.3151 88.5175 61.3114 88.5249 61.304C88.5323 61.2966 88.536 61.2734 88.536 61.2346V61.0209H87.8173C87.7673 61.0209 87.7322 61.0329 87.7118 61.057C87.6933 61.081 87.6841 61.119 87.6841 61.1708C87.6841 61.2226 87.6952 61.2596 87.7174 61.2818C87.7396 61.304 87.7729 61.3151 87.8173 61.3151Z" fill="#2A1919"/>
<path d="M66.898 57.6187V54.7179H67.5492V55.9216H69.4831V54.7179H70.1343V57.6187H69.4831V56.3952H67.5492V57.6187H66.898ZM71.7791 57.6187C71.5489 57.6187 71.368 57.5858 71.2364 57.52C71.1049 57.4542 71.0111 57.3555 70.9552 57.224C70.9026 57.0924 70.8763 56.9296 70.8763 56.7356V55.596C70.8763 55.4052 70.9026 55.2457 70.9552 55.1175C71.0078 54.9859 71.0999 54.8872 71.2315 54.8215C71.363 54.7524 71.5456 54.7179 71.7791 54.7179H73.2196C73.4498 54.7179 73.6291 54.7524 73.7573 54.8215C73.8889 54.8872 73.981 54.9859 74.0336 55.1175C74.0895 55.2457 74.1175 55.4052 74.1175 55.596V56.7356C74.1175 57.025 74.0533 57.2454 73.9251 57.3967C73.7968 57.5447 73.5617 57.6187 73.2196 57.6187H71.7791ZM71.9221 57.1451H73.0815C73.2032 57.1451 73.2969 57.1138 73.3627 57.0513C73.4317 56.9888 73.4663 56.9033 73.4663 56.7948V55.5368C73.4663 55.4414 73.4317 55.3608 73.3627 55.2951C73.2936 55.226 73.1999 55.1915 73.0815 55.1915H71.9221C71.8037 55.1915 71.7084 55.2227 71.636 55.2852C71.5637 55.3477 71.5275 55.4315 71.5275 55.5368V56.7948C71.5275 56.9066 71.562 56.9938 71.6311 57.0563C71.7034 57.1155 71.8005 57.1451 71.9221 57.1451ZM74.9062 57.6187V55.1125L74.8569 54.7179H75.6067L76.7217 56.6912L77.8761 54.7179H78.5421V57.6187H77.8909V55.7785H77.8366L77.6442 56.2077L77.0226 57.3227H76.4257L75.8041 56.2077L75.6067 55.7785H75.5574V57.6187H74.9062ZM79.3325 57.6187V54.7179H82.401V55.1915H79.9837V55.8723H81.8288V56.3607H79.9837V57.1451H82.4208L82.6181 57.5644C82.6181 57.5775 82.5737 57.5907 82.4849 57.6039C82.3961 57.6137 82.2432 57.6187 82.0261 57.6187H79.3325Z" fill="#2A1919"/>
<path d="M60.6347 88.3037V87.3972H60.8382V88.3037H60.6347ZM61.0541 88.3037V87.613H61.1805L61.2421 87.6439C61.2853 87.6357 61.3372 87.6285 61.3979 87.6223C61.4585 87.6161 61.5279 87.613 61.606 87.613H61.6831C61.7345 87.613 61.774 87.6202 61.8018 87.6346C61.8295 87.649 61.849 87.667 61.8604 87.6886C61.8727 87.7102 61.8799 87.7323 61.8819 87.7549C61.885 87.7765 61.8866 87.795 61.8866 87.8104V88.3037H61.6985V87.8073C61.6985 87.7662 61.6738 87.7456 61.6245 87.7456H61.2884C61.2689 87.7456 61.256 87.7477 61.2499 87.7518C61.2447 87.7549 61.2421 87.7641 61.2421 87.7795V88.3037H61.0541ZM62.6713 88.3037C62.5932 88.3037 62.5397 88.2873 62.5109 88.2544C62.4822 88.2215 62.4678 88.1722 62.4678 88.1064V87.7456H62.3414V87.613H62.4061C62.4256 87.613 62.4395 87.61 62.4477 87.6038C62.457 87.5976 62.4637 87.5853 62.4678 87.5668L62.4986 87.4018H62.6559V87.613H62.9765V87.7456H62.6559V88.1079C62.6559 88.1336 62.662 88.1506 62.6744 88.1588C62.6867 88.167 62.7052 88.1711 62.7299 88.1711H62.9472L62.9626 88.2883C62.9411 88.2914 62.9082 88.295 62.864 88.2991C62.8198 88.3022 62.7715 88.3037 62.7191 88.3037H62.6713ZM63.1001 88.3037V87.3047H63.2882V87.6439C63.3313 87.6357 63.3832 87.6285 63.4439 87.6223C63.5045 87.6161 63.5739 87.613 63.652 87.613H63.7291C63.7805 87.613 63.82 87.6202 63.8478 87.6346C63.8755 87.649 63.8951 87.667 63.9064 87.6886C63.9187 87.7102 63.9259 87.7323 63.928 87.7549C63.931 87.7765 63.9326 87.795 63.9326 87.8104V88.3037H63.7445V87.8073C63.7445 87.7662 63.7198 87.7456 63.6705 87.7456H63.3344C63.3149 87.7456 63.302 87.7477 63.2959 87.7518C63.2907 87.7549 63.2882 87.7641 63.2882 87.7795V88.3037H63.1001ZM64.1103 88.3037V87.613H64.2367L64.2953 87.6439C64.322 87.6295 64.3508 87.6182 64.3816 87.61C64.4125 87.6017 64.4515 87.5976 64.4988 87.5976C64.5738 87.5976 64.6345 87.6058 64.6807 87.6223C64.728 87.6387 64.7593 87.6511 64.7748 87.6593L64.7208 87.7934C64.7085 87.7873 64.6879 87.7795 64.6591 87.7703C64.6314 87.76 64.5985 87.7508 64.5605 87.7425C64.5224 87.7343 64.4808 87.7302 64.4356 87.7302H64.4186C64.3693 87.7302 64.3369 87.74 64.3215 87.7595C64.3071 87.779 64.2994 87.8114 64.2984 87.8566V88.3037H64.1103ZM65.0707 88.3037C65.0193 88.3037 64.9798 88.297 64.952 88.2837C64.9243 88.2703 64.9042 88.2533 64.8919 88.2328C64.8806 88.2122 64.8734 88.1907 64.8703 88.168C64.8682 88.1454 64.8672 88.1249 64.8672 88.1064V87.8104C64.8672 87.795 64.8682 87.7765 64.8703 87.7549C64.8734 87.7323 64.8806 87.7102 64.8919 87.6886C64.9042 87.667 64.9243 87.649 64.952 87.6346C64.9808 87.6202 65.0204 87.613 65.0707 87.613H65.4022C65.47 87.613 65.5229 87.6197 65.561 87.6331C65.6 87.6454 65.6273 87.666 65.6427 87.6948C65.6591 87.7235 65.6673 87.7621 65.6673 87.8104V88.0385H65.3976C65.3051 88.0385 65.2295 88.0365 65.1709 88.0324C65.1134 88.0283 65.0748 88.0257 65.0553 88.0247V88.1095C65.0543 88.1506 65.0789 88.1711 65.1293 88.1711H65.2079C65.2634 88.1711 65.3174 88.1706 65.3698 88.1696C65.4232 88.1675 65.4721 88.1655 65.5163 88.1634C65.5605 88.1603 65.5959 88.1578 65.6226 88.1557L65.6843 88.2559C65.6843 88.2878 65.5831 88.3037 65.3806 88.3037H65.0707ZM65.0553 87.906H65.4793V87.8073C65.4793 87.7867 65.4767 87.7723 65.4716 87.7641C65.4674 87.7559 65.4541 87.7508 65.4315 87.7487C65.4089 87.7467 65.3703 87.7456 65.3158 87.7456H65.1293C65.08 87.7456 65.0553 87.7662 65.0553 87.8073V87.906ZM66.0267 88.3037C65.9753 88.3037 65.9358 88.297 65.908 88.2837C65.8803 88.2703 65.8602 88.2533 65.8479 88.2328C65.8366 88.2122 65.8294 88.1907 65.8263 88.168C65.8243 88.1454 65.8232 88.1249 65.8232 88.1064V87.8104C65.8232 87.795 65.8243 87.7765 65.8263 87.7549C65.8294 87.7323 65.8366 87.7102 65.8479 87.6886C65.8602 87.667 65.8803 87.649 65.908 87.6346C65.9368 87.6202 65.9764 87.613 66.0267 87.613H66.3582C66.426 87.613 66.479 87.6197 66.517 87.6331C66.556 87.6454 66.5833 87.666 66.5987 87.6948C66.6151 87.7235 66.6234 87.7621 66.6234 87.8104V88.0385H66.3536C66.2611 88.0385 66.1855 88.0365 66.1269 88.0324C66.0694 88.0283 66.0308 88.0257 66.0113 88.0247V88.1095C66.0103 88.1506 66.035 88.1711 66.0853 88.1711H66.1639C66.2194 88.1711 66.2734 88.1706 66.3258 88.1696C66.3793 88.1675 66.4281 88.1655 66.4723 88.1634C66.5165 88.1603 66.5519 88.1578 66.5787 88.1557L66.6403 88.2559C66.6403 88.2878 66.5391 88.3037 66.3366 88.3037H66.0267ZM66.0113 87.906H66.4353V87.8073C66.4353 87.7867 66.4327 87.7723 66.4276 87.7641C66.4235 87.7559 66.4101 87.7508 66.3875 87.7487C66.3649 87.7467 66.3263 87.7456 66.2719 87.7456H66.0853C66.036 87.7456 66.0113 87.7662 66.0113 87.8073V87.906ZM67.1334 88.3037V87.613H67.2598L67.2984 87.6315C67.3282 87.6264 67.3647 87.6223 67.4078 87.6192C67.451 87.6151 67.5024 87.613 67.562 87.613H67.6391C67.6689 87.613 67.6977 87.6172 67.7254 87.6254C67.7532 87.6326 67.7737 87.6434 67.7871 87.6578C67.8138 87.6444 67.8508 87.6336 67.8981 87.6254C67.9454 87.6172 68.007 87.613 68.0831 87.613H68.1602C68.2115 87.613 68.2511 87.6202 68.2789 87.6346C68.3066 87.649 68.3261 87.667 68.3375 87.6886C68.3498 87.7102 68.357 87.7323 68.359 87.7549C68.3621 87.7765 68.3637 87.795 68.3637 87.8104V88.3037H68.1756V87.8073C68.1756 87.7662 68.1509 87.7456 68.1016 87.7456H67.8857C67.8693 87.7456 67.858 87.7477 67.8518 87.7518C67.8457 87.7559 67.8426 87.7652 67.8426 87.7795V88.3037H67.6545V87.8073C67.6545 87.7662 67.6298 87.7456 67.5805 87.7456H67.3677C67.3482 87.7456 67.3354 87.7477 67.3292 87.7518C67.3241 87.7549 67.3215 87.7641 67.3215 87.7795V88.3037H67.1334ZM68.7292 88.3037C68.6603 88.3037 68.6089 88.2898 68.575 88.2621C68.5421 88.2343 68.5257 88.1891 68.5257 88.1264V87.8104C68.5257 87.795 68.5267 87.7765 68.5288 87.7549C68.5318 87.7323 68.539 87.7102 68.5503 87.6886C68.5627 87.667 68.5827 87.649 68.6105 87.6346C68.6392 87.6202 68.6788 87.613 68.7292 87.613H69.1547C69.2061 87.613 69.2456 87.6202 69.2734 87.6346C69.3011 87.649 69.3207 87.667 69.332 87.6886C69.3443 87.7102 69.3515 87.7323 69.3535 87.7549C69.3566 87.7765 69.3582 87.795 69.3582 87.8104V88.1064C69.3582 88.1249 69.3566 88.1454 69.3535 88.168C69.3515 88.1907 69.3443 88.2122 69.332 88.2328C69.3196 88.2533 69.2996 88.2703 69.2718 88.2837C69.2441 88.297 69.205 88.3037 69.1547 88.3037H68.7292ZM68.7878 88.1711H69.0961C69.1464 88.1711 69.1716 88.1506 69.1716 88.1095V87.8073C69.1716 87.7662 69.1464 87.7456 69.0961 87.7456H68.7878C68.7384 87.7456 68.7138 87.7662 68.7138 87.8073V88.1095C68.7138 88.1506 68.7384 88.1711 68.7878 88.1711ZM69.5272 88.3037V87.613H69.6536L69.7153 87.6439C69.7585 87.6357 69.8104 87.6285 69.871 87.6223C69.9316 87.6161 70.001 87.613 70.0791 87.613H70.1562C70.2076 87.613 70.2472 87.6202 70.2749 87.6346C70.3027 87.649 70.3222 87.667 70.3335 87.6886C70.3458 87.7102 70.353 87.7323 70.3551 87.7549C70.3582 87.7765 70.3597 87.795 70.3597 87.8104V88.3037H70.1716V87.8073C70.1716 87.7662 70.147 87.7456 70.0976 87.7456H69.7615C69.742 87.7456 69.7292 87.7477 69.723 87.7518C69.7179 87.7549 69.7153 87.7641 69.7153 87.7795V88.3037H69.5272ZM70.8057 88.3037C70.7276 88.3037 70.6741 88.2873 70.6453 88.2544C70.6166 88.2215 70.6022 88.1722 70.6022 88.1064V87.7456H70.4758V87.613H70.5405C70.56 87.613 70.5739 87.61 70.5821 87.6038C70.5914 87.5976 70.5981 87.5853 70.6022 87.5668L70.633 87.4018H70.7903V87.613H71.1109V87.7456H70.7903V88.1079C70.7903 88.1336 70.7964 88.1506 70.8088 88.1588C70.8211 88.167 70.8396 88.1711 70.8643 88.1711H71.0816L71.097 88.2883C71.0755 88.2914 71.0426 88.295 70.9984 88.2991C70.9542 88.3022 70.9059 88.3037 70.8535 88.3037H70.8057ZM71.2345 88.3037V87.3047H71.4226V87.6439C71.4657 87.6357 71.5176 87.6285 71.5783 87.6223C71.6389 87.6161 71.7083 87.613 71.7864 87.613H71.8635C71.9149 87.613 71.9544 87.6202 71.9822 87.6346C72.0099 87.649 72.0295 87.667 72.0408 87.6886C72.0531 87.7102 72.0603 87.7323 72.0624 87.7549C72.0654 87.7765 72.067 87.795 72.067 87.8104V88.3037H71.8789V87.8073C71.8789 87.7662 71.8542 87.7456 71.8049 87.7456H71.4688C71.4493 87.7456 71.4364 87.7477 71.4303 87.7518C71.4251 87.7549 71.4226 87.7641 71.4226 87.7795V88.3037H71.2345ZM72.4189 88.3037C72.35 88.3037 72.3012 88.3001 72.2724 88.2929C72.2437 88.2857 72.2293 88.2785 72.2293 88.2713L72.2755 88.1557C72.3053 88.1588 72.3598 88.1624 72.4389 88.1665C72.5191 88.1696 72.6178 88.1711 72.7349 88.1711H72.812C72.8377 88.1711 72.8537 88.1644 72.8598 88.1511C72.867 88.1367 72.8706 88.1177 72.8706 88.094C72.8706 88.0704 72.8665 88.0514 72.8583 88.037C72.8511 88.0226 72.8357 88.0154 72.812 88.0154H72.4328C72.3608 88.0154 72.3089 88.0021 72.2771 87.9753C72.2452 87.9476 72.2293 87.9065 72.2293 87.852V87.7903C72.2293 87.7759 72.2308 87.759 72.2339 87.7395C72.237 87.7199 72.2447 87.7004 72.257 87.6809C72.2694 87.6613 72.2894 87.6454 72.3172 87.6331C72.3449 87.6197 72.3834 87.613 72.4328 87.613H72.8583C72.9199 87.613 72.9636 87.6166 72.9893 87.6238C73.015 87.631 73.0279 87.6382 73.0279 87.6454L73.0124 87.761C72.9826 87.758 72.9277 87.7549 72.8475 87.7518C72.7673 87.7477 72.6692 87.7456 72.553 87.7456H72.4759C72.4503 87.7456 72.4338 87.7528 72.4266 87.7672C72.4204 87.7806 72.4174 87.7965 72.4174 87.815C72.4174 87.8345 72.4204 87.851 72.4266 87.8643C72.4338 87.8767 72.4503 87.8828 72.4759 87.8828H72.8552C72.9251 87.8828 72.9765 87.8972 73.0094 87.926C73.0423 87.9548 73.0587 87.9913 73.0587 88.0355V88.1264C73.0587 88.1449 73.0572 88.1644 73.0541 88.185C73.052 88.2056 73.0448 88.2251 73.0325 88.2436C73.0202 88.2611 73.0001 88.2754 72.9724 88.2868C72.9446 88.2981 72.9056 88.3037 72.8552 88.3037H72.4189ZM73.2679 88.5165C73.2463 88.5226 73.2335 88.5195 73.2294 88.5072C73.2263 88.4959 73.2283 88.4841 73.2355 88.4718C73.2417 88.4635 73.2499 88.4502 73.2602 88.4317C73.2715 88.4132 73.2823 88.3921 73.2926 88.3685C73.3028 88.3458 73.3095 88.3227 73.3126 88.2991C73.2859 88.295 73.2664 88.2852 73.254 88.2698C73.2417 88.2544 73.2355 88.2307 73.2355 88.1989C73.2355 88.1629 73.2437 88.1377 73.2602 88.1233C73.2777 88.1079 73.3059 88.1002 73.345 88.1002C73.3871 88.1002 73.4185 88.1095 73.439 88.128C73.4606 88.1454 73.4714 88.1747 73.4714 88.2158C73.4714 88.2456 73.4647 88.277 73.4514 88.3099C73.439 88.3428 73.4226 88.3736 73.402 88.4024C73.3815 88.4322 73.3594 88.4568 73.3357 88.4764C73.3121 88.4969 73.2895 88.5103 73.2679 88.5165ZM74.0566 88.3037V87.3972H74.2601V88.3037H74.0566ZM74.8146 88.3037V87.3047H75.0027V87.6439C75.0459 87.6357 75.0978 87.6285 75.1584 87.6223C75.2191 87.6161 75.2884 87.613 75.3666 87.613H75.4436C75.495 87.613 75.5346 87.6202 75.5624 87.6346C75.5901 87.649 75.6096 87.667 75.6209 87.6886C75.6333 87.7102 75.6405 87.7323 75.6425 87.7549C75.6456 87.7765 75.6471 87.795 75.6471 87.8104V88.3037H75.4591V87.8073C75.4591 87.7662 75.4344 87.7456 75.3851 87.7456H75.049C75.0294 87.7456 75.0166 87.7477 75.0104 87.7518C75.0053 87.7549 75.0027 87.7641 75.0027 87.7795V88.3037H74.8146ZM76.0129 88.3037C75.9441 88.3037 75.8927 88.2898 75.8588 88.2621C75.8259 88.2343 75.8094 88.1891 75.8094 88.1264V87.8104C75.8094 87.795 75.8105 87.7765 75.8125 87.7549C75.8156 87.7323 75.8228 87.7102 75.8341 87.6886C75.8464 87.667 75.8665 87.649 75.8942 87.6346C75.923 87.6202 75.9626 87.613 76.0129 87.613H76.4384C76.4898 87.613 76.5294 87.6202 76.5571 87.6346C76.5849 87.649 76.6044 87.667 76.6157 87.6886C76.6281 87.7102 76.6353 87.7323 76.6373 87.7549C76.6404 87.7765 76.6419 87.795 76.6419 87.8104V88.1064C76.6419 88.1249 76.6404 88.1454 76.6373 88.168C76.6353 88.1907 76.6281 88.2122 76.6157 88.2328C76.6034 88.2533 76.5834 88.2703 76.5556 88.2837C76.5279 88.297 76.4888 88.3037 76.4384 88.3037H76.0129ZM76.0715 88.1711H76.3799C76.4302 88.1711 76.4554 88.1506 76.4554 88.1095V87.8073C76.4554 87.7662 76.4302 87.7456 76.3799 87.7456H76.0715C76.0222 87.7456 75.9975 87.7662 75.9975 87.8073V88.1095C75.9975 88.1506 76.0222 88.1711 76.0715 88.1711ZM76.811 88.5905V87.613H76.9374L76.9759 87.6331C77.0222 87.6279 77.0772 87.6233 77.1409 87.6192C77.2056 87.6151 77.2791 87.613 77.3614 87.613H77.44C77.4914 87.613 77.5309 87.6197 77.5587 87.6331C77.5864 87.6464 77.606 87.6634 77.6173 87.684C77.6296 87.7045 77.6368 87.7261 77.6389 87.7487C77.6419 87.7713 77.6435 87.7919 77.6435 87.8104V88.1064C77.6435 88.1218 77.6419 88.1408 77.6389 88.1634C77.6368 88.185 77.6296 88.2066 77.6173 88.2282C77.606 88.2498 77.5864 88.2677 77.5587 88.2821C77.5309 88.2965 77.4914 88.3037 77.44 88.3037H77.3614C77.2832 88.3037 77.2139 88.3017 77.1532 88.2975C77.0926 88.2934 77.0412 88.2893 76.9991 88.2852V88.5905H76.811ZM77.0469 88.1711H77.3814C77.4009 88.1711 77.4179 88.166 77.4323 88.1557C77.4477 88.1454 77.4554 88.13 77.4554 88.1095V87.8073C77.4564 87.7847 77.4508 87.7688 77.4384 87.7595C77.4271 87.7503 77.4081 87.7456 77.3814 87.7456H77.3043C77.2385 87.7456 77.18 87.7472 77.1286 87.7503C77.0782 87.7523 77.035 87.7549 76.9991 87.758V88.1233C76.9991 88.1459 77.0011 88.1598 77.0052 88.165C77.0104 88.1691 77.0242 88.1711 77.0469 88.1711ZM78.0018 88.3037C77.9504 88.3037 77.9108 88.297 77.883 88.2837C77.8553 88.2703 77.8353 88.2533 77.8229 88.2328C77.8116 88.2122 77.8044 88.1907 77.8013 88.168C77.7993 88.1454 77.7983 88.1249 77.7983 88.1064V87.8104C77.7983 87.795 77.7993 87.7765 77.8013 87.7549C77.8044 87.7323 77.8116 87.7102 77.8229 87.6886C77.8353 87.667 77.8553 87.649 77.883 87.6346C77.9118 87.6202 77.9514 87.613 78.0018 87.613H78.3332C78.401 87.613 78.454 87.6197 78.492 87.6331C78.5311 87.6454 78.5583 87.666 78.5737 87.6948C78.5902 87.7235 78.5984 87.7621 78.5984 87.8104V88.0385H78.3286C78.2361 88.0385 78.1605 88.0365 78.102 88.0324C78.0444 88.0283 78.0059 88.0257 77.9863 88.0247V88.1095C77.9853 88.1506 78.01 88.1711 78.0603 88.1711H78.139C78.1945 88.1711 78.2484 88.1706 78.3008 88.1696C78.3543 88.1675 78.4031 88.1655 78.4473 88.1634C78.4915 88.1603 78.5269 88.1578 78.5537 88.1557L78.6153 88.2559C78.6153 88.2878 78.5141 88.3037 78.3116 88.3037H78.0018ZM77.9863 87.906H78.4103V87.8073C78.4103 87.7867 78.4077 87.7723 78.4026 87.7641C78.3985 87.7559 78.3851 87.7508 78.3625 87.7487C78.3399 87.7467 78.3013 87.7456 78.2469 87.7456H78.0603C78.011 87.7456 77.9863 87.7662 77.9863 87.8073V87.906ZM79.3767 88.3037C79.2986 88.3037 79.2451 88.2873 79.2163 88.2544C79.1876 88.2215 79.1732 88.1722 79.1732 88.1064V87.7456H79.0468V87.613H79.1115C79.131 87.613 79.1449 87.61 79.1531 87.6038C79.1624 87.5976 79.1691 87.5853 79.1732 87.5668L79.204 87.4018H79.3613V87.613H79.6819V87.7456H79.3613V88.1079C79.3613 88.1336 79.3674 88.1506 79.3798 88.1588C79.3921 88.167 79.4106 88.1711 79.4353 88.1711H79.6526L79.6681 88.2883C79.6465 88.2914 79.6136 88.295 79.5694 88.2991C79.5252 88.3022 79.4769 88.3037 79.4245 88.3037H79.3767ZM79.9936 88.3037C79.9247 88.3037 79.8733 88.2898 79.8394 88.2621C79.8065 88.2343 79.7901 88.1891 79.7901 88.1264V87.8104C79.7901 87.795 79.7911 87.7765 79.7932 87.7549C79.7962 87.7323 79.8034 87.7102 79.8147 87.6886C79.8271 87.667 79.8471 87.649 79.8749 87.6346C79.9036 87.6202 79.9432 87.613 79.9936 87.613H80.4191C80.4705 87.613 80.51 87.6202 80.5378 87.6346C80.5655 87.649 80.5851 87.667 80.5964 87.6886C80.6087 87.7102 80.6159 87.7323 80.6179 87.7549C80.621 87.7765 80.6226 87.795 80.6226 87.8104V88.1064C80.6226 88.1249 80.621 88.1454 80.6179 88.168C80.6159 88.1907 80.6087 88.2122 80.5964 88.2328C80.584 88.2533 80.564 88.2703 80.5362 88.2837C80.5085 88.297 80.4694 88.3037 80.4191 88.3037H79.9936ZM80.0522 88.1711H80.3605C80.4109 88.1711 80.436 88.1506 80.436 88.1095V87.8073C80.436 87.7662 80.4109 87.7456 80.3605 87.7456H80.0522C80.0028 87.7456 79.9782 87.7662 79.9782 87.8073V88.1095C79.9782 88.1506 80.0028 88.1711 80.0522 88.1711ZM81.1304 88.3037V87.3263H81.3184V87.6315C81.3626 87.6264 81.4145 87.6223 81.4741 87.6192C81.5348 87.6151 81.6036 87.613 81.6807 87.613H81.7594C81.8107 87.613 81.8503 87.6197 81.8781 87.6331C81.9058 87.6464 81.9253 87.6634 81.9366 87.684C81.949 87.7045 81.9562 87.7261 81.9582 87.7487C81.9613 87.7713 81.9629 87.7919 81.9629 87.8104V88.1064C81.9629 88.1218 81.9613 88.1408 81.9582 88.1634C81.9562 88.185 81.949 88.2066 81.9366 88.2282C81.9253 88.2498 81.9058 88.2677 81.8781 88.2821C81.8503 88.2965 81.8107 88.3037 81.7594 88.3037H81.6807C81.5954 88.3037 81.5209 88.3017 81.4572 88.2975C81.3935 88.2924 81.3405 88.2873 81.2984 88.2821L81.2568 88.3037H81.1304ZM81.3662 88.1711H81.7008C81.7501 88.1711 81.7748 88.1506 81.7748 88.1095V87.8073C81.7758 87.7847 81.7712 87.7688 81.7609 87.7595C81.7506 87.7503 81.7306 87.7456 81.7008 87.7456H81.6237C81.5579 87.7456 81.4993 87.7472 81.4479 87.7503C81.3976 87.7523 81.3544 87.7549 81.3184 87.758V88.1233C81.3184 88.1449 81.3205 88.1583 81.3246 88.1634C81.3297 88.1686 81.3436 88.1711 81.3662 88.1711ZM82.3211 88.3037C82.2697 88.3037 82.2302 88.297 82.2024 88.2837C82.1747 88.2703 82.1546 88.2533 82.1423 88.2328C82.131 88.2122 82.1238 88.1907 82.1207 88.168C82.1187 88.1454 82.1176 88.1249 82.1176 88.1064V87.8104C82.1176 87.795 82.1187 87.7765 82.1207 87.7549C82.1238 87.7323 82.131 87.7102 82.1423 87.6886C82.1546 87.667 82.1747 87.649 82.2024 87.6346C82.2312 87.6202 82.2708 87.613 82.3211 87.613H82.6526C82.7204 87.613 82.7733 87.6197 82.8114 87.6331C82.8504 87.6454 82.8777 87.666 82.8931 87.6948C82.9095 87.7235 82.9178 87.7621 82.9178 87.8104V88.0385H82.648C82.5555 88.0385 82.4799 88.0365 82.4213 88.0324C82.3638 88.0283 82.3252 88.0257 82.3057 88.0247V88.1095C82.3047 88.1506 82.3293 88.1711 82.3797 88.1711H82.4583C82.5138 88.1711 82.5678 88.1706 82.6202 88.1696C82.6737 88.1675 82.7225 88.1655 82.7667 88.1634C82.8109 88.1603 82.8463 88.1578 82.873 88.1557L82.9347 88.2559C82.9347 88.2878 82.8335 88.3037 82.631 88.3037H82.3211ZM82.3057 87.906H82.7297V87.8073C82.7297 87.7867 82.7271 87.7723 82.722 87.7641C82.7178 87.7559 82.7045 87.7508 82.6819 87.7487C82.6593 87.7467 82.6207 87.7456 82.5663 87.7456H82.3797C82.3304 87.7456 82.3057 87.7662 82.3057 87.8073V87.906ZM83.2771 88.3037C83.2258 88.3037 83.1862 88.297 83.1584 88.2837C83.1307 88.2703 83.1106 88.2533 83.0983 88.2328C83.087 88.2122 83.0798 88.1907 83.0767 88.168C83.0747 88.1454 83.0736 88.1249 83.0736 88.1064V87.8104C83.0736 87.795 83.0747 87.7765 83.0767 87.7549C83.0798 87.7323 83.087 87.7102 83.0983 87.6886C83.1106 87.667 83.1307 87.649 83.1584 87.6346C83.1872 87.6202 83.2268 87.613 83.2771 87.613H83.4914C83.6199 87.613 83.7109 87.6166 83.7643 87.6238C83.8188 87.63 83.846 87.6367 83.846 87.6439L83.8152 87.761C83.7864 87.759 83.7499 87.7569 83.7057 87.7549C83.6615 87.7518 83.6137 87.7497 83.5624 87.7487C83.512 87.7467 83.4627 87.7456 83.4144 87.7456H83.3357C83.2864 87.7456 83.2617 87.7662 83.2617 87.8073V88.1095C83.2607 88.1506 83.2854 88.1711 83.3357 88.1711H83.4144C83.4699 88.1711 83.5238 88.1706 83.5762 88.1696C83.6297 88.1675 83.6785 88.1655 83.7227 88.1634C83.7669 88.1603 83.8023 88.1578 83.8291 88.1557L83.8907 88.2559C83.8907 88.2878 83.7895 88.3037 83.587 88.3037H83.2771ZM84.1865 88.3037C84.1176 88.3037 84.0662 88.2898 84.0323 88.2621C83.9994 88.2343 83.983 88.1891 83.983 88.1264V87.8104C83.983 87.795 83.984 87.7765 83.9861 87.7549C83.9891 87.7323 83.9963 87.7102 84.0076 87.6886C84.02 87.667 84.04 87.649 84.0678 87.6346C84.0966 87.6202 84.1361 87.613 84.1865 87.613H84.612C84.6634 87.613 84.7029 87.6202 84.7307 87.6346C84.7584 87.649 84.778 87.667 84.7893 87.6886C84.8016 87.7102 84.8088 87.7323 84.8109 87.7549C84.8139 87.7765 84.8155 87.795 84.8155 87.8104V88.1064C84.8155 88.1249 84.8139 88.1454 84.8109 88.168C84.8088 88.1907 84.8016 88.2122 84.7893 88.2328C84.7769 88.2533 84.7569 88.2703 84.7291 88.2837C84.7014 88.297 84.6623 88.3037 84.612 88.3037H84.1865ZM84.2451 88.1711H84.5534C84.6038 88.1711 84.6289 88.1506 84.6289 88.1095V87.8073C84.6289 87.7662 84.6038 87.7456 84.5534 87.7456H84.2451C84.1957 87.7456 84.1711 87.7662 84.1711 87.8073V88.1095C84.1711 88.1506 84.1957 88.1711 84.2451 88.1711ZM84.9845 88.3037V87.613H85.1109L85.1495 87.6315C85.1793 87.6264 85.2158 87.6223 85.2589 87.6192C85.3021 87.6151 85.3535 87.613 85.4131 87.613H85.4902C85.52 87.613 85.5488 87.6172 85.5765 87.6254C85.6043 87.6326 85.6248 87.6434 85.6382 87.6578C85.6649 87.6444 85.7019 87.6336 85.7492 87.6254C85.7965 87.6172 85.8581 87.613 85.9342 87.613H86.0113C86.0627 87.613 86.1022 87.6202 86.13 87.6346C86.1577 87.649 86.1773 87.667 86.1886 87.6886C86.2009 87.7102 86.2081 87.7323 86.2102 87.7549C86.2132 87.7765 86.2148 87.795 86.2148 87.8104V88.3037H86.0267V87.8073C86.0267 87.7662 86.002 87.7456 85.9527 87.7456H85.7369C85.7204 87.7456 85.7091 87.7477 85.7029 87.7518C85.6968 87.7559 85.6937 87.7652 85.6937 87.7795V88.3037H85.5056V87.8073C85.5056 87.7662 85.4809 87.7456 85.4316 87.7456H85.2189C85.1993 87.7456 85.1865 87.7477 85.1803 87.7518C85.1752 87.7549 85.1726 87.7641 85.1726 87.7795V88.3037H84.9845ZM86.5803 88.3037C86.5289 88.3037 86.4893 88.297 86.4616 88.2837C86.4338 88.2703 86.4138 88.2533 86.4014 88.2328C86.3901 88.2122 86.3829 88.1907 86.3799 88.168C86.3778 88.1454 86.3768 88.1249 86.3768 88.1064V87.8104C86.3768 87.795 86.3778 87.7765 86.3799 87.7549C86.3829 87.7323 86.3901 87.7102 86.4014 87.6886C86.4138 87.667 86.4338 87.649 86.4616 87.6346C86.4904 87.6202 86.5299 87.613 86.5803 87.613H86.9117C86.9796 87.613 87.0325 87.6197 87.0705 87.6331C87.1096 87.6454 87.1368 87.666 87.1522 87.6948C87.1687 87.7235 87.1769 87.7621 87.1769 87.8104V88.0385H86.9071C86.8146 88.0385 86.7391 88.0365 86.6805 88.0324C86.6229 88.0283 86.5844 88.0257 86.5649 88.0247V88.1095C86.5638 88.1506 86.5885 88.1711 86.6389 88.1711H86.7175C86.773 88.1711 86.8269 88.1706 86.8794 88.1696C86.9328 88.1675 86.9816 88.1655 87.0258 88.1634C87.07 88.1603 87.1055 88.1578 87.1322 88.1557L87.1939 88.2559C87.1939 88.2878 87.0926 88.3037 86.8902 88.3037H86.5803ZM86.5649 87.906H86.9888V87.8073C86.9888 87.7867 86.9863 87.7723 86.9811 87.7641C86.977 87.7559 86.9636 87.7508 86.941 87.7487C86.9184 87.7467 86.8799 87.7456 86.8254 87.7456H86.6389C86.5895 87.7456 86.5649 87.7662 86.5649 87.8073V87.906ZM87.8858 88.3037C87.8077 88.3037 87.7512 88.2857 87.7163 88.2498C87.6813 88.2128 87.6638 88.1624 87.6638 88.0987C87.6638 88.0319 87.6818 87.9805 87.7178 87.9445C87.7548 87.9085 87.8108 87.8905 87.8858 87.8905H87.9645C88.0415 87.8905 88.1109 87.8926 88.1726 87.8967C88.2343 87.9008 88.2851 87.9049 88.3252 87.909V87.8073C88.3252 87.798 88.3242 87.7888 88.3221 87.7795C88.3201 87.7693 88.3139 87.761 88.3036 87.7549C88.2933 87.7487 88.2759 87.7456 88.2512 87.7456H88.1741C88.0621 87.7456 87.9686 87.7477 87.8935 87.7518C87.8185 87.7549 87.7676 87.758 87.7409 87.761L87.724 87.6439C87.724 87.6295 87.763 87.6208 87.8411 87.6177C87.9192 87.6146 88.0498 87.613 88.2327 87.613H88.3098C88.3612 87.613 88.4008 87.6202 88.4285 87.6346C88.4563 87.649 88.4758 87.667 88.4871 87.6886C88.4994 87.7102 88.5066 87.7323 88.5087 87.7549C88.5118 87.7765 88.5133 87.795 88.5133 87.8104V88.3037H88.3869L88.3268 88.2729C88.2836 88.2801 88.2317 88.2873 88.171 88.2945C88.1104 88.3006 88.041 88.3037 87.9629 88.3037H87.8858ZM87.9259 88.1711H88.279C88.3016 88.1711 88.3149 88.1691 88.319 88.165C88.3232 88.1608 88.3252 88.148 88.3252 88.1264V88.0077H87.9259C87.8982 88.0077 87.8786 88.0144 87.8673 88.0278C87.8571 88.0411 87.8519 88.0622 87.8519 88.091C87.8519 88.1197 87.8581 88.1403 87.8704 88.1526C87.8828 88.165 87.9013 88.1711 87.9259 88.1711ZM67.211 90.3037V89.7456H67.1154V89.6146H67.211V89.4774C67.211 89.4424 67.2177 89.4101 67.231 89.3803C67.2454 89.3504 67.2685 89.3263 67.3004 89.3078C67.3333 89.2893 67.3765 89.28 67.4299 89.28H67.507C67.6303 89.28 67.7187 89.2857 67.7722 89.297C67.8266 89.3083 67.8539 89.3181 67.8539 89.3263L67.8076 89.4435C67.7901 89.4363 67.7588 89.4296 67.7136 89.4234C67.6683 89.4162 67.6139 89.4126 67.5502 89.4126H67.4731C67.4474 89.4126 67.4284 89.4173 67.416 89.4265C67.4047 89.4358 67.3991 89.4517 67.3991 89.4743V89.6146H67.7197V89.7456H67.3991V90.3037H67.211ZM67.8847 90.3037V89.613H68.0111L68.0697 89.6439C68.0964 89.6295 68.1252 89.6182 68.156 89.61C68.1868 89.6017 68.2259 89.5976 68.2732 89.5976C68.3482 89.5976 68.4088 89.6058 68.4551 89.6223C68.5024 89.6387 68.5337 89.6511 68.5491 89.6593L68.4952 89.7934C68.4828 89.7873 68.4623 89.7795 68.4335 89.7703C68.4058 89.76 68.3729 89.7508 68.3348 89.7425C68.2968 89.7343 68.2552 89.7302 68.21 89.7302H68.193C68.1437 89.7302 68.1113 89.74 68.0959 89.7595C68.0815 89.779 68.0738 89.8114 68.0728 89.8566V90.3037H67.8847ZM68.8451 90.3037C68.7762 90.3037 68.7248 90.2898 68.6909 90.2621C68.658 90.2343 68.6416 90.1891 68.6416 90.1264V89.8104C68.6416 89.795 68.6426 89.7765 68.6447 89.7549C68.6478 89.7323 68.655 89.7102 68.6663 89.6886C68.6786 89.667 68.6986 89.649 68.7264 89.6346C68.7552 89.6202 68.7947 89.613 68.8451 89.613H69.2706C69.322 89.613 69.3616 89.6202 69.3893 89.6346C69.4171 89.649 69.4366 89.667 69.4479 89.6886C69.4602 89.7102 69.4674 89.7323 69.4695 89.7549C69.4726 89.7765 69.4741 89.795 69.4741 89.8104V90.1064C69.4741 90.1249 69.4726 90.1454 69.4695 90.168C69.4674 90.1907 69.4602 90.2122 69.4479 90.2328C69.4356 90.2533 69.4155 90.2703 69.3878 90.2837C69.36 90.297 69.321 90.3037 69.2706 90.3037H68.8451ZM68.9037 90.1711H69.212C69.2624 90.1711 69.2876 90.1506 69.2876 90.1095V89.8073C69.2876 89.7662 69.2624 89.7456 69.212 89.7456H68.9037C68.8543 89.7456 68.8297 89.7662 68.8297 89.8073V90.1095C68.8297 90.1506 68.8543 90.1711 68.9037 90.1711ZM69.6431 90.3037V89.613H69.7696L69.8312 89.6439C69.8744 89.6357 69.9263 89.6285 69.9869 89.6223C70.0476 89.6161 70.1169 89.613 70.1951 89.613H70.2721C70.3235 89.613 70.3631 89.6202 70.3908 89.6346C70.4186 89.649 70.4381 89.667 70.4494 89.6886C70.4618 89.7102 70.469 89.7323 70.471 89.7549C70.4741 89.7765 70.4756 89.795 70.4756 89.8104V90.3037H70.2876V89.8073C70.2876 89.7662 70.2629 89.7456 70.2136 89.7456H69.8775C69.8579 89.7456 69.8451 89.7477 69.8389 89.7518C69.8338 89.7549 69.8312 89.7641 69.8312 89.7795V90.3037H69.6431ZM70.9216 90.3037C70.8435 90.3037 70.79 90.2873 70.7613 90.2544C70.7325 90.2215 70.7181 90.1722 70.7181 90.1064V89.7456H70.5917V89.613H70.6564C70.676 89.613 70.6898 89.61 70.6981 89.6038C70.7073 89.5976 70.714 89.5853 70.7181 89.5668L70.7489 89.4018H70.9062V89.613H71.2268V89.7456H70.9062V90.1079C70.9062 90.1336 70.9123 90.1506 70.9247 90.1588C70.937 90.167 70.9555 90.1711 70.9802 90.1711H71.1976L71.213 90.2883C71.1914 90.2914 71.1585 90.295 71.1143 90.2991C71.0701 90.3022 71.0218 90.3037 70.9694 90.3037H70.9216ZM71.5385 90.3037C71.4871 90.3037 71.4475 90.297 71.4198 90.2837C71.392 90.2703 71.372 90.2533 71.3597 90.2328C71.3484 90.2122 71.3412 90.1907 71.3381 90.168C71.336 90.1454 71.335 90.1249 71.335 90.1064V89.8104C71.335 89.795 71.336 89.7765 71.3381 89.7549C71.3412 89.7323 71.3484 89.7102 71.3597 89.6886C71.372 89.667 71.392 89.649 71.4198 89.6346C71.4486 89.6202 71.4881 89.613 71.5385 89.613H71.87C71.9378 89.613 71.9907 89.6197 72.0287 89.6331C72.0678 89.6454 72.095 89.666 72.1105 89.6948C72.1269 89.7235 72.1351 89.7621 72.1351 89.8104V90.0385H71.8653C71.7728 90.0385 71.6973 90.0365 71.6387 90.0324C71.5811 90.0283 71.5426 90.0257 71.5231 90.0247V90.1095C71.522 90.1506 71.5467 90.1711 71.5971 90.1711H71.6757C71.7312 90.1711 71.7852 90.1706 71.8376 90.1696C71.891 90.1675 71.9398 90.1655 71.984 90.1634C72.0282 90.1603 72.0637 90.1578 72.0904 90.1557L72.1521 90.2559C72.1521 90.2878 72.0508 90.3037 71.8484 90.3037H71.5385ZM71.5231 89.906H71.947V89.8073C71.947 89.7867 71.9445 89.7723 71.9393 89.7641C71.9352 89.7559 71.9219 89.7508 71.8992 89.7487C71.8766 89.7467 71.8381 89.7456 71.7836 89.7456H71.5971C71.5477 89.7456 71.5231 89.7662 71.5231 89.8073V89.906ZM72.3064 90.3037V89.613H72.4328L72.4945 89.6439C72.5377 89.6357 72.5896 89.6285 72.6502 89.6223C72.7109 89.6161 72.7802 89.613 72.8583 89.613H72.9354C72.9868 89.613 73.0264 89.6202 73.0541 89.6346C73.0819 89.649 73.1014 89.667 73.1127 89.6886C73.125 89.7102 73.1322 89.7323 73.1343 89.7549C73.1374 89.7765 73.1389 89.795 73.1389 89.8104V90.3037H72.9508V89.8073C72.9508 89.7662 72.9262 89.7456 72.8768 89.7456H72.5408C72.5212 89.7456 72.5084 89.7477 72.5022 89.7518C72.4971 89.7549 72.4945 89.7641 72.4945 89.7795V90.3037H72.3064ZM73.5047 90.3037C73.4533 90.3037 73.4138 90.297 73.386 90.2837C73.3583 90.2703 73.3382 90.2533 73.3259 90.2328C73.3146 90.2122 73.3074 90.1907 73.3043 90.168C73.3022 90.1454 73.3012 90.1249 73.3012 90.1064V89.8104C73.3012 89.795 73.3022 89.7765 73.3043 89.7549C73.3074 89.7323 73.3146 89.7102 73.3259 89.6886C73.3382 89.667 73.3583 89.649 73.386 89.6346C73.4148 89.6202 73.4544 89.613 73.5047 89.613H73.5833C73.6779 89.613 73.754 89.6151 73.8115 89.6192C73.8701 89.6223 73.9148 89.6259 73.9456 89.63V89.3263H74.1337V90.3037H74.0073L73.9472 90.2729C73.904 90.2801 73.8521 90.2873 73.7915 90.2945C73.7308 90.3006 73.6609 90.3037 73.5818 90.3037H73.5047ZM73.5633 90.1711H73.8978C73.9194 90.1711 73.9328 90.1686 73.9379 90.1634C73.9431 90.1583 73.9456 90.1454 73.9456 90.1249V89.7564C73.9107 89.7544 73.8665 89.7523 73.8131 89.7503C73.7596 89.7472 73.7026 89.7456 73.6419 89.7456H73.5633C73.514 89.7456 73.4893 89.7662 73.4893 89.8073V90.1095C73.4893 90.1506 73.514 90.1711 73.5633 90.1711ZM74.8612 90.3037C74.8098 90.3037 74.7702 90.297 74.7425 90.2837C74.7147 90.2703 74.6947 90.2533 74.6824 90.2328C74.6711 90.2122 74.6639 90.1907 74.6608 90.168C74.6587 90.1454 74.6577 90.1249 74.6577 90.1064V89.8104C74.6577 89.795 74.6587 89.7765 74.6608 89.7549C74.6639 89.7323 74.6711 89.7102 74.6824 89.6886C74.6947 89.667 74.7147 89.649 74.7425 89.6346C74.7713 89.6202 74.8108 89.613 74.8612 89.613H75.1927C75.2605 89.613 75.3134 89.6197 75.3515 89.6331C75.3905 89.6454 75.4177 89.666 75.4332 89.6948C75.4496 89.7235 75.4578 89.7621 75.4578 89.8104V90.0385H75.188C75.0955 90.0385 75.02 90.0365 74.9614 90.0324C74.9039 90.0283 74.8653 90.0257 74.8458 90.0247V90.1095C74.8448 90.1506 74.8694 90.1711 74.9198 90.1711H74.9984C75.0539 90.1711 75.1079 90.1706 75.1603 90.1696C75.2137 90.1675 75.2626 90.1655 75.3067 90.1634C75.3509 90.1603 75.3864 90.1578 75.4131 90.1557L75.4748 90.2559C75.4748 90.2878 75.3736 90.3037 75.1711 90.3037H74.8612ZM74.8458 89.906H75.2697V89.8073C75.2697 89.7867 75.2672 89.7723 75.262 89.7641C75.2579 89.7559 75.2446 89.7508 75.222 89.7487C75.1993 89.7467 75.1608 89.7456 75.1063 89.7456H74.9198C74.8705 89.7456 74.8458 89.7662 74.8458 89.8073V89.906ZM75.6291 90.3037V89.613H75.7556L75.8172 89.6439C75.8604 89.6357 75.9123 89.6285 75.9729 89.6223C76.0336 89.6161 76.1029 89.613 76.1811 89.613H76.2581C76.3095 89.613 76.3491 89.6202 76.3768 89.6346C76.4046 89.649 76.4241 89.667 76.4354 89.6886C76.4478 89.7102 76.455 89.7323 76.457 89.7549C76.4601 89.7765 76.4616 89.795 76.4616 89.8104V90.3037H76.2736V89.8073C76.2736 89.7662 76.2489 89.7456 76.1996 89.7456H75.8635C75.8439 89.7456 75.8311 89.7477 75.8249 89.7518C75.8198 89.7549 75.8172 89.7641 75.8172 89.7795V90.3037H75.6291ZM77.1466 90.575C77.0335 90.575 76.9415 90.574 76.8706 90.572C76.7997 90.5699 76.7452 90.5668 76.7072 90.5627C76.6692 90.5586 76.6429 90.5535 76.6286 90.5473C76.6152 90.5411 76.6085 90.5344 76.6085 90.5273L76.6548 90.4116C76.6712 90.4168 76.7 90.4229 76.7411 90.4301C76.7832 90.4383 76.8367 90.4425 76.9014 90.4425H77.1651C77.2031 90.4425 77.2298 90.4368 77.2452 90.4255C77.2617 90.4142 77.2699 90.3942 77.2699 90.3654V90.2729C77.2257 90.2811 77.1733 90.2883 77.1126 90.2945C77.053 90.3006 76.9842 90.3037 76.9061 90.3037H76.829C76.7776 90.3037 76.738 90.297 76.7103 90.2837C76.6825 90.2703 76.6625 90.2533 76.6501 90.2328C76.6388 90.2122 76.6316 90.1907 76.6286 90.168C76.6265 90.1454 76.6255 90.1249 76.6255 90.1064V89.8104C76.6255 89.795 76.6265 89.7765 76.6286 89.7549C76.6316 89.7323 76.6388 89.7102 76.6501 89.6886C76.6625 89.667 76.6825 89.649 76.7103 89.6346C76.739 89.6202 76.7786 89.613 76.829 89.613H76.9076C77.0155 89.613 77.0993 89.6151 77.1589 89.6192C77.2195 89.6233 77.2637 89.6279 77.2915 89.6331L77.3316 89.613H77.458V90.3777C77.458 90.3962 77.4549 90.4168 77.4487 90.4394C77.4436 90.462 77.4328 90.4836 77.4164 90.5041C77.3999 90.5247 77.3763 90.5416 77.3454 90.555C77.3146 90.5684 77.274 90.575 77.2236 90.575H77.1466ZM76.8876 90.1711H77.2221C77.2457 90.1711 77.2596 90.1691 77.2637 90.165C77.2678 90.1608 77.2699 90.1475 77.2699 90.1249V89.7564C77.2349 89.7544 77.1908 89.7523 77.1373 89.7503C77.0839 89.7472 77.0268 89.7456 76.9662 89.7456H76.8876C76.8382 89.7456 76.8136 89.7662 76.8136 89.8073V90.1095C76.8125 90.1506 76.8372 90.1711 76.8876 90.1711ZM77.753 89.5159C77.715 89.5159 77.6872 89.5082 77.6697 89.4928C77.6523 89.4774 77.6435 89.4517 77.6435 89.4157C77.6435 89.3787 77.6518 89.353 77.6682 89.3386C77.6857 89.3232 77.7139 89.3155 77.753 89.3155C77.7921 89.3155 77.8203 89.3232 77.8378 89.3386C77.8553 89.353 77.864 89.3787 77.864 89.4157C77.864 89.4507 77.8553 89.4763 77.8378 89.4928C77.8203 89.5082 77.7921 89.5159 77.753 89.5159ZM77.659 90.3037V89.613H77.847V90.3037H77.659ZM78.0485 90.3037V89.613H78.1749L78.2366 89.6439C78.2798 89.6357 78.3317 89.6285 78.3923 89.6223C78.453 89.6161 78.5223 89.613 78.6004 89.613H78.6775C78.7289 89.613 78.7685 89.6202 78.7962 89.6346C78.824 89.649 78.8435 89.667 78.8548 89.6886C78.8672 89.7102 78.8744 89.7323 78.8764 89.7549C78.8795 89.7765 78.881 89.795 78.881 89.8104V90.3037H78.6929V89.8073C78.6929 89.7662 78.6683 89.7456 78.6189 89.7456H78.2829C78.2633 89.7456 78.2505 89.7477 78.2443 89.7518C78.2392 89.7549 78.2366 89.7641 78.2366 89.7795V90.3037H78.0485ZM79.2468 90.3037C79.1954 90.3037 79.1559 90.297 79.1281 90.2837C79.1004 90.2703 79.0803 90.2533 79.068 90.2328C79.0567 90.2122 79.0495 90.1907 79.0464 90.168C79.0444 90.1454 79.0433 90.1249 79.0433 90.1064V89.8104C79.0433 89.795 79.0444 89.7765 79.0464 89.7549C79.0495 89.7323 79.0567 89.7102 79.068 89.6886C79.0803 89.667 79.1004 89.649 79.1281 89.6346C79.1569 89.6202 79.1965 89.613 79.2468 89.613H79.5783C79.6461 89.613 79.699 89.6197 79.7371 89.6331C79.7761 89.6454 79.8034 89.666 79.8188 89.6948C79.8352 89.7235 79.8435 89.7621 79.8435 89.8104V90.0385H79.5737C79.4812 90.0385 79.4056 90.0365 79.347 90.0324C79.2895 90.0283 79.2509 90.0257 79.2314 90.0247V90.1095C79.2304 90.1506 79.255 90.1711 79.3054 90.1711H79.384C79.4395 90.1711 79.4935 90.1706 79.5459 90.1696C79.5994 90.1675 79.6482 90.1655 79.6924 90.1634C79.7366 90.1603 79.772 90.1578 79.7987 90.1557L79.8604 90.2559C79.8604 90.2878 79.7592 90.3037 79.5567 90.3037H79.2468ZM79.2314 89.906H79.6554V89.8073C79.6554 89.7867 79.6528 89.7723 79.6477 89.7641C79.6435 89.7559 79.6302 89.7508 79.6076 89.7487C79.585 89.7467 79.5464 89.7456 79.492 89.7456H79.3054C79.2561 89.7456 79.2314 89.7662 79.2314 89.8073V89.906ZM80.2028 90.3037C80.1515 90.3037 80.1119 90.297 80.0841 90.2837C80.0564 90.2703 80.0363 90.2533 80.024 90.2328C80.0127 90.2122 80.0055 90.1907 80.0024 90.168C80.0004 90.1454 79.9993 90.1249 79.9993 90.1064V89.8104C79.9993 89.795 80.0004 89.7765 80.0024 89.7549C80.0055 89.7323 80.0127 89.7102 80.024 89.6886C80.0363 89.667 80.0564 89.649 80.0841 89.6346C80.1129 89.6202 80.1525 89.613 80.2028 89.613H80.5343C80.6021 89.613 80.6551 89.6197 80.6931 89.6331C80.7321 89.6454 80.7594 89.666 80.7748 89.6948C80.7912 89.7235 80.7995 89.7621 80.7995 89.8104V90.0385H80.5297C80.4372 90.0385 80.3616 90.0365 80.303 90.0324C80.2455 90.0283 80.207 90.0257 80.1874 90.0247V90.1095C80.1864 90.1506 80.2111 90.1711 80.2614 90.1711H80.34C80.3955 90.1711 80.4495 90.1706 80.5019 90.1696C80.5554 90.1675 80.6042 90.1655 80.6484 90.1634C80.6926 90.1603 80.728 90.1578 80.7548 90.1557L80.8164 90.2559C80.8164 90.2878 80.7152 90.3037 80.5127 90.3037H80.2028ZM80.1874 89.906H80.6114V89.8073C80.6114 89.7867 80.6088 89.7723 80.6037 89.7641C80.5996 89.7559 80.5862 89.7508 80.5636 89.7487C80.541 89.7467 80.5024 89.7456 80.448 89.7456H80.2614C80.2121 89.7456 80.1874 89.7662 80.1874 89.8073V89.906ZM80.9708 90.3037V89.613H81.0972L81.1558 89.6439C81.1825 89.6295 81.2113 89.6182 81.2421 89.61C81.2729 89.6017 81.312 89.5976 81.3593 89.5976C81.4343 89.5976 81.4949 89.6058 81.5412 89.6223C81.5885 89.6387 81.6198 89.6511 81.6352 89.6593L81.5813 89.7934C81.5689 89.7873 81.5484 89.7795 81.5196 89.7703C81.4919 89.76 81.459 89.7508 81.4209 89.7425C81.3829 89.7343 81.3413 89.7302 81.2961 89.7302H81.2791C81.2298 89.7302 81.1974 89.74 81.182 89.7595C81.1676 89.779 81.1599 89.8114 81.1589 89.8566V90.3037H80.9708ZM81.7916 90.3037C81.7535 90.3037 81.7258 90.296 81.7083 90.2806C81.6908 90.2652 81.6821 90.2395 81.6821 90.2035C81.6821 90.1665 81.6903 90.1408 81.7068 90.1264C81.7242 90.111 81.7525 90.1033 81.7916 90.1033C81.8306 90.1033 81.8589 90.111 81.8764 90.1264C81.8938 90.1408 81.9026 90.1665 81.9026 90.2035C81.9026 90.2384 81.8938 90.2641 81.8764 90.2806C81.8589 90.296 81.8306 90.3037 81.7916 90.3037Z" fill="white"/>
<circle cx="74.5165" cy="73.7372" r="25.5316" stroke="black" stroke-width="3.77942"/>
<defs>
<radialGradient id="paint0_diamond_277_1117" cx="0" cy="0" r="1" gradientUnits="userSpaceOnUse" gradientTransform="translate(88.5771 31.8847) rotate(132.974) scale(69.741 92.0581)">
<stop stop-color="#BFBEBE"/>
<stop offset="1" stop-color="#2D2D2D"/>
</radialGradient>
<radialGradient id="paint1_diamond_277_1117" cx="0" cy="0" r="1" gradientUnits="userSpaceOnUse" gradientTransform="translate(146.244 74.4879) rotate(180) scale(72.4879 95.6841)">
<stop stop-color="#BFBEBE"/>
<stop offset="0.51" stop-color="#363636"/>
</radialGradient>
<linearGradient id="paint2_linear_277_1117" x1="74.1218" y1="2" x2="74.1218" y2="146.244" gradientUnits="userSpaceOnUse">
<stop offset="0.235"/>
<stop offset="0.499748" stop-color="white"/>
<stop offset="0.87"/>
</linearGradient>
<radialGradient id="paint3_diamond_277_1117" cx="0" cy="0" r="1" gradientUnits="userSpaceOnUse" gradientTransform="translate(87.6738 34.5243) rotate(132.974) scale(65.3821 86.3045)">
<stop stop-color="#BFBEBE"/>
<stop offset="1" stop-color="#2D2D2D"/>
</radialGradient>
<radialGradient id="paint4_diamond_277_1117" cx="0" cy="0" r="1" gradientUnits="userSpaceOnUse" gradientTransform="translate(141.736 74.4648) rotate(180) scale(67.9574 89.7038)">
<stop stop-color="#BFBEBE"/>
<stop offset="0.51" stop-color="#363636"/>
</radialGradient>
<linearGradient id="paint5_linear_277_1117" x1="74.122" y1="6.50732" x2="74.122" y2="141.736" gradientUnits="userSpaceOnUse">
<stop offset="0.235"/>
<stop offset="0.499748" stop-color="white"/>
<stop offset="0.87"/>
</linearGradient>
<radialGradient id="paint6_diamond_277_1117" cx="0" cy="0" r="1" gradientUnits="userSpaceOnUse" gradientTransform="translate(86.6197 37.6044) rotate(132.974) scale(60.2969 79.5919)">
<stop stop-color="#BFBEBE"/>
<stop offset="1" stop-color="#2D2D2D"/>
</radialGradient>
<radialGradient id="paint7_diamond_277_1117" cx="0" cy="0" r="1" gradientUnits="userSpaceOnUse" gradientTransform="translate(136.477 74.4384) rotate(180) scale(62.6719 82.7269)">
<stop stop-color="#BFBEBE"/>
<stop offset="0.51" stop-color="#363636"/>
</radialGradient>
<linearGradient id="paint8_linear_277_1117" x1="74.1219" y1="11.7666" x2="74.1219" y2="136.477" gradientUnits="userSpaceOnUse">
<stop offset="0.235"/>
<stop offset="0.499748" stop-color="white"/>
<stop offset="0.87"/>
</linearGradient>
<radialGradient id="paint9_diamond_277_1117" cx="0" cy="0" r="1" gradientUnits="userSpaceOnUse" gradientTransform="translate(17.0254 74.4117) scale(56.8066 74.9848)">
<stop stop-color="#BFBEBE"/>
<stop offset="1"/>
</radialGradient>
<radialGradient id="paint10_diamond_277_1117" cx="0" cy="0" r="1" gradientUnits="userSpaceOnUse" gradientTransform="translate(131.218 74.4117) rotate(180) scale(57.3863 75.7499)">
<stop stop-color="#BFBEBE"/>
<stop offset="1"/>
</radialGradient>
<linearGradient id="paint11_linear_277_1117" x1="91.1508" y1="17.0254" x2="57.0929" y2="131.218" gradientUnits="userSpaceOnUse">
<stop offset="0.199226" stop-color="#7A7A7A"/>
<stop offset="0.499748" stop-color="white" stop-opacity="0.66"/>
<stop offset="0.8019" stop-color="#7A7A7A"/>
</linearGradient>
<radialGradient id="paint12_diamond_277_1117" cx="0" cy="0" r="1" gradientUnits="userSpaceOnUse" gradientTransform="translate(21.533 74.3885) scale(52.3219 69.0649)">
<stop stop-color="#BFBEBE"/>
<stop offset="1"/>
</radialGradient>
<radialGradient id="paint13_diamond_277_1117" cx="0" cy="0" r="1" gradientUnits="userSpaceOnUse" gradientTransform="translate(126.711 74.3885) rotate(180) scale(52.8558 69.7696)">
<stop stop-color="#BFBEBE"/>
<stop offset="1"/>
</radialGradient>
<linearGradient id="paint14_linear_277_1117" x1="84.4418" y1="21.5327" x2="63.8018" y2="126.71" gradientUnits="userSpaceOnUse">
<stop offset="0.199226" stop-color="#7A7A7A"/>
<stop offset="0.499748" stop-color="white" stop-opacity="0.66"/>
<stop offset="0.8019" stop-color="#7A7A7A"/>
</linearGradient>
<radialGradient id="paint15_diamond_277_1117" cx="0" cy="0" r="1" gradientUnits="userSpaceOnUse" gradientTransform="translate(25.2896 74.3694) scale(48.5846 64.1317)">
<stop stop-color="#BFBEBE"/>
<stop offset="1"/>
</radialGradient>
<radialGradient id="paint16_diamond_277_1117" cx="0" cy="0" r="1" gradientUnits="userSpaceOnUse" gradientTransform="translate(122.955 74.3694) rotate(180) scale(49.0804 64.7861)">
<stop stop-color="#BFBEBE"/>
<stop offset="1"/>
</radialGradient>
<linearGradient id="paint17_linear_277_1117" x1="62.578" y1="25.2891" x2="85.6661" y2="122.954" gradientUnits="userSpaceOnUse">
<stop offset="0.199226" stop-color="#7A7A7A"/>
<stop offset="0.499748" stop-color="white" stop-opacity="0.66"/>
<stop offset="0.8019" stop-color="#7A7A7A"/>
</linearGradient>
<radialGradient id="paint18_diamond_277_1117" cx="0" cy="0" r="1" gradientUnits="userSpaceOnUse" gradientTransform="translate(29.7971 74.3467) scale(44.0999 58.2118)">
<stop stop-color="#BFBEBE"/>
<stop offset="1"/>
</radialGradient>
<radialGradient id="paint19_diamond_277_1117" cx="0" cy="0" r="1" gradientUnits="userSpaceOnUse" gradientTransform="translate(118.447 74.3467) rotate(180) scale(44.5499 58.8058)">
<stop stop-color="#BFBEBE"/>
<stop offset="1"/>
</radialGradient>
<linearGradient id="paint20_linear_277_1117" x1="82.1018" y1="29.7969" x2="66.1422" y2="118.447" gradientUnits="userSpaceOnUse">
<stop offset="0.199226" stop-color="#7A7A7A"/>
<stop offset="0.499748" stop-color="white" stop-opacity="0.66"/>
<stop offset="0.8019" stop-color="#7A7A7A"/>
</linearGradient>
<radialGradient id="paint21_diamond_277_1117" cx="0" cy="0" r="1" gradientUnits="userSpaceOnUse" gradientTransform="translate(33.5535 74.3277) scale(40.3626 53.2786)">
<stop stop-color="#BFBEBE"/>
<stop offset="1"/>
</radialGradient>
<radialGradient id="paint22_diamond_277_1117" cx="0" cy="0" r="1" gradientUnits="userSpaceOnUse" gradientTransform="translate(114.691 74.3277) rotate(180) scale(40.7745 53.8223)">
<stop stop-color="#BFBEBE"/>
<stop offset="1"/>
</radialGradient>
<linearGradient id="paint23_linear_277_1117" x1="68.0723" y1="33.5532" x2="80.1717" y2="114.69" gradientUnits="userSpaceOnUse">
<stop offset="0.199226" stop-color="#7A7A7A"/>
<stop offset="0.499748" stop-color="white" stop-opacity="0.66"/>
<stop offset="0.8019" stop-color="#7A7A7A"/>
</linearGradient>
<radialGradient id="paint24_diamond_277_1117" cx="0" cy="0" r="1" gradientUnits="userSpaceOnUse" gradientTransform="translate(38.061 74.305) scale(35.8779 47.3588)">
<stop stop-color="#BFBEBE"/>
<stop offset="1"/>
</radialGradient>
<radialGradient id="paint25_diamond_277_1117" cx="0" cy="0" r="1" gradientUnits="userSpaceOnUse" gradientTransform="translate(110.183 74.305) rotate(180) scale(36.244 47.8421)">
<stop stop-color="#BFBEBE"/>
<stop offset="1" stop-color="#1B1B1B"/>
</radialGradient>
<linearGradient id="paint26_linear_277_1117" x1="78.8023" y1="38.061" x2="69.4416" y2="110.183" gradientUnits="userSpaceOnUse">
<stop offset="0.199226" stop-color="#7A7A7A"/>
<stop offset="0.499748" stop-color="white" stop-opacity="0.66"/>
<stop offset="0.8019" stop-color="#7A7A7A"/>
</linearGradient>
<radialGradient id="paint27_diamond_277_1117" cx="0" cy="0" r="1" gradientUnits="userSpaceOnUse" gradientTransform="translate(80.5967 55.2033) rotate(132.974) scale(31.2381 41.2343)">
<stop stop-color="#BFBEBE"/>
<stop offset="1" stop-color="#2D2D2D"/>
</radialGradient>
<radialGradient id="paint28_diamond_277_1117" cx="0" cy="0" r="1" gradientUnits="userSpaceOnUse" gradientTransform="translate(106.427 74.2859) rotate(180) scale(32.4686 42.8585)">
<stop stop-color="#BFBEBE"/>
<stop offset="0.51" stop-color="#363636"/>
</radialGradient>
<linearGradient id="paint29_linear_277_1117" x1="74.122" y1="41.8174" x2="74.122" y2="106.427" gradientUnits="userSpaceOnUse">
<stop offset="0.235"/>
<stop offset="0.499748" stop-color="white"/>
<stop offset="0.87"/>
</linearGradient>
<radialGradient id="paint30_diamond_277_1117" cx="0" cy="0" r="1" gradientUnits="userSpaceOnUse" gradientTransform="translate(79.8438 57.4026) rotate(132.974) scale(27.6058 36.4397)">
<stop stop-color="#BFBEBE"/>
<stop offset="1" stop-color="#2D2D2D"/>
</radialGradient>
<radialGradient id="paint31_diamond_277_1117" cx="0" cy="0" r="1" gradientUnits="userSpaceOnUse" gradientTransform="translate(102.67 74.2664) rotate(180) scale(28.6931 37.8749)">
<stop stop-color="#BFBEBE"/>
<stop offset="0.51" stop-color="#363636"/>
</radialGradient>
<linearGradient id="paint32_linear_277_1117" x1="74.122" y1="45.5732" x2="74.122" y2="102.67" gradientUnits="userSpaceOnUse">
<stop offset="0.235"/>
<stop offset="0.499748" stop-color="white"/>
<stop offset="0.87"/>
</linearGradient>
</defs>
</svg>
