<svg width="846" height="846" viewBox="0 0 846 846" fill="none" xmlns="http://www.w3.org/2000/svg">
<circle cx="423.189" cy="422.752" r="421.535" stroke="url(#paint0_diamond_242_2153)" stroke-opacity="0.5" stroke-width="1.92524"/>
<circle cx="423.189" cy="422.752" r="421.535" stroke="url(#paint1_diamond_242_2153)" stroke-opacity="0.5" stroke-width="1.92524"/>
<circle cx="423.189" cy="422.752" r="421.535" stroke="url(#paint2_linear_242_2153)" stroke-opacity="0.37" stroke-width="1.92524"/>
<circle cx="423.189" cy="422.753" r="395.129" stroke="url(#paint3_diamond_242_2153)" stroke-opacity="0.5" stroke-width="1.92524"/>
<circle cx="423.189" cy="422.753" r="395.129" stroke="url(#paint4_diamond_242_2153)" stroke-opacity="0.5" stroke-width="1.92524"/>
<circle cx="423.189" cy="422.753" r="395.129" stroke="url(#paint5_linear_242_2153)" stroke-opacity="0.37" stroke-width="1.92524"/>
<path d="M787.511 422.752C787.511 623.961 624.399 787.074 423.19 787.074C221.98 787.074 58.8679 623.961 58.8679 422.752C58.8679 221.543 221.98 58.4304 423.19 58.4304C624.399 58.4304 787.511 221.543 787.511 422.752Z" stroke="url(#paint6_diamond_242_2153)" stroke-opacity="0.5" stroke-width="1.92524"/>
<path d="M787.511 422.752C787.511 623.961 624.399 787.074 423.19 787.074C221.98 787.074 58.8679 623.961 58.8679 422.752C58.8679 221.543 221.98 58.4304 423.19 58.4304C624.399 58.4304 787.511 221.543 787.511 422.752Z" stroke="url(#paint7_diamond_242_2153)" stroke-opacity="0.5" stroke-width="1.92524"/>
<path d="M787.511 422.752C787.511 623.961 624.399 787.074 423.19 787.074C221.98 787.074 58.8679 623.961 58.8679 422.752C58.8679 221.543 221.98 58.4304 423.19 58.4304C624.399 58.4304 787.511 221.543 787.511 422.752Z" stroke="url(#paint8_linear_242_2153)" stroke-opacity="0.37" stroke-width="1.92524"/>
<circle cx="423.189" cy="422.752" r="333.515" stroke="url(#paint9_diamond_242_2153)" stroke-opacity="0.5" stroke-width="1.92524"/>
<circle cx="423.189" cy="422.752" r="333.515" stroke="url(#paint10_diamond_242_2153)" stroke-opacity="0.5" stroke-width="1.92524"/>
<circle cx="423.189" cy="422.752" r="333.515" stroke="url(#paint11_linear_242_2153)" stroke-opacity="0.37" stroke-width="1.92524"/>
<circle cx="423.189" cy="422.752" r="307.108" stroke="url(#paint12_diamond_242_2153)" stroke-opacity="0.5" stroke-width="1.92524"/>
<circle cx="423.189" cy="422.752" r="307.108" stroke="url(#paint13_diamond_242_2153)" stroke-opacity="0.5" stroke-width="1.92524"/>
<circle cx="423.189" cy="422.752" r="307.108" stroke="url(#paint14_linear_242_2153)" stroke-opacity="0.37" stroke-width="1.92524"/>
<circle cx="423.189" cy="422.752" r="285.103" stroke="url(#paint15_diamond_242_2153)" stroke-opacity="0.5" stroke-width="1.92524"/>
<circle cx="423.189" cy="422.752" r="285.103" stroke="url(#paint16_diamond_242_2153)" stroke-opacity="0.5" stroke-width="1.92524"/>
<circle cx="423.189" cy="422.752" r="285.103" stroke="url(#paint17_linear_242_2153)" stroke-opacity="0.37" stroke-width="1.92524"/>
<path d="M681.886 422.753C681.886 565.627 566.064 681.45 423.189 681.45C280.315 681.45 164.492 565.627 164.492 422.753C164.492 279.878 280.315 164.055 423.189 164.055C566.064 164.055 681.886 279.878 681.886 422.753Z" stroke="url(#paint18_diamond_242_2153)" stroke-opacity="0.5" stroke-width="1.92524"/>
<path d="M681.886 422.753C681.886 565.627 566.064 681.45 423.189 681.45C280.315 681.45 164.492 565.627 164.492 422.753C164.492 279.878 280.315 164.055 423.189 164.055C566.064 164.055 681.886 279.878 681.886 422.753Z" stroke="url(#paint19_diamond_242_2153)" stroke-opacity="0.5" stroke-width="1.92524"/>
<path d="M681.886 422.753C681.886 565.627 566.064 681.45 423.189 681.45C280.315 681.45 164.492 565.627 164.492 422.753C164.492 279.878 280.315 164.055 423.189 164.055C566.064 164.055 681.886 279.878 681.886 422.753Z" stroke="url(#paint20_linear_242_2153)" stroke-opacity="0.37" stroke-width="1.92524"/>
<path d="M659.881 422.752C659.881 553.474 553.91 659.445 423.189 659.445C292.468 659.445 186.497 553.474 186.497 422.752C186.497 292.031 292.468 186.06 423.189 186.06C553.91 186.06 659.881 292.031 659.881 422.752Z" stroke="url(#paint21_diamond_242_2153)" stroke-opacity="0.5" stroke-width="1.92524"/>
<path d="M659.881 422.752C659.881 553.474 553.91 659.445 423.189 659.445C292.468 659.445 186.497 553.474 186.497 422.752C186.497 292.031 292.468 186.06 423.189 186.06C553.91 186.06 659.881 292.031 659.881 422.752Z" stroke="url(#paint22_diamond_242_2153)" stroke-opacity="0.5" stroke-width="1.92524"/>
<path d="M659.881 422.752C659.881 553.474 553.91 659.445 423.189 659.445C292.468 659.445 186.497 553.474 186.497 422.752C186.497 292.031 292.468 186.06 423.189 186.06C553.91 186.06 659.881 292.031 659.881 422.752Z" stroke="url(#paint23_linear_242_2153)" stroke-opacity="0.37" stroke-width="1.92524"/>
<circle cx="423.189" cy="422.753" r="210.286" stroke="url(#paint24_diamond_242_2153)" stroke-opacity="0.5" stroke-width="1.92524"/>
<circle cx="423.189" cy="422.753" r="210.286" stroke="url(#paint25_diamond_242_2153)" stroke-opacity="0.5" stroke-width="1.92524"/>
<circle cx="423.189" cy="422.753" r="210.286" stroke="url(#paint26_linear_242_2153)" stroke-opacity="0.37" stroke-width="1.92524"/>
<path d="M611.47 422.752C611.47 526.737 527.174 611.033 423.189 611.033C319.204 611.033 234.908 526.737 234.908 422.752C234.908 318.768 319.204 234.471 423.189 234.471C527.174 234.471 611.47 318.768 611.47 422.752Z" stroke="url(#paint27_diamond_242_2153)" stroke-opacity="0.5" stroke-width="1.92524"/>
<path d="M611.47 422.752C611.47 526.737 527.174 611.033 423.189 611.033C319.204 611.033 234.908 526.737 234.908 422.752C234.908 318.768 319.204 234.471 423.189 234.471C527.174 234.471 611.47 318.768 611.47 422.752Z" stroke="url(#paint28_diamond_242_2153)" stroke-opacity="0.5" stroke-width="1.92524"/>
<path d="M611.47 422.752C611.47 526.737 527.174 611.033 423.189 611.033C319.204 611.033 234.908 526.737 234.908 422.752C234.908 318.768 319.204 234.471 423.189 234.471C527.174 234.471 611.47 318.768 611.47 422.752Z" stroke="url(#paint29_linear_242_2153)" stroke-opacity="0.37" stroke-width="1.92524"/>
<path d="M589.465 422.752C589.465 514.584 515.02 589.028 423.189 589.028C331.357 589.028 256.913 514.584 256.913 422.752C256.913 330.921 331.357 256.476 423.189 256.476C515.02 256.476 589.465 330.921 589.465 422.752Z" stroke="url(#paint30_diamond_242_2153)" stroke-opacity="0.5" stroke-width="1.92524"/>
<path d="M589.465 422.752C589.465 514.584 515.02 589.028 423.189 589.028C331.357 589.028 256.913 514.584 256.913 422.752C256.913 330.921 331.357 256.476 423.189 256.476C515.02 256.476 589.465 330.921 589.465 422.752Z" stroke="url(#paint31_diamond_242_2153)" stroke-opacity="0.5" stroke-width="1.92524"/>
<path d="M589.465 422.752C589.465 514.584 515.02 589.028 423.189 589.028C331.357 589.028 256.913 514.584 256.913 422.752C256.913 330.921 331.357 256.476 423.189 256.476C515.02 256.476 589.465 330.921 589.465 422.752Z" stroke="url(#paint32_linear_242_2153)" stroke-opacity="0.37" stroke-width="1.92524"/>
<path fill-rule="evenodd" clip-rule="evenodd" d="M425.515 559.147C502.079 559.147 564.147 497.079 564.147 420.515C564.147 343.95 502.079 281.883 425.515 281.883C348.95 281.883 286.883 343.95 286.883 420.515C286.883 497.079 348.95 559.147 425.515 559.147ZM425.515 433.378C432.619 433.378 438.378 427.619 438.378 420.515C438.378 413.411 432.619 407.652 425.515 407.652C418.411 407.652 412.652 413.411 412.652 420.515C412.652 427.619 418.411 433.378 425.515 433.378Z" fill="#DD5746"/>
<circle cx="425.501" cy="420.501" r="53.1425" stroke="white" stroke-width="0.451562"/>
<path d="M343.251 352.412V342.853H345.397V346.82H351.769V342.853H353.915V352.412H351.769V348.381H345.397V352.412H343.251ZM358.181 352.412C357.639 352.412 357.222 352.342 356.929 352.201C356.636 352.06 356.425 351.881 356.295 351.664C356.176 351.448 356.1 351.22 356.067 350.982C356.046 350.743 356.035 350.526 356.035 350.331V347.21C356.035 347.048 356.046 346.852 356.067 346.625C356.1 346.386 356.176 346.153 356.295 345.926C356.425 345.698 356.636 345.509 356.929 345.357C357.232 345.205 357.65 345.129 358.181 345.129H361.676C362.391 345.129 362.949 345.2 363.35 345.341C363.762 345.471 364.049 345.687 364.212 345.991C364.385 346.294 364.472 346.701 364.472 347.21V349.616H361.627C360.652 349.616 359.855 349.594 359.237 349.551C358.63 349.508 358.224 349.481 358.018 349.47V350.364C358.007 350.797 358.267 351.014 358.798 351.014H359.627C360.213 351.014 360.782 351.009 361.334 350.998C361.898 350.976 362.413 350.954 362.879 350.933C363.345 350.9 363.719 350.873 364 350.852L364.651 351.908C364.651 352.244 363.583 352.412 361.448 352.412H358.181ZM358.018 348.218H362.489V347.178C362.489 346.961 362.462 346.809 362.407 346.722C362.364 346.636 362.223 346.582 361.985 346.56C361.746 346.538 361.34 346.527 360.765 346.527H358.798C358.278 346.527 358.018 346.744 358.018 347.178V348.218ZM366.441 352.412V343.406L366.278 342.106H368.424V352.412H366.441ZM370.537 352.412V343.406L370.374 342.106H372.52V352.412H370.537ZM376.453 352.412C375.727 352.412 375.185 352.266 374.827 351.973C374.481 351.681 374.307 351.204 374.307 350.543V347.21C374.307 347.048 374.318 346.852 374.34 346.625C374.372 346.386 374.448 346.153 374.567 345.926C374.697 345.698 374.909 345.509 375.201 345.357C375.505 345.205 375.922 345.129 376.453 345.129H380.94C381.482 345.129 381.899 345.205 382.192 345.357C382.484 345.509 382.69 345.698 382.809 345.926C382.939 346.153 383.015 346.386 383.037 346.625C383.069 346.852 383.086 347.048 383.086 347.21V350.331C383.086 350.526 383.069 350.743 383.037 350.982C383.015 351.22 382.939 351.448 382.809 351.664C382.679 351.881 382.468 352.06 382.175 352.201C381.883 352.342 381.471 352.412 380.94 352.412H376.453ZM377.071 351.014H380.322C380.853 351.014 381.119 350.797 381.119 350.364V347.178C381.119 346.744 380.853 346.527 380.322 346.527H377.071C376.551 346.527 376.291 346.744 376.291 347.178V350.364C376.291 350.797 376.551 351.014 377.071 351.014ZM391.122 352.412L387.627 342.87H389.903L392.195 349.112L392.569 350.689H392.732L392.943 349.584L395.105 342.87H397.869L400.128 349.584L400.421 350.689H400.583L400.957 349.112L403.087 342.87H405.363L405.2 343.845L401.851 352.412H399.088L396.877 346.023L396.552 344.983H396.389L396.08 346.023L393.886 352.412H391.122ZM407.838 352.412C407.112 352.412 406.57 352.266 406.213 351.973C405.866 351.681 405.693 351.204 405.693 350.543V347.21C405.693 347.048 405.703 346.852 405.725 346.625C405.758 346.386 405.834 346.153 405.953 345.926C406.083 345.698 406.294 345.509 406.587 345.357C406.89 345.205 407.307 345.129 407.838 345.129H412.325C412.867 345.129 413.284 345.205 413.577 345.357C413.87 345.509 414.075 345.698 414.195 345.926C414.325 346.153 414.401 346.386 414.422 346.625C414.455 346.852 414.471 347.048 414.471 347.21V350.331C414.471 350.526 414.455 350.743 414.422 350.982C414.401 351.22 414.325 351.448 414.195 351.664C414.065 351.881 413.853 352.06 413.561 352.201C413.268 352.342 412.856 352.412 412.325 352.412H407.838ZM408.456 351.014H411.707C412.238 351.014 412.504 350.797 412.504 350.364V347.178C412.504 346.744 412.238 346.527 411.707 346.527H408.456C407.936 346.527 407.676 346.744 407.676 347.178V350.364C407.676 350.797 407.936 351.014 408.456 351.014ZM416.253 352.412V345.129H417.586L418.204 345.454C418.486 345.303 418.789 345.183 419.115 345.097C419.44 345.01 419.852 344.967 420.35 344.967C421.141 344.967 421.781 345.053 422.268 345.227C422.767 345.4 423.097 345.53 423.26 345.617L422.691 347.031C422.561 346.966 422.344 346.885 422.041 346.787C421.748 346.679 421.401 346.582 421 346.495C420.599 346.408 420.16 346.365 419.684 346.365H419.505C418.985 346.365 418.643 346.468 418.481 346.674C418.329 346.88 418.248 347.221 418.237 347.698V352.412H416.253ZM424.56 352.412V343.406L424.397 342.106H426.543V352.412H424.56ZM430.477 352.412C429.935 352.412 429.517 352.342 429.225 352.201C428.932 352.06 428.721 351.881 428.591 351.664C428.472 351.448 428.396 351.22 428.363 350.982C428.342 350.743 428.331 350.526 428.331 350.331V347.21C428.331 347.048 428.342 346.852 428.363 346.625C428.396 346.386 428.472 346.153 428.591 345.926C428.721 345.698 428.932 345.509 429.225 345.357C429.528 345.205 429.946 345.129 430.477 345.129H431.306C432.303 345.129 433.105 345.151 433.712 345.194C434.329 345.227 434.801 345.265 435.126 345.308V342.106H437.109V352.412H435.776L435.142 352.087C434.687 352.163 434.14 352.239 433.5 352.315C432.861 352.38 432.124 352.412 431.289 352.412H430.477ZM431.094 351.014H434.622C434.849 351.014 434.99 350.987 435.045 350.933C435.099 350.879 435.126 350.743 435.126 350.526V346.641C434.757 346.619 434.291 346.598 433.728 346.576C433.164 346.544 432.563 346.527 431.923 346.527H431.094C430.574 346.527 430.314 346.744 430.314 347.178V350.364C430.314 350.797 430.574 351.014 431.094 351.014ZM439.648 354.655C439.42 354.72 439.285 354.688 439.241 354.558C439.209 354.439 439.23 354.314 439.306 354.184C439.371 354.097 439.458 353.956 439.566 353.761C439.686 353.566 439.799 353.344 439.908 353.095C440.016 352.856 440.087 352.613 440.119 352.363C439.837 352.32 439.631 352.217 439.501 352.054C439.371 351.892 439.306 351.643 439.306 351.307C439.306 350.927 439.393 350.662 439.566 350.51C439.751 350.348 440.049 350.266 440.46 350.266C440.905 350.266 441.235 350.364 441.452 350.559C441.68 350.743 441.793 351.052 441.793 351.486C441.793 351.8 441.723 352.13 441.582 352.477C441.452 352.824 441.279 353.149 441.062 353.453C440.845 353.767 440.612 354.027 440.363 354.233C440.114 354.45 439.875 354.59 439.648 354.655ZM447.964 352.412V342.853H450.11V352.412H447.964ZM452.483 344.251C452.255 344.316 452.12 344.289 452.077 344.17C452.044 344.04 452.066 343.91 452.142 343.78C452.207 343.693 452.293 343.552 452.402 343.357C452.521 343.162 452.635 342.946 452.743 342.707C452.852 342.458 452.922 342.209 452.955 341.959C452.673 341.916 452.467 341.813 452.337 341.65C452.207 341.488 452.142 341.239 452.142 340.903C452.142 340.523 452.228 340.258 452.402 340.106C452.586 339.944 452.884 339.862 453.296 339.862C453.74 339.862 454.071 339.96 454.288 340.155C454.515 340.339 454.629 340.648 454.629 341.082C454.629 341.396 454.558 341.726 454.418 342.073C454.288 342.42 454.114 342.75 453.897 343.065C453.681 343.368 453.448 343.628 453.198 343.845C452.949 344.051 452.711 344.186 452.483 344.251ZM456.91 352.412V345.129H458.243L458.649 345.324C458.964 345.27 459.348 345.227 459.804 345.194C460.259 345.151 460.801 345.129 461.429 345.129H462.242C462.556 345.129 462.86 345.173 463.152 345.259C463.445 345.335 463.662 345.449 463.803 345.601C464.084 345.46 464.475 345.346 464.973 345.259C465.472 345.173 466.122 345.129 466.924 345.129H467.737C468.279 345.129 468.696 345.205 468.988 345.357C469.281 345.509 469.487 345.698 469.606 345.926C469.736 346.153 469.812 346.386 469.834 346.625C469.866 346.852 469.882 347.048 469.882 347.21V352.412H467.899V347.178C467.899 346.744 467.639 346.527 467.119 346.527H464.843C464.67 346.527 464.55 346.549 464.485 346.592C464.42 346.636 464.388 346.733 464.388 346.885V352.412H462.405V347.178C462.405 346.744 462.144 346.527 461.624 346.527H459.381C459.175 346.527 459.04 346.549 458.975 346.592C458.92 346.625 458.893 346.722 458.893 346.885V352.412H456.91ZM474.35 352.412L479.113 342.853H482.315L487.062 352.412H484.559L483.6 350.348H477.78L476.723 352.412H474.35ZM478.365 348.754H482.998L480.771 344.316H480.609L478.365 348.754ZM488.041 352.412V345.129H489.374L489.992 345.454C490.274 345.303 490.577 345.183 490.902 345.097C491.228 345.01 491.639 344.967 492.138 344.967C492.929 344.967 493.568 345.053 494.056 345.227C494.555 345.4 494.885 345.53 495.048 345.617L494.479 347.031C494.349 346.966 494.132 346.885 493.829 346.787C493.536 346.679 493.189 346.582 492.788 346.495C492.387 346.408 491.948 346.365 491.471 346.365H491.293C490.772 346.365 490.431 346.468 490.268 346.674C490.117 346.88 490.035 347.221 490.025 347.698V352.412H488.041ZM497.34 344.105C496.939 344.105 496.646 344.024 496.462 343.861C496.277 343.699 496.185 343.428 496.185 343.049C496.185 342.658 496.272 342.387 496.445 342.236C496.63 342.073 496.928 341.992 497.34 341.992C497.751 341.992 498.049 342.073 498.234 342.236C498.418 342.387 498.51 342.658 498.51 343.049C498.51 343.417 498.418 343.688 498.234 343.861C498.049 344.024 497.751 344.105 497.34 344.105ZM496.348 352.412V345.129H498.331V352.412H496.348ZM502.553 352.412C501.729 352.412 501.133 352.222 500.765 351.843C500.396 351.453 500.212 350.922 500.212 350.25C500.212 349.546 500.402 349.004 500.781 348.624C501.171 348.245 501.762 348.055 502.553 348.055H503.382C504.195 348.055 504.926 348.077 505.576 348.12C506.227 348.164 506.763 348.207 507.186 348.251V347.178C507.186 347.08 507.175 346.983 507.153 346.885C507.132 346.777 507.067 346.69 506.958 346.625C506.85 346.56 506.666 346.527 506.406 346.527H505.593C504.411 346.527 503.425 346.549 502.634 346.592C501.843 346.625 501.307 346.657 501.025 346.69L500.846 345.454C500.846 345.303 501.258 345.211 502.081 345.178C502.905 345.146 504.281 345.129 506.21 345.129H507.023C507.565 345.129 507.982 345.205 508.275 345.357C508.568 345.509 508.774 345.698 508.893 345.926C509.023 346.153 509.099 346.386 509.12 346.625C509.153 346.852 509.169 347.048 509.169 347.21V352.412H507.836L507.202 352.087C506.747 352.163 506.2 352.239 505.56 352.315C504.921 352.38 504.189 352.412 503.366 352.412H502.553ZM502.975 351.014H506.698C506.937 351.014 507.077 350.992 507.121 350.949C507.164 350.906 507.186 350.77 507.186 350.543V349.291H502.975C502.683 349.291 502.477 349.361 502.358 349.502C502.249 349.643 502.195 349.865 502.195 350.169C502.195 350.472 502.26 350.689 502.39 350.819C502.52 350.949 502.715 351.014 502.975 351.014Z" fill="#2A1919"/>
<path d="M380.413 328.643V311.649H384.228V318.701H395.557V311.649H399.372V328.643H395.557V321.475H384.228V328.643H380.413ZM409.007 328.643C407.658 328.643 406.599 328.45 405.828 328.065C405.057 327.679 404.508 327.101 404.181 326.331C403.873 325.56 403.718 324.606 403.718 323.469V316.794C403.718 315.676 403.873 314.742 404.181 313.99C404.489 313.22 405.029 312.642 405.799 312.256C406.57 311.852 407.639 311.649 409.007 311.649H417.446C418.795 311.649 419.845 311.852 420.596 312.256C421.367 312.642 421.906 313.22 422.214 313.99C422.542 314.742 422.706 315.676 422.706 316.794V323.469C422.706 325.165 422.33 326.456 421.579 327.342C420.827 328.209 419.45 328.643 417.446 328.643H409.007ZM409.845 325.868H416.637C417.35 325.868 417.899 325.685 418.284 325.319C418.689 324.953 418.891 324.452 418.891 323.816V316.447C418.891 315.888 418.689 315.416 418.284 315.031C417.879 314.626 417.33 314.424 416.637 314.424H409.845C409.152 314.424 408.593 314.607 408.169 314.973C407.745 315.339 407.533 315.83 407.533 316.447V323.816C407.533 324.471 407.736 324.982 408.14 325.348C408.564 325.695 409.132 325.868 409.845 325.868ZM427.326 328.643V313.961L427.037 311.649H431.43L437.961 323.209L444.724 311.649H448.625V328.643H444.811V317.863H444.493L443.366 320.377L439.724 326.909H436.227L432.586 320.377L431.43 317.863H431.141V328.643H427.326ZM453.256 328.643V311.649H471.232V314.424H457.071V318.412H467.879V321.273H457.071V325.868H471.347L472.503 328.325C472.503 328.402 472.243 328.479 471.723 328.556C471.203 328.614 470.307 328.643 469.035 328.643H453.256Z" fill="#2A1919"/>
<path d="M344.179 507.975V502.664H345.372V507.975H344.179ZM346.636 507.975V503.929H347.376L347.738 504.109C347.991 504.061 348.295 504.019 348.65 503.983C349.005 503.947 349.411 503.929 349.869 503.929H350.321C350.622 503.929 350.853 503.971 351.016 504.055C351.179 504.139 351.293 504.245 351.359 504.371C351.431 504.498 351.474 504.627 351.486 504.759C351.504 504.886 351.513 504.994 351.513 505.085V507.975H350.411V505.067C350.411 504.826 350.266 504.705 349.977 504.705H348.009C347.894 504.705 347.819 504.717 347.783 504.741C347.753 504.759 347.738 504.814 347.738 504.904V507.975H346.636ZM356.11 507.975C355.652 507.975 355.339 507.878 355.17 507.686C355.002 507.493 354.918 507.204 354.918 506.819V504.705H354.177V503.929H354.556C354.671 503.929 354.752 503.911 354.8 503.874C354.854 503.838 354.893 503.766 354.918 503.658L355.098 502.691H356.019V503.929H357.898V504.705H356.019V506.828C356.019 506.978 356.055 507.078 356.128 507.126C356.2 507.174 356.308 507.198 356.453 507.198H357.726L357.817 507.884C357.69 507.902 357.497 507.923 357.239 507.948C356.98 507.966 356.697 507.975 356.39 507.975H356.11ZM358.622 507.975V502.122H359.723V504.109C359.976 504.061 360.28 504.019 360.636 503.983C360.991 503.947 361.397 503.929 361.855 503.929H362.306C362.607 503.929 362.839 503.971 363.002 504.055C363.164 504.139 363.279 504.245 363.345 504.371C363.417 504.498 363.459 504.627 363.471 504.759C363.49 504.886 363.499 504.994 363.499 505.085V507.975H362.397V505.067C362.397 504.826 362.252 504.705 361.963 504.705H359.994C359.88 504.705 359.805 504.717 359.769 504.741C359.739 504.759 359.723 504.814 359.723 504.904V507.975H358.622ZM364.54 507.975V503.929H365.28L365.623 504.109C365.78 504.025 365.948 503.959 366.129 503.911C366.31 503.862 366.539 503.838 366.815 503.838C367.255 503.838 367.61 503.886 367.881 503.983C368.158 504.079 368.342 504.151 368.432 504.2L368.116 504.985C368.044 504.949 367.923 504.904 367.755 504.85C367.592 504.79 367.4 504.735 367.177 504.687C366.954 504.639 366.71 504.615 366.445 504.615H366.346C366.057 504.615 365.867 504.672 365.777 504.787C365.693 504.901 365.647 505.091 365.641 505.356V507.975H364.54ZM370.166 507.975C369.865 507.975 369.633 507.935 369.47 507.857C369.308 507.779 369.19 507.68 369.118 507.559C369.052 507.439 369.01 507.312 368.992 507.18C368.98 507.047 368.974 506.927 368.974 506.819V505.085C368.974 504.994 368.98 504.886 368.992 504.759C369.01 504.627 369.052 504.498 369.118 504.371C369.19 504.245 369.308 504.139 369.47 504.055C369.639 503.971 369.871 503.929 370.166 503.929H372.108C372.505 503.929 372.815 503.968 373.038 504.046C373.267 504.118 373.426 504.239 373.516 504.407C373.613 504.576 373.661 504.802 373.661 505.085V506.421H372.08C371.539 506.421 371.096 506.409 370.753 506.385C370.416 506.361 370.19 506.346 370.076 506.34V506.837C370.07 507.078 370.214 507.198 370.509 507.198H370.97C371.295 507.198 371.611 507.195 371.918 507.189C372.231 507.177 372.517 507.165 372.776 507.153C373.035 507.135 373.243 507.12 373.399 507.108L373.76 507.695C373.76 507.881 373.167 507.975 371.981 507.975H370.166ZM370.076 505.645H372.559V505.067C372.559 504.946 372.544 504.862 372.514 504.814C372.49 504.766 372.412 504.735 372.279 504.723C372.147 504.711 371.921 504.705 371.602 504.705H370.509C370.22 504.705 370.076 504.826 370.076 505.067V505.645ZM375.766 507.975C375.465 507.975 375.233 507.935 375.071 507.857C374.908 507.779 374.791 507.68 374.719 507.559C374.652 507.439 374.61 507.312 374.592 507.18C374.58 507.047 374.574 506.927 374.574 506.819V505.085C374.574 504.994 374.58 504.886 374.592 504.759C374.61 504.627 374.652 504.498 374.719 504.371C374.791 504.245 374.908 504.139 375.071 504.055C375.239 503.971 375.471 503.929 375.766 503.929H377.708C378.105 503.929 378.415 503.968 378.638 504.046C378.867 504.118 379.027 504.239 379.117 504.407C379.213 504.576 379.261 504.802 379.261 505.085V506.421H377.681C377.139 506.421 376.697 506.409 376.353 506.385C376.016 506.361 375.79 506.346 375.676 506.34V506.837C375.67 507.078 375.814 507.198 376.109 507.198H376.57C376.895 507.198 377.211 507.195 377.518 507.189C377.831 507.177 378.117 507.165 378.376 507.153C378.635 507.135 378.843 507.12 378.999 507.108L379.361 507.695C379.361 507.881 378.768 507.975 377.582 507.975H375.766ZM375.676 505.645H378.16V505.067C378.16 504.946 378.145 504.862 378.114 504.814C378.09 504.766 378.012 504.735 377.88 504.723C377.747 504.711 377.521 504.705 377.202 504.705H376.109C375.82 504.705 375.676 504.826 375.676 505.067V505.645ZM382.249 507.975V503.929H382.99L383.216 504.037C383.39 504.007 383.604 503.983 383.857 503.965C384.11 503.941 384.411 503.929 384.76 503.929H385.212C385.386 503.929 385.555 503.953 385.717 504.001C385.88 504.043 386 504.106 386.079 504.191C386.235 504.112 386.452 504.049 386.729 504.001C387.006 503.953 387.367 503.929 387.813 503.929H388.264C388.565 503.929 388.797 503.971 388.96 504.055C389.122 504.139 389.237 504.245 389.303 504.371C389.375 504.498 389.417 504.627 389.429 504.759C389.447 504.886 389.456 504.994 389.456 505.085V507.975H388.354V505.067C388.354 504.826 388.21 504.705 387.921 504.705H386.657C386.56 504.705 386.494 504.717 386.458 504.741C386.422 504.766 386.404 504.82 386.404 504.904V507.975H385.302V505.067C385.302 504.826 385.157 504.705 384.868 504.705H383.622C383.508 504.705 383.432 504.717 383.396 504.741C383.366 504.759 383.351 504.814 383.351 504.904V507.975H382.249ZM391.597 507.975C391.194 507.975 390.893 507.893 390.694 507.731C390.502 507.568 390.405 507.303 390.405 506.936V505.085C390.405 504.994 390.411 504.886 390.423 504.759C390.441 504.627 390.484 504.498 390.55 504.371C390.622 504.245 390.739 504.139 390.902 504.055C391.071 503.971 391.302 503.929 391.597 503.929H394.09C394.391 503.929 394.623 503.971 394.785 504.055C394.948 504.139 395.062 504.245 395.129 504.371C395.201 504.498 395.243 504.627 395.255 504.759C395.273 504.886 395.282 504.994 395.282 505.085V506.819C395.282 506.927 395.273 507.047 395.255 507.18C395.243 507.312 395.201 507.439 395.129 507.559C395.056 507.68 394.939 507.779 394.776 507.857C394.614 507.935 394.385 507.975 394.09 507.975H391.597ZM391.941 507.198H393.747C394.042 507.198 394.189 507.078 394.189 506.837V505.067C394.189 504.826 394.042 504.705 393.747 504.705H391.941C391.652 504.705 391.507 504.826 391.507 505.067V506.837C391.507 507.078 391.652 507.198 391.941 507.198ZM396.272 507.975V503.929H397.013L397.374 504.109C397.627 504.061 397.931 504.019 398.286 503.983C398.642 503.947 399.048 503.929 399.506 503.929H399.957C400.258 503.929 400.49 503.971 400.653 504.055C400.815 504.139 400.93 504.245 400.996 504.371C401.068 504.498 401.11 504.627 401.122 504.759C401.14 504.886 401.149 504.994 401.149 505.085V507.975H400.048V505.067C400.048 504.826 399.903 504.705 399.614 504.705H397.645C397.531 504.705 397.456 504.717 397.419 504.741C397.389 504.759 397.374 504.814 397.374 504.904V507.975H396.272ZM403.762 507.975C403.304 507.975 402.991 507.878 402.823 507.686C402.654 507.493 402.57 507.204 402.57 506.819V504.705H401.829V503.929H402.208C402.323 503.929 402.404 503.911 402.452 503.874C402.506 503.838 402.546 503.766 402.57 503.658L402.75 502.691H403.672V503.929H405.55V504.705H403.672V506.828C403.672 506.978 403.708 507.078 403.78 507.126C403.852 507.174 403.961 507.198 404.105 507.198H405.378L405.469 507.884C405.342 507.902 405.15 507.923 404.891 507.948C404.632 507.966 404.349 507.975 404.042 507.975H403.762ZM406.274 507.975V502.122H407.376V504.109C407.629 504.061 407.933 504.019 408.288 503.983C408.643 503.947 409.049 503.929 409.507 503.929H409.959C410.26 503.929 410.491 503.971 410.654 504.055C410.817 504.139 410.931 504.245 410.997 504.371C411.069 504.498 411.112 504.627 411.124 504.759C411.142 504.886 411.151 504.994 411.151 505.085V507.975H410.049V505.067C410.049 504.826 409.904 504.705 409.615 504.705H407.647C407.532 504.705 407.457 504.717 407.421 504.741C407.391 504.759 407.376 504.814 407.376 504.904V507.975H406.274ZM413.212 507.975C412.809 507.975 412.523 507.954 412.354 507.911C412.186 507.869 412.101 507.827 412.101 507.785L412.372 507.108C412.547 507.126 412.866 507.147 413.33 507.171C413.799 507.189 414.377 507.198 415.064 507.198H415.515C415.666 507.198 415.759 507.159 415.795 507.081C415.837 506.996 415.858 506.885 415.858 506.746C415.858 506.608 415.834 506.496 415.786 506.412C415.744 506.328 415.654 506.286 415.515 506.286H413.294C412.872 506.286 412.568 506.207 412.381 506.051C412.195 505.888 412.101 505.648 412.101 505.328V504.967C412.101 504.883 412.111 504.784 412.129 504.669C412.147 504.555 412.192 504.44 412.264 504.326C412.336 504.212 412.454 504.118 412.616 504.046C412.779 503.968 413.005 503.929 413.294 503.929H415.786C416.147 503.929 416.403 503.95 416.554 503.992C416.704 504.034 416.78 504.076 416.78 504.118L416.689 504.796C416.515 504.778 416.193 504.759 415.723 504.741C415.253 504.717 414.678 504.705 413.998 504.705H413.546C413.396 504.705 413.3 504.747 413.257 504.832C413.221 504.91 413.203 505.003 413.203 505.112C413.203 505.226 413.221 505.322 413.257 505.401C413.3 505.473 413.396 505.509 413.546 505.509H415.768C416.178 505.509 416.479 505.593 416.671 505.762C416.864 505.931 416.96 506.144 416.96 506.403V506.936C416.96 507.044 416.951 507.159 416.933 507.279C416.921 507.4 416.879 507.514 416.807 507.622C416.735 507.725 416.617 507.809 416.455 507.875C416.292 507.941 416.063 507.975 415.768 507.975H413.212ZM418.186 509.221C418.059 509.257 417.984 509.239 417.96 509.167C417.942 509.101 417.954 509.031 417.996 508.959C418.032 508.911 418.08 508.833 418.141 508.724C418.207 508.616 418.27 508.492 418.33 508.354C418.391 508.221 418.43 508.086 418.448 507.948C418.291 507.923 418.177 507.866 418.105 507.776C418.032 507.686 417.996 507.547 417.996 507.36C417.996 507.15 418.044 507.002 418.141 506.918C418.243 506.828 418.409 506.782 418.637 506.782C418.884 506.782 419.068 506.837 419.188 506.945C419.315 507.047 419.378 507.219 419.378 507.46C419.378 507.634 419.339 507.818 419.261 508.011C419.188 508.203 419.092 508.384 418.972 508.553C418.851 508.727 418.722 508.872 418.583 508.986C418.445 509.107 418.312 509.185 418.186 509.221ZM422.806 507.975V502.664H423.998V507.975H422.806ZM427.247 507.975V502.122H428.349V504.109C428.602 504.061 428.906 504.019 429.261 503.983C429.616 503.947 430.022 503.929 430.48 503.929H430.932C431.233 503.929 431.464 503.971 431.627 504.055C431.79 504.139 431.904 504.245 431.97 504.371C432.042 504.498 432.085 504.627 432.097 504.759C432.115 504.886 432.124 504.994 432.124 505.085V507.975H431.022V505.067C431.022 504.826 430.877 504.705 430.588 504.705H428.62C428.505 504.705 428.43 504.717 428.394 504.741C428.364 504.759 428.349 504.814 428.349 504.904V507.975H427.247ZM434.267 507.975C433.863 507.975 433.562 507.893 433.363 507.731C433.171 507.568 433.074 507.303 433.074 506.936V505.085C433.074 504.994 433.08 504.886 433.093 504.759C433.111 504.627 433.153 504.498 433.219 504.371C433.291 504.245 433.409 504.139 433.571 504.055C433.74 503.971 433.972 503.929 434.267 503.929H436.759C437.06 503.929 437.292 503.971 437.455 504.055C437.617 504.139 437.732 504.245 437.798 504.371C437.87 504.498 437.912 504.627 437.924 504.759C437.942 504.886 437.951 504.994 437.951 505.085V506.819C437.951 506.927 437.942 507.047 437.924 507.18C437.912 507.312 437.87 507.439 437.798 507.559C437.726 507.68 437.608 507.779 437.446 507.857C437.283 507.935 437.054 507.975 436.759 507.975H434.267ZM434.61 507.198H436.416C436.711 507.198 436.859 507.078 436.859 506.837V505.067C436.859 504.826 436.711 504.705 436.416 504.705H434.61C434.321 504.705 434.176 504.826 434.176 505.067V506.837C434.176 507.078 434.321 507.198 434.61 507.198ZM438.942 509.654V503.929H439.682L439.908 504.046C440.179 504.016 440.501 503.989 440.874 503.965C441.254 503.941 441.684 503.929 442.166 503.929H442.626C442.927 503.929 443.159 503.968 443.322 504.046C443.484 504.124 443.599 504.224 443.665 504.344C443.737 504.464 443.779 504.591 443.791 504.723C443.809 504.856 443.818 504.976 443.818 505.085V506.819C443.818 506.909 443.809 507.02 443.791 507.153C443.779 507.279 443.737 507.406 443.665 507.532C443.599 507.659 443.484 507.764 443.322 507.848C443.159 507.932 442.927 507.975 442.626 507.975H442.166C441.708 507.975 441.302 507.963 440.947 507.938C440.591 507.914 440.29 507.89 440.043 507.866V509.654H438.942ZM440.323 507.198H442.283C442.398 507.198 442.497 507.168 442.581 507.108C442.671 507.047 442.717 506.957 442.717 506.837V505.067C442.723 504.934 442.69 504.841 442.617 504.787C442.551 504.732 442.44 504.705 442.283 504.705H441.832C441.446 504.705 441.103 504.714 440.802 504.732C440.507 504.744 440.254 504.759 440.043 504.778V506.918C440.043 507.05 440.055 507.132 440.08 507.162C440.11 507.186 440.191 507.198 440.323 507.198ZM445.917 507.975C445.616 507.975 445.384 507.935 445.222 507.857C445.059 507.779 444.942 507.68 444.87 507.559C444.803 507.439 444.761 507.312 444.743 507.18C444.731 507.047 444.725 506.927 444.725 506.819V505.085C444.725 504.994 444.731 504.886 444.743 504.759C444.761 504.627 444.803 504.498 444.87 504.371C444.942 504.245 445.059 504.139 445.222 504.055C445.39 503.971 445.622 503.929 445.917 503.929H447.859C448.256 503.929 448.566 503.968 448.789 504.046C449.018 504.118 449.178 504.239 449.268 504.407C449.364 504.576 449.412 504.802 449.412 505.085V506.421H447.832C447.29 506.421 446.847 506.409 446.504 506.385C446.167 506.361 445.941 506.346 445.827 506.34V506.837C445.821 507.078 445.965 507.198 446.26 507.198H446.721C447.046 507.198 447.362 507.195 447.669 507.189C447.982 507.177 448.268 507.165 448.527 507.153C448.786 507.135 448.994 507.12 449.15 507.108L449.512 507.695C449.512 507.881 448.919 507.975 447.733 507.975H445.917ZM445.827 505.645H448.311V505.067C448.311 504.946 448.295 504.862 448.265 504.814C448.241 504.766 448.163 504.735 448.031 504.723C447.898 504.711 447.672 504.705 447.353 504.705H446.26C445.971 504.705 445.827 504.826 445.827 505.067V505.645ZM453.972 507.975C453.514 507.975 453.201 507.878 453.032 507.686C452.864 507.493 452.78 507.204 452.78 506.819V504.705H452.039V503.929H452.418C452.533 503.929 452.614 503.911 452.662 503.874C452.716 503.838 452.755 503.766 452.78 503.658L452.96 502.691H453.881V503.929H455.76V504.705H453.881V506.828C453.881 506.978 453.918 507.078 453.99 507.126C454.062 507.174 454.17 507.198 454.315 507.198H455.588L455.679 507.884C455.552 507.902 455.36 507.923 455.101 507.948C454.842 507.966 454.559 507.975 454.252 507.975H453.972ZM457.586 507.975C457.182 507.975 456.881 507.893 456.682 507.731C456.49 507.568 456.393 507.303 456.393 506.936V505.085C456.393 504.994 456.399 504.886 456.411 504.759C456.43 504.627 456.472 504.498 456.538 504.371C456.61 504.245 456.728 504.139 456.89 504.055C457.059 503.971 457.291 503.929 457.586 503.929H460.078C460.379 503.929 460.611 503.971 460.774 504.055C460.936 504.139 461.051 504.245 461.117 504.371C461.189 504.498 461.231 504.627 461.243 504.759C461.261 504.886 461.27 504.994 461.27 505.085V506.819C461.27 506.927 461.261 507.047 461.243 507.18C461.231 507.312 461.189 507.439 461.117 507.559C461.045 507.68 460.927 507.779 460.765 507.857C460.602 507.935 460.373 507.975 460.078 507.975H457.586ZM457.929 507.198H459.735C460.03 507.198 460.178 507.078 460.178 506.837V505.067C460.178 504.826 460.03 504.705 459.735 504.705H457.929C457.64 504.705 457.495 504.826 457.495 505.067V506.837C457.495 507.078 457.64 507.198 457.929 507.198ZM464.245 507.975V502.249H465.347V504.037C465.606 504.007 465.91 503.983 466.259 503.965C466.614 503.941 467.018 503.929 467.469 503.929H467.93C468.231 503.929 468.463 503.968 468.625 504.046C468.788 504.124 468.902 504.224 468.968 504.344C469.041 504.464 469.083 504.591 469.095 504.723C469.113 504.856 469.122 504.976 469.122 505.085V506.819C469.122 506.909 469.113 507.02 469.095 507.153C469.083 507.279 469.041 507.406 468.968 507.532C468.902 507.659 468.788 507.764 468.625 507.848C468.463 507.932 468.231 507.975 467.93 507.975H467.469C466.969 507.975 466.533 507.963 466.16 507.938C465.786 507.908 465.476 507.878 465.229 507.848L464.986 507.975H464.245ZM465.627 507.198H467.587C467.876 507.198 468.02 507.078 468.02 506.837V505.067C468.026 504.934 467.999 504.841 467.939 504.787C467.879 504.732 467.761 504.705 467.587 504.705H467.135C466.75 504.705 466.406 504.714 466.105 504.732C465.81 504.744 465.558 504.759 465.347 504.778V506.918C465.347 507.044 465.359 507.123 465.383 507.153C465.413 507.183 465.494 507.198 465.627 507.198ZM471.221 507.975C470.92 507.975 470.688 507.935 470.525 507.857C470.363 507.779 470.245 507.68 470.173 507.559C470.107 507.439 470.065 507.312 470.047 507.18C470.035 507.047 470.028 506.927 470.028 506.819V505.085C470.028 504.994 470.035 504.886 470.047 504.759C470.065 504.627 470.107 504.498 470.173 504.371C470.245 504.245 470.363 504.139 470.525 504.055C470.694 503.971 470.926 503.929 471.221 503.929H473.162C473.56 503.929 473.87 503.968 474.093 504.046C474.321 504.118 474.481 504.239 474.571 504.407C474.668 504.576 474.716 504.802 474.716 505.085V506.421H473.135C472.593 506.421 472.151 506.409 471.808 506.385C471.47 506.361 471.245 506.346 471.13 506.34V506.837C471.124 507.078 471.269 507.198 471.564 507.198H472.024C472.35 507.198 472.666 507.195 472.973 507.189C473.286 507.177 473.572 507.165 473.831 507.153C474.09 507.135 474.297 507.12 474.454 507.108L474.815 507.695C474.815 507.881 474.222 507.975 473.036 507.975H471.221ZM471.13 505.645H473.614V505.067C473.614 504.946 473.599 504.862 473.569 504.814C473.545 504.766 473.466 504.735 473.334 504.723C473.201 504.711 472.976 504.705 472.657 504.705H471.564C471.275 504.705 471.13 504.826 471.13 505.067V505.645ZM476.821 507.975C476.52 507.975 476.288 507.935 476.126 507.857C475.963 507.779 475.846 507.68 475.773 507.559C475.707 507.439 475.665 507.312 475.647 507.18C475.635 507.047 475.629 506.927 475.629 506.819V505.085C475.629 504.994 475.635 504.886 475.647 504.759C475.665 504.627 475.707 504.498 475.773 504.371C475.846 504.245 475.963 504.139 476.126 504.055C476.294 503.971 476.526 503.929 476.821 503.929H478.076C478.829 503.929 479.362 503.95 479.675 503.992C479.994 504.028 480.154 504.067 480.154 504.109L479.973 504.796C479.804 504.784 479.591 504.772 479.332 504.759C479.073 504.741 478.793 504.729 478.492 504.723C478.197 504.711 477.908 504.705 477.625 504.705H477.164C476.875 504.705 476.731 504.826 476.731 505.067V506.837C476.725 507.078 476.869 507.198 477.164 507.198H477.625C477.95 507.198 478.266 507.195 478.573 507.189C478.886 507.177 479.172 507.165 479.431 507.153C479.69 507.135 479.898 507.12 480.054 507.108L480.415 507.695C480.415 507.881 479.822 507.975 478.636 507.975H476.821ZM482.148 507.975C481.745 507.975 481.444 507.893 481.245 507.731C481.052 507.568 480.956 507.303 480.956 506.936V505.085C480.956 504.994 480.962 504.886 480.974 504.759C480.992 504.627 481.034 504.498 481.1 504.371C481.173 504.245 481.29 504.139 481.453 504.055C481.621 503.971 481.853 503.929 482.148 503.929H484.641C484.942 503.929 485.174 503.971 485.336 504.055C485.499 504.139 485.613 504.245 485.679 504.371C485.752 504.498 485.794 504.627 485.806 504.759C485.824 504.886 485.833 504.994 485.833 505.085V506.819C485.833 506.927 485.824 507.047 485.806 507.18C485.794 507.312 485.752 507.439 485.679 507.559C485.607 507.68 485.49 507.779 485.327 507.857C485.165 507.935 484.936 507.975 484.641 507.975H482.148ZM482.491 507.198H484.298C484.593 507.198 484.74 507.078 484.74 506.837V505.067C484.74 504.826 484.593 504.705 484.298 504.705H482.491C482.202 504.705 482.058 504.826 482.058 505.067V506.837C482.058 507.078 482.202 507.198 482.491 507.198ZM486.823 507.975V503.929H487.564L487.789 504.037C487.964 504.007 488.178 503.983 488.431 503.965C488.684 503.941 488.985 503.929 489.334 503.929H489.785C489.96 503.929 490.129 503.953 490.291 504.001C490.454 504.043 490.574 504.106 490.652 504.191C490.809 504.112 491.026 504.049 491.303 504.001C491.58 503.953 491.941 503.929 492.386 503.929H492.838C493.139 503.929 493.371 503.971 493.533 504.055C493.696 504.139 493.81 504.245 493.877 504.371C493.949 504.498 493.991 504.627 494.003 504.759C494.021 504.886 494.03 504.994 494.03 505.085V507.975H492.928V505.067C492.928 504.826 492.784 504.705 492.495 504.705H491.23C491.134 504.705 491.068 504.717 491.032 504.741C490.996 504.766 490.977 504.82 490.977 504.904V507.975H489.876V505.067C489.876 504.826 489.731 504.705 489.442 504.705H488.196C488.081 504.705 488.006 504.717 487.97 504.741C487.94 504.759 487.925 504.814 487.925 504.904V507.975H486.823ZM496.171 507.975C495.87 507.975 495.638 507.935 495.476 507.857C495.313 507.779 495.196 507.68 495.124 507.559C495.057 507.439 495.015 507.312 494.997 507.18C494.985 507.047 494.979 506.927 494.979 506.819V505.085C494.979 504.994 494.985 504.886 494.997 504.759C495.015 504.627 495.057 504.498 495.124 504.371C495.196 504.245 495.313 504.139 495.476 504.055C495.644 503.971 495.876 503.929 496.171 503.929H498.113C498.51 503.929 498.82 503.968 499.043 504.046C499.272 504.118 499.431 504.239 499.522 504.407C499.618 504.576 499.666 504.802 499.666 505.085V506.421H498.086C497.544 506.421 497.101 506.409 496.758 506.385C496.421 506.361 496.195 506.346 496.081 506.34V506.837C496.075 507.078 496.219 507.198 496.514 507.198H496.975C497.3 507.198 497.616 507.195 497.923 507.189C498.236 507.177 498.522 507.165 498.781 507.153C499.04 507.135 499.248 507.12 499.404 507.108L499.766 507.695C499.766 507.881 499.173 507.975 497.986 507.975H496.171ZM496.081 505.645H498.564V505.067C498.564 504.946 498.549 504.862 498.519 504.814C498.495 504.766 498.417 504.735 498.285 504.723C498.152 504.711 497.926 504.705 497.607 504.705H496.514C496.225 504.705 496.081 504.826 496.081 505.067V505.645ZM503.819 507.975C503.362 507.975 503.031 507.869 502.826 507.659C502.621 507.442 502.519 507.147 502.519 506.773C502.519 506.382 502.624 506.081 502.835 505.87C503.052 505.66 503.38 505.554 503.819 505.554H504.28C504.731 505.554 505.138 505.566 505.499 505.59C505.86 505.614 506.158 505.639 506.393 505.663V505.067C506.393 505.012 506.387 504.958 506.375 504.904C506.363 504.844 506.327 504.796 506.267 504.759C506.207 504.723 506.104 504.705 505.96 504.705H505.508C504.852 504.705 504.304 504.717 503.864 504.741C503.425 504.759 503.127 504.778 502.97 504.796L502.871 504.109C502.871 504.025 503.1 503.974 503.557 503.956C504.015 503.938 504.78 503.929 505.851 503.929H506.303C506.604 503.929 506.836 503.971 506.998 504.055C507.161 504.139 507.275 504.245 507.341 504.371C507.414 504.498 507.456 504.627 507.468 504.759C507.486 504.886 507.495 504.994 507.495 505.085V507.975H506.754L506.402 507.794C506.149 507.836 505.845 507.878 505.49 507.92C505.135 507.957 504.728 507.975 504.271 507.975H503.819ZM504.054 507.198H506.122C506.255 507.198 506.333 507.186 506.357 507.162C506.381 507.138 506.393 507.062 506.393 506.936V506.241H504.054C503.892 506.241 503.777 506.28 503.711 506.358C503.651 506.436 503.621 506.56 503.621 506.728C503.621 506.897 503.657 507.017 503.729 507.09C503.801 507.162 503.91 507.198 504.054 507.198ZM382.704 518.975V515.705H382.144V514.938H382.704V514.134C382.704 513.929 382.743 513.739 382.821 513.565C382.905 513.39 383.041 513.249 383.228 513.14C383.42 513.032 383.673 512.978 383.986 512.978H384.438C385.16 512.978 385.678 513.011 385.991 513.077C386.31 513.143 386.47 513.201 386.47 513.249L386.199 513.935C386.097 513.893 385.913 513.854 385.648 513.818C385.383 513.776 385.064 513.755 384.691 513.755H384.239C384.089 513.755 383.977 513.782 383.905 513.836C383.839 513.89 383.806 513.983 383.806 514.116V514.938H385.684V515.705H383.806V518.975H382.704ZM386.65 518.975V514.929H387.391L387.734 515.109C387.891 515.025 388.059 514.959 388.24 514.911C388.42 514.862 388.649 514.838 388.926 514.838C389.366 514.838 389.721 514.886 389.992 514.983C390.269 515.079 390.452 515.151 390.543 515.2L390.227 515.985C390.154 515.949 390.034 515.904 389.865 515.85C389.703 515.79 389.51 515.735 389.287 515.687C389.065 515.639 388.821 515.615 388.556 515.615H388.457C388.168 515.615 387.978 515.672 387.888 515.787C387.803 515.901 387.758 516.091 387.752 516.356V518.975H386.65ZM392.277 518.975C391.873 518.975 391.572 518.893 391.373 518.731C391.181 518.568 391.084 518.303 391.084 517.936V516.085C391.084 515.994 391.09 515.886 391.102 515.759C391.121 515.627 391.163 515.498 391.229 515.371C391.301 515.245 391.419 515.139 391.581 515.055C391.75 514.971 391.982 514.929 392.277 514.929H394.769C395.07 514.929 395.302 514.971 395.465 515.055C395.627 515.139 395.742 515.245 395.808 515.371C395.88 515.498 395.922 515.627 395.934 515.759C395.952 515.886 395.961 515.994 395.961 516.085V517.819C395.961 517.927 395.952 518.047 395.934 518.18C395.922 518.312 395.88 518.439 395.808 518.559C395.736 518.68 395.618 518.779 395.456 518.857C395.293 518.935 395.064 518.975 394.769 518.975H392.277ZM392.62 518.198H394.426C394.721 518.198 394.869 518.078 394.869 517.837V516.067C394.869 515.826 394.721 515.705 394.426 515.705H392.62C392.331 515.705 392.186 515.826 392.186 516.067V517.837C392.186 518.078 392.331 518.198 392.62 518.198ZM396.952 518.975V514.929H397.692L398.053 515.109C398.306 515.061 398.61 515.019 398.966 514.983C399.321 514.947 399.727 514.929 400.185 514.929H400.636C400.937 514.929 401.169 514.971 401.332 515.055C401.494 515.139 401.609 515.245 401.675 515.371C401.747 515.498 401.789 515.627 401.801 515.759C401.819 515.886 401.828 515.994 401.828 516.085V518.975H400.727V516.067C400.727 515.826 400.582 515.705 400.293 515.705H398.324C398.21 515.705 398.135 515.717 398.099 515.741C398.068 515.759 398.053 515.814 398.053 515.904V518.975H396.952ZM404.441 518.975C403.983 518.975 403.67 518.878 403.502 518.686C403.333 518.493 403.249 518.204 403.249 517.819V515.705H402.508V514.929H402.888C403.002 514.929 403.083 514.911 403.131 514.874C403.186 514.838 403.225 514.766 403.249 514.658L403.429 513.691H404.351V514.929H406.229V515.705H404.351V517.828C404.351 517.978 404.387 518.078 404.459 518.126C404.531 518.174 404.64 518.198 404.784 518.198H406.058L406.148 518.884C406.021 518.902 405.829 518.923 405.57 518.948C405.311 518.966 405.028 518.975 404.721 518.975H404.441ZM408.055 518.975C407.754 518.975 407.522 518.935 407.359 518.857C407.197 518.779 407.079 518.68 407.007 518.559C406.941 518.439 406.899 518.312 406.881 518.18C406.869 518.047 406.863 517.927 406.863 517.819V516.085C406.863 515.994 406.869 515.886 406.881 515.759C406.899 515.627 406.941 515.498 407.007 515.371C407.079 515.245 407.197 515.139 407.359 515.055C407.528 514.971 407.76 514.929 408.055 514.929H409.997C410.394 514.929 410.704 514.968 410.927 515.046C411.156 515.118 411.315 515.239 411.405 515.407C411.502 515.576 411.55 515.802 411.55 516.085V517.421H409.969C409.428 517.421 408.985 517.409 408.642 517.385C408.305 517.361 408.079 517.346 407.964 517.34V517.837C407.958 518.078 408.103 518.198 408.398 518.198H408.859C409.184 518.198 409.5 518.195 409.807 518.189C410.12 518.177 410.406 518.165 410.665 518.153C410.924 518.135 411.131 518.12 411.288 518.108L411.649 518.695C411.649 518.881 411.056 518.975 409.87 518.975H408.055ZM407.964 516.645H410.448V516.067C410.448 515.946 410.433 515.862 410.403 515.814C410.379 515.766 410.301 515.735 410.168 515.723C410.036 515.711 409.81 515.705 409.491 515.705H408.398C408.109 515.705 407.964 515.826 407.964 516.067V516.645ZM412.553 518.975V514.929H413.294L413.655 515.109C413.908 515.061 414.212 515.019 414.567 514.983C414.923 514.947 415.329 514.929 415.787 514.929H416.238C416.539 514.929 416.771 514.971 416.934 515.055C417.096 515.139 417.211 515.245 417.277 515.371C417.349 515.498 417.391 515.627 417.403 515.759C417.421 515.886 417.43 515.994 417.43 516.085V518.975H416.328V516.067C416.328 515.826 416.184 515.705 415.895 515.705H413.926C413.812 515.705 413.736 515.717 413.7 515.741C413.67 515.759 413.655 515.814 413.655 515.904V518.975H412.553ZM419.573 518.975C419.272 518.975 419.04 518.935 418.878 518.857C418.715 518.779 418.598 518.68 418.526 518.559C418.459 518.439 418.417 518.312 418.399 518.18C418.387 518.047 418.381 517.927 418.381 517.819V516.085C418.381 515.994 418.387 515.886 418.399 515.759C418.417 515.627 418.459 515.498 418.526 515.371C418.598 515.245 418.715 515.139 418.878 515.055C419.046 514.971 419.278 514.929 419.573 514.929H420.034C420.588 514.929 421.033 514.941 421.37 514.965C421.714 514.983 421.975 515.004 422.156 515.028V513.249H423.258V518.975H422.517L422.165 518.794C421.912 518.836 421.608 518.878 421.253 518.92C420.898 518.957 420.488 518.975 420.025 518.975H419.573ZM419.916 518.198H421.876C422.003 518.198 422.081 518.183 422.111 518.153C422.141 518.123 422.156 518.047 422.156 517.927V515.769C421.951 515.756 421.692 515.744 421.379 515.732C421.066 515.714 420.732 515.705 420.377 515.705H419.916C419.627 515.705 419.483 515.826 419.483 516.067V517.837C419.483 518.078 419.627 518.198 419.916 518.198ZM427.52 518.975C427.219 518.975 426.987 518.935 426.824 518.857C426.662 518.779 426.544 518.68 426.472 518.559C426.406 518.439 426.364 518.312 426.346 518.18C426.333 518.047 426.327 517.927 426.327 517.819V516.085C426.327 515.994 426.333 515.886 426.346 515.759C426.364 515.627 426.406 515.498 426.472 515.371C426.544 515.245 426.662 515.139 426.824 515.055C426.993 514.971 427.225 514.929 427.52 514.929H429.461C429.859 514.929 430.169 514.968 430.392 515.046C430.62 515.118 430.78 515.239 430.87 515.407C430.967 515.576 431.015 515.802 431.015 516.085V517.421H429.434C428.892 517.421 428.45 517.409 428.107 517.385C427.769 517.361 427.544 517.346 427.429 517.34V517.837C427.423 518.078 427.568 518.198 427.863 518.198H428.323C428.649 518.198 428.965 518.195 429.272 518.189C429.585 518.177 429.871 518.165 430.13 518.153C430.389 518.135 430.596 518.12 430.753 518.108L431.114 518.695C431.114 518.881 430.521 518.975 429.335 518.975H427.52ZM427.429 516.645H429.913V516.067C429.913 515.946 429.898 515.862 429.868 515.814C429.844 515.766 429.765 515.735 429.633 515.723C429.5 515.711 429.275 515.705 428.956 515.705H427.863C427.574 515.705 427.429 515.826 427.429 516.067V516.645ZM432.018 518.975V514.929H432.759L433.12 515.109C433.373 515.061 433.677 515.019 434.032 514.983C434.387 514.947 434.794 514.929 435.251 514.929H435.703C436.004 514.929 436.236 514.971 436.398 515.055C436.561 515.139 436.675 515.245 436.742 515.371C436.814 515.498 436.856 515.627 436.868 515.759C436.886 515.886 436.895 515.994 436.895 516.085V518.975H435.793V516.067C435.793 515.826 435.649 515.705 435.36 515.705H433.391C433.277 515.705 433.201 515.717 433.165 515.741C433.135 515.759 433.12 515.814 433.12 515.904V518.975H432.018ZM440.907 520.564C440.245 520.564 439.706 520.558 439.291 520.546C438.875 520.534 438.556 520.516 438.334 520.492C438.111 520.468 437.957 520.438 437.873 520.402C437.795 520.365 437.756 520.326 437.756 520.284L438.026 519.607C438.123 519.637 438.291 519.673 438.532 519.715C438.779 519.763 439.092 519.787 439.471 519.787H441.016C441.239 519.787 441.395 519.754 441.485 519.688C441.582 519.622 441.63 519.504 441.63 519.336V518.794C441.371 518.842 441.064 518.884 440.709 518.92C440.36 518.957 439.956 518.975 439.499 518.975H439.047C438.746 518.975 438.514 518.935 438.352 518.857C438.189 518.779 438.072 518.68 437.999 518.559C437.933 518.439 437.891 518.312 437.873 518.18C437.861 518.047 437.855 517.927 437.855 517.819V516.085C437.855 515.994 437.861 515.886 437.873 515.759C437.891 515.627 437.933 515.498 437.999 515.371C438.072 515.245 438.189 515.139 438.352 515.055C438.52 514.971 438.752 514.929 439.047 514.929H439.508C440.14 514.929 440.63 514.941 440.98 514.965C441.335 514.989 441.594 515.016 441.756 515.046L441.991 514.929H442.732V519.408C442.732 519.516 442.714 519.637 442.678 519.769C442.647 519.902 442.584 520.028 442.488 520.149C442.392 520.269 442.253 520.368 442.072 520.447C441.892 520.525 441.654 520.564 441.359 520.564H440.907ZM439.39 518.198H441.35C441.488 518.198 441.57 518.186 441.594 518.162C441.618 518.138 441.63 518.059 441.63 517.927V515.769C441.425 515.756 441.166 515.744 440.853 515.732C440.54 515.714 440.206 515.705 439.851 515.705H439.39C439.101 515.705 438.957 515.826 438.957 516.067V517.837C438.951 518.078 439.095 518.198 439.39 518.198ZM444.46 514.36C444.237 514.36 444.075 514.314 443.972 514.224C443.87 514.134 443.819 513.983 443.819 513.773C443.819 513.556 443.867 513.405 443.963 513.321C444.066 513.231 444.231 513.186 444.46 513.186C444.689 513.186 444.854 513.231 444.957 513.321C445.059 513.405 445.11 513.556 445.11 513.773C445.11 513.977 445.059 514.128 444.957 514.224C444.854 514.314 444.689 514.36 444.46 514.36ZM443.909 518.975V514.929H445.011V518.975H443.909ZM446.191 518.975V514.929H446.932L447.293 515.109C447.546 515.061 447.85 515.019 448.205 514.983C448.56 514.947 448.967 514.929 449.424 514.929H449.876C450.177 514.929 450.409 514.971 450.571 515.055C450.734 515.139 450.848 515.245 450.915 515.371C450.987 515.498 451.029 515.627 451.041 515.759C451.059 515.886 451.068 515.994 451.068 516.085V518.975H449.966V516.067C449.966 515.826 449.822 515.705 449.533 515.705H447.564C447.45 515.705 447.374 515.717 447.338 515.741C447.308 515.759 447.293 515.814 447.293 515.904V518.975H446.191ZM453.211 518.975C452.91 518.975 452.678 518.935 452.516 518.857C452.353 518.779 452.236 518.68 452.163 518.559C452.097 518.439 452.055 518.312 452.037 518.18C452.025 518.047 452.019 517.927 452.019 517.819V516.085C452.019 515.994 452.025 515.886 452.037 515.759C452.055 515.627 452.097 515.498 452.163 515.371C452.236 515.245 452.353 515.139 452.516 515.055C452.684 514.971 452.916 514.929 453.211 514.929H455.153C455.55 514.929 455.86 514.968 456.083 515.046C456.312 515.118 456.471 515.239 456.562 515.407C456.658 515.576 456.706 515.802 456.706 516.085V517.421H455.126C454.584 517.421 454.141 517.409 453.798 517.385C453.461 517.361 453.235 517.346 453.121 517.34V517.837C453.115 518.078 453.259 518.198 453.554 518.198H454.015C454.34 518.198 454.656 518.195 454.963 518.189C455.276 518.177 455.562 518.165 455.821 518.153C456.08 518.135 456.288 518.12 456.444 518.108L456.805 518.695C456.805 518.881 456.212 518.975 455.026 518.975H453.211ZM453.121 516.645H455.604V516.067C455.604 515.946 455.589 515.862 455.559 515.814C455.535 515.766 455.457 515.735 455.324 515.723C455.192 515.711 454.966 515.705 454.647 515.705H453.554C453.265 515.705 453.121 515.826 453.121 516.067V516.645ZM458.811 518.975C458.51 518.975 458.279 518.935 458.116 518.857C457.953 518.779 457.836 518.68 457.764 518.559C457.698 518.439 457.655 518.312 457.637 518.18C457.625 518.047 457.619 517.927 457.619 517.819V516.085C457.619 515.994 457.625 515.886 457.637 515.759C457.655 515.627 457.698 515.498 457.764 515.371C457.836 515.245 457.953 515.139 458.116 515.055C458.285 514.971 458.516 514.929 458.811 514.929H460.753C461.151 514.929 461.461 514.968 461.683 515.046C461.912 515.118 462.072 515.239 462.162 515.407C462.258 515.576 462.307 515.802 462.307 516.085V517.421H460.726C460.184 517.421 459.742 517.409 459.398 517.385C459.061 517.361 458.836 517.346 458.721 517.34V517.837C458.715 518.078 458.86 518.198 459.155 518.198H459.615C459.94 518.198 460.256 518.195 460.564 518.189C460.877 518.177 461.163 518.165 461.421 518.153C461.68 518.135 461.888 518.12 462.045 518.108L462.406 518.695C462.406 518.881 461.813 518.975 460.627 518.975H458.811ZM458.721 516.645H461.205V516.067C461.205 515.946 461.19 515.862 461.16 515.814C461.136 515.766 461.057 515.735 460.925 515.723C460.792 515.711 460.567 515.705 460.247 515.705H459.155C458.866 515.705 458.721 515.826 458.721 516.067V516.645ZM463.31 518.975V514.929H464.051L464.394 515.109C464.55 515.025 464.719 514.959 464.9 514.911C465.08 514.862 465.309 514.838 465.586 514.838C466.025 514.838 466.381 514.886 466.652 514.983C466.929 515.079 467.112 515.151 467.203 515.2L466.886 515.985C466.814 515.949 466.694 515.904 466.525 515.85C466.363 515.79 466.17 515.735 465.947 515.687C465.724 515.639 465.481 515.615 465.216 515.615H465.116C464.827 515.615 464.638 515.672 464.547 515.787C464.463 515.901 464.418 516.091 464.412 516.356V518.975H463.31ZM468.118 518.975C467.896 518.975 467.733 518.929 467.631 518.839C467.528 518.749 467.477 518.598 467.477 518.388C467.477 518.171 467.525 518.02 467.622 517.936C467.724 517.846 467.89 517.801 468.118 517.801C468.347 517.801 468.513 517.846 468.615 517.936C468.717 518.02 468.769 518.171 468.769 518.388C468.769 518.592 468.717 518.743 468.615 518.839C468.513 518.929 468.347 518.975 468.118 518.975Z" fill="white"/>
<defs>
<radialGradient id="paint0_diamond_242_2153" cx="0" cy="0" r="1" gradientUnits="userSpaceOnUse" gradientTransform="translate(507.869 175.323) rotate(132.974) scale(408.55 539.286)">
<stop stop-color="#BFBEBE"/>
<stop offset="1" stop-color="#2D2D2D"/>
</radialGradient>
<radialGradient id="paint1_diamond_242_2153" cx="0" cy="0" r="1" gradientUnits="userSpaceOnUse" gradientTransform="translate(845.686 424.897) rotate(180) scale(424.642 560.528)">
<stop stop-color="#BFBEBE"/>
<stop offset="0.51" stop-color="#363636"/>
</radialGradient>
<linearGradient id="paint2_linear_242_2153" x1="423.189" y1="0.254883" x2="423.189" y2="845.25" gradientUnits="userSpaceOnUse">
<stop offset="0.235"/>
<stop offset="0.499748" stop-color="white"/>
<stop offset="0.87"/>
</linearGradient>
<radialGradient id="paint3_diamond_242_2153" cx="0" cy="0" r="1" gradientUnits="userSpaceOnUse" gradientTransform="translate(502.577 190.787) rotate(132.974) scale(383.016 505.581)">
<stop stop-color="#BFBEBE"/>
<stop offset="1" stop-color="#2D2D2D"/>
</radialGradient>
<radialGradient id="paint4_diamond_242_2153" cx="0" cy="0" r="1" gradientUnits="userSpaceOnUse" gradientTransform="translate(819.28 424.763) rotate(180) scale(398.102 525.495)">
<stop stop-color="#BFBEBE"/>
<stop offset="0.51" stop-color="#363636"/>
</radialGradient>
<linearGradient id="paint5_linear_242_2153" x1="423.189" y1="26.6611" x2="423.189" y2="818.844" gradientUnits="userSpaceOnUse">
<stop offset="0.235"/>
<stop offset="0.499748" stop-color="white"/>
<stop offset="0.87"/>
</linearGradient>
<radialGradient id="paint6_diamond_242_2153" cx="0" cy="0" r="1" gradientUnits="userSpaceOnUse" gradientTransform="translate(496.403 208.829) rotate(132.974) scale(353.225 466.258)">
<stop stop-color="#BFBEBE"/>
<stop offset="1" stop-color="#2D2D2D"/>
</radialGradient>
<radialGradient id="paint7_diamond_242_2153" cx="0" cy="0" r="1" gradientUnits="userSpaceOnUse" gradientTransform="translate(788.474 424.606) rotate(180) scale(367.138 484.623)">
<stop stop-color="#BFBEBE"/>
<stop offset="0.51" stop-color="#363636"/>
</radialGradient>
<linearGradient id="paint8_linear_242_2153" x1="423.19" y1="57.4678" x2="423.19" y2="788.036" gradientUnits="userSpaceOnUse">
<stop offset="0.235"/>
<stop offset="0.499748" stop-color="white"/>
<stop offset="0.87"/>
</linearGradient>
<radialGradient id="paint9_diamond_242_2153" cx="0" cy="0" r="1" gradientUnits="userSpaceOnUse" gradientTransform="translate(88.7119 424.449) scale(332.779 439.269)">
<stop stop-color="#BFBEBE"/>
<stop offset="1"/>
</radialGradient>
<radialGradient id="paint10_diamond_242_2153" cx="0" cy="0" r="1" gradientUnits="userSpaceOnUse" gradientTransform="translate(757.666 424.449) rotate(180) scale(336.175 443.751)">
<stop stop-color="#BFBEBE"/>
<stop offset="1"/>
</radialGradient>
<linearGradient id="paint11_linear_242_2153" x1="522.947" y1="88.2744" x2="323.432" y2="757.229" gradientUnits="userSpaceOnUse">
<stop offset="0.199226" stop-color="#7A7A7A"/>
<stop offset="0.499748" stop-color="white" stop-opacity="0.66"/>
<stop offset="0.8019" stop-color="#7A7A7A"/>
</linearGradient>
<radialGradient id="paint12_diamond_242_2153" cx="0" cy="0" r="1" gradientUnits="userSpaceOnUse" gradientTransform="translate(115.118 424.315) scale(306.507 404.59)">
<stop stop-color="#BFBEBE"/>
<stop offset="1"/>
</radialGradient>
<radialGradient id="paint13_diamond_242_2153" cx="0" cy="0" r="1" gradientUnits="userSpaceOnUse" gradientTransform="translate(731.26 424.315) rotate(180) scale(309.635 408.718)">
<stop stop-color="#BFBEBE"/>
<stop offset="1"/>
</radialGradient>
<linearGradient id="paint14_linear_242_2153" x1="483.645" y1="114.681" x2="362.734" y2="730.823" gradientUnits="userSpaceOnUse">
<stop offset="0.199226" stop-color="#7A7A7A"/>
<stop offset="0.499748" stop-color="white" stop-opacity="0.66"/>
<stop offset="0.8019" stop-color="#7A7A7A"/>
</linearGradient>
<radialGradient id="paint15_diamond_242_2153" cx="0" cy="0" r="1" gradientUnits="userSpaceOnUse" gradientTransform="translate(137.123 424.205) scale(284.614 375.69)">
<stop stop-color="#BFBEBE"/>
<stop offset="1"/>
</radialGradient>
<radialGradient id="paint16_diamond_242_2153" cx="0" cy="0" r="1" gradientUnits="userSpaceOnUse" gradientTransform="translate(709.255 424.205) rotate(180) scale(287.518 379.524)">
<stop stop-color="#BFBEBE"/>
<stop offset="1"/>
</radialGradient>
<linearGradient id="paint17_linear_242_2153" x1="355.563" y1="136.687" x2="490.815" y2="708.818" gradientUnits="userSpaceOnUse">
<stop offset="0.199226" stop-color="#7A7A7A"/>
<stop offset="0.499748" stop-color="white" stop-opacity="0.66"/>
<stop offset="0.8019" stop-color="#7A7A7A"/>
</linearGradient>
<radialGradient id="paint18_diamond_242_2153" cx="0" cy="0" r="1" gradientUnits="userSpaceOnUse" gradientTransform="translate(163.529 424.071) scale(258.342 341.011)">
<stop stop-color="#BFBEBE"/>
<stop offset="1"/>
</radialGradient>
<radialGradient id="paint19_diamond_242_2153" cx="0" cy="0" r="1" gradientUnits="userSpaceOnUse" gradientTransform="translate(682.849 424.071) rotate(180) scale(260.978 344.491)">
<stop stop-color="#BFBEBE"/>
<stop offset="1"/>
</radialGradient>
<linearGradient id="paint20_linear_242_2153" x1="469.936" y1="163.093" x2="376.443" y2="682.413" gradientUnits="userSpaceOnUse">
<stop offset="0.199226" stop-color="#7A7A7A"/>
<stop offset="0.499748" stop-color="white" stop-opacity="0.66"/>
<stop offset="0.8019" stop-color="#7A7A7A"/>
</linearGradient>
<radialGradient id="paint21_diamond_242_2153" cx="0" cy="0" r="1" gradientUnits="userSpaceOnUse" gradientTransform="translate(185.534 423.959) scale(236.448 312.112)">
<stop stop-color="#BFBEBE"/>
<stop offset="1"/>
</radialGradient>
<radialGradient id="paint22_diamond_242_2153" cx="0" cy="0" r="1" gradientUnits="userSpaceOnUse" gradientTransform="translate(660.844 423.959) rotate(180) scale(238.861 315.297)">
<stop stop-color="#BFBEBE"/>
<stop offset="1"/>
</radialGradient>
<linearGradient id="paint23_linear_242_2153" x1="387.749" y1="185.098" x2="458.629" y2="660.407" gradientUnits="userSpaceOnUse">
<stop offset="0.199226" stop-color="#7A7A7A"/>
<stop offset="0.499748" stop-color="white" stop-opacity="0.66"/>
<stop offset="0.8019" stop-color="#7A7A7A"/>
</linearGradient>
<radialGradient id="paint24_diamond_242_2153" cx="0" cy="0" r="1" gradientUnits="userSpaceOnUse" gradientTransform="translate(211.94 423.825) scale(210.176 277.433)">
<stop stop-color="#BFBEBE"/>
<stop offset="1"/>
</radialGradient>
<radialGradient id="paint25_diamond_242_2153" cx="0" cy="0" r="1" gradientUnits="userSpaceOnUse" gradientTransform="translate(634.438 423.825) rotate(180) scale(212.321 280.264)">
<stop stop-color="#BFBEBE"/>
<stop offset="1" stop-color="#1B1B1B"/>
</radialGradient>
<linearGradient id="paint26_linear_242_2153" x1="450.607" y1="211.504" x2="395.771" y2="634.001" gradientUnits="userSpaceOnUse">
<stop offset="0.199226" stop-color="#7A7A7A"/>
<stop offset="0.499748" stop-color="white" stop-opacity="0.66"/>
<stop offset="0.8019" stop-color="#7A7A7A"/>
</linearGradient>
<radialGradient id="paint27_diamond_242_2153" cx="0" cy="0" r="1" gradientUnits="userSpaceOnUse" gradientTransform="translate(461.119 311.925) rotate(132.974) scale(182.996 241.555)">
<stop stop-color="#BFBEBE"/>
<stop offset="1" stop-color="#2D2D2D"/>
</radialGradient>
<radialGradient id="paint28_diamond_242_2153" cx="0" cy="0" r="1" gradientUnits="userSpaceOnUse" gradientTransform="translate(612.433 423.713) rotate(180) scale(190.204 251.07)">
<stop stop-color="#BFBEBE"/>
<stop offset="0.51" stop-color="#363636"/>
</radialGradient>
<linearGradient id="paint29_linear_242_2153" x1="423.189" y1="233.509" x2="423.189" y2="611.996" gradientUnits="userSpaceOnUse">
<stop offset="0.235"/>
<stop offset="0.499748" stop-color="white"/>
<stop offset="0.87"/>
</linearGradient>
<radialGradient id="paint30_diamond_242_2153" cx="0" cy="0" r="1" gradientUnits="userSpaceOnUse" gradientTransform="translate(456.708 324.811) rotate(132.974) scale(161.718 213.467)">
<stop stop-color="#BFBEBE"/>
<stop offset="1" stop-color="#2D2D2D"/>
</radialGradient>
<radialGradient id="paint31_diamond_242_2153" cx="0" cy="0" r="1" gradientUnits="userSpaceOnUse" gradientTransform="translate(590.427 423.601) rotate(180) scale(168.087 221.876)">
<stop stop-color="#BFBEBE"/>
<stop offset="0.51" stop-color="#363636"/>
</radialGradient>
<linearGradient id="paint32_linear_242_2153" x1="423.189" y1="255.514" x2="423.189" y2="589.991" gradientUnits="userSpaceOnUse">
<stop offset="0.235"/>
<stop offset="0.499748" stop-color="white"/>
<stop offset="0.87"/>
</linearGradient>
</defs>
</svg>
