<svg width="649" height="185" viewBox="0 0 649 185" fill="none" xmlns="http://www.w3.org/2000/svg">
<mask id="mask0_229_819" style="mask-type:alpha" maskUnits="userSpaceOnUse" x="1" y="48" width="615" height="116">
<path d="M40.5 162L1.8 56.34H27L52.38 125.46L56.52 142.92H58.32L60.66 130.68L84.6 56.34H115.2L140.22 130.68L143.46 142.92H145.26L149.4 125.46L172.98 56.34H198.18L196.38 67.14L159.3 162H128.7L104.22 91.26L100.62 79.74H98.82L95.4 91.26L71.1 162H40.5ZM225.592 162C217.552 162 211.552 160.38 207.592 157.14C203.752 153.9 201.832 148.62 201.832 141.3V104.4C201.832 102.6 201.952 100.44 202.192 97.92C202.552 95.28 203.392 92.7 204.712 90.18C206.152 87.66 208.492 85.56 211.732 83.88C215.092 82.2 219.712 81.36 225.592 81.36H275.272C281.272 81.36 285.892 82.2 289.132 83.88C292.372 85.56 294.652 87.66 295.972 90.18C297.412 92.7 298.252 95.28 298.492 97.92C298.852 100.44 299.032 102.6 299.032 104.4V138.96C299.032 141.12 298.852 143.52 298.492 146.16C298.252 148.8 297.412 151.32 295.972 153.72C294.532 156.12 292.192 158.1 288.952 159.66C285.712 161.22 281.152 162 275.272 162H225.592ZM232.432 146.52H268.432C274.312 146.52 277.252 144.12 277.252 139.32V104.04C277.252 99.24 274.312 96.84 268.432 96.84H232.432C226.672 96.84 223.792 99.24 223.792 104.04V139.32C223.792 144.12 226.672 146.52 232.432 146.52ZM318.769 162V81.36H333.529L340.369 84.96C343.489 83.28 346.849 81.96 350.449 81C354.049 80.04 358.609 79.56 364.129 79.56C372.889 79.56 379.969 80.52 385.369 82.44C390.889 84.36 394.549 85.8 396.349 86.76L390.049 102.42C388.609 101.7 386.209 100.8 382.849 99.72C379.609 98.52 375.769 97.44 371.329 96.48C366.889 95.52 362.029 95.04 356.749 95.04H354.769C349.009 95.04 345.229 96.18 343.429 98.46C341.749 100.74 340.849 104.52 340.729 109.8V162H318.769ZM495.165 163.8C490.125 163.8 485.805 163.2 482.205 162C478.725 160.8 475.005 158.22 471.045 154.26C470.685 153.9 469.725 152.94 468.165 151.38C466.605 149.82 464.865 148.08 462.945 146.16C461.145 144.24 459.465 142.5 457.905 140.94C456.345 139.38 455.325 138.36 454.845 137.88C451.845 134.88 448.965 132.54 446.205 130.86C443.565 129.18 440.265 128.34 436.305 128.34C433.665 128.34 432.105 128.58 431.625 129.06C431.145 129.54 430.905 131.16 430.905 133.92V162H408.945V48.06H430.905V112.86H436.665C438.825 112.86 440.745 112.02 442.425 110.34C443.505 109.26 445.545 107.1 448.545 103.86C451.545 100.62 454.905 96.96 458.625 92.88C462.465 88.8 465.945 85.02 469.065 81.54H495.525L492.645 87.12C489.885 90 486.885 93.06 483.645 96.3C480.405 99.42 477.225 102.48 474.105 105.48C471.105 108.36 468.345 110.94 465.825 113.22C463.305 115.38 461.385 116.82 460.065 117.54C463.665 119.46 466.905 121.68 469.785 124.2C472.665 126.6 475.785 129.36 479.145 132.48C482.505 135.48 486.525 138.9 491.205 142.74C495.405 146.1 499.305 148.08 502.905 148.68C506.505 149.16 508.665 149.4 509.385 149.4L506.145 162C504.945 162.36 503.325 162.72 501.285 163.08C499.245 163.56 497.205 163.8 495.165 163.8ZM540.554 162C532.514 162 526.814 161.58 523.454 160.74C520.094 159.9 518.414 159.06 518.414 158.22L523.814 144.72C527.294 145.08 533.654 145.5 542.894 145.98C552.254 146.34 563.774 146.52 577.454 146.52H586.454C589.454 146.52 591.314 145.74 592.034 144.18C592.874 142.5 593.294 140.28 593.294 137.52C593.294 134.76 592.814 132.54 591.854 130.86C591.014 129.18 589.214 128.34 586.454 128.34H542.174C533.774 128.34 527.714 126.78 523.994 123.66C520.274 120.42 518.414 115.62 518.414 109.26V102.06C518.414 100.38 518.594 98.4 518.954 96.12C519.314 93.84 520.214 91.56 521.654 89.28C523.094 87 525.434 85.14 528.674 83.7C531.914 82.14 536.414 81.36 542.174 81.36H591.854C599.054 81.36 604.154 81.78 607.154 82.62C610.154 83.46 611.654 84.3 611.654 85.14L609.854 98.64C606.374 98.28 599.954 97.92 590.594 97.56C581.234 97.08 569.774 96.84 556.214 96.84H547.214C544.214 96.84 542.294 97.68 541.454 99.36C540.734 100.92 540.374 102.78 540.374 104.94C540.374 107.22 540.734 109.14 541.454 110.7C542.294 112.14 544.214 112.86 547.214 112.86H591.494C599.654 112.86 605.654 114.54 609.494 117.9C613.334 121.26 615.254 125.52 615.254 130.68V141.3C615.254 143.46 615.074 145.74 614.714 148.14C614.474 150.54 613.634 152.82 612.194 154.98C610.754 157.02 608.414 158.7 605.174 160.02C601.934 161.34 597.374 162 591.494 162H540.554Z" fill="black"/>
</mask>
<g mask="url(#mask0_229_819)">
<rect x="-35.0046" y="-52.8203" width="1568.11" height="646.377" transform="rotate(-7.51842 -35.0046 -52.8203)" fill="url(#paint0_linear_229_819)"/>
<rect x="-35.0046" y="-52.8203" width="1568.11" height="646.377" transform="rotate(-7.51842 -35.0046 -52.8203)" fill="url(#paint1_linear_229_819)" style="mix-blend-mode:overlay"/>
<rect x="-35.0046" y="-52.8203" width="1568.11" height="646.377" transform="rotate(-7.51842 -35.0046 -52.8203)" fill="#C1A875" style="mix-blend-mode:color"/>
</g>
<defs>
<linearGradient id="paint0_linear_229_819" x1="51.9371" y1="351.449" x2="1218.04" y2="-311.248" gradientUnits="userSpaceOnUse">
<stop stop-color="#576265"/>
<stop offset="0.172016" stop-color="#9EA1A1"/>
<stop offset="0.45741" stop-color="#848B8A"/>
<stop offset="0.553567" stop-color="#576265"/>
<stop offset="0.823421" stop-color="#576265"/>
<stop offset="0.925155" stop-color="#757A7B"/>
<stop offset="1" stop-color="#576265"/>
</linearGradient>
<linearGradient id="paint1_linear_229_819" x1="590.976" y1="270.368" x2="531.513" y2="-106.098" gradientUnits="userSpaceOnUse">
<stop stop-color="white" stop-opacity="0"/>
<stop offset="1" stop-color="white"/>
</linearGradient>
</defs>
</svg>
