<svg width="867" height="867" viewBox="0 0 867 867" fill="none" xmlns="http://www.w3.org/2000/svg">
<g style="mix-blend-mode:plus-darker">
<path fill-rule="evenodd" clip-rule="evenodd" d="M433.5 867C672.915 867 867 672.915 867 433.5C867 194.085 672.915 0 433.5 0C194.085 0 0 194.085 0 433.5C0 672.915 194.085 867 433.5 867ZM433.5 453.305C444.438 453.305 453.305 444.438 453.305 433.5C453.305 422.562 444.438 413.695 433.5 413.695C422.562 413.695 413.695 422.562 413.695 433.5C413.695 444.438 422.562 453.305 433.5 453.305Z" fill="black"/>
<path fill-rule="evenodd" clip-rule="evenodd" d="M433.5 867C672.915 867 867 672.915 867 433.5C867 194.085 672.915 0 433.5 0C194.085 0 0 194.085 0 433.5C0 672.915 194.085 867 433.5 867ZM433.5 453.305C444.438 453.305 453.305 444.438 453.305 433.5C453.305 422.562 444.438 413.695 433.5 413.695C422.562 413.695 413.695 422.562 413.695 433.5C413.695 444.438 422.562 453.305 433.5 453.305Z" fill="url(#paint0_diamond_242_2286)" fill-opacity="0.5"/>
<path fill-rule="evenodd" clip-rule="evenodd" d="M433.5 867C672.915 867 867 672.915 867 433.5C867 194.085 672.915 0 433.5 0C194.085 0 0 194.085 0 433.5C0 672.915 194.085 867 433.5 867ZM433.5 453.305C444.438 453.305 453.305 444.438 453.305 433.5C453.305 422.562 444.438 413.695 433.5 413.695C422.562 413.695 413.695 422.562 413.695 433.5C413.695 444.438 422.562 453.305 433.5 453.305Z" fill="url(#paint1_diamond_242_2286)" fill-opacity="0.5"/>
<path fill-rule="evenodd" clip-rule="evenodd" d="M433.5 867C672.915 867 867 672.915 867 433.5C867 194.085 672.915 0 433.5 0C194.085 0 0 194.085 0 433.5C0 672.915 194.085 867 433.5 867ZM433.5 453.305C444.438 453.305 453.305 444.438 453.305 433.5C453.305 422.562 444.438 413.695 433.5 413.695C422.562 413.695 413.695 422.562 413.695 433.5C413.695 444.438 422.562 453.305 433.5 453.305Z" fill="url(#paint2_linear_242_2286)" fill-opacity="0.37"/>
</g>
<path fill-rule="evenodd" clip-rule="evenodd" d="M433.5 572.132C510.064 572.132 572.132 510.064 572.132 433.5C572.132 356.936 510.064 294.868 433.5 294.868C356.936 294.868 294.868 356.936 294.868 433.5C294.868 510.064 356.936 572.132 433.5 572.132ZM433.5 446.363C440.604 446.363 446.363 440.604 446.363 433.5C446.363 426.396 440.604 420.637 433.5 420.637C426.396 420.637 420.637 426.396 420.637 433.5C420.637 440.604 426.396 446.363 433.5 446.363Z" fill="#A5A5A5"/>
<circle cx="433.5" cy="433.5" r="149.567" stroke="black" stroke-width="22.1403"/>
<defs>
<radialGradient id="paint0_diamond_242_2286" cx="0" cy="0" r="1" gradientUnits="userSpaceOnUse" gradientTransform="translate(7.91172e-06 435.701) scale(431.299 569.316)">
<stop stop-color="#BFBEBE"/>
<stop offset="1"/>
</radialGradient>
<radialGradient id="paint1_diamond_242_2286" cx="0" cy="0" r="1" gradientUnits="userSpaceOnUse" gradientTransform="translate(867 435.7) rotate(180) scale(435.7 575.125)">
<stop stop-color="#BFBEBE"/>
<stop offset="1"/>
</radialGradient>
<linearGradient id="paint2_linear_242_2286" x1="433.5" y1="0" x2="433.5" y2="867" gradientUnits="userSpaceOnUse">
<stop offset="0.199226"/>
<stop offset="0.499748" stop-color="white"/>
<stop offset="0.8019"/>
</linearGradient>
</defs>
</svg>
